<svg width="168" height="94" viewBox="0 0 168 94" fill="none" xmlns="http://www.w3.org/2000/svg">
<path d="M110.846 43.1533C110.76 43.1533 110.673 43.1337 110.59 43.0938C110.438 43.019 106.824 41.2389 105.053 38.4624C103.22 35.5866 104.268 32.4889 104.314 32.3588C104.42 32.0537 104.754 31.8927 105.057 31.9998C105.361 32.1055 105.522 32.4378 105.416 32.7415C105.407 32.7688 104.515 35.4473 106.037 37.8348C107.633 40.3363 111.067 42.0275 111.101 42.0443C111.392 42.1856 111.512 42.5348 111.371 42.8245C111.27 43.0323 111.062 43.1533 110.846 43.1533Z" fill="#5D4837"/>
<path d="M112.062 44.5146C111.998 44.5146 111.933 44.5035 111.87 44.4811C111.566 44.3747 111.405 44.043 111.511 43.7387C111.543 43.6463 112.331 41.4583 115.254 39.1891C117.772 37.2362 118.582 32.2269 118.972 29.8206L119.024 29.4966C119.076 29.1789 119.373 28.9606 119.695 29.0145C120.012 29.067 120.228 29.3671 120.176 29.6848L120.123 30.0067C119.711 32.5614 118.851 37.8764 115.969 40.112C113.317 42.1706 112.62 44.1039 112.613 44.1221C112.529 44.3635 112.303 44.5146 112.062 44.5146Z" fill="#5D4837"/>
<path d="M116.971 38.7334L116.814 38.7117C116.765 38.6977 115.588 38.3583 114.183 36.9806C112.718 35.5427 112.649 33.3868 112.647 33.2959C112.639 32.974 112.894 32.706 113.216 32.6983C113.546 32.6976 113.805 32.9488 113.814 33.2665C113.814 33.3015 113.884 35.0522 115.001 36.1479C116.172 37.2962 117.122 37.5859 117.131 37.5887C117.438 37.6789 117.617 38.0008 117.53 38.3101C117.456 38.5655 117.224 38.7334 116.971 38.7334Z" fill="#5D4837"/>
<path d="M105.956 39.3223C105.67 39.3223 102.906 39.2656 101.2 37.1223C99.4268 34.8958 100.281 31.8801 100.317 31.7534C100.409 31.4427 100.735 31.2671 101.042 31.356C101.35 31.4469 101.528 31.7709 101.438 32.0788C101.427 32.1201 100.725 34.6537 102.113 36.3953C103.5 38.1376 105.891 38.1551 105.961 38.1551C106.287 38.1551 106.548 38.4119 106.551 38.7324C106.554 39.0536 106.297 39.3174 105.975 39.3216L105.956 39.3223Z" fill="#5D4837"/>
<path d="M107.705 41.0859C107.518 41.0859 107.333 40.9957 107.22 40.8277C107.041 40.5604 107.112 40.198 107.379 40.0182C107.388 40.0126 108.234 39.4409 108.715 38.9168C108.904 38.6502 108.995 37.1682 108.904 35.752C108.883 35.4315 109.127 35.153 109.449 35.1327C109.765 35.1033 110.047 35.3559 110.068 35.6778C110.147 36.8953 110.187 39.0386 109.576 39.7054C109.001 40.333 108.069 40.9607 108.03 40.9873C107.931 41.0537 107.817 41.0859 107.705 41.0859Z" fill="#5D4837"/>
<path d="M111.698 54.8711C111.054 54.8711 110.531 54.3482 110.531 53.7037V42.7378C110.531 42.0927 111.054 41.5707 111.698 41.5707C112.343 41.5707 112.866 42.0927 112.866 42.7378V53.7037C112.866 54.3482 112.343 54.8711 111.698 54.8711Z" fill="#5D4837"/>
<path d="M111.698 42.7637C111.607 42.7637 111.514 42.7427 111.428 42.6965C111.143 42.5468 111.032 42.1941 111.182 41.9086C112.073 40.2132 111.494 36.8972 111.489 36.8636C111.431 36.5467 111.642 36.2437 111.96 36.1863C112.276 36.1338 112.58 36.341 112.637 36.6572C112.664 36.8098 113.292 40.4014 112.216 42.4516C112.111 42.6503 111.909 42.7637 111.698 42.7637Z" fill="#5D4837"/>
<path d="M126.23 22.0598C125.692 21.5329 124.976 21.1879 124.164 21.0088C125.352 19.6625 125.561 18.0448 124.538 17.0449C123.547 16.0744 121.695 15.9883 119.972 16.6971C120.365 14.7512 119.728 12.9473 118.105 12.0286C118.186 11.9369 118.268 11.846 118.339 11.7445C119.153 10.583 118.992 9.23673 117.981 8.73783C116.97 8.23963 115.492 8.77491 114.678 9.93295C114.246 8.38797 113.01 7.25792 111.504 7.21524C109.571 7.16066 107.933 8.91556 107.844 11.1337C107.833 11.3912 107.847 11.6424 107.877 11.8873C106.908 11.2141 105.754 10.9433 104.72 11.2533C103.057 11.7522 102.288 13.5778 102.844 15.4831C100.947 15.7406 99.7313 17.7068 100.125 19.8913C100.204 20.3238 100.34 20.7303 100.521 21.1054C100.108 21.1543 99.7173 21.2719 99.3702 21.472C98.3024 22.0899 97.9211 23.2962 98.2367 24.5746C97.5621 24.858 96.9877 25.261 96.5657 25.7865C95.2902 27.3741 95.745 29.6125 97.4761 31.4759C96.6364 32.7137 96.5811 34.0788 97.4873 34.9598C98.2794 35.7281 99.6137 35.9436 100.992 35.6413C101.695 36.8756 102.893 37.7328 104.345 37.8643C105.32 37.9532 106.267 37.6999 107.087 37.1968C107.915 38.7628 109.389 39.8613 111.191 40.0251C113.927 40.2728 116.478 38.2863 117.317 35.4426C119.296 36.4614 121.511 36.609 123.056 35.6476C125.025 34.4231 125.258 31.8055 123.772 29.4355C123.935 29.3327 124.098 29.2263 124.256 29.1122C127.178 27.0089 128.062 23.8525 126.23 22.0598Z" fill="#AAC91F"/>
<path d="M108.03 38.502C108.03 38.5013 108.029 38.5013 108.029 38.5013V35.3574H123.457C123.331 35.461 123.197 35.5575 123.054 35.6464C122.349 36.0844 121.506 36.2922 120.609 36.2922C119.984 36.2922 119.333 36.1915 118.685 35.997C118.321 35.8878 117.957 35.7486 117.599 35.5813C117.503 35.5365 117.408 35.4904 117.314 35.4414C117.152 35.9921 116.926 36.5106 116.646 36.9871H108.03V38.502ZM125.518 21.5219H123.434C124.658 19.9916 125.028 18.2633 124.384 16.924L124.536 17.0437C124.979 17.4768 125.191 18.0268 125.191 18.6201C125.193 19.3954 124.834 20.2449 124.161 21.0076C124.655 21.1167 125.114 21.2868 125.518 21.5219Z" fill="#869E18"/>
<path d="M104.401 8.18455C105.56 6.24703 107.629 5.35278 109.022 6.18615C110.413 7.02021 110.602 9.26562 109.442 11.2024C108.283 13.14 106.214 14.0342 104.822 13.2008C103.429 12.3668 103.241 10.1207 104.401 8.18455Z" fill="#AAC91F"/>
<path d="M107.451 6.27866C107.141 4.04236 108.193 2.04886 109.8 1.82705C111.407 1.60454 112.962 3.23698 113.271 5.47328C113.58 7.70889 112.528 9.70238 110.921 9.92489C109.314 10.1481 107.76 8.51566 107.451 6.27866Z" fill="#AAC91F"/>
<path d="M111.799 3.38791C112.299 1.18729 113.988 -0.305903 115.57 0.0537519C117.152 0.412708 118.029 2.48947 117.529 4.69078C117.028 6.8921 115.34 8.3853 113.758 8.02565C112.176 7.66599 111.298 5.58992 111.799 3.38791Z" fill="#AAC91F"/>
<path d="M113.865 11.209C113.555 8.97274 114.607 6.97924 116.215 6.75673C117.821 6.53492 119.375 8.16737 119.685 10.403C119.995 12.6393 118.942 14.6328 117.336 14.8546C115.729 15.0778 114.174 13.4453 113.865 11.209Z" fill="#AAC91F"/>
<path d="M117.103 17.3255C116.793 15.0899 117.845 13.0964 119.453 12.8739C121.06 12.6521 122.614 14.2846 122.923 16.5202C123.233 18.7565 122.181 20.75 120.574 20.9718C118.966 21.195 117.412 19.5625 117.103 17.3255Z" fill="#AAC91F"/>
<path d="M110.902 10.0503C110.592 7.81396 111.644 5.82047 113.251 5.59865C114.859 5.37544 116.413 7.00789 116.722 9.24489C117.032 11.4805 115.98 13.4733 114.372 13.6965C112.765 13.919 111.211 12.2866 110.902 10.0503Z" fill="#AAC91F"/>
<path d="M96.6406 22.4208C96.6406 20.1628 97.9561 18.333 99.5787 18.333C101.201 18.333 102.516 20.1628 102.516 22.4208C102.516 24.678 101.201 26.5078 99.5787 26.5078C97.9561 26.5078 96.6406 24.678 96.6406 22.4208Z" fill="#AAC91F"/>
<path d="M98.333 18.3173C97.3226 15.5499 97.7389 12.8553 99.2629 12.299C100.787 11.7421 102.842 13.5347 103.853 16.3014C104.863 19.0695 104.447 21.7641 102.923 22.3204C101.399 22.8774 99.3441 21.0854 98.333 18.3173Z" fill="#AAC91F"/>
<path d="M101.226 16.8447C100.215 14.0773 100.631 11.382 102.155 10.825C103.679 10.2694 105.734 12.0614 106.745 14.8288C107.756 17.5962 107.34 20.2915 105.816 20.8478C104.292 21.4048 102.237 19.6121 101.226 16.8447Z" fill="#AAC91F"/>
<path d="M56.5817 52.7021C56.4959 52.7021 56.4095 52.6838 56.327 52.6434C56.1742 52.5693 52.5605 50.7884 50.7896 48.0119C48.9564 45.1361 50.0049 42.0384 50.0502 41.9083C50.156 41.6039 50.4903 41.4416 50.7932 41.55C51.0971 41.6557 51.2578 41.9867 51.1526 42.291C51.1433 42.3176 50.2519 44.9961 51.7736 47.3836C53.3695 49.8858 56.8033 51.5777 56.8378 51.5938C57.1278 51.7344 57.2481 52.0843 57.1073 52.374C57.0062 52.5819 56.7984 52.7021 56.5817 52.7021Z" fill="#5D4837"/>
<path d="M57.7987 54.0645C57.7347 54.0645 57.6699 54.0546 57.6062 54.0314C57.3023 53.9251 57.1413 53.5935 57.2476 53.289C57.2796 53.1961 58.0676 51.008 60.9906 48.7402C63.5089 46.7866 64.3184 41.778 64.7082 39.3703L64.76 39.0463C64.8131 38.7293 65.1091 38.5117 65.4303 38.5656C65.748 38.6167 65.9642 38.9176 65.9117 39.2352L65.8599 39.5564C65.4471 42.1111 64.5871 47.4275 61.7064 49.6618C59.053 51.721 58.3563 53.6536 58.3494 53.6733C58.2655 53.9146 58.0403 54.0645 57.7987 54.0645Z" fill="#5D4837"/>
<path d="M62.7063 48.2803L62.5503 48.2593C62.5006 48.2453 61.3237 47.9059 59.9194 46.5289C58.4542 45.0903 58.3849 42.9344 58.383 42.8428C58.375 42.5209 58.6298 42.2536 58.9524 42.2452C59.2819 42.2452 59.5415 42.4964 59.5499 42.8134C59.5506 42.8484 59.6206 44.5997 60.7373 45.6948C61.9073 46.8437 62.8582 47.1334 62.8673 47.1362C63.1745 47.2265 63.3543 47.5491 63.2654 47.8569C63.192 48.113 62.9603 48.2803 62.7063 48.2803Z" fill="#5D4837"/>
<path d="M51.6902 48.874C51.4046 48.874 48.6404 48.8173 46.9343 46.6748C45.1615 44.4476 46.0151 41.4318 46.052 41.3052C46.1433 40.9959 46.4696 40.8203 46.776 40.9084C47.0849 41.0001 47.2625 41.3227 47.1726 41.6319C47.1611 41.6725 46.4603 44.2055 47.8472 45.9478C49.2341 47.6894 51.6263 47.7069 51.6951 47.7069C52.0209 47.7069 52.282 47.9644 52.2852 48.2842C52.2885 48.6053 52.0318 48.8698 51.7099 48.8733L51.6902 48.874Z" fill="#5D4837"/>
<path d="M53.4417 50.6367C53.2539 50.6367 53.0696 50.5458 52.9565 50.3778C52.7769 50.1105 52.8482 49.7474 53.1156 49.5675C53.1243 49.5626 53.9711 48.9903 54.4513 48.4669C54.6402 48.2003 54.7315 46.7176 54.6402 45.3021C54.6194 44.9809 54.8632 44.7031 55.1849 44.6821C55.5014 44.6527 55.7838 44.906 55.8048 45.2272C55.883 46.4454 55.9234 48.5879 55.3117 49.2548C54.7364 49.8838 53.8057 50.5108 53.7666 50.5367C53.6668 50.6038 53.5531 50.6367 53.4417 50.6367Z" fill="#5D4837"/>
<path d="M57.4349 64.4219C56.7902 64.4219 56.2676 63.9001 56.2676 63.2547V52.2889C56.2676 51.6437 56.7902 51.1218 57.4349 51.1218C58.0791 51.1218 58.602 51.6437 58.602 52.2889V63.2547C58.602 63.9001 58.0791 64.4219 57.4349 64.4219Z" fill="#5D4837"/>
<path d="M57.4348 52.3125C57.3437 52.3125 57.2508 52.2908 57.1639 52.246C56.8791 52.0956 56.7686 51.7429 56.9185 51.4574C57.8086 49.762 57.2303 46.4461 57.2246 46.4125C57.1674 46.0948 57.3784 45.7925 57.6958 45.7351C58.0123 45.6827 58.3159 45.8898 58.3731 46.2068C58.4004 46.3593 59.028 49.9495 57.9521 52.0004C57.8477 52.1984 57.645 52.3125 57.4348 52.3125Z" fill="#5D4837"/>
<path d="M71.967 31.6086C71.4289 31.0817 70.7124 30.7361 69.9 30.5576C71.0888 29.2114 71.2973 27.5929 70.2751 26.593C69.2836 25.6232 67.4321 25.5378 65.708 26.246C66.1019 24.3 65.4638 22.4955 63.8418 21.5767C63.9223 21.4858 64.0042 21.3948 64.0755 21.2926C64.8893 20.1318 64.7291 18.7856 63.7173 18.286C62.7062 17.7885 61.2291 18.323 60.4146 19.4818C59.9822 17.9361 58.7465 16.8067 57.2405 16.7648C55.3078 16.7102 53.6692 18.4637 53.5804 20.6818C53.57 20.9393 53.5831 21.1912 53.6137 21.4368C52.645 20.7623 51.4903 20.4922 50.4562 20.8021C48.7935 21.301 48.0244 23.1259 48.5806 25.0312C46.684 25.2887 45.4677 27.2557 45.8621 29.4402C45.9397 29.8719 46.0767 30.2784 46.2579 30.6535C45.8446 30.7032 45.4532 30.8207 45.1069 31.0208C44.039 31.638 43.6577 32.8443 43.9735 34.1227C43.2983 34.4068 42.724 34.8098 42.3018 35.3353C41.0267 36.9223 41.4813 39.1614 43.2125 41.0247C42.3728 42.2618 42.3171 43.6277 43.224 44.5079C44.0161 45.2769 45.3504 45.4924 46.7289 45.1901C47.431 46.4245 48.6304 47.2816 50.0815 47.4132C51.0564 47.5013 52.0035 47.248 52.8241 46.7456C53.6514 48.3116 55.1263 49.4109 56.928 49.5739C59.6638 49.8216 62.215 47.8351 63.0532 44.9914C65.0328 46.0102 67.2474 46.1579 68.7937 45.1958C70.7621 43.9719 70.9951 41.3536 69.5082 38.9843C69.6719 38.8808 69.8342 38.7751 69.9924 38.6604C72.9151 36.5584 73.7988 33.4006 71.967 31.6086Z" fill="#AAC91F"/>
<path d="M50.1352 17.7379C51.2946 15.8011 53.3634 14.9062 54.7558 15.7403C56.1478 16.5736 56.3362 18.8197 55.1767 20.7565C54.017 22.6934 51.9484 23.5883 50.5561 22.7542C49.1638 21.9209 48.9754 19.6755 50.1352 17.7379Z" fill="#AAC91F"/>
<path d="M53.1869 15.8296C52.8772 13.5933 53.9292 11.6005 55.5364 11.3773C57.1439 11.1554 58.6975 12.7879 59.0075 15.0235C59.3168 17.2605 58.2647 19.2533 56.6574 19.4758C55.0502 19.6983 53.4963 18.0659 53.1869 15.8296Z" fill="#AAC91F"/>
<path d="M57.533 12.9396C58.0338 10.7375 59.7221 9.24505 61.3042 9.604C62.8862 9.96436 63.7637 12.0404 63.2634 14.241C62.7631 16.4431 61.0746 17.9356 59.4926 17.5766C57.91 17.2169 57.0331 15.1402 57.533 12.9396Z" fill="#AAC91F"/>
<path d="M59.6008 20.7594C59.2916 18.5224 60.3432 16.5296 61.9505 16.3071C63.5577 16.0845 65.1118 17.717 65.4211 19.9533C65.7311 22.1896 64.6794 24.1824 63.0714 24.4056C61.4642 24.6274 59.9108 22.995 59.6008 20.7594Z" fill="#AAC91F"/>
<path d="M62.8372 26.8774C62.5279 24.6411 63.5796 22.6476 65.1875 22.4251C66.7948 22.2026 68.3481 23.835 68.6581 26.0713C68.9674 28.3076 67.9157 30.3004 66.3085 30.5237C64.7005 30.7462 63.1471 29.113 62.8372 26.8774Z" fill="#AAC91F"/>
<path d="M56.6379 19.6029C56.3286 17.3673 57.3809 15.3738 58.9881 15.1513C60.5953 14.9295 62.1494 16.5612 62.4587 18.7975C62.768 21.0338 61.7163 23.0273 60.109 23.2491C58.5018 23.4723 56.9476 21.8399 56.6379 19.6029Z" fill="#AAC91F"/>
<path d="M42.377 31.9708C42.377 29.7128 43.6925 27.8831 45.3149 27.8831C46.9374 27.8831 48.253 29.7128 48.253 31.9708C48.253 34.2288 46.9374 36.0586 45.3149 36.0586C43.6925 36.0586 42.377 34.2288 42.377 31.9708Z" fill="#AAC91F"/>
<path d="M44.0675 27.8679C43.057 25.1005 43.473 22.4058 44.9974 21.8489C46.5214 21.2919 48.5766 23.0846 49.5871 25.852C50.5976 28.6193 50.1819 31.3147 48.6578 31.8716C47.1337 32.4272 45.0785 30.6352 44.0675 27.8679Z" fill="#AAC91F"/>
<path d="M46.9605 26.393C45.9495 23.6257 46.3655 20.9317 47.8898 20.3748C49.4139 19.8178 51.4688 21.6105 52.4795 24.3772C53.4906 27.1452 53.0737 29.8399 51.5502 30.3968C50.0259 30.9531 47.9708 29.1604 46.9605 26.393Z" fill="#AAC91F"/>
<path d="M15.0136 79.6816C14.9278 79.6816 14.8411 79.6633 14.7586 79.6234C14.606 79.5485 10.9921 77.7678 9.22122 74.9921C7.38802 72.1162 8.43648 69.0186 8.48217 68.8885C8.58769 68.5834 8.92223 68.4216 9.22479 68.5293C9.52874 68.6351 9.68947 68.9666 9.58423 69.2711C9.5752 69.2976 8.68362 71.9763 10.2055 74.3638C11.8011 76.8658 15.2352 78.5571 15.2697 78.5738C15.5594 78.7146 15.6797 79.0644 15.5389 79.3542C15.4378 79.5619 15.2301 79.6816 15.0136 79.6816Z" fill="#5D4837"/>
<path d="M16.2283 81.042C16.1644 81.042 16.0996 81.0316 16.0362 81.0092C15.7319 80.9029 15.571 80.5705 15.6773 80.2668C15.7093 80.1736 16.4973 77.9857 19.4199 75.7179C21.9384 73.7644 22.7486 68.7551 23.1378 66.3479L23.19 66.024C23.2424 65.7069 23.5388 65.4886 23.8604 65.5432C24.178 65.5952 24.394 65.8945 24.3418 66.2129L24.2898 66.5349C23.8769 69.0888 23.017 74.4045 20.1358 76.6395C17.4826 78.6979 16.7862 80.6312 16.7791 80.6504C16.6954 80.8917 16.4699 81.042 16.2283 81.042Z" fill="#5D4837"/>
<path d="M21.1379 75.2617L20.9813 75.2407C20.9318 75.2262 19.7548 74.8875 18.3505 73.5097C16.8852 72.0717 16.8163 69.9159 16.8146 69.8244C16.8065 69.5024 17.0612 69.2351 17.3834 69.2266C17.7134 69.2261 17.9725 69.4778 17.9809 69.7949C17.982 69.8299 18.052 71.5805 19.1683 72.6763C20.3386 73.8253 21.289 74.1148 21.2989 74.1178C21.6058 74.2072 21.7851 74.53 21.6965 74.8386C21.6235 75.0944 21.3912 75.2617 21.1379 75.2617Z" fill="#5D4837"/>
<path d="M10.1219 75.8516C9.83627 75.8516 7.07266 75.795 5.36597 73.6515C3.59289 71.4253 4.44682 68.4099 4.48398 68.282C4.57501 67.9726 4.90136 67.7971 5.20777 67.886C5.51662 67.977 5.69456 68.3003 5.60437 68.6086C5.59282 68.6502 4.89205 71.1831 6.27918 72.9248C7.66574 74.6661 10.0579 74.6844 10.1268 74.6844C10.4527 74.6844 10.7136 74.9411 10.7172 75.2617C10.7205 75.5829 10.4636 75.8474 10.1416 75.8507L10.1219 75.8516Z" fill="#5D4837"/>
<path d="M11.8731 77.6123C11.6856 77.6123 11.5011 77.5221 11.3879 77.3535C11.2086 77.087 11.2799 76.7237 11.5473 76.5439C11.5558 76.5384 12.4028 75.9666 12.8831 75.4432C13.0716 75.1767 13.1632 73.6939 13.0716 72.2778C13.0509 71.9566 13.2946 71.6787 13.6167 71.6592C13.9329 71.6292 14.2155 71.8823 14.2363 72.2035C14.3145 73.4211 14.3549 75.5643 13.7434 76.2312C13.1679 76.8596 12.2372 77.4871 12.1981 77.5131C12.0983 77.58 11.9849 77.6123 11.8731 77.6123Z" fill="#5D4837"/>
<path d="M15.8663 91.3994C15.2218 91.3994 14.6992 90.8774 14.6992 90.2323V79.2661C14.6992 78.6211 15.2218 78.099 15.8663 78.099C16.5111 78.099 17.0334 78.6211 17.0334 79.2661V90.2323C17.0334 90.8774 16.5111 91.3994 15.8663 91.3994Z" fill="#5D4837"/>
<path d="M15.8626 79.291C15.7713 79.291 15.6784 79.2694 15.5918 79.2238C15.3067 79.0734 15.1963 78.7214 15.3463 78.4352C16.2363 76.7406 15.6579 73.4237 15.6519 73.3904C15.5951 73.0733 15.8063 72.771 16.1236 72.7137C16.4402 72.6603 16.7439 72.8675 16.8007 73.1851C16.828 73.3371 17.4558 76.9281 16.38 78.9789C16.2753 79.177 16.0726 79.291 15.8626 79.291Z" fill="#5D4837"/>
<path d="M30.3946 58.5875C29.8562 58.0604 29.1407 57.7155 28.3277 57.537C29.5165 56.1901 29.7247 54.5725 28.7031 53.5724C27.7109 52.6026 25.8596 52.5167 24.1357 53.2247C24.5296 51.2796 23.8916 49.475 22.2691 48.5563C22.3498 48.4646 22.4321 48.3744 22.5031 48.2729C23.3168 47.1114 23.1564 45.7651 22.1448 45.2655C21.1343 44.7673 19.6567 45.3026 18.8422 46.4613C18.41 44.9156 17.1741 43.7863 15.6681 43.7436C13.7359 43.689 12.0967 45.4432 12.0082 47.662C11.9978 47.9188 12.0109 48.17 12.0413 48.4156C11.0726 47.7418 9.91777 47.4717 8.8838 47.7817C7.22112 48.2806 6.45199 50.1062 7.0082 52.0108C5.11154 52.2683 3.8955 54.2344 4.28937 56.4197C4.36781 56.8515 4.50426 57.258 4.68548 57.633C4.27216 57.6819 3.88081 57.7994 3.53445 57.9998C2.4666 58.6175 2.08554 59.824 2.40097 61.1023C1.72588 61.3855 1.1519 61.7887 0.729551 62.3148C-0.545476 63.9018 -0.0912182 66.1409 1.64003 68.0036C0.800084 69.242 0.744876 70.6073 1.65178 71.4874C2.44358 72.2558 3.7783 72.4719 5.15639 72.1691C5.85856 73.404 7.05823 74.2612 8.50903 74.3926C9.48429 74.4809 10.4311 74.2275 11.2516 73.7252C12.0792 75.2905 13.5539 76.3898 15.3556 76.5535C18.0913 76.8004 20.6426 74.8146 21.4812 71.9704C23.4601 72.9891 25.6751 73.1375 27.2213 72.1759C29.1898 70.9514 29.4224 68.3332 27.9358 65.9632C28.0995 65.8604 28.2619 65.7541 28.4204 65.6399C31.3425 63.5371 32.2265 60.3802 30.3946 58.5875Z" fill="#AAC91F"/>
<path d="M1.64321 68.002C1.63762 67.9961 1.63204 67.9896 1.62645 67.984C1.63204 67.9896 1.63762 67.9961 1.64321 68.002ZM1.61828 67.9748C1.61577 67.9726 1.61355 67.9698 1.61133 67.9676C1.61384 67.9704 1.61577 67.9726 1.61828 67.9748Z" fill="#C9C8C8"/>
<path d="M15.8148 76.5742C15.662 76.5742 15.5084 76.5674 15.3543 76.5534C14.8038 76.5037 14.2839 76.366 13.8039 76.1552C13.438 75.9942 13.0954 75.7906 12.7798 75.5501C12.1531 75.0721 11.6323 74.4481 11.2502 73.7251C10.5377 74.161 9.72973 74.4101 8.89091 74.4101C8.76377 74.4101 8.63586 74.4045 8.50767 74.3926C8.49347 74.3912 8.47926 74.3898 8.46478 74.3884C7.03309 74.2436 5.85014 73.3913 5.15504 72.169C4.96619 72.2103 4.77838 72.2423 4.59254 72.2642C4.38591 72.2884 4.18229 72.3005 3.98273 72.3005C3.05071 72.3005 2.21321 72.034 1.65043 71.4873C1.20408 71.0544 0.990874 70.5036 0.989544 69.9081C0.987865 69.2939 1.21227 68.6324 1.63867 68.0035C1.63322 67.9978 1.62776 67.9915 1.6223 67.986C1.61957 67.9833 1.61684 67.9803 1.61432 67.977C1.61187 67.9748 1.60998 67.9726 1.60754 67.9699C1.06553 67.3801 0.65277 66.753 0.380859 66.1214C0.733938 66.2201 1.11829 66.2695 1.52007 66.2695C1.69773 66.2695 1.87896 66.2597 2.06235 66.2408C2.10007 66.2367 2.1375 66.2345 2.17466 66.2345C2.50045 66.2345 2.80958 66.3851 3.00774 66.6489C3.72691 67.6066 4.78524 68.2511 6.02752 68.3637C6.15599 68.3758 6.28418 68.3812 6.41125 68.3812C6.88601 68.3812 7.35125 68.3017 7.79487 68.1533C7.9479 68.1022 8.10505 68.077 8.26032 68.077C8.68232 68.077 9.09012 68.2618 9.36455 68.6054C10.2223 69.6774 11.4454 70.3951 12.8741 70.5247C13.0285 70.5386 13.1827 70.5454 13.3357 70.5454C15.1752 70.5454 16.8901 69.5514 18.002 67.9945C18.602 67.154 19.5512 66.6243 20.5549 66.6243C20.7328 66.6243 20.9124 66.6405 21.092 66.6754C21.2994 66.7153 21.5063 66.7449 21.711 66.7642V72.0848C21.6337 72.0479 21.5566 72.0094 21.4798 71.9703C21.2838 72.635 20.9944 73.2528 20.6309 73.8063C20.4125 74.1386 20.1673 74.4481 19.8997 74.7298C18.814 75.8745 17.3583 76.5742 15.8148 76.5742Z" fill="#869E18"/>
<path d="M8.56864 44.7119C9.72863 42.7744 11.7969 41.8801 13.1892 42.7142C14.5816 43.5476 14.7699 45.7937 13.6102 47.7298C12.4505 49.6673 10.3819 50.5615 8.98959 49.7282C7.59722 48.8948 7.40921 46.6494 8.56864 44.7119Z" fill="#AAC91F"/>
<path d="M11.6185 42.805C11.3088 40.5694 12.3609 38.5759 13.968 38.3534C15.5758 38.1316 17.1297 39.764 17.4391 41.9997C17.7488 44.236 16.6967 46.2295 15.0896 46.4513C13.4818 46.6745 11.9282 45.042 11.6185 42.805Z" fill="#AAC91F"/>
<path d="M15.9668 39.9176C16.4672 37.7156 18.1553 36.2224 19.7376 36.5821C21.3199 36.9424 22.1973 39.0178 21.6965 41.2198C21.1966 43.4204 19.5083 44.9136 17.9263 44.554C16.3434 44.195 15.4665 42.1182 15.9668 39.9176Z" fill="#AAC91F"/>
<path d="M18.0326 47.7347C17.7229 45.4984 18.7749 43.5049 20.3821 43.2831C21.9893 43.0606 23.5437 44.693 23.8531 46.9293C24.1625 49.1649 23.1107 51.1584 21.5031 51.381C19.8962 51.6042 18.3423 49.971 18.0326 47.7347Z" fill="#AAC91F"/>
<path d="M21.2669 53.8568C20.9575 51.6206 22.0095 49.6278 23.617 49.4053C25.2241 49.1828 26.778 50.8152 27.0877 53.0516C27.3971 55.2871 26.345 57.2805 24.7379 57.503C23.1304 57.7263 21.5766 56.094 21.2669 53.8568Z" fill="#AAC91F"/>
<path d="M15.0677 46.5786C14.758 44.343 15.8103 42.3495 17.4175 42.127C19.0246 41.9045 20.5786 43.5369 20.8885 45.7732C21.1982 48.0095 20.1459 50.003 18.5384 50.2248C16.9313 50.4473 15.3774 48.8149 15.0677 46.5786Z" fill="#AAC91F"/>
<path d="M0.806641 58.9505C0.806641 56.693 2.12218 54.8626 3.74469 54.8626C5.36713 54.8626 6.68267 56.693 6.68267 58.9505C6.68267 61.2076 5.36713 63.0381 3.74469 63.0381C2.12218 63.0381 0.806641 61.2076 0.806641 58.9505Z" fill="#AAC91F"/>
<path d="M2.4992 54.8439C1.48867 52.0758 1.90465 49.3819 3.42906 48.825C4.95312 48.268 7.00826 50.0607 8.01872 52.8281C9.02982 55.5955 8.61349 58.29 7.08943 58.847C5.56537 59.4032 3.51023 57.6113 2.4992 54.8439Z" fill="#AAC91F"/>
<path d="M5.39218 53.3707C4.38109 50.6033 4.79714 47.9087 6.32148 47.3517C7.84554 46.7954 9.9004 48.5874 10.9112 51.3548C11.9222 54.122 11.506 56.8176 9.98185 57.3744C8.45779 57.9306 6.40265 56.1381 5.39218 53.3707Z" fill="#AAC91F"/>
<path d="M150.171 79.1191C150.079 79.1191 149.984 79.0986 149.896 79.0546C149.73 78.9743 145.817 77.0465 143.9 74.0404C141.916 70.9275 143.05 67.5743 143.1 67.433C143.215 67.1034 143.574 66.9293 143.905 67.0447C144.233 67.1594 144.408 67.5191 144.294 67.8488C144.276 67.8985 143.324 70.7862 144.966 73.3609C146.692 76.0696 150.411 77.9009 150.448 77.9184C150.762 78.0715 150.893 78.4495 150.74 78.763C150.631 78.9874 150.406 79.1191 150.171 79.1191Z" fill="#5D4837"/>
<path d="M151.486 80.5918C151.417 80.5918 151.346 80.5806 151.276 80.5555C150.949 80.4398 150.776 80.0818 150.891 79.7527C150.925 79.6535 151.778 77.2848 154.943 74.829C157.67 72.7137 158.546 67.2901 158.967 64.6836L159.024 64.3345C159.08 63.9901 159.408 63.7559 159.749 63.8133C160.094 63.8699 160.327 64.1946 160.271 64.5387L160.215 64.8853C159.768 67.6511 158.838 73.4071 155.718 75.8274C152.873 78.0343 152.09 80.1509 152.083 80.172C151.99 80.4303 151.747 80.5918 151.486 80.5918Z" fill="#5D4837"/>
<path d="M156.8 74.333L156.631 74.3101C156.578 74.2945 155.302 73.9279 153.783 72.4356C152.196 70.8792 152.122 68.545 152.119 68.4463C152.111 68.0973 152.387 67.8081 152.735 67.7991C153.088 67.7857 153.373 68.0656 153.382 68.4149C153.384 68.4589 153.462 70.3503 154.668 71.5336C155.935 72.7775 156.964 73.091 156.974 73.094C157.307 73.1918 157.501 73.5404 157.406 73.8741C157.326 74.1512 157.075 74.333 156.8 74.333Z" fill="#5D4837"/>
<path d="M144.876 74.9717C144.567 74.9717 141.576 74.9099 139.727 72.5905C137.809 70.18 138.733 66.915 138.773 66.7779C138.872 66.4427 139.224 66.2503 139.557 66.349C139.892 66.4469 140.083 66.7967 139.986 67.1313C139.974 67.1747 139.214 69.9176 140.716 71.8033C142.241 73.7171 144.856 73.7002 144.881 73.7079C145.235 73.7079 145.517 73.9858 145.522 74.3313C145.527 74.6806 145.247 74.9668 144.898 74.9717H144.876Z" fill="#5D4837"/>
<path d="M146.769 76.8809C146.565 76.8809 146.365 76.783 146.244 76.601C146.05 76.3112 146.127 75.9196 146.416 75.7244C146.425 75.7187 147.342 75.1001 147.862 74.5327C148.066 74.2443 148.164 72.6399 148.066 71.1068C148.043 70.7592 148.308 70.4582 148.656 70.4358C149.001 70.4169 149.305 70.6771 149.327 71.0256C149.412 72.3439 149.456 74.6641 148.793 75.3863C148.171 76.0663 147.162 76.7453 147.12 76.774C147.012 76.8467 146.889 76.8809 146.769 76.8809Z" fill="#5D4837"/>
<path d="M151.095 91.8066C150.397 91.8066 149.832 91.2406 149.832 90.5431V78.6703C149.832 77.9724 150.397 77.4072 151.095 77.4072C151.793 77.4072 152.359 77.9724 152.359 78.6703V90.5431C152.359 91.2406 151.793 91.8066 151.095 91.8066Z" fill="#5D4837"/>
<path d="M151.097 78.6992C150.997 78.6992 150.896 78.676 150.803 78.6271C150.494 78.4655 150.375 78.0828 150.537 77.7743C151.5 75.9389 150.874 72.3479 150.868 72.3116C150.807 71.9685 151.035 71.6405 151.379 71.5787C151.72 71.5186 152.05 71.7455 152.112 72.089C152.141 72.2533 152.821 76.1411 151.656 78.3614C151.543 78.5759 151.323 78.6992 151.097 78.6992Z" fill="#5D4837"/>
<path d="M166.824 56.2811C166.241 55.7118 165.466 55.3382 164.587 55.1441C165.873 53.6858 166.099 51.9346 164.992 50.8521C163.919 49.8025 161.914 49.7095 160.048 50.475C160.474 48.3695 159.784 46.4166 158.027 45.4216C158.115 45.3222 158.204 45.2236 158.281 45.1137C159.162 43.8563 158.987 42.3988 157.892 41.8586C156.799 41.3191 155.198 41.8992 154.317 43.1524C153.849 41.4801 152.512 40.257 150.881 40.2108C148.788 40.152 147.015 42.051 146.918 44.4525C146.907 44.731 146.921 45.0032 146.954 45.2691C145.905 44.5399 144.655 44.2468 143.536 44.5826C141.736 45.1221 140.903 47.0988 141.506 49.1609C139.452 49.4401 138.135 51.5693 138.563 53.9343C138.647 54.4017 138.794 54.8418 138.991 55.2477C138.543 55.3015 138.12 55.4289 137.745 55.6451C136.589 56.3142 136.176 57.6199 136.517 59.0037C135.787 59.3109 135.165 59.7469 134.708 60.3165C133.327 62.0344 133.819 64.4588 135.694 66.4754C134.785 67.8161 134.725 69.294 135.706 70.2468C136.564 71.0796 138.008 71.3125 139.5 70.9851C140.261 72.3216 141.56 73.2493 143.13 73.3922C144.186 73.4879 145.211 73.213 146.099 72.6693C146.995 74.3648 148.592 75.5543 150.543 75.7314C153.504 75.9992 156.267 73.849 157.174 70.7697C159.317 71.8731 161.714 72.0332 163.388 70.9921C165.519 69.6662 165.772 66.8316 164.162 64.2664C164.339 64.1552 164.514 64.0398 164.687 63.9165C167.85 61.6397 168.807 58.2223 166.824 56.2811Z" fill="#AAC91F"/>
<path d="M151.036 75.7539C150.873 75.7539 150.708 75.746 150.543 75.7315C149.948 75.6776 149.384 75.5292 148.865 75.3005C149.384 75.5292 149.948 75.6776 150.543 75.7315C150.708 75.746 150.873 75.7539 151.036 75.7539ZM164.162 64.2665C164.34 64.1553 164.515 64.0399 164.687 63.9166C166.733 62.445 167.856 60.4965 167.858 58.7778C167.856 60.4965 166.733 62.445 164.687 63.9166C164.516 64.0399 164.34 64.1553 164.162 64.2665ZM151.057 40.2207C151.056 40.2207 151.055 40.2207 151.054 40.2207C151.055 40.2207 151.056 40.2207 151.057 40.2207ZM151.05 40.22C150.995 40.2158 150.941 40.213 150.886 40.2109C150.941 40.213 150.995 40.2158 151.05 40.22ZM150.539 40.2186C150.54 40.2186 150.54 40.2186 150.542 40.2186C150.54 40.2186 150.54 40.2186 150.539 40.2186ZM150.556 40.2179C150.559 40.2172 150.561 40.2172 150.563 40.2172C150.561 40.2172 150.559 40.2172 150.556 40.2179ZM150.577 40.2165C150.58 40.2165 150.582 40.2158 150.585 40.2158C150.582 40.2158 150.58 40.2165 150.577 40.2165ZM150.604 40.2144C150.608 40.2144 150.612 40.2144 150.617 40.2144C150.612 40.2144 150.608 40.2144 150.604 40.2144ZM150.628 40.2137C150.631 40.2137 150.635 40.213 150.638 40.213C150.635 40.213 150.631 40.2137 150.628 40.2137ZM150.649 40.2123C150.652 40.2123 150.657 40.2123 150.66 40.2123C150.657 40.2123 150.652 40.2123 150.649 40.2123ZM150.67 40.2116C150.675 40.2116 150.68 40.2116 150.685 40.2116C150.68 40.2116 150.675 40.2116 150.67 40.2116ZM150.691 40.2109C150.698 40.2109 150.705 40.2109 150.712 40.2109C150.705 40.2109 150.698 40.2109 150.691 40.2109ZM150.721 40.2102C150.725 40.2102 150.73 40.2102 150.734 40.2102C150.73 40.2102 150.725 40.2102 150.721 40.2102ZM150.743 40.2102C150.747 40.2102 150.752 40.2102 150.757 40.2102C150.752 40.2102 150.747 40.2102 150.743 40.2102ZM150.765 40.2095C150.771 40.2095 150.777 40.2095 150.782 40.2095C150.777 40.2095 150.771 40.2095 150.765 40.2095Z" fill="#C9C8C8"/>
<path d="M151.042 75.7539C151.04 75.7539 151.038 75.7539 151.036 75.7539C150.873 75.7539 150.708 75.746 150.543 75.7315C149.948 75.6776 149.384 75.5292 148.865 75.3005C148.468 75.1261 148.098 74.9058 147.755 74.6455C147.575 74.5076 147.402 74.3586 147.238 74.199V42.895C147.807 41.3976 149.072 40.3278 150.539 40.2186C150.54 40.2186 150.54 40.2186 150.542 40.2186C150.547 40.2186 150.551 40.2179 150.556 40.2179C150.558 40.2172 150.561 40.2172 150.563 40.2172C150.568 40.2172 150.572 40.2165 150.577 40.2165C150.579 40.2165 150.582 40.2158 150.585 40.2158C150.591 40.2151 150.598 40.2151 150.604 40.2144C150.608 40.2144 150.612 40.2144 150.617 40.2144C150.62 40.2137 150.624 40.2137 150.628 40.2137C150.631 40.2137 150.635 40.213 150.638 40.213C150.642 40.213 150.645 40.213 150.649 40.2123C150.652 40.2123 150.656 40.2123 150.66 40.2123C150.663 40.2123 150.667 40.2116 150.67 40.2116C150.675 40.2116 150.679 40.2116 150.684 40.2116C150.687 40.2109 150.689 40.2109 150.691 40.2109C150.698 40.2109 150.705 40.2109 150.712 40.2109C150.715 40.2102 150.718 40.2102 150.721 40.2102C150.725 40.2102 150.73 40.2102 150.734 40.2102C150.737 40.2102 150.74 40.2102 150.743 40.2102C150.747 40.2102 150.752 40.2102 150.756 40.2102C150.759 40.2102 150.762 40.2095 150.765 40.2095C150.77 40.2095 150.777 40.2095 150.782 40.2095C150.784 40.2095 150.785 40.2095 150.787 40.2095C150.818 40.2095 150.85 40.2102 150.882 40.2109C150.883 40.2109 150.885 40.2109 150.886 40.2109C150.94 40.213 150.995 40.2158 151.05 40.22C151.051 40.22 151.052 40.22 151.054 40.2207C151.055 40.2207 151.056 40.2207 151.057 40.2207C151.204 40.2326 151.348 40.255 151.488 40.2851V68.2913C152.225 67.8253 152.881 67.2061 153.41 66.4657C154.059 65.5561 155.087 64.9815 156.174 64.9815C156.366 64.9815 156.561 64.9999 156.755 65.037C157.195 65.1215 157.633 65.1649 158.059 65.1649C159.029 65.1649 159.942 64.9397 160.704 64.4652C162.477 63.3618 162.431 61.3815 161.437 59.2698C161.118 58.5903 161.378 57.8187 162.002 57.3896C164.691 55.455 165.778 52.6987 164.829 50.7228L164.993 50.8522C165.472 51.3218 165.702 51.9172 165.703 52.5596C165.704 53.3985 165.316 54.3187 164.587 55.1442C165.467 55.3383 166.242 55.7119 166.825 56.2812C167.525 56.9679 167.859 57.8381 167.858 58.7778C167.855 60.4965 166.732 62.445 164.687 63.9166C164.515 64.0399 164.339 64.1553 164.162 64.2665C164.854 65.3694 165.202 66.5209 165.205 67.5817C165.208 68.9891 164.605 70.2357 163.388 70.9922C162.626 71.4668 161.713 71.692 160.742 71.692C160.066 71.692 159.36 71.5821 158.659 71.3714C158.264 71.2533 157.871 71.1027 157.484 70.9215C157.38 70.8734 157.277 70.8228 157.174 70.7698C156.318 73.6755 153.81 75.7539 151.042 75.7539Z" fill="#869E18"/>
<path d="M162.138 90.355H2.37527C1.51266 90.355 0.806641 91.0063 0.806641 91.8042C0.806641 92.6012 1.51266 93.2539 2.37527 93.2539H162.138C163.001 93.2539 163.707 92.6012 163.707 91.8042C163.707 91.0063 163.001 90.355 162.138 90.355Z" fill="#849632"/>
<path d="M62.916 90.293H108.032V35.3574H62.916V90.293Z" fill="#EBD7B7"/>
<path d="M21.7109 90.293H62.9129V36.987H21.7109V90.293Z" fill="#FFF7DF"/>
<path d="M31.8027 58.7354H38.5015V45.5855H31.8027V58.7354Z" fill="#366ED7"/>
<path d="M30.709 59.374H31.799V45.0787H30.709V59.374Z" fill="#EBD7B7"/>
<path d="M32.1937 58.7331H30.3184V59.374H32.1937V58.7331Z" fill="#EBD7B7"/>
<path d="M31.9927 58.5112H30.5176V58.7354H31.9927V58.5112Z" fill="#EBD7B7"/>
<path d="M38.5 59.374H39.59V45.0787H38.5V59.374Z" fill="#EBD7B7"/>
<path d="M39.9825 58.7331H38.1074V59.374H39.9825V58.7331Z" fill="#EBD7B7"/>
<path d="M39.7837 58.5112H38.3086V58.7354H39.7837V58.5112Z" fill="#EBD7B7"/>
<path d="M38.1074 59.374H32.1934V58.7331H38.1074V59.374Z" fill="#EBD7B7"/>
<path d="M29.7559 60.208H40.5504V59.3741H29.7559V60.208Z" fill="#EBD7B7"/>
<path d="M29.7559 60.8164H40.5504V60.2077H29.7559V60.8164Z" fill="#C9C2AF"/>
<path d="M30.4297 45.5859H39.8704V45.0814H30.4297V45.5859Z" fill="#EBD7B7"/>
<path d="M31.8027 45.9463H38.5015V45.5852H31.8027V45.9463Z" fill="#2B56A9"/>
<path d="M30.709 45.9463H31.799V45.5852H30.709V45.9463Z" fill="#B9A990"/>
<path d="M38.5 45.9463H39.59V45.5852H38.5V45.9463Z" fill="#B9A990"/>
<path d="M35.1484 42.2415L30.709 45.0781H39.5877L35.1484 42.2415Z" fill="#EBD7B7"/>
<path d="M32.0273 44.8506L35.151 42.855L38.2737 44.8506H32.0273Z" fill="#D4C2A5"/>
<path d="M38.2737 44.8506H37.9266L35.2551 43.1433L32.5833 44.8506H32.0273L35.151 42.855L38.2737 44.8506Z" fill="#A79881"/>
<path d="M33.2791 58.7354H32.9746V45.5855H33.2791V58.7354Z" fill="#EFEFEF"/>
<path d="M35.1522 58.7354H34.8477V45.5855H35.1522V58.7354Z" fill="#EFEFEF"/>
<path d="M37.0215 58.7354H36.7168V45.5855H37.0215V58.7354Z" fill="#EFEFEF"/>
<path d="M31.8027 48.7373V48.4329H38.5017V48.7373H31.8027Z" fill="#EFEFEF"/>
<path d="M31.8027 52.3047V51.9996H38.5017V52.3047H31.8027Z" fill="#EFEFEF"/>
<path d="M31.8027 55.873V55.5694H38.5017V55.873H31.8027Z" fill="#EFEFEF"/>
<path d="M48.498 58.7354H55.197V45.5855H48.498V58.7354Z" fill="#366ED7"/>
<path d="M47.4082 59.374H48.498V45.0787H47.4082V59.374Z" fill="#EBD7B7"/>
<path d="M48.8887 58.7331H47.0137V59.374H48.8887V58.7331Z" fill="#EBD7B7"/>
<path d="M48.6922 58.5112H47.2168V58.7354H48.6922V58.5112Z" fill="#EBD7B7"/>
<path d="M55.1973 59.374H56.287V45.0787H55.1973V59.374Z" fill="#EBD7B7"/>
<path d="M56.6783 58.7331H54.8027V59.374H56.6783V58.7331Z" fill="#EBD7B7"/>
<path d="M56.4808 58.5112H55.0059V58.7354H56.4808V58.5112Z" fill="#EBD7B7"/>
<path d="M54.8043 59.374H48.8906V58.7331H54.8043V59.374Z" fill="#EBD7B7"/>
<path d="M46.4492 60.208H57.244V59.3741H46.4492V60.208Z" fill="#EBD7B7"/>
<path d="M46.4492 60.8164H57.244V60.2077H46.4492V60.8164Z" fill="#C9C2AF"/>
<path d="M47.125 45.5859H56.5657V45.0814H47.125V45.5859Z" fill="#EBD7B7"/>
<path d="M48.498 45.9463H55.197V45.5852H48.498V45.9463Z" fill="#2B56A9"/>
<path d="M47.4082 45.9463H48.498V45.5852H47.4082V45.9463Z" fill="#B9A990"/>
<path d="M55.1973 45.9463H56.287V45.5852H55.1973V45.9463Z" fill="#B9A990"/>
<path d="M51.8476 42.2415L47.4082 45.0781H56.2867L51.8476 42.2415Z" fill="#EBD7B7"/>
<path d="M48.7227 44.8506L51.8459 42.855L54.969 44.8506H48.7227Z" fill="#D4C2A5"/>
<path d="M54.969 44.8506H54.6216L51.9501 43.1433L49.2783 44.8506H48.7227L51.8459 42.855L54.969 44.8506Z" fill="#A79881"/>
<path d="M49.9744 58.7354H49.6699V45.5855H49.9744V58.7354Z" fill="#EFEFEF"/>
<path d="M51.8474 58.7354H51.543V45.5855H51.8474V58.7354Z" fill="#EFEFEF"/>
<path d="M53.7186 58.7354H53.4141V45.5855H53.7186V58.7354Z" fill="#EFEFEF"/>
<path d="M48.498 48.7373V48.4329H55.1973V48.7373H48.498Z" fill="#EFEFEF"/>
<path d="M48.498 52.3047V51.9996H55.1973V52.3047H48.498Z" fill="#EFEFEF"/>
<path d="M48.498 55.873V55.5694H55.1973V55.873H48.498Z" fill="#EFEFEF"/>
<path d="M31.8027 81.6846H38.5015V68.534H31.8027V81.6846Z" fill="#366ED7"/>
<path d="M30.709 82.3252H31.799V68.0293H30.709V82.3252Z" fill="#EBD7B7"/>
<path d="M32.1937 81.6843H30.3184V82.3252H32.1937V81.6843Z" fill="#EBD7B7"/>
<path d="M31.9927 81.4607H30.5176V81.6846H31.9927V81.4607Z" fill="#EBD7B7"/>
<path d="M38.5 82.3252H39.59V68.0293H38.5V82.3252Z" fill="#EBD7B7"/>
<path d="M39.9825 81.6843H38.1074V82.3252H39.9825V81.6843Z" fill="#EBD7B7"/>
<path d="M39.7837 81.4607H38.3086V81.6846H39.7837V81.4607Z" fill="#EBD7B7"/>
<path d="M38.1074 82.3252H32.1934V81.6843H38.1074V82.3252Z" fill="#EBD7B7"/>
<path d="M29.7559 83.1572H40.5504V82.3247H29.7559V83.1572Z" fill="#EBD7B7"/>
<path d="M29.7559 83.7656H40.5504V83.1561H29.7559V83.7656Z" fill="#C9C2AF"/>
<path d="M30.4297 68.5352H39.8704V68.0309H30.4297V68.5352Z" fill="#EBD7B7"/>
<path d="M31.8027 68.8936H38.5015V68.533H31.8027V68.8936Z" fill="#2B56A9"/>
<path d="M30.709 68.8936H31.799V68.533H30.709V68.8936Z" fill="#B9A990"/>
<path d="M38.5 68.8936H39.59V68.533H38.5V68.8936Z" fill="#B9A990"/>
<path d="M35.1484 65.1924L30.709 68.0293H39.5877L35.1484 65.1924Z" fill="#EBD7B7"/>
<path d="M32.0273 67.7998L35.151 65.8048L38.2737 67.7998H32.0273Z" fill="#D4C2A5"/>
<path d="M38.2737 67.7998H37.9266L35.2551 66.0931L32.5833 67.7998H32.0273L35.151 65.8048L38.2737 67.7998Z" fill="#A79881"/>
<path d="M33.2791 81.6846H32.9746V68.5339H33.2791V81.6846Z" fill="#EFEFEF"/>
<path d="M35.1522 81.6846H34.8477V68.5339H35.1522V81.6846Z" fill="#EFEFEF"/>
<path d="M37.0215 81.6846H36.7168V68.5339H37.0215V81.6846Z" fill="#EFEFEF"/>
<path d="M31.8027 71.6865V71.3815H38.5017V71.6865H31.8027Z" fill="#EFEFEF"/>
<path d="M31.8027 75.2539V74.9494H38.5017V75.2539H31.8027Z" fill="#EFEFEF"/>
<path d="M31.8027 78.8223V78.518H38.5017V78.8223H31.8027Z" fill="#EFEFEF"/>
<path d="M48.498 81.6846H55.197V68.534H48.498V81.6846Z" fill="#366ED7"/>
<path d="M47.4082 82.3252H48.498V68.0293H47.4082V82.3252Z" fill="#EBD7B7"/>
<path d="M48.8887 81.6843H47.0137V82.3252H48.8887V81.6843Z" fill="#EBD7B7"/>
<path d="M48.6922 81.4607H47.2168V81.6846H48.6922V81.4607Z" fill="#EBD7B7"/>
<path d="M55.1973 82.3252H56.287V68.0293H55.1973V82.3252Z" fill="#EBD7B7"/>
<path d="M56.6783 81.6843H54.8027V82.3252H56.6783V81.6843Z" fill="#EBD7B7"/>
<path d="M56.4808 81.4607H55.0059V81.6846H56.4808V81.4607Z" fill="#EBD7B7"/>
<path d="M54.8043 82.3252H48.8906V81.6843H54.8043V82.3252Z" fill="#EBD7B7"/>
<path d="M46.4492 83.1572H57.244V82.3247H46.4492V83.1572Z" fill="#EBD7B7"/>
<path d="M46.4492 83.7656H57.244V83.1561H46.4492V83.7656Z" fill="#C9C2AF"/>
<path d="M47.125 68.5352H56.5657V68.0309H47.125V68.5352Z" fill="#EBD7B7"/>
<path d="M48.498 68.8936H55.197V68.533H48.498V68.8936Z" fill="#2B56A9"/>
<path d="M47.4082 68.8936H48.498V68.533H47.4082V68.8936Z" fill="#B9A990"/>
<path d="M55.1973 68.8936H56.287V68.533H55.1973V68.8936Z" fill="#B9A990"/>
<path d="M51.8476 65.1924L47.4082 68.0293H56.2867L51.8476 65.1924Z" fill="#EBD7B7"/>
<path d="M48.7227 67.7998L51.8459 65.8048L54.969 67.7998H48.7227Z" fill="#D4C2A5"/>
<path d="M54.969 67.7998H54.6216L51.9501 66.0931L49.2783 67.7998H48.7227L51.8459 65.8048L54.969 67.7998Z" fill="#A79881"/>
<path d="M49.9744 81.6846H49.6699V68.5339H49.9744V81.6846Z" fill="#EFEFEF"/>
<path d="M51.8474 81.6846H51.543V68.5339H51.8474V81.6846Z" fill="#EFEFEF"/>
<path d="M53.7186 81.6846H53.4141V68.5339H53.7186V81.6846Z" fill="#EFEFEF"/>
<path d="M48.498 71.6865V71.3815H55.1973V71.6865H48.498Z" fill="#EFEFEF"/>
<path d="M48.498 75.2539V74.9494H55.1973V75.2539H48.498Z" fill="#EFEFEF"/>
<path d="M48.498 78.8223V78.518H55.1973V78.8223H48.498Z" fill="#EFEFEF"/>
<path d="M62.9135 85.267H20.6895V90.293H62.9135V85.267Z" fill="#EBD7B7"/>
<path d="M25.0698 43.6611H20.6895V40.2108H25.0698V43.6611Z" fill="#EBD7B7"/>
<path d="M22.8796 47.6699H20.6895V44.2196H22.8796V47.6699Z" fill="#EBD7B7"/>
<path d="M25.0698 51.7217H20.6895V48.2707H25.0698V51.7217Z" fill="#EBD7B7"/>
<path d="M22.8796 55.7305H20.6895V52.2795H22.8796V55.7305Z" fill="#EBD7B7"/>
<path d="M25.0698 59.7812H20.6895V56.331H25.0698V59.7812Z" fill="#EBD7B7"/>
<path d="M22.8796 63.792H20.6895V60.3409H22.8796V63.792Z" fill="#EBD7B7"/>
<path d="M25.0698 67.8438H20.6895V64.3932H25.0698V67.8438Z" fill="#EBD7B7"/>
<path d="M22.8796 71.8506H20.6895V68.4003H22.8796V71.8506Z" fill="#EBD7B7"/>
<path d="M25.0698 75.9023H20.6895V72.453H25.0698V75.9023Z" fill="#EBD7B7"/>
<path d="M22.8796 79.9111H20.6895V76.461H22.8796V79.9111Z" fill="#EBD7B7"/>
<path d="M25.0698 83.9639H20.6895V80.5129H25.0698V83.9639Z" fill="#EBD7B7"/>
<path d="M62.9142 35.3557H21.166V36.9854H62.9142V35.3557Z" fill="#EBD7B7"/>
<path d="M147.536 35.3557H108.029V36.9854H147.536V35.3557Z" fill="#EBD7B7"/>
<path d="M108.029 90.293H147.237V36.987H108.029V90.293Z" fill="#FFF7DF"/>
<path d="M114.824 58.7354H121.523V45.5855H114.824V58.7354Z" fill="#366ED7"/>
<path d="M113.736 59.374H114.826V45.0787H113.736V59.374Z" fill="#EBD7B7"/>
<path d="M115.217 58.7331H113.342V59.374H115.217V58.7331Z" fill="#EBD7B7"/>
<path d="M115.018 58.5112H113.543V58.7354H115.018V58.5112Z" fill="#EBD7B7"/>
<path d="M121.523 59.374H122.614V45.0787H121.523V59.374Z" fill="#EBD7B7"/>
<path d="M123.008 58.7331H121.133V59.374H123.008V58.7331Z" fill="#EBD7B7"/>
<path d="M122.805 58.5112H121.33V58.7354H122.805V58.5112Z" fill="#EBD7B7"/>
<path d="M121.132 59.374H115.219V58.7331H121.132V59.374Z" fill="#EBD7B7"/>
<path d="M112.777 60.208H123.572V59.3741H112.777V60.208Z" fill="#EBD7B7"/>
<path d="M112.777 60.8164H123.572V60.2077H112.777V60.8164Z" fill="#C9C2AF"/>
<path d="M113.455 45.5859H122.895V45.0814H113.455V45.5859Z" fill="#EBD7B7"/>
<path d="M114.824 45.9463H121.523V45.5852H114.824V45.9463Z" fill="#2B56A9"/>
<path d="M113.736 45.9463H114.826V45.5852H113.736V45.9463Z" fill="#B9A990"/>
<path d="M121.523 45.9463H122.614V45.5852H121.523V45.9463Z" fill="#B9A990"/>
<path d="M118.175 42.2415L113.736 45.0781H122.615L118.175 42.2415Z" fill="#EBD7B7"/>
<path d="M115.051 44.8506L118.174 42.855L121.297 44.8506H115.051Z" fill="#D4C2A5"/>
<path d="M121.299 44.8506H120.952H121.299L118.176 42.855L121.299 44.8506Z" fill="#B9A990"/>
<path d="M121.297 44.8506H120.95L118.279 43.1433L115.606 44.8506H115.051L118.174 42.855L121.297 44.8506Z" fill="#A79881"/>
<path d="M116.304 58.7354H116V45.5855H116.304V58.7354Z" fill="#EFEFEF"/>
<path d="M118.175 58.7354H117.871V45.5855H118.175V58.7354Z" fill="#EFEFEF"/>
<path d="M120.045 58.7354H119.74V45.5855H120.045V58.7354Z" fill="#EFEFEF"/>
<path d="M114.824 48.7373V48.4329H121.523V48.7373H114.824Z" fill="#EFEFEF"/>
<path d="M114.824 52.3047V51.9996H121.523V52.3047H114.824Z" fill="#EFEFEF"/>
<path d="M114.824 55.873V55.5694H121.523V55.873H114.824Z" fill="#EFEFEF"/>
<path d="M131.52 58.7354H138.219V45.5855H131.52V58.7354Z" fill="#366ED7"/>
<path d="M130.434 59.374H131.523V45.0787H130.434V59.374Z" fill="#EBD7B7"/>
<path d="M131.914 58.7331H130.039V59.374H131.914V58.7331Z" fill="#EBD7B7"/>
<path d="M131.715 58.5112H130.24V58.7354H131.715V58.5112Z" fill="#EBD7B7"/>
<path d="M138.221 59.374H139.31V45.0787H138.221V59.374Z" fill="#EBD7B7"/>
<path d="M139.701 58.7331H137.826V59.374H139.701V58.7331Z" fill="#EBD7B7"/>
<path d="M139.504 58.5112H138.029V58.7354H139.504V58.5112Z" fill="#EBD7B7"/>
<path d="M137.827 59.374H131.914V58.7331H137.827V59.374Z" fill="#EBD7B7"/>
<path d="M129.475 60.208H140.269V59.3741H129.475V60.208Z" fill="#EBD7B7"/>
<path d="M129.475 60.8164H140.269V60.2077H129.475V60.8164Z" fill="#C9C2AF"/>
<path d="M130.15 45.5859H139.591V45.0814H130.15V45.5859Z" fill="#EBD7B7"/>
<path d="M131.52 45.9463H138.219V45.5852H131.52V45.9463Z" fill="#2B56A9"/>
<path d="M130.434 45.9463H131.523V45.5852H130.434V45.9463Z" fill="#B9A990"/>
<path d="M138.221 45.9463H139.31V45.5852H138.221V45.9463Z" fill="#B9A990"/>
<path d="M134.873 42.2415L130.434 45.0781H139.312L134.873 42.2415Z" fill="#EBD7B7"/>
<path d="M131.748 44.8506L134.872 42.855L137.994 44.8506H131.748Z" fill="#D4C2A5"/>
<path d="M137.994 44.8506H137.647L134.975 43.1433L132.304 44.8506H131.748L134.872 42.855L137.994 44.8506Z" fill="#A79881"/>
<path d="M133 58.7354H132.695V45.5855H133V58.7354Z" fill="#EFEFEF"/>
<path d="M134.871 58.7354H134.566V45.5855H134.871V58.7354Z" fill="#EFEFEF"/>
<path d="M136.74 58.7354H136.436V45.5855H136.74V58.7354Z" fill="#EFEFEF"/>
<path d="M131.521 48.7373V48.4329H138.221V48.7373H131.521Z" fill="#EFEFEF"/>
<path d="M131.521 52.3047V51.9996H138.221V52.3047H131.521Z" fill="#EFEFEF"/>
<path d="M131.521 55.873V55.5694H138.221V55.873H131.521Z" fill="#EFEFEF"/>
<path d="M114.824 81.6846H121.523V68.534H114.824V81.6846Z" fill="#366ED7"/>
<path d="M113.736 82.3252H114.826V68.0293H113.736V82.3252Z" fill="#EBD7B7"/>
<path d="M115.217 81.6843H113.342V82.3252H115.217V81.6843Z" fill="#EBD7B7"/>
<path d="M115.018 81.4607H113.543V81.6846H115.018V81.4607Z" fill="#EBD7B7"/>
<path d="M121.523 82.3252H122.614V68.0293H121.523V82.3252Z" fill="#EBD7B7"/>
<path d="M123.008 81.6843H121.133V82.3252H123.008V81.6843Z" fill="#EBD7B7"/>
<path d="M122.805 81.4607H121.33V81.6846H122.805V81.4607Z" fill="#EBD7B7"/>
<path d="M121.132 82.3252H115.219V81.6843H121.132V82.3252Z" fill="#EBD7B7"/>
<path d="M112.777 83.1572H123.572V82.3247H112.777V83.1572Z" fill="#EBD7B7"/>
<path d="M112.777 83.7656H123.572V83.1561H112.777V83.7656Z" fill="#C9C2AF"/>
<path d="M113.455 68.5352H122.895V68.0309H113.455V68.5352Z" fill="#EBD7B7"/>
<path d="M114.824 68.8936H121.523V68.533H114.824V68.8936Z" fill="#2B56A9"/>
<path d="M113.736 68.8936H114.826V68.533H113.736V68.8936Z" fill="#B9A990"/>
<path d="M121.523 68.8936H122.614V68.533H121.523V68.8936Z" fill="#B9A990"/>
<path d="M118.175 65.1924L113.736 68.0293H122.615L118.175 65.1924Z" fill="#EBD7B7"/>
<path d="M115.051 67.7998L118.174 65.8048L121.297 67.7998H115.051Z" fill="#D4C2A5"/>
<path d="M121.299 67.7998H120.952H121.299L118.176 65.8048L121.299 67.7998Z" fill="#B9A990"/>
<path d="M121.297 67.7998H120.95L118.279 66.0931L115.606 67.7998H115.051L118.174 65.8048L121.297 67.7998Z" fill="#A79881"/>
<path d="M116.304 81.6846H116V68.5339H116.304V81.6846Z" fill="#EFEFEF"/>
<path d="M118.175 81.6846H117.871V68.5339H118.175V81.6846Z" fill="#EFEFEF"/>
<path d="M120.045 81.6846H119.74V68.5339H120.045V81.6846Z" fill="#EFEFEF"/>
<path d="M114.824 71.6865V71.3815H121.523V71.6865H114.824Z" fill="#EFEFEF"/>
<path d="M114.824 75.2539V74.9494H121.523V75.2539H114.824Z" fill="#EFEFEF"/>
<path d="M114.824 78.8223V78.518H121.523V78.8223H114.824Z" fill="#EFEFEF"/>
<path d="M131.52 81.6846H138.219V68.534H131.52V81.6846Z" fill="#366ED7"/>
<path d="M130.434 82.3252H131.523V68.0293H130.434V82.3252Z" fill="#EBD7B7"/>
<path d="M131.914 81.6843H130.039V82.3252H131.914V81.6843Z" fill="#EBD7B7"/>
<path d="M131.715 81.4607H130.24V81.6846H131.715V81.4607Z" fill="#EBD7B7"/>
<path d="M138.221 82.3252H139.31V68.0293H138.221V82.3252Z" fill="#EBD7B7"/>
<path d="M139.701 81.6843H137.826V82.3252H139.701V81.6843Z" fill="#EBD7B7"/>
<path d="M139.504 81.4607H138.029V81.6846H139.504V81.4607Z" fill="#EBD7B7"/>
<path d="M137.827 82.3252H131.914V81.6843H137.827V82.3252Z" fill="#EBD7B7"/>
<path d="M129.475 83.1572H140.269V82.3247H129.475V83.1572Z" fill="#EBD7B7"/>
<path d="M129.475 83.7656H140.269V83.1561H129.475V83.7656Z" fill="#C9C2AF"/>
<path d="M130.15 68.5352H139.591V68.0309H130.15V68.5352Z" fill="#EBD7B7"/>
<path d="M131.52 68.8936H138.219V68.533H131.52V68.8936Z" fill="#2B56A9"/>
<path d="M130.434 68.8936H131.523V68.533H130.434V68.8936Z" fill="#B9A990"/>
<path d="M138.221 68.8936H139.31V68.533H138.221V68.8936Z" fill="#B9A990"/>
<path d="M134.873 65.1924L130.434 68.0293H139.312L134.873 65.1924Z" fill="#EBD7B7"/>
<path d="M131.748 67.7998L134.872 65.8048L137.994 67.7998H131.748Z" fill="#D4C2A5"/>
<path d="M137.994 67.7998H137.647L134.975 66.0931L132.304 67.7998H131.748L134.872 65.8048L137.994 67.7998Z" fill="#A79881"/>
<path d="M133 81.6846H132.695V68.5339H133V81.6846Z" fill="#EFEFEF"/>
<path d="M134.871 81.6846H134.566V68.5339H134.871V81.6846Z" fill="#EFEFEF"/>
<path d="M136.74 81.6846H136.436V68.5339H136.74V81.6846Z" fill="#EFEFEF"/>
<path d="M131.521 71.6865V71.3815H138.221V71.6865H131.521Z" fill="#EFEFEF"/>
<path d="M131.521 75.2539V74.9494H138.221V75.2539H131.521Z" fill="#EFEFEF"/>
<path d="M131.521 78.8223V78.518H138.221V78.8223H131.521Z" fill="#EFEFEF"/>
<path d="M108.029 85.267H147.99V90.293H108.029V85.267Z" fill="#EBD7B7"/>
<path d="M143.719 43.6611H148.099V40.2108H143.719V43.6611Z" fill="#EBD7B7"/>
<path d="M145.908 47.6699H148.098V44.2196H145.908V47.6699Z" fill="#EBD7B7"/>
<path d="M143.719 51.7217H148.099V48.2707H143.719V51.7217Z" fill="#EBD7B7"/>
<path d="M145.908 55.7305H148.098V52.2795H145.908V55.7305Z" fill="#EBD7B7"/>
<path d="M143.719 59.7812H148.099V56.331H143.719V59.7812Z" fill="#EBD7B7"/>
<path d="M145.908 63.792H148.098V60.3409H145.908V63.792Z" fill="#EBD7B7"/>
<path d="M143.719 67.8438H148.099V64.3932H143.719V67.8438Z" fill="#EBD7B7"/>
<path d="M145.908 71.8506H148.098V68.4003H145.908V71.8506Z" fill="#EBD7B7"/>
<path d="M143.719 75.9023H148.099V72.453H143.719V75.9023Z" fill="#EBD7B7"/>
<path d="M145.908 79.9111H148.098V76.461H145.908V79.9111Z" fill="#EBD7B7"/>
<path d="M143.719 83.9639H148.099V80.5129H143.719V83.9639Z" fill="#EBD7B7"/>
<path d="M109.988 36.9846H147.239V38.6143H109.988V36.9846Z" fill="#C9BBA5"/>
<path d="M108.029 85.2666H109.986V36.9866H108.029V85.2666Z" fill="#C9BBA5"/>
<path d="M102.613 85.667H88.4785V54.7367C88.4785 50.8337 91.6426 47.6695 95.5457 47.6695C99.4487 47.6695 102.613 50.8337 102.613 54.7367V85.667Z" fill="#9E917B"/>
<path d="M102.581 53.8076C102.57 53.7936 102.56 53.7803 102.549 53.7663C102.077 50.3271 99.1309 47.6773 95.5645 47.6689C95.5701 47.6689 95.5756 47.6689 95.5812 47.6689C99.1694 47.6689 102.125 50.3446 102.581 53.8076Z" fill="#B9A990"/>
<path d="M89.9005 85.667H88.5137V56.8925H88.8572V56.4811V56.0697H88.5137H89.2911V54.892H88.5137V54.7367C88.5137 50.8393 91.668 47.6786 95.5633 47.6695C99.1298 47.6779 102.076 50.3278 102.548 53.767C101.255 52.1002 99.2397 51.0247 96.9677 51.0247C93.0646 51.0247 89.9005 54.1881 89.9005 58.0913V85.667Z" fill="#7D7260"/>
<path d="M95.1913 68.8002H95.1465C92.6653 68.8002 90.6543 70.8114 90.6543 73.2918V85.667H99.6835V73.2918C99.6835 70.8114 97.6725 68.8002 95.1913 68.8002Z" fill="#EFEFEF"/>
<path d="M99.1361 85.667V73.3738C99.1361 71.1823 97.3595 69.4048 95.168 69.4048C92.9765 69.4048 91.1992 71.1823 91.1992 73.3738V85.667H99.1361Z" fill="#48588A"/>
<path d="M92.5787 78.1167C92.5787 77.8775 92.3842 77.6821 92.1442 77.6821C91.9035 77.6821 91.709 77.8775 91.709 78.1167C91.709 78.3574 91.9035 78.5518 92.1442 78.5518C92.3842 78.5518 92.5787 78.3574 92.5787 78.1167Z" fill="#E9A854"/>
<path d="M91.957 80.6094H92.33V78.259H91.957V80.6094Z" fill="#E9A854"/>
<path d="M92.5787 80.7883C92.5787 80.5477 92.3842 80.3531 92.1442 80.3531C91.9035 80.3531 91.709 80.5477 91.709 80.7883C91.709 81.0282 91.9035 81.2236 92.1442 81.2236C92.3842 81.2236 92.5787 81.0282 92.5787 80.7883Z" fill="#E9A854"/>
<path d="M82.7671 85.667H68.6328V54.7367C68.6328 50.8337 71.7969 47.6695 75.7 47.6695C79.603 47.6695 82.7671 50.8337 82.7671 54.7367V85.667Z" fill="#9E917B"/>
<path d="M82.7355 53.8076C82.7243 53.7936 82.7138 53.7794 82.7026 53.7655C82.231 50.3271 79.2852 47.6773 75.7188 47.6689C75.7243 47.6689 75.7299 47.6689 75.7362 47.6689C79.323 47.6689 82.2793 50.3446 82.7355 53.8076Z" fill="#B9A990"/>
<path d="M70.0536 85.667H68.666V56.8925H69.0124V56.4811V56.0697H68.666H69.4462V54.892H68.666V54.7367C68.666 50.8393 71.821 47.6786 75.7164 47.6695C79.2829 47.6779 82.2287 50.3278 82.7003 53.7661C81.4079 52.1002 79.3927 51.0247 77.1207 51.0247C73.2177 51.0247 70.0536 54.1881 70.0536 58.0913V85.667Z" fill="#7D7260"/>
<path d="M75.8262 68.8002H75.871C78.3522 68.8002 80.3632 70.8114 80.3632 73.2918V85.667H71.334V73.2918C71.334 70.8114 73.3457 68.8002 75.8262 68.8002Z" fill="#EFEFEF"/>
<path d="M71.8828 85.667V73.3738C71.8828 71.1823 73.6594 69.4048 75.8516 69.4048C78.0431 69.4048 79.8197 71.1823 79.8197 73.3738V85.667H71.8828Z" fill="#48588A"/>
<path d="M78.4414 78.1167C78.4414 77.8775 78.6359 77.6821 78.8766 77.6821C79.1166 77.6821 79.3112 77.8775 79.3112 78.1167C79.3112 78.3574 79.1166 78.5518 78.8766 78.5518C78.6359 78.5518 78.4414 78.3574 78.4414 78.1167Z" fill="#E9A854"/>
<path d="M79.0624 80.6094H78.6895V78.259H79.0624V80.6094Z" fill="#E9A854"/>
<path d="M78.4414 80.7883C78.4414 80.5477 78.6359 80.3531 78.8766 80.3531C79.1166 80.3531 79.3112 80.5477 79.3112 80.7883C79.3112 81.0282 79.1166 81.2236 78.8766 81.2236C78.6359 81.2236 78.4414 81.0282 78.4414 80.7883Z" fill="#E9A854"/>
<path d="M89.2909 84.4901H81.9082V85.667H89.2909V84.4901Z" fill="#EBD7B7"/>
<path d="M81.9082 56.0684H89.2908V54.8906H81.9082V56.0684Z" fill="#EBD7B7"/>
<path d="M82.3398 56.8906H88.8557V56.0679H82.3398V56.8906Z" fill="#EBD7B7"/>
<path d="M82.7676 57.3018H88.4788V56.8901H82.7676V57.3018Z" fill="#B9A990"/>
<path d="M82.3398 56.4814H88.8557V56.0701H82.3398V56.4814Z" fill="#B9A990"/>
<path d="M109.136 84.4901H101.754V85.667H109.136V84.4901Z" fill="#EBD7B7"/>
<path d="M101.754 56.0684H109.136V54.8906H101.754V56.0684Z" fill="#EBD7B7"/>
<path d="M102.188 56.8906H108.703V56.0679H102.188V56.8906Z" fill="#EBD7B7"/>
<path d="M102.613 57.3018H108.03V56.8901H102.613V57.3018Z" fill="#B9A990"/>
<path d="M102.188 56.4814H108.703V56.0701H102.188V56.4814Z" fill="#B9A990"/>
<path d="M69.4472 84.4901H62.0645V85.667H69.4472V84.4901Z" fill="#EBD7B7"/>
<path d="M62.0645 56.0684H69.4471V54.8906H62.0645V56.0684Z" fill="#EBD7B7"/>
<path d="M62.5 56.8906H69.015V56.0679H62.5V56.8906Z" fill="#EBD7B7"/>
<path d="M62.9238 57.3018H68.6328V56.8901H62.9238V57.3018Z" fill="#B9A990"/>
<path d="M68.6328 57.3018H68.635V56.8901H68.6328V57.3018Z" fill="#7D7260"/>
<path d="M62.5 56.4814H69.015V56.0701H62.5V56.4814Z" fill="#B9A990"/>
<path d="M108.032 88.6661H62.916V90.293H108.032V88.6661Z" fill="#D6C4A7"/>
<path d="M108.032 85.6651H62.916V87.292H108.032V85.6651Z" fill="#D6C4A7"/>
<path d="M21.3047 27.1162H65.3555V21.5213H29.7544L21.3047 27.1162Z" fill="#575146"/>
<path d="M104.137 27.1162H147.537L138.221 21.5213H104.137V27.1162Z" fill="#575146"/>
<path d="M84.7773 4.7385L45.9297 27.1162H123.625L84.7773 4.7385Z" fill="#EBD7B7"/>
<path d="M58.0508 25.5762L84.7803 10.1789L111.509 25.5762H58.0508Z" fill="#575146"/>
<path d="M147.538 27.1162H123.627L113.916 21.5213H117.627L147.538 27.1162Z" fill="#454037"/>
<path d="M123.628 27.1162L113.916 21.5213H113.917L123.628 27.1162Z" fill="#B9A990"/>
<path d="M111.509 25.5762H110.347L85.6402 11.7728L58.9578 25.5762H58.0508L84.7803 10.1789L111.509 25.5762Z" fill="#454037"/>
<path d="M21.3047 35.3555H147.537V27.1149H21.3047V35.3555Z" fill="#EBD7B7"/>
<path d="M23.0957 33.8018H145.743V28.6692H23.0957V33.8018Z" fill="#FFF7DF"/>
<path d="M23.7757 33.8018H23.0957V28.6693H145.743V29.4467H23.7757V33.8018Z" fill="#C9C2AF"/>
<path d="M26.0998 26.7945H21.7422V27.124H26.0998V26.7945Z" fill="#EBD7B7"/>
<path d="M22.5723 25.841C22.5723 25.0951 23.1769 24.4905 23.9225 24.4905C24.6681 24.4905 25.2728 25.0951 25.2728 25.841C25.2728 26.5869 24.6681 27.1914 23.9225 27.1914C23.1769 27.1914 22.5723 26.5869 22.5723 25.841Z" fill="#EBD7B7"/>
<path d="M30.4556 26.7945H26.0977V27.124H30.4556V26.7945Z" fill="#EBD7B7"/>
<path d="M26.9258 25.841C26.9258 25.0951 27.5306 24.4905 28.276 24.4905C29.0219 24.4905 29.6265 25.0951 29.6265 25.841C29.6265 26.5869 29.0219 27.1914 28.276 27.1914C27.5306 27.1914 26.9258 26.5869 26.9258 25.841Z" fill="#EBD7B7"/>
<path d="M34.8145 26.7945H30.457V27.124H34.8145V26.7945Z" fill="#EBD7B7"/>
<path d="M31.2871 25.841C31.2871 25.0951 31.8915 24.4905 32.6374 24.4905C33.3827 24.4905 33.9876 25.0951 33.9876 25.841C33.9876 26.5869 33.3827 27.1914 32.6374 27.1914C31.8915 27.1914 31.2871 26.5869 31.2871 25.841Z" fill="#EBD7B7"/>
<path d="M39.1701 26.7945H34.8125V27.124H39.1701V26.7945Z" fill="#EBD7B7"/>
<path d="M35.6406 25.841C35.6406 25.0951 36.2453 24.4905 36.9909 24.4905C37.7368 24.4905 38.3411 25.0951 38.3411 25.841C38.3411 26.5869 37.7368 27.1914 36.9909 27.1914C36.2453 27.1914 35.6406 26.5869 35.6406 25.841Z" fill="#EBD7B7"/>
<path d="M43.5292 26.7945H39.1719V27.124H43.5292V26.7945Z" fill="#EBD7B7"/>
<path d="M40 25.841C40 25.0951 40.6043 24.4905 41.3502 24.4905C42.0961 24.4905 42.7004 25.0951 42.7004 25.841C42.7004 26.5869 42.0961 27.1914 41.3502 27.1914C40.6043 27.1914 40 26.5869 40 25.841Z" fill="#EBD7B7"/>
<path d="M47.887 26.7945H43.5293V27.124H47.887V26.7945Z" fill="#EBD7B7"/>
<path d="M44.3574 25.841C44.3574 25.0951 44.9623 24.4905 45.708 24.4905C46.4536 24.4905 47.0582 25.0951 47.0582 25.841C47.0582 26.5869 46.4536 27.1914 45.708 27.1914C44.9623 27.1914 44.3574 26.5869 44.3574 25.841Z" fill="#EBD7B7"/>
<path d="M125.75 26.7945H121.393V27.124H125.75V26.7945Z" fill="#EBD7B7"/>
<path d="M122.221 25.841C122.221 25.0951 122.825 24.4905 123.571 24.4905C124.316 24.4905 124.921 25.0951 124.921 25.841C124.921 26.5869 124.316 27.1914 123.571 27.1914C122.825 27.1914 122.221 26.5869 122.221 25.841Z" fill="#EBD7B7"/>
<path d="M130.107 26.7945H125.75V27.124H130.107V26.7945Z" fill="#EBD7B7"/>
<path d="M126.576 25.841C126.576 25.0951 127.18 24.4905 127.926 24.4905C128.672 24.4905 129.276 25.0951 129.276 25.841C129.276 26.5869 128.672 27.1914 127.926 27.1914C127.18 27.1914 126.576 26.5869 126.576 25.841Z" fill="#EBD7B7"/>
<path d="M134.465 26.7945H130.107V27.124H134.465V26.7945Z" fill="#EBD7B7"/>
<path d="M130.936 25.841C130.936 25.0951 131.54 24.4905 132.286 24.4905C133.032 24.4905 133.636 25.0951 133.636 25.841C133.636 26.5869 133.032 27.1914 132.286 27.1914C131.54 27.1914 130.936 26.5869 130.936 25.841Z" fill="#EBD7B7"/>
<path d="M138.82 26.7945H134.463V27.124H138.82V26.7945Z" fill="#EBD7B7"/>
<path d="M135.293 25.841C135.293 25.0951 135.898 24.4905 136.643 24.4905C137.389 24.4905 137.993 25.0951 137.993 25.841C137.993 26.5869 137.389 27.1914 136.643 27.1914C135.898 27.1914 135.293 26.5869 135.293 25.841Z" fill="#EBD7B7"/>
<path d="M143.18 26.7945H138.822V27.124H143.18V26.7945Z" fill="#EBD7B7"/>
<path d="M139.648 25.841C139.648 25.0951 140.253 24.4905 140.999 24.4905C141.745 24.4905 142.349 25.0951 142.349 25.841C142.349 26.5869 141.745 27.1914 140.999 27.1914C140.253 27.1914 139.648 26.5869 139.648 25.841Z" fill="#EBD7B7"/>
<path d="M147.536 26.7945H143.178V27.124H147.536V26.7945Z" fill="#EBD7B7"/>
<path d="M144.008 25.841C144.008 25.0951 144.612 24.4905 145.358 24.4905C146.103 24.4905 146.709 25.0951 146.709 25.841C146.709 26.5869 146.103 27.1914 145.358 27.1914C144.612 27.1914 144.008 26.5869 144.008 25.841Z" fill="#EBD7B7"/>
<path d="M67.1336 40.6652L67.0461 40.7512H66.5374L66.4506 40.6652V40.2208C66.4506 40.0795 66.3751 40.0039 66.2337 40.0039H65.8874C65.7411 40.0039 65.6705 40.0795 65.6705 40.2208V42.1871C65.6705 42.3333 65.7467 42.4033 65.8874 42.4033H66.2337C66.3751 42.4033 66.4506 42.3333 66.4506 42.1871V41.7266L66.5374 41.6392H67.0461L67.1336 41.7266V42.3116C67.1336 42.821 66.8572 43.0918 66.3527 43.0918H65.7467C65.2373 43.0918 64.9609 42.821 64.9609 42.3116V40.0795C64.9609 39.5701 65.2373 39.3 65.7467 39.3H66.3527C66.8572 39.3 67.1336 39.5701 67.1336 40.0795V40.6652Z" fill="#575146"/>
<path d="M70.0277 42.3935C70.1683 42.3935 70.2446 42.3221 70.2446 42.1759V40.2153C70.2446 40.0739 70.1683 39.9983 70.0277 39.9983H69.6813C69.5399 39.9983 69.4644 40.0739 69.4644 40.2153V42.1759C69.4644 42.3221 69.5399 42.3935 69.6813 42.3935H70.0277ZM68.7598 40.0795C68.7598 39.5701 69.0306 39.3 69.54 39.3H70.1466C70.656 39.3 70.9268 39.5701 70.9268 40.0795V42.3116C70.9268 42.821 70.656 43.0918 70.1466 43.0918H69.54C69.0306 43.0918 68.7598 42.821 68.7598 42.3116V40.0795Z" fill="#575146"/>
<path d="M74.612 39.3L74.7198 39.4078V42.3116C74.7198 42.821 74.449 43.0918 73.9396 43.0918H73.3329C72.8235 43.0918 72.5527 42.821 72.5527 42.3116V39.4078L72.6612 39.3H73.1811L73.2895 39.4078V42.1598C73.2895 42.3067 73.3658 42.3767 73.5058 42.3767H73.7877C73.9284 42.3767 74.0047 42.3067 74.0047 42.1598V39.4078L74.1124 39.3H74.612Z" fill="#575146"/>
<path d="M77.5919 41.2501C77.7326 41.2501 77.8088 41.1739 77.8088 41.0332V40.2153C77.8088 40.0739 77.7326 39.9983 77.5919 39.9983H77.0503V41.2501H77.5919ZM78.5134 41.169C78.5134 41.4824 78.4106 41.705 78.2098 41.8295L78.491 42.9945C78.5078 43.0596 78.475 43.0918 78.4162 43.0918H77.8851L77.792 43.0155L77.5324 41.9492H77.0503V43.0057L76.9636 43.0918H76.4332L76.3457 43.0057V39.3861L76.4332 39.3H77.7326C78.2419 39.3 78.5134 39.5701 78.5134 40.0795V41.169Z" fill="#575146"/>
<path d="M82.1096 39.3L82.1963 39.3861V39.9277L82.1096 40.0144H81.4812V43.0057L81.3944 43.0918H80.8312L80.7444 43.0057V40.0144H80.1168L80.0293 39.9277V39.3861L80.1168 39.3H82.1096Z" fill="#575146"/>
<path d="M90.0201 39.3861L90.1068 39.3H90.6645C90.7296 39.3 90.7569 39.3322 90.7569 39.3861V43.0057C90.7569 43.0596 90.7296 43.0918 90.6645 43.0918H90.1068L90.0201 43.0057V41.5643H89.3266V43.0057L89.2399 43.0918H88.6822C88.6171 43.0918 88.5898 43.0596 88.5898 43.0057V39.3861C88.5898 39.3322 88.6171 39.3 88.6822 39.3H89.2399L89.3266 39.3861V40.8492H90.0201V39.3861Z" fill="#575146"/>
<path d="M93.6507 42.3935C93.7913 42.3935 93.8676 42.3221 93.8676 42.1759V40.2153C93.8676 40.0739 93.7913 39.9983 93.6507 39.9983H93.3036C93.1637 39.9983 93.0874 40.0739 93.0874 40.2153V42.1759C93.0874 42.3221 93.1637 42.3935 93.3036 42.3935H93.6507ZM92.3828 40.0795C92.3828 39.5701 92.6543 39.3 93.1637 39.3H93.7697C94.2797 39.3 94.5505 39.5701 94.5505 40.0795V42.3116C94.5505 42.821 94.2797 43.0918 93.7697 43.0918H93.1637C92.6543 43.0918 92.3828 42.821 92.3828 42.3116V40.0795Z" fill="#575146"/>
<path d="M98.2358 39.3L98.3435 39.4078V42.3116C98.3435 42.821 98.072 43.0918 97.5633 43.0918H96.9567C96.448 43.0918 96.1758 42.821 96.1758 42.3116V39.4078L96.2849 39.3H96.8048L96.9133 39.4078V42.1598C96.9133 42.3067 96.9896 42.3767 97.1302 42.3767H97.4115C97.5528 42.3767 97.6284 42.3067 97.6284 42.1598V39.4078L97.7362 39.3H98.2358Z" fill="#575146"/>
<path d="M101.303 39.3C101.812 39.3 102.083 39.5701 102.083 40.0795V40.4371L101.996 40.5245H101.45L101.362 40.4371V40.2097C101.362 40.0683 101.292 39.9934 101.145 39.9934H100.848C100.712 39.9934 100.631 40.0683 100.631 40.2097V40.6701L101.942 41.0927C102.034 41.1249 102.083 41.1907 102.083 41.2928V42.3116C102.083 42.821 101.812 43.0918 101.303 43.0918H100.696C100.192 43.0918 99.916 42.821 99.916 42.3116V41.9596L100.003 41.8722H100.55L100.636 41.9596V42.1871C100.636 42.3333 100.718 42.4033 100.854 42.4033H101.145C101.287 42.4033 101.362 42.3333 101.362 42.1871V41.6392L100.062 41.2172C99.9643 41.1851 99.916 41.1193 99.916 41.0171V40.0795C99.916 39.5701 100.192 39.3 100.696 39.3H101.303Z" fill="#575146"/>
<path d="M105.871 39.9277C105.871 39.9822 105.849 40.02 105.784 40.02H104.446V40.8541H105.465L105.551 40.9458V41.4824L105.465 41.5755H104.446V42.3767H105.784C105.849 42.3767 105.871 42.4033 105.871 42.4635V43.0057C105.871 43.0596 105.849 43.0918 105.784 43.0918H103.791L103.709 43.0057V39.3861L103.791 39.3H105.784C105.849 39.3 105.871 39.3322 105.871 39.3861V39.9277Z" fill="#575146"/>
<path d="M84.5488 41.3804C84.5488 40.999 84.8581 40.6905 85.2387 40.6905C85.6194 40.6905 85.9287 40.999 85.9287 41.3804C85.9287 41.761 85.6194 42.0703 85.2387 42.0703C84.8581 42.0703 84.5488 41.761 84.5488 41.3804Z" fill="#575146"/>
<path d="M87.5975 20.9551L87.543 20.8851L88.3455 17.4635L88.4134 17.4208L88.4547 17.4894L87.6521 20.911L87.5975 20.9551Z" fill="#FFF7DF"/>
<path d="M89.203 20.9551L89.1484 20.911L88.4571 17.9624V20.8984L88.4004 20.9551L88.3438 20.8984V17.4761L88.3941 17.4201L88.455 17.4635L89.2576 20.8851L89.2163 20.9537L89.203 20.9551Z" fill="#FFF7DF"/>
<path d="M87.1747 24.3311H82.8477L83.2724 23.8119H86.75L87.1747 24.3311Z" fill="#FFF7DF"/>
<path d="M88.2003 24.8525H81.8203L82.4466 24.334H87.5741L88.2003 24.8525Z" fill="#FFF7DF"/>
<path d="M85.3548 23.8115H84.6621V15.9446H85.3548V23.8115Z" fill="#FFF7DF"/>
<path d="M88.4096 17.7167L81.4481 14.7093C81.3439 14.6645 81.2963 14.5441 81.3411 14.4399C81.3858 14.3363 81.5062 14.2887 81.6097 14.3335L88.572 17.3409C88.6755 17.3857 88.7231 17.506 88.679 17.6103C88.6342 17.7132 88.5132 17.7614 88.4096 17.7167Z" fill="#FFF7DF"/>
<path d="M88.7995 21.6113H88.0046C87.6113 21.6113 87.293 21.293 87.293 20.8997H89.5111C89.5111 21.293 89.1927 21.6113 88.7995 21.6113Z" fill="#FFF7DF"/>
<path d="M80.6444 17.8916L80.5898 17.8216L81.3917 14.4L81.4596 14.3573L81.5009 14.4259L80.699 17.8475L80.6444 17.8916Z" fill="#FFF7DF"/>
<path d="M82.2453 17.8916L82.1907 17.8475L81.4994 14.8989V17.8349L81.4427 17.8916L81.3867 17.8349V14.4126L81.4364 14.3566L81.4973 14.4L82.2999 17.8216L82.2586 17.8902L82.2453 17.8916Z" fill="#FFF7DF"/>
<path d="M81.8424 18.5479H81.0476C80.6543 18.5479 80.3359 18.2281 80.3359 17.8355H82.5548C82.5548 18.2281 82.2357 18.5479 81.8424 18.5479Z" fill="#FFF7DF"/>
<path d="M111.057 90.293H109.135V85.267H111.057V90.293Z" fill="#C9BBA5"/>
</svg>
