<svg width="156" height="97" viewBox="0 0 156 97" fill="none" xmlns="http://www.w3.org/2000/svg">
<path d="M132.022 73.666H23.389C22.7948 73.666 22.3086 73.1799 22.3086 72.5858V7.83163C22.3086 7.23765 22.7948 6.75153 23.389 6.75153H132.022C132.616 6.75153 133.102 7.23764 133.102 7.83176V72.5858C133.102 73.1799 132.616 73.666 132.022 73.666Z" fill="#5065B9"/>
<path d="M126.327 68.5283H28.7842C27.3463 68.5283 26.1816 67.3604 26.1856 65.9224L26.3283 13.7574C26.3322 12.3248 27.4946 11.1657 28.927 11.1657H126.468C127.907 11.1657 129.071 12.3335 129.067 13.7714L128.926 65.9367C128.921 67.3691 127.759 68.5283 126.327 68.5283Z" fill="#738ACE"/>
<path d="M155.409 93.9266H0V95.3722C0 96.1818 0.678596 96.1241 0.678596 96.1241H4.57618H146.718H154.731C154.731 96.1241 155.409 96.1818 155.409 95.3722V93.9266Z" fill="#5065B9"/>
<path d="M155.037 94.3477H0.372447C0.0323085 94.3477 -0.129216 93.9284 0.123086 93.7002L22.2876 73.6575C22.356 73.5957 22.4448 73.5615 22.5368 73.5615H132.873C132.965 73.5615 133.054 73.5957 133.122 73.6575L155.286 93.7002C155.538 93.9284 155.377 94.3477 155.037 94.3477Z" fill="#C7D7EE"/>
<path d="M99.6457 92.1016H55.7755C55.203 92.1016 54.9753 91.6557 55.2633 91.123L57.441 87.0939C57.6702 86.67 58.2587 86.3301 58.7537 86.3301H96.6677C97.1625 86.3301 97.751 86.67 97.9802 87.0939L100.158 91.123C100.446 91.6557 100.219 92.1016 99.6457 92.1016Z" fill="#98AFDC"/>
<path d="M32.7992 75.5664H28.4849C27.8833 75.5664 27.517 75.4548 27.666 75.3179L28.104 74.9151C28.2495 74.7813 28.8452 74.6733 29.4352 74.6733H33.6664C34.2566 74.6733 34.6326 74.7813 34.5058 74.9151L34.1242 75.3179C33.9945 75.4548 33.4009 75.5664 32.7992 75.5664Z" fill="#98AFDC"/>
<path d="M40.0776 75.5664H35.7633C35.1616 75.5664 34.7777 75.4548 34.9053 75.3179L35.2799 74.9151C35.4045 74.7813 35.9833 74.6733 36.5734 74.6733H40.8045C41.3946 74.6733 41.7877 74.7813 41.6818 74.9151L41.3636 75.3179C41.2552 75.4548 40.6792 75.5664 40.0776 75.5664Z" fill="#98AFDC"/>
<path d="M47.3494 75.5664H43.035C42.4334 75.5664 42.0321 75.4548 42.138 75.3179L42.4496 74.9151C42.5531 74.7813 43.1149 74.6733 43.7051 74.6733H47.9362C48.5263 74.6733 48.9363 74.7813 48.8515 74.9151L48.5963 75.3179C48.5095 75.4548 47.9511 75.5664 47.3494 75.5664Z" fill="#98AFDC"/>
<path d="M54.6264 75.5664H50.312C49.7103 75.5664 49.2916 75.4548 49.3761 75.3179L49.6244 74.9151C49.707 74.7813 50.2518 74.6733 50.8418 74.6733H55.0731C55.6632 74.6733 56.0902 74.7813 56.0263 74.9151L55.8344 75.3179C55.7691 75.4548 55.2281 75.5664 54.6264 75.5664Z" fill="#98AFDC"/>
<path d="M61.903 75.5664H57.5886C56.9869 75.5664 56.5506 75.4548 56.6135 75.3179L56.7986 74.9151C56.8601 74.7813 57.3883 74.6733 57.9782 74.6733H62.2093C62.7995 74.6733 63.2434 74.7813 63.2006 74.9151L63.0719 75.3179C63.028 75.4548 62.5047 75.5664 61.903 75.5664Z" fill="#98AFDC"/>
<path d="M66.454 75.5664H64.8624C64.2609 75.5664 63.8069 75.4548 63.8483 75.3179L63.9703 74.9151C64.0108 74.7813 64.5219 74.6733 65.1119 74.6733H66.4477C66.4499 74.979 66.4519 75.2773 66.454 75.5664Z" fill="#98AFDC"/>
<path d="M127.386 75.5664H123.92L123.914 74.6733H126.431C127.021 74.6733 127.617 74.7813 127.764 74.9151L128.204 75.3179C128.354 75.4548 127.988 75.5664 127.386 75.5664Z" fill="#98AFDC"/>
<path d="M31.794 77.1025H26.2147C26.0758 77.1025 25.9921 77.0759 26.0277 77.0429L27.4178 75.7587C27.4515 75.7277 27.588 75.7025 27.723 75.7025H33.139C33.2739 75.7025 33.3591 75.7277 33.3295 75.7587L32.1025 77.0429C32.0711 77.0759 31.9328 77.1025 31.794 77.1025Z" fill="#98AFDC"/>
<path d="M41.5628 78.833H35.7821C35.6381 78.833 35.5459 78.8043 35.576 78.7691L36.7496 77.3918C36.778 77.3586 36.914 77.3315 37.0537 77.3315H42.6595C42.7992 77.3315 42.8928 77.3586 42.8685 77.3918L41.8698 78.7691C41.8442 78.8043 41.7068 78.833 41.5628 78.833Z" fill="#98AFDC"/>
<path d="M41.9478 80.6934H35.9504C35.8011 80.6934 35.7051 80.6624 35.7364 80.6244L36.9479 79.1437C36.9773 79.108 37.1182 79.079 37.2628 79.079H43.0722C43.2168 79.079 43.3141 79.108 43.2893 79.1437L42.2658 80.6244C42.2396 80.6624 42.0972 80.6934 41.9478 80.6934Z" fill="#98AFDC"/>
<path d="M44.7806 82.6982H38.5498C38.3946 82.6982 38.2935 82.665 38.3237 82.624L39.5037 81.0278C39.5321 80.9891 39.677 80.958 39.8272 80.958H45.8552C46.0053 80.958 46.108 80.9891 46.0844 81.0278L45.1072 82.624C45.0821 82.665 44.9358 82.6982 44.7806 82.6982Z" fill="#98AFDC"/>
<path d="M24.0793 85.1143H17.6034C17.4312 85.1143 17.3333 85.0755 17.3848 85.028L19.0439 83.4954C20.0494 84.4039 21.8964 85.0128 24.0084 85.0128C24.1735 85.0128 24.3371 85.009 24.4985 85.0018L24.4734 85.028C24.428 85.0755 24.2515 85.1143 24.0793 85.1143Z" fill="#98AFDC"/>
<path d="M32.7257 85.1143H26.2498C26.0776 85.1143 25.9739 85.0755 26.0179 85.028L26.2656 84.7666C27.6185 84.4575 28.706 83.8794 29.2952 83.1572H34.3174C34.483 83.1572 34.5886 83.1928 34.5533 83.237L33.1065 85.028C33.0685 85.0755 32.898 85.1143 32.7257 85.1143Z" fill="#98AFDC"/>
<path d="M41.1147 85.1143H34.6388C34.4665 85.1143 34.3569 85.0755 34.3939 85.028L35.8182 83.237C35.8525 83.1928 36.0146 83.1572 36.1803 83.1572H42.4094C42.5752 83.1572 42.6861 83.1928 42.6573 83.237L41.4825 85.028C41.4515 85.0755 41.2868 85.1143 41.1147 85.1143Z" fill="#98AFDC"/>
<path d="M51.6828 85.1143H43.1376C42.9409 85.1143 42.8092 85.0701 42.8432 85.0158L43.9982 83.2303C44.0298 83.18 44.4871 83.1391 44.6763 83.1391H52.6173C52.8065 83.1391 52.8519 83.2721 52.8519 83.3504L52.0842 85.0158C52.0591 85.0701 51.8795 85.1143 51.6828 85.1143Z" fill="#98AFDC"/>
<path d="M104.252 85.1143H95.7071C95.5106 85.1143 95.3373 85.0701 95.3202 85.0158L94.804 83.276C94.788 83.2256 94.9285 83.1848 95.1178 83.1848H103.337C103.526 83.1848 103.7 83.2256 103.724 83.276L104.562 85.0158C104.587 85.0701 104.449 85.1143 104.252 85.1143Z" fill="#98AFDC"/>
<path d="M112.903 85.1143H106.517C106.346 85.1143 106.188 85.0757 106.164 85.0285L105.227 83.2806C105.206 83.2369 105.321 83.2013 105.485 83.2013H111.626C111.79 83.2013 111.947 83.2369 111.975 83.2806L113.158 85.0285C113.187 85.0757 113.074 85.1143 112.903 85.1143Z" fill="#98AFDC"/>
<path d="M93.5739 85.1143H54.1444C53.731 85.1143 53.4362 85.0215 53.4859 84.9078L54.2871 83.3771C54.3335 83.2707 54.6934 83.1848 55.0911 83.1848H93.0178C93.4157 83.1848 93.7634 83.2707 93.7948 83.3771L94.2617 84.9078C94.2952 85.0215 93.9874 85.1143 93.5739 85.1143Z" fill="#98AFDC"/>
<path d="M52.872 82.6982H46.6411C46.4859 82.6982 46.3797 82.665 46.4038 82.624L47.3424 81.0278C47.365 80.9891 47.505 80.958 47.6552 80.958H53.6833C53.8335 80.958 53.9408 80.9891 53.923 81.0278L53.1872 82.624C53.1683 82.665 53.0271 82.6982 52.872 82.6982Z" fill="#98AFDC"/>
<path d="M60.9636 82.6982H54.7328C54.5776 82.6982 54.4664 82.665 54.4843 82.624L55.1813 81.0278C55.1982 80.9891 55.3335 80.958 55.4836 80.958H61.5118C61.6618 80.958 61.7739 80.9891 61.762 81.0278L61.2676 82.624C61.2549 82.665 61.1187 82.6982 60.9636 82.6982Z" fill="#98AFDC"/>
<path d="M69.0558 82.6982H62.825C62.6698 82.6982 62.5535 82.665 62.5653 82.624L63.021 81.0278C63.0319 80.9891 63.1625 80.958 63.3127 80.958H66.4935C66.4973 81.5229 66.4994 81.8353 66.4994 81.8597H69.4698L69.3486 82.624C69.3421 82.665 69.211 82.6982 69.0558 82.6982Z" fill="#98AFDC"/>
<path d="M77.1466 82.6982H70.9156C70.7604 82.6982 70.6392 82.665 70.6447 82.624L70.7473 81.8597H77.4335L77.428 82.624C77.4277 82.665 77.3018 82.6982 77.1466 82.6982Z" fill="#98AFDC"/>
<path d="M85.239 82.6982H79.0081C78.853 82.6982 78.7268 82.665 78.7259 82.624L78.7129 81.8597H85.3991L85.5092 82.624C85.5151 82.665 85.3941 82.6982 85.239 82.6982Z" fill="#98AFDC"/>
<path d="M93.3288 82.6982H87.0979C86.9427 82.6982 86.8114 82.665 86.8044 82.624L86.6758 81.8597H93.362L93.5877 82.624C93.5999 82.665 93.4839 82.6982 93.3288 82.6982Z" fill="#98AFDC"/>
<path d="M101.423 82.6982H95.1914C95.0362 82.6982 94.8999 82.665 94.8868 82.624L94.6426 81.8597H101.329L101.669 82.624C101.688 82.665 101.577 82.6982 101.423 82.6982Z" fill="#98AFDC"/>
<path d="M109.51 82.6982H103.28C103.125 82.6982 102.983 82.665 102.964 82.624L102.604 81.8597H109.29L109.747 82.624C109.772 82.665 109.665 82.6982 109.51 82.6982Z" fill="#98AFDC"/>
<path d="M120.562 85.1484H115.608C114.979 85.1484 114.375 85.0075 114.262 84.8345L113.934 84.3337C113.823 84.1647 114.235 84.0286 114.852 84.0286H119.707C120.324 84.0286 120.932 84.1647 121.063 84.3337L121.457 84.8345C121.591 85.0075 121.192 85.1484 120.562 85.1484Z" fill="#98AFDC"/>
<path d="M129.051 85.1484H124.098C123.469 85.1484 122.844 85.0075 122.704 84.8345L122.3 84.3337C122.165 84.1647 122.554 84.0286 123.172 84.0286H128.026C128.644 84.0286 129.271 84.1647 129.43 84.3337L129.899 84.8345C130.06 85.0075 129.682 85.1484 129.051 85.1484Z" fill="#98AFDC"/>
<path d="M127.905 83.6572H123.062C122.446 83.6572 121.838 83.5524 121.705 83.4238L121.318 83.0515C121.188 82.9258 121.573 82.8247 122.176 82.8247H126.925C127.529 82.8247 128.139 82.9258 128.291 83.0515L128.739 83.4238C128.893 83.5524 128.52 83.6572 127.905 83.6572Z" fill="#98AFDC"/>
<path d="M137.539 85.1484H132.586C131.957 85.1484 131.311 85.0075 131.144 84.8345L130.665 84.3337C130.503 84.1647 130.873 84.0286 131.49 84.0286H136.344C136.962 84.0286 137.61 84.1647 137.793 84.3337L138.338 84.8345C138.527 85.0075 138.17 85.1484 137.539 85.1484Z" fill="#98AFDC"/>
<path d="M49.8098 80.6934H43.8126C43.6632 80.6934 43.5626 80.6624 43.5879 80.6244L44.5734 79.1437C44.5972 79.108 44.7338 79.079 44.8785 79.079H50.6878C50.8323 79.079 50.934 79.108 50.9149 79.1437L50.1173 80.6244C50.0969 80.6624 49.9592 80.6934 49.8098 80.6934Z" fill="#98AFDC"/>
<path d="M57.6683 80.6934H51.671C51.5217 80.6934 51.4163 80.6624 51.4359 80.6244L52.1954 79.1437C52.2137 79.108 52.3458 79.079 52.4905 79.079H58.2998C58.4445 79.079 58.5507 79.108 58.5368 79.1437L57.9654 80.6244C57.9507 80.6624 57.8176 80.6934 57.6683 80.6934Z" fill="#98AFDC"/>
<path d="M65.5293 80.6934H59.532C59.3826 80.6934 59.2726 80.6624 59.2863 80.6244L59.8198 79.1437C59.8327 79.108 59.9604 79.079 60.105 79.079H65.9144C66.0591 79.079 66.1696 79.108 66.1612 79.1437L65.8158 80.6244C65.8069 80.6624 65.6786 80.6934 65.5293 80.6934Z" fill="#98AFDC"/>
<path d="M117.525 82.6982H111.294C111.138 82.6982 110.992 82.665 110.967 82.624L110.492 81.8597H117.179L117.75 82.624C117.781 82.665 117.679 82.6982 117.525 82.6982Z" fill="#98AFDC"/>
<path d="M133.496 80.6934H122.922C123.398 80.1773 123.673 79.576 123.814 79.079H131.75C131.948 79.079 132.152 79.1187 132.207 79.1679L133.763 80.5988C133.821 80.6509 133.7 80.6934 133.496 80.6934Z" fill="#98AFDC"/>
<path d="M135.464 82.3955H119.47C119.224 82.3955 118.985 82.3519 118.934 82.2984L118.525 81.8584H120.006C121.2 81.8584 122.05 81.4774 122.648 80.9568H133.724C133.962 80.9568 134.208 80.9975 134.274 81.0481L135.78 82.2984C135.852 82.3519 135.71 82.3955 135.464 82.3955Z" fill="#98AFDC"/>
<path d="M34.1544 80.6934H29.3096C28.7311 79.9727 27.6573 79.3935 26.3184 79.079H35.5231C35.7228 79.079 35.8511 79.119 35.8095 79.1683L34.6075 80.5982C34.5634 80.6508 34.3605 80.6934 34.1544 80.6934Z" fill="#98AFDC"/>
<path d="M36.5901 82.6982H29.5929C29.7138 82.4487 29.7781 82.1869 29.7781 81.917C29.7781 81.5823 29.6792 81.2599 29.4961 80.958H37.9313C38.1706 80.958 38.3267 81.0078 38.2797 81.0694L37.1283 82.5799C37.0786 82.6453 36.8377 82.6982 36.5901 82.6982Z" fill="#98AFDC"/>
<path d="M49.0981 78.833H43.3174C43.1734 78.833 43.0768 78.8043 43.1015 78.7691L44.0659 77.3918C44.0893 77.3586 44.2214 77.3315 44.3611 77.3315H49.9668C50.1064 77.3315 50.2039 77.3586 50.1849 77.3918L49.3953 78.7691C49.3752 78.8043 49.2421 78.833 49.0981 78.833Z" fill="#98AFDC"/>
<path d="M56.5906 78.833H50.8099C50.6661 78.833 50.5651 78.8043 50.5844 78.7691L51.341 77.3918C51.3592 77.3586 51.4873 77.3315 51.6268 77.3315H57.2328C57.3723 77.3315 57.474 77.3586 57.46 77.3918L56.8782 78.7691C56.8634 78.8043 56.7346 78.833 56.5906 78.833Z" fill="#98AFDC"/>
<path d="M64.1285 78.833H58.3478C58.2038 78.833 58.0986 78.8043 58.1126 78.7691L58.6599 77.3918C58.6732 77.3586 58.7971 77.3315 58.9367 77.3315H64.5424C64.6822 77.3315 64.788 77.3586 64.7789 77.3918L64.4064 78.7691C64.3969 78.8043 64.2725 78.833 64.1285 78.833Z" fill="#98AFDC"/>
<path d="M66.4782 78.833H65.8842C65.7402 78.833 65.6305 78.8043 65.6392 78.7691L65.9775 77.3918C65.9856 77.3586 66.1054 77.3315 66.245 77.3315H66.4678C66.4716 77.876 66.4749 78.3779 66.4782 78.833Z" fill="#98AFDC"/>
<path d="M124.012 78.833H123.875C123.904 78.6978 123.923 78.5748 123.931 78.4688L124.213 78.7691C124.246 78.8043 124.155 78.833 124.012 78.833Z" fill="#98AFDC"/>
<path d="M131.581 78.833H125.801C125.657 78.833 125.513 78.8043 125.479 78.7691L124.155 77.3918C124.123 77.3586 124.21 77.3315 124.35 77.3315H129.955C130.095 77.3315 130.238 77.3586 130.274 77.3918L131.773 78.7691C131.811 78.8043 131.726 78.833 131.581 78.833Z" fill="#98AFDC"/>
<path d="M39.174 77.1025H33.5948C33.4558 77.1025 33.3681 77.0759 33.3986 77.0429L34.5908 75.7587C34.6197 75.7277 34.7523 75.7025 34.8872 75.7025H40.3034C40.4382 75.7025 40.5274 75.7277 40.5025 75.7587L39.4732 77.0429C39.4469 77.0759 39.3128 77.1025 39.174 77.1025Z" fill="#98AFDC"/>
<path d="M46.3275 77.1025H40.7483C40.6095 77.1025 40.5177 77.0759 40.5434 77.0429L41.5437 75.7587C41.5678 75.7277 41.6969 75.7025 41.8318 75.7025H47.2479C47.3827 75.7025 47.4757 75.7277 47.4554 75.7587L46.6179 77.0429C46.5965 77.0759 46.4665 77.1025 46.3275 77.1025Z" fill="#98AFDC"/>
<path d="M53.6634 77.1025H48.0843C47.9453 77.1025 47.8494 77.0759 47.87 77.0429L48.6737 75.7587C48.6933 75.7277 48.8184 75.7025 48.9531 75.7025H54.3692C54.5041 75.7025 54.6009 75.7277 54.5853 75.7587L53.9447 77.0429C53.9283 77.0759 53.8022 77.1025 53.6634 77.1025Z" fill="#98AFDC"/>
<path d="M60.8157 77.1025H55.2365C55.0977 77.1025 54.9976 77.0759 55.0133 77.0429L55.6254 75.7587C55.6402 75.7277 55.7616 75.7025 55.8965 75.7025H61.3125C61.4474 75.7025 61.5478 75.7277 61.5371 75.7587L61.0881 77.0429C61.0766 77.0759 60.9546 77.1025 60.8157 77.1025Z" fill="#98AFDC"/>
<path d="M66.4657 77.1025H62.61C62.471 77.1025 62.3671 77.0759 62.3777 77.0429L62.7919 75.7587C62.802 75.7277 62.9194 75.7025 63.0543 75.7025H66.456C66.4595 76.1938 66.4627 76.6627 66.4657 77.1025Z" fill="#98AFDC"/>
<path d="M129.177 77.1025H123.932L123.922 75.7025H127.676C128.05 75.7025 128.43 75.7725 128.525 75.8591L129.696 76.9374C129.796 77.0284 129.563 77.1025 129.177 77.1025Z" fill="#98AFDC"/>
<path d="M33.459 78.833H24.8131C24.4133 78.833 24.1751 78.7534 24.281 78.6558L25.5326 77.4995C25.6332 77.4066 26.0286 77.3315 26.4164 77.3315H34.8008C35.1886 77.3315 35.4371 77.4066 35.3553 77.4995L34.3388 78.6558C34.2529 78.7534 33.8588 78.833 33.459 78.833Z" fill="#98AFDC"/>
<path d="M48.8262 38.7227H33.1808C33.0475 38.7227 32.9395 38.5453 32.9395 38.3265C32.9395 38.1078 33.0475 37.9304 33.1808 37.9304H48.8262C48.9595 37.9304 49.0675 38.1078 49.0675 38.3265C49.0675 38.5453 48.9595 38.7227 48.8262 38.7227Z" fill="#92B0DF"/>
<path d="M70.208 44.7988H63.6646C63.4669 44.7988 63.3066 44.6216 63.3066 44.4026C63.3066 44.184 63.4669 44.0066 63.6646 44.0066H70.208C70.4057 44.0066 70.566 44.184 70.566 44.4026C70.566 44.6216 70.4057 44.7988 70.208 44.7988Z" fill="#92B0DF"/>
<path d="M47.0555 40.6357H33.2974C33.0997 40.6357 32.9395 40.4585 32.9395 40.2397C32.9395 40.0209 33.0997 39.8437 33.2974 39.8437H47.0555C47.2532 39.8437 47.4133 40.0209 47.4133 40.2397C47.4133 40.4585 47.2532 40.6357 47.0555 40.6357Z" fill="#92B0DF"/>
<path d="M62.5049 42.7168H33.2974C33.0997 42.7168 32.9395 42.5394 32.9395 42.3206C32.9395 42.1019 33.0997 41.9246 33.2974 41.9246H62.5049C62.7026 41.9246 62.8629 42.1019 62.8629 42.3206C62.8629 42.5394 62.7026 42.7168 62.5049 42.7168Z" fill="#92B0DF"/>
<path d="M58.1848 44.7988H33.2974C33.0997 44.7988 32.9395 44.6216 32.9395 44.4026C32.9395 44.184 33.0997 44.0066 33.2974 44.0066H58.1848C58.3825 44.0066 58.5428 44.184 58.5428 44.4026C58.5428 44.6216 58.3825 44.7988 58.1848 44.7988Z" fill="#92B0DF"/>
<path d="M43.8676 46.9912H33.2974C33.0997 46.9912 32.9395 46.814 32.9395 46.5952C32.9395 46.3765 33.0997 46.1991 33.2974 46.1991H43.8676C44.0653 46.1991 44.2255 46.3765 44.2255 46.5952C44.2255 46.814 44.0653 46.9912 43.8676 46.9912Z" fill="#92B0DF"/>
<path d="M70.2092 46.9912H56.0923C55.8946 46.9912 55.7344 46.814 55.7344 46.5952C55.7344 46.3765 55.8946 46.1991 56.0923 46.1991H70.2092C70.4069 46.1991 70.5671 46.3765 70.5671 46.5952C70.5671 46.814 70.4069 46.9912 70.2092 46.9912Z" fill="#92B0DF"/>
<path d="M43.6095 34.1631C41.9477 34.1631 40.3854 33.726 39.0293 32.9592C39.91 33.2274 40.8506 33.372 41.8305 33.372C43.5017 33.372 45.0892 32.9519 46.4853 32.2135C46.4934 32.2091 46.5009 32.2053 46.5088 32.201C47.542 31.651 48.47 30.9264 49.2494 30.0685C50.7513 28.415 51.7017 26.2658 51.7888 23.9169C51.896 21.0285 50.676 18.4427 48.6664 16.7084C51.2442 18.401 52.9541 21.3352 52.9638 24.6714C52.9792 29.9136 48.7912 34.1631 43.6095 34.1631Z" fill="#667CC7"/>
<path d="M46.4844 32.2139C46.4753 32.1405 46.4662 32.0669 46.4571 31.9931C46.4676 32.0533 46.485 32.1238 46.508 32.2014C46.5 32.2057 46.4926 32.2095 46.4844 32.2139ZM46.3598 31.2059C46.3525 31.1492 46.3452 31.0924 46.3378 31.0357C46.3463 31.1006 46.3535 31.1565 46.3598 31.2059ZM49.2486 30.0689C49.1729 29.8814 49.0921 29.7065 49.0055 29.5522C48.5565 28.7514 47.9627 28.0846 47.239 27.6689C46.7663 27.3973 45.5087 26.8907 45.4808 26.8755C45.4808 26.8753 45.4808 26.8753 45.4808 26.8753C45.4808 26.8753 45.4808 26.8752 45.4808 26.875C45.4541 26.8687 43.598 26.1976 43.0137 26.152C42.9875 25.9846 42.9629 25.8179 42.9414 25.6525C43.1179 25.5401 43.2821 25.4045 43.4303 25.2522C43.5566 25.1989 43.6763 25.1326 43.7873 25.0501C44.0691 24.8406 44.2595 24.5491 44.4028 24.2458C44.6145 24.0914 44.778 23.8517 44.8679 23.5903C44.9485 23.3561 44.9751 23.1066 44.9647 22.8593C45.0341 22.7382 45.0655 22.5979 45.0933 22.4616C45.2554 21.6689 45.3583 20.8554 45.2479 20.0638C45.2452 20.0448 45.2417 20.0259 45.2389 20.007C45.4674 19.7761 45.6267 19.4828 45.6443 19.1691C45.6494 19.0785 45.5985 18.9594 45.5212 18.9594C45.5096 18.9594 45.4974 18.962 45.4846 18.9679C45.4642 19.0338 45.4437 19.0995 45.4231 19.1653C45.4032 19.1709 45.3836 19.1734 45.3643 19.1734C45.2441 19.1736 45.1364 19.0734 45.0536 18.9809C44.9395 18.8539 44.8256 18.7263 44.7176 18.5942C44.6484 18.488 44.5731 18.3861 44.4905 18.2902C44.476 18.2686 44.4614 18.2472 44.4474 18.2252C44.3206 18.0259 44.2169 17.8098 44.0586 17.6341C43.6654 17.1977 43.0272 17.0969 42.4117 17.0969C42.3257 17.0969 42.2401 17.0988 42.1557 17.1021C41.7301 17.1187 41.2965 17.1582 40.8978 17.3188C40.499 17.4793 40.135 17.7781 39.988 18.176C39.9704 18.2239 39.9575 18.2721 39.9471 18.3204C38.9989 18.8996 38.4342 20.0917 38.6739 21.1469C38.7548 21.5037 38.9148 21.8651 38.8278 22.2242C38.8497 22.4326 38.8641 22.6423 38.8735 22.8525C38.9162 22.9012 38.9668 22.9431 39.0211 22.9744C39.0069 23.1835 39.021 23.3924 39.0744 23.5903C39.1504 23.8728 39.3145 24.13 39.5402 24.2814C39.6419 24.5733 39.7829 24.8551 40.0282 25.0586C40.1197 25.1344 40.2207 25.1959 40.3287 25.2456C40.4592 25.3944 40.6078 25.5282 40.7706 25.64C40.7356 25.8095 40.6952 25.9803 40.6518 26.1523C40.6518 26.1523 40.6518 26.1522 40.6518 26.152C39.8669 26.2219 38.1328 26.8853 38.1268 26.8867C38.1129 26.8895 38.0991 26.8949 38.0853 26.9028C37.6072 27.0679 36.7962 27.5609 36.3576 27.7995C35.6034 28.2095 34.9603 28.8674 34.4524 29.6575C34.4339 29.6862 34.4155 29.7151 34.3975 29.7441C33.1784 28.1382 32.4914 26.1155 32.5729 23.9173C32.7665 18.6953 37.225 14.4621 42.5312 14.4621C44.9025 14.4621 47.0417 15.3075 48.6655 16.7088C50.6751 18.4431 51.8951 21.0289 51.788 23.9173C51.7008 26.2662 50.7505 28.4155 49.2486 30.0689ZM37.2888 29.6792C37.3567 29.3137 37.6907 27.1269 38.0853 26.9028C37.6908 27.1269 37.3567 29.3137 37.2888 29.6792ZM45.4869 26.9012C45.4848 26.8925 45.4827 26.884 45.4808 26.8755C45.4814 26.8777 45.4835 26.8865 45.4869 26.9012Z" fill="#9EB0E0"/>
<path d="M43.4292 25.252C43.6193 25.0568 43.7825 24.8345 43.9102 24.6003C43.9495 24.5278 43.9862 24.4544 44.0203 24.3802C44.0148 24.3974 44.0103 24.4106 44.0071 24.4174C44.0103 24.418 44.014 24.4181 44.0176 24.4181C44.0599 24.4181 44.1291 24.3859 44.166 24.3725C44.2496 24.3421 44.3286 24.2989 44.4017 24.2455C44.2584 24.5488 44.068 24.8404 43.7862 25.0498C43.6752 25.1323 43.5554 25.1986 43.4292 25.252ZM40.3276 25.2454C40.2196 25.1956 40.1186 25.1341 40.0271 25.0583C39.7818 24.8548 39.6408 24.5731 39.5391 24.2811C39.5945 24.3184 39.6537 24.3492 39.7161 24.3725C39.7442 24.383 39.7642 24.3894 39.787 24.3894C39.7971 24.3894 39.8079 24.388 39.8201 24.3854C39.8984 24.5861 39.9941 24.779 40.1117 24.9601C40.1765 25.0597 40.2486 25.1553 40.3276 25.2454Z" fill="#829DD8"/>
<path d="M41.8003 27.5713C41.7969 27.5713 41.7935 27.5713 41.7902 27.5712C41.2609 27.5662 40.651 26.8021 40.6504 26.1511C40.6938 25.979 40.7342 25.8083 40.7692 25.6387C40.7769 25.6441 40.7847 25.6493 40.7926 25.6546C40.798 25.7089 40.8101 25.764 40.8266 25.8185C40.8743 25.9764 40.96 26.1312 41.039 26.2575C41.2005 26.5153 41.4546 26.6939 41.7578 26.7794C41.8271 26.7988 41.897 26.8078 41.9668 26.8078C42.2541 26.8078 42.5384 26.6565 42.7621 26.4735C42.8459 26.4049 42.9267 26.3329 43.0057 26.2589C42.9522 26.7236 42.5759 27.5713 41.8003 27.5713Z" fill="#829DD8"/>
<path d="M41.9692 26.8076C41.8994 26.8076 41.8295 26.7987 41.7601 26.7792C41.457 26.6937 41.2029 26.5151 41.0413 26.2573C40.9623 26.131 40.8766 25.9762 40.829 25.8183C40.8124 25.7638 40.8004 25.7088 40.7949 25.6544C41.0907 25.8521 41.4319 25.9774 41.7946 25.9893C41.8137 25.9899 41.833 25.9902 41.852 25.9902C42.239 25.9903 42.6118 25.8617 42.9424 25.651C42.9638 25.8165 42.9885 25.9832 43.0148 26.1506C43.0147 26.1506 43.0147 26.1506 43.0147 26.1506C43.0147 26.1835 43.0125 26.2198 43.0081 26.2587C42.9291 26.3327 42.8482 26.4047 42.7644 26.4734C42.5407 26.6563 42.2565 26.8076 41.9692 26.8076Z" fill="#829DD8"/>
<path d="M41.8275 33.3721C40.8476 33.3721 39.907 33.2275 39.0263 32.9592C38.2436 32.7208 37.5084 32.3846 36.834 31.9646C36.983 31.2067 37.1441 30.4092 37.2831 29.6974C37.2842 29.6918 37.2854 29.6857 37.2866 29.6789C37.3546 29.3134 37.6887 27.1266 38.0832 26.9024C38.1052 26.8947 38.1265 26.8879 38.147 26.8817L38.1246 26.8863C38.1307 26.8849 39.8647 26.2216 40.6496 26.1517C40.6496 26.1518 40.6496 26.152 40.6496 26.152C40.6502 26.803 41.2601 27.5672 41.7894 27.5721C41.7928 27.5722 41.7961 27.5722 41.7995 27.5722C42.5752 27.5722 42.9514 26.7245 43.005 26.2598C43.0094 26.2209 43.0115 26.1846 43.0115 26.1517C43.5959 26.1972 45.4519 26.8684 45.4787 26.8747C45.4787 26.8748 45.4787 26.875 45.4787 26.875C45.4787 26.875 45.4787 26.8748 45.4787 26.8747C45.4785 26.8747 45.4784 26.8747 45.4784 26.8747C45.4781 26.8747 45.4783 26.8748 45.4787 26.8751C45.4805 26.8837 45.4826 26.8922 45.4847 26.9009C45.5533 27.1921 46.1765 29.8145 46.3356 31.0354C46.343 31.0921 46.3503 31.1488 46.3576 31.2056C46.3957 31.5057 46.3999 31.5673 46.4485 31.9497C46.4502 31.9635 46.4524 31.9778 46.455 31.9927C46.4641 32.0666 46.4732 32.1401 46.4823 32.2135C45.0861 32.9519 43.4986 33.3721 41.8275 33.3721Z" fill="#829DD8"/>
<path d="M36.8352 31.9639C35.8891 31.3749 35.0632 30.6212 34.3965 29.743C34.4146 29.714 34.4329 29.6852 34.4514 29.6564C34.9594 28.8663 35.6024 28.2085 36.3566 27.7984C36.7952 27.5599 37.6062 27.0669 38.0844 26.9017C37.6897 27.1259 37.3558 29.3127 37.2878 29.6782C37.2865 29.685 37.2854 29.691 37.2843 29.6967C37.1453 30.4084 36.9842 31.206 36.8352 31.9639ZM38.0844 26.9017C38.0981 26.8939 38.112 26.8884 38.1258 26.8856L38.1482 26.881C38.1276 26.8871 38.1064 26.894 38.0844 26.9017Z" fill="#829DD8"/>
<path d="M46.508 32.2012C46.4851 32.1236 46.4677 32.0531 46.4572 31.9929C46.4547 31.9779 46.4524 31.9636 46.4507 31.9499C46.4021 31.5674 46.3979 31.5058 46.3598 31.2057C46.3535 31.1562 46.3464 31.1003 46.3378 31.0355C46.1787 29.8146 45.5556 27.1922 45.4869 26.901C45.4836 26.8863 45.4815 26.8775 45.4809 26.8752C45.5088 26.8905 46.7664 27.3971 47.239 27.6687C47.9627 28.0843 48.5566 28.7512 49.0056 29.5519C49.0921 29.7063 49.173 29.8811 49.2486 30.0687C48.4692 30.9266 47.5412 31.6512 46.508 32.2012ZM45.4809 26.8752C45.4805 26.8749 45.4803 26.8748 45.4806 26.8748C45.4806 26.8748 45.4808 26.8748 45.4809 26.8748C45.4809 26.8749 45.4809 26.8751 45.4809 26.8751C45.4809 26.8751 45.4809 26.8751 45.4809 26.8752Z" fill="#829DD8"/>
<path d="M41.8513 25.9912C41.8323 25.9912 41.8129 25.9909 41.7939 25.9904C41.4312 25.9785 41.0899 25.8531 40.7942 25.6554C40.7863 25.6501 40.7785 25.6449 40.7708 25.6396C40.608 25.5278 40.4594 25.394 40.329 25.2452C40.2499 25.1552 40.1778 25.0596 40.1131 24.96C39.9954 24.7789 39.8997 24.586 39.8214 24.3852C39.8236 24.3847 39.826 24.3841 39.8284 24.3835C39.7386 24.0328 39.6966 23.6956 39.6809 23.3225C39.6658 22.9619 39.5936 22.5802 39.6003 22.2182C39.5974 22.2165 39.5945 22.2148 39.5918 22.2133C39.6108 21.8476 39.63 21.482 39.6494 21.1164C39.6539 21.0298 39.6595 20.9394 39.704 20.8632C39.7494 20.7859 39.8283 20.7342 39.9017 20.6815C40.2019 20.4656 40.4521 20.1824 40.6304 19.8623C40.9341 20.1469 41.2863 20.3688 41.5825 20.4803C42.0035 20.6388 42.4569 20.7 42.9146 20.7C43.1431 20.7 43.3727 20.6847 43.5999 20.6587C43.7885 20.6372 43.9783 20.6074 44.1641 20.5631C44.1785 21.1713 44.1931 21.7794 44.2075 22.3875C44.2034 22.3899 44.1994 22.3924 44.1953 22.3951C44.1963 22.6066 44.1863 22.8189 44.1783 23.0345C44.1632 23.4536 44.1674 23.702 44.0915 24.1188C44.0853 24.1525 44.0454 24.3049 44.0216 24.38C43.9875 24.4543 43.9508 24.5277 43.9115 24.6001C43.7839 24.8343 43.6207 25.0567 43.4305 25.2518C43.2823 25.4041 43.1181 25.5397 42.9416 25.6521C42.611 25.8627 42.2382 25.9914 41.8513 25.9912Z" fill="#829DD8"/>
<path d="M39.0215 22.9736C38.9671 22.9424 38.9165 22.9005 38.8738 22.8518C38.8644 22.6416 38.85 22.4319 38.8281 22.2235C38.9151 21.8644 38.7552 21.503 38.6742 21.1462C38.4345 20.091 38.9992 18.8988 39.9475 18.3197C39.9578 18.2714 39.9707 18.2232 39.9884 18.1753C40.1353 17.7774 40.4993 17.4786 40.8981 17.3181C41.2968 17.1575 41.7304 17.118 42.156 17.1013C42.2405 17.0981 42.3261 17.0962 42.4121 17.0962C43.0275 17.0962 43.6657 17.197 44.059 17.6334C44.2173 17.8091 44.3209 18.0252 44.4477 18.2244C44.4617 18.2464 44.4763 18.2679 44.4909 18.2894C44.5734 18.3854 44.6488 18.4872 44.718 18.5934C44.826 18.7255 44.9399 18.8532 45.0539 18.9802C45.1367 19.0727 45.2444 19.1728 45.3646 19.1727C45.3839 19.1727 45.4036 19.1702 45.4235 19.1646C45.444 19.0987 45.4645 19.033 45.485 18.9672C45.4977 18.9613 45.5099 18.9586 45.5215 18.9586C45.5988 18.9586 45.6497 19.0777 45.6447 19.1684C45.627 19.482 45.4677 19.7754 45.2392 20.0062C45.242 20.0252 45.2455 20.0441 45.2482 20.0631C45.3586 20.8546 45.2558 21.6681 45.0937 22.4609C45.0658 22.5972 45.0344 22.7374 44.9651 22.8586C44.9599 22.7349 44.9453 22.6116 44.9236 22.4913C44.9034 22.3798 44.87 22.2586 44.7804 22.2034C44.7414 22.1792 44.6957 22.1706 44.6497 22.1706C44.6345 22.1706 44.6193 22.1716 44.6042 22.1732C44.4652 22.1879 44.3364 22.2644 44.2367 22.374C44.2265 22.3773 44.2169 22.3819 44.2076 22.3872C44.1932 21.7791 44.1786 21.171 44.1642 20.5628C43.9784 20.6071 43.7886 20.6369 43.6 20.6584C43.3728 20.6844 43.1432 20.6997 42.9147 20.6997C42.457 20.6997 42.0036 20.6385 41.5826 20.48C41.2864 20.3685 40.9343 20.1466 40.6305 19.8619C40.4522 20.1821 40.202 20.4653 39.9018 20.6812C39.8284 20.7339 39.7495 20.7856 39.7041 20.8629C39.6596 20.9391 39.654 21.0295 39.6495 21.116C39.6302 21.4817 39.611 21.8473 39.5919 22.2129C39.5377 22.1821 39.5102 22.1803 39.4438 22.1732C39.4289 22.1716 39.4137 22.1706 39.3986 22.1706C39.3525 22.1706 39.3063 22.1792 39.2655 22.2034C39.1716 22.2586 39.1292 22.3798 39.1009 22.4913C39.0607 22.6489 39.0325 22.8113 39.0215 22.9736Z" fill="#829DD8"/>
<path d="M39.7878 24.3896C39.765 24.3896 39.745 24.3832 39.717 24.3727C39.6545 24.3494 39.5954 24.3186 39.5399 24.2814C39.3142 24.1299 39.1502 23.8727 39.0741 23.5903C39.0207 23.3924 39.0066 23.1835 39.0209 22.9743C39.0319 22.812 39.0601 22.6496 39.1003 22.492C39.1286 22.3805 39.171 22.2593 39.2649 22.2041C39.3057 22.1799 39.3519 22.1713 39.398 22.1713C39.4131 22.1713 39.4282 22.1723 39.4432 22.1738C39.5096 22.181 39.5371 22.1828 39.5913 22.2136C39.594 22.2152 39.5969 22.2169 39.5998 22.2185C39.5931 22.5805 39.6653 22.9623 39.6804 23.3229C39.6961 23.6959 39.7381 24.0331 39.8279 24.3839C39.8255 24.3845 39.8231 24.385 39.8209 24.3856C39.8087 24.3882 39.7979 24.3896 39.7878 24.3896Z" fill="#829DD8"/>
<path d="M44.0164 24.418C44.0127 24.418 44.0091 24.4178 44.0059 24.4173C44.0091 24.4104 44.0136 24.3972 44.019 24.38C44.0428 24.3049 44.0828 24.1525 44.0889 24.1187C44.1649 23.702 44.1607 23.4536 44.1758 23.0344C44.1838 22.8188 44.1937 22.6066 44.1927 22.3951C44.1968 22.3924 44.2009 22.3899 44.2049 22.3875C44.2142 22.3822 44.2238 22.3776 44.2341 22.3743C44.3337 22.2646 44.4626 22.1882 44.6015 22.1734C44.6167 22.1719 44.6318 22.1709 44.6471 22.1709C44.693 22.1709 44.7387 22.1795 44.7778 22.2037C44.8673 22.2589 44.9008 22.3801 44.9209 22.4916C44.9426 22.6119 44.9572 22.7352 44.9624 22.8589C44.9728 23.1062 44.9461 23.3557 44.8656 23.5899C44.7757 23.8513 44.6122 24.091 44.4005 24.2454C44.3274 24.2987 44.2484 24.3419 44.1647 24.3723C44.1279 24.3857 44.0587 24.418 44.0164 24.418Z" fill="#829DD8"/>
<path d="M52.0977 35.4668L55.1647 29.9443L58.2475 35.4563L52.0977 35.4668Z" fill="white"/>
<path d="M54.293 31.2607L55.1642 29.9442L56.0399 31.2578L54.293 31.2607Z" fill="#16233A"/>
<path d="M57.0165 74.7031L53.3829 74.7092C52.6908 74.7104 52.1257 75.2774 52.127 75.9693L52.1397 83.5135C52.141 84.2054 52.7079 84.7707 53.4 84.7695L57.0336 84.7632C57.7255 84.7621 58.2906 84.195 58.2895 83.5031L58.2768 75.959C58.2755 75.2671 57.7084 74.7018 57.0165 74.7031Z" fill="#EF277B"/>
<path d="M54.1476 35.4613L54.1765 76.2885L52.1264 76.292L52.0977 35.4648L54.1476 35.4613Z" fill="#4B497C"/>
<path d="M56.1984 35.4594L56.2271 76.2865L54.1773 76.29L54.1484 35.4629L56.1984 35.4594Z" fill="#3E3D6B"/>
<path d="M58.2472 35.4564L58.2759 76.2836L56.226 76.2871L56.1973 35.4599L58.2472 35.4564Z" fill="#292A53"/>
<path d="M58.2748 75.5081L52.125 75.5184L52.1271 76.7588L58.2769 76.7483L58.2748 75.5081Z" fill="#F5F6F5"/>
<path d="M130.971 3.64714C130.971 1.63306 129.337 0.000456333 127.324 0.000456333H127.066C125.052 0.000456333 123.42 1.63306 123.42 3.64714V6.75098H130.971V3.64714Z" fill="#2E4185"/>
<path d="M127.068 -6.86646e-05H69.6018C67.5877 -6.86646e-05 65.9551 1.63254 65.9551 3.64661C65.9551 3.64661 66.5003 81.4587 66.5003 81.8594H120.007C123.193 81.8594 123.941 79.1425 123.941 78.307L123.421 3.64661C123.421 1.63254 125.053 -6.86646e-05 127.068 -6.86646e-05Z" fill="white"/>
<path d="M81.5313 24.501C76.9744 24.501 73.2693 20.7638 73.2559 16.1537C73.2423 11.5435 76.9256 7.80629 81.4824 7.80629C86.0393 7.80629 89.7444 11.5435 89.7578 16.1537C89.7714 20.7638 86.0883 24.501 81.5313 24.501Z" fill="#C7D7EE"/>
<path d="M88.7264 15.4895C88.556 20.0818 84.635 23.8047 79.9686 23.8047C75.3024 23.8047 71.6577 20.0818 71.828 15.4895C71.9984 10.8971 75.9193 7.1743 80.5857 7.1743C85.252 7.1743 88.8967 10.8971 88.7264 15.4895Z" fill="#E1E9F7"/>
<path d="M81.2915 19.8403C80.9921 20.0337 80.1384 19.9144 79.8534 20.0736C79.5698 20.2321 78.6208 20.2803 78.3477 20.2063C78.3982 18.833 79.0893 17.4437 79.1484 16.1798C79.6684 17.3419 80.2823 16.7039 80.8844 15.9085C80.8271 17.1435 81.3216 18.5981 81.2915 19.8403Z" fill="#FAB6A9"/>
<path d="M79.0856 17.1633C79.1276 17.302 79.203 17.4381 79.2726 17.5492C79.4147 17.7759 79.6381 17.9331 79.9047 18.0082C80.2167 18.0962 80.5435 17.9392 80.7878 17.7392C80.8681 17.6735 80.9451 17.6043 81.0204 17.5333C80.9307 16.9747 80.8591 16.4231 80.883 15.9093C80.2808 16.7048 79.667 17.3427 79.147 16.1807C79.1795 16.2535 79.1271 16.4396 79.1171 16.52C79.1014 16.6452 79.0747 16.7689 79.0573 16.8936C79.0451 16.9805 79.0583 17.0725 79.0856 17.1633Z" fill="#F4AAA0"/>
<path d="M84.3607 25.5137C84.3148 25.0403 84.2687 24.5662 84.2171 24.0933C84.1753 23.7097 84.1307 23.3271 84.0822 22.9462C84.0324 22.5545 83.9857 22.1539 83.9332 21.7504C83.7858 20.62 83.6545 19.2155 83.2098 18.1868C83.1963 18.1556 83.1861 18.1236 83.1794 18.0914C83.1558 18.0858 81.5236 17.4955 81.0099 17.4555C81.0099 17.8306 80.6806 18.7117 79.935 18.7047C79.4695 18.7004 78.9331 18.0281 78.9327 17.4555C78.2423 17.517 76.7174 18.1004 76.7121 18.1015C76.3429 18.1783 76.0258 20.2988 75.9721 20.5737C75.7392 21.7658 75.4842 22.9336 75.2833 24.1265L75.2771 24.1614C75.2016 24.6119 75.1286 25.0629 75.0566 25.5137H84.3607Z" fill="#92B0DF"/>
<path d="M76.711 18.1022L76.7308 18.0983C76.3204 18.2213 75.5585 18.6857 75.155 18.9051C74.4918 19.2657 73.9263 19.8443 73.4795 20.5391C73.0779 21.1636 72.7696 21.8609 72.5254 22.5913C72.7219 22.9524 72.9874 23.2543 73.3284 23.4929C73.8088 23.8291 74.7863 24.1852 74.8828 24.2275C75.1176 23.8148 75.3308 23.5644 75.426 23.3433C75.5908 22.474 75.7999 21.4504 75.9711 20.5744C76.0247 20.2996 76.3419 18.179 76.711 18.1022Z" fill="#92B0DF"/>
<path d="M86.2779 20.4447C85.8829 19.7403 85.3607 19.1541 84.7244 18.7884C84.2997 18.5445 83.1546 18.0848 83.1781 18.0904C83.1848 18.1226 83.7845 20.619 83.9319 21.7494C83.9844 22.1528 83.9814 22.1618 84.0311 22.5535C84.0796 22.9343 84.5151 23.8915 84.8282 24.2881C85.2701 24.1668 85.9781 23.7783 86.3014 23.5762C86.7951 23.2677 86.8838 23.0729 87.067 22.8411C86.8776 22.1007 86.633 21.0778 86.2779 20.4447Z" fill="#92B0DF"/>
<path d="M77.9293 14.7099C77.998 15.3061 78.1323 15.907 78.4567 16.4064C78.7812 16.906 79.3234 17.2925 79.9348 17.3127C80.7088 17.338 81.4255 16.7726 81.7971 16.09C82.1687 15.4073 82.2627 14.6236 82.3345 13.8618C82.3956 13.214 82.4392 12.5296 82.1485 11.958C82.0427 11.7501 81.8924 11.562 81.6963 11.4328C81.5573 11.341 81.3983 11.2808 81.2364 11.2348C80.5445 11.039 79.7605 11.1076 79.1185 11.4666C77.8592 12.1709 77.7872 13.4745 77.9293 14.7099Z" fill="#FAB6A9"/>
<path d="M82.9665 12.0518C83.1673 11.8488 83.3074 11.5907 83.3231 11.315C83.3282 11.2232 83.2682 11.0985 83.1826 11.138C83.1647 11.1959 83.1466 11.2537 83.1285 11.3116C83.0022 11.3473 82.888 11.2439 82.8035 11.1495C82.7032 11.0377 82.6029 10.9255 82.5081 10.8094C82.4473 10.7159 82.3809 10.6264 82.3083 10.5419C82.2956 10.523 82.2827 10.5041 82.2703 10.4849C82.159 10.3095 82.0678 10.1194 81.9287 9.96491C81.5343 9.52755 80.8603 9.47347 80.2549 9.49715C79.8807 9.51172 79.4994 9.54646 79.1487 9.68767C78.7981 9.82888 78.478 10.0917 78.3487 10.4415C78.3332 10.4837 78.3219 10.526 78.3128 10.5686C77.4787 11.0779 76.9822 12.1264 77.1929 13.0543C77.2642 13.368 77.4049 13.6858 77.3284 14.0016C77.3474 14.185 77.3602 14.3693 77.3686 14.5543C77.4983 14.7028 77.7122 14.7781 77.8585 14.646C77.9643 14.5505 77.9788 14.3957 77.9861 14.257C78.0075 13.8472 78.0291 13.4375 78.0506 13.0278C78.0545 12.9516 78.0595 12.8722 78.0989 12.8051C78.1387 12.7372 78.208 12.6916 78.2726 12.6453C78.5367 12.4554 78.7566 12.2063 78.9134 11.9249C79.1805 12.1752 79.4903 12.3704 79.7508 12.4685C80.3057 12.6775 80.9251 12.694 81.5249 12.6254C81.6907 12.6063 81.8576 12.5803 82.021 12.5412C82.0346 13.1101 82.048 13.6787 82.0616 14.2475C82.0666 14.4575 82.1067 14.7161 82.3096 14.7757C82.4477 14.8162 82.6029 14.7333 82.6896 14.6153C82.7763 14.4974 82.8095 14.3517 82.8384 14.2105C82.981 13.5133 83.0714 12.7978 82.9743 12.1018C82.9721 12.0852 82.969 12.0685 82.9665 12.0518Z" fill="#8D424A"/>
<path d="M78.0786 14.9671C78.0655 14.65 78.002 14.3143 78.0079 13.996C77.9551 13.9648 77.9316 13.9633 77.8701 13.9567C77.8171 13.9511 77.7611 13.955 77.7133 13.9831C77.6309 14.0319 77.5935 14.1384 77.5686 14.2364C77.4877 14.5539 77.4621 14.893 77.5456 15.2023C77.629 15.5117 77.8322 15.7865 78.111 15.8905C78.1486 15.9045 78.1697 15.9102 78.2085 15.9003C78.1296 15.5918 78.0925 15.2952 78.0786 14.9671Z" fill="#F4AAA0"/>
<path d="M82.6875 14.2374C82.6698 14.1394 82.6404 14.0329 82.5617 13.9841C82.516 13.956 82.4601 13.9521 82.4068 13.9577C82.2845 13.9705 82.1713 14.0378 82.0836 14.1342C82.0705 14.1384 82.0586 14.145 82.0473 14.1525C82.0481 14.3386 82.0392 14.5252 82.0324 14.7148C82.0191 15.0834 82.0228 15.302 81.9559 15.6684C81.9492 15.7049 81.8978 15.899 81.8828 15.931C81.9183 15.9367 81.9873 15.9042 82.0225 15.8915C82.3088 15.7875 82.5326 15.5127 82.639 15.2033C82.7454 14.894 82.7449 14.5549 82.6875 14.2374Z" fill="#F4AAA0"/>
<path d="M116.054 13.3955H95.4573C94.7749 13.3955 94.215 12.8307 94.2129 12.1403C94.2108 11.4499 94.7675 10.8849 95.45 10.8849H116.047C116.729 10.8849 117.289 11.4499 117.291 12.1403C117.293 12.8307 116.736 13.3955 116.054 13.3955Z" fill="#C7D7EE"/>
<path d="M117.005 15.8682H97.9104C97.7533 15.8682 97.625 15.7398 97.625 15.5829V15.427C97.625 15.2703 97.7533 15.1418 97.9104 15.1418H117.005C117.162 15.1418 117.29 15.2703 117.29 15.427V15.5829C117.29 15.7398 117.162 15.8682 117.005 15.8682Z" fill="#C7D7EE"/>
<path d="M117.006 17.9834H94.4981C94.3412 17.9834 94.2129 17.8549 94.2129 17.6982V17.5423C94.2129 17.3854 94.3412 17.257 94.4981 17.257H117.006C117.163 17.257 117.291 17.3854 117.291 17.5423V17.6982C117.291 17.8549 117.163 17.9834 117.006 17.9834Z" fill="#C7D7EE"/>
<path d="M114.73 20.0957H94.4981C94.3412 20.0957 94.2129 19.9674 94.2129 19.8105V19.6546C94.2129 19.4978 94.3412 19.3693 94.4981 19.3693H114.73C114.887 19.3693 115.016 19.4978 115.016 19.6546V19.8105C115.016 19.9674 114.887 20.0957 114.73 20.0957Z" fill="#C7D7EE"/>
<path d="M81.5313 48.8555C76.9744 48.8555 73.2693 45.1183 73.2559 40.508C73.2423 35.8978 76.9256 32.1606 81.4824 32.1606C86.0393 32.1606 89.7444 35.8978 89.7578 40.508C89.7714 45.1183 86.0883 48.8555 81.5313 48.8555Z" fill="#C7D7EE"/>
<path d="M88.7264 39.844C88.556 44.4363 84.635 48.1592 79.9686 48.1592C75.3024 48.1592 71.6577 44.4363 71.828 39.844C71.9984 35.2516 75.9193 31.5288 80.5857 31.5288C85.252 31.5288 88.8967 35.2516 88.7264 39.844Z" fill="#E1E9F7"/>
<path d="M81.2915 44.1918C80.9921 44.3853 80.1384 44.2659 79.8534 44.4252C79.5698 44.5836 78.6208 44.6318 78.3477 44.5579C78.3982 43.1846 79.0893 41.7953 79.1484 40.5314C79.6684 41.6934 80.2823 41.0555 80.8844 40.26C80.8271 41.4951 81.3216 42.9496 81.2915 44.1918Z" fill="#FAB6A9"/>
<path d="M79.0856 41.5149C79.1276 41.6537 79.203 41.7897 79.2726 41.9008C79.4147 42.1276 79.6381 42.2846 79.9047 42.3597C80.2167 42.4477 80.5435 42.2908 80.7878 42.0908C80.8681 42.0252 80.9451 41.9559 81.0204 41.8848C80.9307 41.3263 80.8591 40.7746 80.883 40.2609C80.2808 41.0563 79.667 41.6943 79.147 40.5323C79.1795 40.6051 79.1271 40.7911 79.1171 40.8717C79.1014 40.9968 79.0747 41.1205 79.0573 41.2452C79.0451 41.332 79.0583 41.4241 79.0856 41.5149Z" fill="#F4AAA0"/>
<path d="M84.3607 49.8652C84.3148 49.3917 84.2687 48.9177 84.2171 48.4447C84.1753 48.0612 84.1307 47.6786 84.0822 47.2978C84.0324 46.906 83.9857 46.5053 83.9332 46.1019C83.7858 44.9715 83.6545 43.5669 83.2098 42.5382C83.1963 42.507 83.1861 42.4751 83.1794 42.443C83.1558 42.4374 81.5236 41.847 81.0099 41.807C81.0099 42.182 80.6806 43.0632 79.935 43.0562C79.4695 43.0518 78.9331 42.3795 78.9327 41.807C78.2423 41.8685 76.7174 42.4518 76.7121 42.4529C76.3429 42.5297 76.0258 44.6502 75.9721 44.9251C75.7392 46.1173 75.4842 47.2851 75.2833 48.4779L75.2771 48.5129C75.2016 48.9633 75.1286 49.4143 75.0566 49.8652H84.3607Z" fill="#C7D7EE"/>
<path d="M76.711 42.4538L76.7308 42.4499C76.3204 42.5729 75.5585 43.0373 75.155 43.2567C74.4918 43.6173 73.9263 44.1958 73.4795 44.8907C73.0779 45.5152 72.7696 46.2124 72.5254 46.9429C72.7219 47.304 72.9874 47.6059 73.3284 47.8445C73.8088 48.1807 74.7863 48.5368 74.8828 48.5791C75.1176 48.1663 75.3308 47.9158 75.426 47.6949C75.5908 46.8256 75.7999 45.802 75.9711 44.926C76.0247 44.6511 76.3419 42.5306 76.711 42.4538Z" fill="#92B0DF"/>
<path d="M86.2779 44.7963C85.8829 44.092 85.3607 43.5056 84.7244 43.14C84.2997 42.8961 83.1546 42.4365 83.1781 42.4421C83.1848 42.4741 83.7845 44.9705 83.9319 46.1009C83.9844 46.5044 83.9814 46.5134 84.0311 46.9051C84.0796 47.286 84.5151 48.2432 84.8282 48.6396C85.2701 48.5183 85.9781 48.1299 86.3014 47.9278C86.7951 47.6194 86.8838 47.4246 87.067 47.1928C86.8776 46.4523 86.633 45.4293 86.2779 44.7963Z" fill="#92B0DF"/>
<path d="M77.9307 39.0615C77.9995 39.6577 78.1337 40.2585 78.4582 40.7581C78.7826 41.2575 79.3249 41.644 79.9363 41.6642C80.7103 41.6897 81.427 41.1242 81.7986 40.4415C82.1701 39.7588 82.2642 38.9753 82.336 38.2134C82.3971 37.5656 82.4407 36.8811 82.15 36.3097C82.0442 36.1016 81.8939 35.9135 81.6978 35.7843C81.5588 35.6926 81.3998 35.6323 81.2379 35.5864C80.546 35.3906 79.0987 35.1878 78.4566 35.5469C77.1975 36.2511 77.7887 37.826 77.9307 39.0615Z" fill="#FAB6A9"/>
<path d="M77.6772 35.495C77.5742 36.0313 77.5465 36.5799 77.5522 37.1352C77.5549 37.3892 77.5476 37.6985 77.549 38.0221C77.5849 38.2551 77.6227 38.4878 77.6629 38.7205C77.7635 38.7014 77.8704 38.6909 77.981 38.6872C77.9836 38.6612 77.9857 38.635 77.9871 38.6095C78.0085 38.1997 78.0301 37.79 78.0515 37.3803C78.0554 37.3041 78.0605 37.2247 78.0998 37.1576L78.12 37.1348C78.0935 36.6625 78.0432 36.134 78.4946 35.8331C78.8506 35.5956 79.3649 35.6459 79.7664 35.6874C79.9247 35.7036 80.0881 35.7098 80.2526 35.7147C80.817 35.5459 81.5037 35.5676 81.8903 36.0558C82.321 36.5998 82.2104 37.4336 82.0734 38.0629C82.068 38.0877 82.0588 38.1081 82.0514 38.1307C82.0551 38.2872 82.0588 38.4435 82.0626 38.6C82.0637 38.6468 82.067 38.6959 82.0731 38.7447C82.2137 38.7461 82.3545 38.7469 82.4952 38.748C82.5655 38.092 82.6221 37.4346 82.6156 36.7745C82.6128 36.4939 82.6025 36.212 82.5788 35.9324C82.5714 35.8433 82.5306 35.6763 82.5039 35.5288C81.5687 34.3583 79.6831 34.1961 78.3217 34.8929L78.3138 34.9211C78.0685 35.0708 77.8543 35.2685 77.6772 35.495Z" fill="#8D424A"/>
<path d="M78.0786 39.3187C78.0655 39.0015 78.002 38.6659 78.0079 38.3476C77.9551 38.3164 77.9316 38.3148 77.8701 38.3082C77.8171 38.3026 77.7611 38.3065 77.7133 38.3347C77.6309 38.3835 77.5935 38.4899 77.5686 38.588C77.4877 38.9054 77.4621 39.2446 77.5456 39.5539C77.629 39.8632 77.8322 40.1381 78.111 40.242C78.1486 40.256 78.1697 40.2618 78.2085 40.2518C78.1296 39.9434 78.0925 39.6468 78.0786 39.3187Z" fill="#F4AAA0"/>
<path d="M82.6875 38.589C82.6698 38.4909 82.6404 38.3844 82.5617 38.3357C82.516 38.3075 82.4601 38.3036 82.4068 38.3092C82.2845 38.3222 82.1713 38.3895 82.0836 38.4859C82.0705 38.4899 82.0586 38.4965 82.0473 38.5041C82.0481 38.6901 82.0392 38.8769 82.0324 39.0664C82.0191 39.435 82.0228 39.6535 81.9559 40.02C81.9492 40.0564 81.8978 40.2506 81.8828 40.2825C81.9183 40.2883 81.9873 40.2558 82.0225 40.243C82.3088 40.1391 82.5326 39.8642 82.639 39.5549C82.7454 39.2456 82.7449 38.9064 82.6875 38.589Z" fill="#F4AAA0"/>
<path d="M116.054 37.7471H95.4573C94.7749 37.7471 94.215 37.1822 94.2129 36.4919C94.2108 35.8015 94.7675 35.2365 95.45 35.2365H116.047C116.729 35.2365 117.289 35.8015 117.291 36.4919C117.293 37.1822 116.736 37.7471 116.054 37.7471Z" fill="#C7D7EE"/>
<path d="M117.005 40.2227H97.9104C97.7533 40.2227 97.625 40.0943 97.625 39.9373V39.7816C97.625 39.6247 97.7533 39.4963 97.9104 39.4963H117.005C117.162 39.4963 117.29 39.6247 117.29 39.7816V39.9373C117.29 40.0943 117.162 40.2227 117.005 40.2227Z" fill="#C7D7EE"/>
<path d="M117.006 42.3359H94.4981C94.3412 42.3359 94.2129 42.2078 94.2129 42.0507V41.8949C94.2129 41.738 94.3412 41.6097 94.4981 41.6097H117.006C117.163 41.6097 117.291 41.7382 117.291 41.8949V42.0507C117.291 42.2078 117.163 42.3359 117.006 42.3359Z" fill="#C7D7EE"/>
<path d="M114.73 44.4502H94.4981C94.3412 44.4502 94.2129 44.3217 94.2129 44.1648V44.009C94.2129 43.8521 94.3412 43.7238 94.4981 43.7238H114.73C114.887 43.7238 115.016 43.8521 115.016 44.009V44.1648C115.016 44.3217 114.887 44.4502 114.73 44.4502Z" fill="#C7D7EE"/>
<path d="M81.5313 71.4971C76.9744 71.4971 73.2693 67.7597 73.2559 63.1497C73.2423 58.5396 76.9256 54.8022 81.4824 54.8022C86.0393 54.8022 89.7444 58.5396 89.7578 63.1497C89.7714 67.7597 86.0883 71.4971 81.5313 71.4971Z" fill="#C7D7EE"/>
<path d="M88.7264 62.4856C88.556 67.078 84.635 70.8008 79.9686 70.8008C75.3024 70.8008 71.6577 67.078 71.828 62.4856C71.9984 57.8933 75.9193 54.1704 80.5857 54.1704C85.252 54.1704 88.8967 57.8933 88.7264 62.4856Z" fill="#E1E9F7"/>
<path d="M81.2915 66.8383C80.9921 67.0318 80.1384 66.9124 79.8534 67.0717C79.5698 67.2301 78.6208 67.2783 78.3477 67.2044C78.3982 65.831 79.0893 64.4418 79.1484 63.178C79.6684 64.3399 80.2823 63.702 80.8844 62.9067C80.8271 64.1416 81.3216 65.5961 81.2915 66.8383Z" fill="#FAB6A9"/>
<path d="M79.0856 64.1613C79.1276 64.3 79.203 64.4362 79.2726 64.5474C79.4147 64.774 79.6381 64.9311 79.9047 65.0062C80.2167 65.0942 80.5435 64.9373 80.7878 64.7374C80.8681 64.6717 80.9451 64.6025 81.0204 64.5315C80.9307 63.9729 80.8591 63.4211 80.883 62.9075C80.2808 63.7028 79.667 64.3408 79.147 63.1789C79.1795 63.2517 79.1271 63.4378 79.1171 63.518C79.1014 63.6433 79.0747 63.767 79.0573 63.8917C79.0451 63.9787 79.0583 64.0706 79.0856 64.1613Z" fill="#F4AAA0"/>
<path d="M84.3607 72.5117C84.3148 72.0384 84.2687 71.5643 84.2171 71.0912C84.1753 70.7078 84.1307 70.3251 84.0822 69.9443C84.0324 69.5526 83.9857 69.1517 83.9332 68.7483C83.7858 67.6179 83.6545 66.2135 83.2098 65.1849C83.1963 65.1535 83.1861 65.1215 83.1794 65.0893C83.1558 65.0839 81.5236 64.4934 81.0099 64.4535C81.0099 64.8285 80.6806 65.7096 79.935 65.7026C79.4695 65.6984 78.9331 65.0261 78.9327 64.4535C78.2423 64.5151 76.7174 65.0984 76.7121 65.0995C76.3429 65.1762 76.0258 67.2967 75.9721 67.5717C75.7392 68.7637 75.4842 69.9315 75.2833 71.1244L75.2771 71.1593C75.2016 71.61 75.1286 72.0608 75.0566 72.5117H84.3607Z" fill="#92B0DF"/>
<path d="M76.711 65.1003L76.7308 65.0962C76.3204 65.2194 75.5585 65.6836 75.155 65.903C74.4918 66.2636 73.9263 66.8422 73.4795 67.537C73.0779 68.1617 72.7696 68.8589 72.5254 69.5892C72.7219 69.9505 72.9874 70.2522 73.3284 70.4908C73.8088 70.827 74.7863 71.1831 74.8828 71.2256C75.1176 70.8127 75.3308 70.5623 75.426 70.3412C75.5908 69.4721 75.7999 68.4483 75.9711 67.5725C76.0247 67.2975 76.3419 65.1769 76.711 65.1003Z" fill="#C7D7EE"/>
<path d="M86.2779 67.4429C85.8829 66.7385 85.3607 66.1521 84.7244 65.7866C84.2997 65.5424 83.1546 65.0829 83.1781 65.0884C83.1848 65.1206 83.7845 67.617 83.9319 68.7474C83.9844 69.1507 83.9814 69.16 84.0311 69.5517C84.0796 69.9323 84.5151 70.8895 84.8282 71.2861C85.2701 71.1648 85.9781 70.7763 86.3014 70.5742C86.7951 70.2657 86.8838 70.0711 87.067 69.8391C86.8776 69.0989 86.633 68.0758 86.2779 67.4429Z" fill="#C7D7EE"/>
<path d="M77.9293 61.7078C77.998 62.304 78.1323 62.905 78.4567 63.4046C78.7812 63.904 79.3234 64.2905 79.9348 64.3107C80.7088 64.3362 81.4255 63.7708 81.7971 63.088C82.1687 62.4053 82.2627 61.6218 82.3345 60.86C82.3956 60.2122 82.4392 59.5277 82.1485 58.9562C82.0427 58.748 81.8924 58.5601 81.6963 58.4308C81.5573 58.3392 81.3983 58.2788 81.2364 58.233C80.5445 58.037 79.7605 58.1057 79.1185 58.4647C77.8592 59.169 77.7872 60.4725 77.9293 61.7078Z" fill="#FAB6A9"/>
<path d="M82.8211 59.1194C82.7803 58.9103 82.7193 58.7032 82.6491 58.499C82.3598 57.8879 82.0317 57.3114 81.3786 56.9301C80.8475 56.6201 79.9724 56.6036 79.2128 56.8107C79.0475 56.8734 78.8804 56.9302 78.718 57.0025C78.6673 57.0251 78.6201 57.0538 78.5727 57.0821C78.4768 57.1879 78.398 57.3067 78.3487 57.4397C78.3333 57.4819 78.322 57.5241 78.3129 57.5667C77.6149 57.9928 77.1552 58.7964 77.1465 59.5911C77.2775 59.9727 77.3492 60.3856 77.4444 60.762C77.5249 61.0796 77.6026 61.3945 77.6665 61.7114C77.7347 61.7147 77.8017 61.6955 77.8586 61.6443C77.9643 61.5486 77.9789 61.3938 77.9862 61.255C78.0076 60.8453 78.0292 60.4357 78.0506 60.026C78.0545 59.9499 78.0596 59.8702 78.099 59.8033L78.124 59.7746C78.1564 59.6651 78.1988 59.5635 78.255 59.4736C78.4046 59.1883 78.6174 58.969 78.8814 58.8115C78.9102 58.7462 78.9501 58.6821 79.0094 58.6215C79.6122 58.0074 80.5788 58.2596 81.2538 58.6113C81.6155 58.7999 81.9296 59.077 82.0798 59.4632C82.234 59.8602 82.1498 60.2336 82.0467 60.6171C82.0517 60.8267 82.0568 61.0361 82.0617 61.2456C82.0667 61.4556 82.1068 61.7143 82.3096 61.7739C82.4148 61.8047 82.5297 61.7635 82.617 61.6901C82.6066 61.2828 82.5965 60.8756 82.6212 60.4696C82.6489 60.0132 82.7354 59.5666 82.8211 59.1194Z" fill="#8D424A"/>
<path d="M78.0786 61.9651C78.0655 61.6481 78.002 61.3122 78.0079 60.994C77.9551 60.9628 77.9316 60.9613 77.8701 60.9548C77.8171 60.9491 77.7611 60.953 77.7133 60.9811C77.6309 61.03 77.5935 61.1364 77.5686 61.2344C77.4877 61.5517 77.4621 61.8912 77.5456 62.2005C77.629 62.5097 77.8322 62.7845 78.111 62.8885C78.1486 62.9025 78.1697 62.9082 78.2085 62.8984C78.1296 62.5898 78.0925 62.2932 78.0786 61.9651Z" fill="#F4AAA0"/>
<path d="M82.6875 61.2355C82.6698 61.1374 82.6404 61.0311 82.5617 60.9822C82.516 60.954 82.4601 60.9501 82.4068 60.9558C82.2845 60.9686 82.1713 61.036 82.0836 61.1322C82.0705 61.1366 82.0586 61.143 82.0473 61.1506C82.0481 61.3366 82.0392 61.5232 82.0324 61.7129C82.0191 62.0816 82.0228 62.3 81.9559 62.6665C81.9492 62.703 81.8978 62.8971 81.8828 62.929C81.9183 62.9348 81.9873 62.9023 82.0225 62.8895C82.3088 62.7856 82.5326 62.5107 82.639 62.2015C82.7454 61.8922 82.7449 61.5528 82.6875 61.2355Z" fill="#F4AAA0"/>
<path d="M116.054 60.3906H95.4573C94.7749 60.3906 94.215 59.8258 94.2129 59.1354C94.2108 58.4449 94.7675 57.8802 95.45 57.8802H116.047C116.729 57.8802 117.289 58.4449 117.291 59.1354C117.293 59.8258 116.736 60.3906 116.054 60.3906Z" fill="#C7D7EE"/>
<path d="M117.005 62.8652H97.9104C97.7533 62.8652 97.625 62.7369 97.625 62.58V62.4242C97.625 62.2672 97.7533 62.1389 97.9104 62.1389H117.005C117.162 62.1389 117.29 62.2673 117.29 62.4242V62.58C117.29 62.7369 117.162 62.8652 117.005 62.8652Z" fill="#C7D7EE"/>
<path d="M117.006 64.9795H94.4981C94.3412 64.9795 94.2129 64.8512 94.2129 64.6943V64.5383C94.2129 64.3814 94.3412 64.2531 94.4981 64.2531H117.006C117.163 64.2531 117.291 64.3814 117.291 64.5383V64.6943C117.291 64.8512 117.163 64.9795 117.006 64.9795Z" fill="#C7D7EE"/>
<path d="M114.73 67.0938H94.4981C94.3412 67.0938 94.2129 66.9654 94.2129 66.8085V66.6526C94.2129 66.4957 94.3412 66.3674 94.4981 66.3674H114.73C114.887 66.3674 115.016 66.4957 115.016 66.6526V66.8085C115.016 66.9654 114.887 67.0938 114.73 67.0938Z" fill="#C7D7EE"/>
<path d="M116.301 76.7929H60.7012C60.9178 81.3692 63.1976 81.8594 64.8773 81.8594H120.477C118.797 81.8594 116.861 81.2758 116.301 76.7929Z" fill="#2E4185"/>
<path d="M32.7559 61.2705H47.0798V50.2761H32.7559V61.2705Z" fill="#92B0DF"/>
<path d="M33.9023 60.208H45.9337V51.3382H33.9023V60.208Z" fill="#6E8FCE"/>
<path d="M44.9279 59.2539L44.9283 59.2524C44.7244 58.8603 43.0566 56.2324 42.8526 55.9007C42.6486 55.569 42.4349 55.2171 42.2892 55.4886C42.1435 55.7601 42.1143 55.8506 41.8521 55.5488C40.8322 53.7695 40.4243 54.4631 39.4043 56.0617C38.3844 57.6601 37.9765 57.5393 37.7724 57.268C36.5612 54.9244 35.0189 58.5348 34.7324 59.2539H44.9279Z" fill="#92B0DF"/>
<path d="M38.2562 54.5214C38.2562 55.1292 37.7634 55.6221 37.1555 55.6221C36.5475 55.6221 36.0547 55.1292 36.0547 54.5214C36.0547 53.9134 36.5475 53.4204 37.1555 53.4204C37.7634 53.4204 38.2562 53.9134 38.2562 54.5214Z" fill="#92B0DF"/>
<path d="M24.4964 85.001L26.3488 83.0624C26.391 83.0181 26.291 82.9823 26.1252 82.9823H19.8961C19.7305 82.9823 19.5575 83.0181 19.5096 83.0624L19.0418 83.4946C18.5301 83.0324 18.2363 82.4925 18.2363 81.9159C18.2363 80.206 20.8197 78.8198 24.0064 78.8198C24.8283 78.8198 25.6097 78.9118 26.3173 79.078H24.184C23.9844 79.078 23.7793 79.118 23.7258 79.1673L22.1779 80.5972C22.1213 80.6498 22.2422 80.6924 22.4484 80.6924H29.3085C29.3777 80.7785 29.4399 80.8668 29.4945 80.957H22.0932C21.8537 80.957 21.6058 81.0067 21.5391 81.0684L19.9 82.5788C19.8292 82.6442 19.9722 82.6972 20.2196 82.6972H29.5913C29.5146 82.8555 29.4151 83.009 29.2949 83.1564H28.088C27.9223 83.1564 27.7549 83.192 27.714 83.2363L26.2653 84.7658C25.7143 84.8917 25.1195 84.9728 24.4964 85.001Z" fill="#CADFF0"/>
<path d="M24.0055 85.0127C21.8935 85.0127 20.0464 84.4037 19.041 83.4952L19.5088 83.0631C19.5567 83.0188 19.7297 82.9829 19.8953 82.9829H26.1244C26.2901 82.9829 26.3902 83.0188 26.348 83.0631L24.4956 85.0016C24.3342 85.0089 24.1706 85.0127 24.0055 85.0127Z" fill="#B3CBE6"/>
<path d="M26.2656 84.7676L27.7143 83.2381C27.7552 83.1938 27.9226 83.1582 28.0883 83.1582H29.2952C28.706 83.8804 27.6185 84.4585 26.2656 84.7676Z" fill="#B3CBE6"/>
<path d="M29.3086 80.6934H22.4485C22.2423 80.6934 22.1214 80.6508 22.178 80.5982L23.7258 79.1683C23.7794 79.119 23.9845 79.079 24.1841 79.079H26.3174C27.6564 79.3935 28.7302 79.9727 29.3086 80.6934Z" fill="#B3CBE6"/>
<path d="M29.5923 82.6982H20.2205C19.9731 82.6982 19.8301 82.6453 19.901 82.5799L21.54 81.0694C21.6067 81.0078 21.8547 80.958 22.0941 80.958H29.4955C29.6786 81.2599 29.7775 81.5823 29.7775 81.917C29.7775 82.1869 29.7132 82.4487 29.5923 82.6982Z" fill="#B3CBE6"/>
<path d="M18.5543 82.6989C18.5543 84.3164 21.079 85.683 24.0676 85.683C27.0561 85.683 29.5808 84.3164 29.5808 82.6989C29.5808 81.0814 27.0561 79.715 24.0676 79.715C21.079 79.715 18.5543 81.0814 18.5543 82.6989ZM17.5312 82.6989C17.5312 80.452 20.4023 78.6919 24.0676 78.6919C27.7328 78.6919 30.604 80.452 30.604 82.6989C30.604 84.9458 27.7328 86.7061 24.0676 86.7061C20.4023 86.7061 17.5312 84.9458 17.5312 82.6989Z" fill="#4B497C"/>
<path d="M18.5543 81.8023C18.5543 83.4199 21.079 84.7864 24.0676 84.7864C27.0561 84.7864 29.5808 83.4199 29.5808 81.8023C29.5808 80.1849 27.0561 78.8185 24.0676 78.8185C21.079 78.8185 18.5543 80.1849 18.5543 81.8023ZM17.5312 81.8023C17.5312 79.5554 20.4023 77.7954 24.0676 77.7954C27.7328 77.7954 30.604 79.5554 30.604 81.8023C30.604 84.0493 27.7328 85.8096 24.0676 85.8096C20.4023 85.8096 17.5312 84.0493 17.5312 81.8023Z" fill="#6793CC"/>
<path d="M31.8571 85.7757L29.5719 84.5153C29.5719 84.5153 29.3149 84.3184 28.8187 84.8361C28.4791 85.1904 28.9162 85.3857 28.9162 85.3857L31.3769 86.7061L31.8571 85.7757Z" fill="#6E6BA9"/>
<path d="M29.9515 87.0857C29.5869 86.6466 29.8134 85.8572 30.4572 85.3225C31.1011 84.7878 31.7085 84.7876 32.2832 85.1492L37.6614 88.3732L35.5448 90.5156L29.9515 87.0857Z" fill="#6793CC"/>
<path d="M35.9748 88.6741C35.3309 89.2088 35.1045 89.9982 35.469 90.4371C35.8337 90.8761 36.6511 90.7985 37.295 90.264C37.9388 89.7292 38.1654 88.9398 37.8007 88.5008C37.4362 88.0617 36.6186 88.1393 35.9748 88.6741Z" fill="#4B497C"/>
<path d="M24.6211 80.8475C24.6211 81.1263 25.1969 81.3525 25.907 81.3525C26.6172 81.3525 27.193 81.1263 27.193 80.8475C27.193 80.5686 26.6172 80.3425 25.907 80.3425C25.1969 80.3425 24.6211 80.5686 24.6211 80.8475Z" fill="white"/>
<path d="M26.8945 81.5903C26.8945 81.7513 27.227 81.8818 27.6369 81.8818C28.0469 81.8818 28.3794 81.7513 28.3794 81.5903C28.3794 81.4293 28.0469 81.2988 27.6369 81.2988C27.227 81.2988 26.8945 81.4293 26.8945 81.5903Z" fill="white"/>
</svg>
