<svg width="174" height="92" viewBox="0 0 174 92" fill="none" xmlns="http://www.w3.org/2000/svg">
<path d="M148.924 72.7188C148.799 72.7188 148.67 72.6908 148.55 72.6314C148.323 72.522 142.998 69.8985 140.388 65.806C137.688 61.5685 139.231 57.0044 139.298 56.8119C139.455 56.364 139.945 56.1265 140.394 56.2835C140.843 56.4404 141.079 56.9289 140.923 57.3776C140.901 57.4455 139.605 61.376 141.84 64.8815C144.189 68.5686 149.251 71.0605 149.301 71.0843C149.728 71.2929 149.906 71.8078 149.698 72.2344C149.55 72.5398 149.243 72.7188 148.924 72.7188Z" fill="#5D4837"/>
<path d="M150.717 74.7236C150.622 74.7236 150.527 74.7075 150.431 74.6736C149.985 74.5158 149.75 74.029 149.906 73.582C149.953 73.4463 151.113 70.2215 155.421 66.8796C159.133 64 160.326 56.6174 160.899 53.0695L160.976 52.5945C161.053 52.1263 161.5 51.8065 161.964 51.8854C162.433 51.9617 162.751 52.4036 162.673 52.8727L162.597 53.3443C161.988 57.1094 160.723 64.9432 156.475 68.2384C152.604 71.2427 151.538 74.1231 151.527 74.152C151.402 74.5031 151.07 74.7236 150.717 74.7236Z" fill="#5D4837"/>
<path d="M157.951 66.2041C157.874 66.2041 157.796 66.1939 157.719 66.1727C157.646 66.1524 155.911 65.6528 153.842 63.6222C151.684 61.5035 151.583 58.3262 151.578 58.1913C151.567 57.7163 151.943 57.3228 152.417 57.3109C152.896 57.2931 153.286 57.6739 153.298 58.1489C153.299 58.2083 153.405 60.7834 155.047 62.3941C156.773 64.087 158.173 64.5128 158.187 64.5171C158.64 64.6511 158.904 65.1261 158.774 65.5798C158.666 65.9573 158.324 66.2041 157.951 66.2041Z" fill="#5D4837"/>
<path d="M141.716 67.0752C141.296 67.0752 137.224 66.9912 134.709 63.8343C132.096 60.5535 133.354 56.1099 133.409 55.9224C133.543 55.4652 134.023 55.2049 134.476 55.338C134.932 55.4712 135.193 55.9478 135.06 56.4033C135.045 56.4618 134.01 60.1956 136.054 62.7622C138.129 65.3678 141.69 65.3449 141.724 65.3551C142.205 65.3551 142.588 65.7334 142.595 66.2041C142.602 66.6791 142.222 67.0693 141.747 67.0752H141.716Z" fill="#5D4837"/>
<path d="M144.296 69.6729C144.019 69.6729 143.747 69.5397 143.581 69.292C143.317 68.8976 143.422 68.3641 143.816 68.0986C143.828 68.091 145.076 67.2487 145.784 66.476C146.061 66.0842 146.195 63.9001 146.061 61.8136C146.03 61.3394 146.391 60.9306 146.864 60.9001C147.334 60.8746 147.747 61.2291 147.777 61.7024C147.893 63.4972 147.954 66.655 147.052 67.6389C146.204 68.5634 144.832 69.4879 144.773 69.5269C144.628 69.6253 144.46 69.6729 144.296 69.6729Z" fill="#5D4837"/>
<path d="M150.184 89.9902C149.234 89.9902 148.465 89.2201 148.465 88.2701V72.1105C148.465 71.1605 149.234 70.3904 150.184 70.3904C151.134 70.3904 151.904 71.1605 151.904 72.1105V88.2701C151.904 89.2201 151.134 89.9902 150.184 89.9902Z" fill="#5D4837"/>
<path d="M150.181 72.1465C150.046 72.1465 149.91 72.116 149.783 72.0481C149.363 71.8276 149.2 71.3076 149.421 70.8869C150.732 68.389 149.88 63.5018 149.871 63.4526C149.788 62.9852 150.099 62.5382 150.566 62.4543C151.03 62.372 151.481 62.6807 151.564 63.1489C151.604 63.3728 152.529 68.6647 150.944 71.6868C150.789 71.9794 150.492 72.1465 150.181 72.1465Z" fill="#5D4837"/>
<path d="M171.593 41.6345C170.799 40.8584 169.744 40.3495 168.547 40.0865C170.299 38.1018 170.605 35.7175 169.1 34.2442C167.639 32.815 164.91 32.6887 162.37 33.7319C162.949 30.8651 162.01 28.206 159.619 26.8531C159.738 26.7174 159.859 26.5843 159.965 26.4341C161.163 24.7225 160.926 22.7386 159.435 22.0032C157.946 21.2687 155.769 22.0575 154.568 23.7649C153.931 21.4875 152.11 19.8225 149.892 19.7606C147.043 19.68 144.629 22.2653 144.498 25.5333C144.483 25.9125 144.502 26.2831 144.547 26.6445C143.12 25.6521 141.418 25.2535 139.895 25.7106C137.444 26.4452 136.31 29.1356 137.131 31.9431C134.335 32.3231 132.544 35.2205 133.124 38.4394C133.239 39.0755 133.44 39.6751 133.707 40.2282C133.098 40.3003 132.522 40.4733 132.012 40.7685C130.438 41.6794 129.876 43.4564 130.341 45.3402C129.346 45.7583 128.5 46.3529 127.878 47.1265C125.999 49.4658 126.668 52.7652 129.219 55.5108C127.982 57.3344 127.901 59.3463 129.237 60.644C130.404 61.7763 132.37 62.0944 134.401 61.6491C135.436 63.4684 137.204 64.7314 139.342 64.9256C140.779 65.0554 142.175 64.6814 143.383 63.9409C144.602 66.2488 146.775 67.8688 149.432 68.1089C153.462 68.4744 157.222 65.5465 158.457 61.3556C161.374 62.8569 164.637 63.0757 166.916 61.6584C169.817 59.8543 170.161 55.9959 167.969 52.5039C168.21 52.3521 168.449 52.1952 168.683 52.0273C172.989 48.9289 174.292 44.2757 171.593 41.6345Z" fill="#AAC91F"/>
<path d="M167.971 52.5039C168.212 52.3521 168.451 52.1952 168.685 52.0272C172.764 49.0925 174.148 44.7625 171.989 42.0687C174.148 44.7625 172.764 49.0925 168.686 52.0272C168.451 52.1952 168.212 52.3521 167.971 52.5039ZM171.595 41.6344C170.801 40.8583 169.746 40.3494 168.549 40.0865C169.747 40.3494 170.801 40.8583 171.595 41.6344ZM150.053 19.7673H150.052H150.053ZM150.043 19.7665C149.993 19.764 149.943 19.7614 149.894 19.7606C149.943 19.7614 149.993 19.764 150.043 19.7665ZM149.582 19.7623C149.584 19.7623 149.585 19.7622 149.586 19.7614C149.585 19.7622 149.584 19.7623 149.582 19.7623ZM149.609 19.7606C149.61 19.7606 149.612 19.7606 149.613 19.7606C149.612 19.7606 149.611 19.7606 149.609 19.7606ZM149.894 19.7606C149.872 19.7597 149.851 19.7589 149.829 19.7589C149.851 19.7589 149.872 19.7597 149.894 19.7606ZM149.658 19.7597C149.659 19.7597 149.661 19.7597 149.662 19.7597C149.661 19.7597 149.659 19.7597 149.658 19.7597ZM149.679 19.7589C149.683 19.7589 149.687 19.7589 149.691 19.7589C149.687 19.7589 149.683 19.7589 149.679 19.7589ZM149.708 19.7589C149.712 19.7589 149.717 19.7589 149.722 19.7589C149.717 19.7589 149.712 19.7589 149.708 19.7589ZM149.736 19.758C149.743 19.758 149.75 19.758 149.757 19.758C149.75 19.758 149.743 19.758 149.736 19.758Z" fill="#C9C8C8"/>
<path d="M150.112 68.1377C149.886 68.1377 149.66 68.1275 149.433 68.1072C149.422 68.1063 149.411 68.1055 149.401 68.1038C147.364 67.9112 145.613 66.9061 144.361 65.4023V58.9476C144.524 58.9959 144.689 59.0384 144.856 59.0748V56.5532H146.028V52.7737H144.856V33.7183H146.028V27.3137H144.856V23.6258C145.607 21.423 147.449 19.8454 149.581 19.7606C149.583 19.7606 149.584 19.7606 149.585 19.7597C149.593 19.7597 149.601 19.7597 149.608 19.7589C149.61 19.7589 149.611 19.7589 149.612 19.7589C149.627 19.7589 149.642 19.758 149.657 19.758C149.658 19.758 149.66 19.758 149.661 19.758C149.667 19.758 149.673 19.7572 149.678 19.7572C149.682 19.7572 149.686 19.7572 149.69 19.7572C149.696 19.7572 149.701 19.7572 149.707 19.7572C149.711 19.7572 149.716 19.7572 149.721 19.7572C149.726 19.7572 149.73 19.7572 149.735 19.7564C149.742 19.7564 149.749 19.7564 149.756 19.7564C149.758 19.7564 149.761 19.7564 149.763 19.7564C149.786 19.7564 149.807 19.7572 149.828 19.7572C149.85 19.7572 149.871 19.758 149.893 19.7589C149.942 19.7597 149.992 19.7623 150.042 19.7648C150.044 19.7657 150.048 19.7657 150.051 19.7657H150.052C150.278 19.7801 150.501 19.8123 150.718 19.859V57.9798C151.721 57.3462 152.613 56.5031 153.333 55.4955C154.218 54.2571 155.617 53.4751 157.097 53.4751C157.359 53.4751 157.624 53.4997 157.887 53.5506C158.487 53.666 159.081 53.7245 159.661 53.7245C160.982 53.7245 162.224 53.4183 163.261 52.7728C165.676 51.2707 165.613 48.5751 164.261 45.7006C163.826 44.7761 164.181 43.7252 165.029 43.1417C168.689 40.5081 170.168 36.7565 168.877 34.0669L169.1 34.2425C169.753 34.882 170.066 35.6921 170.067 36.5665C170.069 37.7082 169.541 38.961 168.548 40.0848C169.745 40.3477 170.8 40.8567 171.594 41.6327C171.736 41.7727 171.867 41.9169 171.988 42.067C174.147 44.7608 172.763 49.0908 168.684 52.0256C168.45 52.1935 168.211 52.3504 167.97 52.5022C168.911 54.0027 169.385 55.571 169.389 57.0146C169.394 58.9306 168.571 60.6279 166.917 61.6567C165.879 62.3022 164.636 62.6084 163.315 62.6084C161.773 62.6084 160.125 62.1919 158.57 61.4107C158.533 61.3921 158.496 61.3734 158.458 61.3539C158.17 62.3336 157.743 63.2437 157.208 64.0588C156.886 64.549 156.525 65.0045 156.13 65.421C154.531 67.1071 152.386 68.1377 150.112 68.1377Z" fill="#869E18"/>
<path d="M20.5163 74.2051C20.4001 74.2051 20.2814 74.1788 20.1686 74.1245C19.9599 74.0227 15.0218 71.5893 12.601 67.7953C10.0955 63.8648 11.529 59.6315 11.5909 59.4543C11.7351 59.0378 12.1922 58.8165 12.6061 58.964C13.0217 59.1082 13.2406 59.562 13.0972 59.9776C13.0854 60.0141 11.8665 63.674 13.9463 66.937C16.127 70.356 20.82 72.6673 20.8666 72.6894C21.2627 72.8827 21.4273 73.3603 21.2347 73.7555C21.0965 74.0397 20.8132 74.2051 20.5163 74.2051Z" fill="#5D4837"/>
<path d="M22.1783 76.0674C22.091 76.0674 22.0019 76.053 21.9154 76.0224C21.4998 75.8765 21.2801 75.4228 21.426 75.0072C21.4684 74.8808 22.5456 71.8901 26.5406 68.7908C29.9825 66.1207 31.0885 59.2759 31.6203 55.9866L31.6916 55.5438C31.7637 55.1104 32.1691 54.8119 32.6076 54.8865C33.0419 54.9569 33.3371 55.3674 33.2658 55.8017L33.1954 56.241C32.6305 59.7322 31.4558 66.996 27.5177 70.0504C23.8925 72.8638 22.9409 75.5059 22.9307 75.5322C22.8162 75.8613 22.5083 76.0674 22.1783 76.0674Z" fill="#5D4837"/>
<path d="M28.8853 68.1631L28.6715 68.1342C28.6037 68.1156 26.9947 67.6516 25.0752 65.7687C23.0735 63.8034 22.9794 60.8568 22.9769 60.7321C22.965 60.2919 23.3136 59.9264 23.7546 59.9162C24.205 59.9153 24.5587 60.2588 24.5706 60.6923C24.5723 60.7398 24.6673 63.1333 26.1932 64.6295C27.792 66.1995 29.0914 66.5956 29.1041 66.599C29.5248 66.7229 29.7699 67.1631 29.6487 67.5846C29.5486 67.9341 29.2313 68.1631 28.8853 68.1631Z" fill="#5D4837"/>
<path d="M13.8329 68.9727C13.4419 68.9727 9.66492 68.8946 7.33325 65.9667C4.90999 62.9234 6.07705 58.8029 6.12794 58.629C6.25263 58.2049 6.69794 57.9649 7.11694 58.0862C7.53934 58.2109 7.78193 58.6528 7.65894 59.0743C7.64368 59.1303 6.68524 62.5934 8.58093 64.9734C10.4758 67.3535 13.7447 67.3781 13.8397 67.3781C14.285 67.3781 14.6412 67.7292 14.6463 68.1669C14.6505 68.6062 14.2994 68.9667 13.86 68.9727H13.8329Z" fill="#5D4837"/>
<path d="M16.2239 71.3809C15.9678 71.3809 15.715 71.2562 15.5615 71.0272C15.3156 70.6625 15.4131 70.1663 15.7795 69.9211C15.7905 69.9135 16.9483 69.1315 17.6039 68.4156C17.8618 68.0517 17.9865 66.0254 17.8618 64.0916C17.8329 63.6514 18.1671 63.2722 18.6073 63.2442C19.0391 63.2044 19.4242 63.5496 19.453 63.9889C19.5607 65.6531 19.6158 68.581 18.7795 69.4936C17.9933 70.352 16.7218 71.2087 16.6675 71.2451C16.5318 71.3359 16.3774 71.3809 16.2239 71.3809Z" fill="#5D4837"/>
<path d="M21.6816 90.2207C20.8004 90.2207 20.0879 89.5065 20.0879 88.6261V73.6395C20.0879 72.7591 20.8004 72.0449 21.6816 72.0449C22.5629 72.0449 23.2771 72.7591 23.2771 73.6395V88.6261C23.2771 89.5065 22.5629 90.2207 21.6816 90.2207Z" fill="#5D4837"/>
<path d="M21.6816 73.6738C21.5578 73.6738 21.4314 73.6441 21.3118 73.5822C20.9225 73.377 20.7715 72.8943 20.9759 72.5042C22.1931 70.1878 21.4026 65.6568 21.3949 65.611C21.3169 65.1767 21.6053 64.7628 22.0387 64.6856C22.4713 64.6127 22.8861 64.8959 22.9641 65.3285C23.0014 65.5372 23.8598 70.4448 22.389 73.2472C22.2465 73.5178 21.9692 73.6738 21.6816 73.6738Z" fill="#5D4837"/>
<path d="M41.5373 45.378C40.8011 44.6579 39.8231 44.1863 38.7129 43.9428C40.3371 42.1023 40.6221 39.8911 39.2252 38.5246C37.8698 37.1989 35.3396 37.0819 32.9842 38.0488C33.5211 35.3906 32.65 32.9249 30.4329 31.6696C30.5431 31.5441 30.6551 31.4202 30.7526 31.2811C31.8646 29.6942 31.6449 27.8545 30.2632 27.1725C28.8815 26.4914 26.8629 27.2226 25.7492 28.8061C25.1589 26.6942 23.4701 25.1505 21.4124 25.0919C18.7712 25.0181 16.5311 27.4151 16.4098 30.4465C16.3963 30.7977 16.4132 31.142 16.4556 31.4762C15.1316 30.5559 13.5531 30.1861 12.1401 30.6102C9.86861 31.2922 8.81686 33.7867 9.57769 36.3898C6.98478 36.7426 5.32321 39.4297 5.86265 42.4153C5.96867 43.0056 6.15611 43.5603 6.40378 44.0735C5.83889 44.1413 5.3037 44.3016 4.83042 44.5747C3.37069 45.4187 2.8499 47.0676 3.28078 48.8148C2.3588 49.2024 1.5742 49.7529 0.99743 50.4713C-0.745591 52.6401 -0.124706 55.6995 2.24088 58.2458C1.09329 59.9371 1.01782 61.8039 2.25786 63.0067C3.34015 64.0567 5.1629 64.3519 7.04671 63.9388C8.00601 65.6259 9.64556 66.7972 11.6286 66.977C12.9611 67.0975 14.2554 66.7514 15.3767 66.0644C16.5074 68.2035 18.5227 69.7065 20.985 69.9295C24.7229 70.268 28.2106 67.5538 29.3557 63.6666C32.0606 65.0593 35.0869 65.2611 37.1997 63.9473C39.8902 62.2738 40.2082 58.6962 38.1768 55.4578C38.3999 55.317 38.6221 55.172 38.8393 55.0159C42.8325 52.1423 44.0403 47.8275 41.5373 45.378Z" fill="#AAC91F"/>
<path d="M2.24258 58.2451C2.2341 58.2358 2.22563 58.2265 2.21715 58.218C2.22563 58.2273 2.2341 58.2358 2.24258 58.2451ZM2.21376 58.2137C2.19594 58.1951 2.17899 58.1756 2.16203 58.1569C2.17899 58.1756 2.19679 58.1951 2.21376 58.2137ZM2.15946 58.1544C2.15098 58.145 2.14251 58.1357 2.13403 58.1264C2.14251 58.1357 2.15098 58.145 2.15946 58.1544ZM2.13063 58.123C2.12385 58.1153 2.11704 58.1077 2.11026 58.1001C2.11704 58.1077 2.12385 58.1153 2.13063 58.123ZM2.10434 58.0933C2.0967 58.0848 2.08992 58.078 2.08313 58.0696C2.08992 58.078 2.0967 58.0848 2.10434 58.0933ZM2.07125 58.056C2.0687 58.0534 2.06615 58.0509 2.06445 58.0484C2.067 58.0509 2.0687 58.0534 2.07125 58.056Z" fill="#C9C8C8"/>
<path d="M19.4371 69.6055C19.2429 69.5402 19.0529 69.4672 18.8671 69.3849C18.3676 69.1653 17.8985 68.887 17.4676 68.558C16.611 67.9048 15.8993 67.0524 15.3777 66.0643C14.4031 66.6606 13.2996 67.0007 12.1529 67.0007C11.979 67.0007 11.8043 66.9922 11.6296 66.9769C11.6092 66.9752 11.5897 66.9727 11.5694 66.971C9.61344 66.7734 7.99764 65.6088 7.04767 63.9387C6.78982 63.9947 6.5328 64.0388 6.27834 64.0685C5.99675 64.1016 5.71855 64.1186 5.44544 64.1186C4.17146 64.1186 3.02813 63.753 2.25882 63.0066C1.64813 62.4145 1.35719 61.6622 1.35464 60.848C1.35295 60.0091 1.65914 59.1049 2.24184 58.2457C2.23336 58.2364 2.22489 58.2279 2.21641 58.2186C2.21556 58.2169 2.21386 58.216 2.21302 58.2143C2.19605 58.1957 2.17825 58.1762 2.16129 58.1575C2.16044 58.1567 2.15957 58.1558 2.15872 58.155C2.15024 58.1456 2.14177 58.1363 2.13329 58.127C2.13244 58.1261 2.13159 58.1244 2.1299 58.1236C2.12311 58.1159 2.1163 58.1083 2.10952 58.1007C2.10782 58.0981 2.10529 58.0956 2.1036 58.0939C2.09596 58.0854 2.08918 58.0786 2.08239 58.0701C2.079 58.0659 2.07475 58.0617 2.07051 58.0566C2.06796 58.054 2.06626 58.0515 2.06371 58.0489C1.38941 57.2864 0.872042 56.4832 0.523438 55.6732C1.00605 55.8089 1.53105 55.8767 2.07982 55.8767C2.32325 55.8767 2.57094 55.8632 2.82116 55.8369C2.8729 55.8309 2.92377 55.8284 2.97551 55.8284C3.41996 55.8284 3.84235 56.0328 4.11377 56.3941C5.09597 57.7037 6.54216 58.5841 8.24023 58.7377C8.4158 58.7538 8.5905 58.7614 8.76438 58.7614C9.41324 58.7614 10.0486 58.6529 10.6542 58.4501C10.8645 58.3797 11.0791 58.3458 11.2911 58.3458C11.8687 58.3458 12.4252 58.5986 12.8009 59.0676C13.9731 60.5324 15.6432 61.5138 17.5966 61.691C17.8078 61.7097 18.0173 61.719 18.2259 61.719C18.6356 61.719 19.0393 61.6834 19.4371 61.6139V69.6055Z" fill="#869E18"/>
<path d="M11.7092 26.4194C13.2937 23.7723 16.1206 22.55 18.0231 23.6891C19.9256 24.8283 20.1826 27.8978 18.5982 30.545C17.0138 33.1914 14.1868 34.4144 12.2835 33.2745C10.381 32.1362 10.124 29.0666 11.7092 26.4194Z" fill="#AAC91F"/>
<path d="M15.8747 23.8144C15.4514 20.7584 16.8891 18.0341 19.0851 17.7304C21.2819 17.4259 23.4057 19.6575 23.829 22.7135C24.2514 25.7695 22.8137 28.493 20.6177 28.7975C18.4209 29.1012 16.2971 26.8705 15.8747 23.8144Z" fill="#AAC91F"/>
<path d="M21.8191 19.8648C22.5027 16.8571 24.8098 14.8164 26.9718 15.3075C29.1347 15.7986 30.3332 18.6366 29.6495 21.6452C28.965 24.6528 26.6588 26.6936 24.496 26.2025C22.3339 25.7105 21.1355 22.8733 21.8191 19.8648Z" fill="#AAC91F"/>
<path d="M24.642 30.5517C24.2196 27.4949 25.6564 24.7713 27.8532 24.4677C30.05 24.1632 32.1739 26.3948 32.5963 29.4508C33.0195 32.5068 31.581 35.2303 29.3859 35.5348C27.1891 35.8385 25.0653 33.6078 24.642 30.5517Z" fill="#AAC91F"/>
<path d="M29.0622 38.9108C28.6389 35.8548 30.0774 33.1305 32.2742 32.8268C34.4702 32.5223 36.594 34.753 37.0173 37.8099C37.4405 40.8659 36.002 43.5894 33.8052 43.8931C31.6084 44.1976 29.4862 41.9669 29.0622 38.9108Z" fill="#AAC91F"/>
<path d="M20.5915 28.9706C20.1682 25.9145 21.6059 23.191 23.8019 22.8874C25.9987 22.5829 28.1225 24.8144 28.5458 27.8696C28.9682 30.9256 27.5314 33.6491 25.3346 33.9536C23.1378 34.2581 21.0139 32.0266 20.5915 28.9706Z" fill="#AAC91F"/>
<path d="M1.09961 45.8738C1.09961 42.7881 2.89775 40.2877 5.11491 40.2877C7.33206 40.2877 9.1302 42.7881 9.1302 45.8738C9.1302 48.9587 7.33206 51.46 5.11491 51.46C2.89775 51.46 1.09961 48.9587 1.09961 45.8738Z" fill="#AAC91F"/>
<path d="M3.41417 40.2637C2.03332 36.4817 2.60245 32.7988 4.68475 32.0389C6.76704 31.278 9.57627 33.7267 10.958 37.5088C12.3388 41.2909 11.7705 44.9737 9.68739 45.7345C7.60424 46.4953 4.79586 44.0458 3.41417 40.2637Z" fill="#AAC91F"/>
<path d="M7.36814 38.2528C5.98645 34.4708 6.55475 30.7879 8.63789 30.0271C10.721 29.2663 13.5285 31.7159 14.9102 35.4979C16.2919 39.28 15.7228 42.9619 13.6405 43.7228C11.5573 44.4836 8.74899 42.0349 7.36814 38.2528Z" fill="#AAC91F"/>
<path d="M19.4375 87.8477H144.362V33.6818H19.4375V87.8477Z" fill="#FFF7DF"/>
<path d="M73.6484 50.209H67.9961V41.1249C67.9961 39.5642 69.2616 38.2996 70.8223 38.2996C72.3829 38.2996 73.6484 39.5642 73.6484 41.1249V50.209Z" fill="#366ED7"/>
<path d="M67.9961 46.4453V42.6828H70.5695V44.022L67.9961 46.4453ZM71.075 43.5471V42.6828H71.9928L71.075 43.5471ZM72.5288 42.1781H71.075V38.3112C72.3821 38.4266 73.4338 39.4317 73.6196 40.7167C73.6196 40.7167 73.6196 40.7167 73.6196 40.7175C73.6255 40.7608 73.6306 40.8049 73.6348 40.8498C73.6348 40.8498 73.6349 40.8507 73.6357 40.8507C73.6357 40.8558 73.6365 40.86 73.6365 40.8651C73.6365 40.8659 73.6365 40.8668 73.6365 40.8685C73.6374 40.8719 73.6374 40.8761 73.6382 40.8804C73.6382 40.8821 73.6382 40.8838 73.6382 40.8855C73.6391 40.8897 73.6391 40.8931 73.6391 40.8973C73.6391 40.899 73.6399 40.9007 73.6399 40.9033C73.6399 40.9067 73.6408 40.9101 73.6408 40.9143C73.6408 40.916 73.6408 40.9185 73.6408 40.9211C73.6416 40.9245 73.6416 40.9279 73.6416 40.9313C73.6416 40.9338 73.6425 40.9355 73.6425 40.938C73.6425 40.9414 73.6425 40.9448 73.6433 40.9482C73.6433 40.9508 73.6433 40.9533 73.6433 40.9559C73.6433 40.9593 73.6441 40.9626 73.6441 40.966C73.6441 40.9686 73.6441 40.9711 73.6441 40.9737C73.6441 40.9771 73.645 40.9796 73.645 40.983C73.645 40.9856 73.645 40.9889 73.645 40.9923C73.645 40.9949 73.6458 40.9974 73.6458 41C73.6458 41.0034 73.6458 41.0059 73.6458 41.0093C73.6458 41.0118 73.6459 41.0152 73.6467 41.0178C73.6467 41.0212 73.6467 41.0237 73.6467 41.0271C73.6467 41.0296 73.6467 41.033 73.6467 41.0356C73.6467 41.039 73.6475 41.0415 73.6475 41.0449C73.6475 41.0475 73.6475 41.05 73.6475 41.0534C73.6475 41.0568 73.6475 41.0593 73.6475 41.0627C73.6475 41.0661 73.6475 41.0678 73.6475 41.0712C73.6475 41.0746 73.6476 41.0771 73.6484 41.0805C73.6484 41.0831 73.6484 41.0856 73.6484 41.089C73.6484 41.0924 73.6484 41.0958 73.6484 41.1C73.6484 41.1017 73.6484 41.1043 73.6484 41.106C73.6484 41.1119 73.6484 41.1179 73.6484 41.1238L72.5288 42.1781ZM70.5695 42.1781H67.9961V41.1238C67.9961 41.1179 67.9961 41.1119 67.9961 41.106C67.9961 41.1043 67.9961 41.1017 67.9961 41.1C67.9961 41.0958 67.9961 41.0924 67.9961 41.089C67.9961 41.0856 67.9961 41.0831 67.9961 41.0805C67.9961 41.0771 67.9961 41.0746 67.997 41.0712C67.997 41.0678 67.997 41.0653 67.997 41.0627C67.997 41.0593 67.997 41.0568 67.997 41.0534C67.997 41.05 67.997 41.0475 67.997 41.0441C67.997 41.0415 67.9969 41.039 67.9978 41.0356C67.9978 41.0322 67.9978 41.0297 67.9978 41.0263C67.9978 41.0237 67.9978 41.0212 67.9978 41.0186C67.9978 41.0152 67.9987 41.0118 67.9987 41.0084C67.9987 41.0059 67.9987 41.0034 67.9987 41.0008C67.9987 40.9974 67.9986 40.994 67.9995 40.9906C67.9995 40.9881 67.9995 40.9856 67.9995 40.983C67.9995 40.9796 67.9995 40.9771 68.0004 40.9737C68.0004 40.9711 68.0004 40.9686 68.0004 40.966C68.0004 40.9626 68.0012 40.9593 68.0012 40.9559C68.0012 40.9533 68.0012 40.9508 68.0012 40.9491C68.002 40.9448 68.0021 40.9414 68.0021 40.938C68.0021 40.9364 68.002 40.9338 68.0029 40.9313C68.0029 40.9279 68.0029 40.9236 68.0037 40.9202C68.0037 40.9185 68.0037 40.9168 68.0037 40.9143C68.0037 40.9109 68.0046 40.9067 68.0046 40.9033C68.0046 40.9016 68.0046 40.8999 68.0046 40.8982C68.0054 40.8939 68.0054 40.8897 68.0063 40.8855C68.0063 40.8846 68.0063 40.8838 68.0063 40.8829C68.0063 40.8778 68.0071 40.8727 68.008 40.8676C68.008 40.8676 68.008 40.8676 68.008 40.8668C68.1301 39.5105 69.2124 38.4317 70.5695 38.3112V42.1781Z" fill="url(#paint0_linear_1039_4126)"/>
<path d="M71.0735 50.2075V42.6824H73.6469V50.2075H71.0735ZM67.9946 42.6824H70.568V50.2075H67.9946V42.6824ZM70.568 38.3109V42.1778H67.9946V41.1235C67.9946 39.6485 69.1261 38.4381 70.568 38.3109ZM73.6469 41.1235V42.1778H71.0735V38.3109C72.5155 38.4381 73.6469 39.6485 73.6469 41.1235ZM70.8208 37.8367C69.0082 37.8367 67.5332 39.3117 67.5332 41.1235V50.6689H74.1083V41.1235C74.1083 39.3117 72.6334 37.8367 70.8208 37.8367Z" fill="white"/>
<path d="M73.6484 74.1855H67.9961V65.1015C67.9961 63.5417 69.2616 62.2762 70.8223 62.2762C72.3829 62.2762 73.6484 63.5417 73.6484 65.1015V74.1855Z" fill="#366ED7"/>
<path d="M67.9961 70.4238V66.6613H70.5695V68.0006L67.9961 70.4238ZM71.075 67.5256V66.6613H71.9928L71.075 67.5256ZM72.5288 66.1566H71.075V62.2897C72.3821 62.4051 73.4338 63.4102 73.6196 64.6952C73.6255 64.7393 73.6306 64.7842 73.6348 64.8284C73.6348 64.8284 73.6349 64.8292 73.6357 64.8292C73.6357 64.8343 73.6365 64.8385 73.6365 64.8436C73.6365 64.8445 73.6365 64.8453 73.6365 64.847C73.6374 64.8504 73.6374 64.8547 73.6382 64.8589C73.6382 64.8606 73.6382 64.8623 73.6382 64.864C73.6391 64.8682 73.6391 64.8716 73.6391 64.8759C73.6391 64.8776 73.6399 64.8793 73.6399 64.8818C73.6399 64.8852 73.6408 64.8886 73.6408 64.8928C73.6408 64.8945 73.6408 64.8971 73.6408 64.8996C73.6416 64.903 73.6416 64.9064 73.6416 64.9098C73.6416 64.9123 73.6425 64.914 73.6425 64.9166C73.6425 64.92 73.6425 64.9233 73.6433 64.9267C73.6433 64.9293 73.6433 64.9318 73.6433 64.9344C73.6433 64.9378 73.6441 64.9412 73.6441 64.9446C73.6441 64.9471 73.6441 64.9496 73.6441 64.9522C73.6441 64.9556 73.645 64.9581 73.645 64.9615C73.645 64.9641 73.645 64.9674 73.645 64.97C73.645 64.9734 73.6458 64.9759 73.6458 64.9785C73.6458 64.9819 73.6458 64.9844 73.6458 64.9878C73.6458 64.9904 73.6459 64.9937 73.6467 64.9963C73.6467 64.9997 73.6467 65.0022 73.6467 65.0056C73.6467 65.0082 73.6467 65.0116 73.6467 65.0141C73.6467 65.0175 73.6475 65.02 73.6475 65.0234C73.6475 65.026 73.6475 65.0285 73.6475 65.0319C73.6475 65.0353 73.6475 65.0379 73.6475 65.0412C73.6475 65.0446 73.6475 65.0463 73.6475 65.0497C73.6475 65.0531 73.6476 65.0557 73.6484 65.0591C73.6484 65.0616 73.6484 65.0642 73.6484 65.0675C73.6484 65.0709 73.6484 65.0743 73.6484 65.0786C73.6484 65.0803 73.6484 65.0828 73.6484 65.0845C73.6484 65.0904 73.6484 65.0964 73.6484 65.1023L72.5288 66.1566ZM70.5695 66.1566H67.9961V65.1023C67.9961 65.0964 67.9961 65.0904 67.9961 65.0845C67.9961 65.0828 67.9961 65.0803 67.9961 65.0786C67.9961 65.0743 67.9961 65.0709 67.9961 65.0675C67.9961 65.0642 67.9961 65.0616 67.9961 65.0591C67.9961 65.0557 67.9961 65.0531 67.997 65.0497C67.997 65.0463 67.997 65.0438 67.997 65.0412C67.997 65.0379 67.997 65.0353 67.997 65.0319C67.997 65.0285 67.997 65.026 67.997 65.0226C67.997 65.02 67.9969 65.0175 67.9978 65.0141C67.9978 65.0107 67.9978 65.0082 67.9978 65.0048C67.9978 65.0022 67.9978 64.9997 67.9978 64.9971C67.9978 64.9937 67.9987 64.9904 67.9987 64.987C67.9987 64.9844 67.9987 64.9819 67.9987 64.9793C67.9987 64.9759 67.9986 64.9725 67.9995 64.9691C67.9995 64.9666 67.9995 64.9641 67.9995 64.9615C67.9995 64.9581 67.9995 64.9556 68.0004 64.9522C68.0004 64.9496 68.0004 64.9471 68.0004 64.9446C68.0004 64.9412 68.0012 64.9378 68.0012 64.9344C68.0012 64.9318 68.0012 64.9293 68.0012 64.9276C68.002 64.9233 68.0021 64.92 68.0021 64.9166C68.0021 64.9149 68.002 64.9123 68.0029 64.9098C68.0029 64.9064 68.0029 64.9021 68.0037 64.8988C68.0037 64.8971 68.0037 64.8954 68.0037 64.8928C68.0037 64.8894 68.0046 64.8852 68.0046 64.8818C68.0046 64.8801 68.0046 64.8784 68.0046 64.8767C68.0054 64.8725 68.0054 64.8682 68.0063 64.864C68.0063 64.8631 68.0063 64.8623 68.0063 64.8614C68.0071 64.8564 68.0071 64.8512 68.008 64.8462C68.008 64.8462 68.008 64.8462 68.008 64.8453C68.1301 63.4891 69.2124 62.4093 70.5695 62.2897V66.1566Z" fill="url(#paint1_linear_1039_4126)"/>
<path d="M71.0735 74.1861V66.661H73.6469V74.1861H71.0735ZM67.9946 66.661H70.568V74.1861H67.9946V66.661ZM70.568 62.2894V66.1563H67.9946V65.102C67.9946 63.627 69.1261 62.4166 70.568 62.2894ZM73.6469 65.102V66.1563H71.0735V62.2894C72.5155 62.4166 73.6469 63.627 73.6469 65.102ZM70.8208 61.8153C69.0082 61.8153 67.5332 63.2903 67.5332 65.102V74.6475H74.1083V65.102C74.1083 63.2903 72.6334 61.8153 70.8208 61.8153Z" fill="white"/>
<path d="M96.9121 50.209H91.2598V41.1249C91.2598 39.5642 92.5252 38.2996 94.0859 38.2996C95.6466 38.2996 96.9121 39.5642 96.9121 41.1249V50.209Z" fill="#366ED7"/>
<path d="M91.2598 46.4453V41.1238C91.2598 39.5631 92.5252 38.2985 94.0859 38.2985C95.6466 38.2985 96.9121 39.5631 96.9121 41.1238L91.2598 46.4453Z" fill="url(#paint2_linear_1039_4126)"/>
<path d="M94.3344 50.2075V42.6824H96.9086V50.2075H94.3344ZM91.2563 42.6824H93.8297V50.2075H91.2563V42.6824ZM93.8297 38.3109V42.1778H91.2563V41.1235C91.2563 39.6485 92.3878 38.4381 93.8297 38.3109ZM96.9086 41.1235V42.1778H94.3344V38.3109C95.7772 38.4381 96.9086 39.6485 96.9086 41.1235ZM94.0825 37.8367C92.269 37.8367 90.7949 39.3117 90.7949 41.1235V50.6689H97.3701V41.1235C97.3701 39.3117 95.895 37.8367 94.0825 37.8367Z" fill="white"/>
<path d="M85.2784 50.209H79.627V41.1249C79.627 39.5642 80.8916 38.2996 82.4523 38.2996C84.0138 38.2996 85.2784 39.5642 85.2784 41.1249V50.209Z" fill="#366ED7"/>
<path d="M79.627 46.4453V41.1238C79.627 39.5631 80.8916 38.2985 82.4523 38.2985C84.0138 38.2985 85.2784 39.5631 85.2784 41.1238L79.627 46.4453Z" fill="url(#paint3_linear_1039_4126)"/>
<path d="M82.7055 50.2075V42.6824H85.2789V50.2075H82.7055ZM79.6274 42.6824H82.2008V50.2075H79.6274V42.6824ZM82.2008 38.3109V42.1778H79.6274V41.1235C79.6274 39.6485 80.7589 38.4381 82.2008 38.3109ZM85.2789 41.1235V42.1778H82.7055V38.3109C84.1474 38.4381 85.2789 39.6485 85.2789 41.1235ZM82.4527 37.8367C80.6402 37.8367 79.166 39.3117 79.166 41.1235V50.6689H85.7403V41.1235C85.7403 39.3117 84.2662 37.8367 82.4527 37.8367Z" fill="white"/>
<path d="M96.9121 74.1855H91.2598V65.1015C91.2598 63.5417 92.5252 62.2762 94.0859 62.2762C95.6466 62.2762 96.9121 63.5417 96.9121 65.1015V74.1855Z" fill="#366ED7"/>
<path d="M91.2598 70.4238V65.1023C91.2598 63.5425 92.5252 62.277 94.0859 62.277C95.6466 62.277 96.9121 63.5425 96.9121 65.1023L91.2598 70.4238Z" fill="url(#paint4_linear_1039_4126)"/>
<path d="M94.3344 74.1861V66.661H96.9086V74.1861H94.3344ZM91.2563 66.661H93.8297V74.1861H91.2563V66.661ZM93.8297 62.2894V66.1563H91.2563V65.102C91.2563 63.627 92.3878 62.4166 93.8297 62.2894ZM96.9086 65.102V66.1563H94.3344V62.2894C95.7772 62.4166 96.9086 63.627 96.9086 65.102ZM94.0825 61.8153C92.269 61.8153 90.7949 63.2903 90.7949 65.102V74.6475H97.3701V65.102C97.3701 63.2903 95.895 61.8153 94.0825 61.8153Z" fill="white"/>
<path d="M116.648 50.209H110.996V41.1249C110.996 39.5642 112.261 38.2996 113.821 38.2996C115.383 38.2996 116.648 39.5642 116.648 41.1249V50.209Z" fill="#366ED7"/>
<path d="M110.996 46.4453V41.1238C110.996 39.5631 112.261 38.2985 113.821 38.2985C115.383 38.2985 116.648 39.5631 116.648 41.1238L110.996 46.4453Z" fill="url(#paint5_linear_1039_4126)"/>
<path d="M114.077 50.2075V42.6824H116.65V50.2075H114.077ZM110.999 42.6824H113.572V50.2075H110.999V42.6824ZM113.572 38.3109V42.1778H110.999V41.1235C110.999 39.6485 112.13 38.4381 113.572 38.3109ZM116.65 41.1235V42.1778H114.077V38.3109C115.519 38.4381 116.65 39.6485 116.65 41.1235ZM113.824 37.8367C112.012 37.8367 110.537 39.3117 110.537 41.1235V50.6689H117.111V41.1235C117.111 39.3117 115.637 37.8367 113.824 37.8367Z" fill="white"/>
<path d="M116.648 74.1855H110.996V65.1015C110.996 63.5417 112.261 62.2762 113.821 62.2762C115.383 62.2762 116.648 63.5417 116.648 65.1015V74.1855Z" fill="#366ED7"/>
<path d="M110.996 70.4238V65.1023C110.996 63.5425 112.261 62.277 113.821 62.277C115.383 62.277 116.648 63.5425 116.648 65.1023L110.996 70.4238Z" fill="url(#paint6_linear_1039_4126)"/>
<path d="M114.077 74.1861V66.661H116.65V74.1861H114.077ZM110.999 66.661H113.572V74.1861H110.999V66.661ZM113.572 62.2894V66.1563H110.999V65.102C110.999 63.627 112.13 62.4166 113.572 62.2894ZM116.65 65.102V66.1563H114.077V62.2894C115.519 62.4166 116.65 63.627 116.65 65.102ZM113.824 61.8153C112.012 61.8153 110.537 63.2903 110.537 65.102V74.6475H117.111V65.102C117.111 63.2903 115.637 61.8153 113.824 61.8153Z" fill="white"/>
<path d="M128.861 50.209H123.209V41.1249C123.209 39.5642 124.475 38.2996 126.035 38.2996C127.597 38.2996 128.861 39.5642 128.861 41.1249V50.209Z" fill="#366ED7"/>
<path d="M123.209 46.4453V41.1238C123.209 39.5631 124.475 38.2985 126.035 38.2985C127.597 38.2985 128.861 39.5631 128.861 41.1238L123.209 46.4453Z" fill="url(#paint7_linear_1039_4126)"/>
<path d="M126.288 50.2075V42.6824H128.862V50.2075H126.288ZM123.209 42.6824H125.784V50.2075H123.209V42.6824ZM125.784 38.3109V42.1778H123.209V41.1235C123.209 39.6485 124.341 38.4381 125.784 38.3109ZM128.862 41.1235V42.1778H126.288V38.3109C127.73 38.4381 128.862 39.6485 128.862 41.1235ZM126.036 37.8367C124.223 37.8367 122.748 39.3117 122.748 41.1235V50.6689H129.323V41.1235C129.323 39.3117 127.848 37.8367 126.036 37.8367Z" fill="white"/>
<path d="M128.861 74.1855H123.209V65.1015C123.209 63.5417 124.475 62.2762 126.035 62.2762C127.597 62.2762 128.861 63.5417 128.861 65.1015V74.1855Z" fill="#366ED7"/>
<path d="M123.209 70.4238V65.1023C123.209 63.5425 124.475 62.277 126.035 62.277C127.597 62.277 128.861 63.5425 128.861 65.1023L123.209 70.4238Z" fill="url(#paint8_linear_1039_4126)"/>
<path d="M126.288 74.1861V66.661H128.862V74.1861H126.288ZM123.209 66.661H125.784V74.1861H123.209V66.661ZM125.784 62.2894V66.1563H123.209V65.102C123.209 63.627 124.341 62.4166 125.784 62.2894ZM128.862 65.102V66.1563H126.288V62.2894C127.73 62.4166 128.862 63.627 128.862 65.102ZM126.036 61.8153C124.223 61.8153 122.748 63.2903 122.748 65.102V74.6475H129.323V65.102C129.323 63.2903 127.848 61.8153 126.036 61.8153Z" fill="white"/>
<path d="M141.35 50.209H135.697V41.1249C135.697 39.5642 136.964 38.2996 138.523 38.2996C140.084 38.2996 141.35 39.5642 141.35 41.1249V50.209Z" fill="#366ED7"/>
<path d="M135.697 46.4453V41.1238C135.697 39.5631 136.964 38.2985 138.523 38.2985C140.084 38.2985 141.35 39.5631 141.35 41.1238L135.697 46.4453Z" fill="url(#paint9_linear_1039_4126)"/>
<path d="M138.775 50.2075V42.6824H141.348V50.2075H138.775ZM135.696 42.6824H138.27V50.2075H135.696V42.6824ZM138.27 38.3109V42.1778H135.696V41.1235C135.696 39.6485 136.827 38.4381 138.27 38.3109ZM141.348 41.1235V42.1778H138.775V38.3109C140.217 38.4381 141.348 39.6485 141.348 41.1235ZM138.522 37.8367C136.71 37.8367 135.234 39.3117 135.234 41.1235V50.6689H141.81V41.1235C141.81 39.3117 140.335 37.8367 138.522 37.8367Z" fill="white"/>
<path d="M141.35 74.1855H135.697V65.1015C135.697 63.5417 136.964 62.2762 138.523 62.2762C140.084 62.2762 141.35 63.5417 141.35 65.1015V74.1855Z" fill="#366ED7"/>
<path d="M135.697 70.4238V65.1023C135.697 63.5425 136.964 62.277 138.523 62.277C140.084 62.277 141.35 63.5425 141.35 65.1023L135.697 70.4238Z" fill="url(#paint10_linear_1039_4126)"/>
<path d="M138.775 74.1861V66.661H141.348V74.1861H138.775ZM135.696 66.661H138.27V74.1861H135.696V66.661ZM138.27 62.2894V66.1563H135.696V65.102C135.696 63.627 136.827 62.4166 138.27 62.2894ZM141.348 65.102V66.1563H138.775V62.2894C140.217 62.4166 141.348 63.627 141.348 65.102ZM138.522 61.8153C136.71 61.8153 135.234 63.2903 135.234 65.102V74.6475H141.81V65.102C141.81 63.2903 140.335 61.8153 138.522 61.8153Z" fill="white"/>
<path d="M29.1581 50.209H23.5059V41.1249C23.5059 39.5642 24.7713 38.2996 26.332 38.2996C27.8927 38.2996 29.1581 39.5642 29.1581 41.1249V50.209Z" fill="#366ED7"/>
<path d="M29.1565 41.0332C29.109 39.515 27.8622 38.2987 26.332 38.2987C27.863 38.2987 29.109 39.515 29.1565 41.0332Z" fill="url(#paint11_linear_1039_4126)"/>
<path d="M23.5059 46.4453V41.1238C23.5059 39.5631 24.7713 38.2985 26.332 38.2985C27.8621 38.2985 29.1089 39.5148 29.1564 41.033C29.1573 41.0636 29.1581 41.0933 29.1581 41.1238L23.5059 46.4453Z" fill="url(#paint12_linear_1039_4126)"/>
<path d="M26.5833 50.2075V42.6824H29.1567V50.2075H26.5833ZM23.5044 42.6824H26.0786V50.2075H23.5044V42.6824ZM26.0786 38.3109V42.1778H23.5044V41.1235C23.5044 39.6485 24.6359 38.4381 26.0786 38.3109ZM29.1567 41.1235V42.1778H26.5833V38.3109C28.0252 38.4381 29.1567 39.6485 29.1567 41.1235ZM26.3305 37.8367C24.5179 37.8367 23.043 39.3117 23.043 41.1235V50.6689H29.6181V41.1235C29.6181 39.3117 28.1439 37.8367 26.3305 37.8367Z" fill="white"/>
<path d="M29.1581 74.1855H23.5059V65.1015C23.5059 63.5417 24.7713 62.2762 26.332 62.2762C27.8927 62.2762 29.1581 63.5417 29.1581 65.1015V74.1855Z" fill="#366ED7"/>
<path d="M29.1565 65.0117C29.109 63.4935 27.8622 62.2772 26.332 62.2772C27.863 62.2772 29.109 63.4935 29.1565 65.0117Z" fill="url(#paint13_linear_1039_4126)"/>
<path d="M23.5059 70.4238V65.1023C23.5059 63.5425 24.7713 62.277 26.332 62.277C27.8621 62.277 29.1089 63.4933 29.1564 65.0116C29.1573 65.0421 29.1581 65.0718 29.1581 65.1023L23.5059 70.4238Z" fill="url(#paint14_linear_1039_4126)"/>
<path d="M26.5833 74.1861V66.661H29.1567V74.1861H26.5833ZM23.5044 66.661H26.0786V74.1861H23.5044V66.661ZM26.0786 62.2894V66.1563H23.5044V65.102C23.5044 63.627 24.6359 62.4166 26.0786 62.2894ZM29.1567 65.102V66.1563H26.5833V62.2894C28.0252 62.4166 29.1567 63.627 29.1567 65.102ZM26.3305 61.8153C24.5179 61.8153 23.043 63.2903 23.043 65.102V74.6475H29.6181V65.102C29.6181 63.2903 28.1439 61.8153 26.3305 61.8153Z" fill="white"/>
<path d="M41.3691 50.209H35.7168V41.1249C35.7168 39.5642 36.9823 38.2996 38.5429 38.2996C40.1036 38.2996 41.3691 39.5642 41.3691 41.1249V50.209Z" fill="#366ED7"/>
<path d="M35.7168 46.4453V41.1238C35.7168 39.5631 36.9823 38.2985 38.5429 38.2985C40.1036 38.2985 41.3691 39.5631 41.3691 41.1238L35.7168 46.4453Z" fill="url(#paint15_linear_1039_4126)"/>
<path d="M38.7962 50.2075V42.6824H41.3695V50.2075H38.7962ZM35.7173 42.6824H38.2906V50.2075H35.7173V42.6824ZM38.2906 38.3109V42.1778H35.7173V41.1235C35.7173 39.6485 36.8487 38.4381 38.2906 38.3109ZM41.3695 41.1235V42.1778H38.7962V38.3109C40.2381 38.4381 41.3695 39.6485 41.3695 41.1235ZM38.5434 37.8367C36.7317 37.8367 35.2559 39.3117 35.2559 41.1235V50.6689H41.831V41.1235C41.831 39.3117 40.356 37.8367 38.5434 37.8367Z" fill="white"/>
<path d="M41.3691 74.1855H35.7168V65.1015C35.7168 63.5417 36.9823 62.2762 38.5429 62.2762C40.1036 62.2762 41.3691 63.5417 41.3691 65.1015V74.1855Z" fill="#366ED7"/>
<path d="M35.7168 70.4238V65.1023C35.7168 63.5425 36.9823 62.277 38.5429 62.277C40.1036 62.277 41.3691 63.5425 41.3691 65.1023L35.7168 70.4238Z" fill="url(#paint16_linear_1039_4126)"/>
<path d="M38.7962 74.1861V66.661H41.3695V74.1861H38.7962ZM35.7173 66.661H38.2906V74.1861H35.7173V66.661ZM38.2906 62.2894V66.1563H35.7173V65.102C35.7173 63.627 36.8487 62.4166 38.2906 62.2894ZM41.3695 65.102V66.1563H38.7962V62.2894C40.2381 62.4166 41.3695 63.627 41.3695 65.102ZM38.5434 61.8153C36.7317 61.8153 35.2559 63.2903 35.2559 65.102V74.6475H41.831V65.102C41.831 63.2903 40.356 61.8153 38.5434 61.8153Z" fill="white"/>
<path d="M53.8574 50.209H48.2051V41.1249C48.2051 39.5642 49.4706 38.2996 51.0313 38.2996C52.5919 38.2996 53.8574 39.5642 53.8574 41.1249V50.209Z" fill="#366ED7"/>
<path d="M48.2051 46.4453V41.1238C48.2051 39.5631 49.4706 38.2985 51.0313 38.2985C52.5919 38.2985 53.8574 39.5631 53.8574 41.1238L48.2051 46.4453Z" fill="url(#paint17_linear_1039_4126)"/>
<path d="M51.2856 50.2075V42.6824H53.8598V50.2075H51.2856ZM48.2075 42.6824H50.7809V50.2075H48.2075V42.6824ZM50.7809 38.3109V42.1778H48.2075V41.1235C48.2075 39.6485 49.339 38.4381 50.7809 38.3109ZM53.8598 41.1235V42.1778H51.2856V38.3109C52.7283 38.4381 53.8598 39.6485 53.8598 41.1235ZM51.0337 37.8367C49.2203 37.8367 47.7461 39.3117 47.7461 41.1235V50.6689H54.3212V41.1235C54.3212 39.3117 52.8463 37.8367 51.0337 37.8367Z" fill="white"/>
<path d="M53.8574 74.1855H48.2051V65.1015C48.2051 63.5417 49.4706 62.2762 51.0313 62.2762C52.5919 62.2762 53.8574 63.5417 53.8574 65.1015V74.1855Z" fill="#366ED7"/>
<path d="M48.2051 70.4238V65.1023C48.2051 63.5425 49.4706 62.277 51.0313 62.277C52.5919 62.277 53.8574 63.5425 53.8574 65.1023L48.2051 70.4238Z" fill="url(#paint18_linear_1039_4126)"/>
<path d="M51.2856 74.1861V66.661H53.8598V74.1861H51.2856ZM48.2075 66.661H50.7809V74.1861H48.2075V66.661ZM50.7809 62.2894V66.1563H48.2075V65.102C48.2075 63.627 49.339 62.4166 50.7809 62.2894ZM53.8598 65.102V66.1563H51.2856V62.2894C52.7283 62.4166 53.8598 63.627 53.8598 65.102ZM51.0337 61.8153C49.2203 61.8153 47.7461 63.2903 47.7461 65.102V74.6475H54.3212V65.102C54.3212 63.2903 52.8463 61.8153 51.0337 61.8153Z" fill="white"/>
<path d="M144.362 35.7754H106.764V35.7415H99.6148V35.7754H64.7467V35.7415H57.5974V35.7754H19.4375V33.7202H55.8594V34.2707C55.8594 34.7041 56.2114 35.0544 56.6431 35.0544H65.7009C66.1343 35.0544 66.4847 34.7041 66.4847 34.2707V34.0247V33.7202H97.8768V34.2707C97.8768 34.7041 98.2289 35.0544 98.6606 35.0544H107.718C108.152 35.0544 108.503 34.7041 108.503 34.2707V34.0247V33.7202H144.362V35.7754ZM98.8336 35.0544V35.7415H107.545V35.398V35.0544H98.8336ZM56.8162 35.0544V35.7415H65.5279V35.398V35.0544H56.8162Z" fill="#C9C2AF"/>
<path d="M17.7695 87.8477H146.363V80.2156H17.7695V87.8477Z" fill="#575146"/>
<path d="M17.7695 33.7197H146.027V27.3153H17.7695V33.7197Z" fill="#E0D6C0"/>
<path d="M17.7695 56.5557H146.027V52.7759H17.7695V56.5557Z" fill="#E0D6C0"/>
<path d="M64.7461 58.2803H99.6142V51.4388H64.7461V58.2803Z" fill="#E0D6C0"/>
<path d="M109.048 80.2158H106.756V78.8435H106.764V56.5548H109.048V80.2158ZM109.048 52.7753H106.764V36.0848V35.7752H109.048V52.7753Z" fill="#C9C2AF"/>
<path d="M106.764 56.5557H109.048V52.7759H106.764V56.5557Z" fill="#B1A897"/>
<path d="M67.0371 80.2158H66.367C66.3025 80.1904 66.2321 80.1777 66.1592 80.1777C66.0845 80.1777 66.0065 80.1912 65.9302 80.2158H65.2796C65.1464 80.025 64.9615 79.885 64.7461 79.8248V78.8435V58.2809H67.0371V80.2158Z" fill="#C9C2AF"/>
<path d="M67.0371 51.4375H64.7461V35.7732H67.0371V51.4375Z" fill="#C9C2AF"/>
<path d="M64.7461 58.2803H67.0372V51.4388H64.7461V58.2803Z" fill="#B1A897"/>
<path d="M107.346 78.8435H99.0302C98.3924 78.8435 97.875 79.36 97.875 79.9979V80.2158H108.501V79.9979C108.501 79.36 107.983 78.8435 107.346 78.8435Z" fill="#AB9D7E"/>
<path d="M108.501 33.6823H97.875V34.271C97.875 34.7044 98.227 35.0547 98.6587 35.0547H107.717C108.15 35.0547 108.501 34.7044 108.501 34.271V33.6823Z" fill="#AB9D7E"/>
<path d="M98.832 35.7422H107.544V35.055H98.832V35.7422Z" fill="#AB9D7E"/>
<path d="M99.6152 78.8428H106.765V35.7407H99.6152V78.8428Z" fill="#AB9D7E"/>
<path d="M98.832 35.3965H107.544V35.0529H98.832V35.3965Z" fill="#96896E"/>
<path d="M106.765 36.084H99.6152V35.7405H106.765V35.7744V36.084Z" fill="#96896E"/>
<path d="M108.501 34.0234H97.875V33.6808H108.501V33.7189V34.0234Z" fill="#96896E"/>
<path d="M65.3294 78.8435H57.0146C56.3768 78.8435 55.8594 79.36 55.8594 79.9979V80.2158H66.4846V79.9979C66.4846 79.36 65.9672 78.8435 65.3294 78.8435Z" fill="#AB9D7E"/>
<path d="M66.4846 33.6823H55.8594V34.271C55.8594 34.7044 56.2114 35.0547 56.6431 35.0547H65.7009C66.1343 35.0547 66.4846 34.7044 66.4846 34.271V33.6823Z" fill="#AB9D7E"/>
<path d="M56.8164 35.7422H65.5282V35.055H56.8164V35.7422Z" fill="#AB9D7E"/>
<path d="M57.5957 78.8428H64.745V35.7407H57.5957V78.8428Z" fill="#AB9D7E"/>
<path d="M56.8164 35.3965H65.5282V35.0529H56.8164V35.3965Z" fill="#96896E"/>
<path d="M64.7451 36.084H57.5957V35.7405H64.7451V35.7744V36.084Z" fill="#96896E"/>
<path d="M66.4846 34.0234H55.8594V33.6808H66.4846V33.7189V34.0234Z" fill="#96896E"/>
<path d="M19.4375 27.3164H144.362V6.64326H19.4375V27.3164Z" fill="#575146"/>
<path d="M81.931 -0.000257492L46.9043 27.3164H116.958L81.931 -0.000257492Z" fill="#E0D6C0"/>
<path d="M57.8281 28.1455L81.9285 9.34971L106.029 28.1455H57.8281Z" fill="#736956"/>
<path d="M68.9355 82.124H96.5854V80.2156H68.9355V82.124Z" fill="#E0D6C0"/>
<path d="M68.9355 84.0303H96.5854V82.1225H68.9355V84.0303Z" fill="#FFF7DF"/>
<path d="M68.9355 85.9395H96.5854V84.032H68.9355V85.9395Z" fill="#E0D6C0"/>
<path d="M68.9355 87.8477H96.5854V85.9392H68.9355V87.8477Z" fill="#FFF7DF"/>
<path d="M68.9355 82.124H70.8211V80.2156H68.9355V82.124Z" fill="#B1A897"/>
<path d="M68.9355 84.0303H70.8211V82.1225H68.9355V84.0303Z" fill="#C9C2AF"/>
<path d="M70.8211 85.9395H68.9355V85.2838C69.0195 85.1014 69.0619 84.9183 69.0619 84.7435C69.0611 84.5747 69.0204 84.4144 68.9355 84.2719V84.0319H70.8211V85.9395Z" fill="#B1A897"/>
<path d="M68.9355 87.8477H70.8211V85.9392H68.9355V87.8477Z" fill="#C9C2AF"/>
<path d="M128.546 27.3164H116.956L90.4473 6.64359H92.6958L128.546 27.3164Z" fill="#454037"/>
<path d="M106.029 28.1455H104.98L82.7046 11.2946L58.6458 28.1455H57.8281L81.9285 9.34971L106.029 28.1455Z" fill="#5B5243"/>
<path d="M82.4829 61.1079C79.035 61.1079 76.2402 63.6601 76.2402 66.8069V80.2158H82.4829H88.7247V66.8069C88.7247 63.6601 85.9299 61.1079 82.4829 61.1079Z" fill="#E0D6C0"/>
<path d="M82.2633 80.2158H76.8027V66.8323C76.8027 63.951 79.1394 61.6151 82.0207 61.6151H82.2633V80.2158Z" fill="#312A20"/>
<path d="M82.7051 80.2158H88.1666V66.8323C88.1666 63.951 85.8298 61.6151 82.9485 61.6151H82.7051V80.2158Z" fill="#312A20"/>
<path d="M76.9902 20.7386C76.9902 17.8861 79.3024 15.5748 82.154 15.5748C85.0064 15.5748 87.3177 17.8861 87.3177 20.7386C87.3177 23.5902 85.0064 25.9023 82.154 25.9023C79.3024 25.9023 76.9902 23.5902 76.9902 20.7386Z" fill="#D1D6E3"/>
<path d="M84.8299 23.6387L81.9961 20.8049V16.8532H82.3125V20.6742L85.0529 23.4147L84.8299 23.6387Z" fill="#312A20"/>
<path d="M19.4375 57.9941H57.5972V56.5542H19.4375V57.9941Z" fill="#C9C2AF"/>
<path d="M109.047 57.9941H144.36V56.5542H109.047V57.9941Z" fill="#C9C2AF"/>
<path d="M67.0371 59.8408H99.6141V58.281H67.0371V59.8408Z" fill="#C9C2AF"/>
<path d="M106.504 84.0816C106.349 83.9289 106.142 83.8288 105.907 83.7779C106.251 83.3886 106.311 82.9213 106.016 82.632C105.729 82.3521 105.194 82.3267 104.695 82.532C104.81 81.9696 104.626 81.448 104.157 81.1825L104.225 81.1002C104.459 80.7652 104.414 80.3759 104.121 80.2317C103.828 80.0875 103.402 80.2427 103.166 80.5769C103.041 80.1307 102.683 79.8042 102.249 79.7915C101.69 79.7762 101.217 80.2826 101.191 80.9238L101.201 81.1418C100.921 80.9467 100.587 80.8687 100.288 80.9586C99.808 81.1028 99.5858 81.6303 99.7469 82.1808C99.1982 82.2546 98.847 82.8237 98.9607 83.4548C98.9836 83.5795 99.0226 83.6974 99.0752 83.8051C98.9556 83.8195 98.8428 83.8534 98.7427 83.912C98.434 84.0901 98.3237 84.4387 98.4145 84.8076C98.2202 84.8899 98.054 85.007 97.9318 85.1579C97.5629 85.6168 97.6944 86.264 98.1948 86.8026C97.9522 87.1605 97.9369 87.5549 98.1981 87.8094C98.4272 88.0316 98.8131 88.0935 99.2117 88.0061C99.4145 88.3632 99.7605 88.6109 100.18 88.6491C100.462 88.6737 100.736 88.6007 100.973 88.4557C101.212 88.9078 101.638 89.2258 102.158 89.2733C102.949 89.3446 103.687 88.7704 103.928 87.9485C104.501 88.2436 105.141 88.286 105.588 88.0078C106.157 87.6542 106.224 86.8976 105.794 86.2131L105.934 86.1198C106.779 85.5116 107.034 84.599 106.504 84.0816Z" fill="#AAC91F"/>
<path d="M105.789 87.8477C105.979 87.6492 106.074 87.3863 106.074 87.0979C106.074 87.3863 105.979 87.6492 105.789 87.8477ZM98.1838 86.7891C98.1804 86.7857 98.177 86.7823 98.1744 86.779C98.177 86.7823 98.1804 86.7857 98.1838 86.7891ZM98.1719 86.7764C98.1532 86.7561 98.1354 86.7348 98.1184 86.7145C98.1354 86.7348 98.1532 86.7561 98.1719 86.7764ZM98.115 86.7111C98.1125 86.7077 98.11 86.7043 98.1074 86.7009C98.11 86.7043 98.1125 86.7077 98.115 86.7111Z" fill="#454037"/>
<path d="M102.292 89.2793C102.248 89.2793 102.204 89.2767 102.159 89.2734C101.638 89.2259 101.212 88.9078 100.973 88.4557C100.767 88.5821 100.533 88.6533 100.29 88.6533C100.254 88.6533 100.217 88.6516 100.18 88.6491C99.7608 88.6109 99.4147 88.3633 99.212 88.0062C99.0967 88.0308 98.9822 88.0443 98.8719 88.0443C98.6031 88.0443 98.3613 87.9671 98.1984 87.8094C98.0704 87.6839 98.0084 87.5244 98.0076 87.3531C98.0076 87.175 98.0721 86.9841 98.1951 86.8026C98.1917 86.7984 98.1874 86.7933 98.1832 86.789C98.1798 86.7856 98.1764 86.7822 98.1739 86.7788C98.173 86.778 98.1722 86.7771 98.1713 86.7763C98.1526 86.7559 98.1348 86.7347 98.1179 86.7144C98.117 86.7135 98.1162 86.7118 98.1145 86.711C98.1119 86.7076 98.1094 86.7042 98.1069 86.7008C98.1026 86.6966 98.0992 86.6915 98.095 86.6872C97.983 86.5481 97.8948 86.4031 97.832 86.2581C97.9338 86.2869 98.0458 86.3013 98.162 86.3013C98.2129 86.3013 98.2655 86.2988 98.318 86.2928C98.3291 86.292 98.3401 86.2911 98.3511 86.2911C98.4453 86.2911 98.5343 86.3344 98.5912 86.4107C98.799 86.6881 99.1052 86.8738 99.464 86.9061C99.5004 86.9095 99.5377 86.9112 99.5742 86.9112C99.7116 86.9112 99.8456 86.8883 99.9746 86.8459C100.019 86.8306 100.064 86.8238 100.109 86.8238C100.231 86.8238 100.349 86.8772 100.427 86.9756C100.676 87.2861 101.029 87.4939 101.443 87.5312C101.487 87.5346 101.532 87.5371 101.576 87.5371C102.108 87.5371 102.603 87.2496 102.925 86.8001C103.098 86.5575 103.372 86.404 103.662 86.404C103.713 86.404 103.765 86.4082 103.817 86.4184C103.935 86.4413 104.051 86.4523 104.165 86.4523C104.424 86.4523 104.668 86.3921 104.871 86.2657C105.344 85.9714 105.333 85.4429 105.067 84.8789C104.982 84.6974 105.052 84.4913 105.218 84.3776C105.935 83.8611 106.225 83.1249 105.973 82.5973L106.016 82.6321C106.145 82.7584 106.206 82.9188 106.205 83.0926C106.204 83.3149 106.101 83.5591 105.908 83.778C106.143 83.8288 106.35 83.9289 106.505 84.0816C106.691 84.2631 106.78 84.4947 106.781 84.7432C106.782 85.2029 106.482 85.7254 105.934 86.1198L105.795 86.2131C105.979 86.5074 106.072 86.8145 106.073 87.0978C106.074 87.3861 105.979 87.6491 105.788 87.8475C105.73 87.9069 105.663 87.9612 105.588 88.0079C105.384 88.1351 105.141 88.1945 104.881 88.1945C104.572 88.1945 104.24 88.1088 103.929 87.9485C103.701 88.7246 103.031 89.2793 102.292 89.2793Z" fill="#869E18"/>
<path d="M101.464 80.7895C101.599 81.1967 101.505 81.5936 101.253 81.6767C101.002 81.7607 100.689 81.4986 100.554 81.0923C100.419 80.6852 100.513 80.2883 100.765 80.2051C101.016 80.1212 101.33 80.3832 101.464 80.7895Z" fill="#AAC91F"/>
<path d="M99.2342 83.2284C99.3682 83.6355 99.2741 84.0325 99.023 84.1165C98.7711 84.1996 98.4581 83.9375 98.3232 83.5312C98.1884 83.1249 98.2825 82.7271 98.5344 82.644C98.7863 82.56 99.0993 82.8221 99.2342 83.2284Z" fill="#AAC91F"/>
<path d="M151.652 84.0816C151.497 83.9289 151.29 83.8288 151.055 83.7779C151.399 83.3886 151.459 82.9213 151.164 82.632C150.877 82.3521 150.342 82.3267 149.844 82.532C149.958 81.9696 149.774 81.448 149.304 81.1825L149.371 81.1002C149.607 80.7652 149.561 80.3759 149.268 80.2317C148.977 80.0875 148.55 80.2427 148.314 80.5769C148.189 80.1307 147.832 79.8042 147.397 79.7915C146.838 79.7762 146.365 80.2826 146.339 80.9238L146.349 81.1418C146.069 80.9467 145.735 80.8687 145.437 80.9586C144.956 81.1028 144.734 81.6303 144.894 82.1808C144.347 82.2546 143.994 82.8237 144.108 83.4548C144.131 83.5795 144.171 83.6974 144.223 83.8051C144.103 83.8195 143.991 83.8534 143.891 83.912C143.582 84.0901 143.472 84.4387 143.563 84.8076C143.367 84.8899 143.202 85.007 143.08 85.1579C142.712 85.6168 142.843 86.264 143.343 86.8026C143.101 87.1605 143.084 87.5549 143.347 87.8094C143.575 88.0316 143.96 88.0935 144.359 88.0061C144.561 88.3632 144.909 88.6109 145.328 88.6491C145.61 88.6737 145.884 88.6007 146.12 88.4557C146.36 88.9078 146.785 89.2258 147.307 89.2733C148.097 89.3446 148.835 88.7704 149.077 87.9485C149.648 88.2436 150.288 88.286 150.735 88.0078C151.304 87.6542 151.372 86.8976 150.942 86.2131L151.082 86.1198C151.926 85.5116 152.182 84.599 151.652 84.0816Z" fill="#AAC91F"/>
<path d="M143.332 86.791C143.294 86.7495 143.258 86.707 143.225 86.6646C143.258 86.707 143.294 86.7495 143.332 86.791ZM143.221 86.6596C143.219 86.657 143.217 86.6545 143.215 86.6519C143.217 86.6545 143.219 86.657 143.221 86.6596Z" fill="#454037"/>
<path d="M147.441 89.2793C147.397 89.2793 147.352 89.2767 147.308 89.2734C146.786 89.2259 146.36 88.9078 146.121 88.4557C145.915 88.5821 145.682 88.6533 145.439 88.6533C145.402 88.6533 145.366 88.6516 145.329 88.6491C144.91 88.6109 144.562 88.3633 144.36 88.0062C144.244 88.0308 144.131 88.0443 144.02 88.0443C143.751 88.0443 143.51 87.9671 143.348 87.8094C143.218 87.6839 143.157 87.5244 143.156 87.3531C143.156 87.175 143.221 86.9841 143.344 86.8026C143.34 86.7984 143.337 86.7941 143.332 86.7899C143.294 86.7483 143.259 86.7059 143.226 86.6635C143.224 86.6618 143.222 86.6601 143.221 86.6584C143.22 86.6559 143.217 86.6533 143.215 86.6508C143.116 86.5235 143.038 86.3912 142.98 86.2581C143.083 86.2869 143.194 86.3013 143.31 86.3013C143.361 86.3013 143.413 86.2988 143.466 86.2928C143.477 86.292 143.489 86.2911 143.5 86.2911C143.594 86.2911 143.682 86.3344 143.74 86.4107C143.947 86.6881 144.253 86.8738 144.612 86.9061C144.65 86.9095 144.686 86.9112 144.723 86.9112C144.86 86.9112 144.995 86.8883 145.123 86.8459C145.167 86.8306 145.212 86.8238 145.257 86.8238C145.379 86.8238 145.497 86.8772 145.577 86.9756C145.824 87.2861 146.178 87.4939 146.59 87.5312C146.635 87.5346 146.679 87.5371 146.724 87.5371C147.255 87.5371 147.751 87.2496 148.072 86.8001C148.246 86.5575 148.521 86.404 148.811 86.404C148.862 86.404 148.914 86.4082 148.966 86.4184C149.083 86.4413 149.2 86.4523 149.313 86.4523C149.573 86.4523 149.816 86.3921 150.02 86.2657C150.494 85.9714 150.481 85.4429 150.215 84.8789C150.13 84.6974 150.199 84.4913 150.366 84.3776C151.084 83.8611 151.374 83.1249 151.12 82.5973L151.165 82.6321C151.294 82.7584 151.355 82.9188 151.354 83.0926C151.353 83.3149 151.249 83.5591 151.056 83.778C151.291 83.8288 151.498 83.9289 151.653 84.0816C151.84 84.2631 151.929 84.4947 151.93 84.7432C151.931 85.2029 151.63 85.7254 151.083 86.1198L150.943 86.2131C151.127 86.5074 151.221 86.8145 151.221 87.0978C151.221 87.4735 151.06 87.806 150.736 88.0079C150.533 88.1351 150.289 88.1945 150.03 88.1945C149.72 88.1945 149.388 88.1088 149.078 87.9485C148.977 88.2895 148.791 88.588 148.551 88.8153C148.247 89.1046 147.855 89.2793 147.441 89.2793Z" fill="#869E18"/>
<path d="M146.615 80.7895C146.75 81.1967 146.655 81.5936 146.403 81.6767C146.152 81.7607 145.838 81.4986 145.704 81.0923C145.57 80.6852 145.664 80.2883 145.915 80.2051C146.167 80.1212 146.48 80.3832 146.615 80.7895Z" fill="#AAC91F"/>
<path d="M144.383 83.2284C144.518 83.6355 144.423 84.0325 144.172 84.1165C143.921 84.1996 143.607 83.9375 143.471 83.5312C143.337 83.1249 143.431 82.7271 143.683 82.644C143.934 82.56 144.247 82.8221 144.383 83.2284Z" fill="#AAC91F"/>
<path d="M22.0233 84.0816C21.8681 83.9289 21.6611 83.8288 21.4262 83.7779C21.7697 83.3886 21.83 82.9213 21.5348 82.632C21.2481 82.3521 20.7129 82.3267 20.215 82.532C20.3287 81.9696 20.1446 81.448 19.6756 81.1825L19.7425 81.1002C19.9775 80.7652 19.9317 80.3759 19.6391 80.2317C19.3482 80.0875 18.9207 80.2427 18.6849 80.5769C18.5602 80.1307 18.2031 79.8042 17.768 79.7915C17.209 79.7762 16.7357 80.2826 16.7103 80.9238L16.7196 81.1418C16.4397 80.9467 16.1055 80.8687 15.8078 80.9586C15.3269 81.1028 15.1047 81.6303 15.265 82.1808C14.7179 82.2546 14.3651 82.8237 14.4796 83.4548C14.5016 83.5795 14.5415 83.6974 14.5941 83.8051C14.4745 83.8195 14.3617 83.8534 14.2616 83.912C13.9529 84.0901 13.8426 84.4387 13.9342 84.8076C13.7391 84.8899 13.5729 85.007 13.4507 85.1579C13.0826 85.6168 13.2141 86.264 13.7145 86.8026C13.4719 87.1605 13.455 87.5549 13.7179 87.8094C13.9461 88.0316 14.332 88.0935 14.7298 88.0061C14.9325 88.3632 15.2802 88.6109 15.6992 88.6491C15.9808 88.6737 16.2548 88.6007 16.4915 88.4557C16.7307 88.9078 17.1564 89.2258 17.6781 89.2733C18.4677 89.3446 19.2048 88.7704 19.4482 87.9485C20.0191 88.2436 20.6594 88.286 21.1064 88.0078C21.6756 87.6542 21.7426 86.8976 21.3134 86.2131L21.4534 86.1198C22.2973 85.5116 22.5534 84.599 22.0233 84.0816Z" fill="#AAC91F"/>
<path d="M13.7015 86.7891C13.699 86.7857 13.6956 86.7823 13.6922 86.7789C13.6956 86.7823 13.699 86.7857 13.7015 86.7891ZM13.6905 86.7763C13.6718 86.756 13.6531 86.7348 13.6362 86.7144C13.6531 86.7348 13.6718 86.756 13.6905 86.7763ZM13.6336 86.7119C13.6311 86.7085 13.6277 86.7043 13.6252 86.7009C13.6277 86.7043 13.6311 86.7085 13.6336 86.7119ZM13.6141 86.6873C13.6141 86.6873 13.6133 86.6864 13.6133 86.6856C13.6133 86.6864 13.6141 86.6873 13.6141 86.6873Z" fill="#C9C8C8"/>
<path d="M17.8122 89.2793C17.7681 89.2793 17.7231 89.2767 17.679 89.2734C17.1574 89.2259 16.7316 88.9078 16.4924 88.4557C16.2872 88.5821 16.0531 88.6533 15.8105 88.6533C15.7732 88.6533 15.7367 88.6516 15.7002 88.6491C15.2812 88.6109 14.9334 88.3633 14.7307 88.0062C14.6154 88.0308 14.5017 88.0443 14.3915 88.0443C14.1226 88.0443 13.8808 87.9671 13.7188 87.8094C13.5891 87.6839 13.528 87.5244 13.5272 87.3531C13.5272 87.175 13.5925 86.9841 13.7154 86.8026C13.7112 86.7984 13.707 86.7933 13.7027 86.789C13.7002 86.7856 13.6968 86.7822 13.6934 86.7788C13.6926 86.778 13.6917 86.7771 13.6917 86.7763C13.673 86.7559 13.6544 86.7347 13.6374 86.7144C13.6366 86.7135 13.6357 86.7127 13.6348 86.7118C13.6323 86.7084 13.6289 86.7042 13.6264 86.7008C13.623 86.6966 13.6187 86.6923 13.6153 86.6872C13.6153 86.6872 13.6145 86.6864 13.6145 86.6855C13.5017 86.5473 13.4143 86.4031 13.3516 86.2581C13.4533 86.2869 13.5653 86.3013 13.6815 86.3013C13.7324 86.3013 13.785 86.2988 13.8367 86.2928C13.8486 86.292 13.8596 86.2911 13.8707 86.2911C13.9648 86.2911 14.053 86.3344 14.1107 86.4107C14.3185 86.6881 14.6239 86.8738 14.9835 86.9061C15.0208 86.9095 15.0573 86.9112 15.0946 86.9112C15.2312 86.9112 15.366 86.8883 15.4932 86.8459C15.5382 86.8306 15.5831 86.8238 15.6281 86.8238C15.7502 86.8238 15.8681 86.8772 15.9478 86.9756C16.1955 87.2861 16.5492 87.4939 16.9614 87.5312C17.0064 87.5346 17.0505 87.5371 17.0946 87.5371C17.6264 87.5371 18.1218 87.2496 18.4432 86.8001C18.6171 86.5575 18.8919 86.404 19.1811 86.404C19.2329 86.404 19.2846 86.4082 19.3364 86.4184C19.4543 86.4413 19.5705 86.4523 19.6841 86.4523C19.9437 86.4523 20.1871 86.3921 20.3907 86.2657C20.8648 85.9714 20.8521 85.4429 20.5857 84.8789C20.5018 84.6974 20.5705 84.4913 20.7367 84.3776C21.4552 83.8611 21.7452 83.1249 21.4916 82.5973L21.5357 82.6321C21.6646 82.7584 21.7257 82.9188 21.7249 83.0926C21.724 83.3149 21.6205 83.5591 21.4271 83.778C21.6621 83.8288 21.869 83.9289 22.0243 84.0816C22.2109 84.2631 22.2999 84.4947 22.2999 84.7432C22.3016 85.2029 22.0014 85.7254 21.4543 86.1198L21.3143 86.2131C21.4984 86.5074 21.5917 86.8145 21.5917 87.0978C21.5925 87.3861 21.4975 87.6491 21.3067 87.8475C21.249 87.9069 21.1829 87.9612 21.1074 88.0079C20.9038 88.1351 20.6604 88.1945 20.4008 88.1945C20.0912 88.1945 19.7596 88.1088 19.4492 87.9485C19.2202 88.7246 18.5509 89.2793 17.8122 89.2793Z" fill="#869E18"/>
<path d="M16.9821 80.7895C17.1178 81.1967 17.0228 81.5936 16.7709 81.6767C16.5198 81.7607 16.206 81.4986 16.0711 81.0923C15.9363 80.6852 16.0313 80.2883 16.2823 80.2051C16.5342 80.1212 16.8472 80.3832 16.9821 80.7895Z" fill="#AAC91F"/>
<path d="M14.7537 83.2284C14.8886 83.6355 14.7936 84.0325 14.5417 84.1165C14.2914 84.1996 13.9768 83.9375 13.8428 83.5312C13.7079 83.1249 13.802 82.7271 14.054 82.644C14.305 82.56 14.618 82.8221 14.7537 83.2284Z" fill="#AAC91F"/>
<path d="M68.7868 84.0816C68.6316 83.9289 68.4255 83.8288 68.1905 83.7779C68.534 83.3886 68.5934 82.9213 68.2982 82.632C68.0124 82.3521 67.4772 82.3267 66.9793 82.532C67.0921 81.9696 66.9081 81.448 66.439 81.1825L66.5069 81.1002C66.7418 80.7652 66.696 80.3759 66.4034 80.2317C66.1108 80.0875 65.6842 80.2427 65.4492 80.5769C65.3245 80.1307 64.9674 79.8042 64.5323 79.7915C63.9734 79.7762 63.4992 80.2826 63.4746 80.9238L63.484 81.1418C63.2041 80.9467 62.8699 80.8687 62.5713 80.9586C62.0904 81.1028 61.869 81.6303 62.0293 82.1808C61.4805 82.2546 61.1294 82.8237 61.2439 83.4548C61.2659 83.5795 61.3058 83.6974 61.3584 83.8051C61.2388 83.8195 61.1251 83.8534 61.0251 83.912C60.7172 84.0901 60.6069 84.4387 60.6977 84.8076C60.5026 84.8899 60.3372 85.007 60.2151 85.1579C59.8461 85.6168 59.9775 86.264 60.478 86.8026C60.2354 87.1605 60.2193 87.5549 60.4805 87.8094C60.7104 88.0316 61.0954 88.0935 61.4941 88.0061C61.6968 88.3632 62.0437 88.6109 62.4636 88.6491C62.7452 88.6737 63.0183 88.6007 63.2558 88.4557C63.4941 88.9078 63.9207 89.2258 64.4415 89.2733C65.232 89.3446 65.9691 88.7704 66.2109 87.9485C66.7834 88.2436 67.4238 88.286 67.8708 88.0078C68.439 87.6542 68.5061 86.8976 68.0769 86.2131L68.2168 86.1198C69.0616 85.5116 69.3169 84.599 68.7868 84.0816Z" fill="#AAC91F"/>
<path d="M64.5739 89.2793C64.5298 89.2793 64.4848 89.2767 64.4407 89.2734C63.9199 89.2259 63.4933 88.9078 63.2549 88.4557C63.0488 88.5821 62.8147 88.6533 62.5721 88.6533C62.5357 88.6533 62.4992 88.6516 62.4627 88.6491C62.0429 88.6109 61.696 88.3633 61.4932 88.0062C61.3779 88.0308 61.2634 88.0443 61.154 88.0443C60.8851 88.0443 60.6434 87.9671 60.4797 87.8094C60.3516 87.6839 60.2897 87.5244 60.2897 87.3531C60.2888 87.175 60.3533 86.9841 60.4771 86.8026C60.316 86.6287 60.1939 86.4438 60.1133 86.2581C60.2159 86.2869 60.327 86.3013 60.4441 86.3013C60.495 86.3013 60.5467 86.2988 60.5993 86.2928C60.6112 86.292 60.6222 86.2911 60.6332 86.2911C60.7274 86.2911 60.8156 86.3344 60.8724 86.4107C61.081 86.6881 61.3864 86.8738 61.746 86.9061C61.7834 86.9095 61.8198 86.9112 61.8571 86.9112C61.9937 86.9112 62.1277 86.8883 62.2558 86.8459C62.2999 86.8306 62.3457 86.8238 62.3906 86.8238C62.5128 86.8238 62.6307 86.8772 62.7104 86.9756C62.9581 87.2861 63.3118 87.4939 63.724 87.5312C63.7689 87.5346 63.813 87.5371 63.8571 87.5371C64.389 87.5371 64.8843 87.2496 65.2057 86.8001C65.3796 86.5575 65.6536 86.404 65.9437 86.404C65.9954 86.404 66.0472 86.4082 66.0989 86.4184C66.216 86.4413 66.3321 86.4523 66.4458 86.4523C66.7054 86.4523 66.9488 86.3921 67.1532 86.2657C67.6257 85.9714 67.6138 85.4429 67.3483 84.8789C67.2635 84.6974 67.333 84.4913 67.4992 84.3776C68.2177 83.8611 68.5078 83.1249 68.2542 82.5973L68.2974 82.6321C68.4263 82.7584 68.4883 82.9188 68.4874 83.0926C68.4866 83.3149 68.3831 83.5591 68.1897 83.778C68.4246 83.8288 68.6308 83.9289 68.786 84.0816C68.9726 84.2631 69.0616 84.4947 69.0625 84.7432C69.0625 84.9179 69.02 85.1011 68.9361 85.2835C68.8004 85.5812 68.5561 85.8747 68.216 86.1198L68.076 86.2131C68.2601 86.5074 68.3534 86.8145 68.3542 87.0978C68.3551 87.3861 68.2601 87.6491 68.0692 87.8475C68.0116 87.9069 67.9446 87.9612 67.8699 88.0079C67.6663 88.1351 67.4221 88.1945 67.1634 88.1945C66.8538 88.1945 66.5222 88.1088 66.21 87.9485C65.9819 88.7246 65.3126 89.2793 64.5739 89.2793Z" fill="#869E18"/>
<path d="M63.7439 80.7895C63.8788 81.1967 63.7838 81.5936 63.5328 81.6767C63.2809 81.7607 62.9679 81.4986 62.833 81.0923C62.6981 80.6852 62.7923 80.2883 63.0442 80.2051C63.2961 80.1212 63.6091 80.3832 63.7439 80.7895Z" fill="#AAC91F"/>
<path d="M61.5168 83.2284C61.6525 83.6355 61.5576 84.0325 61.3057 84.1165C61.0537 84.1996 60.7408 83.9375 60.6059 83.5312C60.4719 83.1249 60.566 82.7271 60.8171 82.644C61.069 82.56 61.382 82.8221 61.5168 83.2284Z" fill="#AAC91F"/>
<path d="M162.965 87.8473H2.00268C1.0366 87.8473 0.246094 88.6378 0.246094 89.6047C0.246094 90.5708 1.0366 91.3613 2.00268 91.3613H162.965C163.931 91.3613 164.723 90.5708 164.723 89.6047C164.723 88.6378 163.931 87.8473 162.965 87.8473Z" fill="#849632"/>
<defs>
<linearGradient id="paint0_linear_1039_4126" x1="67.9961" y1="42.3715" x2="73.6481" y2="42.3715" gradientUnits="userSpaceOnUse">
<stop stop-color="#4D7EDB"/>
<stop offset="1" stop-color="#86A3E3"/>
</linearGradient>
<linearGradient id="paint1_linear_1039_4126" x1="67.9961" y1="66.35" x2="73.6481" y2="66.35" gradientUnits="userSpaceOnUse">
<stop stop-color="#4D7EDB"/>
<stop offset="1" stop-color="#86A3E3"/>
</linearGradient>
<linearGradient id="paint2_linear_1039_4126" x1="91.2598" y1="42.3715" x2="96.9118" y2="42.3715" gradientUnits="userSpaceOnUse">
<stop stop-color="#4D7EDB"/>
<stop offset="1" stop-color="#86A3E3"/>
</linearGradient>
<linearGradient id="paint3_linear_1039_4126" x1="79.6261" y1="42.3715" x2="85.2781" y2="42.3715" gradientUnits="userSpaceOnUse">
<stop stop-color="#4D7EDB"/>
<stop offset="1" stop-color="#86A3E3"/>
</linearGradient>
<linearGradient id="paint4_linear_1039_4126" x1="91.2598" y1="66.35" x2="96.9118" y2="66.35" gradientUnits="userSpaceOnUse">
<stop stop-color="#4D7EDB"/>
<stop offset="1" stop-color="#86A3E3"/>
</linearGradient>
<linearGradient id="paint5_linear_1039_4126" x1="110.996" y1="42.3715" x2="116.648" y2="42.3715" gradientUnits="userSpaceOnUse">
<stop stop-color="#4D7EDB"/>
<stop offset="1" stop-color="#86A3E3"/>
</linearGradient>
<linearGradient id="paint6_linear_1039_4126" x1="110.996" y1="66.35" x2="116.648" y2="66.35" gradientUnits="userSpaceOnUse">
<stop stop-color="#4D7EDB"/>
<stop offset="1" stop-color="#86A3E3"/>
</linearGradient>
<linearGradient id="paint7_linear_1039_4126" x1="123.209" y1="42.3715" x2="128.861" y2="42.3715" gradientUnits="userSpaceOnUse">
<stop stop-color="#4D7EDB"/>
<stop offset="1" stop-color="#86A3E3"/>
</linearGradient>
<linearGradient id="paint8_linear_1039_4126" x1="123.209" y1="66.35" x2="128.861" y2="66.35" gradientUnits="userSpaceOnUse">
<stop stop-color="#4D7EDB"/>
<stop offset="1" stop-color="#86A3E3"/>
</linearGradient>
<linearGradient id="paint9_linear_1039_4126" x1="135.698" y1="42.3715" x2="141.35" y2="42.3715" gradientUnits="userSpaceOnUse">
<stop stop-color="#4D7EDB"/>
<stop offset="1" stop-color="#86A3E3"/>
</linearGradient>
<linearGradient id="paint10_linear_1039_4126" x1="135.698" y1="66.35" x2="141.35" y2="66.35" gradientUnits="userSpaceOnUse">
<stop stop-color="#4D7EDB"/>
<stop offset="1" stop-color="#86A3E3"/>
</linearGradient>
<linearGradient id="paint11_linear_1039_4126" x1="23.5059" y1="42.3716" x2="29.1579" y2="42.3716" gradientUnits="userSpaceOnUse">
<stop stop-color="#FFF8E2"/>
<stop offset="1" stop-color="#FFFAE9"/>
</linearGradient>
<linearGradient id="paint12_linear_1039_4126" x1="23.5059" y1="42.3715" x2="29.1578" y2="42.3715" gradientUnits="userSpaceOnUse">
<stop stop-color="#4D7EDB"/>
<stop offset="1" stop-color="#86A3E3"/>
</linearGradient>
<linearGradient id="paint13_linear_1039_4126" x1="23.5059" y1="66.3502" x2="29.1579" y2="66.3502" gradientUnits="userSpaceOnUse">
<stop stop-color="#FFF8E2"/>
<stop offset="1" stop-color="#FFFAE9"/>
</linearGradient>
<linearGradient id="paint14_linear_1039_4126" x1="23.5059" y1="66.35" x2="29.1578" y2="66.35" gradientUnits="userSpaceOnUse">
<stop stop-color="#4D7EDB"/>
<stop offset="1" stop-color="#86A3E3"/>
</linearGradient>
<linearGradient id="paint15_linear_1039_4126" x1="35.7168" y1="42.3715" x2="41.3688" y2="42.3715" gradientUnits="userSpaceOnUse">
<stop stop-color="#4D7EDB"/>
<stop offset="1" stop-color="#86A3E3"/>
</linearGradient>
<linearGradient id="paint16_linear_1039_4126" x1="35.7168" y1="66.35" x2="41.3688" y2="66.35" gradientUnits="userSpaceOnUse">
<stop stop-color="#4D7EDB"/>
<stop offset="1" stop-color="#86A3E3"/>
</linearGradient>
<linearGradient id="paint17_linear_1039_4126" x1="48.2051" y1="42.3715" x2="53.8571" y2="42.3715" gradientUnits="userSpaceOnUse">
<stop stop-color="#4D7EDB"/>
<stop offset="1" stop-color="#86A3E3"/>
</linearGradient>
<linearGradient id="paint18_linear_1039_4126" x1="48.2051" y1="66.35" x2="53.8571" y2="66.35" gradientUnits="userSpaceOnUse">
<stop stop-color="#4D7EDB"/>
<stop offset="1" stop-color="#86A3E3"/>
</linearGradient>
</defs>
</svg>
