<svg width="193" height="153" viewBox="0 0 193 153" fill="none" xmlns="http://www.w3.org/2000/svg">
<g clip-path="url(#clip0_515_0)">
<path d="M28.2642 138.314C65.9495 157.894 127.05 157.895 164.734 138.315C202.42 118.735 202.42 86.9902 164.734 67.4101C127.049 47.83 65.9486 47.83 28.2636 67.4097C-9.4213 86.9893 -9.4213 118.735 28.2642 138.314Z" fill="#F8F8F9"/>
<path d="M17.7433 106.209L5.49187 99.1736L5.4917 73.0444L17.7433 80.0795V106.209Z" fill="#E3E3E2"/>
<path d="M17.7432 80.0795L35.2453 70.0293L35.2456 96.159L17.7432 106.209V80.0795Z" fill="#EEEEEE"/>
<path d="M35.2454 70.0292L17.7433 80.0794L5.4917 73.0443L22.9936 62.9942L35.2454 70.0292Z" fill="#F8F8F9"/>
<path d="M19.4945 81.0841L33.4964 73.0445L33.8182 73.2292L33.8179 82.9079L19.816 90.9474L19.4941 90.7623L19.4945 81.0841Z" fill="#E3E3E2"/>
<path d="M19.8161 81.2692L33.8177 73.2292L33.8174 82.9079L19.8154 90.9474L19.8161 81.2692Z" fill="#F8F8F9"/>
<path d="M25.3041 79.758L27.685 78.3901C27.9942 78.2127 28.2448 78.2941 28.2448 78.5714C28.2448 78.8491 27.9942 79.218 27.685 79.3954L25.3038 80.7624C24.9946 80.9398 24.744 80.8593 24.7441 80.5816C24.7441 80.3039 24.9949 79.9354 25.3041 79.758Z" fill="#E3E3E2"/>
<path d="M19.1717 93.3302L33.1737 85.2906L33.173 94.9693L33.4952 95.1539L19.4934 103.194L19.1714 103.008L19.1717 93.3302Z" fill="#E3E3E2"/>
<path d="M19.494 93.5157L33.4958 85.4753L33.4955 95.154L19.4937 103.194L19.494 93.5157Z" fill="#F8F8F9"/>
<path d="M24.9826 92.0043L27.3635 90.6368C27.6727 90.4594 27.9233 90.5408 27.9233 90.8181C27.9233 91.0958 27.6727 91.4643 27.3635 91.6422L24.9821 93.0091C24.6731 93.1866 24.4225 93.1056 24.4229 92.8283C24.4229 92.5506 24.6736 92.1817 24.9826 92.0043Z" fill="#E3E3E2"/>
<path d="M17.7429 78.5718L5.49121 71.5367V45.4071L17.7428 52.4422L17.7429 78.5718Z" fill="#E3E3E2"/>
<path d="M17.7427 52.4422L35.2448 42.3924L35.2451 68.5221L17.7428 78.5718L17.7427 52.4422Z" fill="#EEEEEE"/>
<path d="M35.2449 42.3926L17.7428 52.4424L5.49121 45.4073L22.9933 35.3576L35.2449 42.3926Z" fill="#F8F8F9"/>
<path d="M19.4932 53.4472L33.495 45.4072L33.8168 45.5923L33.8165 55.2705L19.8148 63.3105L19.4927 63.1253L19.4932 53.4472Z" fill="#E3E3E2"/>
<path d="M25.3035 52.1206L27.6845 50.7532C27.9935 50.5758 28.2442 50.6568 28.2442 50.9344C28.2442 51.2121 27.9935 51.5811 27.6845 51.7585L25.3033 53.1255C24.9941 53.3029 24.7437 53.2219 24.7437 52.9447C24.7438 52.667 24.9945 52.298 25.3035 52.1206Z" fill="#E3E3E2"/>
<path d="M19.1709 65.6934L33.1727 57.6539L33.1723 67.3321L33.4942 67.5172L19.4925 75.5568L19.1704 75.3716L19.1709 65.6934Z" fill="#E3E3E2"/>
<path d="M19.4932 65.8785L33.4948 57.839L33.4943 67.5172L19.4927 75.5568L19.4932 65.8785Z" fill="#F8F8F9"/>
<path d="M24.9812 64.367L27.3624 63C27.6714 62.8226 27.922 62.9036 27.922 63.1809C27.922 63.4586 27.6714 63.8275 27.3621 64.0049L24.981 65.3724C24.6716 65.5498 24.4214 65.4688 24.4214 65.1911C24.4216 64.9134 24.6722 64.5449 24.9812 64.367Z" fill="#E3E3E2"/>
<path d="M19.493 53.4464L33.495 45.4064L33.4945 55.085L19.4927 63.1245L19.493 53.4464Z" fill="#E3E3E2"/>
<path d="M40.4956 50.1885L32.8315 45.7888L32.8311 54.3151L40.4952 58.7148L40.4956 50.1885Z" fill="#E3E3E2"/>
<path d="M24.7437 64.5016V52.4417L27.7482 50.7109L28.244 51.4368L36.995 46.4119L36.9952 57.4666L24.7437 64.5016Z" fill="#EEEEEE"/>
<path d="M24.7437 64.5016L25.6184 53.9492L37.8701 46.9146L36.9952 57.4666L24.7437 64.5016Z" fill="#F8F8F9"/>
<path d="M26.4946 58.2284L19.8148 54.3927L19.8145 62.9194L26.4942 66.7547L26.4946 58.2284Z" fill="#EEEEEE"/>
<path d="M26.4946 57.4666L40.4962 49.4266L40.4958 59.1053L26.4941 67.1448L26.4946 57.4666Z" fill="#F8F8F9"/>
<path d="M31.9822 55.9557L34.3632 54.5883C34.6724 54.4109 34.923 54.4919 34.923 54.7696C34.923 55.0468 34.6724 55.4158 34.3631 55.5932L31.982 56.9606C31.6727 57.138 31.4224 57.057 31.4224 56.7794C31.4225 56.5021 31.6732 56.1331 31.9822 55.9557Z" fill="#E3E3E2"/>
<path d="M26.4936 57.4666L26.0269 57.1988V66.877L26.4938 67.1448L26.4936 57.4666Z" fill="#E3E3E2"/>
<path d="M26.0269 57.1988L40.0287 49.1592L40.4952 49.4266L26.4936 57.4666L26.0269 57.1988Z" fill="#EEEEEE"/>
<path d="M162.464 90.3764L150.212 83.3417V57.2117L162.464 64.2467V90.3764Z" fill="#E3E3E2"/>
<path d="M162.463 64.2467L179.965 54.197L179.966 80.3266L162.463 90.3764V64.2467Z" fill="#EEEEEE"/>
<path d="M179.966 54.197L162.464 64.2468L150.212 57.2117L167.714 47.1624L179.966 54.197Z" fill="#F8F8F9"/>
<path d="M164.214 65.2516L178.215 57.2116L178.537 57.3967L178.537 67.0754L164.535 75.1149L164.213 74.9298L164.214 65.2516Z" fill="#E3E3E2"/>
<path d="M164.535 65.4367L178.537 57.3967L178.536 67.0754L164.535 75.1149L164.535 65.4367Z" fill="#F8F8F9"/>
<path d="M170.024 63.9251L172.405 62.5581C172.714 62.3803 172.964 62.4617 172.964 62.7389C172.964 63.0166 172.714 63.3851 172.405 63.563L170.023 64.93C169.714 65.1078 169.464 65.0268 169.464 64.7492C169.464 64.4715 169.715 64.1025 170.024 63.9251Z" fill="#E3E3E2"/>
<path d="M163.892 77.4984L177.894 69.4584L177.893 79.1366L178.215 79.3218L164.213 87.3617L163.892 87.1762L163.892 77.4984Z" fill="#E3E3E2"/>
<path d="M164.214 77.6835L178.215 69.6436L178.215 79.3218L164.213 87.3617L164.214 77.6835Z" fill="#F8F8F9"/>
<path d="M169.701 76.172L172.083 74.8046C172.392 74.6272 172.642 74.7082 172.642 74.9859C172.642 75.2631 172.392 75.6321 172.083 75.8099L169.701 77.1769C169.392 77.3543 169.142 77.2733 169.142 76.9961C169.142 76.7184 169.392 76.3495 169.701 76.172Z" fill="#E3E3E2"/>
<path d="M45.8939 117.689C45.8939 117.689 45.9447 110.892 41.636 105.797C37.819 101.284 35.7908 98.4207 36.9957 97.1026C38.2006 95.7845 40.7793 95.4661 44.2665 99.1132C47.754 102.76 48.0237 112.877 47.5424 115.166L45.8939 117.689Z" fill="#1AB2A6"/>
<path d="M45.7459 108.375C44.9497 107.859 44.0311 107.639 43.3029 107.55C43.1616 107.533 43.0221 107.515 42.8839 107.497C42.5147 106.917 42.1005 106.347 41.6349 105.797C38.5599 102.161 36.6456 99.5955 36.648 98.0468C36.6485 97.6731 36.7605 97.3586 36.9947 97.1023C37.4885 96.5619 38.2137 96.1896 39.1372 96.1896C40.4667 96.1896 42.2077 96.9605 44.2655 99.1129C44.8437 99.7172 45.3332 100.5 45.7459 101.394V106.409C43.8794 101.56 40.9377 98.6913 39.1367 97.293C39.0974 97.2622 39.0507 97.2476 39.0044 97.2476C38.9401 97.2476 38.8768 97.2759 38.8344 97.3299C38.7612 97.4233 38.7779 97.5583 38.8716 97.6311C40.7697 99.1044 43.9626 102.248 45.7459 107.693V108.375Z" fill="#06AB96"/>
<path d="M46.6369 110.382C46.5374 110.382 46.4478 110.313 46.4262 110.212C44.9186 103.197 41.0466 99.3183 38.8728 97.6312C38.7791 97.5583 38.7625 97.4233 38.8357 97.3299C38.9085 97.2374 39.0437 97.2202 39.138 97.2931C41.3579 99.0166 45.3111 102.974 46.8476 110.123C46.8726 110.238 46.7985 110.352 46.6822 110.377L46.6369 110.382Z" fill="white"/>
<path d="M45.7466 120.217L43.996 121.222C43.996 121.222 43.5483 119.659 41.6331 119.212C39.7179 118.765 37.7251 118.855 36.3836 117.202C35.0421 115.549 36.6752 113.751 36.3836 112.533C36.0919 111.314 35.8972 110.964 33.4947 109.748C31.0926 108.532 30.1425 106.512 31.9506 105.143C33.7588 103.773 36.6978 104.779 38.4667 105.98C40.0454 107.053 41.5446 107.335 43.3036 107.55C45.0629 107.765 47.9359 108.744 47.4968 112.814C47.0578 116.883 45.7466 120.217 45.7466 120.217Z" fill="#1AB2A6"/>
<path d="M39.0055 114.862C38.9143 114.862 38.8297 114.805 38.8004 114.714C38.764 114.601 38.8265 114.481 38.9396 114.445C39.0976 114.394 42.8272 113.223 44.4016 114.481C44.4947 114.556 44.5093 114.69 44.4348 114.783C44.3607 114.875 44.225 114.89 44.1319 114.815C42.7354 113.7 39.1077 114.841 39.0714 114.852L39.0055 114.862Z" fill="white"/>
<path d="M45.9451 119.887C45.8366 119.887 45.7431 119.805 45.7314 119.695C44.7719 110.671 33.8412 106.39 33.7312 106.347C33.6201 106.305 33.5645 106.181 33.6071 106.071C33.6499 105.96 33.7737 105.905 33.8855 105.948C33.9983 105.99 45.1722 110.363 46.1597 119.65C46.1722 119.768 46.0865 119.873 45.9684 119.886L45.9451 119.887Z" fill="white"/>
<path d="M153.111 114.283C153.161 114.136 155.009 104.671 153.111 97.9602C151.372 91.8075 149.14 89.5367 145.935 89.0362C142.73 88.5361 141.339 90.8304 143.041 93.9402C144.743 97.0496 148.838 101.181 149.845 108.131C150.259 110.992 150.603 113.478 150.603 113.478L153.111 114.283Z" fill="#1AB2A6"/>
<path d="M151.72 111.604C151.183 111.033 150.637 110.437 150.089 109.818C150.012 109.283 149.931 108.715 149.846 108.131C148.84 101.181 144.745 97.0495 143.043 93.9401C142.545 93.0308 142.311 92.1909 142.311 91.4706C142.31 89.9553 143.337 88.9676 145.095 88.9676C145.359 88.9676 145.64 88.9899 145.936 89.0361C149.141 89.5366 151.373 91.8074 153.113 97.9601C153.624 99.7668 153.864 101.774 153.939 103.744C153.906 103.743 153.873 103.743 153.84 103.743C152.412 103.743 151.199 104.493 151.227 108.036C151.237 109.196 151.443 110.445 151.72 111.604Z" fill="#06AB96"/>
<path d="M152.034 108.849L152.022 108.849C151.903 108.843 151.813 108.741 151.819 108.623C152.261 100.963 149.734 94.1211 145.224 90.7688C145.129 90.6981 145.109 90.5635 145.181 90.4688C145.252 90.3746 145.387 90.3549 145.482 90.4256C150.106 93.8627 152.699 100.845 152.249 108.648C152.243 108.762 152.148 108.849 152.034 108.849Z" fill="white"/>
<path d="M158.075 119.212C157.827 117.453 158.846 114.81 161.262 114.187C163.677 113.564 164.757 112.18 163.884 110.671C163.012 109.162 163.218 107.78 165.412 107.152C167.606 106.524 169.527 105.429 168.262 103.132C167.346 101.467 167.143 100.388 169.392 97.1025C171.256 94.3784 169.732 92.78 167.395 93.0825C165.059 93.3851 163.618 96.1473 162.16 96.6131C161.502 96.8235 161.072 96.4357 160.621 96.0479C160.071 95.5757 159.492 95.1034 158.435 95.7107C156.509 96.8167 156.628 99.6496 156.566 101.625C156.506 103.6 156.376 104.048 154.634 103.805C152.893 103.562 151.193 103.849 151.227 108.036C151.255 111.629 153.184 116.076 153.184 116.076L158.075 119.212Z" fill="#1AB2A6"/>
<path d="M155.019 116.533L154.995 116.532C154.876 116.519 154.792 116.413 154.805 116.295C156.018 105.498 165.335 96.3942 167.763 94.5469C167.857 94.4749 167.992 94.4929 168.065 94.5871C168.137 94.6814 168.119 94.8155 168.025 94.8875C165.627 96.7109 156.429 105.697 155.233 116.343C155.221 116.452 155.127 116.533 155.019 116.533Z" fill="white"/>
<path d="M159.267 104.995C159.179 104.995 159.098 104.941 159.065 104.855C159.024 104.744 159.08 104.621 159.192 104.579C162.668 103.293 166.605 103.899 166.771 103.926C166.888 103.945 166.968 104.055 166.949 104.171C166.931 104.288 166.817 104.366 166.702 104.349C166.664 104.342 162.709 103.735 159.342 104.981L159.267 104.995Z" fill="white"/>
<path d="M156.173 111.48C156.113 111.48 156.054 111.456 156.012 111.408C153.693 108.797 153.193 105.682 153.173 105.55C153.155 105.434 153.235 105.325 153.353 105.307C153.473 105.291 153.581 105.369 153.599 105.486C153.603 105.517 154.103 108.611 156.335 111.124C156.413 111.213 156.405 111.348 156.316 111.427C156.275 111.463 156.224 111.48 156.173 111.48Z" fill="white"/>
<path d="M45.7476 53.8885V120.217L114.006 81.0235L114.006 20.7242L63.2495 49.8686L61.4993 44.8437L45.7476 53.8885Z" fill="#1AB2A6"/>
<path d="M45.7476 120.217V53.8885L61.4993 44.8437L63.2495 49.8685L87.7518 35.7997V37.809L49.2475 59.9183L45.7476 120.217Z" fill="#0C3C35"/>
<path d="M45.7476 120.217L49.2475 59.9183L117.506 20.7242L114.006 81.0235L45.7476 120.217Z" fill="#E3E3E2"/>
<path d="M45.7476 120.217L50.9977 60.9232L119.256 21.7291L114.006 81.0235L45.7476 120.217Z" fill="#1AB2A6"/>
<path d="M45.7476 120.217L50.9977 60.9232L87.7518 39.8188V47.8592L73.7511 55.8987L72.0009 50.8734L56.2492 59.9183V114.187L45.7476 120.217Z" fill="#0C3C35"/>
<path d="M56.249 59.9181V126.247L124.508 87.053L124.507 26.7538L73.751 55.8985L72.0008 50.8732L56.249 59.9181Z" fill="#1AB2A6"/>
<path d="M56.249 126.247V59.9181L72.0008 50.8732L73.751 55.8985L87.7517 47.859V49.8688L59.749 65.9478L56.249 126.247Z" fill="#0D6F5E"/>
<path d="M56.249 126.247L59.749 65.9478L128.007 26.7538L124.508 87.053L56.249 126.247Z" fill="#E3E3E2"/>
<path d="M56.249 126.247L61.4992 66.9531L129.757 27.7587L124.508 87.053L56.249 126.247Z" fill="#1AB2A6"/>
<path d="M56.249 126.247L61.4992 66.9531L87.7517 51.8785V61.9283L86.0019 62.9332L84.2517 57.9083L68.4995 66.9531V119.212L56.249 126.247Z" fill="#0D6F5E"/>
<path d="M114.006 147.352C101.754 140.317 90.3876 132.669 85.1982 123.693L100.95 114.648L114.006 147.352Z" fill="#E3E3E2"/>
<path d="M68.499 66.9529V133.282L136.758 94.0874L136.757 33.7882L86.0014 62.9329L84.2512 57.9081L68.499 66.9529Z" fill="#1AB2A6"/>
<path d="M68.499 133.282V66.9532L84.2512 57.9083L86.0014 62.9332L87.7512 61.9283V75.9985L80.7508 80.018L68.4995 133.282H68.499Z" fill="#06AB96"/>
<path d="M88.1646 86.5639C87.9926 86.5639 87.9668 86.3664 87.9668 86.2485V29.6736C87.9668 29.2759 88.2594 28.7724 88.6053 28.5731L137.869 0.286285C137.952 0.238716 138.03 0.21344 138.095 0.21344C138.267 0.21344 138.293 0.41098 138.293 0.528824V57.1042C138.293 57.5014 138 58.0054 137.654 58.2042L88.3899 86.4915C88.3072 86.539 88.2292 86.5639 88.1646 86.5639Z" fill="white"/>
<path d="M138.095 -0.000389099C137.995 -0.000389099 137.882 0.0321732 137.762 0.100739L88.4982 28.3884C88.0859 28.625 87.752 29.2005 87.752 29.674V86.2489C87.752 86.5845 87.92 86.7786 88.1652 86.7786C88.2651 86.7786 88.3784 86.746 88.4982 86.6775L137.762 58.3902C138.175 58.1537 138.509 57.5777 138.509 57.1046V0.529259C138.509 0.193726 138.34 -0.000389099 138.095 -0.000389099ZM138.066 0.432846C138.072 0.453415 138.078 0.485123 138.078 0.529259V57.1046C138.078 57.4235 137.824 57.8597 137.546 58.0191L88.2828 86.3064C88.2431 86.3291 88.213 86.3402 88.1932 86.3458C88.188 86.3252 88.1828 86.2931 88.1828 86.2489V29.674C88.1828 29.3547 88.4357 28.9189 88.7137 28.7595L137.977 0.472275C138.017 0.449135 138.047 0.437988 138.066 0.432846Z" fill="#1AB2A6"/>
<path d="M87.752 75.9986V29.6739C87.752 29.2004 88.0859 28.6249 88.4982 28.3883L137.762 0.100639C137.882 0.032074 137.995 -0.000488281 138.095 -0.000488281C138.34 -0.000488281 138.509 0.193626 138.509 0.52916V46.8538L138.078 47.1011V0.52916C138.078 0.485023 138.072 0.453316 138.066 0.432747C138.047 0.437889 138.017 0.449036 137.977 0.472176L88.7137 28.7594C88.4357 28.9188 88.1828 29.3547 88.1828 29.6739V75.7509L87.752 75.9986Z" fill="#B0E4DC"/>
<path d="M93.0034 31.8318L110.505 21.7821V41.882L93.0034 51.9313V31.8318Z" fill="#1AB2A6"/>
<path d="M93.0034 51.9313V31.8318L110.505 21.7821V41.882L93.0034 51.9313Z" fill="#CCEEE7"/>
<path d="M107.88 26.8066V32.8364L107.331 33.141C107.331 33.141 107.331 32.314 107.331 31.2937C107.331 30.2738 106.496 29.9263 105.466 30.5176L98.0421 34.7801C97.0115 35.3719 96.1764 36.6785 96.1764 37.6988V39.5462L95.6279 39.8714V33.8412L107.88 26.8066Z" fill="white"/>
<path d="M104.503 42.1749C103.605 42.6904 102.878 42.1496 102.878 40.9656V31.2942L100.629 32.5112V42.2567C100.629 43.4403 99.9015 44.8172 99.0036 45.3331L97.3779 46.2664V46.9062L106.129 41.8818V41.2416C106.129 41.2416 105.401 41.6594 104.503 42.1749Z" fill="white"/>
<path d="M114.005 20.7769C114.005 21.3318 114.506 21.4942 115.124 21.1394L132.138 11.3699C132.756 11.0147 133.257 10.2772 133.257 9.72226C133.257 9.16732 132.756 9.00491 132.138 9.35973L115.124 19.1292C114.506 19.484 114.005 20.2219 114.005 20.7769Z" fill="#365462"/>
<path d="M114.005 26.8065C114.005 27.3614 114.506 27.5239 115.124 27.169L132.138 17.3996C132.756 17.0447 133.257 16.3068 133.257 15.7519C133.257 15.1969 132.756 15.0345 132.138 15.3894L115.124 25.1588C114.506 25.5141 114.005 26.2516 114.005 26.8065Z" fill="#365462"/>
<path d="M114.005 32.8361C114.005 33.3915 114.506 33.5534 115.124 33.1986L132.138 23.4296C132.756 23.0743 133.257 22.3368 133.257 21.7815C133.257 21.2265 132.756 21.0646 132.138 21.4194L115.124 31.1884C114.506 31.5437 114.005 32.2816 114.005 32.8361Z" fill="#365462"/>
<path d="M114.005 38.8665C114.005 39.4215 114.506 39.5834 115.124 39.2286L132.138 29.4596C132.756 29.1048 133.257 28.3668 133.257 27.8115C133.257 27.2565 132.756 27.0941 132.138 27.4494L115.124 37.2188C114.506 37.5737 114.005 38.3116 114.005 38.8665Z" fill="#365462"/>
<path d="M93.0034 56.958C93.0034 57.5133 93.5045 57.6753 94.1228 57.3205L132.139 35.4898C132.757 35.1346 133.258 34.3971 133.258 33.8417C133.258 33.2868 132.757 33.1244 132.139 33.4796L94.1224 55.3103C93.5045 55.6651 93.0034 56.403 93.0034 56.958Z" fill="#365462"/>
<path d="M93.0034 62.988C93.0034 63.543 93.5045 63.7054 94.1228 63.3501L132.139 41.5194C132.757 41.1642 133.258 40.4267 133.258 39.8713C133.258 39.3164 132.757 39.154 132.139 39.5092L94.1224 61.3399C93.5045 61.6952 93.0034 62.4327 93.0034 62.988Z" fill="#365462"/>
<path d="M93.0034 69.0175C93.0034 69.5724 93.5045 69.7349 94.1228 69.3796L132.139 47.5489C132.757 47.1941 133.258 46.4562 133.258 45.9012C133.258 45.3459 132.757 45.1839 132.139 45.5387L94.1224 67.3698C93.5045 67.7247 93.0034 68.4626 93.0034 69.0175Z" fill="#365462"/>
<path d="M68.5 133.282L80.7514 80.018L149.01 40.8239L136.758 94.0877L68.5 133.282Z" fill="#1AB2A6"/>
<path d="M85.1982 84.1896V123.693L100.95 114.648L100.951 75.1452L85.1982 84.1896Z" fill="#1AB2A6"/>
<path d="M85.1982 123.693V84.1897L86.0018 83.7286C86.0018 83.7311 86.0018 83.7333 86.0018 83.7359C86.0018 90.0913 86.1121 105.754 91.9035 119.843L85.1982 123.693Z" fill="#06AB96"/>
<path d="M114.021 147.096C112.682 146.104 99.7653 136.284 93.1988 122.258C86.2092 107.329 86.2157 89.9156 86.2179 83.3604V83.1565L133.043 56.2696C133.04 62.8843 133.05 80.3222 140.064 95.3047C146.478 109.004 158.901 118.712 160.871 120.195L114.021 147.096Z" fill="white"/>
<path d="M133.257 55.8985L86.0016 83.0326C86.0016 89.1973 85.8706 107.115 93.0028 122.349C100.004 137.302 114.006 147.352 114.006 147.352L161.262 120.218C161.262 120.218 147.259 110.167 140.259 95.2142C133.127 79.9807 133.257 62.0632 133.257 55.8985ZM132.827 56.6407C132.827 63.5305 132.961 80.6427 139.868 95.3955C146.067 108.634 157.856 118.157 160.483 120.17L114.035 146.84C112.22 145.479 99.7878 135.825 93.3937 122.168C86.4243 107.281 86.4303 89.9027 86.4325 83.3604V83.2803L132.827 56.6407Z" fill="#1AB2A6"/>
<path d="M114.006 147.352C114.006 147.352 100.004 137.302 93.0032 122.349C92.6154 121.52 92.2496 120.685 91.9036 119.843C86.1123 105.754 86.002 90.0912 86.002 83.7358C86.002 83.4868 86.002 83.2524 86.002 83.0326L133.258 55.8985C133.258 56.1183 133.258 56.3527 133.258 56.6017C133.258 63.3368 133.381 80.5236 140.259 95.2142C147.26 110.167 161.262 120.218 161.262 120.218L114.006 147.352ZM86.4328 83.7457C86.4328 90.5639 86.5573 107.565 93.394 122.168C99.7881 135.825 112.22 145.479 114.036 146.84L160.483 120.17C157.856 118.157 146.067 108.634 139.869 95.3955C132.962 80.6427 132.827 63.5305 132.827 56.6407L86.4328 83.2803V83.3604C86.4328 83.4851 86.4328 83.6133 86.4328 83.7457Z" fill="#B0E4DC"/>
<path d="M127.913 64.9964L112.968 73.578C112.35 73.9332 111.862 74.6609 111.882 75.2042C111.904 75.7472 112.425 75.8997 113.044 75.5445L127.989 66.9629C128.607 66.608 129.088 65.88 129.067 65.337C129.046 64.7941 128.531 64.6416 127.913 64.9964Z" fill="#365462"/>
<path d="M128.232 70.8438L113.287 79.4254C112.668 79.7802 112.2 80.4972 112.246 81.026C112.292 81.5548 112.835 81.6949 113.453 81.3401L128.398 72.7585C129.017 72.4032 129.476 71.6876 129.43 71.1588C129.385 70.6304 128.85 70.489 128.232 70.8438Z" fill="#365462"/>
<path d="M128.829 76.5315L113.884 85.1131C113.265 85.4679 112.819 86.172 112.893 86.6849C112.966 87.1979 113.531 87.3256 114.15 86.9703L129.095 78.3887C129.713 78.0334 130.15 77.3302 130.077 76.8177C130.003 76.3048 129.447 76.1762 128.829 76.5315Z" fill="#365462"/>
<path d="M129.725 82.046L114.78 90.6276C114.162 90.9828 113.738 91.674 113.84 92.1707C113.941 92.6678 114.529 92.7813 115.148 92.4265L130.093 83.8449C130.711 83.4897 131.125 82.8006 131.024 82.3039C130.922 81.8073 130.343 81.6911 129.725 82.046Z" fill="#365462"/>
<path d="M130.94 87.3784L115.995 95.96C115.377 96.3148 114.978 96.9923 115.11 97.471C115.243 97.9505 115.857 98.0499 116.474 97.6947L131.42 89.113C132.038 88.7578 132.427 88.0833 132.294 87.6042C132.162 87.1251 131.559 87.0236 130.94 87.3784Z" fill="#365462"/>
<path d="M132.496 92.5155L96.0707 113.431C95.4524 113.786 95.0801 114.448 95.2477 114.907C95.4145 115.366 96.0565 115.449 96.6748 115.094L133.1 94.1786C133.718 93.8233 134.079 93.1651 133.911 92.7057C133.744 92.2468 133.113 92.1602 132.496 92.5155Z" fill="#365462"/>
<path d="M134.437 97.4216L98.0121 118.337C97.3938 118.692 97.0547 119.336 97.2594 119.774C97.4632 120.212 98.1336 120.277 98.7515 119.922L135.176 99.0067C135.795 98.6518 136.127 98.0108 135.923 97.5733C135.718 97.1353 135.055 97.0667 134.437 97.4216Z" fill="#365462"/>
<path d="M136.812 102.099L100.387 123.014C99.769 123.369 99.461 123.996 99.7057 124.41C99.9509 124.824 100.657 124.869 101.275 124.514L137.7 103.598C138.318 103.244 138.615 102.624 138.37 102.209C138.124 101.794 137.43 101.743 136.812 102.099Z" fill="#365462"/>
<path d="M139.617 106.518L103.192 127.433C102.574 127.788 102.297 128.398 102.579 128.791C102.861 129.184 103.595 129.212 104.213 128.857L140.638 107.941C141.257 107.586 141.525 106.983 141.243 106.59C140.96 106.197 140.235 106.163 139.617 106.518Z" fill="#365462"/>
<path d="M142.795 110.721L106.37 131.637C105.751 131.992 105.501 132.587 105.816 132.961C106.13 133.335 106.89 133.348 107.509 132.992L143.934 112.077C144.552 111.722 144.795 111.134 144.48 110.76C144.165 110.386 143.413 110.366 142.795 110.721Z" fill="#365462"/>
<path d="M146.316 114.727L109.892 135.643C109.273 135.998 109.048 136.578 109.393 136.935C109.737 137.292 110.521 137.29 111.14 136.936L147.565 116.021C148.183 115.665 148.401 115.092 148.057 114.735C147.711 114.378 146.935 114.372 146.316 114.727Z" fill="#365462"/>
<path d="M150.166 118.551L113.741 139.466C113.124 139.821 112.922 140.389 113.296 140.729C113.67 141.069 114.479 141.053 115.097 140.698L151.522 119.783C152.14 119.428 152.334 118.868 151.96 118.527C151.586 118.187 150.785 118.196 150.166 118.551Z" fill="#365462"/>
<path d="M107.554 76.6879L90.3701 86.555C90.5614 92.7446 91.2711 101.679 93.8757 110.671L111.06 100.804C108.455 91.8113 107.745 82.8779 107.554 76.6879Z" fill="#1AB2A6"/>
<path d="M93.8757 110.671C91.2767 101.698 90.5644 92.7823 90.3714 86.594C90.4218 88.2194 90.5101 90.0372 90.6575 91.9904C90.8152 92.0161 90.9794 92.0294 91.1496 92.0294C91.7097 92.0294 92.3327 91.8872 92.9915 91.5816C95.4143 90.4576 97.3787 87.5933 97.3787 85.1838C97.3787 84.2256 97.0646 83.4885 96.5389 83.0129L90.3701 86.555L107.554 76.6879C107.703 81.5109 108.167 87.9996 109.596 94.8842C108.448 93.4388 106.123 89.0165 105.129 87.0873C105.048 86.93 104.898 86.855 104.749 86.855C104.572 86.855 104.395 86.9604 104.333 87.1597C102.612 92.6529 102.468 98.4093 102.468 98.4093C101.087 97.3221 100.094 96.2405 98.8208 94.3713C98.7428 94.2573 98.6243 94.2042 98.5071 94.2042C98.3447 94.2042 98.1844 94.3057 98.1366 94.4891C97.1986 98.0806 96.9637 101.642 96.9633 104.309C96.9633 106.977 97.1981 108.75 97.1998 108.763L93.8757 110.671ZM90.371 86.5932C90.371 86.5902 90.371 86.5872 90.371 86.5842C90.371 86.5872 90.371 86.5902 90.371 86.5932Z" fill="#CCEEE7"/>
<path d="M97.3787 85.1838C97.3787 84.2256 97.0646 83.4886 96.5389 83.0129L90.3701 86.5551C90.4205 88.1903 90.5089 90.0218 90.6575 91.9905C91.334 92.101 92.1328 91.9798 92.9915 91.5817C95.4143 90.4576 97.3787 87.5934 97.3787 85.1838Z" fill="#1AB2A6"/>
<path d="M91.1496 92.0295C90.9794 92.0295 90.8152 92.0163 90.6575 91.9905C90.5089 90.0219 90.4205 88.1904 90.3701 86.5552L96.5389 83.013C97.0646 83.4886 97.3787 84.2257 97.3787 85.1839C97.3787 87.5935 95.4143 90.4577 92.9915 91.5817C92.3327 91.8873 91.7097 92.0295 91.1496 92.0295Z" fill="#96DBD0"/>
<path d="M109.601 94.8918L109.601 94.8913C108.455 93.4532 106.124 89.0197 105.128 87.0875C104.951 86.7442 104.447 86.7922 104.332 87.1599C102.611 92.6532 102.467 98.4095 102.467 98.4095C101.086 97.3223 100.093 96.2407 98.8198 94.3715C98.6349 94.1003 98.2183 94.1727 98.1356 94.4894C96.2561 101.686 97.1988 108.763 97.1988 108.763L111.059 100.805C110.484 98.8205 110.006 96.8415 109.601 94.8918Z" fill="#1AB2A6"/>
<path d="M97.199 108.763C97.1972 108.751 96.9624 106.977 96.9624 104.309C96.9628 101.642 97.1977 98.0808 98.1357 94.4894C98.1835 94.306 98.3438 94.2044 98.5062 94.2044C98.6234 94.2044 98.7419 94.2575 98.8199 94.3715C100.093 96.2407 101.086 97.3223 102.467 98.4095C102.467 98.4095 102.611 92.6532 104.332 87.1599C104.394 86.9606 104.571 86.8552 104.748 86.8552C104.897 86.8552 105.047 86.9302 105.128 87.0875C106.124 89.0197 108.455 93.4532 109.601 94.8913L109.602 94.8918C110.006 96.8415 110.484 98.8205 111.059 100.805L97.199 108.763Z" fill="#96DBD0"/>
</g>
<defs>
<clipPath id="clip0_515_0">
<rect width="193" height="153" fill="white"/>
</clipPath>
</defs>
</svg>
