<svg width="67" height="73" viewBox="0 0 67 73" fill="none" xmlns="http://www.w3.org/2000/svg">
<path d="M60.8979 72.5879L16.5959 68.527L16.6754 67.6597L60.1715 71.6463L65.9225 8.90503L63.6717 5.05696L63.2335 4.30748L63.4189 4.32431L66.6485 9.84626L60.8979 72.5879ZM16.0437 65.6874L14.8118 65.6703L14.8247 64.7393L16.1289 64.7574L16.0437 65.6874ZM4.70723 63.2875L4.63281 62.2971L14.1292 61.5836L14.1153 62.5806L4.70723 63.2875Z" fill="#D8D8D8"/>
<path d="M60.169 71.6465L15.8672 67.5859L21.6181 4.84423L65.92 8.90516L60.169 71.6465Z" fill="#FFA361"/>
<path d="M21.6234 4.84464L21.5703 5.42449L24.5993 10.6831L43.2687 12.3942L61.9786 14.1094L65.8706 9.50391L65.9254 8.90557L21.6234 4.84464Z" fill="#FF7510"/>
<path d="M43.7683 6.87499L21.6172 4.84436L24.8468 10.3663L43.2931 12.0573L61.7394 13.748L65.9191 8.90529L43.7683 6.87499Z" fill="#FF8B38"/>
<path d="M43.7683 6.874L65.9191 8.9043L62.6895 3.38236L44.2432 1.69132L25.7969 0.000614166L21.6172 4.84337L43.7683 6.874Z" fill="#FFA361"/>
<path d="M63.232 4.30859L62.6914 3.3842L63.232 4.30859Z" fill="#AED3E7"/>
<path d="M63.6687 5.05664L63.2305 4.30716L63.6687 5.05664Z" fill="#AACBDC"/>
<path d="M24.5308 1.4707L25.7977 0.0027653L24.5308 1.4707Z" fill="#AED3E7"/>
<path d="M63.6692 5.05664L24.5308 1.46896L25.7977 0.00102472L44.244 1.69173L62.6903 3.38277L63.2309 4.30716L63.6692 5.05664Z" fill="#FFA361"/>
<path d="M54.4507 65.291L14.083 64.731L14.8197 11.6247L55.1876 12.1847L54.4507 65.291Z" fill="white"/>
<path d="M52.3093 19.1441L17.5034 18.6613L17.4922 19.4547L52.2984 19.9375L52.3093 19.1441Z" fill="#DDDDDD"/>
<path d="M52.2673 22.2499L17.4611 21.7671L17.4502 22.5601L52.2561 23.043L52.2673 22.2499Z" fill="#DDDDDD"/>
<path d="M42.416 25.2226L17.4175 24.8757L17.4062 25.6691L42.4052 26.0156L42.416 25.2226Z" fill="#DDDDDD"/>
<path d="M52.18 28.4648L17.3742 27.9819L17.3633 28.775L52.1691 29.2578L52.18 28.4648Z" fill="#DDDDDD"/>
<path d="M51.9255 46.9859L17.1193 46.5031L17.1084 47.2965L51.9143 47.7793L51.9255 46.9859Z" fill="#DDDDDD"/>
<path d="M51.8835 50.0917L17.0776 49.6089L17.0664 50.4019L51.8726 50.8848L51.8835 50.0917Z" fill="#DDDDDD"/>
<path d="M52.0915 34.8355L17.2853 34.3527L17.2744 35.1461L52.0803 35.6289L52.0915 34.8355Z" fill="#DDDDDD"/>
<path d="M47.0216 37.8726L17.2462 37.4598L17.2354 38.2528L47.0107 38.666L47.0216 37.8726Z" fill="#DDDDDD"/>
<path d="M52.0082 41.0504L17.2023 40.5676L17.1914 41.3609L51.9973 41.8438L52.0082 41.0504Z" fill="#DDDDDD"/>
<path d="M40.8111 43.9996L17.1584 43.6715L17.1475 44.4646L40.8002 44.793L40.8111 43.9996Z" fill="#DDDDDD"/>
<path d="M39.9135 61.6269C39.8251 61.6256 39.7323 61.586 39.6713 61.5233L39.6644 61.5164L39.6561 61.5108C39.6376 61.4979 39.6317 61.486 39.6284 61.4725L39.6257 61.4623L39.6215 61.4524C39.6059 61.42 39.5987 61.3887 39.599 61.3566C39.601 61.1514 39.636 60.9497 39.67 60.7794L39.6713 60.7735L39.6719 60.7676C39.7099 60.3068 39.7647 59.7306 39.834 59.0551L39.8346 59.0501V59.0452C39.8356 58.9178 39.8383 58.7679 39.8488 58.6208C39.8686 58.3478 39.9026 58.067 39.9353 57.7957C39.9779 57.4455 40.0218 57.0838 40.0366 56.7264L40.0538 56.3231L39.8436 56.6677C39.7053 56.8944 39.5155 57.1885 39.2743 57.4488C39.0373 57.7053 38.7809 57.9518 38.5327 58.1901C38.2426 58.4689 37.9426 58.7571 37.669 59.0653C37.6093 59.1326 37.539 59.166 37.4608 59.165C37.4542 59.165 37.4479 59.1646 37.4413 59.164C37.4133 59.1617 37.3849 59.16 37.3565 59.1597C37.1958 59.1574 37.0255 59.1891 36.8512 59.2537C36.838 59.2587 36.8258 59.2607 36.8133 59.2603C36.7701 59.26 36.7311 59.232 36.7166 59.191C36.6971 59.1369 36.7255 59.0772 36.7796 59.0577C36.8344 59.0379 36.9357 58.9821 37.1839 58.7267L37.1902 58.7201L37.2024 58.7019C37.2093 58.6917 37.2153 58.6828 37.2215 58.6759C37.3047 58.5821 37.3948 58.4904 37.4819 58.402L37.4869 58.3967L37.4888 58.3947C37.7093 58.1442 37.971 57.829 38.267 57.4581C39.1921 56.2987 40.2317 54.8552 40.327 54.5974C40.3558 54.5159 40.3967 54.5166 40.4102 54.5169C40.4303 54.5169 40.4541 54.5245 40.4785 54.5387C40.5277 54.5671 40.5455 54.6285 40.5188 54.6783L40.5171 54.6819L40.5155 54.6852C40.5138 54.6895 40.5115 54.6941 40.5092 54.6988L40.4977 54.7215L40.498 54.7466C40.4993 54.8793 40.4828 55.0572 40.4663 55.2139L40.4633 55.2446L40.4772 55.272C40.4891 55.2954 40.497 55.3166 40.502 55.3383C40.6732 56.0958 40.6191 56.8195 40.5429 57.5561L40.5043 57.9303L40.73 57.6294C40.7805 57.5624 40.8095 57.5512 40.8148 57.5495C40.8389 57.5422 40.861 57.5386 40.8808 57.5389C40.9082 57.5393 40.9917 57.5406 41.0567 57.7363L41.0623 57.7525L41.0722 57.766C41.0907 57.7904 41.1036 57.8125 41.1128 57.835C41.2009 58.0482 41.224 58.2637 41.2419 58.4838L41.2676 58.8042L41.4349 58.5297C41.4894 58.4399 41.5425 58.3379 41.597 58.2175L41.5989 58.2132C41.5989 58.2132 41.6534 58.0561 41.6795 57.9808C41.7405 57.8063 41.8904 57.37 41.9247 57.2683C41.9445 57.2102 42.0808 57.1492 42.2663 57.1518C42.4224 57.1541 42.5266 57.199 42.561 57.2426C42.5735 57.2588 42.5768 57.2743 42.5715 57.2967C42.5286 57.4868 42.3976 58.0013 42.3514 58.1769L42.5319 58.2706L42.5382 58.2633C42.6055 58.1831 42.6695 58.1072 42.7177 58.0637C42.8893 57.9089 43.0837 57.8178 43.2893 57.7214C43.319 57.7076 43.3497 57.7007 43.3798 57.7013C43.4629 57.7023 43.553 57.7597 43.6213 57.8541L43.6359 57.8746L43.658 57.8858C43.6725 57.8934 43.684 57.9036 43.6939 57.9181L43.7484 57.9983L43.9857 57.862L43.9969 57.8492C44.0563 57.7825 44.1259 57.7492 44.2042 57.7502C44.2335 57.7505 44.2636 57.7558 44.2933 57.766L44.3249 57.7769L44.357 57.7676C45.7586 57.3521 47.3473 56.8812 48.9453 56.7479C49.1212 56.7334 49.3967 56.7165 49.7089 56.7211C50.4624 56.7314 51.4224 56.8604 51.7161 57.4149C51.7699 57.5168 51.7769 57.6544 51.7326 57.7498C51.7036 57.8132 51.6541 57.8528 51.5858 57.868C51.3541 57.9195 51.1614 57.9327 50.9386 57.9482C50.733 57.962 50.5003 57.9782 50.1941 58.0277C49.6492 58.1158 49.1918 58.2287 48.7103 58.394C48.4275 58.4911 48.1304 58.5881 47.8436 58.6818C47.0493 58.9412 46.2282 59.2095 45.4836 59.5455C44.8932 59.8118 44.613 59.9342 44.4276 60.0151C44.1157 60.1514 44.1157 60.1514 43.4134 60.5016C43.2411 60.5874 43.0266 60.6946 42.7544 60.8299C42.6511 60.8814 42.5524 60.9081 42.4692 60.9068C42.2854 60.9045 42.2359 60.7712 42.227 60.66L42.2263 60.654L42.2253 60.6484C42.1834 60.4339 42.2613 60.3616 42.3379 60.3105C42.8134 59.9937 42.8557 59.9762 43.1303 59.863C43.2534 59.8121 43.422 59.7428 43.6926 59.6207C44.1504 59.4141 44.6404 59.2098 45.149 59.0135C46.2196 58.6 48.5189 57.8508 49.64 57.57L49.6634 57.5703C49.6845 57.5706 49.6848 57.5706 49.8211 57.5254C49.9845 57.4663 50.0274 57.4505 50.0129 57.3634L49.9984 57.2779L49.9116 57.2766C49.8911 57.2762 49.8885 57.2762 49.7627 57.3198C49.6825 57.3135 49.599 57.3096 49.5145 57.3086C48.9311 57.3003 48.3235 57.4185 47.8354 57.5135C46.7694 57.7208 45.68 57.9931 44.4068 58.3706C44.3827 58.3779 44.3579 58.3818 44.3299 58.3835L44.2675 58.3874L44.2414 58.4439C44.1616 58.6158 43.7342 58.7534 43.152 58.7947L43.1451 58.795L43.1385 58.7963C43.1246 58.7993 43.1121 58.8006 43.0979 58.8003H43.0953L43.0831 58.7993C43.0316 58.7953 43.0147 58.7792 43.0091 58.7739L42.9336 58.7009L42.8365 58.8029C42.5864 59.066 42.3504 59.3141 41.9861 59.3237C41.9814 59.3237 41.9765 59.3237 41.9719 59.3237C41.8867 59.3227 41.8085 59.2894 41.7518 59.2303L41.6772 59.1531L41.6019 59.23C41.4679 59.3673 41.3184 59.4739 41.1452 59.5554C41.1204 59.5673 41.0917 59.5729 41.0607 59.5725C41.0039 59.5716 40.9409 59.5501 40.8874 59.5131L40.765 59.4283L40.727 59.5722C40.6934 59.7006 40.6551 59.8461 40.6188 59.9904C40.5858 60.1214 40.5581 60.2521 40.531 60.3781C40.4432 60.7913 40.36 61.1817 40.1115 61.5329C40.0554 61.6121 39.9729 61.6276 39.9135 61.6269Z" fill="#5A8BC9"/>
<path d="M4.44117 61.8096L43.7023 58.8589L39.7972 6.89436L0.536063 9.84475L4.44117 61.8096Z" fill="white" stroke="#DDDDDD"/>
<path d="M37.8912 11.9969L3.17969 14.6054L3.23912 15.3965L37.9506 12.788L37.8912 11.9969Z" fill="#DDDDDD"/>
<path d="M38.1254 15.0965L3.41406 17.705L3.4735 18.4961L38.1848 15.8876L38.1254 15.0965Z" fill="#DDDDDD"/>
<path d="M28.576 18.9291L3.64502 20.8027L3.70446 21.5938L28.6354 19.7202L28.576 18.9291Z" fill="#DDDDDD"/>
<path d="M38.5908 21.2938L3.87939 23.9023L3.93883 24.6934L38.6502 22.0849L38.5908 21.2938Z" fill="#DDDDDD"/>
<path d="M40.0548 40.786L5.34326 43.3945L5.40273 44.1855L40.1142 41.577L40.0548 40.786Z" fill="#DDDDDD"/>
<path d="M40.289 43.8836L5.57764 46.4921L5.63711 47.2832L40.3484 44.6747L40.289 43.8836Z" fill="#DDDDDD"/>
<path d="M38.9733 26.3368L4.26172 28.9453L4.32119 29.7363L39.0327 27.1278L38.9733 26.3368Z" fill="#DDDDDD"/>
<path d="M39.1997 29.4344L4.48828 32.0429L4.54775 32.834L39.2591 30.2255L39.1997 29.4344Z" fill="#DDDDDD"/>
<path d="M39.4352 32.534L4.72363 35.1425L4.7831 35.9336L39.4946 33.3251L39.4352 32.534Z" fill="#DDDDDD"/>
<path d="M28.5464 36.4657L4.95801 38.2382L5.01748 39.0293L28.6061 37.2567L28.5464 36.4657Z" fill="#DDDDDD"/>
<path d="M31.3916 51.7626L32.1573 50.8936L34.4684 52.8817L38.5112 48.2201L39.36 48.9323L34.5588 54.5137L31.3916 51.7626Z" fill="#76C44D"/>
<path d="M34.4901 56.9819C33.1723 57.0809 31.8948 56.6608 30.8928 55.7991C29.8912 54.9374 29.2846 53.7367 29.1856 52.419C29.0866 51.1012 29.5067 49.8237 30.3684 48.822C31.2304 47.8201 32.4307 47.2138 33.7485 47.1148C34.9538 47.0244 36.1286 47.3693 37.087 48.0897L36.7118 48.5224C35.8699 47.9016 34.8432 47.6053 33.7914 47.6845C31.3849 47.8653 29.5744 49.9699 29.7552 52.3764C29.9361 54.7826 32.041 56.5931 34.4472 56.4122C36.8517 56.2317 38.6612 54.1301 38.4837 51.7262L38.9837 51.1447C39.0163 51.321 39.0394 51.4989 39.053 51.6777C39.152 52.9955 38.7319 54.2727 37.8702 55.2747C37.0081 56.2766 35.8079 56.8829 34.4901 56.9819Z" fill="#76C44D"/>
<path d="M16.0312 65.8145L16.0429 65.6881L16.0313 65.8145" fill="#4387AB"/>
<path d="M16.043 65.6875L16.1282 64.7575L16.043 65.6875Z" fill="#3B7797"/>
<path d="M55.652 66.3633L16.0312 65.8135L16.0429 65.6871L16.1281 64.7571L54.4524 65.2887L55.1712 13.4847L56.384 13.5959L55.652 66.3633Z" fill="#D8B452"/>
<path d="M56.3847 13.5957L55.1719 13.4845L55.1752 13.2399L56.3893 13.2568L56.3847 13.5957Z" fill="#AE892E"/>
<path d="M41.8003 11.998L40.6805 11.9825L40.668 11.8172L41.7943 11.9205L41.8003 11.998Z" fill="#AE892E"/>
<path d="M41.7971 11.9199L40.6707 11.8166L40.5978 10.845L40.3477 7.51742L41.4602 7.43392L41.7971 11.9199Z" fill="#BB972F"/>
<path d="M41.8024 11.998L40.6826 11.9825L41.8024 11.998Z" fill="#D8D8D8"/>
<path d="M40.6792 11.9805L40.5938 10.8435L40.6667 11.8151L40.6792 11.9805Z" fill="#D8D8D8"/>
<path d="M41.8819 13.0566L40.7622 13.0411L40.6826 11.9821L41.8024 11.9976L41.8819 13.0566Z" fill="#D8D8D8"/>
<path d="M40.7622 13.041L40.6826 11.982L40.7622 13.041Z" fill="#D8D8D8"/>
<path d="M14.1123 62.75L14.1285 61.584L15.344 61.4926L15.3278 62.6586L14.1123 62.75Z" fill="#D8D8D8"/>
<path d="M15.3271 62.6582L15.3433 61.4922L39.7754 59.6563C39.7341 60.0778 39.6998 60.45 39.6737 60.7675L39.6731 60.7734L39.6717 60.7794C39.6684 60.7959 39.6651 60.8124 39.6622 60.8295L15.3271 62.6582ZM40.4433 60.7708C40.4767 60.6424 40.5044 60.5114 40.5328 60.3781C40.5598 60.252 40.5876 60.1213 40.6206 59.9903C40.6555 59.8507 40.6925 59.7101 40.7255 59.5847L41.0011 59.5639C41.0219 59.5692 41.0427 59.5722 41.0625 59.5725C41.0635 59.5725 41.0644 59.5725 41.0658 59.5725C41.0955 59.5725 41.1229 59.5665 41.1469 59.5553C41.1489 59.5543 41.1509 59.5537 41.1526 59.5527L44.2379 59.3207L44.1779 58.5243C44.2082 58.4986 44.2304 58.4715 44.2432 58.4438L44.2693 58.3874L44.3317 58.3834C44.3597 58.3818 44.3845 58.3778 44.4086 58.3705C44.7036 58.2831 44.9891 58.2012 45.2666 58.1243L45.3283 58.9461C45.266 58.9692 45.2069 58.9916 45.1508 59.0134C44.6422 59.2098 44.1521 59.4141 43.6944 59.6207C43.4238 59.7428 43.2551 59.8121 43.132 59.8629C42.8575 59.9761 42.8152 59.9936 42.3397 60.3104C42.2647 60.3606 42.1878 60.4312 42.2248 60.6368L40.4433 60.7708ZM43.3073 60.5553C43.3449 60.5365 43.3809 60.5187 43.4152 60.5015C44.1175 60.1513 44.1175 60.1513 44.4294 60.015C44.6029 59.9391 44.8597 59.8273 45.3769 59.5943L45.4372 60.3952L43.3073 60.5553ZM44.3267 57.7768L44.295 57.7659C44.2653 57.7557 44.2353 57.7504 44.2059 57.7501C44.2046 57.7501 44.2033 57.7501 44.202 57.7501C44.1739 57.7501 44.1469 57.7547 44.1208 57.7636L43.5954 50.7711L44.7152 50.7866L45.2208 57.5148C44.9267 57.599 44.6389 57.6844 44.3587 57.7676L44.3267 57.7768ZM44.6554 49.9923L43.5357 49.9767L43.3614 47.6603L44.4812 47.6762L44.6554 49.9923ZM44.4214 46.8818L43.3017 46.8663L42.9149 41.7159L44.0347 41.7315L44.4214 46.8818ZM43.9749 40.9374L42.8551 40.9219L42.6809 38.6055L43.8007 38.621L43.9749 40.9374ZM43.7413 37.827L42.6215 37.8114L42.4472 35.495L43.567 35.5105L43.7413 37.827ZM43.5073 34.7165L42.3875 34.7006L41.9677 29.1153L43.0875 29.1308L43.5073 34.7165ZM43.0281 28.3368L41.9083 28.3213L41.7341 26.0049L42.4063 26.0141L42.4172 25.2211L41.6743 25.2108L41.5004 22.8944L42.6202 22.9099L43.0281 28.3368ZM42.5604 22.1159L41.4407 22.1004L41.2668 19.7839L42.3862 19.7994L42.5604 22.1159ZM42.3268 19.0054L41.207 18.9896L40.7598 13.0406L41.8796 13.0561L42.3268 19.0054Z" fill="#D8D8D8"/>
<path d="M42.3823 19.7988L41.2629 19.7833L41.2031 18.989L42.3229 19.0048L42.3823 19.7988Z" fill="#BBBBBB"/>
<path d="M42.617 22.9102L41.4972 22.8946L41.4375 22.1006L42.5573 22.1161L42.617 22.9102Z" fill="#BBBBBB"/>
<path d="M42.4039 26.0156L41.7316 26.0064L41.6719 25.2123L42.4148 25.2226L42.4039 26.0156Z" fill="#BBBBBB"/>
<path d="M43.0854 29.1309L41.9657 29.1153L41.9062 28.3213L43.026 28.3368L43.0854 29.1309Z" fill="#BBBBBB"/>
<path d="M44.4842 47.6758L43.3644 47.6599L43.3047 46.8659L44.4245 46.8814L44.4842 47.6758Z" fill="#BBBBBB"/>
<path d="M44.7186 50.7871L43.5988 50.7716L43.5391 49.9772L44.6588 49.9927L44.7186 50.7871Z" fill="#BBBBBB"/>
<path d="M43.5662 35.5098L42.4465 35.4943L42.3867 34.6999L43.5065 34.7157L43.5662 35.5098Z" fill="#BBBBBB"/>
<path d="M43.8003 38.623L42.6805 38.6075L42.6211 37.8135L43.7409 37.829L43.8003 38.623Z" fill="#BBBBBB"/>
<path d="M44.035 41.7305L42.9152 41.715L42.8555 40.9209L43.9752 40.9364L44.035 41.7305Z" fill="#BBBBBB"/>
<path d="M39.6641 60.8301C39.667 60.8129 39.6703 60.7964 39.6736 60.7799L39.675 60.774L39.6756 60.768C39.7017 60.4506 39.736 60.0783 39.7773 59.6568L40.7274 59.5852C40.6944 59.7106 40.6574 59.8512 40.6225 59.9908C40.5894 60.1218 40.5617 60.2525 40.5347 60.3786C40.5063 60.5119 40.4786 60.643 40.4452 60.7713L39.6641 60.8301ZM42.2267 60.6373C42.1897 60.4317 42.2666 60.3611 42.3415 60.311C42.8171 59.9941 42.8593 59.9766 43.1339 59.8634C43.257 59.8126 43.4257 59.7433 43.6963 59.6212C44.154 59.4146 44.6441 59.2103 45.1527 59.014C45.2088 58.9922 45.2679 58.9697 45.3302 58.9466L45.3787 59.5948C44.8616 59.8278 44.6048 59.9397 44.4312 60.0156C44.1194 60.1519 44.1194 60.1519 43.4171 60.502C43.3828 60.5192 43.3468 60.537 43.3092 60.5558L42.2267 60.6373ZM41.0677 59.573C41.0663 59.573 41.0653 59.573 41.0644 59.573C41.0446 59.5727 41.0238 59.5697 41.003 59.5644L41.1545 59.5532C41.1528 59.5542 41.1508 59.5549 41.1488 59.5559C41.1247 59.5671 41.0974 59.573 41.0677 59.573ZM44.1798 58.5249L44.1227 57.7642C44.1487 57.7553 44.1758 57.7506 44.2039 57.7506C44.2052 57.7506 44.2065 57.7506 44.2078 57.7506C44.2372 57.751 44.2672 57.7562 44.2969 57.7665L44.3286 57.7774L44.3606 57.7681C44.6408 57.685 44.9286 57.5995 45.2226 57.5153L45.2685 58.1249C44.991 58.2018 44.7055 58.2836 44.4105 58.3711C44.3864 58.3783 44.3616 58.3823 44.3336 58.3839L44.2712 58.3879L44.2451 58.4443C44.2322 58.4721 44.2101 58.4991 44.1798 58.5249Z" fill="#4C76AA"/>
<path d="M44.2398 59.3203L40.7617 13.0402L41.2089 18.9892L41.2686 19.7836L41.4426 22.1L41.5023 22.894L41.6762 25.2105L41.7359 26.0045L41.9102 28.3209L41.9696 29.115L42.3894 34.7003L42.4491 35.4946L42.6234 37.8111L42.6828 38.6051L42.857 40.9215L42.9168 41.7156L43.3036 46.8659L43.3633 47.6599L43.5375 49.9764L43.5973 50.7707L44.1227 57.7633L44.1798 58.524L44.2398 59.3203Z" fill="#D8D8D8"/>
</svg>
