<svg width="154" height="181" viewBox="0 0 154 181" fill="none" xmlns="http://www.w3.org/2000/svg">
<path d="M134.615 115.909C131.56 113.841 128.324 111.971 125.255 110.028C123.471 108.899 121.564 107.221 119.562 106.541C118.751 106.265 117.778 106.275 117.286 107.107C116.698 108.1 117.386 108.663 118.186 109.121C120.374 110.375 122.594 111.571 124.779 112.829C128.054 114.715 131.282 116.679 134.487 118.679L134.615 115.909Z" fill="#CCB8B9"/>
<path d="M114.794 109.261C114.356 108.399 113.384 108.33 112.558 108.554C110.516 109.107 108.509 110.661 106.657 111.675C102.633 113.881 98.3383 115.939 94.4756 118.475L94.4316 121.057C98.561 118.787 102.732 116.591 106.956 114.501C109.216 113.382 111.506 112.329 113.769 111.215C114.596 110.809 115.317 110.29 114.794 109.261Z" fill="#CCB8B9"/>
<path d="M118.246 87.492C118.246 84.0814 118.932 69.8054 119.45 66.1654C119.936 62.7427 120.579 59.3974 121.176 56.0294C121.54 53.98 124.146 43.4107 120.878 45.0347C119.628 45.6547 118.867 47.7374 118.372 49.6747C117.634 52.5694 117.158 55.7294 116.778 58.8147C115.946 65.5614 115.359 80.0854 115.976 86.928C115.955 87.5374 118.246 87.5334 118.246 87.492Z" fill="#EFDADA"/>
<path d="M136.649 77.3645C137.001 74.7818 137.617 72.2458 138.131 69.6938C138.734 66.6951 139.451 63.8058 140.638 60.9738C140.809 60.5671 141.005 60.1591 141.209 59.7511C140.095 58.9818 131.225 53.5244 127.367 51.5258C122.346 48.9244 121.167 48.3205 120.747 49.1418C118.443 53.6458 117.15 61.1764 117.067 66.2178C117.058 66.7511 117.067 67.5831 119.902 68.9844C125.57 71.7858 135.505 78.2418 136.514 78.6484C136.55 78.3898 136.617 77.6031 136.649 77.3645Z" fill="#F9ECED"/>
<path d="M139.859 60.9436C139.675 59.3102 120.591 48.8409 119.06 49.1022C116.539 49.5329 113.751 61.9276 116.276 64.5649C118.642 67.0356 132.642 75.1449 136.259 76.4849C136.526 76.5835 136.848 76.3742 136.914 76.1142C137.611 73.3715 138.239 70.6156 138.779 67.8382C139.184 65.7556 140.098 63.0729 139.859 60.9436Z" fill="#538B8C"/>
<path d="M137.723 59.2879C135.917 57.5425 134.173 63.9105 133.975 64.7932C133.303 67.7559 131.636 74.1186 135.064 76.1786C135.72 76.5719 136.229 76.5425 136.669 75.8492C137.229 74.9665 137.165 73.4425 137.329 72.4265C137.553 71.0452 137.777 69.6626 138 68.2799C138.367 66.0146 139.167 63.4532 139.107 61.1532C139.081 60.1652 138.593 59.4172 137.723 59.2879Z" fill="#48797A"/>
<path d="M134.576 98.8027H136.829L137.117 97.6614C137.144 94.6561 138.409 81.0387 138.927 77.3974C139.415 73.9761 140.056 70.6294 140.655 67.2627C141.017 65.2121 143.624 54.6441 140.355 56.2681C139.107 56.8881 138.344 58.9707 137.849 60.9081C137.111 63.8027 136.636 66.9614 136.255 70.048C135.423 76.7947 133.996 89.5707 134.613 96.4147C134.593 97.024 134.564 98.3707 134.576 98.8027Z" fill="#EFDADA"/>
<path d="M137.829 116.33C137.587 109.666 137.077 103.067 136.273 96.5429C136.238 96.2696 136.047 96.1709 135.894 96.2816C135.377 96.6562 134.858 97.0309 134.339 97.4056L134.215 97.6016C134.149 97.3523 133.891 97.3629 133.867 97.6949C133.391 104.632 133.293 111.648 133.059 118.602C132.951 121.772 131.735 126.936 135.886 126.896C138.994 126.866 137.939 119.388 137.829 116.33Z" fill="#EFDADA"/>
<path d="M92.0527 118.437C92.294 111.774 92.8047 105.174 93.6087 98.6503C93.6433 98.3783 93.834 98.2783 93.9873 98.389C94.5047 98.7637 95.0233 99.1397 95.542 99.513L95.666 99.7103C95.7327 99.4597 95.9913 99.4717 96.014 99.8023C96.49 106.741 96.5873 113.757 96.822 120.709C96.9287 123.881 98.146 129.044 93.9953 129.004C90.8873 128.974 91.942 121.497 92.0527 118.437Z" fill="#EFDADA"/>
<path d="M135.273 119.252C134.834 118.391 133.863 118.322 133.037 118.544C130.995 119.098 128.987 120.652 127.135 121.667C123.111 123.871 118.818 125.931 114.954 128.467L114.91 131.047C119.041 128.779 123.21 126.583 127.435 124.492C129.695 123.374 131.986 122.319 134.249 121.206C135.075 120.8 135.797 120.282 135.273 119.252Z" fill="#CCB8B9"/>
<path d="M112.188 128.122C109.133 126.055 105.898 124.183 102.828 122.241C101.044 121.113 99.1382 119.435 97.1342 118.755C96.3249 118.479 95.3502 118.487 94.8582 119.319C94.2716 120.314 94.9596 120.877 95.7582 121.335C97.9462 122.589 100.166 123.783 102.352 125.042C105.626 126.927 108.854 128.893 112.06 130.893L112.188 128.122Z" fill="#CCB8B9"/>
<path d="M114.962 110.177L112.322 107.971C111.847 114.896 111.179 124.353 110.946 131.293C110.839 134.464 109.622 139.628 113.774 139.587C116.882 139.557 115.826 132.08 115.715 129.021C115.488 122.761 115.684 116.315 114.962 110.177Z" fill="#EFDADA"/>
<path d="M137.326 96.0213H135.047L120.598 87.68C118.67 86.5667 115.271 86.7067 113.045 87.9933L96.2008 97.6627L93.0234 97.9653L93.0461 100.643L93.0488 100.959L93.0514 101.236L93.0594 101.235C93.1741 101.82 93.5901 102.367 94.3234 102.789L109.751 111.697C111.679 112.811 115.078 112.669 117.305 111.384L135.483 100.948C136.782 100.197 137.385 99.2187 137.297 98.312L137.326 98.3054C137.326 98.3054 137.254 96.3067 137.326 96.0213Z" fill="#CCB8B9"/>
<path d="M109.751 108.776L94.3231 99.8698C92.3951 98.7564 92.6391 96.7938 94.8657 95.5084L113.044 85.1458C115.271 83.8604 118.67 83.7191 120.598 84.8324L136.026 93.7391C137.952 94.8524 137.71 96.8151 135.483 98.1004L117.304 108.463C115.078 109.748 111.679 109.89 109.751 108.776Z" fill="#F9ECED"/>
<path d="M104.199 100.78C107.781 102.716 111.862 105.86 116.117 104.495C119.837 103.301 123.39 100.661 126.681 98.62C128.963 97.2067 131.159 95.7587 132.857 93.8027C131.714 92.1787 129.611 90.7853 128.351 89.8867C124.815 87.3653 115.478 82.708 114.222 82.8147C113.662 82.8613 113.089 82.968 112.51 83.1173C110.207 83.7107 107.807 84.98 105.786 85.8893C102.839 87.2147 99.9939 88.8173 97.5032 90.8893C96.7019 91.5547 95.6739 92.3107 95.1152 93.2387C95.2646 97.0947 101.334 99.2307 104.199 100.78Z" fill="#EA2E3C"/>
<path d="M95.202 98.515C97.4447 100.162 101.506 101.863 103.539 103.095C105.687 104.398 109.971 107.424 112.322 107.971C113.802 108.315 116.477 107.62 118.269 106.703C120.954 105.326 123.537 103.708 126.153 102.203C128.282 100.978 131.337 99.8763 132.914 97.9096C134.058 96.483 133.75 95.0723 132.857 93.803C131.159 95.759 128.963 97.207 126.681 98.6203C123.39 100.662 119.837 103.302 116.117 104.495C111.862 105.86 107.781 102.716 104.199 100.78C101.334 99.231 95.2647 97.095 95.1153 93.239L94.9393 93.5616C94.3967 94.747 94.0393 97.6616 95.202 98.515Z" fill="#DD272D"/>
<path d="M113.614 94.9709C113.081 92.8483 113.946 91.1656 114.222 89.1363C115.059 82.9896 104.135 88.3869 102.986 89.3043C101.703 90.3283 98.6579 92.3389 98.7552 94.2923C98.8579 96.3509 102.37 97.8976 103.874 98.6789C106.151 99.8643 109.455 101.67 112.061 101.64C113.639 101.622 115.007 100.163 114.961 98.3603C114.929 97.1296 113.909 96.1389 113.614 94.9709Z" fill="#F03C4F"/>
<path d="M84.446 122.709C83.29 123.985 81.9914 125.415 80.8034 126.669C79.198 128.367 77.306 130.164 75.566 131.717C73.4367 133.62 73.274 135.921 76.7674 135.727C82.4154 135.411 83.7354 133.041 86.346 131.039C86.71 130.76 87.3154 131.431 88.7447 130.855C90.5594 130.123 90.7794 129.835 90.7807 128.032C90.7807 126.884 90.59 124.52 90.0687 123.328L90.122 123.271C90.4007 122.956 85.9887 121.009 84.446 122.709Z" fill="#F03C4F"/>
<path d="M95.3394 134.91C94.1834 136.186 92.886 137.615 91.698 138.87C90.0914 140.567 88.1994 142.364 86.4607 143.918C84.33 145.82 84.1674 148.122 87.6607 147.926C93.3087 147.611 94.6287 145.242 97.2407 143.239C97.6034 142.96 98.2087 143.631 99.6394 143.055C101.453 142.323 101.673 142.035 101.673 140.232C101.673 139.084 101.483 136.72 100.962 135.528L101.017 135.471C101.294 135.156 96.882 133.21 95.3394 134.91Z" fill="#F03C4F"/>
<path d="M119.055 80.3498C118.586 79.3618 107.751 75.7525 108.039 75.8845C99.3684 79.1552 88.8351 82.7792 81.5511 89.0512C80.2137 89.2738 78.8497 89.7192 78.9164 92.1898C78.9684 94.1098 80.0911 97.4219 80.4097 99.3605C81.5124 106.097 82.9204 117.014 83.4417 123.815C84.5857 125.854 87.9697 125.854 90.1244 124.321C90.7804 119.447 91.0244 112.891 91.8551 108.99C92.9551 103.831 91.1524 101.326 89.5697 98.5645C93.8364 98.7312 103.071 93.9379 107.211 92.7805C112.226 91.3779 113.607 91.3378 117.332 87.5192C119.887 84.9005 120.79 84.0072 119.055 80.3498Z" fill="#321F1F"/>
<path d="M118.635 81.0429C115.954 81.1069 112.977 81.3002 110.347 80.5082C110.087 80.8882 109.819 81.2589 109.603 81.6976C108.645 83.6482 107.755 85.1189 108.497 87.3402C107.194 89.1856 101.318 96.4016 100.265 98.6096C98.9113 99.9562 98.182 100.726 98.3526 103.815C98.546 107.327 98.306 108.939 97.9073 112.842C97.1433 120.35 95.8073 126.695 95.2646 134.222C97.0126 136.912 99.3566 137.023 101.673 134.906C103.925 127.92 108.327 123.044 108.787 116.932C109.091 112.886 109.157 109.834 107.358 107.266C114.785 103.186 124.299 100.898 128.382 93.1416C131.029 88.1149 129.749 84.3842 127.031 79.2296C124.55 80.7456 121.678 80.9696 118.635 81.0429Z" fill="#3D2627"/>
<path d="M108.825 39.191C112.333 37.723 116.507 39.619 116.354 39.4483L121.23 42.227C124.781 43.551 128.422 44.511 130.511 49.2816C131.529 51.6056 127.867 56.5777 126.341 63.3137C125.654 66.343 125.582 70.6643 126.702 72.6763C127.486 74.0843 129.214 76.1923 124.145 77.7856C122.671 78.2483 115.823 80.8963 111.831 80.1536C109.983 79.811 101.102 74.891 103.811 73.0083C104.529 72.5097 105.117 71.5217 104.601 70.6097C104.169 69.847 103.389 68.4563 103.718 66.9443C104.529 63.2283 103.87 61.7656 103.322 58.859C100.753 56.1683 103.022 52.1123 104.598 47.7777C105.667 44.8363 105.226 40.6976 108.825 39.191Z" fill="#EFDADA"/>
<path d="M109.664 38.4166L109.659 38.2552C111.74 38.5739 114.486 37.3792 116.287 36.1219C117.255 38.4859 117.49 39.3846 118.956 41.7713C118.171 41.8099 116.623 43.9659 115.339 46.2313C114.795 47.1939 112.44 49.6819 110.959 49.1086C108.676 48.2233 109.819 46.3952 109.752 43.8246C109.704 42.0232 109.668 40.2179 109.664 38.4166Z" fill="#F9AA9A"/>
<path d="M108.014 57.0235C108.402 54.9555 108.994 53.0248 109.414 51.7835V51.7808C109.504 51.5155 108.721 49.1141 108.721 49.1141L110.969 48.2275L112.282 49.8048C112.282 49.8048 111.534 51.5595 110.669 52.0195C110.716 54.3141 110.798 58.5168 110.848 62.3275C110.926 68.4128 110.848 72.7901 110.848 72.7901C110.848 72.7901 109.414 74.8182 107.961 75.7715C106.953 73.9635 106.56 71.6621 106.56 71.6621C106.56 71.6621 107.362 60.5075 108.014 57.0235Z" fill="#F03C4F"/>
<path d="M120.72 41.8155C120.72 41.8155 116.966 43.4342 115.392 44.7355C113.286 46.4795 112.282 46.9502 111.231 47.9569C111.132 47.7049 110.847 42.9689 110.847 42.9689L109.106 43.2222C109.12 43.2542 108.1 44.1916 107.702 46.0742C107.303 47.9556 108.014 50.2355 108.014 50.2355L110.934 48.4529L112.934 52.0195C112.934 52.0195 116.834 48.6796 118.612 46.6449C120.391 44.6102 120.72 41.8155 120.72 41.8155Z" fill="white"/>
<path d="M109.414 39.1778C109.414 39.1778 106.019 38.9618 104.399 42.6578C102.781 46.3524 101.559 51.1698 101.509 56.8924C101.471 61.0671 102.386 66.5204 101.681 69.4911C101.073 72.0471 97.6846 81.4578 97.6846 81.4578C97.6846 81.4578 97.9446 85.3191 99.1939 86.8444C100.809 88.8151 102.562 88.6458 102.562 88.6458C102.562 88.6458 104.663 76.9791 104.875 75.1391C105.087 73.2991 105.778 63.5831 105.587 60.6991C105.398 57.8164 107.05 48.2084 107.702 46.0751C108.355 43.9404 112.282 39.5698 112.282 39.5698L109.414 39.1778Z" fill="#452B2C"/>
<path d="M110.084 42.2183C110.084 42.2183 108.93 43.6956 108.004 45.9263C107.077 48.157 106.781 53.0583 106.516 55.9196C106.253 58.7796 105.637 61.6543 105.637 61.6543C105.637 61.6543 104.556 58.5423 104.357 56.4276C104.16 54.3143 103.888 52.6876 103.888 52.6876L105.365 51.5316L103.997 48.2276C103.997 48.2276 107.605 40.3663 109.13 39.9103C110.654 39.4543 110.084 42.2183 110.084 42.2183Z" fill="#523336"/>
<path d="M119.127 40.8385C119.127 40.8385 114.827 46.4932 113.562 54.3145C112.298 62.1358 113.097 70.1932 113.562 75.7812C114.15 82.8305 114.673 92.8572 114.673 92.8572C114.673 92.8572 121.678 94.0145 125.607 93.1825C129.805 92.2932 131.282 88.1838 131.282 88.1838C131.282 88.1838 131.282 79.6132 127.715 69.2119C126.545 65.7959 127.287 58.3838 128.674 54.1185C129.501 51.5812 128.302 46.5159 126.169 44.2079C124.715 42.6345 121.165 41.9559 119.127 40.8385Z" fill="#452B2C"/>
<path d="M117.796 39.7068C117.796 39.7068 120.252 39.8602 121.184 41.7282C120.748 42.6935 119.719 43.9815 119.255 46.3895C118.791 48.7962 118.955 51.4922 118.955 51.4922L116.184 52.7308L117.803 55.5855L113.001 61.7988C113.001 61.7988 112.281 53.6135 114.176 47.6988C116.071 41.7842 117.796 39.7068 117.796 39.7068Z" fill="#523336"/>
<path d="M105.45 29.6214C107.365 27.2721 111.547 26.7361 114.19 28.3375C114.826 28.5268 115.409 28.8094 115.883 29.2308C117.607 30.7614 117.417 33.5041 116.902 35.5281C116.126 38.5801 111.782 45.5988 107.769 42.9748C105.634 41.5788 104.246 38.1134 103.902 35.6881C103.595 33.5308 104.058 31.3348 105.45 29.6214Z" fill="#FABEAF"/>
<path d="M102.676 25.1229C104.016 23.3216 107.436 21.1655 109.684 22.4189C110.456 22.8509 110.894 23.7376 110.846 24.5349C113.022 24.1376 116.943 25.5509 117.915 27.4189C119.568 30.5975 118.418 36.0362 116.967 37.6709C115.451 36.3509 113.112 33.5429 112.494 30.8509C109.994 32.0522 106.579 32.1789 104.124 30.7669C102.066 29.5829 101.198 27.1122 102.676 25.1229Z" fill="#321F1F"/>
<path d="M113.204 34.0257C113.204 34.0257 114.423 32.0043 115.545 33.483C117.249 35.7243 114.753 36.8203 114.753 36.8203L113.204 34.0257Z" fill="#FABEAF"/>
<path d="M96.5749 167.89C108.999 174.22 119.059 174.562 128.406 166.257C137.254 158.394 136.468 147.198 135.995 136.47C128.892 142.077 120.67 147.885 111.146 145.582C106.563 144.474 102.198 142.112 98.0349 139.972C93.4869 137.633 89.0469 135.092 84.6656 132.458C75.4536 126.918 66.4256 121.065 57.3403 115.322C49.4149 110.313 19.2063 90.4636 8.63867 83.3636V118.713C16.3693 123.552 27.0355 128.848 35.5749 133.937C44.9669 139.533 86.1203 162.562 96.5749 167.89Z" fill="#F3DEA5"/>
<path d="M8.6548 119.492C8.7048 121.747 10.3507 124.112 13.5433 125.956L103.247 177.777C109.172 181.199 118.219 181.573 123.351 178.611L146.807 165.159C149.148 163.808 150.272 161.983 150.254 160.076H150.268V116.84L8.63867 76.256V83.364C19.2063 90.464 49.4149 110.313 57.3403 115.323C66.4256 121.065 75.4536 126.919 84.6656 132.459C89.0469 135.092 93.4869 137.633 98.0349 139.972C102.198 142.112 106.563 144.475 111.146 145.583C120.67 147.885 128.892 142.077 135.995 136.471C136.468 147.199 137.254 158.395 128.406 166.257C119.059 174.563 108.999 174.22 96.5749 167.891C86.1203 162.563 44.9669 139.533 35.5749 133.937C27.0355 128.848 16.3693 123.552 8.63867 118.713V119.492H8.6548Z" fill="#EED296"/>
<path d="M151.825 118.385L151.917 118.248C156.08 111.161 152.401 102.041 152.401 102.041L146.504 108.1L56.5902 56.1889C50.0769 52.4275 40.1315 52.0156 34.4902 55.2729L13.1611 67.5875L6.61368 60.8609C6.61368 60.8609 3.64648 69.7116 6.61368 76.5702L6.65274 76.6462C7.30541 78.5889 9.00128 80.5129 11.7303 82.0889L102.317 134.389C108.832 138.149 118.777 138.562 124.417 135.305L148.764 121.249C150.034 120.516 150.965 119.652 151.597 118.717L151.661 118.626L151.825 118.385Z" fill="#CCB8B9"/>
<path d="M147.177 96.1017L56.5901 43.8017C50.0768 40.0404 40.1314 39.6284 34.4901 42.8857L10.1438 56.9417C4.50212 60.1991 5.21625 65.9404 11.7302 69.7017L102.317 122.002C108.831 125.762 118.777 126.174 124.417 122.918L148.763 108.862C154.405 105.604 153.691 99.8631 147.177 96.1017Z" fill="#EFDADA"/>
<path d="M14.0233 93.5283C13.9661 92.1803 13.9 90.6549 12.3911 90.2403C12.026 90.1389 11.6719 90.4216 11.6651 90.7936C11.5953 94.4483 11.5989 98.7803 11.9296 102.42C12.0307 103.531 13.0344 103.368 13.1927 102.97C14.1588 100.54 14.1339 96.1123 14.0233 93.5283Z" fill="#F35A70"/>
<path d="M16.2139 121.442C15.8983 121.744 15.6759 122.136 15.4499 122.508C15.2185 122.891 14.9529 123.266 14.8868 123.714C14.8352 124.063 15.1956 124.303 15.4789 124.059C15.8248 123.76 15.9952 123.348 16.1956 122.944C16.3889 122.556 16.6082 122.148 16.6942 121.72C16.7499 121.446 16.4295 121.235 16.2139 121.442Z" fill="#DD272D"/>
<path d="M108.823 114.237L97.9336 101.352L127.763 91.4346L138.652 104.32L108.823 114.237Z" fill="#FDF6F8"/>
<path d="M108.012 120.32L97.123 107.435L126.952 97.5176L137.842 110.403L108.012 120.32Z" fill="white"/>
<path d="M85.4419 61.0137C85.4419 61.0137 82.2793 60.723 80.0939 60.8217C77.9099 60.9217 77.1193 61.0684 76.4193 61.247C75.7193 61.4257 75.4966 62.2977 76.4673 62.455C78.0193 62.7084 78.3486 62.523 78.9246 63.0484C79.2899 63.3817 77.7859 63.967 76.0966 64.491C74.4059 65.015 72.3019 65.239 71.6939 65.635C71.0846 66.0297 72.1926 68.2924 75.4593 68.4177C78.7259 68.5417 81.4579 67.683 82.7539 66.8417C84.3859 65.7817 87.6446 64.5417 87.6446 64.5417L85.4419 61.0137Z" fill="#FABEAF"/>
<path d="M83.0166 60.8465C85.3846 58.2465 92.0113 55.1572 93.8406 54.7079C93.8446 54.7065 96.0593 51.3079 97.0313 49.3172C97.7753 47.7959 98.6473 43.6985 100.169 41.2025C101.405 39.1732 102.707 38.2385 104.327 37.5919C104.47 38.3439 105.461 40.3372 106.129 41.3399C105.421 41.7772 103.919 44.7345 102.621 49.1919C101.543 52.8919 101.593 57.3465 101.594 59.7865C101.29 60.3999 100.402 61.1572 97.9099 62.0665C96.9539 62.4145 88.8633 66.2439 84.6553 66.7559C84.5086 65.9345 83.3006 62.7839 83.0166 60.8465Z" fill="#3D2627"/>
<path d="M7.36816 143.139C10.4224 141.072 13.6578 139.2 16.7276 137.258C18.5119 136.128 20.4176 134.452 22.4208 133.771C23.2312 133.496 24.2047 133.504 24.6968 134.336C25.2839 135.33 24.5963 135.894 23.7968 136.351C21.6088 137.604 19.3891 138.8 17.2042 140.059C13.9291 141.944 10.7015 143.908 7.49576 145.908L7.36816 143.139Z" fill="#CCB8B9"/>
<path d="M27.1893 136.489C27.6283 135.628 28.5997 135.558 29.4257 135.782C31.4683 136.336 33.475 137.89 35.327 138.904C39.351 141.109 43.6443 143.169 47.5083 145.704L47.5523 148.285C43.4216 146.016 39.2523 143.82 35.0283 141.729C32.767 140.612 30.4762 139.557 28.2137 138.444C27.3877 138.037 26.6658 137.518 27.1893 136.489Z" fill="#CCB8B9"/>
<path d="M23.7382 114.723C23.7382 111.311 23.0513 97.0364 22.5336 93.395C22.0465 89.9724 21.4049 86.6257 20.8069 83.259C20.4429 81.2097 17.8366 70.6404 21.1054 72.2644C22.3544 72.8844 23.1164 74.9671 23.6112 76.9044C24.3502 79.7991 24.8252 82.9577 25.2054 86.0444C26.0377 92.7911 26.6252 107.315 26.0069 114.159C26.0278 114.768 23.7382 114.763 23.7382 114.723Z" fill="#CCB8B9"/>
<path d="M5.33397 104.593C4.9829 102.01 4.3657 99.4756 3.85157 96.9223C3.2485 93.9236 2.53184 91.0356 1.3453 88.2023C1.1745 87.7956 0.977704 87.3876 0.773438 86.9796C1.8865 86.2103 10.7578 80.7529 14.6157 78.7556C19.6365 76.1529 20.8157 75.5503 21.2354 76.3703C23.5396 80.8743 24.8329 88.4063 24.9162 93.4463C24.9245 93.981 24.9162 94.813 22.0818 96.213C16.413 99.0143 6.47824 105.47 5.46824 105.877C5.4329 105.618 5.36623 104.832 5.33397 104.593Z" fill="#F9ECED"/>
<path d="M2.12441 88.1728C2.30774 86.5381 21.3921 76.0715 22.9229 76.3328C25.4448 76.7621 28.2317 89.1568 25.7077 91.7941C23.3416 94.2648 9.34161 102.374 5.72334 103.715C5.45721 103.814 5.13534 103.603 5.06921 103.343C4.37241 100.602 3.74374 97.8448 3.20308 95.0675C2.79841 92.9848 1.88481 90.3021 2.12441 88.1728Z" fill="#538B8C"/>
<path d="M4.26009 86.5187C6.06583 84.772 7.8085 91.14 8.00796 92.0227C8.6793 94.9854 10.3465 101.348 6.91836 103.408C6.26263 103.803 5.75223 103.773 5.3121 103.079C4.75276 102.196 4.81743 100.673 4.65276 99.6574C4.42929 98.2747 4.20543 96.892 3.9825 95.5094C3.61583 93.244 2.81637 90.6827 2.87623 88.3827C2.90117 87.3947 3.38929 86.6467 4.26009 86.5187Z" fill="#48797A"/>
<path d="M7.4072 126.032H5.15307L4.86507 124.891C4.83801 121.887 3.57241 108.268 3.05521 104.628C2.56761 101.206 1.92548 97.8589 1.32814 94.4922C0.964543 92.4429 -1.64173 81.8736 1.62654 83.4976C2.87601 84.1176 3.63854 86.2002 4.13228 88.1376C4.87134 91.0322 5.34628 94.1922 5.72708 97.2789C6.55881 104.024 7.9864 116.8 7.36867 123.644C7.38907 124.254 7.41814 125.602 7.4072 126.032Z" fill="#EFDADA"/>
<path d="M4.15466 143.559C4.39519 136.896 4.90613 130.296 5.7104 123.772C5.74426 123.499 5.93586 123.4 6.08799 123.51C6.60613 123.886 7.1244 124.26 7.64266 124.635L7.76719 124.831C7.83479 124.582 8.09266 124.592 8.1156 124.924C8.59106 131.862 8.68946 138.878 8.92386 145.831C9.03066 149.002 10.2479 154.166 6.09626 154.126C2.98853 154.095 4.04373 146.619 4.15466 143.559Z" fill="#EFDADA"/>
<path d="M49.9297 145.668C49.6884 139.004 49.1777 132.404 48.3737 125.88C48.3404 125.608 48.1484 125.508 47.9964 125.62C47.4777 125.993 46.9604 126.369 46.4417 126.744L46.3177 126.94C46.2497 126.69 45.9924 126.701 45.9697 127.033C45.4937 133.97 45.395 140.986 45.1604 147.94C45.0537 151.11 43.8364 156.274 47.9884 156.233C51.0964 156.202 50.0404 148.726 49.9297 145.668Z" fill="#EFDADA"/>
<path d="M6.70983 146.481C7.1489 145.62 8.11916 145.551 8.94516 145.775C10.988 146.328 12.9948 147.881 14.8473 148.897C18.8713 151.101 23.165 153.16 27.0285 155.696L27.0724 158.277C22.9421 156.008 18.7718 153.812 14.5478 151.721C12.288 150.603 9.99676 149.549 7.73423 148.436C6.90769 148.029 6.18636 147.509 6.70983 146.481Z" fill="#CCB8B9"/>
<path d="M29.7959 155.35C32.8502 153.284 36.0862 151.412 39.1555 149.47C40.9408 148.341 42.8462 146.664 44.8488 145.982C45.6595 145.708 46.6328 145.716 47.1248 146.548C47.7128 147.541 47.0248 148.105 46.2248 148.564C44.0368 149.816 41.8168 151.012 39.6315 152.27C36.3568 154.156 33.1302 156.121 29.9235 158.121L29.7959 155.35Z" fill="#CCB8B9"/>
<path d="M27.0221 137.408L29.6617 135.201C30.1356 142.125 30.8039 151.583 31.0377 158.523C31.1445 161.693 32.3609 166.857 28.2101 166.816C25.1017 166.787 26.1569 159.309 26.268 156.251C26.4951 149.992 26.2992 143.544 27.0221 137.408Z" fill="#EFDADA"/>
<path d="M4.65625 123.252H6.93599L21.3844 114.91C23.3125 113.796 26.712 113.937 28.9387 115.223L45.7816 124.892L48.9603 125.195L48.9376 127.872L48.9349 128.188L48.9323 128.465L48.9229 128.464C48.8083 129.049 48.3923 129.596 47.6589 130.02L32.2323 138.927C30.3037 140.04 26.9048 139.899 24.6783 138.614L6.49959 128.178C5.20065 127.427 4.59852 126.45 4.68652 125.54L4.65625 125.535C4.65625 125.535 4.72825 123.536 4.65625 123.252Z" fill="#CCB8B9"/>
<path d="M32.2322 136.005L47.6589 127.099C49.5869 125.985 49.3429 124.023 47.1162 122.737L28.9386 112.375C26.712 111.089 23.3125 110.948 21.3844 112.061L5.9573 120.968C4.02864 122.081 4.2729 124.044 6.49957 125.329L24.6782 135.692C26.9048 136.979 30.3037 137.119 32.2322 136.005Z" fill="#F9ECED"/>
<path d="M37.7832 128.008C34.2032 129.946 30.1212 133.09 25.8655 131.724C22.1472 130.531 18.5936 127.892 15.3019 125.851C13.0202 124.436 10.8243 122.988 9.12695 121.032C10.2696 119.408 12.3723 118.015 13.6316 117.116C17.1676 114.595 26.5046 109.938 27.7619 110.044C28.3212 110.091 28.8947 110.198 29.4738 110.347C31.7752 110.94 34.1766 112.209 36.1966 113.119C39.1432 114.444 41.9886 116.047 44.4792 118.119C45.2819 118.785 46.3085 119.54 46.8685 120.468C46.7192 124.326 40.6499 126.46 37.7832 128.008Z" fill="#538B8C"/>
<path d="M46.7818 125.744C44.5392 127.392 40.4765 129.092 38.4431 130.324C36.2952 131.627 32.0125 134.654 29.6613 135.202C28.181 135.546 25.5061 134.85 23.7149 133.932C21.0285 132.556 18.4471 130.938 15.8305 129.432C13.7003 128.207 10.6461 127.106 9.06955 125.139C7.92582 123.714 8.23315 122.303 9.12688 121.032C10.8242 122.988 13.0201 124.436 15.3018 125.851C18.5936 127.892 22.1472 130.531 25.8654 131.724C30.1211 133.09 34.2032 129.946 37.7832 128.008C40.6498 126.46 46.7191 124.326 46.8685 120.468L47.0445 120.791C47.5872 121.976 47.9432 124.891 46.7818 125.744Z" fill="#48797A"/>
<path d="M28.3694 122.2C28.9033 120.078 28.0383 118.395 27.7623 116.366C26.9241 110.219 37.8476 115.616 38.9983 116.535C40.2809 117.559 43.3249 119.568 43.2276 121.522C43.1249 123.582 39.6129 125.127 38.1089 125.91C35.8329 127.094 32.5289 128.899 29.9232 128.87C28.3451 128.851 26.9757 127.392 27.0227 125.591C27.0549 124.36 28.0752 123.37 28.3694 122.2Z" fill="#F03C4F"/>
<path d="M40.9384 155.06C40.6211 155.524 40.0464 160.223 40.0331 161.471C40.0211 162.719 39.7931 163.807 40.6144 165.511C41.4331 167.214 42.2971 166.795 42.2971 166.795C42.2971 166.795 43.2744 170.018 44.8731 171.802C46.4717 173.586 50.0517 173.835 51.7464 173.595C54.6584 173.182 54.0237 171.255 51.9504 168.483C49.7544 165.547 48.1731 163.3 47.9171 160.886C47.6597 158.471 47.169 155.748 47.169 155.748L40.9384 155.06Z" fill="#321F1F"/>
<path d="M64.5765 118.716C65.4871 115.731 65.1098 113.798 61.3071 112.95C60.1778 112.026 54.6991 108.594 52.4231 107.726C44.8818 104.848 41.2725 101.846 33.4965 99.6336C33.3538 99.4416 33.1005 99.335 32.8098 99.435L32.5325 99.3536C32.2458 99.2763 32.0378 99.547 32.0578 99.7896C29.2389 101.111 26.4842 102.588 23.7706 104.111C22.7529 104.683 21.1731 105.22 20.7451 106.474C19.6977 109.538 36.4791 117.142 42.4845 119.787C45.2378 120.999 50.1365 121.298 52.9725 120.904C49.8991 125.758 51.6805 132.403 51.6165 138.134C51.5778 141.572 50.7258 145.671 50.6351 149.626C52.4231 154.042 57.7058 152.767 58.2818 150.979C59.5751 146.955 60.5711 140.648 61.5525 136.536C63.2285 129.51 62.4551 125.667 64.5765 118.716Z" fill="#321F1F"/>
<path d="M39.6768 160.216C43.0448 163.341 46.5594 161.628 48.0621 160.513C48.0621 153.716 47.6421 143.369 47.0248 136.536C46.7581 133.585 49.8781 129.738 46.6061 127.589C46.2181 126.17 44.1368 121.543 43.0448 120.309C40.3314 117.241 37.7234 113.863 35.3021 112.473C36.3074 109.281 36.0834 105.925 32.4061 102.645C28.4506 98.7465 23.5261 100.904 18.023 102.364C14.9969 103.165 12.5917 107.703 12.9788 107.777C12.4157 112.965 13.4006 119.315 17.199 123.012C19.8469 125.591 23.2422 126.855 26.6474 128.108C29.699 129.231 33.8421 130.308 36.8968 131.422C35.7314 137.845 35.4061 144.745 36.9821 150.996C37.4128 152.697 39.4288 159.293 39.6768 160.216Z" fill="#3D2627"/>
<path d="M52.442 148.688C52.442 148.688 51.4726 149.827 50.6526 151.752C49.8339 153.679 52.074 155.06 52.074 155.06C52.074 155.06 52.1233 157.932 53.358 159.715C54.5913 161.496 58.2993 164.141 59.8859 164.041C61.4713 163.944 65.1286 164.447 63.6433 161.575C62.158 158.701 59.8579 155.767 59.1846 153.993C58.7206 152.771 57.9913 149.928 57.9913 149.928L52.442 148.688Z" fill="#321F1F"/>
<path d="M54.8721 94.5801C53.9561 90.3388 52.5028 84.5881 49.9481 81.7561C47.8254 80.0627 42.9308 76.1654 39.6894 73.1761C37.0668 70.7588 35.1348 67.2574 31.2974 67.9227C29.3192 68.2654 32.8441 80.7308 34.6108 81.8121C36.8748 84.7374 42.2681 87.5187 45.8054 89.0241C45.8201 89.0307 47.9254 94.8108 49.6081 96.7801C50.9508 98.3508 55.6828 98.3294 54.8721 94.5801Z" fill="#9C8386"/>
<path d="M33.3716 69.6547C32.2916 68.436 32.2396 67.6413 31.8236 67.7187C27.8299 68.4547 21.7299 69.832 21.4342 69.9813C19.2528 71.0733 16.1784 72.3013 14.018 73.6187C11.218 75.3267 9.84817 77.0054 9.88044 80.1774C9.91644 83.7 11.5414 88.624 12.1216 92.1147C12.7112 95.664 12.92 99.1827 13.0232 102.725C12.8482 103.729 12.4351 105.675 12.1998 106.687C11.4768 107.165 10.7331 108.655 12.1299 109.283C12.5632 109.476 11.2919 110.537 12.5424 111.804C15.8112 115.112 23.1258 115.097 27.632 114.135C32.561 113.083 35.7956 109.939 39.313 104.12C40.6036 101.984 37.2956 99.4867 36.4583 98.8933C36.3463 96.3413 36.4583 91.9067 36.4583 88.1734C39.7983 85.876 39.017 76.0253 33.3716 69.6547Z" fill="#BAA5A6"/>
<path d="M18.1621 71.5105C18.1621 71.5105 22.0433 73.6198 23.8954 75.0865C25.7485 76.5518 30.713 80.0625 30.713 80.0625C30.713 80.0625 32.0861 75.6812 31.5088 72.0905C31.1006 69.5385 29.6876 67.7132 29.6876 67.7132C29.6876 67.7132 22.3068 69.4025 18.1621 71.5105Z" fill="white"/>
<path d="M29.8244 70.9497C29.976 73.031 30.4437 75.7403 29.6755 77.6523C27.1615 75.419 22.1989 71.8777 20.3281 71.4203C21.6984 67.5203 21.6077 65.9323 21.1323 62.087C20.8411 59.735 28.8629 63.187 29.3749 63.1804C29.8167 66.247 29.5739 67.5003 29.8244 70.9497Z" fill="#F9AA9A"/>
<path d="M35.3402 56.996C35.2762 54.552 33.5069 51.4147 24.9537 53.0827C23.5906 53.348 21.7187 55.9014 20.9786 56.964C19.4578 59.1494 19.5802 61.7494 20.799 64.032C21.9682 66.2214 25.8714 69.62 29.1963 70.052C36.0175 70.9387 35.4562 61.3147 35.3402 56.996Z" fill="#FABEAF"/>
<path d="M34.5608 50.7012C32.5515 47.9306 29.9543 45.3826 27.636 45.3826C28.0235 46.9932 27.7772 48.1172 27.1824 48.9759C26.9496 48.3399 26.4882 47.6586 25.5314 47.2959C25.6038 48.4866 25.9012 49.5599 24.0158 51.2239C22.6163 51.8719 21.1308 52.4679 20.133 53.4572C18.2991 55.2746 17.9303 57.6026 18.2814 60.0519C18.5959 62.2506 19.8622 63.0506 21.185 64.7119C22.959 63.8599 24.9231 60.5466 25.0188 58.6639C27.6516 59.6626 30.7772 60.5039 34.3715 59.2052C34.6302 59.1119 35.7382 58.3599 35.9448 58.0932C37.4875 56.1012 36.2728 53.0586 34.5608 50.7012Z" fill="#321F1F"/>
<path d="M24.5568 62.296C24.8788 61.8267 24.8897 61.204 24.56 60.74C24.0308 59.996 23.1089 59.1987 22.0313 60.4227C20.3345 62.3507 22.4078 64.588 22.7594 64.5493C22.9974 64.5226 23.961 63.1667 24.5568 62.296Z" fill="#FABEAF"/>
<path d="M43.0829 97.3105C41.0176 97.9559 38.9896 97.2558 36.9602 96.7345C37.6509 96.2998 38.2456 95.7492 38.7936 95.0079C39.0882 94.6079 38.5949 93.9772 38.1349 94.1505C35.1242 95.2838 31.8522 95.3292 29.1318 97.0505C29.5037 97.7638 29.3766 100.273 29.284 100.867C30.9881 100.967 33.1296 101.355 34.7362 101.399C38.3149 101.497 41.0149 101.568 43.1896 98.7878C44.3296 97.3305 43.5616 97.1612 43.0829 97.3105Z" fill="#F9AA9A"/>
<path d="M23.1825 95.0604C19.5476 95.0124 16.9951 94.1924 14.4445 95.5978C15.9232 93.7124 17.5565 91.0244 17.8861 87.9991C18.3309 83.9244 19.5992 76.9484 13.5836 74.1778C10.3607 75.4791 8.87733 79.8124 7.75493 84.2324C7.27 86.1431 8.08306 90.5031 7.44813 94.0471C6.92733 96.9538 7.58306 98.1111 7.90853 100.311C8.17519 102.115 10.1465 101.912 11.6695 102.735C13.4211 103.682 16.8976 103.906 18.8075 103.866C22.4992 103.787 31.0227 101.31 31.2929 101.175C33.2743 100.183 32.2636 95.6338 30.3023 95.5351C27.0383 95.3698 26.3883 95.1017 23.1825 95.0604Z" fill="#9C8386"/>
<path d="M53.6125 93.8899C52.7365 93.1953 51.4138 93.0619 50.4698 94.8846C50.3232 95.8499 49.9005 96.9246 49.7365 97.9753C49.4818 99.6046 49.6352 100.517 49.9485 102.125C50.2778 103.806 50.7832 103.521 50.9885 102.726C51.3032 101.509 50.8418 100.234 51.7792 100.074C52.7178 99.9139 51.9112 102.915 51.9365 104.249C51.9618 105.582 52.2512 107.561 53.5072 107.77C54.7645 107.981 56.5352 103.653 56.1218 100.003C55.7072 96.3513 53.6125 93.8899 53.6125 93.8899Z" fill="#F9AA9A"/>
<path d="M76.7818 73.172C76.7818 73.172 76.5125 72.66 76.0338 73.0053C75.5565 73.3507 74.1245 74.44 73.8991 74.5453C73.6725 74.6507 73.4191 74.5466 73.2698 74.6813C73.1204 74.8146 73.2098 75.0253 73.3898 75.2493C73.5684 75.4733 76.7818 73.172 76.7818 73.172Z" fill="#B89E9F"/>
<path d="M76.6886 74.4121C76.6886 74.0987 76.4979 73.7334 76.2619 73.5974L75.9833 73.5747L67.7246 78.3427L68.3033 79.5107L76.4979 74.7761C76.6126 74.7401 76.6886 74.6107 76.6886 74.4121Z" fill="#392223"/>
<path d="M77.8655 72.7132L77.6255 72.6931L76.4375 73.3798L76.9335 74.3838L78.0682 73.7291C78.1682 73.6985 78.2335 73.5865 78.2335 73.4158C78.2335 73.1451 78.0682 72.8305 77.8655 72.7132Z" fill="#392223"/>
<path d="M77.5316 73.9778C77.5316 73.6205 77.3062 73.2178 77.0449 73.0498C76.8556 72.9284 76.3382 73.0578 75.7209 73.4471C75.2449 73.7458 73.6436 74.9111 73.6436 74.9111C73.6436 74.9111 74.0622 75.0844 74.1889 75.4884C74.3156 75.8924 74.1529 76.1484 74.1529 76.1484C74.1529 76.1484 76.2022 75.1578 76.5169 74.9564C77.3049 74.4524 77.5316 74.2725 77.5316 73.9778Z" fill="#CCB8B9"/>
<path d="M70.7669 76.7631L70.4829 76.7324L70.3496 76.8284L70.6269 76.8457C70.8629 76.9817 71.0536 77.3457 71.0536 77.6604C71.0536 77.8044 71.0109 77.923 70.9456 77.9844L71.0256 77.9617C71.1403 77.9097 71.1936 77.7764 71.1936 77.5777C71.1936 77.2644 71.0029 76.8991 70.7669 76.7631Z" fill="white"/>
<path d="M73.8939 74.9509L73.6112 74.9202L73.4766 75.0149L73.7552 75.0336C73.9912 75.1696 74.1819 75.5336 74.1819 75.8469C74.1819 75.9909 74.1392 76.1096 74.0739 76.1709L74.1526 76.1482C74.2686 76.0962 74.3206 75.9629 74.3206 75.7656C74.3206 75.4509 74.1299 75.0869 73.8939 74.9509Z" fill="white"/>
<path d="M68.1634 78.2689L67.8808 78.2382L67.7461 78.3342L68.0248 78.3516C68.2594 78.4876 68.4501 78.8529 68.4501 79.1662C68.4501 79.3102 68.4088 79.4276 68.3421 79.4902L68.4221 79.4676C68.5368 79.4156 68.5901 79.2822 68.5901 79.0849C68.5901 78.7702 68.3994 78.4049 68.1634 78.2689Z" fill="white"/>
<path d="M68.4509 79.1651C68.4509 78.8517 68.2603 78.4864 68.0256 78.3504L67.7243 78.3424C67.7243 78.3424 67.1403 78.5624 66.7669 79.0651C66.5736 79.3291 66.9243 79.977 67.1603 79.9504C67.6243 79.8984 68.3029 79.5104 68.3029 79.5104C68.3936 79.4584 68.4509 79.3384 68.4509 79.1651Z" fill="#CCB8B9"/>
<path d="M67.3193 79.6747C67.3193 79.9094 67.1767 80.0174 67.0007 79.916C66.8247 79.8147 66.6807 79.5414 66.6807 79.3067C66.6807 79.0721 66.8247 78.9641 67.0007 79.0654C67.1767 79.1681 67.3193 79.4401 67.3193 79.6747Z" fill="#B89E9F"/>
<path d="M67.1313 79.6203C67.1313 79.4683 67.038 79.2896 66.9233 79.2243L66.7766 79.2203C66.6633 79.2576 66.4873 79.2976 66.3073 79.3736C66.3073 79.3736 65.7606 79.5803 65.3886 79.8456C65.2126 79.971 64.962 80.1803 64.834 80.3496C65.2687 80.3149 65.826 80.3496 65.9993 80.3496C66.1913 80.3496 66.3926 80.3096 66.5593 80.2416L66.7633 80.1203C66.8273 80.0656 66.91 79.9829 67.0086 79.8549L67.1313 79.6203Z" fill="white"/>
<path d="M65.8795 79.7119L65.6661 79.7933C65.3835 79.9293 65.0701 80.0826 64.8555 80.3213L64.8581 80.3506C64.9141 80.3279 65.0688 80.2106 65.2328 80.1106C65.4075 80.0053 65.5861 79.9186 65.6995 79.8466L65.8795 79.7119Z" fill="#392223"/>
<path d="M76.6703 73.1916C76.1837 73.3156 75.7344 73.5703 75.317 73.8463C74.9064 74.1197 74.4597 74.417 74.1104 74.7676L74.129 74.793C74.5584 74.5356 74.9357 74.1876 75.3583 73.917C75.7823 73.6436 76.225 73.4303 76.6863 73.2276L76.6703 73.1916Z" fill="white"/>
<path d="M72.7979 75.4943C72.1659 75.8316 71.4406 76.2836 70.9326 76.6316L70.9459 76.6543C71.5859 76.341 72.2446 75.9516 72.8193 75.5316L72.7979 75.4943Z" fill="white"/>
<path d="M70.0957 77.1199C69.793 77.2505 69.5104 77.4439 69.2277 77.6145C68.945 77.7865 68.6557 77.9559 68.3877 78.1532L68.397 78.1719C68.6917 78.0159 68.9717 77.8332 69.257 77.6625C69.541 77.4932 69.845 77.3425 70.1117 77.1465L70.0957 77.1199Z" fill="white"/>
<path d="M67.8633 78.3919C67.63 78.4306 67.1793 78.7999 67.0967 78.9199L67.1113 78.9346C67.254 78.8639 67.7753 78.5146 67.886 78.4292L67.8633 78.3919Z" fill="white"/>
<path d="M77.3295 73.8439L77.2975 73.8493L77.2708 74.0266L77.2295 74.1746L77.2828 74.1973L77.3295 73.8439Z" fill="#B89E9F"/>
<path d="M77.0722 74.085L77.0255 74.097L77.0068 74.385L77.0282 74.4384L77.0642 74.4424L77.0962 74.4104L77.0722 74.085Z" fill="#B89E9F"/>
<path d="M74.5299 75.4656L74.5086 75.4709L74.4913 75.6202L74.4473 75.7736L74.4526 75.7803L74.5299 75.4656Z" fill="#B89E9F"/>
<path d="M68.2883 79.0546L68.2803 79.0559L68.2536 79.2506L68.1816 79.4399L68.2403 79.4746L68.2883 79.0546Z" fill="#B89E9F"/>
<path d="M67.9677 79.2812L67.9357 79.2892L67.9424 79.4198L67.9277 79.5505L68.0117 79.5625L67.9677 79.2812Z" fill="#B89E9F"/>
<path d="M66.717 79.8517L66.5344 79.9984L66.3184 80.0958L66.325 80.1411C66.4704 80.1824 66.7104 80.0144 66.7384 79.8678L66.717 79.8517Z" fill="#CCB8B9"/>
<path d="M59.2034 56.9079L43.6395 65.8945L37.8701 58.0519L53.4354 49.0652L59.2034 56.9079Z" fill="#573639"/>
<path d="M58.8951 56.8382L43.7084 65.6328L38.1777 58.1195L53.3657 49.3261L58.8951 56.8382Z" fill="#321F1F"/>
<path d="M67.5388 63.2012L51.9735 72.1865L43.6055 67.3559L59.1708 58.3692L67.5388 63.2012Z" fill="#3D2627"/>
<path d="M67.5388 61.7399L51.9735 70.7266L43.6055 65.8946L59.1708 56.9079L67.5388 61.7399Z" fill="#523336"/>
<path d="M66.7301 61.8031L66.9275 61.6884L59.1435 57.1951L44.1475 65.8564L44.3461 65.9697L59.1435 57.423L66.7301 61.8031Z" fill="#3D2627"/>
<path d="M66.7297 61.803L59.143 57.4229L44.3457 65.9696L51.9324 70.3496L66.7297 61.803Z" fill="#F03C4F"/>
<path d="M43.6055 65.8945V67.3559L51.9735 72.1865V70.7265L43.6055 65.8945Z" fill="#3D2627"/>
<path d="M67.539 61.7399V63.2012L51.9736 72.1865V70.7265L67.539 61.7399Z" fill="#321F1F"/>
<path d="M55.9082 67.041C55.6908 67.041 55.4215 66.997 55.3375 66.8157C55.1442 66.401 56.4628 66.1583 57.1668 65.4343C57.2722 65.3263 57.5295 65.2557 57.7615 65.2557C57.9242 65.2557 58.0748 65.2903 58.1522 65.3703C58.6335 65.8717 57.9868 66.461 57.5322 66.6263C57.2922 66.713 57.0402 66.7623 56.7975 66.8397C56.5628 66.9143 56.3322 67.005 56.0855 67.0317C56.0362 67.037 55.9748 67.041 55.9082 67.041Z" fill="#F1465A"/>
<path d="M51.2163 69.0439C51.043 69.0439 50.8696 69.0279 50.699 68.9933C50.0176 68.8559 49.4376 68.3959 48.847 68.0519C47.7896 67.4386 47.9763 66.8773 48.135 66.6173C48.3523 66.2613 48.831 66.1639 49.263 66.1639C49.4216 66.1639 49.5736 66.1773 49.7043 66.1959C50.4243 66.2973 51.0696 66.6359 51.7363 66.9013C52.131 67.0586 52.5376 67.1933 52.963 67.2319C52.9736 67.2319 52.9856 67.2333 52.9976 67.2333C53.0683 67.2333 53.163 67.2173 53.2723 67.2026C53.383 67.1866 53.5083 67.1719 53.643 67.1719C53.915 67.1719 54.223 67.2346 54.511 67.4853C54.8923 67.8199 54.6123 68.2813 54.3456 68.3773C53.8136 68.5693 53.0243 68.6679 52.5123 68.8213C52.095 68.9466 51.655 69.0439 51.2163 69.0439Z" fill="#F1465A"/>
<path d="M55.1313 60.8809C55.0819 60.8302 55.0433 60.7715 55.0179 60.7035C54.8686 60.3022 55.5619 59.9915 55.8059 59.8315C56.3926 59.4462 57.0046 59.0996 57.6459 58.8116C58.1379 58.5902 58.6846 58.3409 59.2366 58.3409C59.3059 58.3409 59.3753 58.3449 59.4446 58.3529C59.8086 58.3969 60.7433 58.6862 61.8299 59.5062C62.1379 59.7382 62.5206 60.1316 62.0926 60.3462C61.8153 60.4849 61.4566 60.5235 61.1539 60.5809C60.8646 60.6369 60.5726 60.6982 60.2806 60.7289C60.2086 60.7382 60.1366 60.7409 60.0673 60.7409C59.7779 60.7409 59.5059 60.6822 59.2099 60.6489C59.1539 60.6435 59.0993 60.6396 59.0459 60.6396C58.7686 60.6396 58.5393 60.7209 58.2779 60.8116L56.7833 59.9436L55.2086 60.8529L55.2246 60.8155L55.1926 60.7715L55.1313 60.8809ZM59.5739 60.4995L59.5539 60.5249L59.7273 60.6849L59.7726 60.6262L59.5739 60.4995ZM57.3673 59.5449C57.3059 59.5449 57.2459 59.5489 57.1926 59.5542L57.1859 59.6062C57.2926 59.6396 57.4313 59.6715 57.5553 59.6715C57.5886 59.6715 57.6206 59.6689 57.6513 59.6635V59.5875C57.5686 59.5555 57.4659 59.5449 57.3673 59.5449ZM58.1553 59.2782L57.9659 59.4742L58.0246 59.4982L58.0873 59.4089L58.1739 59.3102L58.1553 59.2782Z" fill="#F1465A"/>
<path d="M65.8752 61.6137L65.8699 61.6057L65.7339 61.683L65.6992 61.9004L65.7939 61.8751L65.8152 61.7084L65.8752 61.6137Z" fill="#EF2C3C"/>
<path d="M65.571 62.0808L65.4844 61.9635L65.3804 61.8328L65.3457 61.8408L65.5204 62.1328L65.571 62.0808Z" fill="#EF2C3C"/>
<path d="M65.0922 61.349L64.7988 61.5743L64.8642 61.625L64.9815 61.505L65.1162 61.3903L65.0922 61.349Z" fill="#EF2C3C"/>
<path d="M64.5142 61.5187L64.4902 61.5601L64.6049 61.6574L64.7102 61.748L64.7622 61.7081L64.5142 61.5187Z" fill="#EF2C3C"/>
<path d="M64.2116 62.5944L64.0209 62.5411L64.0049 62.5957L64.1729 62.6877L64.3035 62.7197L64.3222 62.6877L64.2116 62.5944Z" fill="#EF2C3C"/>
<path d="M62.1944 63.6682L62.0264 63.9402L62.0704 63.9521L62.1357 63.8388L62.225 63.7082L62.1944 63.6682Z" fill="#EF2C3C"/>
<path d="M61.3437 63.8643L61.333 63.9056L61.465 63.9869L61.5823 64.0576L61.609 64.0296L61.3437 63.8643Z" fill="#EF2C3C"/>
<path d="M58.95 64.0112L58.9434 64.0632L59.0687 64.1366L59.146 64.1992L59.1874 64.1672L58.95 64.0112Z" fill="#EF2C3C"/>
<path d="M59.4471 63.8975L59.3418 64.1028L59.4071 64.1201L59.5071 63.9428L59.4471 63.8975Z" fill="#EF2C3C"/>
<path d="M58.9792 64.3845L58.8271 64.6591L58.8658 64.6738L58.9365 64.5765L59.0325 64.4378L58.9792 64.3845Z" fill="#EF2C3C"/>
<path d="M60.242 64.7477L59.918 64.6717V64.7037L60.066 64.7437L60.2086 64.8037L60.242 64.7477Z" fill="#EF2C3C"/>
<path d="M63.3592 61.2828L63.1738 61.5562L63.2258 61.5762L63.2978 61.4588L63.3898 61.3228L63.3592 61.2828Z" fill="#EF2C3C"/>
<path d="M62.5275 62.4031L62.2342 62.3444L62.2275 62.3964L62.4822 62.5098L62.5382 62.4951L62.5555 62.4537L62.5275 62.4031Z" fill="#EF2C3C"/>
<path d="M62.534 62.0042L62.502 62.0362L62.5753 62.1615L62.6633 62.2842L62.718 62.2602L62.534 62.0042Z" fill="#EF2C3C"/>
<path d="M60.7876 62.1032L60.6543 62.3672H60.7596L60.8316 62.1379L60.7876 62.1032Z" fill="#EF2C3C"/>
<path d="M60.5325 62.5877L60.2951 62.3623L60.2578 62.3983L60.3632 62.5183L60.4845 62.625L60.5325 62.5877Z" fill="#EF2C3C"/>
<path d="M61.1672 60.1187L60.8325 60.0254L60.8271 60.0694L60.9792 60.132L61.1365 60.1934L61.1672 60.1187Z" fill="#EF2C3C"/>
<path d="M61.5726 59.9347L61.3926 60.18L61.4592 60.208L61.5326 60.096L61.6126 59.9733L61.5726 59.9347Z" fill="#EF2C3C"/>
<path d="M62.4963 60.4092L62.2189 60.2785L62.2109 60.3065L62.3296 60.3852L62.4536 60.4639L62.4963 60.4092Z" fill="#EF2C3C"/>
<path d="M61.6355 60.8653C61.5142 60.8933 61.3702 60.9639 61.3262 61.0879L61.3782 61.1279L61.4982 61.0186L61.6555 60.9133L61.6355 60.8653Z" fill="#EF2C3C"/>
<path d="M59.754 61.0437C59.6607 60.969 59.538 60.9077 59.418 60.901L59.4033 60.9557L59.6913 61.125H59.7433L59.7673 61.0943L59.754 61.0437Z" fill="#EF2C3C"/>
<path d="M59.7724 60.6269L59.5737 60.5002L59.5537 60.5256L59.7271 60.6855L59.7724 60.6269Z" fill="#EF2C3C"/>
<path d="M57.9232 62.2423L57.9072 62.2983L58.0646 62.3929L58.1992 62.4609L58.2312 62.4209L57.9232 62.2423Z" fill="#EF2C3C"/>
<path d="M58.718 62.14L58.5674 62.428L58.6274 62.4453L58.6914 62.3093L58.762 62.1746L58.718 62.14Z" fill="#EF2C3C"/>
<path d="M57.5716 63.6589L57.4036 63.6083L57.1743 63.6016L57.1689 63.6389L57.3903 63.7069L57.5636 63.7109L57.5716 63.6589Z" fill="#EF2C3C"/>
<path d="M57.7701 63.3364L57.7168 63.3577L57.7275 63.4937L57.7435 63.615L57.8088 63.623L57.7701 63.3364Z" fill="#EF2C3C"/>
<path d="M57.6967 61.4891L57.3354 61.3718L57.3301 61.4171L57.4927 61.4878L57.6607 61.5518L57.6967 61.4891Z" fill="#EF2C3C"/>
<path d="M57.7041 61.1092L57.6748 61.1585L57.8095 61.3252L57.8615 61.3119L57.7041 61.1092Z" fill="#EF2C3C"/>
<path d="M60.3203 58.7225L60.1416 58.9878L60.1909 59.0078L60.3456 58.7545L60.3203 58.7225Z" fill="#EF2C3C"/>
<path d="M59.7912 58.663L59.7539 58.6777L59.7566 58.8097L59.7792 58.9297H59.8406L59.7912 58.663Z" fill="#EF2C3C"/>
<path d="M58.4165 58.6555L58.0645 58.6648V58.7075L58.4165 58.7168V58.6555Z" fill="#EF2C3C"/>
<path d="M58.5648 58.3239L58.5088 58.3665L58.6181 58.5479L58.6848 58.5199L58.5648 58.3239Z" fill="#EF2C3C"/>
<path d="M58.1551 59.279L57.9658 59.475L58.0245 59.499L58.0871 59.4097L58.1738 59.311L58.1551 59.279Z" fill="#EF2C3C"/>
<path d="M57.6509 59.5885C57.5175 59.5365 57.3309 59.5405 57.1922 59.5552L57.1855 59.6072C57.3215 59.6498 57.5082 59.6885 57.6509 59.6645V59.5885Z" fill="#EF2C3C"/>
<path d="M56.7901 60.0504L56.6914 60.3877H56.7527L56.7967 60.2304L56.8314 60.073L56.7901 60.0504Z" fill="#EF2C3C"/>
<path d="M56.226 60.3441L56.1953 60.3854L56.3167 60.5361L56.3606 60.5188L56.226 60.3441Z" fill="#EF2C3C"/>
<path d="M54.4355 62.1664C54.3609 62.0451 54.1436 62.0224 54.0142 62.0291L54.0049 62.0891L54.2156 62.1557L54.4049 62.2197L54.4355 62.1664Z" fill="#EF2C3C"/>
<path d="M54.4819 61.8707L54.4326 61.9201L54.5326 62.0947L54.5886 62.0801L54.4819 61.8707Z" fill="#EF2C3C"/>
<path d="M54.7423 60.8054L54.4316 60.7987L54.437 60.8427L54.585 60.8654L54.733 60.8721L54.7423 60.8054Z" fill="#EF2C3C"/>
<path d="M55.1926 60.7716L55.0459 61.0356L55.1192 61.0449L55.2246 60.8156L55.1926 60.7716Z" fill="#EF2C3C"/>
<path d="M55.946 61.9706L55.6153 61.8813L55.6113 61.9186L55.7633 61.9786L55.9207 62.0293L55.946 61.9706Z" fill="#EF2C3C"/>
<path d="M56.2437 61.5865L56.205 61.5958L56.1943 61.8718L56.237 61.8838L56.2437 61.5865Z" fill="#EF2C3C"/>
<path d="M55.6494 63.151L55.6081 63.1404L55.5401 63.2563L55.4814 63.3843L55.5401 63.4297L55.6494 63.151Z" fill="#EF2C3C"/>
<path d="M53.0656 62.1132L52.8896 61.9839L52.8496 62.0532L53.0389 62.1572L53.0656 62.1132Z" fill="#EF2C3C"/>
<path d="M58.6125 65.617L58.6072 65.6077L58.4699 65.685L58.4365 65.9023L58.5312 65.877L58.5525 65.7104L58.6125 65.617Z" fill="#EF2C3C"/>
<path d="M58.3083 66.0851L58.2203 65.9664L58.1163 65.8357L58.083 65.8438L58.2563 66.1357L58.3083 66.0851Z" fill="#EF2C3C"/>
<path d="M57.8298 65.3516L57.5352 65.5769L57.6018 65.6289L57.7192 65.5076L57.8538 65.3942L57.8298 65.3516Z" fill="#EF2C3C"/>
<path d="M57.2515 65.523L57.2275 65.563L57.3409 65.6603L57.4475 65.751L57.4982 65.711L57.2515 65.523Z" fill="#EF2C3C"/>
<path d="M56.9489 66.5979L56.7569 66.5446L56.7422 66.5993L56.9089 66.6913L57.0395 66.7246L57.0582 66.6913L56.9489 66.5979Z" fill="#EF2C3C"/>
<path d="M54.9297 67.6724L54.7617 67.9431L54.807 67.9551L54.871 67.8418L54.9617 67.7124L54.9297 67.6724Z" fill="#EF2C3C"/>
<path d="M54.0804 67.8672L54.0684 67.9099L54.2004 67.9899L54.3177 68.0605L54.3444 68.0339L54.0804 67.8672Z" fill="#EF2C3C"/>
<path d="M51.6863 68.0132L51.6797 68.0638L51.8063 68.1385L51.8837 68.2012L51.925 68.1705L51.6863 68.0132Z" fill="#EF2C3C"/>
<path d="M52.1831 67.8991L52.0791 68.1057L52.1444 68.123L52.2431 67.9457L52.1831 67.8991Z" fill="#EF2C3C"/>
<path d="M51.6807 69.5588L51.3634 69.4748L51.3594 69.5108L51.506 69.5681L51.6447 69.6201L51.6807 69.5588Z" fill="#EF2C3C"/>
<path d="M51.7165 68.3864L51.5645 68.6611L51.6018 68.6758L51.6724 68.5785L51.7698 68.4398L51.7165 68.3864Z" fill="#EF2C3C"/>
<path d="M52.9783 68.7512L52.6543 68.6753V68.7086L52.8036 68.7473L52.9463 68.8086L52.9783 68.7512Z" fill="#EF2C3C"/>
<path d="M56.0951 65.2854L55.9111 65.5587L55.9618 65.5801L56.0338 65.4614L56.1271 65.3254L56.0951 65.2854Z" fill="#EF2C3C"/>
<path d="M55.2629 66.4064L54.9709 66.3464L54.9629 66.3984L55.2189 66.5117L55.2749 66.497L55.2922 66.4557L55.2629 66.4064Z" fill="#EF2C3C"/>
<path d="M55.2699 66.0071L55.2393 66.0391L55.3113 66.1645L55.3993 66.2871L55.4539 66.2631L55.2699 66.0071Z" fill="#EF2C3C"/>
<path d="M53.523 66.1051L53.3896 66.3691H53.4963L53.5683 66.1398L53.523 66.1051Z" fill="#EF2C3C"/>
<path d="M53.2698 66.5906L53.0311 66.3653L52.9951 66.4013L53.1005 66.5213L53.2218 66.6279L53.2698 66.5906Z" fill="#EF2C3C"/>
<path d="M53.9035 64.1216L53.5701 64.0283L53.5635 64.0723L53.7168 64.135L53.8728 64.1963L53.9035 64.1216Z" fill="#EF2C3C"/>
<path d="M54.3102 63.9376L54.1289 64.1842L54.1969 64.2109L54.2702 64.0989L54.3489 63.9776L54.3102 63.9376Z" fill="#EF2C3C"/>
<path d="M55.2336 64.4121L54.9549 64.2828L54.9482 64.3095L55.0656 64.3881L55.1909 64.4668L55.2336 64.4121Z" fill="#EF2C3C"/>
<path d="M54.3708 64.8682C54.2508 64.8962 54.1069 64.9669 54.0615 65.0909L54.1149 65.1309L54.2348 65.0215L54.3922 64.9162L54.3708 64.8682Z" fill="#EF2C3C"/>
<path d="M56.8676 64.2106C56.7476 64.2399 56.6036 64.3106 56.5596 64.4346L56.6116 64.4746L56.7316 64.3653L56.8889 64.2599L56.8676 64.2106Z" fill="#EF2C3C"/>
<path d="M52.4903 65.0466C52.3983 64.9719 52.2756 64.9106 52.1543 64.9039L52.1396 64.9586L52.4277 65.1279H52.4797L52.5036 65.0973L52.4903 65.0466Z" fill="#EF2C3C"/>
<path d="M52.5083 64.6288L52.3097 64.5022L52.291 64.5275L52.4644 64.6875L52.5083 64.6288Z" fill="#EF2C3C"/>
<path d="M50.6592 66.2452L50.6445 66.3012L50.8019 66.3959L50.9365 66.4639L50.9672 66.4239L50.6592 66.2452Z" fill="#EF2C3C"/>
<path d="M51.454 66.1429L51.3047 66.4323L51.3647 66.4482L51.4287 66.3123L51.4994 66.1776L51.454 66.1429Z" fill="#EF2C3C"/>
<path d="M50.3076 67.6615L50.1409 67.6109L49.9103 67.6042L49.9062 67.6415L50.1276 67.7109L50.3009 67.7148L50.3076 67.6615Z" fill="#EF2C3C"/>
<path d="M50.5055 67.3383L50.4521 67.361L50.4628 67.4957L50.4788 67.617L50.5442 67.625L50.5055 67.3383Z" fill="#EF2C3C"/>
<path d="M50.4331 65.492L50.0717 65.376L50.0664 65.42L50.2304 65.4907L50.3971 65.5547L50.4331 65.492Z" fill="#EF2C3C"/>
<path d="M50.4414 65.1121L50.4121 65.1615L50.5468 65.3281L50.5974 65.3148L50.4414 65.1121Z" fill="#EF2C3C"/>
<path d="M53.0579 62.7254L52.8779 62.9907L52.9273 63.0107L53.0833 62.7574L53.0579 62.7254Z" fill="#EF2C3C"/>
<path d="M52.5289 62.665L52.4902 62.6797L52.4942 62.8117L52.5169 62.9316H52.5769L52.5289 62.665Z" fill="#EF2C3C"/>
<path d="M51.1524 62.6584L50.8018 62.6677V62.7104L51.1524 62.7197V62.6584Z" fill="#EF2C3C"/>
<path d="M51.3008 62.3281L51.2461 62.3695L51.3554 62.5508L51.4208 62.5241L51.3008 62.3281Z" fill="#EF2C3C"/>
<path d="M50.8928 63.2833L50.7021 63.478L50.7608 63.502L50.8235 63.414L50.9102 63.314L50.8928 63.2833Z" fill="#EF2C3C"/>
<path d="M50.3872 63.5912C50.2539 63.5392 50.0685 63.5432 49.9285 63.5592L49.9219 63.6099C50.0579 63.6526 50.2445 63.6926 50.3872 63.6686V63.5912Z" fill="#EF2C3C"/>
<path d="M49.5277 64.0533L49.4277 64.3906H49.4891L49.5344 64.2333L49.5691 64.076L49.5277 64.0533Z" fill="#EF2C3C"/>
<path d="M48.9636 64.3471L48.9316 64.3884L49.0543 64.5391L49.0983 64.5217L48.9636 64.3471Z" fill="#EF2C3C"/>
<path d="M47.1729 66.17C47.0969 66.05 46.8795 66.026 46.7515 66.0326L46.7422 66.0926L46.9515 66.1606L47.1422 66.2246L47.1729 66.17Z" fill="#EF2C3C"/>
<path d="M47.2179 65.8737L47.1699 65.923L47.2699 66.0977L47.3246 66.0843L47.2179 65.8737Z" fill="#EF2C3C"/>
<path d="M47.4777 64.8083L47.167 64.8017L47.1723 64.8457L47.3203 64.8683L47.4696 64.875L47.4777 64.8083Z" fill="#EF2C3C"/>
<path d="M47.9285 64.7759L47.7832 65.0385L47.8565 65.0479L47.9619 64.8185L47.9285 64.7759Z" fill="#EF2C3C"/>
<path d="M48.6823 65.9736L48.353 65.8855L48.3477 65.9215L48.501 65.9815L48.6583 66.0322L48.6823 65.9736Z" fill="#EF2C3C"/>
<path d="M48.9796 65.5894L48.9423 65.5987L48.9316 65.8761L48.973 65.8867L48.9796 65.5894Z" fill="#EF2C3C"/>
<path d="M48.3868 67.153L48.3441 67.1423L48.2774 67.2583L48.2188 67.3863L48.2761 67.4316L48.3868 67.153Z" fill="#EF2C3C"/>
<path d="M45.8029 66.1158L45.6256 65.9865L45.5869 66.0558L45.7763 66.1611L45.8029 66.1158Z" fill="#EF2C3C"/>
<path d="M37.8698 58.0519L37.6592 59.2265L42.6552 65.8692L43.6392 65.8945L37.8698 58.0519Z" fill="#321F1F"/>
<path d="M53.3642 49.3268L53.2002 50.2402L58.1962 56.8828L58.8949 56.8402L53.3642 49.3268Z" fill="#281A1A"/>
<path d="M38.1777 58.1199L38.5911 58.6865L53.2004 50.2399L53.3644 49.3265L38.1777 58.1199Z" fill="#3D2627"/>
<path d="M58.197 56.8821L43.5156 65.3701L43.709 65.6328L58.8956 56.8382L58.197 56.8821Z" fill="#3D2627"/>
<path d="M56.7415 64.3721L56.7295 64.3667L56.7308 64.3654L56.8882 64.2601L56.8668 64.2107C56.7922 64.2294 56.7082 64.2627 56.6442 64.316L52.9375 62.1641L52.9922 62.1321L53.0388 62.1574L53.0655 62.1134L53.0482 62.1001L55.1188 60.9041L55.0455 61.0361L55.1188 61.0454L55.1762 60.9214C55.3682 61.0827 55.6762 61.1414 55.9402 61.1414C56.0455 61.1414 56.1442 61.132 56.2255 61.116C56.5548 61.0507 56.8482 60.9347 57.1895 60.9347C57.1988 60.9347 57.2082 60.9347 57.2175 60.9347C57.2748 60.9347 57.3308 60.9361 57.3868 60.9361C57.4442 60.9374 57.5015 60.9387 57.5575 60.9387C57.7535 60.9387 57.9428 60.9254 58.1468 60.8561C58.1922 60.8414 58.2348 60.8267 58.2775 60.8121L60.5868 62.1521L56.7415 64.3721ZM57.1735 63.6014L57.1682 63.6387L57.3895 63.7067L57.5628 63.7107L57.5708 63.6587L57.4028 63.6081L57.1735 63.6014ZM57.7695 63.3361L57.7162 63.3574L57.7268 63.4934L57.7428 63.6147L57.8082 63.6227L57.7695 63.3361ZM55.6082 63.1401L55.5402 63.2561L55.4815 63.384L55.5402 63.4294L55.6495 63.1507L55.6082 63.1401ZM57.9228 62.2427L57.9068 62.2987L58.0642 62.3934L58.1988 62.4614L58.2308 62.4214L57.9228 62.2427ZM58.7175 62.1401L58.5668 62.4281L58.6268 62.4454L58.6908 62.3094L58.7615 62.1747L58.7175 62.1401ZM54.0535 62.0281C54.0388 62.0281 54.0255 62.0281 54.0135 62.0294L54.0042 62.0894L54.2148 62.1561L54.4042 62.2201L54.4348 62.1667C54.3668 62.0574 54.1842 62.0281 54.0535 62.0281ZM54.4815 61.8707L54.4322 61.9201L54.5322 62.0947L54.5882 62.0801L54.4815 61.8707ZM55.6148 61.8814L55.6108 61.9187L55.7628 61.9787L55.9202 62.0294L55.9455 61.9707L55.6148 61.8814ZM56.2428 61.5867L56.2042 61.5961L56.1935 61.8721L56.2362 61.884L56.2428 61.5867ZM57.3348 61.3721L57.3295 61.4174L57.4922 61.4881L57.6602 61.5521L57.6962 61.4894L57.3348 61.3721ZM57.7042 61.1094L57.6748 61.1587L57.8095 61.3254L57.8615 61.3121L57.7042 61.1094Z" fill="#EF3444"/>
<path d="M55.9408 61.1416C55.6768 61.1416 55.3688 61.0829 55.1768 60.9216L55.2088 60.8536L56.7834 59.9443L58.2781 60.8123C58.2354 60.8269 58.1928 60.8416 58.1474 60.8563C57.9434 60.9256 57.7541 60.9389 57.5581 60.9389C57.5021 60.9389 57.4448 60.9376 57.3874 60.9363C57.3314 60.9363 57.2754 60.9349 57.2181 60.9349C57.2087 60.9349 57.1994 60.9349 57.1901 60.9349C56.8488 60.9349 56.5554 61.0509 56.2261 61.1162C56.1448 61.1322 56.0461 61.1416 55.9408 61.1416ZM56.2261 60.3443L56.1954 60.3856L56.3168 60.5363L56.3608 60.5189L56.2261 60.3443ZM56.7901 60.0509L56.6914 60.3882H56.7528L56.7968 60.2309L56.8314 60.0736L56.7901 60.0509Z" fill="#F0384A"/>
<path d="M58.1992 62.4609L58.0646 62.3929L57.9072 62.2983L57.9232 62.2423L58.2312 62.4209L58.1992 62.4609Z" fill="#EF2C3C"/>
<path d="M58.6274 62.4453L58.5674 62.428L58.718 62.14L58.762 62.1746L58.6914 62.3093L58.6274 62.4453Z" fill="#EF2C3C"/>
<path d="M57.5636 63.7109L57.3903 63.7069L57.1689 63.6389L57.1743 63.6016L57.4036 63.6083L57.5716 63.6589L57.5636 63.7109Z" fill="#EF2C3C"/>
<path d="M57.8088 63.623L57.7435 63.615L57.7275 63.4937L57.7168 63.3577L57.7701 63.3364L57.8088 63.623Z" fill="#EF2C3C"/>
<path d="M57.6607 61.5518L57.4927 61.4878L57.3301 61.4171L57.3354 61.3718L57.6967 61.4891L57.6607 61.5518Z" fill="#EF2C3C"/>
<path d="M57.8095 61.3252L57.6748 61.1585L57.7041 61.1092L57.8615 61.3119L57.8095 61.3252Z" fill="#EF2C3C"/>
<path d="M56.7527 60.3877H56.6914L56.7901 60.0504L56.8314 60.073L56.7967 60.2304L56.7527 60.3877Z" fill="#EF2C3C"/>
<path d="M56.3167 60.5361L56.1953 60.3854L56.226 60.3441L56.3606 60.5188L56.3167 60.5361Z" fill="#EF2C3C"/>
<path d="M54.4049 62.2197L54.2156 62.1557L54.0049 62.0891L54.0142 62.0291C54.0262 62.0277 54.0395 62.0277 54.0542 62.0277C54.1849 62.0277 54.3675 62.0571 54.4355 62.1664L54.4049 62.2197Z" fill="#EF2C3C"/>
<path d="M54.5326 62.0947L54.4326 61.9201L54.4819 61.8707L54.5886 62.0801L54.5326 62.0947Z" fill="#EF2C3C"/>
<path d="M55.1192 61.0449L55.0459 61.0356L55.1192 60.9036L55.2086 60.8529L55.1766 60.9209L55.1192 61.0449Z" fill="#EF2C3C"/>
<path d="M55.9207 62.0293L55.7633 61.9786L55.6113 61.9186L55.6153 61.8813L55.946 61.9706L55.9207 62.0293Z" fill="#EF2C3C"/>
<path d="M56.237 61.8838L56.1943 61.8718L56.205 61.5958L56.2437 61.5865L56.237 61.8838Z" fill="#EF2C3C"/>
<path d="M55.5401 63.4297L55.4814 63.3843L55.5401 63.2563L55.6081 63.1404L55.6494 63.151L55.5401 63.4297Z" fill="#EF2C3C"/>
<path d="M53.0389 62.1572L52.9922 62.1319L53.0482 62.0999L53.0655 62.1132L53.0389 62.1572Z" fill="#EF2C3C"/>
<path d="M56.7299 64.3672L56.6445 64.3165C56.7085 64.2632 56.7925 64.2299 56.8672 64.2112L56.8885 64.2605L56.7312 64.3659L56.7299 64.3672Z" fill="#EF2C3C"/>
<path d="M60.2181 61.5255L56.7328 63.5361L53.2861 61.5361L56.7701 59.5241L60.2181 61.5255Z" fill="#F3DEA5"/>
<path d="M59.2897 61.2992L56.7204 62.7832L54.1777 61.3072L56.7484 59.8232L59.2897 61.2992Z" fill="#E2C184"/>
<path d="M56.7324 63.5364V64.1377L60.2177 62.1257V61.5257L56.7324 63.5364Z" fill="#DBAF6D"/>
<path d="M53.2861 61.5364V62.135L56.7328 64.1377V63.5364L53.2861 61.5364Z" fill="#E2C184"/>
<path d="M56.7621 60.4697C56.0567 60.4697 55.4834 60.775 55.4834 61.1497C55.4834 61.5257 56.0567 61.8311 56.7621 61.8311C57.4687 61.8311 58.0407 61.5257 58.0407 61.1497C58.0407 60.775 57.4687 60.4697 56.7621 60.4697Z" fill="white"/>
<path d="M56.7503 60.3138C56.129 60.3138 55.625 60.5804 55.625 60.9111C55.625 61.2418 56.129 61.5098 56.7503 61.5098C57.3703 61.5098 57.8743 61.2418 57.8743 60.9111C57.8743 60.5804 57.3703 60.3138 56.7503 60.3138Z" fill="#E2C184"/>
<path d="M56.7621 59.8783C56.0567 59.8783 55.4834 60.1823 55.4834 60.5583C55.4834 60.9343 56.0567 61.2383 56.7621 61.2383C57.4687 61.2383 58.0407 60.9343 58.0407 60.5583C58.0407 60.1823 57.4687 59.8783 56.7621 59.8783Z" fill="white"/>
<path d="M57.631 59.154C57.667 58.7126 57.999 58.2473 57.999 58.2473L57.3123 58.3926L56.7443 58.426L56.175 58.3926L55.4736 58.2473C55.4736 58.2473 55.8203 58.7126 55.8563 59.154C55.883 59.482 55.6283 59.982 55.6283 60.282V60.2833L55.6243 60.3206C55.6243 60.65 56.1283 60.918 56.7496 60.918C57.3696 60.918 57.8736 60.65 57.8736 60.3206L57.8523 60.206C57.819 59.902 57.607 59.4553 57.631 59.154Z" fill="#F3DEA5"/>
<path d="M58.3055 57.2991C58.3055 58.1671 57.6015 58.8711 56.7322 58.8711C55.8642 58.8711 55.1602 58.1671 55.1602 57.2991C55.1602 56.4298 55.8642 55.7257 56.7322 55.7257C57.6015 55.7257 58.3055 56.4298 58.3055 57.2991Z" fill="#F3DEA5"/>
<path d="M56.935 57.2045C56.6697 57.6632 56.159 57.8632 55.7937 57.6525C55.427 57.4418 55.3457 56.8979 55.611 56.4405C55.875 55.9819 56.3857 55.7818 56.7523 55.9925C57.1163 56.2032 57.199 56.7472 56.935 57.2045Z" fill="#FEF0D0"/>
<path d="M56.3849 56.7066C56.2262 56.8973 55.9836 56.9573 55.8449 56.8413C55.7049 56.724 55.7222 56.476 55.8809 56.2853C56.0396 56.0946 56.2822 56.0346 56.4209 56.1506C56.5595 56.268 56.5435 56.516 56.3849 56.7066Z" fill="white"/>
<path d="M57.842 57.811L57.7793 57.8017L57.73 57.9937L57.666 58.183L57.758 58.2217C57.8193 58.1083 57.8553 57.939 57.842 57.811Z" fill="#DBAF6D"/>
<path d="M57.4295 58.1685L57.3975 58.1858L57.4268 58.3711L57.4148 58.5458L57.4788 58.5645L57.4295 58.1685Z" fill="#DBAF6D"/>
<path d="M57.5489 59.9811H57.4995C57.4729 60.1011 57.4595 60.2038 57.3809 60.3065V60.3491L57.4075 60.3691L57.4569 60.3491C57.5302 60.2505 57.5875 60.1051 57.5489 59.9811Z" fill="#DBAF6D"/>
<path d="M57.677 60.3077L57.5797 60.4317L57.4717 60.5317L57.4997 60.5811L57.7183 60.3237L57.677 60.3077Z" fill="#DBAF6D"/>
<path d="M56.4778 63.5735L56.2311 63.5629L56.2178 63.6122L56.4938 63.6309L56.4778 63.5735Z" fill="#DBAF6D"/>
<path d="M55.8645 63.385L55.7579 63.281L55.6845 63.1703L55.6445 63.181L55.8459 63.4316L55.8645 63.385Z" fill="#DBAF6D"/>
<path d="M59.4949 61.2673L59.4482 61.3046L59.4962 61.5219L59.5309 61.5312L59.4949 61.2673Z" fill="#DBAF6D"/>
<path d="M59.4489 61.7057L59.2969 61.6764L59.1116 61.651L59.0996 61.6951L59.4409 61.7617L59.4489 61.7057Z" fill="#DBAF6D"/>
<path d="M53.7883 62.2129L53.627 62.0849L53.507 61.9022L53.4736 61.9116C53.4856 62.0569 53.6043 62.2569 53.7656 62.2676L53.7883 62.2129Z" fill="#DBAF6D"/>
<path d="M64.1728 60.9323C63.8954 60.6763 63.3781 60.8496 62.7821 60.8496C62.1874 60.8496 61.6701 60.6763 61.3928 60.9323H61.1768V61.703C61.1768 62.175 61.8954 62.5576 62.7821 62.5576C63.6688 62.5576 64.3874 62.175 64.3874 61.703V60.9323H64.1728Z" fill="#CCB8B9"/>
<path d="M62.7821 60.1533C61.8954 60.1533 61.1768 60.536 61.1768 61.008C61.1768 61.48 61.8954 61.8613 62.7821 61.8613C63.6688 61.8613 64.3874 61.48 64.3874 61.008C64.3874 60.536 63.6688 60.1533 62.7821 60.1533Z" fill="white"/>
<path d="M62.782 60.31C62.1353 60.31 61.6113 60.59 61.6113 60.9326C61.6113 61.278 62.1353 61.5566 62.782 61.5566C63.4287 61.5566 63.954 61.278 63.954 60.9326C63.954 60.59 63.4287 60.31 62.782 60.31Z" fill="#DFCDCD"/>
<path d="M61.9658 59.8005V60.7685C61.9658 61.0085 62.3325 61.2031 62.7818 61.2031C63.2325 61.2031 63.5992 61.0085 63.5992 60.7685V59.8005H61.9658Z" fill="#C0ACAC"/>
<path d="M63.7757 59.3664L63.4011 59.397L63.357 59.4917C63.209 59.4144 63.0064 59.3664 62.7824 59.3664C62.5597 59.3664 62.3557 59.4144 62.2077 59.4917L62.1637 59.397L61.789 59.3664C61.789 59.3664 61.773 59.4464 61.8717 59.5771C61.9717 59.7077 61.9664 59.7997 61.9664 59.7997C61.9664 60.0397 62.3331 60.2344 62.7824 60.2344C63.2331 60.2344 63.5997 60.0397 63.5997 59.7997L63.5984 59.7917L63.693 59.5771C63.7917 59.4464 63.7757 59.3664 63.7757 59.3664Z" fill="#392223"/>
<path d="M62.7824 58.8372C62.2344 58.8372 61.7891 59.0732 61.7891 59.3665C61.7891 59.6572 62.2344 59.8945 62.7824 59.8945C63.3317 59.8945 63.7771 59.6572 63.7771 59.3665C63.7771 59.0732 63.3317 58.8372 62.7824 58.8372Z" fill="#452B2C"/>
<path d="M62.7721 58.6957C62.2895 58.6957 61.8975 58.9023 61.8975 59.1597C61.8975 59.417 62.2895 59.625 62.7721 59.625C63.2548 59.625 63.6455 59.417 63.6455 59.1597C63.6455 58.9023 63.2548 58.6957 62.7721 58.6957Z" fill="#392223"/>
<path d="M62.7824 58.3518C62.2344 58.3518 61.7891 58.5892 61.7891 58.8812C61.7891 59.1732 62.2344 59.4092 62.7824 59.4092C63.3317 59.4092 63.7771 59.1732 63.7771 58.8812C63.7771 58.5892 63.3317 58.3518 62.7824 58.3518Z" fill="#452B2C"/>
<path d="M62.7721 58.1918C62.2895 58.1918 61.8975 58.3998 61.8975 58.6571C61.8975 58.9144 62.2895 59.1211 62.7721 59.1211C63.2548 59.1211 63.6455 58.9144 63.6455 58.6571C63.6455 58.3998 63.2548 58.1918 62.7721 58.1918Z" fill="#392223"/>
<path d="M64.0049 57.6992C64.0049 58.3739 63.4582 58.9219 62.7822 58.9219C62.1076 58.9219 61.5596 58.3739 61.5596 57.6992C61.5596 57.0246 62.1076 56.4766 62.7822 56.4766C63.4582 56.4766 64.0049 57.0246 64.0049 57.6992Z" fill="#452B2C"/>
<path d="M62.7721 56.1215C62.2895 56.1215 61.8975 56.3295 61.8975 56.5868C61.8975 56.8428 62.2895 57.0508 62.7721 57.0508C63.2548 57.0508 63.6455 56.8428 63.6455 56.5868C63.6455 56.3295 63.2548 56.1215 62.7721 56.1215Z" fill="#392223"/>
<path d="M62.7824 55.7786C62.2344 55.7786 61.7891 56.0146 61.7891 56.3079C61.7891 56.5986 62.2344 56.8359 62.7824 56.8359C63.3317 56.8359 63.7771 56.5986 63.7771 56.3079C63.7771 56.0146 63.3317 55.7786 62.7824 55.7786Z" fill="#452B2C"/>
<path d="M62.7721 55.6562C62.2895 55.6562 61.8975 55.8656 61.8975 56.1216C61.8975 56.3789 62.2895 56.5869 62.7721 56.5869C63.2548 56.5869 63.6455 56.3789 63.6455 56.1216C63.6455 55.8656 63.2548 55.6562 62.7721 55.6562Z" fill="#392223"/>
<path d="M62.7835 50.9446C61.9208 50.9446 61.2208 51.6286 61.1902 52.4832L61.1875 52.5113V52.5366V52.5393V52.5433C61.1902 52.9233 61.2288 53.1779 61.5608 53.8673C61.7062 54.1699 61.8488 54.5806 61.9368 54.9086C62.0448 55.3126 62.0648 55.7926 62.0688 55.9192L62.0782 55.9859C62.1262 56.1686 62.4182 56.3086 62.7728 56.3086C63.1422 56.3086 63.4462 56.1552 63.4742 55.9619L63.4755 55.8606C63.4755 55.6779 63.5062 55.2619 63.6008 54.9086C63.6888 54.5806 63.8328 54.1699 63.9782 53.8673C64.1635 53.4806 64.2568 53.2312 64.3048 53.0192C64.3515 52.8686 64.3782 52.7073 64.3782 52.5393C64.3782 51.6593 63.6635 50.9446 62.7835 50.9446Z" fill="#452B2C"/>
<path d="M62.0836 52.7158C61.9956 52.7158 61.9103 52.6958 61.8343 52.6505C61.5503 52.4865 61.4862 52.0652 61.6916 51.7092C61.8422 51.4492 62.0942 51.2958 62.3289 51.2958C62.4169 51.2958 62.5022 51.3172 62.5782 51.3612C62.8622 51.5252 62.9262 51.9478 62.7209 52.3038C62.5702 52.5638 62.3183 52.7158 62.0836 52.7158Z" fill="#523336"/>
<path d="M62.293 51.917C62.1703 52.0637 61.981 52.1104 61.873 52.021C61.765 51.9304 61.7783 51.737 61.901 51.589C62.025 51.441 62.213 51.3944 62.321 51.485C62.429 51.5757 62.417 51.769 62.293 51.917Z" fill="white"/>
<path d="M57.6074 89.3335L73.1368 98.2988L98.3047 83.7322L82.7754 74.7668L57.6074 89.3335Z" fill="white"/>
<path d="M81.7676 76.7251L94.7649 84.2305L95.5956 83.7505L82.5969 76.2451L81.7676 76.7251Z" fill="#3D2627"/>
<path d="M80.082 77.6991L93.0807 85.2031L93.5274 84.9458L80.5287 77.4405L80.082 77.6991Z" fill="#3D2627"/>
<path d="M79.0176 78.3124L92.0163 85.8164L92.4643 85.5591L79.4656 78.0537L79.0176 78.3124Z" fill="#3D2627"/>
<path d="M77.9551 78.9257L90.9537 86.4297L91.4017 86.1724L78.4031 78.667L77.9551 78.9257Z" fill="#3D2627"/>
<path d="M81.4222 81.6373L90.3382 86.7853L89.8916 87.0439L80.9756 81.8959L81.4222 81.6373Z" fill="#3D2627"/>
<path d="M74.6035 80.8612L87.6022 88.3652L88.0502 88.1066L75.0515 80.6026L74.6035 80.8612Z" fill="#3D2627"/>
<path d="M73.541 81.4745L86.5397 88.9785L86.9863 88.7212L73.989 81.2158L73.541 81.4745Z" fill="#3D2627"/>
<path d="M75.6312 83.3918L85.9232 89.3345L85.4766 89.5918L75.1846 83.6491L75.6312 83.3918Z" fill="#3D2627"/>
<path d="M70.2041 83.3999L83.2028 90.9053L83.6494 90.6466L70.6508 83.1426L70.2041 83.3999Z" fill="#3D2627"/>
<path d="M69.1416 84.0132L82.1403 91.5186L82.5869 91.2599L69.5883 83.7559L69.1416 84.0132Z" fill="#3D2627"/>
<path d="M71.3099 90.3951L77.6979 94.0831L77.2513 94.3418L70.8633 90.6538L71.3099 90.3951Z" fill="#3D2627"/>
<path d="M70.2474 91.0084L76.6368 94.6978L76.1888 94.9551L69.8008 91.2671L70.2474 91.0084Z" fill="#3D2627"/>
<path d="M71.2322 85.9318L81.5242 91.8732L81.0775 92.1318L70.7842 86.1905L71.2322 85.9318Z" fill="#3D2627"/>
<path d="M65.8355 88.0322C67.3728 88.0322 68.6235 88.6749 68.6235 89.4629C68.6235 90.2536 67.3728 90.8949 65.8355 90.8949C64.2982 90.8949 63.0475 90.2536 63.0475 89.4629C63.0475 88.6749 64.2982 88.0322 65.8355 88.0322ZM65.8355 91.1162C67.5222 91.1162 68.8435 90.3896 68.8435 89.4629C68.8435 88.5376 67.5222 87.8122 65.8355 87.8122C64.1475 87.8122 62.8262 88.5376 62.8262 89.4629C62.8262 90.3896 64.1475 91.1162 65.8355 91.1162Z" fill="#F03C4F"/>
<path d="M65.8355 88.5271C66.8075 88.5271 67.5956 88.9471 67.5956 89.4631C67.5956 89.9817 66.8075 90.4004 65.8355 90.4004C64.8635 90.4004 64.0742 89.9817 64.0742 89.4631C64.0742 88.9471 64.8635 88.5271 65.8355 88.5271Z" fill="#F03C4F"/>
<path d="M75.2256 99.9342L90.8136 108.936L116.082 94.3129L100.492 85.3116L75.2256 99.9342Z" fill="white"/>
<path d="M99.4795 87.2792L112.53 94.8125L113.363 94.3312L100.313 86.7978L99.4795 87.2792Z" fill="#3D2627"/>
<path d="M97.7871 88.2544L110.836 95.7891L111.286 95.5304L98.2364 87.9957L97.7871 88.2544Z" fill="#3D2627"/>
<path d="M96.7207 88.8706L109.77 96.4053L110.219 96.1466L97.17 88.6119L96.7207 88.8706Z" fill="#3D2627"/>
<path d="M95.6543 89.4868L108.704 97.0215L109.152 96.7615L96.1023 89.2282L95.6543 89.4868Z" fill="#3D2627"/>
<path d="M99.1326 92.2097L108.086 97.3777L107.637 97.6377L98.6846 92.4684L99.1326 92.2097Z" fill="#3D2627"/>
<path d="M92.2891 91.4292L105.338 98.9639L105.786 98.7039L92.7371 91.1705L92.2891 91.4292Z" fill="#3D2627"/>
<path d="M91.2217 92.0454L104.271 99.5801L104.72 99.3214L91.6697 91.7867L91.2217 92.0454Z" fill="#3D2627"/>
<path d="M93.3204 93.9723L103.652 99.9376L103.203 100.196L92.8711 94.231L93.3204 93.9723Z" fill="#3D2627"/>
<path d="M87.8711 93.9803L100.92 101.514L101.37 101.255L88.3204 93.7203L87.8711 93.9803Z" fill="#3D2627"/>
<path d="M86.8057 94.5956L99.8537 102.129L100.303 101.87L87.2537 94.3369L86.8057 94.5956Z" fill="#3D2627"/>
<path d="M87.9152 101.617L94.3285 105.32L93.8791 105.58L87.4658 101.876L87.9152 101.617Z" fill="#3D2627"/>
<path d="M88.9031 96.5211L99.2364 102.486L98.7871 102.745L88.4551 96.7798L88.9031 96.5211Z" fill="#3D2627"/>
<path d="M116.082 94.3131L110.219 90.8038C110.219 90.8038 109.339 93.2611 111.286 94.3131C113.231 95.3638 115.282 94.6811 116.082 94.3131Z" fill="#CCB8B9"/>
<path d="M116.082 94.3133C116.082 94.3133 113.713 95.0667 111.813 94.0933C111.599 93.984 111.171 93.4787 111.069 93.308C110.219 91.8933 111.579 89.816 114.947 90.804C118.315 91.7933 121.697 90.476 122.837 89.7933C124.503 88.7947 125.465 87.6227 125.465 87.6227L111.705 79.7467C111.705 79.7467 106.197 81.8773 100.761 81.8573C98.9872 81.8507 97.2792 83.896 97.5246 85.2826C97.7872 86.7666 98.5819 87.5387 99.8486 88.3107C102.27 89.7853 107.799 93.2307 111.847 94.812C113.966 95.64 116.082 94.3133 116.082 94.3133Z" fill="#FDF6F8"/>
<path d="M125.37 43.5509C128.674 44.0789 130.687 44.6736 133.013 49.9923C135.194 54.9789 133.529 57.1203 134.586 60.4843C135.643 63.8469 135.203 64.663 135.505 67.379C135.807 70.0936 135.071 70.4789 134.057 71.2909C133.222 71.9576 134.375 72.7763 127.847 75.7723C123.667 77.691 120.846 77.131 120.846 77.131L118.61 71.803C118.61 71.803 117.777 71.8296 120.721 69.111C124.05 66.0363 126.527 65.611 126.527 65.611C126.527 65.611 125.31 61.599 123.647 57.999C121.986 54.3976 123.035 44.5629 125.37 43.5509Z" fill="#3D2627"/>
<path d="M118.61 71.8027C118.61 71.8027 120.299 71.2787 121.21 73.472C121.878 75.0827 121.437 76.4987 120.846 77.1307C119.961 77.1307 118.617 77.428 117.697 78.0987C115.633 79.5987 113.185 82.4907 111.369 83.372C108.745 84.6467 108.047 82.9614 107.826 81.4C107.606 79.84 108.921 78.6294 110.094 77.7147C111.369 76.7187 112.145 75.9067 111.697 75.6307C111.398 75.448 109.925 76.0867 108.914 75.6307C107.863 75.1574 108.306 74.3987 110.043 74.2734C110.926 74.208 111.33 73.6027 113.003 73.388C114.31 73.2187 114.699 73.872 115.113 73.66C116.481 72.9547 117.858 72.3507 118.61 71.8027Z" fill="#FABEAF"/>
<path d="M96.5258 23.4866C96.5805 16.9546 90.2525 8.01726 82.3912 3.52393C77.4872 0.72126 73.1458 0.31192 70.5592 1.98392L70.5498 1.98926L70.5378 1.9986L67.5352 4.01992C67.5352 4.01992 68.0698 5.86393 67.9605 6.02793C67.9458 6.04926 68.0272 6.00659 68.1685 5.92259C68.1045 6.33193 68.0618 6.75859 68.0578 7.21592C68.0032 13.7466 74.3312 22.6853 82.1925 27.1786C84.9698 28.7666 87.5592 29.5719 89.7592 29.6799L90.2592 30.2133L90.2365 30.2146L92.6392 36.7666L94.9885 35.3093L93.9298 28.7693C95.5432 27.7693 96.5045 25.9906 96.5258 23.4866Z" fill="#CCB8B9"/>
<path d="M94.1754 25.0014C94.1207 31.5334 87.7034 33.1867 79.8421 28.6934C71.9807 24.2001 65.6527 15.2627 65.7074 8.73075C65.762 2.19741 72.1794 0.545422 80.0407 5.03876C87.902 9.53209 94.23 18.4694 94.1754 25.0014Z" fill="#EFDADA"/>
<path d="M86.415 30.1359L92.639 36.7666L91.247 28.2493L86.415 30.1359Z" fill="#EFDADA"/>
<path d="M82.9928 16.1939C81.7501 17.0206 79.8261 17.8766 79.4101 17.9073C78.3274 17.9846 77.8301 16.8926 78.3021 16.1939C79.6608 13.8953 82.8741 8.17261 85.3514 12.1699C86.6794 14.3139 84.6221 15.1113 82.9928 16.1939ZM74.8541 21.21C74.0461 20.2753 73.7074 19.082 74.1754 17.9126C74.2994 17.602 74.6914 17.0593 74.9048 16.8073C74.6448 17.7913 74.9381 18.8953 75.6141 19.6819C76.3674 20.5593 77.8381 21.3033 79.0434 21.0046C78.9301 21.1433 78.8221 21.2886 78.6954 21.414C77.6221 22.4806 75.8408 22.35 74.8541 21.21ZM78.0061 15.646C76.9074 16.6926 77.5381 18.7313 79.3394 18.4979C79.4648 18.4819 79.5914 18.4499 79.7181 18.4193C80.2994 19.7193 79.4208 20.5686 78.0714 20.3699C77.1674 20.2379 76.2581 19.698 75.7701 18.914C75.3008 18.1606 75.1981 17.1286 75.6754 16.3539C76.2701 15.3926 77.0888 15.1913 78.0061 15.646ZM83.0794 10.0126C81.9541 10.118 81.1301 11.1486 80.4941 11.974C79.7154 12.986 78.9914 14.0673 78.4688 15.2353L78.4368 15.242L78.3861 15.2859C77.4714 14.5433 75.9008 15.0393 75.0834 15.8219C74.0394 16.8206 73.7048 17.2033 73.4781 17.9126C73.0674 19.1993 73.5848 20.6739 74.5381 21.5819C76.9181 23.8459 78.9594 22.3953 80.2701 20.3953C80.8714 19.4766 80.6914 18.8713 80.3648 18.2233C81.5541 17.7726 82.7554 16.9166 83.7808 16.3859C84.7994 15.8593 85.9941 15.3326 86.3581 14.142C86.9074 12.3486 84.9874 9.83262 83.0794 10.0126Z" fill="white"/>
</svg>
