<svg width="153" height="177" viewBox="0 0 153 177" fill="none" xmlns="http://www.w3.org/2000/svg">
<path d="M106.938 75.9141C106.938 67.6992 101.945 58.1554 95.782 54.598C93.0544 53.0226 90.5555 52.891 88.6174 53.9412L88.615 53.9377L3.96582 102.665L18.5405 133.46L102.393 85.2516C102.88 85.0548 103.339 84.7987 103.761 84.4656L103.786 84.4526L103.782 84.4467C105.734 82.8938 106.938 79.9421 106.938 75.9141Z" fill="#F3DEA5"/>
<path d="M5.15527 101.98C5.15527 101.98 10.0487 99.3548 15.2538 104.664C20.459 109.975 22.7492 115.561 22.7492 115.561L106.417 67.2313C106.417 67.2313 103.023 57.1884 96.9833 54.366C91.9133 51.9951 87.8734 54.366 87.8734 54.366L5.15527 101.98Z" fill="#EED296"/>
<path d="M8.03471 129.14C8.03471 129.14 2.34711 123.697 1.02537 113.202C-0.260803 102.995 6.52213 102.026 6.89435 101.98C2.84854 101.877 0 105.543 0 111.746C0 119.96 4.99413 129.504 11.1559 133.062C17.3165 136.619 22.3118 132.842 22.3118 124.627C22.3118 123.361 22.1803 122.065 21.9574 120.762L8.03471 129.14Z" fill="#EED296"/>
<path d="M52.4033 74.8286C52.4033 74.8286 53.776 72.389 54.7777 75.0858C55.8849 75.5481 56.9221 75.8955 57.3394 78.578C58.603 79.2371 59.4992 80.5316 59.1531 82.318C60.1133 83.3979 61.0094 84.5122 60.4961 86.4255C61.4919 87.7365 61.4208 89.4649 61.077 90.7131C61.5986 91.6033 62.3395 93.0318 61.5369 94.9818C62.1439 96.8192 61.5085 98.0188 61.1493 98.7965C61.4385 99.9842 61.4457 101.301 60.6147 102.508C60.7309 103.313 60.5744 104.854 59.8003 105.75C60.0611 106.435 59.6106 108.326 58.7785 109.037C58.6587 111.855 56.4408 111.672 56.4408 111.672C56.4408 111.672 57.0134 110.235 57.9428 108.569C57.887 107.736 58.181 106.395 58.8745 105.664C58.7666 104.315 59.4198 103.518 59.7434 102.662C59.6355 101.313 59.1199 100.378 60.0801 98.7751C59.6284 97.6418 59.9686 95.6895 60.3041 95.0695C59.6853 93.6079 59.5644 92.637 60.1785 90.9217C59.3356 90.4831 58.5319 88.4134 59.5419 86.6614C58.6967 85.7285 57.5184 84.1388 58.4086 82.6523C57.0146 81.9233 56.3934 80.7058 56.3993 79.0107C55.892 78.4642 54.1613 76.6375 54.2372 75.7319C53.0079 74.9708 53.4548 75.0325 52.4033 74.8286Z" fill="#452B2C"/>
<path d="M39.0605 82.463C39.0605 82.463 40.0847 79.9855 42.2576 80.9066C43.2699 80.2617 44.1495 79.6109 46.5867 80.8023C47.8516 80.142 49.4258 80.1479 50.693 81.4543C52.1285 81.2836 53.5546 81.1852 54.8289 82.7025C56.4742 82.6349 57.8517 83.6816 58.6803 84.6786C59.7092 84.7592 61.3036 84.9678 62.4428 86.7436C64.298 87.296 64.9179 88.5027 65.3506 89.2412C66.4898 89.6846 67.5757 90.4314 68.0901 91.8041C68.8156 92.168 69.9903 93.178 70.2843 94.3266C71.631 94.9288 72.1004 95.7622 72.2497 96.5375C73.0594 96.6702 74.4427 97.4277 74.8067 98.6771C75.7028 99.4192 76.2647 100.985 75.2927 101.61C74.7818 101.938 74.4439 101.321 73.8702 99.5626C72.9337 99.4583 71.7566 98.3203 71.689 97.4158C71.075 97.1041 69.9417 96.2897 69.6821 95.0367C68.5133 94.3539 68.2336 93.3617 67.7179 92.6066C66.5491 91.9226 65.487 91.8112 64.7224 90.1066C63.5334 89.8292 62.1275 88.4328 61.8098 87.8033C60.2581 87.475 59.3927 87.0198 58.3365 85.5344C57.4949 85.973 55.3374 85.4491 54.4792 83.6188C53.2298 83.7789 51.2513 83.8369 50.5401 82.2568C49.146 82.9823 47.7923 82.7961 46.4042 81.8217C45.6668 81.9248 43.1775 82.2995 42.4793 81.7186C41.1504 82.2923 40.502 82.4358 39.0605 82.463Z" fill="#452B2C"/>
<path d="M54.4374 90.9164C54.4374 90.9164 52.7007 91.9785 52.1507 93.6334C50.503 93.8811 49.6815 94.6694 49.6115 96.265C48.5352 97.0983 48.0136 98.1047 48.0136 99.8746C47.2514 101.124 46.5911 101.957 46.4524 103.137C46.3149 104.317 47.5643 104.143 47.9117 103.45C48.2578 102.755 48.2578 100.604 48.6739 100.118C49.4029 99.9789 50.503 98.1367 50.503 96.6479C51.4916 96.1927 52.4032 95.2337 52.4992 94.0447C53.15 93.6713 55.3999 93.4093 55.4533 92.6021C55.5054 91.7948 54.4374 90.9164 54.4374 90.9164Z" fill="#452B2C"/>
<path d="M65.0223 84.2707C65.0223 84.2707 66.9759 83.6923 68.5715 84.394C69.8588 83.3366 70.9956 83.2537 72.2272 84.2719C73.5656 84.0325 74.6621 84.3193 75.9755 85.5059C77.4146 85.7762 78.4756 85.845 79.4441 86.5325C80.4125 87.22 79.4464 88.0309 78.6984 87.8234C77.9504 87.6172 76.3549 86.1745 75.7148 86.1579C75.1232 86.606 73.0179 86.1876 71.9131 85.1906C70.9126 85.6186 69.5909 85.6529 68.6437 84.9275C67.9289 85.1622 66.2291 86.6546 65.5949 86.1532C64.9583 85.6517 65.0223 84.2707 65.0223 84.2707Z" fill="#452B2C"/>
<path d="M66.9259 85.7283C66.4991 84.6093 67.029 83.2247 66.2419 82.2349C65.5804 81.4027 64.0359 81.3197 63.084 81.0127C61.4279 80.4793 61.3556 79.3745 59.6972 78.8754C57.0312 78.0729 56.6009 80.3856 54.6355 81.5106C53.1763 82.3451 50.8185 82.5692 50.6229 84.4599C50.5684 84.9874 51.1125 85.9867 51.1789 86.4953C51.3851 88.0446 50.713 88.7049 50.521 90.1558C50.4095 90.9998 50.8375 91.6933 51.5641 92.1627C52.759 92.9344 53.769 92.8918 54.1851 94.6426C54.4399 95.719 55.3195 96.7218 56.3425 96.7218C57.6097 96.7218 58.5675 96.4634 59.6771 96.3994C61.8535 96.2714 62.822 97.3856 64.5397 96.4432C66.5394 95.3479 65.9764 94.0606 66.5833 92.8432C67.2294 91.5499 68.3946 90.6809 68.4954 89.1992C68.6056 87.5846 67.4664 87.152 66.9259 85.7283Z" fill="#EF2C3C"/>
<path d="M63.977 83.2705C61.2968 80.5322 57.1632 79.3029 53.9579 82.9456C52.3813 84.7368 51.9889 87.2902 53.2466 90.1625C55.0022 94.1751 59.8233 97.0272 63.8573 94.2225C67.4704 91.7094 66.6999 86.0503 63.977 83.2705Z" fill="#F03C4F"/>
<path d="M59.6142 93.801C54.6983 92.9807 52.8976 85.6039 55.9062 82.9663C57.4366 81.6245 59.4079 82.0156 60.0374 82.184C61.8262 82.6569 63.2581 83.8246 64.2705 85.7023C66.179 89.236 64.3819 94.5988 59.6142 93.801ZM65.2805 87.0264C64.3025 83.7961 61.5938 81.3945 58.2936 81.532C57.8645 81.5498 55.8292 81.711 54.5845 83.6219C52.2397 87.2232 55.1724 94.7648 60.8162 94.4056C64.4874 94.1721 66.2857 90.3515 65.2805 87.0264Z" fill="#EF2C3C"/>
<path d="M62.8738 89.5766C62.3428 89.7437 61.6019 89.8136 61.3055 89.0289C61.4857 88.8155 61.6374 88.563 61.7335 88.2584C61.8876 87.77 61.8639 87.3527 61.7394 87.0007L61.8093 86.9473C62.8442 86.8548 63.8767 87.2591 63.8281 88.4931C63.8044 89.0965 63.4037 89.4082 62.8738 89.5766ZM59.6874 91.9758C59.02 91.9237 58.5625 91.3808 58.4937 90.7359C58.4677 90.487 58.5032 90.2463 58.5613 90.0092C58.668 89.8148 58.7616 89.6121 58.8387 89.4059L58.8482 89.4142C59.4444 89.8302 60.2007 89.8125 60.8089 89.445C61.5841 90.2831 60.938 92.0742 59.6874 91.9758ZM57.3545 90.532C56.7322 90.6956 56.0245 90.2167 56.0044 89.5884C55.9676 88.4931 57.9283 87.8435 57.9508 87.8447C57.9615 87.962 57.9627 88.0806 57.9888 88.1932C58.0836 88.5903 58.2697 88.8724 58.4819 89.0953C58.1796 89.6892 57.8014 90.4135 57.3545 90.532ZM55.9487 84.6452C56.494 84.011 57.4233 83.8771 58.1393 84.3098C58.7664 84.6855 58.9252 85.3079 59.0722 85.9516C58.956 85.9942 58.8423 86.0428 58.7332 86.1069C58.2531 86.3878 58.0291 86.856 57.9639 87.3539C56.5983 87.3041 54.6625 86.1412 55.9487 84.6452ZM60.4959 86.4257C61.1372 86.6474 61.6019 87.2259 61.3482 88.141C61.0234 89.3169 59.8368 89.5469 58.9632 88.9803C58.8909 88.9341 58.5909 88.5607 58.5163 88.3923C58.2128 87.7119 58.3467 86.9426 58.9786 86.5656C59.3022 86.3736 59.8854 86.2135 60.4959 86.4257ZM61.0874 84.3631C61.6623 84.3773 62.3202 84.7258 62.2989 85.3885C62.2847 85.8307 61.7643 86.2539 61.4098 86.4649C60.9487 85.9575 60.1901 85.7334 59.467 85.8567C59.6803 85.053 60.1284 84.3394 61.0874 84.3631ZM63.7001 86.8714C63.335 86.6047 62.8217 86.4281 62.3523 86.4708C62.6676 86.1246 62.9023 85.7074 62.9094 85.2415C62.9201 84.5279 62.2586 84.043 61.6315 83.8712C60.7318 83.6246 59.6021 84.1071 59.2156 84.9179C58.6869 83.7372 56.7085 83.25 55.7045 84.2908C54.2855 85.7607 55.5835 87.2449 57.1103 87.7C56.0375 88.1149 55.024 89.2814 55.7424 90.2807C56.1656 90.8687 56.7476 91.2433 57.485 91.0014C57.6758 90.9386 57.8394 90.8438 57.9864 90.7288C58.0243 91.7743 58.7996 92.7689 60.0573 92.5804C60.8776 92.4571 61.4395 91.7862 61.5675 90.9919C61.6066 90.7525 61.6434 90.4241 61.6292 90.1029C62.5846 90.519 64.0747 90.0175 64.3592 88.991C64.5607 88.262 64.3212 87.3255 63.7001 86.8714Z" fill="#EF2C3C"/>
<path d="M16.7877 98.7464C16.681 98.5579 16.3562 98.6847 16.4297 98.8969C16.6359 99.4873 16.7734 100.074 16.764 100.702C16.7568 101.213 16.566 101.719 16.6667 102.218C16.6999 102.384 16.9418 102.447 17.052 102.32C17.8166 101.442 17.2855 99.6402 16.7877 98.7464Z" fill="#DBAF6D"/>
<path d="M66.8882 79.7393C66.4295 79.3884 65.8166 79.1027 65.2298 79.1051C65.0899 79.1063 65.0141 79.3185 65.1539 79.3849C65.6518 79.6184 66.1272 79.8116 66.5599 80.1649C66.7412 80.3142 66.9131 80.4802 67.0613 80.6627C67.2118 80.8465 67.2983 81.0207 67.5425 81.0693L67.7192 80.9686C67.8555 80.492 67.2213 79.9942 66.8882 79.7393Z" fill="#DBAF6D"/>
<path d="M63.437 76.3898C62.9427 76.455 62.5195 76.7359 62.1603 77.0738C61.8592 77.3583 61.4028 77.8656 61.519 78.3089C61.5475 78.418 61.6814 78.4713 61.7774 78.4144C62.0939 78.226 62.2409 77.7577 62.4768 77.4756C62.7684 77.1259 63.1442 76.9007 63.5034 76.6328C63.5911 76.5664 63.5816 76.372 63.437 76.3898Z" fill="#DBAF6D"/>
<path d="M17.6073 130.083C16.9968 130.294 16.5025 130.767 15.8979 131.019C15.2258 131.298 14.5122 131.345 13.833 131.573C13.7251 131.609 13.7132 131.774 13.833 131.805C14.9923 132.113 17.1912 131.416 17.8065 130.342C17.8788 130.216 17.7579 130.032 17.6073 130.083Z" fill="#DBAF6D"/>
<path d="M16.8078 128.022C16.4794 128.371 16.2305 128.796 15.9093 129.157C15.6532 129.442 15.1601 129.755 15.0724 130.136C15.0487 130.24 15.121 130.347 15.2324 130.346C15.6639 130.342 16.0598 129.816 16.3076 129.506C16.6098 129.128 16.943 128.636 17.0307 128.151C17.0532 128.029 16.9062 127.918 16.8078 128.022Z" fill="#DBAF6D"/>
<path d="M104.632 78.3124C104.594 78.2033 104.441 78.1986 104.405 78.3124C104.178 79.0319 104.149 79.7692 103.853 80.4817C103.594 81.1028 103.018 81.6363 102.865 82.2752C102.836 82.4032 102.955 82.5621 103.098 82.5075C104.332 82.0345 105.03 79.4729 104.632 78.3124Z" fill="#DBAF6D"/>
<path d="M100.944 79.6661C100.863 79.5309 100.684 79.6269 100.706 79.7656C100.795 80.3441 100.898 80.9001 100.851 81.4892C100.804 82.0748 100.586 82.5905 100.49 83.1618C100.459 83.3515 100.708 83.5708 100.861 83.3764C101.626 82.4055 101.557 80.6985 100.944 79.6661Z" fill="#DBAF6D"/>
<path d="M92.0266 56.2468C91.166 55.6553 89.0927 55.0934 88.2451 55.9611L88.2748 56.0749C88.7821 56.2148 89.344 56.0453 89.8727 56.1046C90.5567 56.1792 91.1328 56.4246 91.7468 56.7233C92.0681 56.8798 92.3206 56.4483 92.0266 56.2468Z" fill="#DBAF6D"/>
<path d="M87.9305 57.7833C87.723 57.3305 87.4196 56.9915 86.9881 56.7437C86.8233 56.6489 86.6846 56.8599 86.7949 56.995C87.0533 57.3068 87.282 57.6849 87.3982 58.0749C87.4883 58.3772 87.4623 58.753 87.7219 58.9688H87.9506C88.292 58.6748 88.0881 58.1271 87.9305 57.7833Z" fill="#DBAF6D"/>
<path d="M15.3848 101.643C15.2093 101.149 14.6202 100.832 14.1828 100.588C13.743 100.343 13.2321 100.065 12.7212 100.208L12.6797 100.307C12.963 100.687 13.4063 100.844 13.7999 101.088C14.2183 101.348 14.6131 101.815 15.092 101.936C15.2568 101.976 15.4464 101.821 15.3848 101.643Z" fill="#DBAF6D"/>
<path d="M10.1051 121.687C9.95335 121.425 9.79923 121.156 9.64512 120.87L20.2107 114.77C19.7152 113.562 19.1462 112.39 18.5096 111.275L8.03295 117.323C7.92271 117.032 7.81602 116.734 7.71052 116.428L18.0379 110.464C17.2863 109.239 16.4518 108.1 15.5603 107.072L6.58675 112.253C6.52274 111.933 6.46703 111.604 6.41131 111.273L14.9202 106.361C13.7455 105.117 12.4771 104.075 11.1553 103.312C9.64512 102.44 8.20722 102.015 6.89378 101.98C6.52156 102.027 -0.261372 102.995 1.0248 113.203C2.34654 123.697 8.03414 129.141 8.03414 129.141L21.9568 120.762C21.6629 119.046 21.1839 117.323 20.5592 115.651L10.1051 121.687Z" fill="#DBAF6D"/>
<path d="M10.106 121.687L20.5601 115.65C20.4499 115.354 20.3313 115.062 20.2116 114.77L9.646 120.87C9.8001 121.155 9.95422 121.425 10.106 121.687Z" fill="#452B2C"/>
<path d="M8.03288 117.323L18.5096 111.275C18.3543 111.003 18.2014 110.73 18.0378 110.464L7.71045 116.428C7.81595 116.734 7.92263 117.032 8.03288 117.323Z" fill="#452B2C"/>
<path d="M6.58706 112.253L15.5606 107.071C15.3508 106.83 15.1386 106.589 14.9205 106.36L6.41162 111.273C6.46734 111.603 6.52305 111.933 6.58706 112.253Z" fill="#452B2C"/>
<path d="M21.2769 139.203L81.7116 174.095L126.005 148.522L65.571 113.629L21.2769 139.203Z" fill="#F3DEA5"/>
<path d="M64.0747 116.035C64.0368 121.097 64.8832 125.951 66.2642 130.831C66.979 133.357 67.2327 135.384 67.957 137.909C68.3327 139.226 68.603 141.283 69.3131 142.48C69.9105 143.488 71.9328 144.437 73.2427 144.896C75.5353 145.702 81.1909 146.546 83.282 146.833C87.3645 147.391 91.5064 147.856 95.6992 148.219C104.397 148.972 113.249 149.228 122.193 149.312C122.333 149.313 122.322 149.435 122.178 149.44C113.252 149.714 105.359 150.015 96.6416 149.568C90.7145 149.264 86.5834 148.989 82.2922 148.608C76.1861 148.063 71.7467 146.965 69.3498 145.964C66.0911 144.603 66.0129 141.46 65.7628 140.563C64.9377 137.599 64.3189 134.289 63.795 131.277C62.8206 125.67 62.5219 121.566 63.712 116.049C63.7405 115.914 64.0759 115.9 64.0747 116.035Z" fill="#E2C184"/>
<path d="M81.7119 176.307V174.095L126.005 148.522V150.734L81.7119 176.307Z" fill="#EED296"/>
<path d="M21.2769 141.414V139.203L81.7116 174.095V176.307L21.2769 141.414Z" fill="#E2C184"/>
<path d="M72.8936 124.977C73.0536 124.515 73.2765 124.162 73.7174 123.949L73.8787 124.074C73.7364 124.417 73.5456 124.77 73.4484 125.131C73.3583 125.474 73.4246 125.88 73.2373 126.185L72.9612 126.221C72.6506 125.903 72.7608 125.361 72.8936 124.977Z" fill="#DBAF6D"/>
<path d="M63.1972 157.13C63.349 157.129 63.3999 157.335 63.2743 157.411C62.9578 157.605 62.6223 157.769 62.3212 157.985C62.0332 158.191 61.821 158.444 61.4843 158.567C61.335 158.623 61.1974 158.457 61.2354 158.318C61.4345 157.583 62.499 157.136 63.1972 157.13Z" fill="#DBAF6D"/>
<path d="M28.0412 136.97C28.1171 136.886 28.276 136.951 28.27 137.065C28.2451 137.532 28.0815 137.985 28.0377 138.453C27.9974 138.891 28.0815 139.358 27.9571 139.78C27.9013 139.968 27.6074 140.035 27.5113 139.838C27.1356 139.061 27.4781 137.597 28.0412 136.97Z" fill="#DBAF6D"/>
<path d="M28.1562 140.707C28.4087 140.516 28.7407 140.442 29.0133 140.273C29.2848 140.106 29.4851 139.858 29.7542 139.694C29.8858 139.612 30.028 139.746 30.0007 139.883C29.8656 140.565 28.8936 141.255 28.2131 141.146C27.9844 141.109 28.0116 140.815 28.1562 140.707Z" fill="#DBAF6D"/>
<path d="M56.6978 121.262C57.4766 120.882 58.6668 120.8 59.5049 120.998C59.6507 121.033 59.6542 121.264 59.5049 121.297C59.0461 121.397 58.5743 121.417 58.112 121.499C57.6852 121.574 57.2597 121.711 56.8282 121.742C56.5769 121.759 56.4714 121.373 56.6978 121.262Z" fill="#DBAF6D"/>
<path d="M54.9156 121.897C54.9322 121.773 55.0946 121.79 55.1527 121.866C55.3874 122.173 55.519 122.581 55.7098 122.92C55.89 123.24 56.1793 123.552 56.2539 123.916C56.299 124.145 56.0584 124.379 55.8343 124.237C55.4692 124.005 55.2997 123.548 55.1503 123.155C55.0033 122.768 54.854 122.313 54.9156 121.897Z" fill="#DBAF6D"/>
<path d="M81.8372 170.177C82.1324 169.473 82.3031 168.696 82.2201 167.929C82.2059 167.803 82.4015 167.785 82.4358 167.9C82.68 168.719 82.7037 169.518 82.3861 170.329C82.2521 170.669 81.6961 170.511 81.8372 170.177Z" fill="#DBAF6D"/>
<path d="M78.6617 169.988C79.0588 169.352 80.2134 169.096 80.9045 169.243L80.9306 169.444C80.6011 169.609 80.2525 169.733 79.9182 169.89C79.5958 170.039 79.3137 170.306 78.9687 170.387C78.7459 170.438 78.5313 170.198 78.6617 169.988Z" fill="#DBAF6D"/>
<path d="M109.825 152.566C110.25 152.63 110.627 152.917 111.049 153.029C111.473 153.142 111.909 153.128 112.333 153.22C112.469 153.251 112.495 153.457 112.372 153.521C111.622 153.919 110.019 153.672 109.592 152.867C109.501 152.697 109.649 152.538 109.825 152.566Z" fill="#DBAF6D"/>
<path d="M107.438 151.538C107.483 151.388 107.688 151.427 107.701 151.574C107.75 152.125 107.803 152.678 107.945 153.215C108.065 153.659 108.357 154.062 108.358 154.525C108.358 154.683 108.163 154.816 108.022 154.717C107.578 154.405 107.454 153.782 107.361 153.27C107.252 152.685 107.267 152.107 107.438 151.538Z" fill="#DBAF6D"/>
<path d="M64.2846 160.373C64.5857 160.498 64.8382 160.745 65.1215 160.912C65.4048 161.079 65.7131 161.181 66.0118 161.316C66.1374 161.372 66.0604 161.545 65.9478 161.553C65.2982 161.601 64.3166 161.265 63.9942 160.663C63.8851 160.46 64.0961 160.292 64.2846 160.373Z" fill="#DBAF6D"/>
<path d="M53.9365 143.441C55.1124 142.604 56.8372 142.893 57.635 143.334C58.2976 142.763 59.278 142.358 60.8664 142.759C61.912 141.961 63.6273 141.888 64.5116 142.07C65.9033 141.227 67.3613 141.322 68.6582 141.719C69.5437 141.373 70.9128 140.749 72.9078 141.542C74.1952 141.098 75.2467 141.227 76.0931 141.533C76.3444 142.166 76.5767 142.804 76.7901 143.447C75.1744 143.829 74.1585 143.607 72.7312 142.901C72.0223 143.232 69.8376 143.48 68.6119 142.906C66.7745 143.865 65.7717 143.232 64.284 143.025C63.3155 143.328 62.3897 143.999 60.9032 143.791C59.8161 144.707 58.2692 144.637 57.5188 144.485C56.8396 145.227 55.0318 145.41 54.144 144.856C52.4358 145.994 51.7162 146.299 51.4969 145.662C51.0797 144.449 52.6468 143.473 53.9365 143.441Z" fill="#452B2C"/>
<path d="M74.2733 142.39C74.2733 142.39 75.0568 144.51 74.3978 146.328C75.6638 147.677 75.838 148.929 74.8008 150.368C75.1671 151.832 74.9288 153.066 73.7114 154.608C73.5182 156.223 73.5206 157.401 72.8295 158.524C72.1395 159.647 71.1711 158.638 71.3453 157.795C71.5208 156.952 72.999 155.077 72.9693 154.366C72.43 153.745 72.7394 151.383 73.7612 150.087C73.2135 149.012 73.0784 147.55 73.8122 146.448C73.4992 145.675 71.7211 143.9 72.2296 143.161C72.7394 142.422 74.2733 142.39 74.2733 142.39Z" fill="#452B2C"/>
<path d="M79.1503 141.158C79.1503 141.158 81.712 140.895 82.2774 138.809C83.1202 138.135 84.6115 136.75 84.0164 134.993C84.8853 133.345 83.6074 132.18 82.441 131.313C81.6847 130.051 80.491 129.448 78.7899 130.051C77.3651 129.619 75.7695 130.333 75.0571 131.04C73.8871 130.847 72.7597 132.521 73.19 134.443C71.6253 136.008 72.4906 138.444 72.4906 138.444L73.887 138.005C73.887 138.005 74.5082 136.228 73.9439 134.599C75.2763 133.62 75.4767 132.713 75.4767 131.945C77.1161 131.972 77.7195 131.643 78.6654 130.958C79.3589 131.274 80.6581 132.055 82.0297 132C82.249 133.345 82.946 134.272 83.3206 134.881C82.5797 135.624 81.5081 137.396 81.712 138.423C80.3641 138.369 79.2902 139.585 78.6654 139.961C77.5393 140.639 79.1503 141.158 79.1503 141.158Z" fill="#452B2C"/>
<path d="M61.8795 140.318C62.3181 140.072 63.1822 139.258 63.3292 138.924C63.5912 138.456 63.7121 138.285 64.1578 137.971C65.1476 137.274 66.518 137.265 67.5754 136.62C68.577 136.012 69.4234 135.097 70.6871 135.152C71.972 135.209 72.7841 136.465 73.9873 136.584C74.7507 136.66 75.5342 136.466 76.2265 136.742C77.5056 137.254 77.7284 138.553 78.7538 139.383C79.3252 139.848 80.0412 140.003 80.3624 140.742C80.6315 141.364 80.3956 142.156 80.3849 142.785C80.3695 143.695 80.507 144.44 80.2439 145.336C79.9748 146.255 79.7555 146.472 78.9577 147.072C77.8505 147.902 76.1269 149.246 74.6902 149.328C73.9659 149.368 73.3448 149.044 72.5885 149.189C71.8523 149.331 71.6721 149.675 71.0249 149.817C69.3191 150.193 68.0732 149.105 66.403 148.92C65.2188 148.789 64.1626 149.034 63.2593 148.075C62.9997 147.798 62.8551 147.444 62.6796 147.117C62.1865 146.191 61.7253 145.033 61.0011 144.271C59.6793 142.882 60.4095 141.141 61.8795 140.318Z" fill="#EF2C3C"/>
<path d="M66.601 138.443C68.9659 136.957 71.9816 137.008 76.1424 138.875C77.9549 139.689 79.3513 142.27 78.3082 144.722C76.6379 148.649 70.1596 148.833 66.6081 147.227C62.4331 145.339 62.8314 140.813 66.601 138.443Z" fill="#F03C4F"/>
<path d="M69.8458 146.695C72.5355 146.882 78.0109 146.182 76.8184 142.117C75.844 138.793 70.1077 138.021 67.456 139.403C65.7241 140.307 64.5719 142.862 65.6625 144.739C66.4899 146.161 68.364 146.592 69.8458 146.695ZM65.423 140.617C67.2509 137.688 71.3086 137.597 74.393 138.748C76.5398 139.549 77.2807 141.195 77.5047 142.187C78.5028 146.601 72.4976 147.546 69.5103 147.295C66.0003 147 63.2691 144.068 65.423 140.617Z" fill="#EF2C3C"/>
<path d="M67.2401 143.786C67.3906 144.823 68.9577 144.801 69.6417 144.252C68.6104 143.881 68.0236 142.992 68.1979 142.022C67.9513 142.157 67.6929 142.278 67.5104 142.494C67.2247 142.828 67.1784 143.369 67.2401 143.786ZM70.3221 144.912C70.5414 145.188 70.9943 145.241 71.3214 145.242C71.7091 145.243 72.1252 145.153 72.2484 144.733C72.3077 144.53 72.2947 144.257 72.2555 144.008C71.6498 144.342 70.8994 144.476 70.2735 144.406C70.2226 144.567 70.168 144.718 70.3221 144.912ZM72.7214 142.621C72.84 142.117 72.674 141.721 72.367 141.427C71.798 141.188 71.2598 140.866 70.6588 140.783C70.4181 140.772 70.1882 140.787 69.9902 140.83L69.9203 140.819L69.8527 140.83C69.0656 141.038 68.672 141.842 68.7586 142.591C68.8404 143.278 69.3477 143.626 69.995 143.799C70.9208 144.047 72.463 143.722 72.7214 142.621ZM75.097 142.935C75.1539 142.409 74.8528 141.965 74.4379 141.672C74.119 141.447 73.3912 141.009 73.0332 141.326L72.9051 141.349L72.8969 141.355C73.1067 141.617 73.2548 141.915 73.2951 142.239C73.3639 142.815 73.1482 143.28 72.7843 143.632C73.5785 143.913 74.9785 144.047 75.097 142.935ZM72.4689 139.965C72.0991 139.753 70.7453 139.363 70.8745 140.245L70.8591 140.303C71.1733 140.345 71.4827 140.424 71.7683 140.544C72.1465 140.689 72.4879 140.926 72.7581 141.21C72.8162 140.77 72.9075 140.217 72.4689 139.965ZM68.1528 140.723C68.0604 141.066 68.2666 141.202 68.4338 141.378C68.5061 141.243 68.5808 141.109 68.6839 140.977C69.0549 140.501 69.6879 140.291 70.3565 140.28C69.7792 139.893 68.3437 140.009 68.1528 140.723ZM67.8873 141.754C67.3456 141.183 67.3811 140.245 68.1505 139.823C68.8107 139.458 69.9274 139.364 70.462 139.961C70.5213 139.725 70.6623 139.519 70.8982 139.38C71.3238 139.126 71.8442 139.227 72.2805 139.393C72.6693 139.54 73.0379 139.738 73.1695 140.159C73.2454 140.396 73.23 140.628 73.1624 140.85C73.4908 140.769 73.9661 140.936 74.215 141.039C74.9038 141.329 75.5071 141.881 75.596 142.656C75.762 144.092 74.0597 144.695 72.8826 144.264C72.9478 144.5 72.9538 144.752 72.8625 145.026C72.6776 145.578 72.1465 145.877 71.5882 145.925C71.0429 145.971 70.3696 145.844 69.9618 145.45C69.829 145.322 69.7437 145.162 69.6879 144.994C68.9103 145.429 67.2436 145.094 66.8631 144.469C66.2538 143.472 66.8335 142.068 67.8873 141.754Z" fill="#EF2C3C"/>
<path d="M150.996 130.951C149.153 129.25 145.708 130.4 141.753 130.4C137.797 130.4 134.351 129.25 132.509 130.951H131.082V136.076C131.082 139.211 135.859 141.753 141.753 141.753C147.647 141.753 152.425 139.211 152.425 136.076V130.951H150.996Z" fill="#CCB8B9"/>
<path d="M141.753 125.775C135.859 125.775 131.082 128.317 131.082 131.452C131.082 134.586 135.859 137.129 141.753 137.129C147.647 137.129 152.425 134.586 152.425 131.452C152.425 128.317 147.647 125.775 141.753 125.775Z" fill="#EFDADA"/>
<path d="M141.753 126.809C137.452 126.809 133.965 128.663 133.965 130.951C133.965 133.239 137.452 135.093 141.753 135.093C146.054 135.093 149.54 133.239 149.54 130.951C149.54 128.663 146.054 126.809 141.753 126.809Z" fill="#DFCDCD"/>
<path d="M136.325 123.423V129.859C136.325 131.453 138.755 132.745 141.753 132.745C144.751 132.745 147.181 131.453 147.181 129.859V123.423H136.325Z" fill="#C0ACAC"/>
<path d="M148.353 120.537L145.863 120.748L145.566 121.37C144.586 120.855 143.239 120.537 141.753 120.537C140.263 120.537 138.914 120.855 137.933 121.374L137.636 120.748L135.145 120.537C135.145 120.537 135.036 121.075 135.699 121.945C136.362 122.814 136.325 123.423 136.325 123.423C136.325 125.017 138.755 126.31 141.753 126.31C144.751 126.31 147.181 125.017 147.181 123.423L147.175 123.369C147.182 123.207 147.247 122.669 147.8 121.945C148.462 121.075 148.353 120.537 148.353 120.537Z" fill="#392223"/>
<path d="M141.753 117.022C138.104 117.022 135.146 118.595 135.146 120.536C135.146 122.477 138.104 124.05 141.753 124.05C145.403 124.05 148.361 122.477 148.361 120.536C148.361 118.595 145.403 117.022 141.753 117.022Z" fill="#452B2C"/>
<path d="M141.688 116.076C138.478 116.076 135.877 117.459 135.877 119.166C135.877 120.873 138.478 122.258 141.688 122.258C144.897 122.258 147.498 120.873 147.498 119.166C147.498 117.459 144.897 116.076 141.688 116.076Z" fill="#392223"/>
<path d="M141.753 113.796C138.104 113.796 135.146 115.369 135.146 117.31C135.146 119.251 138.104 120.825 141.753 120.825C145.403 120.825 148.361 119.251 148.361 117.31C148.361 115.369 145.403 113.796 141.753 113.796Z" fill="#452B2C"/>
<path d="M141.688 112.733C138.478 112.733 135.877 114.117 135.877 115.824C135.877 117.531 138.478 118.914 141.688 118.914C144.897 118.914 147.498 117.531 147.498 115.824C147.498 114.117 144.897 112.733 141.688 112.733Z" fill="#392223"/>
<path d="M149.881 109.452C149.881 113.941 146.242 117.58 141.753 117.58C137.262 117.58 133.623 113.941 133.623 109.452C133.623 104.963 137.262 101.323 141.753 101.323C146.242 101.323 149.881 104.963 149.881 109.452Z" fill="#452B2C"/>
<path d="M141.688 98.9626C138.478 98.9626 135.877 100.347 135.877 102.054C135.877 103.761 138.478 105.145 141.688 105.145C144.897 105.145 147.498 103.761 147.498 102.054C147.498 100.347 144.897 98.9626 141.688 98.9626Z" fill="#392223"/>
<path d="M141.753 96.6834C138.104 96.6834 135.146 98.2576 135.146 100.198C135.146 102.139 138.104 103.713 141.753 103.713C145.403 103.713 148.361 102.139 148.361 100.198C148.361 98.2576 145.403 96.6834 141.753 96.6834Z" fill="#452B2C"/>
<path d="M141.688 95.8727C138.478 95.8727 135.877 97.2561 135.877 98.9631C135.877 100.67 138.478 102.055 141.688 102.055C144.897 102.055 147.498 100.67 147.498 98.9631C147.498 97.2561 144.897 95.8727 141.688 95.8727Z" fill="#392223"/>
<path d="M141.753 64.541C136.022 64.541 131.364 69.0894 131.165 74.7735L131.146 74.9501L131.147 75.1268L131.146 75.1469L131.147 75.173C131.16 77.6944 131.417 79.3895 133.624 83.9711C134.592 85.984 135.545 88.7163 136.128 90.8939C136.848 93.5872 136.985 96.7783 137.01 97.6105C137.013 97.7433 137.045 97.9815 137.066 98.0621C137.385 99.2689 139.33 100.198 141.688 100.198C144.146 100.198 146.163 99.1871 146.347 97.9045C146.355 97.8405 146.361 97.4256 146.361 97.2205C146.361 96.0137 146.565 93.2494 147.194 90.8939C147.777 88.7163 148.729 85.984 149.699 83.9711C150.935 81.4023 151.558 79.7439 151.869 78.3369C152.186 77.3304 152.36 76.2588 152.36 75.1469C152.36 69.2898 147.61 64.541 141.753 64.541Z" fill="#452B2C"/>
<path d="M137.099 76.3252C136.519 76.3252 135.953 76.1865 135.443 75.8913C133.553 74.8008 133.13 71.9961 134.497 69.6288C135.495 67.9005 137.171 66.8822 138.738 66.8822C139.319 66.8822 139.883 67.0209 140.394 67.3161C142.284 68.4066 142.706 71.2113 141.339 73.5786C140.341 75.3069 138.666 76.3252 137.099 76.3252Z" fill="#523336"/>
<path d="M138.497 71.0061C137.674 71.99 136.424 72.3005 135.706 71.6995C134.987 71.0974 135.07 69.8124 135.891 68.8297C136.715 67.8458 137.963 67.5364 138.683 68.1374C139.402 68.7384 139.319 70.0234 138.497 71.0061Z" fill="white"/>
<path d="M88.6201 99.0474V115.729C88.6201 121.345 97.1812 125.899 107.742 125.899C118.3 125.899 126.862 121.345 126.862 115.729V99.0474H88.6201Z" fill="#3D2627"/>
<path d="M107.742 88.8773C97.1812 88.8773 88.6201 93.4292 88.6201 99.0469C88.6201 104.663 97.1812 109.218 107.742 109.218C118.3 109.218 126.862 104.663 126.862 99.0469C126.862 93.4292 118.3 88.8773 107.742 88.8773Z" fill="#452B2C"/>
<path d="M107.741 88.895C101.053 88.895 95.6294 91.7791 95.6294 95.3366C95.6294 98.8952 101.053 101.779 107.741 101.779C114.431 101.779 119.853 98.8952 119.853 95.3366C119.853 91.7791 114.431 88.895 107.741 88.895Z" fill="#523336"/>
<path d="M99.5269 84.139V93.614C99.5269 96.0263 103.204 97.9834 107.741 97.9834C112.278 97.9834 115.957 96.0263 115.957 93.614V84.139H99.5269Z" fill="#392223"/>
<path d="M107.741 77.8861C102.514 77.8861 98.2773 80.2628 98.2773 83.1967C98.2773 86.1306 102.514 88.5098 107.741 88.5098C112.967 88.5098 117.205 86.1306 117.205 83.1967C117.205 80.2628 112.967 77.8861 107.741 77.8861Z" fill="#452B2C"/>
<path d="M107.741 78.6603C103.929 78.6603 100.84 80.3044 100.84 82.3327C100.84 84.3597 103.929 86.0039 107.741 86.0039C111.554 86.0039 114.644 84.3597 114.644 82.3327C114.644 80.3044 111.554 78.6603 107.741 78.6603Z" fill="#392223"/>
<path d="M94.5226 92.9643C92.9697 93.3223 91.6598 94.6796 90.8656 95.9492C90.1318 97.1216 89.2748 99.5825 90.1816 100.876C90.3642 101.137 90.7376 101.032 90.766 100.717C90.9154 99.0313 91.1773 97.6941 92.1434 96.255C92.8891 95.1455 93.7177 94.3868 94.7822 93.3247C94.9505 93.1575 94.7893 92.9027 94.5226 92.9643Z" fill="white"/>
<path d="M90.4914 105.142H90.3812C89.7506 107.151 89.6593 115.946 90.1145 118.025C90.1607 118.237 90.5057 118.243 90.5483 118.025C90.9526 115.934 91.0059 107.182 90.4914 105.142Z" fill="white"/>
<path d="M125.015 114.061C124.934 113.952 124.728 113.972 124.735 114.136C124.754 114.532 124.85 114.911 124.836 115.311C124.822 115.758 124.672 116.145 124.586 116.577C124.523 116.886 124.946 117.098 125.116 116.8C125.538 116.063 125.531 114.754 125.015 114.061Z" fill="#2F1D1D"/>
<path d="M121.191 118.425C121.056 118.427 120.952 118.606 121.087 118.696C121.418 118.914 121.782 119.06 122.097 119.305C122.448 119.581 122.674 119.929 122.972 120.253C123.185 120.487 123.605 120.27 123.465 119.956C123.118 119.182 122.053 118.416 121.191 118.425Z" fill="#2F1D1D"/>
<path d="M123.524 95.5442L123.376 95.7208C123.541 96.0397 123.804 96.2934 123.989 96.604C124.214 96.9821 124.28 97.3887 124.463 97.7775C124.623 98.1237 125.096 98.0111 125.103 97.6341C125.115 96.8505 124.318 95.6948 123.524 95.5442Z" fill="#392223"/>
<path d="M120.775 96.6445C120.589 96.7038 120.61 97.0156 120.824 97.0002C121.669 96.9361 122.541 97.1069 123.299 97.4862C123.452 97.5621 123.635 97.549 123.762 97.4257L123.864 97.2479C123.888 97.095 123.844 96.8899 123.682 96.8188C122.724 96.3968 121.774 96.3257 120.775 96.6445Z" fill="#392223"/>
<path d="M116.938 104.904C116.608 104.774 116.284 105.266 116.124 105.484C115.834 105.874 115.577 106.329 115.466 106.805C115.368 107.223 116.003 107.544 116.196 107.112C116.42 106.614 116.602 106.106 116.842 105.615C116.906 105.483 117.202 105.008 116.938 104.904Z" fill="#392223"/>
<path d="M119.653 105.554C119.38 105.542 119.211 105.699 118.973 105.815C118.702 105.947 118.404 106.044 118.113 106.116C118.057 106.129 117.356 106.23 117.467 106.433C117.658 106.775 118.316 106.62 118.628 106.552C119.064 106.459 119.689 106.277 119.866 105.835C119.924 105.694 119.781 105.56 119.653 105.554Z" fill="#392223"/>
<path d="M121.007 121.38C120.78 120.701 120.375 119.888 119.821 119.425C119.714 119.336 119.555 119.419 119.586 119.561C119.734 120.244 120.129 120.994 120.451 121.614C120.609 121.917 121.116 121.708 121.007 121.38Z" fill="#2F1D1D"/>
<path d="M125.189 105.801C125 106.453 124.667 107.024 124.422 107.651L124.505 107.961L124.645 108.043C124.796 108.084 124.918 108.011 125.006 107.896C125.432 107.339 125.547 106.529 125.525 105.846C125.518 105.656 125.245 105.613 125.189 105.801Z" fill="#2F1D1D"/>
<path d="M114.727 92.5358C114.672 92.3224 114.396 92.3959 114.371 92.5844C114.312 93.0301 114.276 93.4676 114.158 93.9038C114.061 94.2642 113.84 94.6103 113.841 94.9825C113.841 95.1319 114.029 95.2694 114.164 95.1686C114.837 94.6719 114.918 93.2803 114.727 92.5358Z" fill="#2F1D1D"/>
<path d="M113.253 94.1749C112.924 94.5151 112.532 94.8103 112.131 95.058C111.776 95.2761 111.34 95.3947 111.036 95.6721C110.848 95.8451 111.046 96.1024 111.248 96.1107C111.706 96.1296 112.235 95.7456 112.573 95.4646C112.964 95.141 113.234 94.7676 113.482 94.3313C113.562 94.1903 113.359 94.0646 113.253 94.1749Z" fill="#2F1D1D"/>
<path d="M114.057 88.0829C113.586 88.4385 113.046 88.4966 112.53 88.7408V88.9293C113.109 89.2624 113.862 88.9376 114.346 88.5784C114.64 88.3603 114.351 87.8624 114.057 88.0829Z" fill="#2F1D1D"/>
<path d="M143.195 3.71445C142.803 3.59116 142.545 3.46314 142.019 3.30312C142.399 3.15849 142.77 2.99727 143.131 2.82301C143.255 2.76375 142.835 1.48114 142.185 1.1433C141.616 1.21086 141.036 1.34008 140.521 1.59495C140.522 1.52975 140.731 0.651337 140.827 0.275566C140.574 0.126205 140.275 0.057457 139.954 0.0207138C137.136 1.41357 135.062 4.26568 133.081 7.3442C133.236 5.86836 133.367 4.25736 133.481 2.87754C133.266 3.09091 133.064 3.31496 132.885 3.56509C132.285 4.40554 132.175 5.44398 131.724 6.33067C131.527 5.66446 131.422 5.05634 131.38 4.27277C130.183 6.63767 128.64 11.0593 128.563 13.8C127.819 12.8054 127.448 10.8388 127.369 9.38548C126.651 10.642 125.941 11.8701 125.458 13.2795C124.902 14.9047 124.761 16.5525 124.439 18.2251L124.431 18.2358C123.83 16.3035 123.488 14.8004 123.43 13.4538C122.534 14.6997 121.652 15.9799 120.91 17.3147C120.152 18.6744 120.045 20.0186 119.659 21.4316C119.43 20.8697 119.203 20.3067 118.963 19.7484C118.73 19.8811 118.442 20.13 118.119 20.4501C117.466 24.4841 117.807 29.4865 118.015 31.2646C116.295 30.142 115.694 27.7215 115.346 26.4874C114.783 29.5849 114.882 33.0025 115.757 37.0815C114.616 36.9854 111.71 31.9427 111.544 30.404C110.63 35.1291 110.448 39.6277 111.689 44.3658C109.399 41.5066 108.194 37.3826 108.395 33.332C107.928 34.1239 107.509 34.943 107.166 35.8048C105.114 40.9708 105.851 46.9974 106.458 52.5867C106.129 51.8541 105.828 51.1073 105.581 50.3427C105.114 48.8882 103.952 43.6 104.116 41.3169C103.584 41.7674 102.986 42.692 102.412 43.8691C102.442 50.1009 105.416 55.8098 109.332 60.4946C107.063 59.7146 104.04 56.6847 102.495 53.7531C102.532 58.0111 103.542 61.9811 105.925 65.6736C103.165 64.1361 100.977 61.0114 99.8567 57.4279C99.8994 58.0704 99.9681 58.6987 100.082 59.2807C101.123 64.5558 103.101 69.8238 105.822 73.949C103.03 71.7536 100.64 68.3716 99.8674 62.3177C99.846 62.1601 99.6149 62.2098 99.6007 62.3545C98.8408 69.8913 102.078 74.0012 105.714 78.1193C104.63 77.6368 99.2249 71.7773 98.0975 69.0485L97.9624 69.0852C98.9024 74.4836 102.589 78.1299 107.191 81.0852C107.421 81.2322 111.211 79.9389 112.703 78.9692C114.667 77.6914 116.398 76.2629 117.714 74.2987C118.523 73.0931 119.145 71.8081 119.635 70.4757C116.663 72.1566 111.652 71.8141 110.314 70.944C113.196 69.4634 116.159 67.8086 118.542 65.6736C116.463 66.8638 112.52 66.6291 111.235 66.6386C114.988 64.7739 118.597 62.8061 121.546 59.8841C121.571 59.5711 121.596 59.2605 121.62 58.9488C120.776 59.219 118.487 59.7217 117.153 60.1579C119.792 58.023 122.087 55.5455 123.317 52.2488C124.43 49.2687 124.916 46.0728 125.919 43.0512C126.021 42.7454 126.138 42.4111 126.261 42.0673C123.412 42.6825 118.701 43.7423 116.866 44.0861C119.877 41.5351 123.341 39.6989 125.616 38.7233C123.103 38.7885 120.051 39.7475 117.965 39.9833C120.187 37.9978 124.134 35.7099 126.889 35.3602C124.968 34.8991 123.021 34.7166 121.023 34.6466C123.614 34.0373 127.01 33.3083 129.805 33.364C130.19 32.5022 130.481 31.8823 130.598 31.6736C130.385 31.3144 129.269 30.9517 128.998 30.7383C129.212 30.7039 130.619 30.7051 130.797 30.6138C131.293 29.528 133.109 26.1935 133.589 25.2724L133.731 24.9902C130.631 25.5178 126.996 25.519 124.499 25.7738C127.479 24.3395 130.974 22.7332 133.608 21.306C131.289 21.415 128.591 21.255 126.545 21.0962C129.989 19.2861 133.827 18.4871 137.23 16.652C137.67 15.456 137.984 14.5313 138.077 14.1698C137.32 13.8462 136.567 13.5226 135.811 13.1989C138.694 12.5173 141.132 10.5744 142.393 7.84563C143.021 6.48477 143.328 4.83111 143.195 3.71445Z" fill="#538B8C"/>
<path d="M133.608 21.3056C130.974 22.7328 127.479 24.3391 124.499 25.7734C126.996 25.5186 130.631 25.5174 133.731 24.9899C134.912 22.6558 136.334 19.0877 137.23 16.6517C133.827 18.4867 129.989 19.2857 126.545 21.0958C128.591 21.2546 131.289 21.4147 133.608 21.3056Z" fill="#48797A"/>
<path d="M126.889 35.3601C124.134 35.7098 120.187 37.9976 117.965 39.9832C120.051 39.7473 123.103 38.7883 125.616 38.7231C123.341 39.6987 119.877 41.5349 116.866 44.0859C118.701 43.7422 123.412 42.6824 126.261 42.0672C127.247 39.3099 128.832 35.5486 129.805 33.3639C127.01 33.3082 123.614 34.0372 121.023 34.6465C123.021 34.7164 124.969 34.899 126.889 35.3601Z" fill="#48797A"/>
<path d="M111.236 66.6385C112.521 66.629 116.463 66.8637 118.542 65.6736C116.159 67.8085 113.196 69.4633 110.314 70.9439C111.652 71.814 116.664 72.1566 119.635 70.4757C120.871 67.1198 121.257 63.4486 121.546 59.884C118.597 62.8061 114.989 64.7738 111.236 66.6385Z" fill="#48797A"/>
<path d="M124.439 18.2247C124.761 16.5521 124.902 14.9043 125.458 13.2791C125.941 11.8697 126.651 10.6416 127.369 9.38507C127.449 10.8384 127.82 12.805 128.563 13.7995C128.64 11.0589 130.183 6.63726 131.381 4.27236C129.37 5.07963 126.061 9.8284 123.998 12.6651C123.808 12.9259 123.62 13.1902 123.43 13.4534C123.488 14.8 123.831 16.3031 124.432 18.2354L124.439 18.2247Z" fill="#48797A"/>
<path d="M139.954 0.0202637C138.413 -0.155178 136.245 0.838185 134.873 1.75451C134.376 2.08761 133.901 2.45508 133.481 2.87709C133.367 4.25691 133.235 5.86791 133.081 7.34375C135.062 4.26523 137.135 1.41312 139.954 0.0202637Z" fill="#48797A"/>
<path d="M111.689 44.3652C110.448 39.6271 110.629 35.1285 111.543 30.4034C111.709 31.9421 114.616 36.9849 115.756 37.0809C114.881 33.0019 114.783 29.5843 115.346 26.4869C115.693 27.7209 116.294 30.1415 118.014 31.264C117.807 29.4859 117.466 24.4835 118.119 20.4495C116.324 22.2383 113.357 26.552 111.364 29.1125C110.309 30.4698 109.266 31.852 108.395 33.3314C108.193 37.382 109.399 41.506 111.689 44.3652Z" fill="#48797A"/>
<path d="M105.924 65.6738C103.542 61.9813 102.532 58.0113 102.495 53.7533C104.039 56.6849 107.062 59.7148 109.331 60.4948C105.416 55.81 102.442 50.1011 102.412 43.8693C101.245 46.2603 100.175 49.7075 99.9558 52.4256C99.8313 53.9525 99.7424 55.7519 99.8562 57.4281C100.976 61.0116 103.165 64.1363 105.924 65.6738Z" fill="#48797A"/>
<path d="M140.513 1.87729C128.575 12.1667 120.412 26.605 115.128 41.2816C112.369 48.9417 110.355 56.8603 108.93 64.8725C107.725 71.6519 106.463 78.9232 106.352 85.9278C106.588 86.0037 107 86.0037 107.331 85.9954C107.532 83.1753 107.61 80.3327 107.89 77.5256C108.307 73.3494 108.869 69.1886 109.593 65.0551C110.946 57.3131 112.864 49.6589 115.469 42.2406C120.847 26.9191 129.255 13.5489 140.621 1.98396L140.513 1.87729Z" fill="#48797A"/>
<path d="M101.068 51.1938H101.006C100.584 54.9847 100.372 59.43 103.194 62.4102L103.274 62.3497C101.052 58.8575 101.022 55.2029 101.068 51.1938Z" fill="white"/>
<path d="M106.296 57.7892C104.497 54.9596 102.587 52.2557 102.112 48.8428L102.021 48.8547C102.258 52.3197 104.03 55.2322 106.175 57.8828L106.296 57.7892Z" fill="white"/>
<path d="M107.688 37.1948C107.696 37.0609 107.475 37.0277 107.453 37.1628C106.613 42.1759 107.125 47.4131 109.034 52.1405C109.078 52.2484 109.244 52.2105 109.213 52.0907C107.945 47.1416 107.415 42.298 107.688 37.1948Z" fill="white"/>
<path d="M110.488 31.4509L110.423 31.4248C109.323 33.8585 109.085 37.0413 110.245 39.5117L110.366 39.4596C109.95 36.6442 109.814 34.2556 110.488 31.4509Z" fill="white"/>
<path d="M114.083 27.3688L114 27.3463C113.277 29.5903 113.203 32.1603 114.082 34.377C114.152 34.5548 114.419 34.4908 114.373 34.2964C113.818 31.9185 113.62 29.7895 114.083 27.3688Z" fill="white"/>
<path d="M122.625 15.7669L122.581 15.7551C121.765 17.807 121.572 20.1541 122.248 22.2725L122.331 22.2618C122.115 20.0249 122.134 17.9753 122.625 15.7669Z" fill="white"/>
<path d="M124.827 12.563C124.423 13.6406 124.08 14.9825 124.397 16.124L124.557 16.1015C124.668 14.9019 124.62 13.7817 124.992 12.6093L124.827 12.563Z" fill="white"/>
<path d="M129.462 6.64788C128.674 7.86885 128.066 9.41108 128.179 10.8917C128.188 11.0078 128.374 11.0541 128.4 10.9213C128.68 9.43242 128.899 8.09527 129.563 6.70596L129.462 6.64788Z" fill="white"/>
<path d="M115.823 73.49C115.012 74.1538 114.189 74.8034 113.257 75.2942C112.311 75.7897 111.336 76.0256 110.327 76.3302C110.076 76.4061 110.11 76.8222 110.391 76.802C112.511 76.6538 114.729 75.3025 115.915 73.5599L115.823 73.49Z" fill="#48797A"/>
<path d="M120.976 52.1676C120.041 53.0152 119.087 53.826 117.975 54.4329C116.865 55.0387 115.662 55.3718 114.489 55.8199C114.349 55.872 114.357 56.0973 114.526 56.0937C117.066 56.0487 119.702 54.3262 121.17 52.3182C121.258 52.1996 121.074 52.0775 120.976 52.1676Z" fill="#48797A"/>
<path d="M119.91 49.895C118.605 51.7383 116.665 52.7957 114.571 53.5058C114.411 53.5603 114.428 53.8164 114.611 53.8104C117.046 53.7334 119.004 52.0904 120.058 49.9804L119.91 49.895Z" fill="#48797A"/>
<path d="M129.727 27.3255C127.386 27.9976 125.081 28.7942 122.677 29.2257V29.3822C124.971 29.7497 127.833 28.6603 129.85 27.616C130.01 27.533 129.899 27.2769 129.727 27.3255Z" fill="#48797A"/>
<path d="M140.247 7.66764C138.772 8.57329 137.201 9.09249 135.635 9.78477C135.494 9.8476 135.567 10.0823 135.714 10.074C137.442 9.9851 139.159 9.01901 140.477 7.96637C140.648 7.83004 140.427 7.55621 140.247 7.66764Z" fill="#48797A"/>
<path d="M106.996 68.4487C106.362 67.9829 105.624 67.7375 105.014 67.2135C104.373 66.6623 103.88 65.9736 103.554 65.1959C103.449 64.9458 103.037 65.0442 103.134 65.3121C103.669 66.7821 105.147 68.8067 106.903 68.7949C107.1 68.7937 107.138 68.5531 106.996 68.4487Z" fill="#48797A"/>
<path d="M108.183 62.2045C107.592 61.5999 106.893 61.1435 106.344 60.4832C105.751 59.7708 105.25 58.9825 104.753 58.2025C104.64 58.0259 104.369 58.1824 104.471 58.3661C105.257 59.7779 106.334 61.9804 108.022 62.4831C108.183 62.5317 108.297 62.3218 108.183 62.2045Z" fill="#48797A"/>
<path d="M110.791 48.4473C110.326 47.4717 109.82 46.5139 109.543 45.4636C109.26 44.4039 109.239 43.3323 109.141 42.2476L109.003 42.2298C108.475 44.3339 109.16 46.9916 110.537 48.6441C110.662 48.7958 110.867 48.6026 110.791 48.4473Z" fill="#48797A"/>
<path d="M99.8413 147.809V151.482C99.8413 156.302 107.187 160.21 116.25 160.21C125.311 160.21 132.659 156.302 132.659 151.482V147.809H99.8413Z" fill="#CCB8B9"/>
<path d="M116.25 139.627C107.187 139.627 99.8413 143.536 99.8413 148.357C99.8413 153.177 107.187 157.085 116.25 157.085C125.311 157.085 132.659 153.177 132.659 148.357C132.659 143.536 125.311 139.627 116.25 139.627Z" fill="#EFDADA"/>
<path d="M116.189 153.843C109.61 153.843 104.275 151.005 104.275 147.506C104.275 144.005 109.61 141.168 116.189 141.168C122.768 141.168 128.102 144.005 128.102 147.506C128.102 151.005 122.768 153.843 116.189 153.843Z" fill="#DDC9CA"/>
<path d="M116.25 142.252C112.223 142.252 108.959 143.988 108.959 146.13C108.959 148.271 112.223 150.008 116.25 150.008C120.275 150.008 123.54 148.271 123.54 146.13C123.54 143.988 120.275 142.252 116.25 142.252Z" fill="#EFDADA"/>
</svg>
