<svg width="159" height="151" viewBox="0 0 159 151" fill="none" xmlns="http://www.w3.org/2000/svg">
<path d="M102.109 44.6778L158.902 77.4815L144.876 85.5576L87.8867 52.8667L102.109 44.6778Z" fill="#3D2627"/>
<path d="M140.439 88.1114L136.204 90.5498L79.4102 57.7474L83.4488 55.4216L140.439 88.1114Z" fill="#3D2627"/>
<path d="M87.8877 52.8656L144.877 85.5566L140.439 88.1113L83.4492 55.4215L87.8877 52.8656Z" fill="#3D2627"/>
<path d="M102.109 39.4298L158.902 72.2334L144.876 80.3096L87.8867 47.6186L102.109 39.4298Z" fill="#523336"/>
<path d="M140.439 82.8652L136.204 85.3037L79.4102 52.5001L83.4488 50.1743L140.439 82.8652Z" fill="#523336"/>
<path d="M86.6894 50.5934C88.2823 49.6885 87.8874 47.6183 87.8874 47.6183L144.877 80.3093L140.439 82.8652L84.7524 50.9217C85.277 51.0464 85.9371 51.0222 86.6894 50.5934Z" fill="#3D2627"/>
<path d="M97.5138 29.1028C96.6767 27.7643 94.5398 27.2543 92.8645 26.9163C90.5605 26.4524 88.9288 26.6741 89.5212 27.4251C90.3219 28.439 92.7895 30.4389 94.9445 30.5879C97.0983 30.7357 98.2805 30.336 97.5138 29.1028Z" fill="#DBAF6D"/>
<path d="M76.1231 4.23219C76.1231 4.23219 73.8445 4.35089 74.5592 6.58464C75.2751 8.8196 78.1145 11.6215 79.5185 13.5948C81.1417 15.8758 80.3277 17.0968 81.8661 17.0556C83.2701 17.0181 84.6159 15.4106 84.6159 15.4106L76.1231 4.23219Z" fill="#DBAF6D"/>
<path d="M102.472 39.2713C102.472 39.2713 103.249 39.9411 104.253 40.7237C105.258 41.5062 105.483 41.8405 105.929 43.4613C106.376 45.0809 107.027 46.8689 107.251 47.4819C107.474 48.0972 107.01 48.3201 106.601 47.9301C106.19 47.5388 102.578 45.4153 101.964 44.1312C101.349 42.846 101.238 42.5674 100.822 40.7237C100.402 38.8558 102.472 39.2713 102.472 39.2713Z" fill="#EED296"/>
<path d="M83.6427 10.6726L102.907 39.0123C103.222 39.4775 102.871 40.2661 102.122 40.7737C101.373 41.2824 100.511 41.3176 100.197 40.8536L80.9463 12.5042L83.6427 10.6726Z" fill="#E2C184"/>
<path d="M88.6394 16.7085L102.013 36.381C102.478 37.0678 101.96 38.2344 100.852 38.9866C99.7439 39.7389 98.4683 39.791 98.002 39.1041L84.6177 19.4898L88.6394 16.7085Z" fill="#452B2C"/>
<path d="M79.4147 3.21408L88.6392 16.7086C89.1068 17.3955 88.575 18.6202 87.4678 19.3712C86.3606 20.1235 85.0839 20.1756 84.6175 19.4899L75.3857 5.79792L79.4147 3.21408Z" fill="#E2C184"/>
<path d="M75.3865 5.79745C75.7474 6.35831 76.9406 6.23596 78.0526 5.52247C79.1659 4.80898 79.7764 3.77568 79.4154 3.21361C79.0556 2.65275 77.8625 2.77631 76.7492 3.4898C75.6372 4.2033 75.0267 5.23659 75.3865 5.79745Z" fill="#EED296"/>
<path d="M76.6768 0.261851L78.7228 3.2636C79.0644 3.76753 78.6841 4.62397 77.8713 5.17635C77.0584 5.72752 76.122 5.76627 75.7792 5.26114L73.6763 2.18669L76.6768 0.261851Z" fill="#452B2C"/>
<path d="M105.049 44.7159C105.361 44.579 105.8 45.2525 105.576 45.519C106.186 46.3185 106.629 47.1374 107.181 47.9732C107.256 48.0859 107.136 48.1647 107.061 48.0544C106.507 47.2331 105.975 46.5511 105.441 45.6377C105.098 45.7855 104.519 44.9497 105.049 44.7159Z" fill="#392223"/>
<path d="M73.6765 2.18633C73.9442 2.60425 74.8334 2.5122 75.6631 1.98041C76.4905 1.44862 76.9448 0.679414 76.6771 0.261495C76.4093 -0.156424 75.519 -0.064368 74.6917 0.466208C73.8619 0.997995 73.4076 1.76841 73.6765 2.18633Z" fill="#523336"/>
<path d="M82.7717 9.5307C84.4906 11.7293 86.2907 14.5493 87.857 17.1199C87.96 17.2894 87.6971 17.4409 87.5905 17.2749C85.9661 14.7335 84.0582 12.2926 82.6445 9.62882L82.7717 9.5307Z" fill="white"/>
<path d="M89.3606 18.6743C90.0668 19.5101 92.3708 23.2435 93.1146 24.2259L92.9329 24.3652C91.5567 22.5918 90.2376 20.7287 89.0359 18.8123C88.7997 18.4368 88.9742 18.2164 89.3606 18.6743Z" fill="white"/>
<path d="M111.001 51.3332V52.3774C111.001 53.5427 109.227 54.4863 107.039 54.4863C104.848 54.4863 103.074 53.5427 103.074 52.3774V51.3332H111.001Z" fill="#E2C184"/>
<path d="M107.039 49.335C109.227 49.335 111.001 50.2787 111.001 51.4428C111.001 52.6081 109.227 53.5518 107.039 53.5518C104.848 53.5518 103.074 52.6081 103.074 51.4428C103.074 50.2787 104.848 49.335 107.039 49.335Z" fill="#F3DEA5"/>
<path d="M104.162 51.1775C104.174 50.0158 105.039 48.5053 105.039 48.5053L108.982 48.3575C108.982 48.3575 109.953 50.7959 109.931 51.2575C109.931 52.1079 108.635 52.7959 107.039 52.7959C105.442 52.7959 104.146 52.1079 104.146 51.2575L104.162 51.1775Z" fill="#E2C184"/>
<path d="M107.038 47.571C108.153 47.571 109.057 48.0519 109.057 48.6455C109.057 49.2378 108.153 49.7188 107.038 49.7188C105.923 49.7188 105.019 49.2378 105.019 48.6455C105.019 48.0519 105.923 47.571 107.038 47.571Z" fill="#F3DEA5"/>
<path d="M97.5135 29.1027C97.5135 29.1027 104.32 40.1115 105.673 42.1915C107.025 44.2726 108.788 48.0763 107.496 48.8418C106.433 49.473 105.085 48.7122 102.303 45.7492C100.815 44.1636 97.2603 39.0298 94.2768 34.5987C91.6832 30.7465 89.521 27.425 89.521 27.425C89.521 27.425 90.1824 28.3274 91.3405 29.0761C92.3035 29.6999 93.6202 30.1723 95.0933 30.3516C97.493 30.6448 97.5135 29.1027 97.5135 29.1027Z" fill="#E2C184"/>
<path d="M89.5207 26.6747C89.5279 26.671 89.6212 26.797 89.7157 26.9617C89.7339 27.1761 89.9894 27.5868 90.2014 27.8388C90.9936 28.78 92.4667 29.76 94.9137 30.0555C97.363 30.3499 97.4163 29.4475 96.9936 28.7655C96.8167 28.4796 96.6277 28.3342 96.4145 28.1477L96.2292 27.8739C96.2292 27.8739 97.0517 28.3584 97.5132 29.1034C97.9735 29.8484 97.9154 30.8357 95.2407 30.5134C92.566 30.1912 90.4983 28.9193 90.1034 28.3172C89.7084 27.714 89.0252 26.9218 89.5207 26.6747Z" fill="#F3D19E"/>
<path d="M125.813 45.3839C124.977 44.0454 122.839 43.5366 121.163 43.1974C118.861 42.7323 117.228 42.9551 117.82 43.705C118.621 44.7201 121.089 46.7201 123.243 46.8679C125.397 47.0168 126.581 46.6159 125.813 45.3839Z" fill="#DBAF6D"/>
<path d="M104.423 20.5127C104.423 20.5127 102.143 20.6314 102.859 22.8651C103.575 25.0989 106.413 27.902 107.819 29.8741C109.441 32.1551 108.627 33.3761 110.165 33.3349C111.569 33.2974 112.916 31.6911 112.916 31.6911L104.423 20.5127Z" fill="#DBAF6D"/>
<path d="M130.772 55.5519C130.772 55.5519 131.547 56.2218 132.552 57.0043C133.558 57.7856 133.781 58.1212 134.228 59.7408C134.675 61.3604 135.327 63.1483 135.55 63.7625C135.774 64.3779 135.309 64.6007 134.899 64.2095C134.488 63.8182 130.877 61.6959 130.262 60.4119C129.648 59.1266 129.536 58.8468 129.121 57.0043C128.702 55.1352 130.772 55.5519 130.772 55.5519Z" fill="#EED296"/>
<path d="M111.942 26.9544L131.205 55.2942C131.52 55.7582 131.169 56.5467 130.421 57.0555C129.672 57.5631 128.81 57.5994 128.495 57.1343L109.244 28.786L111.942 26.9544Z" fill="#E2C184"/>
<path d="M116.939 32.9882L130.312 52.6607C130.778 53.3487 130.258 54.5153 129.151 55.2675C128.044 56.0186 126.767 56.0718 126.301 55.3838L112.917 35.7694L116.939 32.9882Z" fill="#452B2C"/>
<path d="M107.714 19.4946L116.939 32.9879C117.406 33.6759 116.873 34.8994 115.766 35.6517C114.659 36.4039 113.382 36.456 112.916 35.7692L103.684 22.0784L107.714 19.4946Z" fill="#E2C184"/>
<path d="M103.685 22.0786C104.046 22.6406 105.24 22.5159 106.352 21.8036C107.465 21.0901 108.075 20.0556 107.715 19.4947C107.355 18.9339 106.161 19.0574 105.048 19.7709C103.936 20.4832 103.326 21.5177 103.685 22.0786Z" fill="#EED296"/>
<path d="M104.977 16.5427L107.022 19.5445C107.364 20.0484 106.983 20.9048 106.17 21.456C105.357 22.0084 104.422 22.0459 104.079 21.542L101.975 18.4664L104.977 16.5427Z" fill="#452B2C"/>
<path d="M133.348 60.9975C133.661 60.8606 134.098 61.5329 133.874 61.8007C134.484 62.5989 134.928 63.4178 135.479 64.2549C135.554 64.3675 135.434 64.4463 135.359 64.3348C134.807 63.5147 134.274 62.8315 133.739 61.9194C133.398 62.0671 132.817 61.2301 133.348 60.9975Z" fill="#392223"/>
<path d="M101.975 18.4662C102.242 18.8841 103.132 18.7932 103.961 18.2614C104.79 17.7296 105.244 16.9604 104.977 16.5425C104.708 16.1246 103.818 16.2154 102.99 16.7472C102.161 17.279 101.707 18.0482 101.975 18.4662Z" fill="#523336"/>
<path d="M111.07 25.8119C112.789 28.0106 114.589 30.8306 116.156 33.4011C116.259 33.5707 115.996 33.7221 115.89 33.5562C114.267 31.0147 112.358 28.5738 110.944 25.9101L111.07 25.8119Z" fill="white"/>
<path d="M117.66 34.9555C118.366 35.7914 120.669 39.5236 121.413 40.5072L121.232 40.6465C119.855 38.8731 118.536 37.01 117.334 35.0924C117.099 34.7169 117.272 34.4976 117.66 34.9555Z" fill="white"/>
<path d="M139.301 67.6144V68.6586C139.301 69.8227 137.526 70.7676 135.337 70.7676C133.148 70.7676 131.374 69.8227 131.374 68.6586V67.6144H139.301Z" fill="#E2C184"/>
<path d="M135.337 65.6153C137.526 65.6153 139.301 66.5589 139.301 67.723C139.301 68.8872 137.526 69.832 135.337 69.832C133.148 69.832 131.374 68.8872 131.374 67.723C131.374 66.5589 133.148 65.6153 135.337 65.6153Z" fill="#F3DEA5"/>
<path d="M132.46 67.4575C132.472 66.2971 133.337 64.7865 133.337 64.7865L137.281 64.6387C137.281 64.6387 138.253 67.0772 138.23 67.5387C138.23 68.3879 136.935 69.0771 135.337 69.0771C133.74 69.0771 132.445 68.3879 132.445 67.5387L132.46 67.4575Z" fill="#E2C184"/>
<path d="M135.338 63.8523C136.452 63.8523 137.356 64.3332 137.356 64.9255C137.356 65.5191 136.452 66 135.338 66C134.222 66 133.318 65.5191 133.318 64.9255C133.318 64.3332 134.222 63.8523 135.338 63.8523Z" fill="#F3DEA5"/>
<path d="M125.813 45.3835C125.813 45.3835 132.619 56.3923 133.973 58.4722C135.326 60.5521 137.088 64.357 135.796 65.1226C134.732 65.7525 133.384 64.993 130.603 62.03C129.115 60.4443 125.56 55.3106 122.576 50.8782C119.984 47.0261 117.82 43.7045 117.82 43.7045C117.82 43.7045 118.482 44.607 119.64 45.3568C120.603 45.9807 121.92 46.4519 123.393 46.6324C125.792 46.9256 125.813 45.3835 125.813 45.3835Z" fill="#E2C184"/>
<path d="M117.82 42.9543C117.827 42.9507 117.92 43.0767 118.015 43.2402C118.033 43.4558 118.289 43.8665 118.501 44.1184C119.293 45.0597 120.766 46.0396 123.213 46.3352C125.662 46.6296 125.715 45.7259 125.293 45.0439C125.117 44.758 124.928 44.6127 124.715 44.4273L124.528 44.1524C124.528 44.1524 125.351 44.6369 125.812 45.3831C126.273 46.1281 126.215 47.1141 123.54 46.7931C120.865 46.4709 118.797 45.199 118.404 44.5957C118.009 43.9937 117.324 43.2014 117.82 42.9543Z" fill="#F3D19E"/>
<path d="M158.902 72.2328V77.4805L136.204 90.5498V85.3034L158.902 72.2328Z" fill="#452B2C"/>
<path d="M79.4102 52.4998V57.7474L136.204 90.5498V85.3034L79.4102 52.4998Z" fill="#3D2627"/>
<path d="M144.877 80.3091C144.877 80.3091 145.271 82.3793 143.679 83.2842C141.762 84.3744 140.438 82.865 140.438 82.865L144.877 80.3091Z" fill="#3D2627"/>
<path d="M146.403 106.583L70.8617 150.109L17.6079 118.567L93.1495 75.0402L146.403 106.583Z" fill="white"/>
<path d="M65.0215 139.237L128.637 102.508L132.854 104.942L69.2382 141.671L65.0215 139.237Z" fill="#3D2627"/>
<path d="M55.4688 133.981L119.083 97.2524L121.192 98.4698L57.5766 135.198L55.4688 133.981Z" fill="#3D2627"/>
<path d="M49.1426 130.33L112.76 93.602L114.867 94.8194L51.2516 131.548L49.1426 130.33Z" fill="#3D2627"/>
<path d="M70.3978 113.609L108.907 91.3761L106.799 90.1586L68.29 112.393L70.3978 113.609Z" fill="#3D2627"/>
<path d="M64.1952 109.616L102.704 87.3829L100.597 86.1655L62.0874 108.399L64.1952 109.616Z" fill="#3D2627"/>
<path d="M49.5369 110.449C42.5547 110.449 36.8721 113.368 36.8721 116.953C36.8721 120.539 42.5547 123.454 49.5369 123.454C56.5204 123.454 62.2017 120.539 62.2017 116.953C62.2017 113.368 56.5204 110.449 49.5369 110.449ZM49.5369 124.455C41.8751 124.455 35.8716 121.16 35.8716 116.953C35.8716 112.745 41.8751 109.45 49.5369 109.45C57.2 109.45 63.2023 112.745 63.2023 116.953C63.2023 121.16 57.2 124.455 49.5369 124.455Z" fill="#538B8C"/>
<path d="M49.5363 112.699C45.1209 112.699 41.54 114.603 41.54 116.953C41.54 119.302 45.1209 121.206 49.5363 121.206C53.9541 121.206 57.5348 119.302 57.5348 116.953C57.5348 114.603 53.9541 112.699 49.5363 112.699Z" fill="#538B8C"/>
<path d="M45.7339 101.587V103.843C45.7339 107.735 51.6659 110.891 58.9837 110.891C66.3003 110.891 72.2324 107.735 72.2324 103.843V101.587H45.7339Z" fill="#3D2627"/>
<path d="M58.9837 94.5387C51.6659 94.5387 45.7339 97.6942 45.7339 101.586C45.7339 105.477 51.6659 108.633 58.9837 108.633C66.3003 108.633 72.2324 105.477 72.2324 101.586C72.2324 97.6942 66.3003 94.5387 58.9837 94.5387Z" fill="#FBEDF0"/>
<path d="M58.9835 95.1313C52.1538 95.1313 46.6191 98.0482 46.6191 101.647C46.6191 105.245 52.1538 108.163 58.9835 108.163C65.8107 108.163 71.3466 105.245 71.3466 101.647C71.3466 98.0482 65.8107 95.1313 58.9835 95.1313Z" fill="#C0A9AA"/>
<path d="M58.8649 96.2274C52.8299 96.2274 47.9385 98.5775 47.9385 101.475C47.9385 104.373 52.8299 106.723 58.8649 106.723C64.8999 106.723 69.7914 104.373 69.7914 101.475C69.7914 98.5775 64.8999 96.2274 58.8649 96.2274ZM58.8649 97.2668C64.6916 97.2668 68.752 99.4848 68.752 101.475C68.752 103.465 64.6916 105.683 58.8649 105.683C53.0383 105.683 48.9766 103.465 48.9766 101.475C48.9766 99.4848 53.0383 97.2668 58.8649 97.2668Z" fill="#D3C1C3"/>
<path d="M48.7914 75.5801H45.7339V101.669C45.7339 103.381 46.8847 104.947 48.7914 106.167V75.5801Z" fill="#EADCDE"/>
<path d="M67.8681 72.11H67.1836V96.7588L67.8681 96.3506V72.11Z" fill="#C0A9AA"/>
<path d="M64.9077 70.2567V95.9133C65.6079 96.1458 66.3104 96.3881 67.1838 96.7588V70.2567H64.9077Z" fill="#CCB8B9"/>
<path d="M69.2427 72.8819V97.9159C69.7987 98.4004 70.9895 99.527 71.5188 101.317V72.8819H69.2427Z" fill="#CCB8B9"/>
<path d="M72.204 75.5856H71.5195V100.234L72.204 99.8261V75.5856Z" fill="#C0A9AA"/>
<path d="M50.313 81.2586V106.915C51.0119 107.237 51.7726 107.521 52.5891 107.761V81.2586H50.313Z" fill="#EADCDE"/>
<path d="M54.6489 81.2014V108.25C55.3794 108.386 56.1401 108.489 56.9239 108.553V81.2014H54.6489Z" fill="#EADCDE"/>
<path d="M71.4663 78.1715V101.317L71.5584 102.09L72.2041 101.317V78.1715H71.4663Z" fill="#3D2627"/>
<path d="M58.9829 81.258V108.695H58.9841C66.3007 108.695 72.2328 105.54 72.2328 101.648V99.7022C72.2328 99.7022 71.9602 101.149 69.4878 103.198C67.7422 104.645 65.2808 105.358 63.6285 105.027C62.4123 104.785 61.8817 104.004 61.8817 103.198C61.8817 100.719 61.7763 98.8979 61.7496 96.635C61.8126 92.0755 66.1408 90.9077 68.7271 89.4262C71.3303 87.9338 72.2328 89.4274 72.2328 89.4274V81.258H58.9829Z" fill="#EADCDE"/>
<path d="M69.4874 103.198C67.7419 104.645 65.2804 105.358 63.6281 105.027C62.4119 104.785 61.8813 104.004 61.8813 103.198C61.8813 100.719 61.8813 101.437 61.8813 104.258C61.8813 105.065 62.4119 105.845 63.6281 106.089C65.2804 106.418 67.7419 105.705 69.4874 104.258C71.9598 102.209 72.2324 100.762 72.2324 100.762V98.9622C72.2324 98.9622 71.9598 101.149 69.4874 103.198Z" fill="#3D2627"/>
<path d="M53.2726 83.112H52.5894V107.761L53.2726 107.353V83.112Z" fill="#C0A9AA"/>
<path d="M49.4759 81.5182H48.7915V106.167L49.4759 105.759V81.5182Z" fill="#C0A9AA"/>
<path d="M57.6082 83.904H56.9238V108.553L57.6082 108.146V83.904Z" fill="#C0A9AA"/>
<path d="M72.2324 56.0769H45.7339V82.1671C45.7339 86.0592 51.6659 89.2148 58.9837 89.2148C59.9783 89.2148 60.9474 89.1543 61.8814 89.044V83.6414C67.6062 82.9606 71.9344 80.3113 72.2167 77.0976L72.2324 77.0879V56.0769Z" fill="#538B8C"/>
<path d="M72.2167 77.0965C71.9344 80.3103 67.6062 82.9595 61.8813 83.6403V89.043C67.8025 88.3392 72.2324 85.5288 72.2324 82.1673V77.0868L72.2167 77.0965Z" fill="#EADCDE"/>
<path d="M72.2167 75.5892C71.9344 78.8029 67.6062 81.4619 61.8813 82.1414V84.8428C67.8025 84.1402 72.2324 81.3286 72.2324 77.9671V75.5892H72.2167Z" fill="#3D2627"/>
<path d="M58.9837 49.0298C51.6659 49.0298 45.7339 52.1842 45.7339 56.0763C45.7339 59.9684 51.6659 63.124 58.9837 63.124C66.3003 63.124 72.2324 59.9684 72.2324 56.0763C72.2324 52.1842 66.3003 49.0298 58.9837 49.0298Z" fill="#6FA3A4"/>
<path d="M59.0841 49.105C52.7087 49.105 47.541 51.8536 47.541 55.2454C47.541 58.636 52.7087 61.3857 59.0841 61.3857C65.4583 61.3857 70.6259 58.636 70.6259 55.2454C70.6259 51.8536 65.4583 49.105 59.0841 49.105Z" fill="#538B8C"/>
<path d="M59.0848 49.1351C55.0546 49.1351 51.7876 50.8722 51.7876 53.0163C51.7876 55.1592 55.0546 56.8975 59.0848 56.8975C63.1138 56.8975 66.3808 55.1592 66.3808 53.0163C66.3808 50.8722 63.1138 49.1351 59.0848 49.1351Z" fill="#538B8C"/>
<path d="M58.9837 66.0365C52.0717 66.0365 46.3977 63.2213 45.7908 59.6284H45.7339V61.884C45.7339 65.7761 51.6659 68.9316 58.9837 68.9316C66.3003 68.9316 72.2324 65.7761 72.2324 61.884V59.6284H72.1755C71.5686 63.2213 65.8945 66.0365 58.9837 66.0365Z" fill="#3D2627"/>
<path d="M65.8623 77.4135C65.8623 78.3996 67.116 78.4747 68.6642 77.5807C70.2123 76.6867 71.4673 75.1641 71.4673 74.178C71.4673 73.192 70.2123 73.1181 68.6642 74.0109C67.116 74.9048 65.8623 76.4287 65.8623 77.4135Z" fill="white"/>
<path d="M41.2676 69.8438C41.2676 69.8438 41.4396 69.7481 41.6988 69.5785C41.5535 69.6584 41.4105 69.7456 41.2676 69.8438Z" fill="#FABEAF"/>
<path d="M67.0498 77.2822C66.8911 77.0848 66.7105 76.857 66.501 76.5893C66.6694 76.8401 66.8523 77.0702 67.0498 77.2822Z" fill="#FABEAF"/>
<path d="M83.5277 46.8784C82.9244 45.5823 81.8051 44.7464 80.71 43.8876C78.6737 42.2922 76.7222 40.6944 74.9767 38.7732C72.3989 35.9374 70.6218 32.3227 67.3269 30.2028C63.2858 27.602 58.0043 26.6015 53.6543 24.9043C50.7313 23.7632 47.7574 22.7578 44.7848 21.7536C32.7911 17.7004 23.5714 13.8434 11.992 10.8938L11.9145 10.8731L11.8951 10.8683H11.8939C10.6837 10.5061 9.23859 10.7193 7.68199 11.6181C3.44345 14.0651 0.00800993 20.6258 0.00195312 26.2792C3.24113 27.9122 8.16049 30.3058 10.685 31.092C14.6461 32.3251 13.4784 33.2349 14.7103 35.5716C15.9447 37.9095 20.9609 44.1419 24.5162 45.3121C29.2514 46.8711 31.3338 46.5465 31.3338 46.5465C31.3338 46.5465 32.4373 49.8802 35.685 53.4937C37.3518 55.3495 40.7485 56.8976 40.7485 56.8976C40.7485 56.8976 37.9575 59.628 36.7885 62.0858C35.3482 65.113 35.7492 67.973 35.7492 67.973C35.7492 67.973 33.6063 68.3631 31.7238 68.9312C30.4664 69.3104 29.1837 70.8343 28.4689 71.8082C28.429 72.5144 28.5367 73.2316 28.8166 73.9184C29.5809 75.7948 35.5881 74.5544 38.7255 72.8815C38.7255 72.8815 39.5153 72.0638 39.9054 71.7392C40.2942 71.4157 41.2681 69.8434 41.2681 69.8434C42.0022 68.3546 42.6612 67.5382 43.3577 66.4007C44.2445 64.9459 47.0282 59.7249 47.5418 58.4287C47.5418 58.4287 47.9573 56.3512 48.0215 55.6365C48.0869 54.923 48.0324 50.3296 48.0324 50.3296L49.7962 50.7414C49.7962 50.7414 49.1348 53.6233 50.3134 57.9091C50.8004 59.6825 53.8009 63.5576 53.8009 63.5576C53.8009 63.5576 52.4502 64.0858 51.3115 67.1372C50.3146 69.8107 50.3134 72.1098 50.3134 72.1098C50.3134 72.1098 45.1651 71.8046 43.6703 71.8433C42.1779 71.8821 40.3596 73.8421 40.3596 73.8421L38.7255 72.8815C40.5438 74.9687 43.8496 76.524 46.62 77.0873C48.3037 77.4313 51.2195 77.5682 52.9311 77.0873C55.3805 76.4005 58.9698 68.2492 59.0837 64.2796C59.1624 61.5492 58.4283 58.2967 57.9559 56.4155L56.4634 51.2866C56.4634 51.2866 59.1902 52.0655 60.8789 52.1951C62.5663 52.3247 64.9079 52.1951 64.9079 52.1951C64.9079 52.1951 64.9115 54.4579 64.9079 56.8976C64.9043 59.3385 67.184 64.1355 67.184 64.1355C67.184 64.1355 66.1483 68.5254 66.0453 70.4903C65.9436 72.4418 66.76 76.3569 67.5111 77.7148C68.3287 78.381 69.3475 78.7408 70.6267 78.6221C73.1379 78.3871 72.5843 75.1673 73.4104 72.6453C73.4104 72.6453 74.8386 67.8446 74.9682 66.0906C75.099 64.3377 75.156 60.1537 75.4879 57.714C75.821 55.2744 75.4261 51.7978 75.2286 50.8311C74.8822 49.1352 72.2329 47.3896 72.2329 47.3896C75.3583 46.3515 78.8313 50.8965 78.8313 50.8965C78.7004 52.6263 77.632 56.0763 77.1765 58.4287C76.7525 60.6201 76.5345 65.766 76.5345 65.766C76.5345 65.766 75.6829 69.0124 75.328 70.4903C75.1039 71.4218 75.0191 72.5096 74.9876 73.1867C76.3274 73.979 78.3152 74.8354 79.1898 72.8815C81.2624 68.2504 82.601 63.6231 83.3181 58.5983C83.799 55.2174 85.0467 50.1406 83.5277 46.8784Z" fill="#FABEAF"/>
<path d="M31.7231 68.9306C33.6055 68.3625 35.7484 67.9725 35.7484 67.9725C35.7484 67.9725 35.3475 65.1124 36.7878 62.0852C37.9568 59.6274 40.7477 56.897 40.7477 56.897C40.7477 56.897 38.9525 54.8716 37.2857 53.0158C34.038 49.4023 33.9956 45.7876 33.9956 45.7876C33.9956 45.7876 29.2507 46.8706 24.5155 45.3115C20.9602 44.1414 15.9439 37.9089 14.7096 35.571C13.4776 33.2343 14.6454 32.3246 10.6842 31.0914C8.15975 30.3052 3.24039 27.9116 0.00121254 26.2787L0 26.2956C0 29.5748 1.1605 31.817 2.95816 32.6528C3.15925 32.7473 3.3688 32.8212 3.58564 32.8794C6.58497 33.9575 8.91681 34.3148 12.437 34.9229C13.3867 37.4668 14.8792 40.9385 18.4115 43.7961C21.9087 46.6259 26.1048 47.9038 32.1653 49.0292C31.9933 51.6554 34.2524 55.2447 37.6321 56.897C35.1888 59.6274 33.9411 62.9501 34.3409 66.5661C30.6402 67.0094 28.6051 69.3425 28.4682 71.8076C29.1829 70.8337 30.4657 69.3098 31.7231 68.9306Z" fill="#F9AA9A"/>
<path d="M67.0503 77.2822C67.4791 77.814 67.7008 78.055 67.5251 77.7437L67.5106 77.7146C67.3483 77.5838 67.1957 77.4373 67.0503 77.2822Z" fill="#F9AA9A"/>
<path d="M66.0448 70.4903C66.1477 68.5255 67.1834 64.1355 67.1834 64.1355C67.1834 64.1355 64.9037 59.3385 64.9073 56.8976C64.911 54.458 64.9073 52.1951 64.9073 52.1951C64.9073 52.1951 62.5657 52.3247 60.8783 52.1951C59.1897 52.0655 56.4629 51.2866 56.4629 51.2866L57.9553 56.4155C59.0577 56.6263 61.2587 57.3289 63.7347 56.8976C63.6463 58.946 64.0957 63.4547 65.2283 65.8314C64.7971 69.3577 64.7038 73.9136 66.5014 76.5895C66.711 76.8572 66.8915 77.085 67.0502 77.2824C67.1956 77.4375 67.3482 77.584 67.5105 77.7148C66.7595 76.3569 65.943 72.4418 66.0448 70.4903Z" fill="#F9AA9A"/>
<path d="M43.6694 71.8431C45.1642 71.8043 50.3125 72.1095 50.3125 72.1095C50.3125 72.1095 50.3137 69.8104 51.3106 67.1369C52.4493 64.0855 53.8 63.5574 53.8 63.5574C53.8 63.5574 50.7995 59.6822 50.3125 57.9088C49.1338 53.623 49.7952 50.7412 49.7952 50.7412L48.0315 50.3293C48.0315 50.3293 48.086 54.9228 48.0206 55.6363C47.9564 56.351 47.5409 58.4285 47.5409 58.4285C47.7323 59.0971 49.2695 61.8251 50.791 63.1237C49.2695 63.521 48.378 68.3931 48.791 69.3368C46.716 69.2931 44.0231 68.2986 41.6985 69.5778C41.4392 69.7474 41.2672 69.8431 41.2672 69.8431C41.2672 69.8431 40.2933 71.4155 39.9044 71.7389C39.5144 72.0635 38.7246 72.8812 38.7246 72.8812L40.3587 73.8418C40.3587 73.8418 42.177 71.8818 43.6694 71.8431Z" fill="#F9AA9A"/>
<path d="M76.5345 65.7657C76.5345 65.7657 76.7525 60.6199 77.1765 58.4285C77.6319 56.0761 78.9947 52.0592 79.1244 50.3294C79.1244 50.3294 76.268 46.0266 72.2329 47.3894C72.2329 47.3894 74.1093 48.7437 74.6205 49.588C75.1329 50.4323 75.1862 53.1058 75.294 56.5448C75.3703 59.0063 74.904 63.2982 74.7732 65.051C74.6448 66.8051 73.5594 71.808 73.5594 71.808C73.9955 72.645 74.6508 72.9866 74.9876 73.1865C75.0191 72.5094 75.1039 71.4216 75.328 70.49C75.6829 69.0122 76.5345 65.7657 76.5345 65.7657Z" fill="#F9AA9A"/>
<path d="M67.8724 71.4154C67.8724 71.4154 68.8221 70.8122 70.7142 70.9709C72.6051 71.1284 73.5585 71.8079 73.5585 71.8079C73.5585 71.8079 73.5051 77.1597 71.5185 77.5813C69.5295 78.004 67.7839 74.0102 67.8724 71.4154Z" fill="#FCD1C9"/>
<path d="M77.0463 67.1369C77.0463 67.1369 80.0626 67.4046 81.125 67.9267C80.9421 69.8431 79.3479 73.843 78.3885 73.8418C76.3558 73.8418 76.1366 69.8431 77.0463 67.1369Z" fill="#FCD1C9"/>
<path d="M29.2907 74.454C29.2907 74.454 28.9297 73.7526 30.3591 73.428C31.7873 73.1034 34.7745 72.8817 34.7745 72.8817L35.0821 74.2699C35.0821 74.2699 32.25 75.4788 29.2907 74.454Z" fill="#FCD1C9"/>
<path d="M38.7246 72.8814L39.1898 72.6452C39.1898 72.6452 40.4884 72.6488 42.2424 73.4931C43.9952 74.3374 44.6033 74.8656 44.6033 74.8656C44.6033 74.8656 44.1248 75.7947 43.8159 76.4004C42.8262 75.9595 39.8827 74.673 38.7246 72.8814Z" fill="#FCD1C9"/>
<path d="M16.8339 20.2802C16.8339 20.2802 15.1016 21.838 13.717 24.4363C12.3312 27.0335 12.5045 29.2842 12.5045 29.2842C12.5045 29.2842 13.6819 27.346 15.1016 24.7828C16.0998 22.9827 16.8339 20.2802 16.8339 20.2802Z" fill="#F9AA9A"/>
</svg>
