<svg width="219" height="146" viewBox="0 0 219 146" fill="none" xmlns="http://www.w3.org/2000/svg">
<path d="M21.8029 144.204C21.8029 144.204 -2.79454 115.975 7.47666 82.7942C16.6952 53.0138 58.3761 33.74 80.5236 48.4898C91.238 55.6249 99.8939 26.9462 135.453 16.4484C161.748 8.68449 200.631 26.096 190.756 79.4149C183.247 119.953 220.491 99.7427 212.358 144.525L21.8029 144.204Z" fill="#EBF3FA"/>
<path d="M152.13 42.7407C152.13 42.7407 146.786 36.9492 151.448 32.9673C151.448 32.9673 154.878 30.7062 157.746 30.7716C157.746 30.7716 153.947 37.736 155.284 38.3639C156.621 38.9918 158.959 30.2977 158.959 30.2977C158.959 30.2977 166.917 29.2213 169.533 30.3621C169.533 30.3621 162.915 36.2169 164.366 36.4958C165.816 36.7746 172.985 31.0036 172.985 31.0036C172.985 31.0036 180.467 31.9913 180.24 36.5484C180.014 41.1056 177.506 42.6051 176.375 42.5271C175.245 42.4482 168.565 40.1784 168.456 41.1075C168.347 42.0367 172.424 44.9071 175.206 44.9442C175.206 44.9442 170.182 50.9307 166.636 49.3911C163.09 47.8516 162.694 45.2142 160.485 44.3016C158.277 43.39 156.424 43.4622 157.358 44.442C158.292 45.4219 162.259 46.2585 163.583 48.4113C164.907 50.565 166.077 52.007 162.452 51.5995C158.829 51.192 152.872 48.771 152.501 45.7554C152.13 42.7407 152.13 42.7407 152.13 42.7407Z" fill="#599DAD"/>
<path d="M176.593 36.8085C176.593 36.8085 156.374 36.789 152.131 42.7404C152.131 42.7404 151.256 45.7356 148.324 48.5436L147.898 49.853C147.898 49.853 151.258 46.0261 152.502 45.7551C152.502 45.7551 150.276 38.6629 176.593 36.8085Z" fill="#599DAD"/>
<path d="M148.324 48.5439C148.324 48.5439 144.11 51.9184 144.023 57.6661L144.813 57.707C144.813 57.707 145.975 51.7234 148.39 49.3093C150.805 46.8962 148.324 48.5439 148.324 48.5439Z" fill="#599DAD"/>
<path d="M140.049 35.8385C140.049 35.8385 128.035 33.1241 130.518 23.8518C130.518 23.8518 132.936 17.8927 136.69 15.4288C136.69 15.4288 137.958 27.7772 140.237 27.3989C142.516 27.0206 137.833 13.7421 137.833 13.7421C137.833 13.7421 147.134 5.28691 151.514 4.43281C151.514 4.43281 148.169 17.8537 150.285 16.9255C152.401 15.9963 156.53 2.19323 156.53 2.19323C156.53 2.19323 167.043 -3.179 170.785 2.89329C174.529 8.96655 172.623 13.1269 171.097 14.0287C169.572 14.9326 158.955 17.9395 159.638 19.2343C160.32 20.5281 168.115 20.6051 171.73 18.1822C171.73 18.1822 170.557 30.358 164.625 31.5241C158.694 32.6892 155.848 29.6433 152.195 30.4302C148.543 31.217 146.218 32.9554 148.29 33.3873C150.36 33.8202 156.212 31.3749 159.824 32.9739C163.436 34.572 166.219 35.391 161.189 38.0849C156.159 40.7788 146.341 42.9501 143.194 39.3943C140.049 35.8385 140.049 35.8385 140.049 35.8385Z" fill="#86D1CD"/>
<path d="M166.314 6.46865C166.314 6.46865 140.244 24.4018 140.047 35.8386C140.047 35.8386 141.571 40.4757 140.277 46.6991L140.888 48.7632C140.888 48.7632 141.83 40.8472 143.193 39.3944C143.193 39.3944 134.046 32.234 166.314 6.46865Z" fill="#6BB7BF"/>
<path d="M140.279 46.6992C140.279 46.6992 137.837 54.7879 142.813 62.27L143.867 61.6216C143.867 61.6216 140.067 52.8808 141.042 47.6265C142.016 42.3712 140.279 46.6992 140.279 46.6992Z" fill="#6BB7BF"/>
<path d="M73.3139 104.89C73.3139 104.89 85.3277 102.176 82.8447 92.9036C82.8447 92.9036 80.426 86.9454 76.6728 84.4816C76.6728 84.4816 75.4046 96.8289 73.125 96.4507C70.8465 96.0724 75.5292 82.7938 75.5292 82.7938C75.5292 82.7938 66.228 74.3387 61.848 73.4855C61.848 73.4855 65.1933 86.9064 63.0773 85.9772C60.9613 85.049 56.8328 71.245 56.8328 71.245C56.8328 71.245 46.3195 65.8727 42.5767 71.946C38.8338 78.0183 40.7395 82.1786 42.2653 83.0815C43.791 83.9843 54.4074 86.9922 53.7249 88.286C53.0424 89.5798 45.2481 89.6569 41.6321 87.235C41.6321 87.235 42.8058 99.4107 48.7374 100.576C54.669 101.741 57.5148 98.6951 61.1676 99.4819C64.8196 100.269 67.1439 102.008 65.0726 102.44C63.0024 102.872 57.1508 100.427 53.5386 102.026C49.9263 103.624 47.1429 104.443 52.1731 107.137C57.2034 109.831 67.0213 112.002 70.168 108.446C73.3139 104.89 73.3139 104.89 73.3139 104.89Z" fill="#86D1CD"/>
<path d="M47.0469 75.5201C47.0469 75.5201 73.1165 93.4542 73.314 104.89C73.314 104.89 71.7898 109.527 73.0843 115.75L72.4721 117.814C72.4721 117.814 71.5309 109.899 70.1682 108.446C70.1682 108.446 79.3146 101.285 47.0469 75.5201Z" fill="#6BB7BF"/>
<path d="M73.0839 115.75C73.0839 115.75 75.526 123.84 70.5493 131.321L69.4961 130.674C69.4961 130.674 73.2961 121.932 72.3208 116.678C71.3464 111.422 73.0839 115.75 73.0839 115.75Z" fill="#6BB7BF"/>
<path d="M152.964 144.525H65.5312V21.535H152.964V144.525Z" fill="#739AF0"/>
<path d="M149.896 142.249H68.6094V24.9415H149.896V142.249Z" fill="#DDEBFD"/>
<path d="M143.339 43.1377H76.9766V39.3352H143.339V43.1377Z" fill="#A8C3F7"/>
<path d="M143.339 64.2832H76.9766V62.5389H143.339V64.2832Z" fill="#A8C3F7"/>
<path d="M143.339 68.3857H76.9766V66.6424H143.339V68.3857Z" fill="#A8C3F7"/>
<path d="M143.339 72.4897H76.9766V70.7455H143.339V72.4897Z" fill="#A8C3F7"/>
<path d="M143.339 76.5938H76.9766V74.8495H143.339V76.5938Z" fill="#A8C3F7"/>
<path d="M143.339 80.6963H76.9766V78.953H143.339V80.6963Z" fill="#A8C3F7"/>
<path d="M143.339 84.8003H76.9766V83.0559H143.339V84.8003Z" fill="#A8C3F7"/>
<path d="M96.4094 106.888C96.4094 109.721 94.1172 112.017 91.2887 112.017C88.4612 112.017 86.168 109.721 86.168 106.888C86.168 104.055 88.4612 101.758 91.2887 101.758C94.1172 101.758 96.4094 104.055 96.4094 106.888Z" fill="#A8C3F7"/>
<path d="M117.85 111.819C117.836 111.819 117.821 111.817 117.807 111.815C117.667 111.792 117.574 111.659 117.597 111.52C117.645 111.238 118.81 104.602 122.484 102.343C122.746 102.182 122.911 102.266 122.986 102.331C123.308 102.607 123.063 103.312 121.956 105.968C121.516 107.028 120.993 108.283 120.777 109.046C121.169 108.533 121.754 107.653 122.22 106.953C123.673 104.768 123.956 104.411 124.239 104.411C124.344 104.411 124.439 104.46 124.498 104.546C124.652 104.768 124.535 105.139 124.134 106.228C123.98 106.645 123.745 107.285 123.677 107.628C123.885 107.44 124.192 107.04 124.377 106.799C124.88 106.142 125.135 105.829 125.436 105.876C125.499 105.886 125.652 105.93 125.726 106.134C125.756 106.218 125.769 106.314 125.785 106.415C125.825 106.677 125.869 106.976 126.185 107.154C126.823 107.514 128.661 107.493 133.796 105.349C133.926 105.295 134.076 105.356 134.13 105.487C134.185 105.617 134.124 105.768 133.993 105.822C129.657 107.633 127.021 108.215 125.934 107.601C125.404 107.302 125.326 106.802 125.28 106.499C125.134 106.653 124.931 106.917 124.782 107.111C124.227 107.835 123.862 108.272 123.489 108.241C123.375 108.231 123.279 108.173 123.217 108.076C123.04 107.796 123.213 107.244 123.653 106.05C123.724 105.859 123.805 105.64 123.875 105.436C123.52 105.923 123.037 106.649 122.646 107.238C121.019 109.685 120.724 110.04 120.396 109.95C120.345 109.937 120.181 109.873 120.167 109.635C120.134 109.063 120.667 107.734 121.484 105.771C121.898 104.774 122.443 103.468 122.577 102.893C119.234 105.143 118.113 111.54 118.102 111.606C118.081 111.731 117.973 111.819 117.85 111.819Z" fill="#A8C3F7"/>
<path d="M112.903 19.6276C111.771 19.6276 110.854 18.7091 110.854 17.5762C110.854 16.4432 111.771 15.5238 112.903 15.5238C114.034 15.5238 114.95 16.4432 114.95 17.5762C114.95 18.7091 114.034 19.6276 112.903 19.6276ZM128.4 19.5427H118.09C118.322 18.9304 118.45 18.2684 118.45 17.5762C118.45 14.5068 115.966 12.0196 112.903 12.0196C109.839 12.0196 107.355 14.5068 107.355 17.5762C107.355 18.2684 107.482 18.9304 107.714 19.5427H97.4042C96.5749 19.5427 95.9023 20.2155 95.9023 21.0472V25.2182C95.9023 26.0499 96.5749 26.7236 97.4042 26.7236H128.4C129.23 26.7236 129.903 26.0499 129.903 25.2182V21.0472C129.903 20.2155 129.23 19.5427 128.4 19.5427Z" fill="#F99746"/>
<path d="M97.4023 26.7236H128.398C129.228 26.7236 129.901 26.0499 129.901 25.2182V21.0471L97.4023 26.7236Z" fill="#ED7D2B"/>
<path d="M14.6001 144.042C16.6663 141.927 20.3063 140.472 24.5113 140.301V134.068H17.2574C17.0965 134.068 16.9527 133.927 16.8616 133.711C16.7981 133.559 16.76 133.369 16.76 133.165V132.85C16.76 132.352 16.9839 131.947 17.2574 131.947H24.5113V114.536C24.5113 114.076 24.8868 113.7 25.346 113.7C25.8051 113.7 26.1806 114.076 26.1806 114.536V131.947H33.4346C33.7082 131.947 33.9319 132.352 33.9319 132.85V133.165C33.9319 133.376 33.8914 133.571 33.8237 133.725C33.7325 133.934 33.5917 134.068 33.4346 134.068H26.1806V140.301C30.3856 140.472 34.0257 141.927 36.092 144.042C36.2421 144.195 36.3835 144.352 36.5161 144.512H14.1758C14.3079 144.352 14.4499 144.195 14.6001 144.042Z" fill="#D39E7A"/>
<path d="M24.5117 140.332C27.4454 140.604 29.9669 142.022 31.4266 144.042C31.5379 144.196 31.6423 144.352 31.7406 144.512H33.8076C33.7093 144.352 33.6049 144.196 33.4936 144.042C31.865 141.788 28.9147 140.284 25.5454 140.284C25.1957 140.284 24.8508 140.3 24.5117 140.332Z" fill="#E0B594"/>
<path d="M47.3789 140.362C47.3789 140.362 47.6317 144.445 48.4204 144.504C48.5253 144.512 52.4204 144.512 52.4204 144.512L57.3929 144.483C57.3929 144.483 57.3603 143.283 55.9068 143.03C54.4534 142.775 52.0206 141.752 51.1401 139.828C50.2139 137.804 47.3789 140.362 47.3789 140.362Z" fill="#163560"/>
<path d="M27.685 110.36C28.3949 111.566 29.2159 112.696 30.0621 113.767C32.6775 117.074 35.5245 119.801 36.0205 122.379C36.119 122.893 36.2756 123.445 36.4802 124.028C36.6874 124.619 36.9435 125.239 37.239 125.882C38.3489 128.297 40.0086 131.003 41.6657 133.463C44.5304 137.715 46.875 140.567 46.875 140.567C46.875 140.567 47.626 141.154 49.7747 141.153C50.3725 141.153 52.3855 140.826 52.3855 140.826C52.1876 140.329 49.8118 134.684 46.9295 127.51C45.759 124.597 44.5143 121.499 43.3136 118.511C43.1536 118.112 42.9936 117.715 42.8353 117.321C42.4682 116.407 42.107 115.507 41.7542 114.63C39.0478 107.893 36.8921 102.529 36.8921 102.529C36.8921 102.529 26.075 98.4241 24.9517 101.084C24.0254 103.277 24.7799 105.426 27.685 110.36Z" fill="#233862"/>
<path d="M62.4722 144.512H46.0898V99.0973H62.4722V144.512Z" fill="#D39E7A"/>
<path d="M61.793 144.512H73.5119V99.0973H61.793V144.512Z" fill="#F2C7AA"/>
<path d="M61.9067 99.0972H44.9805V98.1815H61.9067V99.0972Z" fill="#AF7D5B"/>
<path d="M74.7232 99.0972H61.9062V98.1815H74.7232V99.0972Z" fill="#E2B291"/>
<path d="M44.723 92.0699C44.723 92.0699 47.0705 93.4076 47.7276 93.4066C48.3847 93.4066 50.9642 92.9074 51.6832 93.276C52.4023 93.6435 53.7038 95.1245 53.948 95.6081C54.3871 96.4778 52.1803 96.0937 51.1371 95.3527C50.9857 95.2454 50.7973 95.2055 50.616 95.2454C50.0758 95.3634 48.9533 95.5672 48.4113 95.3663C47.6826 95.0963 43.8438 94.796 43.8438 94.796L44.723 92.0699Z" fill="#ED975D"/>
<path d="M26.8633 73.8588C26.8633 73.8588 29.2967 91.1835 33.3262 92.7357C35.3145 93.5011 44.1015 95.2376 46.7007 95.4111C46.7007 95.4111 47.3375 94.8944 47.1824 92.7884C47.1824 92.7884 37.9762 89.4022 36.6683 87.5614C34.7219 84.8207 37.8766 76.3665 35.4343 73.7925C32.9918 71.2194 28.8782 70.1128 26.8633 73.8588Z" fill="#82B378"/>
<path d="M35.9419 128.697C35.9419 128.697 32.5058 130.909 32.8392 131.627C32.8836 131.723 34.7825 135.13 34.7825 135.13L37.2317 139.464C37.2317 139.464 38.262 138.85 37.7745 137.456C37.2872 136.061 36.9931 133.434 38.2412 131.726C39.5542 129.929 35.9419 128.697 35.9419 128.697Z" fill="#163560"/>
<path d="M37.8927 132.938C37.8927 132.938 35.4742 130.688 35.0957 129.295C35.0957 129.295 43.9443 118.676 45.8638 116.295C45.9518 116.186 45.9294 116.066 45.8131 115.934C44.364 114.298 28.264 110.97 26.1597 107.691C25.4344 106.561 25.0237 105.488 24.8 104.551C24.323 102.55 24.7001 101.168 24.7001 101.168L40.7794 100.702C40.7794 100.702 54.1668 109.052 55.6829 114.745C57.1983 120.439 37.8927 132.938 37.8927 132.938Z" fill="#2B478B"/>
<path d="M45.81 115.934C44.3609 114.298 28.2609 110.97 26.1566 107.691C25.4313 106.561 25.0206 105.487 24.7969 104.55V102.513L31.6308 101.435C31.6308 101.435 33.5689 107.409 39.3086 109.649C44.6845 111.747 45.7026 115.47 45.81 115.934Z" fill="#233862"/>
<path d="M36.3757 72.7666C33.1227 73.609 27.7305 70.5904 27.7305 70.5904C27.7305 70.5904 29.8244 69.1806 30.6003 66.084C30.6399 65.928 30.6749 65.7681 30.7069 65.6043C31.0475 65.5322 31.6901 65.3947 32.3774 65.2494L34.8618 67.4792C34.8618 67.4792 34.8052 68.4045 34.4944 69.9957C34.4406 70.2736 34.3787 70.5719 34.3073 70.8888C35.6408 71.7166 36.3757 72.7666 36.3757 72.7666Z" fill="#FFB27D"/>
<path d="M24.2864 86.2731C24.7521 92.5501 24.1393 102.097 24.6677 103.75C25.1239 105.177 30.3214 104.329 32.3961 103.852C33.1638 103.677 34.094 103.424 35.0546 103.127C37.734 102.295 40.6536 101.109 40.9669 100.228C40.9789 100.193 40.9893 100.16 40.9958 100.127C41.0247 99.9991 41.0183 99.8792 40.9901 99.7573C40.8857 99.3088 40.4833 98.8223 40.4359 97.7108C40.383 96.4687 40.3909 95.0071 40.3444 93.4354C40.342 93.258 40.3396 93.0649 40.3203 92.8885L40.3195 92.8251C40.3186 92.791 40.3178 92.7578 40.3171 92.7237C40.2721 90.9706 40.1805 89.1279 40.0745 87.2998C40.0071 86.1512 39.9291 85.0144 39.8392 83.9253C39.6055 81.1134 39.2905 78.6125 38.8737 77.0321C38.1926 74.4551 36.6907 72.7742 35.3237 71.5418L34.3349 70.6926C33.2314 70.9344 31.9269 70.7735 30.7471 70.2139C29.47 69.6065 29.0291 69.1716 28.8066 69.3354C25.8573 71.6149 23.736 78.5989 24.2864 86.2731Z" fill="#A8D29F"/>
<path d="M35.0581 103.127C37.7375 102.295 40.657 101.109 40.9703 100.228C40.9824 100.193 40.9927 100.16 40.9992 100.127C40.9976 100.004 40.9959 99.8802 40.9936 99.7573C40.8891 99.3088 40.4868 98.8223 40.4394 97.7108C40.3864 96.4687 40.3944 95.0071 40.3479 93.4354C40.3454 93.258 40.343 93.0649 40.3237 92.8885L40.3229 92.8251C40.3221 92.791 40.3213 92.7578 40.3205 92.7237L29.4883 78.9001C29.4883 78.9001 22.207 94.0887 35.0581 103.127Z" fill="#82B378"/>
<path d="M34.863 67.4791C34.863 67.4791 34.8064 68.4044 34.4956 69.9956C32.0693 69.2107 30.9691 67.015 30.6016 66.0839C30.6411 65.9279 30.6761 65.768 30.7081 65.6042C31.0487 65.532 31.6913 65.3946 32.3786 65.2493L34.863 67.4791Z" fill="#ED975D"/>
<path d="M35.191 68.8824C35.191 68.8824 29.9001 67.9981 30.5006 64.7055C31.1012 61.4139 30.8228 59.0827 34.2264 59.5078C37.63 59.9339 38.0553 61.3096 38.1216 62.4572C38.188 63.6047 36.5829 69.0277 35.191 68.8824Z" fill="#FFB27D"/>
<path d="M46.7791 97.3739L59.9929 97.3719L63.5836 85.7433L64.0518 85.8885L60.2564 98.1821H46.7734L46.7791 97.3739Z" fill="#1C468A"/>
<path d="M43.2734 97.7101C43.2734 97.7101 47.6039 98.8538 49.2279 98.7339C50.8518 98.6139 52.2024 97.8398 52.4068 97.4361C52.6111 97.0325 53.0403 96.3158 51.9347 96.4484C50.8292 96.58 49.3198 96.816 49.273 96.6034C49.2261 96.3899 50.1743 96.4104 50.1743 96.4104C50.1743 96.4104 50.4608 95.9931 50.0999 95.9775C49.7391 95.9628 48.6865 95.6772 48.2956 95.8722C47.9046 96.0681 47.5437 96.7916 47.258 96.7614C46.9724 96.7312 43.6344 95.255 43.6344 95.255L43.2734 97.7101Z" fill="#FFB27D"/>
<path d="M27.9414 74.7214C27.9414 74.7214 28.4532 92.21 32.2874 94.1971C34.1792 95.1779 42.7216 97.8728 45.2858 98.333C45.2858 98.333 45.9756 97.8894 46.0533 95.7785C46.0533 95.7785 37.2758 91.3978 36.1786 89.4225C34.5456 86.4848 38.6116 78.4303 36.4674 75.6028C34.3231 72.7744 30.3563 71.2212 27.9414 74.7214Z" fill="#A8D29F"/>
<path d="M30.5997 66.084C30.5997 66.084 30.5391 64.955 31.2348 64.3076C31.2348 64.3076 30.9924 63.1756 31.4398 62.9884C31.8869 62.8022 31.9802 63.7538 32.1852 63.6046C32.3902 63.4554 33.3032 62.7456 33.6946 61.7004C34.0859 60.6552 37.6675 61.9208 38.085 62.1099C38.5025 62.2981 39.8442 61.6068 40.1051 61.0472C40.1051 61.0472 39.3597 60.4495 39.0243 60.002C38.6888 59.5535 36.3408 56.53 33.0611 57.388C29.7812 58.247 29.334 59.8148 29.5203 61.1593C29.7067 62.5028 29.2564 65.6335 30.5997 66.084Z" fill="#233862"/>
<path d="M36.6914 108.102C31.7183 108.102 26.7966 107.094 22.2228 105.138L19.2545 103.868C16.5599 102.716 13.5664 104.696 13.5664 107.631V109.106V111.664V113.306C13.5664 113.858 14.0174 114.311 14.5686 114.311H36.6914C37.2426 114.311 37.6936 113.858 37.6936 113.306V109.106C37.6936 108.554 37.2426 108.102 36.6914 108.102Z" fill="#912F2F"/>
<path d="M123.17 112.472C118.511 113.272 113.988 113.447 110.548 113.177C107.072 112.904 105.041 111.829 104.831 110.603C104.641 109.492 105.928 108.218 108.553 106.92C106.037 108.164 104.818 109.565 104.991 110.575C105.183 111.696 107.211 112.49 110.554 112.753C113.982 113.023 118.43 112.731 123.078 111.932C127.727 111.133 132.017 109.922 135.159 108.523C138.224 107.159 139.871 105.733 139.679 104.612C139.476 103.425 137.288 102.281 133.969 101.629C130.196 100.887 125.744 101.136 121.358 101.89C113.124 103.306 109.899 104.852 107.165 106.564C109.911 104.844 113.023 102.895 121.287 101.475C125.69 100.717 130.203 100.711 133.994 101.456C137.383 102.123 139.622 103.321 139.839 104.584C140.049 105.81 138.41 107.267 135.224 108.686C132.071 110.09 127.831 111.67 123.17 112.472Z" fill="#C65447"/>
<path d="M177.445 97.1759C177.445 97.1759 177.175 99.8055 176.879 100.304C176.582 100.801 175.32 102.391 174.783 102.702C174.245 103.014 175.111 100.608 175.001 100.14C174.892 99.6709 174.559 100.994 174.322 101.025C174.085 101.056 174.147 99.8659 174.138 99.4321C174.129 98.9992 175.29 97.9296 175.7 97.0063C176.109 96.0839 177.445 97.1759 177.445 97.1759Z" fill="#FFB27D"/>
<path d="M145.187 72.9157L144.584 71.775C144.584 71.775 144.882 69.7431 142.34 68.457C142.34 68.457 141.411 68.0777 140.887 68.8373C140.403 69.5363 141.808 69.4106 141.732 70.6059C141.657 71.8023 142.223 72.5043 143.013 72.8943L143.665 73.6509L145.187 72.9157Z" fill="#FFB27D"/>
<path d="M169.211 70.1901C169.211 70.1901 167.028 80.9238 155.013 84.4309C151.263 85.5258 142.742 73.157 142.742 73.157C142.742 73.157 143.042 72.0172 144.919 72.2785C144.919 72.2785 153.215 77.7804 154.26 78.3781C155.186 78.9085 161.281 71.5609 164.059 70.3753C166.837 69.1907 169.211 70.1901 169.211 70.1901Z" fill="#4A75CB"/>
<path d="M148.4 69.7946L148.06 72.0166L136.902 70.2996L137.243 68.0776L148.4 69.7946Z" fill="#C65447"/>
<path d="M134.477 68.7895L136.9 70.2998L137.241 68.0778L134.477 68.7895Z" fill="#FFB27D"/>
<path d="M149.579 70.7322L149.472 71.4342C149.406 71.8661 149.002 72.1625 148.571 72.0962L148.055 72.0172L148.395 69.7952L148.957 69.882C149.363 69.9444 149.642 70.3247 149.579 70.7322Z" fill="#FFB27D"/>
<path d="M183.556 137.667C183.556 137.667 185.046 139.029 184.755 139.998C184.465 140.966 183.12 141.611 182.938 142.795C182.756 143.978 182.029 144.623 181.375 144.623C180.721 144.623 178.255 144.623 178.255 144.623C178.255 144.623 177.773 143.79 178.936 143.54C180.1 143.289 180.539 141.898 180.466 140.608C180.394 139.317 180.575 137.595 180.575 137.595L183.047 137.022L183.556 137.667Z" fill="#233862"/>
<path d="M165.269 141.191C165.269 141.191 165.537 144.293 164.883 144.615L156.508 144.598C156.508 144.598 156.508 143.63 157.853 143.414C159.198 143.2 161.561 142.411 161.961 140.654C162.362 138.897 165.269 141.191 165.269 141.191Z" fill="#233862"/>
<path d="M158.199 97.3891C158.199 97.3891 158.64 102.824 159.16 109.358C159.866 118.234 160.713 129.136 160.798 131.201C160.943 134.787 161.525 140.524 161.525 140.524C161.525 140.524 162.906 141.887 165.67 141.313C165.67 141.313 168.132 133.123 168.835 124.459C168.847 124.317 168.857 124.173 168.868 124.03C169.522 115.21 170.54 96.6355 170.54 96.6355L158.199 97.3891Z" fill="#2B478B"/>
<path d="M158.199 97.3895C158.199 97.3895 158.64 102.824 159.16 109.359L168.835 124.459C168.847 124.317 168.857 124.174 168.868 124.03C169.522 115.211 170.54 96.6358 170.54 96.6358L158.199 97.3895Z" fill="#233862"/>
<path d="M160.215 98.0346C160.215 98.0346 168.176 117.72 173.411 126.971C178.646 136.221 180.282 138.803 180.282 138.803C180.282 138.803 183.281 137.62 183.553 136.813C183.553 136.813 181.551 118.953 178.046 114.6C176.065 112.14 173.738 104.757 173.629 102.175C173.52 99.5936 172.92 94.4846 172.92 94.4846L160.215 98.0346Z" fill="#2B478B"/>
<path d="M170.692 67.6978C170.692 67.6978 165.304 70.302 162.199 69.3358C162.199 69.3358 162.963 68.3696 164.302 67.651C164.194 67.027 164.11 66.4849 164.062 66.0257C163.931 64.9649 163.931 64.3643 163.931 64.3643L166.009 62.7263L167.98 61.1594C167.825 65.5655 170.692 67.6978 170.692 67.6978Z" fill="#FFB27D"/>
<path d="M173.528 95.4926C173.54 95.8222 172.835 96.1995 172.525 96.3409C170.22 97.3539 168.07 98.0607 165.634 98.2967C162.755 98.5911 159.351 97.9428 158.181 97.9662C158.061 97.9662 157.953 97.9194 157.858 97.8375C157.774 97.778 157.715 94.3031 157.774 89.9322C157.774 89.7557 157.774 89.5783 157.787 89.4018V89.3433C157.81 87.6351 157.87 85.844 157.953 84.0539C158.121 80.1188 158.431 76.3251 158.957 74.2279C159.59 71.7544 161.023 70.1164 162.325 68.9269L163.4 67.984C164.475 68.1966 165.609 68.1381 166.744 67.5843C167.986 66.9827 169.325 66.3353 169.54 66.5001C171.163 67.6896 172.262 70.364 172.848 73.7804C173.182 75.7479 173.349 77.9514 173.338 80.2602C173.338 81.1085 173.313 81.9801 173.266 82.8401C172.979 87.5054 173.266 91.5575 173.433 93.9024C173.481 94.5859 173.517 95.1153 173.528 95.4926Z" fill="#699DEE"/>
<path d="M173.434 95.2783C154.571 95.2403 169.956 74.7751 169.956 74.7751L173.011 73.7806C173.253 75.8827 173.374 78.2363 173.365 80.7031C173.365 81.6098 173.348 82.541 173.314 83.4594C173.106 88.4436 173.314 92.7736 173.434 95.2783Z" fill="#4A75CB"/>
<path d="M168.015 62.8439C168.015 62.8439 166.653 65.3302 164.061 66.0254C163.93 64.9646 163.93 64.364 163.93 64.364L166.008 62.7259L168.015 62.8439Z" fill="#ED985F"/>
<path d="M162.983 64.2919C162.983 64.2919 168.122 65.1343 168.605 61.9694C169.086 58.8056 170.075 56.7825 166.815 56.1117C163.554 55.4399 162.731 56.5524 162.309 57.5703C161.888 58.5882 161.659 63.9916 162.983 64.2919Z" fill="#FFB27D"/>
<path d="M170.473 55.7323C170.52 55.6787 170.627 55.6358 170.866 55.6221C170.866 55.6221 170.674 55.5022 170.419 55.4964C170.369 55.1629 170.192 54.5721 169.618 54.4287C169.618 54.4287 169.927 54.5935 169.967 54.9474C169.303 54.2649 167.881 53.7677 163.943 54.0797C158.752 54.4892 160.463 57.8188 161.135 58.2156C161.807 58.6125 163.498 57.5244 164.75 57.6238C166.002 57.7233 166.24 59.5358 166.665 59.7844C167.09 60.0331 166.922 59.5933 167.497 59.333C168.072 59.0727 168.126 60.0262 167.961 60.6463C167.794 61.2664 168.584 62.0845 168.584 62.0845C168.584 62.0845 168.584 62.0845 169.382 61.2245C170.18 60.3636 170.931 56.7171 170.569 55.94C170.537 55.8717 170.505 55.8025 170.473 55.7323Z" fill="#2C3A64"/>
<path d="M169.535 66.474C169.535 66.474 172.787 68.0165 174.345 70.3877C176.764 74.0654 179.566 87.4687 179.618 88.7099C179.67 89.9511 177.572 98.7144 177.572 98.7144C177.572 98.7144 175.445 98.574 174.896 97.4976C174.896 97.4976 175.321 88.4944 175.052 87.9162C174.782 87.3371 166.183 75.8389 167.15 73.3848C168.117 70.9307 169.535 66.474 169.535 66.474Z" fill="#699DEE"/>
<path d="M144.57 71.7213C144.57 71.7213 144.747 71.0213 144.263 70.7073C143.778 70.3924 143.333 69.5373 143.129 69.6533C142.705 69.8932 143.36 70.64 143.241 71.5702C143.199 71.8959 143.956 72.75 144.57 71.7213Z" fill="#FFB27D"/>
<path d="M0.194569 145.016H218.303C218.41 145.016 218.497 144.903 218.497 144.765C218.497 144.627 218.41 144.514 218.303 144.514H0.194569C0.0875026 144.514 0 144.627 0 144.765C0 144.903 0.0875026 145.016 0.194569 145.016Z" fill="#283250"/>
</svg>
