<svg width="67" height="49" viewBox="0 0 67 49" fill="none" xmlns="http://www.w3.org/2000/svg">
<path d="M34.6324 0.917883C40.2171 0.917883 44.7427 3.9041 44.7427 7.58819C44.7427 9.20728 43.8679 10.6904 42.4143 11.8457L44.788 17.0461L39.472 13.4447C38.0351 13.9633 36.3866 14.2578 34.6324 14.2578C29.0493 14.2578 24.5229 11.2723 24.5229 7.58819C24.5229 3.9041 29.0493 0.917883 34.6324 0.917883Z" fill="#DADADA"/>
<path d="M32.3356 1.90735e-06C26.7516 1.90735e-06 22.2253 2.98623 22.2253 6.66956C22.2253 8.28864 23.1008 9.77247 24.5545 10.9279L21.7061 16.8315L27.4959 12.5269C28.9329 13.0447 30.5821 13.3399 32.3356 13.3399C37.9187 13.3399 42.4458 10.3537 42.4458 6.66956C42.4458 2.98623 37.9187 1.90735e-06 32.3356 1.90735e-06Z" fill="#EDEDED"/>
<path d="M29.8061 7.57231C29.8061 7.95873 29.4832 8.27173 29.0856 8.27173C28.688 8.27173 28.366 7.95873 28.366 7.57231C28.366 7.18589 28.688 6.87212 29.0856 6.87212C29.4832 6.87212 29.8061 7.18589 29.8061 7.57231Z" fill="#3C3C3B"/>
<path d="M32.7952 7.57231C32.7952 7.95873 32.4731 8.27173 32.0747 8.27173C31.6771 8.27173 31.3542 7.95873 31.3542 7.57231C31.3542 7.18589 31.6771 6.87212 32.0747 6.87212C32.4731 6.87212 32.7952 7.18589 32.7952 7.57231Z" fill="#3C3C3B"/>
<path d="M35.7851 7.57231C35.7851 7.95873 35.4623 8.27173 35.0647 8.27173C34.6671 8.27173 34.3442 7.95873 34.3442 7.57231C34.3442 7.18589 34.6671 6.87212 35.0647 6.87212C35.4623 6.87212 35.7851 7.18589 35.7851 7.57231Z" fill="#3C3C3B"/>
<path d="M17.6356 47.7271L17.5242 29.4124C14.5613 29.3746 14.0587 29.3699 13.9713 29.3699C13.8838 29.3699 13.3804 29.3746 10.4175 29.4124L10.3077 47.7271H17.6356Z" fill="#F2C28D"/>
<path d="M10.3824 48.572L8.67908 33.6919L10.3872 32.4639L13.9704 34.9624L17.5528 32.4639L19.2609 33.6919L17.5575 48.572H10.3824Z" fill="white"/>
<path d="M13.9694 48.5651L9.6729 32.9422L8.67809 33.6919L3.02576 36.1727C1.21031 36.7508 0 38.383 0 40.2332V48.572H27.938V40.2332C27.938 38.383 26.7277 36.7508 24.9122 36.1727L19.2599 33.6919L18.2651 32.9422L13.9694 48.5651Z" fill="#61554E"/>
<path d="M13.1141 37.3025L12.839 34.8828L13.8823 34.9345L13.969 34.9299L14.0548 34.9345L15.0982 34.8828L14.823 37.3025H13.1141Z" fill="#B82922"/>
<path d="M11.7261 37.3025L8.90942 33.3464L9.67283 32.9422L10.3861 32.4638L13.9693 34.9623L11.7261 37.3025Z" fill="#F6F6F6"/>
<path d="M16.2127 37.3025L19.0293 33.3464L18.2659 32.9422L17.5526 32.4638L13.9702 34.9623L16.2127 37.3025Z" fill="#F6F6F6"/>
<path d="M13.9713 46.1482L12.4779 45.6072L13.1165 37.3023H14.8254L15.4639 45.6072L13.9713 46.1482Z" fill="#C92D25"/>
<path d="M13.9686 45.9189L9.67213 32.9422L6.22888 34.7669L7.03919 37.7609L8.94054 37.5847L7.3716 38.6921L13.9662 48.572L13.9686 48.5589L13.9702 48.572L20.5649 38.6921L18.9959 37.5847L20.898 37.7609L21.7084 34.7669L18.2643 32.9422L13.9686 45.9189Z" fill="#A18D81"/>
<path d="M21.035 21.3488C20.9086 21.3279 20.7805 21.3449 20.6557 21.3905V18.4422C20.6557 16.0124 18.6279 14.0424 16.1286 14.0424H11.8043C9.30414 14.0424 7.27715 16.0124 7.27715 18.4422V21.3905C7.1523 21.3449 7.02506 21.3279 6.89783 21.3488C6.23224 21.4539 6.12013 22.4957 6.31496 23.6642C6.47161 24.6117 6.69268 25.3444 7.22387 25.5391C7.34793 25.587 7.47834 25.6025 7.60239 25.5816L7.71451 25.5484C8.00794 26.8939 8.3984 27.9588 8.89779 28.6706C9.48783 29.513 9.94348 30.1467 10.3657 30.6228C11.3248 31.7032 12.1168 31.9675 13.9346 31.9675H13.9601H13.9664H13.9728H13.9982C16.0363 31.9675 16.3878 31.9513 17.5663 30.6228C17.9902 30.1467 18.445 29.513 19.0351 28.6706C19.5345 27.9588 19.9249 26.8939 20.2183 25.5484L20.3305 25.5816C20.4545 25.6025 20.5849 25.587 20.7098 25.5391C21.241 25.3444 21.4612 24.6117 21.6179 23.6642C21.8127 22.4957 21.7014 21.4539 21.035 21.3488Z" fill="#FFD2A1"/>
<path d="M13.9669 12.843H13.9605C11.0723 12.843 9.62746 13.3253 8.18257 14.8145C7.18379 15.8439 6.63271 17.2157 6.68758 18.6316L6.8983 21.3488C7.26171 21.2909 7.63546 21.522 7.93286 21.9377V18.79C7.93286 17.4105 9.08194 16.2945 10.5014 16.2945H17.4332C18.8527 16.2945 20.0001 17.4105 20.0001 18.79V21.9377C20.2983 21.522 20.6729 21.2909 21.0355 21.3488L21.2462 18.6316C21.3011 17.2157 20.75 15.8439 19.752 14.8145C18.3063 13.3253 16.8622 12.843 13.9733 12.843H13.9669Z" fill="#3C3C3B"/>
<path d="M20.967 19.1595C16.9735 19.0691 12.4408 19.9702 8.83856 17.4516C7.45888 16.7011 8.45208 15.3587 8.45208 15.3587H19.2852L20.967 19.1595Z" fill="#3C3C3B"/>
<path d="M56.1932 47.7271L56.0826 29.4124C53.1205 29.3746 52.6179 29.3699 52.5289 29.3699C52.4414 29.3699 51.9388 29.3746 48.9767 29.4124L48.8654 47.7271H56.1932Z" fill="#E5AE71"/>
<path d="M48.9427 48.572L47.2385 33.6919L48.9466 32.4639L52.529 34.9624L56.1122 32.4639L57.8211 33.6919L56.117 48.572H48.9427Z" fill="white"/>
<path d="M52.528 48.5651L48.2323 32.9422L47.2375 33.6919L41.586 36.1727C39.7698 36.7508 38.5594 38.383 38.5594 40.2332V48.572H66.4982V40.2332C66.4982 38.383 65.2871 36.7508 63.4717 36.1727L57.8201 33.6919L56.8253 32.9422L52.528 48.5651Z" fill="#3C3C3B"/>
<path d="M51.6736 37.3025L51.3984 34.8828L52.4418 34.9345L52.5276 34.9299L52.6151 34.9345L53.6576 34.8828L53.3833 37.3025H51.6736Z" fill="#00918B"/>
<path d="M50.2855 37.3025L47.4689 33.3464L48.2323 32.9422L48.9456 32.4638L52.528 34.9623L50.2855 37.3025Z" fill="#F6F6F6"/>
<path d="M54.7719 37.3025L57.5885 33.3464L56.8251 32.9422L56.111 32.4638L52.5278 34.9623L54.7719 37.3025Z" fill="#F6F6F6"/>
<path d="M52.5263 46.1482L51.0337 45.6072L51.6722 37.3023H53.3819L54.0197 45.6072L52.5263 46.1482Z" fill="#00A19A"/>
<path d="M52.5262 45.9189L48.2305 32.9422L44.7865 34.7669L45.5968 37.7609L47.4989 37.5847L45.93 38.6921L52.5246 48.572L52.5262 48.5589L52.5286 48.572L59.1233 38.6921L57.5543 37.5847L59.4557 37.7609L60.2668 34.7669L56.8235 32.9422L52.5262 45.9189Z" fill="#575756"/>
<path d="M59.5933 21.3488C59.4668 21.3279 59.3396 21.3449 59.2139 21.3905V18.4422C59.2139 16.0124 57.187 14.0424 54.6868 14.0424H50.3633C47.8624 14.0424 45.8354 16.0124 45.8354 18.4422V21.3905C45.7106 21.3449 45.5825 21.3279 45.4569 21.3488C44.7905 21.4539 44.6776 22.4957 44.8724 23.6642C45.0306 24.6117 45.2509 25.3444 45.7813 25.5391C45.9062 25.587 46.0358 25.6025 46.1606 25.5816L46.272 25.5484C46.5662 26.8939 46.9566 27.9588 47.4552 28.6706C48.0469 29.513 48.5017 30.1467 48.924 30.6228C49.883 31.7032 50.675 31.9675 52.4929 31.9675H52.5191H52.5247H52.5302H52.5565C54.5938 31.9675 54.9461 31.9513 56.1254 30.6228C56.5484 30.1467 57.0033 29.513 57.5933 28.6706C58.0927 27.9588 58.4832 26.8939 58.7774 25.5484L58.8887 25.5816C59.0135 25.6025 59.144 25.587 59.268 25.5391C59.7992 25.3444 60.0195 24.6117 60.1761 23.6642C60.3718 22.4957 60.2596 21.4539 59.5933 21.3488Z" fill="#F2BD83"/>
<path d="M52.5262 12.843H52.5207C49.6317 12.843 48.186 13.3253 46.7419 14.8145C45.7431 15.8439 45.1929 17.2157 45.2469 18.6316L45.4584 21.3488C45.8211 21.2909 46.1948 21.522 46.493 21.9377V18.79C46.493 17.4105 47.6413 16.2945 49.0607 16.2945H55.9925C57.4112 16.2945 58.5595 17.4105 58.5595 18.79V21.9377C58.8577 21.522 59.2314 21.2909 59.5948 21.3488L59.8063 18.6316C59.8596 17.2157 59.3093 15.8439 58.3106 14.8145C56.8657 13.3253 55.4216 12.843 52.5318 12.843H52.5262Z" fill="#706F6F"/>
</svg>
