<svg width="63" height="65" viewBox="0 0 63 65" fill="none" xmlns="http://www.w3.org/2000/svg">
<path d="M31.4634 43.501H0V1.52588e-05H31.4634V43.501Z" fill="#EDEDED"/>
<path d="M28.8028 11.1758H21.866V4.23887H28.8028V11.1758Z" fill="white"/>
<path d="M28.8028 20.9749H21.866V14.0383H28.8028V20.9749Z" fill="white"/>
<path d="M28.8028 30.7749H21.866V23.838H28.8028V30.7749Z" fill="white"/>
<path d="M28.8028 40.4304H21.866V33.4935H28.8028V40.4304Z" fill="white"/>
<path d="M27.3213 12.74L25.3607 17.3913L23.992 14.7538H22.4553L25.4898 20.5979L28.8017 12.74H27.3213Z" fill="#00A19A"/>
<path d="M52.3944 25.4351L45.4631 19.1606L46.8143 26.1753L52.3944 25.4351Z" fill="#F5C08C"/>
<path d="M40.9335 34.4247L43.3815 32.4647C44.4348 31.6223 44.6749 30.0881 43.9189 29.0387L43.8911 29.0006C43.1359 27.9514 41.6697 27.7833 40.6165 28.6257L38.1692 30.5865C36.1222 32.3539 38.3071 35.9772 40.9335 34.4247Z" fill="#DEAA78"/>
<path d="M42.5012 37.8886L44.3945 36.2203C45.2092 35.5023 45.2932 34.1882 44.5823 33.2833L44.5562 33.2508C43.8461 32.3472 42.6098 32.1952 41.7959 32.9131L39.9026 34.5814C37.9958 36.1878 40.3076 39.4767 42.5012 37.8886Z" fill="#DEAA78"/>
<path d="M39.1219 30.3448L42.6961 27.2636C43.7501 26.4204 43.7874 25.7062 43.0321 24.6571L43.2065 23.7986C42.4512 22.7485 40.9843 22.5823 39.9318 23.4246L36.3568 26.5076C34.3098 28.2741 36.4963 31.8973 39.1219 30.3448Z" fill="#E6B07C"/>
<path d="M37.6142 24.545C38.0675 24.5116 42.0182 23.716 42.0182 23.716C43.3361 23.4924 44.2459 22.2776 44.0502 21.0031L44.0438 20.9573C43.8481 19.6822 45.6796 18.3492 44.3616 18.5727L36.8994 19.8834C33.3188 20.7093 34.2833 25.2359 37.6142 24.545Z" fill="#F5C08C"/>
<path d="M47.9535 45.5625C48.2776 45.4492 48.6334 45.6204 48.7468 45.9455C48.8601 46.2696 48.6889 46.6238 48.3648 46.738C48.0398 46.8513 47.6848 46.6801 47.5715 46.356C47.4581 46.0309 47.6293 45.6759 47.9535 45.5625Z" fill="white"/>
<path d="M48.5918 47.3876C48.9159 47.2749 49.271 47.446 49.3843 47.7702C49.4976 48.0943 49.3272 48.4494 49.0015 48.5627C48.6774 48.676 48.3223 48.5048 48.209 48.1801C48.0965 47.8559 48.2677 47.5018 48.5918 47.3876Z" fill="white"/>
<path d="M49.239 49.2413C49.5632 49.128 49.919 49.2992 50.0315 49.6239C50.1449 49.9481 49.9737 50.3031 49.6495 50.4165C49.3254 50.5298 48.9696 50.3585 48.857 50.0338C48.7429 49.7097 48.9141 49.3546 49.239 49.2413Z" fill="white"/>
<path d="M27.9671 19.9508V19.9381C27.9917 19.5759 28.3586 19.3056 28.7866 19.3341L29.5648 19.3855C29.9928 19.4134 30.3201 19.7304 30.2963 20.0926L30.2955 20.1059C30.2717 20.469 29.9048 20.7383 29.4769 20.7099L28.6978 20.6585C28.2699 20.6306 27.9425 20.313 27.9671 19.9508Z" fill="#3C3C3B"/>
<path d="M61.2362 23.2671C61.2228 23.2671 61.2085 23.2661 61.195 23.2655L59.2668 23.1377L59.4206 20.8292L61.3496 20.9576C61.7807 20.9862 62.1009 21.4728 62.0628 22.0442L62.047 22.2836C62.0097 22.8358 61.6515 23.2671 61.2362 23.2671Z" fill="#D2D2D1"/>
<path d="M29.5439 20.0174L29.5463 19.9808C29.6121 18.9871 30.4711 18.2357 31.4649 18.3014L45.8577 19.2595L45.6152 22.8933L31.2224 21.9358C30.2286 21.8692 29.4773 21.0102 29.5439 20.0174Z" fill="#E6332A"/>
<path d="M47.0812 23.2741L47.3601 19.0784L58.6423 19.8298C59.1067 19.8607 59.4594 20.2626 59.4285 20.7276L59.2613 23.2385C59.2303 23.7035 58.8277 24.0555 58.3625 24.0245L47.0812 23.2741Z" fill="#E6332A"/>
<path d="M45.4978 22.8854L45.7395 19.2519L47.3594 19.0782L47.0804 23.2739L45.4978 22.8854Z" fill="#F9B233"/>
<path d="M60.4263 19.9795C60.4517 19.5991 60.3209 19.2242 60.0633 18.9437C59.8058 18.6617 59.4443 18.4976 59.0639 18.4887L48.9682 18.2519L48.969 18.2432C48.9912 17.9079 48.7376 17.6179 48.4015 17.5955L47.9403 17.564C47.6764 17.5473 47.4489 17.7463 47.4307 18.0101L47.4165 18.2153L47.3816 18.7568L48.9278 18.8598L59.144 19.5406C59.3429 19.5533 59.4943 19.726 59.4808 19.9248L59.2367 23.5988L60.1806 23.6616L60.4263 19.9795Z" fill="#F9B233"/>
<path d="M53.5147 40.0346L53.5115 40.0361C53.5115 40.0361 56.8345 29.0543 52.3933 25.4351L50.011 25.0206C48.1938 24.7044 46.6904 23.2365 46.2284 21.3252C46.1666 21.0732 46.1135 20.8537 46.0715 20.6856L45.7719 19.4634C45.2972 17.5116 44.9786 16.1491 44.9176 15.7491C44.7099 14.4146 43.564 13.4134 42.3134 13.5221L42.265 13.5283C41.0145 13.6354 40.138 14.8907 40.3622 16.3268C40.8354 19.4055 41.4725 22.4616 42.2706 25.4771L42.2738 25.4889C42.399 25.9747 42.1668 26.3963 41.9655 26.8362C40.7442 29.4957 40.6848 32.073 41.1944 35.6148C41.9758 41.0434 44.8843 42.7808 44.8843 42.7808L47.6311 51.4136L56.2615 48.6682L53.5147 40.0346Z" fill="#FFCF9F"/>
<path d="M45.898 50.2415L56.9218 46.8092L54.9421 40.4478L43.9167 43.8809L45.898 50.2415Z" fill="#EDEDED"/>
<path d="M49.7227 64.5129L62.0953 60.5758L57.2063 45.2107L44.8345 49.1469L49.7227 64.5129Z" fill="#3C3C3B"/>
<path d="M48.7563 54.4792C48.3624 54.4727 48.0391 54.7875 48.0335 55.1804C48.0272 55.5745 48.3418 55.8986 48.7357 55.9032C49.1296 55.9097 49.4529 55.5958 49.4585 55.2018C49.464 54.8089 49.1494 54.4838 48.7563 54.4792Z" fill="#EDEDED"/>
<path d="M48.056 52.2768C47.6621 52.2711 47.3388 52.5857 47.3332 52.9795C47.3269 53.3726 47.6423 53.6968 48.0354 53.7023C48.4293 53.7079 48.7526 53.3933 48.7582 53.0002C48.7645 52.6064 48.4491 52.2829 48.056 52.2768Z" fill="#EDEDED"/>
<path d="M47.3602 50.0934C46.9671 50.0884 46.6429 50.4023 46.6374 50.7961C46.6319 51.1893 46.9465 51.5134 47.3396 51.519C47.7334 51.5245 48.0568 51.2106 48.0631 50.8169C48.0687 50.4231 47.7541 50.0996 47.3602 50.0934Z" fill="#EDEDED"/>
<path d="M9.63706 11.1758V9.52642C9.63706 9.04164 9.32798 8.61344 8.86515 8.46144L8.04887 8.09277L7.36571 7.72132L7.17076 7.61417L6.98927 7.48911L6.98689 7.49125L6.98374 7.0167L6.99324 7.00647C7.10102 6.8811 7.21672 6.71483 7.3673 6.49443C7.4941 6.30748 7.59396 6.02852 7.66925 5.67561L7.697 5.6837L7.79368 5.67348C7.9292 5.62173 7.98625 5.42923 8.02588 5.18125C8.07581 4.87447 8.04727 4.60113 7.87767 4.57324L7.93078 3.86093C7.94505 3.49003 7.80477 3.13032 7.55037 2.86007C7.18186 2.46936 6.81333 2.34248 6.0763 2.34248H6.07394C5.3377 2.34248 4.96918 2.46936 4.60066 2.86007C4.34626 3.13032 4.20599 3.49003 4.22025 3.86093L4.27334 4.57324C4.10375 4.60113 4.07523 4.87447 4.12515 5.18125C4.16478 5.42923 4.22183 5.62173 4.35656 5.67348L4.45324 5.6837L4.48178 5.67561C4.55628 6.02852 4.65535 6.30748 4.78373 6.49443C4.93352 6.71483 5.05001 6.8811 5.157 7.00647L5.16809 7.01765L5.16571 7.49125L5.16255 7.48911L4.98107 7.61417L4.78689 7.72132L4.10296 8.09277L3.28667 8.46144C2.82385 8.61344 2.51477 9.04164 2.51477 9.52642V11.1758H9.63706Z" fill="#E6332A"/>
<path d="M9.63706 20.9749V19.3264C9.63706 18.8416 9.32798 18.4135 8.86515 18.2615L8.04887 17.8927L7.36571 17.5203L7.17076 17.4141L6.98927 17.289L6.98689 17.2906L6.98374 16.8166L6.99324 16.8055C7.10102 16.681 7.21672 16.5149 7.3673 16.2935C7.4941 16.1074 7.59396 15.8276 7.66925 15.4749L7.697 15.4836L7.79368 15.4725C7.9292 15.4211 7.98625 15.2292 8.02588 14.9812C8.07581 14.6744 8.04727 14.4011 7.87767 14.3732L7.93078 13.6609C7.94505 13.289 7.80477 12.9303 7.55037 12.66C7.18186 12.2693 6.81333 12.1424 6.0763 12.1424H6.07394C5.3377 12.1424 4.96918 12.2693 4.60066 12.66C4.34626 12.9303 4.20599 13.289 4.22025 13.6609L4.27334 14.3732C4.10375 14.4011 4.07523 14.6744 4.12515 14.9812C4.16478 15.2292 4.22183 15.4211 4.35656 15.4725L4.45324 15.4836L4.48178 15.4749C4.55628 15.8276 4.65535 16.1074 4.78373 16.2935C4.93352 16.5149 5.05001 16.681 5.157 16.8055L5.16809 16.8173L5.16571 17.2906L5.16255 17.289L4.98107 17.4141L4.78689 17.5203L4.10296 17.8927L3.28667 18.2615C2.82385 18.4135 2.51477 18.8416 2.51477 19.3264V20.9749H9.63706Z" fill="#00ABA3"/>
<path d="M9.63706 30.7749V29.1264C9.63706 28.6416 9.32798 28.2135 8.86515 28.0615L8.04887 27.6928L7.36571 27.3204L7.17076 27.2142L6.98927 27.0882L6.98689 27.0907L6.98374 26.6158L6.99324 26.6065C7.10102 26.4805 7.21672 26.3146 7.3673 26.0936C7.4941 25.9075 7.59396 25.6276 7.66925 25.2751L7.697 25.2837L7.79368 25.2725C7.9292 25.2218 7.98625 25.0292 8.02588 24.7803C8.07581 24.4738 8.04727 24.2011 7.87767 24.1732L7.93078 23.4609C7.94505 23.0892 7.80477 22.7294 7.55037 22.4591C7.18186 22.0685 6.81333 21.9425 6.0763 21.9425H6.07394C5.3377 21.9425 4.96918 22.0685 4.60066 22.4591C4.34626 22.7294 4.20599 23.0892 4.22025 23.4609L4.27334 24.1732C4.10375 24.2011 4.07523 24.4738 4.12515 24.7803C4.16478 25.0292 4.22183 25.2218 4.35656 25.2725L4.45324 25.2837L4.48178 25.2751C4.55628 25.6276 4.65535 25.9075 4.78373 26.0936C4.93352 26.3146 5.05001 26.4805 5.157 26.6065L5.16809 26.6167L5.16571 27.0907L5.16255 27.0882L4.98107 27.2142L4.78689 27.3204L4.10296 27.6928L3.28667 28.0615C2.82385 28.2135 2.51477 28.6416 2.51477 29.1264V30.7749H9.63706Z" fill="#D1A772"/>
<path d="M9.63706 40.4304V38.7819C9.63706 38.2968 9.32798 37.869 8.86515 37.7167L8.04887 37.3474L7.36571 36.9759L7.17076 36.8697L6.98927 36.7443L6.98689 36.7459L6.98374 36.2719L6.99324 36.2611C7.10102 36.1366 7.21672 35.9701 7.3673 35.7491C7.4941 35.562 7.59396 35.2828 7.66925 34.9303L7.697 34.9383L7.79368 34.928C7.9292 34.8764 7.98625 34.6847 8.02588 34.4364C8.07581 34.13 8.04727 33.8563 7.87767 33.8287L7.93078 33.1161C7.94505 32.7447 7.80477 32.3846 7.55037 32.1146C7.18186 31.7246 6.81333 31.5977 6.0763 31.5977H6.07394C5.3377 31.5977 4.96918 31.7246 4.60066 32.1146C4.34626 32.3846 4.20599 32.7447 4.22025 33.1161L4.27334 33.8287C4.10375 33.8563 4.07523 34.13 4.12515 34.4364C4.16478 34.6847 4.22183 34.8764 4.35656 34.928L4.45324 34.9383L4.48178 34.9303C4.55628 35.2828 4.65535 35.562 4.78373 35.7491C4.93352 35.9701 5.05001 36.1366 5.157 36.2611L5.16809 36.2728L5.16571 36.7459L5.16255 36.7443L4.98107 36.8697L4.78689 36.9759L4.10296 37.3474L3.28667 37.7167C2.82385 37.869 2.51477 38.2968 2.51477 38.7819V40.4304H9.63706Z" fill="#205887"/>
<path d="M11.0162 5.39478H20.9226V4.2385H11.0162V5.39478Z" fill="#B2B2B2"/>
<path d="M11.0162 7.32227H20.9226V6.16512H11.0162V7.32227Z" fill="#B2B2B2"/>
<path d="M11.0162 9.24829H20.9226V8.09115H11.0162V9.24829Z" fill="#B2B2B2"/>
<path d="M11.0162 11.1758H20.9226V10.0186H11.0162V11.1758Z" fill="#B2B2B2"/>
<path d="M11.0162 15.1948H20.9226V14.038H11.0162V15.1948Z" fill="#B2B2B2"/>
<path d="M11.0162 17.1218H20.9226V15.9652H11.0162V17.1218Z" fill="#B2B2B2"/>
<path d="M11.0162 19.0488H20.9226V17.8919H11.0162V19.0488Z" fill="#B2B2B2"/>
<path d="M11.0162 20.9749H20.9226V19.8179H11.0162V20.9749Z" fill="#B2B2B2"/>
<path d="M11.0162 24.9946H20.9226V23.838H11.0162V24.9946Z" fill="#B2B2B2"/>
<path d="M11.0162 26.9219H20.9226V25.765H11.0162V26.9219Z" fill="#B2B2B2"/>
<path d="M11.0162 28.8486H20.9226V27.6924H11.0162V28.8486Z" fill="#B2B2B2"/>
<path d="M11.0162 30.7749H20.9226V29.618H11.0162V30.7749Z" fill="#B2B2B2"/>
<path d="M11.0162 34.7957H20.9226V33.6384H11.0162V34.7957Z" fill="#B2B2B2"/>
<path d="M11.0162 36.7212H20.9226V35.5649H11.0162V36.7212Z" fill="#B2B2B2"/>
<path d="M11.0162 38.6484H20.9226V37.4912H11.0162V38.6484Z" fill="#B2B2B2"/>
<path d="M11.0162 40.5752H20.9226V39.4189H11.0162V40.5752Z" fill="#B2B2B2"/>
</svg>
