<svg width="61" height="60" viewBox="0 0 61 60" fill="none" xmlns="http://www.w3.org/2000/svg">
<path d="M45.4632 58.0653C45.4632 59.125 38.6464 59.9844 30.2357 59.9844C21.8251 59.9844 15.0074 59.125 15.0074 58.0653C15.0074 57.0057 21.8251 56.1463 30.2357 56.1463C38.6464 56.1463 45.4632 57.0057 45.4632 58.0653Z" fill="url(#paint0_radial_1648_8116)"/>
<path d="M8.44074 20.2722L7.83881 18.7558L52.4411 1.07802L53.0421 2.59543L8.44074 20.2722Z" fill="#403F41"/>
<path d="M31.257 56.4341H29.6254V10.6753H31.257V56.4341Z" fill="#403F41"/>
<path d="M38.3612 58.0647H22.5173V53.1699H38.3612V58.0647Z" fill="#B6B6B1"/>
<path d="M15.4912 49.2947L7.74637 19.6179L8.5341 19.4108L16.2799 49.0885L15.4912 49.2947Z" fill="#403F41"/>
<path d="M0.788725 49.2947L0 49.0885L7.74582 19.4108L8.53355 19.6179L0.788725 49.2947Z" fill="#403F41"/>
<path d="M8.54892 49.7021H7.73215V19.5134H8.54892V49.7021Z" fill="#403F41"/>
<path d="M60.0937 31.6169L52.3488 1.93819L53.1366 1.73304L60.8824 31.4098L60.0937 31.6169Z" fill="#403F41"/>
<path d="M45.3912 31.6169L44.6025 31.4098L52.3483 1.73304L53.136 1.93819L45.3912 31.6169Z" fill="#403F41"/>
<path d="M53.1514 32.0244H52.3346V1.83663H53.1514V32.0244Z" fill="#403F41"/>
<path d="M33.9765 10.6753C33.9765 12.6272 32.3932 14.2104 30.4403 14.2104C28.4874 14.2104 26.9052 12.6272 26.9052 10.6753C26.9052 8.72334 28.4874 7.13915 30.4403 7.13915C32.3932 7.13915 33.9765 8.72334 33.9765 10.6753Z" fill="#B6B6B1"/>
<path d="M9.97608 19.5136C9.97608 20.5268 9.1535 21.3503 8.13931 21.3503C7.12608 21.3503 6.30447 20.5268 6.30447 19.5136C6.30447 18.4994 7.12608 17.6787 8.13931 17.6787C9.1535 17.6787 9.97608 18.4994 9.97608 19.5136Z" fill="#B6B6B1"/>
<path d="M54.5786 1.83678C54.5786 2.85001 53.756 3.67261 52.7428 3.67261C51.7295 3.67261 50.907 2.85001 50.907 1.83678C50.907 0.822584 51.7295 4.52995e-06 52.7428 4.52995e-06C53.756 4.52995e-06 54.5786 0.822584 54.5786 1.83678Z" fill="#B6B6B1"/>
<path d="M0.0391235 48.8352C0.661382 51.6077 4.04654 53.731 8.14009 53.731C12.2346 53.731 15.6217 51.6077 16.243 48.8352H0.0391235Z" fill="#B6B6B1"/>
<path d="M44.6398 31.1574C45.2611 33.93 48.6472 36.0522 52.7418 36.0522C56.8353 36.0522 60.2214 33.93 60.8437 31.1574H44.6398Z" fill="#B6B6B1"/>
<path d="M38.3615 58.0647H30.2334V53.1699H38.3615V58.0647Z" fill="#C8C7C5"/>
<path d="M30.4411 7.13915C30.4091 7.13915 30.3791 7.14787 30.3472 7.14883V14.2008C30.3791 14.2017 30.4091 14.2104 30.4411 14.2104C32.394 14.2104 33.9772 12.6272 33.9772 10.6753C33.9772 8.72334 32.394 7.13915 30.4411 7.13915Z" fill="#C8C7C5"/>
<path d="M52.6795 36.0503C52.7018 36.0513 52.7221 36.0522 52.7434 36.0522C56.8369 36.0522 60.2231 33.93 60.8453 31.1574H52.6795V36.0503Z" fill="#C8C7C5"/>
<path d="M8.15173 53.729C8.17206 53.729 8.19239 53.731 8.21465 53.731C12.3092 53.731 15.6953 51.6068 16.3166 48.8352H8.15173V53.729Z" fill="#C8C7C5"/>
<path d="M32.3307 10.6752C32.3307 11.7184 31.4829 12.5652 30.4397 12.5652C29.3965 12.5652 28.5497 11.7184 28.5497 10.6752C28.5497 9.63195 29.3965 8.78518 30.4397 8.78518C31.4829 8.78518 32.3307 9.63195 32.3307 10.6752Z" fill="#403F41"/>
<path d="M5.72856 40.7777C6.08953 42.1151 7.02631 43.1497 8.12663 43.1497C9.23276 43.1497 10.1695 42.1113 10.5305 40.7729C10.5344 40.7767 10.5392 40.7806 10.546 40.7806C10.6505 40.7806 10.9466 40.4555 10.9466 40.0538C10.9466 39.6513 10.8634 39.3251 10.757 39.3251C10.7299 39.3251 10.7037 39.3464 10.6815 39.3832C10.6002 37.6548 9.48921 36.6822 8.12663 36.6822C6.7747 36.6822 5.66858 37.6451 5.57858 39.3561C5.55923 39.3397 5.5418 39.3251 5.52438 39.3251C5.41987 39.3251 5.33374 39.6513 5.33374 40.0538C5.33374 40.4477 5.61921 40.7661 5.72856 40.7777Z" fill="#EBBA8E"/>
<path d="M13.9367 46.9492L13.4538 45.2305L10.627 43.9337L8.84734 46.2002L8.7225 44.6866H8.15346H8.12829H7.56121L7.43637 46.2011L5.65474 43.9337L2.82796 45.2305L2.34506 46.9492V47.6973H13.9367V46.9492Z" fill="#2D2C2C"/>
<path d="M7.55969 44.4038H8.74227V43.4622H7.55969V44.4038Z" fill="#CF2F24"/>
<path d="M7.56008 44.6862H8.72138L8.84622 46.1998L8.13879 47.1433L7.43524 46.2007L7.56008 44.6862Z" fill="#CF2F24"/>
<path d="M10.5325 40.7729C10.5364 40.7767 10.5412 40.7806 10.548 40.7806C10.6525 40.7806 10.9486 40.4555 10.9486 40.0538C10.9486 39.6513 10.8654 39.3251 10.7589 39.3251C10.7318 39.3251 10.7057 39.3464 10.6835 39.3832C10.6022 37.6548 9.49118 36.6822 8.1286 36.6822V43.1497C9.23473 43.1497 10.1715 42.1113 10.5325 40.7729Z" fill="#F4CE9D"/>
<defs>
<radialGradient id="paint0_radial_1648_8116" cx="0" cy="0" r="1" gradientUnits="userSpaceOnUse" gradientTransform="translate(30.2348 58.0653) scale(15.2241 1.91947)">
<stop stop-color="#BCBCBD"/>
<stop offset="1" stop-color="white"/>
</radialGradient>
</defs>
</svg>
