<svg width="55" height="50" viewBox="0 0 55 50" fill="none" xmlns="http://www.w3.org/2000/svg">
<path d="M24.8845 44.5512H29.1812V47.8527C29.1812 49.0391 28.2186 50 27.0349 50C25.8469 50 24.8845 49.0391 24.8845 47.8527V44.5512Z" fill="url(#paint0_linear_1648_8147)"/>
<path d="M4.89644 15.5327H27.0331V49.5459H5.27597C2.36118 49.5459 0 47.1839 0 44.2716V20.4312C0 17.7256 2.19133 15.5327 4.89644 15.5327Z" fill="url(#paint1_linear_1648_8147)"/>
<path d="M27.0323 47.3479C20.3157 42.0092 9.43243 42.0092 2.71689 47.3479C2.71689 36.7429 2.71689 26.1407 2.71689 15.533C9.43243 10.197 20.3157 10.197 27.0323 15.533C27.0323 26.1407 27.0323 36.7429 27.0323 47.3479Z" fill="#E6E6E6"/>
<path d="M49.1669 15.5327H27.0312V49.5459H48.7842C51.6989 49.5459 54.0601 47.1839 54.0601 44.2716V20.4312C54.0601 17.7256 51.8688 15.5327 49.1669 15.5327Z" fill="url(#paint2_linear_1648_8147)"/>
<path d="M27.0312 47.3479C33.7437 42.0092 44.6289 42.0092 51.3424 47.3479C51.3424 36.7429 51.3424 26.1407 51.3424 15.533C44.6289 10.197 33.7437 10.197 27.0312 15.533C27.0312 26.1407 27.0312 36.7429 27.0312 47.3479Z" fill="#C9C9C9"/>
<path d="M31.6275 31.7102L33.5674 26.9217L34.2803 27.6975V25.2388L38.6806 16.3087L40.2336 15.6618L39.3288 14.6258C39.3288 14.6258 41.1395 8.80123 41.0115 5.56686L44.5062 -5.72205e-06L48.6465 8.28319L46.1878 17.8628L43.8583 18.507L44.5062 22.1306L37.1268 29.7696L35.0562 29.12L35.5751 30.6741L31.6275 31.7102Z" fill="#2A394A"/>
<path d="M31.9657 31.8496C32.6984 31.1168 33.2594 30.368 33.5667 29.7694C32.9658 30.0727 32.2193 30.6364 31.4876 31.3691C31.4559 31.3987 31.4278 31.4282 31.4015 31.4551C30.6676 32.0429 30.0385 32.6978 29.6852 33.2239C30.2953 32.9984 31.0378 32.5824 31.8492 31.965C31.887 31.9275 31.9257 31.8872 31.9657 31.8496Z" fill="#2A394A"/>
<defs>
<linearGradient id="paint0_linear_1648_8147" x1="24.8855" y1="47.2756" x2="29.1819" y2="47.2756" gradientUnits="userSpaceOnUse">
<stop stop-color="#E4B60B"/>
<stop offset="1" stop-color="#99743D"/>
</linearGradient>
<linearGradient id="paint1_linear_1648_8147" x1="0.000424091" y1="32.542" x2="27.0319" y2="32.542" gradientUnits="userSpaceOnUse">
<stop stop-color="#E4B60B"/>
<stop offset="1" stop-color="#99743D"/>
</linearGradient>
<linearGradient id="paint2_linear_1648_8147" x1="27.0299" y1="32.542" x2="54.0614" y2="32.542" gradientUnits="userSpaceOnUse">
<stop stop-color="#E4B60B"/>
<stop offset="1" stop-color="#99743D"/>
</linearGradient>
</defs>
</svg>
