<svg width="78" height="41" viewBox="0 0 78 41" fill="none" xmlns="http://www.w3.org/2000/svg">
<path d="M1.70746 4.72388V34.7302H16.9047L17.871 31.5574C18.1802 30.5552 19.1403 29.8586 20.2401 29.8586H24.929C26.0252 29.8586 26.9924 30.5552 27.2919 31.5574L28.2678 34.7302H51.629C52.3836 34.7302 52.9923 34.118 52.9923 33.3661V4.04751H1.76016C1.72766 4.26799 1.70746 4.49286 1.70746 4.72388Z" fill="#DAD1D1"/>
<path d="M6.42459 0.00523186H44.1451V-4.3869e-05H51.1574C52.1693 -4.3869e-05 52.9906 0.820396 52.9906 1.83144V4.0459H1.76025C2.08966 1.76204 4.04938 0.00523186 6.42459 0.00523186Z" fill="#E75C5B"/>
<path d="M1.3574 27.9123C0.1329 27.9685 0.129386 23.8821 1.33544 23.876C1.45666 24.6323 1.46983 27.1551 1.3574 27.9123Z" fill="#E75C5B"/>
<path d="M1.119 23.845L1.35792 23.7783L1.92185 23.6228C1.88672 23.6325 1.85422 23.7256 1.82963 23.8696C1.69435 24.6514 1.70577 27.1382 1.85159 27.9191C1.87882 28.0632 1.90868 28.1554 1.94645 28.165L1.38164 28.014L1.14096 27.949C0.969671 26.5013 0.951225 25.1591 1.119 23.845Z" fill="#DAD1D1"/>
<path d="M59.1122 34.0584L60.7839 34.697L73.013 34.3913L73.3626 34.0584L74.3535 33.3144V27.1515H59.1122V34.0584Z" fill="#3E312C"/>
<path d="M15.02 34.0584L16.905 34.7295H28.2672L29.2703 34.0584L30.2612 33.3144V27.1515H15.02V34.0584Z" fill="#3E312C"/>
<path d="M65.9692 10.4872V18.414C65.9692 19.237 66.6359 19.9011 67.4564 19.9011H71.1431C71.1167 19.794 71.0912 19.6894 71.0649 19.5823C70.2646 16.3471 69.2009 13.2041 67.8473 10.1578C67.7981 10.0507 67.7515 9.94702 67.7041 9.83986H66.6193C66.2618 9.83986 65.9692 10.1288 65.9692 10.4872Z" fill="#ABEDE3"/>
<path d="M52.99 33.3152H54.0756V8.50198H52.99V33.3152Z" fill="#3E312C"/>
<path d="M54.076 8.50204V33.4979C54.076 34.1752 54.6267 34.7233 55.3049 34.7207L60.7835 34.697L61.878 30.9427C62.1995 29.7401 63.1341 29.1867 64.2172 29.1867H69.6677C70.7508 29.1867 71.7038 29.9026 72.0069 30.9427L73.0126 34.3913L74.8477 33.8098C75.2833 33.6701 75.6303 33.3556 75.8192 32.9595C75.9193 32.7487 75.9747 32.5115 75.9747 32.2655L75.9659 30.4244L75.9606 29.6681V29.3141L75.9579 28.5578L75.9545 28.2073L75.9518 27.4484L75.9465 24.2158C75.9439 23.6879 75.741 23.1802 75.3791 22.7955L71.1452 19.9011H67.4567C66.6363 19.9011 65.9705 19.2361 65.9705 18.4148V10.4881C65.9705 10.1297 66.2612 9.83897 66.6196 9.83897H67.7044C67.7044 9.83897 68.2658 6.73292 59.1532 6.73292L55.8196 6.74874C54.856 6.75314 54.076 7.53667 54.076 8.50204Z" fill="#E75C5B"/>
<path d="M76.2861 24.1438C77.2655 24.0902 77.2682 27.9807 76.3045 27.9868C76.2062 27.2665 76.1965 24.865 76.2861 24.1438Z" fill="#F9B659"/>
<path d="M75.786 24.1448L75.9661 24.1439L76.3482 24.1422C76.3254 24.1422 76.3052 24.2142 76.2894 24.3319C76.2006 24.9828 76.2094 27.1472 76.3052 27.7972C76.3228 27.914 76.3421 27.9861 76.3658 27.9861L75.9846 27.9878H75.8036C75.6683 26.6447 75.6543 25.3596 75.786 24.1448Z" fill="#C44645"/>
<path d="M56.8411 32.8547H58.9713C59.7153 32.8547 60.3732 32.3558 60.5638 31.6373C61.2015 29.2217 61.9658 28.4399 63.8007 28.2624C64.6335 28.1825 65.251 27.4499 65.251 26.6137V11.0703C65.251 9.83523 64.4411 9.02534 63.4415 9.02534H57.1134C56.1138 9.02534 55.3048 9.83524 55.3048 10.834V31.3184C55.3048 32.1669 55.9926 32.8547 56.8411 32.8547Z" fill="#C44645"/>
<path d="M57.2634 9.66936H63.2928C64.0254 9.66936 64.6183 10.3246 64.6183 11.1337V18.6063C64.6183 19.4153 64.0254 20.0706 63.2928 20.0706H57.2634C56.5309 20.0706 55.9379 19.4153 55.9379 18.6063V11.1337C55.9379 10.3246 56.5309 9.66936 57.2634 9.66936Z" fill="#ABEDE3"/>
<path d="M1.70746 19.2633V34.7302H16.9047L17.871 31.5574C18.1802 30.5552 19.1403 29.8586 20.2401 29.8586H24.929C26.0252 29.8586 26.9924 30.5552 27.2919 31.5574L28.2678 34.7302H46.1583V32.9822C46.1583 25.4165 40.006 19.2633 32.4394 19.2633H1.70746Z" fill="#E75C5B"/>
<path d="M41.2775 32.9823V34.7295H28.2665L27.2933 31.5576C26.9902 30.5536 26.0248 29.8596 24.9295 29.8596H20.2406C19.139 29.8596 18.1798 30.5536 17.8706 31.5576L16.9043 34.7295H1.70618V24.1438H32.439C37.3203 24.1438 41.2775 28.101 41.2775 32.9823Z" fill="#C44645"/>
<path d="M74.1631 32.8547H76.8027L76.959 32.7423C77.3086 31.6988 77.3438 30.6359 76.9608 29.5475L76.8036 29.436H74.9633C74.0673 29.436 73.3409 30.1633 73.3409 31.0593V32.0317C73.3409 32.4867 73.7089 32.8547 74.1631 32.8547Z" fill="#DAD1D1"/>
<path d="M3.07152 32.8547H0.431907L0.276428 32.7423C-0.0740564 31.6988 -0.109184 30.6359 0.27468 29.5475L0.431028 29.436H2.27129C3.16727 29.436 3.89459 30.1633 3.89459 31.0593V32.0317C3.89459 32.4867 3.52566 32.8547 3.07152 32.8547Z" fill="#DAD1D1"/>
<path d="M69.3624 23.3611L69.5803 23.297C69.7665 23.1766 69.8209 22.9289 69.6997 22.7418L67.2217 18.9251C67.1014 18.7389 66.8519 18.6853 66.6666 18.8048C66.4803 18.9251 66.4268 19.1728 66.5462 19.3599L69.026 23.1766C69.1033 23.2961 69.2315 23.3611 69.3624 23.3611Z" fill="#3E312C"/>
<path d="M66.3398 22.1963H66.353C67.0803 22.1963 67.6706 21.7026 67.6706 21.093V16.4287C67.6706 15.8191 67.0803 15.3254 66.353 15.3254H66.3398V22.1963Z" fill="#C44645"/>
<path d="M63.2907 19.5823H60.7135L56.4243 12.5893V11.1347C56.4243 10.5944 56.8029 10.1579 57.2605 10.1579H59.5874L64.1296 17.6296V18.6064C64.1296 19.1457 63.7528 19.5823 63.2907 19.5823Z" fill="#D5F6F1"/>
<path d="M64.1302 16.6921L60.1738 10.1577H61.6733L64.1302 14.2256V16.6921Z" fill="#D5F6F1"/>
<path d="M71.0655 19.5823H70.5261L66.2369 12.5893V11.1347C66.2369 10.1579 66.2826 10.1579 67.0731 10.1579H67.8479C69.2015 13.2042 70.2652 16.3471 71.0655 19.5823Z" fill="#D5F6F1"/>
<path d="M39.0328 40.3635C18.5264 40.3635 1.90436 39.8576 1.90436 39.2339C1.90436 38.6102 18.5264 38.1043 39.0328 38.1043C59.5383 38.1043 76.1613 38.6102 76.1613 39.2339C76.1613 39.8576 59.5383 40.3635 39.0328 40.3635Z" fill="#E8E8E8"/>
<path d="M19.7886 29.8586H25.1153V28.8591H19.7886V29.8586Z" fill="#C44645"/>
<path d="M56.9776 22.0515H59.4178V21.051H56.9776V22.0515Z" fill="white"/>
<path d="M50.6932 2.9373C50.6932 3.07081 50.8021 3.17798 50.9347 3.17798C51.0674 3.17798 51.1745 3.07081 51.1745 2.9373V1.07156C51.1745 0.938045 51.0674 0.830881 50.9347 0.830881C50.8021 0.830881 50.6932 0.938045 50.6932 1.07156V2.9373Z" fill="#3E312C"/>
<path d="M49.6097 2.9373C49.6097 3.07081 49.7178 3.17798 49.8504 3.17798C49.9839 3.17798 50.0911 3.07081 50.0911 2.9373V1.07156C50.0911 0.938045 49.9839 0.830881 49.8504 0.830881C49.7178 0.830881 49.6097 0.938045 49.6097 1.07156V2.9373Z" fill="#3E312C"/>
<path d="M48.5276 2.9373C48.5276 3.07081 48.6348 3.17798 48.7675 3.17798C48.9001 3.17798 49.009 3.07081 49.009 2.9373V1.07156C49.009 0.938045 48.9001 0.830881 48.7675 0.830881C48.6348 0.830881 48.5276 0.938045 48.5276 1.07156V2.9373Z" fill="#3E312C"/>
<path d="M47.4429 2.9373C47.4429 3.07081 47.5501 3.17798 47.6836 3.17798C47.8163 3.17798 47.9243 3.07081 47.9243 2.9373V1.07156C47.9243 0.938045 47.8163 0.830881 47.6836 0.830881C47.5501 0.830881 47.4429 0.938045 47.4429 1.07156V2.9373Z" fill="#3E312C"/>
<path d="M46.3595 2.9373C46.3595 3.07081 46.4667 3.17798 46.5993 3.17798C46.7328 3.17798 46.8409 3.07081 46.8409 2.9373V1.07156C46.8409 0.938045 46.7328 0.830881 46.5993 0.830881C46.4667 0.830881 46.3595 0.938045 46.3595 1.07156V2.9373Z" fill="#3E312C"/>
<path d="M45.2748 2.9373C45.2748 3.07081 45.3837 3.17798 45.5163 3.17798C45.649 3.17798 45.757 3.07081 45.757 2.9373V1.07156C45.757 0.938045 45.649 0.830881 45.5163 0.830881C45.3837 0.830881 45.2748 0.938045 45.2748 1.07156V2.9373Z" fill="#3E312C"/>
<path d="M44.1926 2.9373C44.1926 3.07081 44.3007 3.17798 44.4342 3.17798C44.5668 3.17798 44.6749 3.07081 44.6749 2.9373V1.07156C44.6749 0.938045 44.5668 0.830881 44.4342 0.830881C44.3007 0.830881 44.1926 0.938045 44.1926 1.07156V2.9373Z" fill="#3E312C"/>
<path d="M52.9906 4.0459H1.76025C2.08966 1.76204 4.04938 0.00523186 6.42459 0.00523186H44.1451V-4.3869e-05H51.1574C52.1693 -4.3869e-05 52.9906 0.820396 52.9906 1.83144V4.0459ZM50.9343 0.830925C50.8017 0.830925 50.6927 0.938089 50.6927 1.07161V2.93734C50.6927 3.07086 50.8017 3.17802 50.9343 3.17802C51.0669 3.17802 51.1741 3.07086 51.1741 2.93734V1.07161C51.1741 0.938089 51.0669 0.830925 50.9343 0.830925ZM49.8503 0.830925C49.7177 0.830925 49.6097 0.938089 49.6097 1.07161V2.93734C49.6097 3.07086 49.7177 3.17802 49.8503 3.17802C49.9839 3.17802 50.091 3.07086 50.091 2.93734V1.07161C50.091 0.938089 49.9839 0.830925 49.8503 0.830925ZM48.7664 0.830925C48.6338 0.830925 48.5266 0.938089 48.5266 1.07161V2.93734C48.5266 3.07086 48.6338 3.17802 48.7664 3.17802C48.899 3.17802 49.008 3.07086 49.008 2.93734V1.07161C49.008 0.938089 48.899 0.830925 48.7664 0.830925ZM47.6833 0.830925C47.5498 0.830925 47.4426 0.938089 47.4426 1.07161V2.93734C47.4426 3.07086 47.5498 3.17802 47.6833 3.17802C47.816 3.17802 47.924 3.07086 47.924 2.93734V1.07161C47.924 0.938089 47.816 0.830925 47.6833 0.830925ZM46.5994 0.830925C46.4667 0.830925 46.3596 0.938089 46.3596 1.07161V2.93734C46.3596 3.07086 46.4667 3.17802 46.5994 3.17802C46.7329 3.17802 46.8409 3.07086 46.8409 2.93734V1.07161C46.8409 0.938089 46.7329 0.830925 46.5994 0.830925ZM45.5163 0.830925C45.3837 0.830925 45.2747 0.938089 45.2747 1.07161V2.93734C45.2747 3.07086 45.3837 3.17802 45.5163 3.17802C45.6489 3.17802 45.757 3.07086 45.757 2.93734V1.07161C45.757 0.938089 45.6489 0.830925 45.5163 0.830925ZM44.4332 0.830925C44.2997 0.830925 44.1917 0.938089 44.1917 1.07161V2.93734C44.1917 3.07086 44.2997 3.17802 44.4332 3.17802C44.5659 3.17802 44.6739 3.07086 44.6739 2.93734V1.07161C44.6739 0.938089 44.5659 0.830925 44.4332 0.830925Z" fill="#D25654"/>
<path d="M50.9347 3.17798C50.8021 3.17798 50.6932 3.07081 50.6932 2.9373V1.07156C50.6932 0.938045 50.8021 0.830881 50.9347 0.830881C51.0674 0.830881 51.1745 0.938045 51.1745 1.07156V2.9373C51.1745 3.07081 51.0674 3.17798 50.9347 3.17798Z" fill="#3B2F2A"/>
<path d="M49.8504 3.17798C49.7178 3.17798 49.6097 3.07081 49.6097 2.9373V1.07156C49.6097 0.938045 49.7178 0.830881 49.8504 0.830881C49.9839 0.830881 50.0911 0.938045 50.0911 1.07156V2.9373C50.0911 3.07081 49.9839 3.17798 49.8504 3.17798Z" fill="#3B2F2A"/>
<path d="M48.7675 3.17798C48.6348 3.17798 48.5276 3.07081 48.5276 2.9373V1.07156C48.5276 0.938045 48.6348 0.830881 48.7675 0.830881C48.9001 0.830881 49.009 0.938045 49.009 1.07156V2.9373C49.009 3.07081 48.9001 3.17798 48.7675 3.17798Z" fill="#3B2F2A"/>
<path d="M47.6836 3.17798C47.5501 3.17798 47.4429 3.07081 47.4429 2.9373V1.07156C47.4429 0.938045 47.5501 0.830881 47.6836 0.830881C47.8163 0.830881 47.9243 0.938045 47.9243 1.07156V2.9373C47.9243 3.07081 47.8163 3.17798 47.6836 3.17798Z" fill="#3B2F2A"/>
<path d="M46.5993 3.17798C46.4667 3.17798 46.3595 3.07081 46.3595 2.9373V1.07156C46.3595 0.938045 46.4667 0.830881 46.5993 0.830881C46.7328 0.830881 46.8409 0.938045 46.8409 1.07156V2.9373C46.8409 3.07081 46.7328 3.17798 46.5993 3.17798Z" fill="#3B2F2A"/>
<path d="M45.5163 3.17798C45.3837 3.17798 45.2748 3.07081 45.2748 2.9373V1.07156C45.2748 0.938045 45.3837 0.830881 45.5163 0.830881C45.649 0.830881 45.757 0.938045 45.757 1.07156V2.9373C45.757 3.07081 45.649 3.17798 45.5163 3.17798Z" fill="#3B2F2A"/>
<path d="M44.4342 3.17798C44.3007 3.17798 44.1926 3.07081 44.1926 2.9373V1.07156C44.1926 0.938045 44.3007 0.830881 44.4342 0.830881C44.5668 0.830881 44.6749 0.938045 44.6749 1.07156V2.9373C44.6749 3.07081 44.5668 3.17798 44.4342 3.17798Z" fill="#3B2F2A"/>
<path d="M51.6286 34.7302H28.2674L28.2665 34.7293H16.9043H28.2665H28.2674V34.7302H46.1579H51.6286C52.3831 34.7302 52.9919 34.118 52.9919 33.3661V33.3151H54.0758V28.6279V33.3151H52.9919V33.3661C52.9919 34.118 52.3831 34.7302 51.6286 34.7302ZM55.2986 34.7206C55.3003 34.7206 55.3021 34.7206 55.3047 34.7206L60.7833 34.6968L73.0125 34.3912L74.8475 33.8097C75.2832 33.67 75.6302 33.3555 75.819 32.9594C75.6302 33.3555 75.2832 33.67 74.8475 33.8097L73.0125 34.3912L60.7833 34.6968L55.3047 34.7206C55.303 34.7206 55.3003 34.7206 55.2986 34.7206ZM55.2951 34.7206C54.6213 34.7188 54.0758 34.1716 54.0758 33.4978C54.0758 34.1716 54.6213 34.7188 55.2951 34.7206ZM1.70617 28.1009L1.38204 28.0139L1.14136 27.9489L1.38204 28.0139L1.70617 28.1009Z" fill="#E8E8E8"/>
<path d="M51.6293 34.7302H46.1586V32.9822C46.1586 31.1648 45.8037 29.429 45.159 27.84L52.9909 28.5322V33.3151H52.9926V33.3661C52.9926 34.118 52.3839 34.7302 51.6293 34.7302Z" fill="#C7BFBE"/>
<path d="M1.13276 27.8716C0.218337 27.4833 0.206046 24.4396 1.08533 23.9477L1.10641 23.9495C0.956204 25.2074 0.973766 26.4916 1.13276 27.8716Z" fill="#D25654"/>
<path d="M1.70569 28.1011L1.38156 28.0141L1.14088 27.9491L1.13384 27.8718C1.13297 27.8718 1.13296 27.8718 1.13209 27.8718C0.973095 26.4918 0.955533 25.2076 1.10574 23.9497L1.70657 24.0033V24.1439H1.70569V28.1011Z" fill="#C7BFBE"/>
<path d="M60.7837 34.697L61.8782 30.9427C62.0794 30.1899 62.5212 29.691 63.0895 29.4239L71.6294 30.1776C71.7963 30.4043 71.9254 30.6616 72.0071 30.9427L73.0129 34.3913L60.7837 34.697Z" fill="#3B2F2A"/>
<path d="M28.2672 34.7295H16.905L17.5261 32.6907L17.8713 31.5576C17.902 31.4583 17.9398 31.3608 17.9828 31.2677C18.1647 30.8733 18.4537 30.5395 18.8103 30.2962C19.2179 30.0195 19.7133 29.8596 20.2412 29.8596H24.9302C25.7374 29.8596 26.4753 30.2373 26.9276 30.8381C27.0884 31.0525 27.2131 31.294 27.2922 31.5576L28.0116 33.895L28.2672 34.7295Z" fill="#3B2F2A"/>
<path d="M54.0757 33.3152H52.99V28.5323L54.0757 28.628V33.3152Z" fill="#3B2F2A"/>
<path d="M55.2987 34.7207C55.2978 34.7207 55.2961 34.7207 55.2952 34.7207C54.6215 34.7189 54.076 34.1717 54.076 33.498V33.3153V28.6281L55.3049 28.7361V31.3186C55.3049 32.1672 55.9927 32.855 56.8412 32.855H58.9713C59.7154 32.855 60.3733 32.356 60.5639 31.6375C60.8485 30.5606 61.1577 29.8087 61.5758 29.2904L63.0893 29.4239C62.521 29.6909 62.0792 30.1899 61.878 30.9427L60.7835 34.697L55.3049 34.7207C55.3022 34.7207 55.3005 34.7207 55.2987 34.7207ZM73.0126 34.3913L72.0069 30.9427C71.9252 30.6616 71.7961 30.4042 71.6292 30.1776L73.5072 30.3436C73.4009 30.5597 73.3412 30.803 73.3412 31.0595V32.0319C73.3412 32.4869 73.7092 32.855 74.1634 32.855H75.8648H75.8622L75.8192 32.9595C75.6303 33.3557 75.2833 33.6701 74.8476 33.8098L73.0126 34.3913Z" fill="#D25654"/>
<path d="M58.9713 32.8547H56.8411C55.9926 32.8547 55.3048 32.1669 55.3048 31.3184V28.7359L61.5757 29.2902C61.1576 29.8084 60.8484 30.5603 60.5638 31.6373C60.3732 32.3558 59.7153 32.8547 58.9713 32.8547Z" fill="#B34241"/>
<path d="M46.1579 34.7302H28.2674V34.7293H41.2775V32.9822C41.2775 30.8257 40.5054 28.8502 39.222 27.3156L45.1583 27.84C45.803 29.429 46.1579 31.1648 46.1579 32.9822V34.7302ZM16.9043 34.7302H1.70706V34.7293H16.9043L17.5254 32.6906L16.9043 34.7293V34.7302ZM28.0109 33.8949L27.2915 31.5574C27.2124 31.2939 27.0877 31.0523 26.927 30.838C27.0886 31.0515 27.2133 31.2939 27.2933 31.5574L28.0109 33.8949ZM17.9822 31.2675C18.164 30.8723 18.453 30.5394 18.8096 30.296C18.453 30.5394 18.164 30.8731 17.9822 31.2675ZM3.30488 24.1437H1.70618L1.70706 24.0031L3.30488 24.1437Z" fill="#D25654"/>
<path d="M41.2775 34.7295H28.2665L28.0109 33.895L27.2933 31.5576C27.2133 31.294 27.0886 31.0516 26.927 30.8381C26.4746 30.2373 25.7367 29.8596 24.9295 29.8596H20.2406C19.7126 29.8596 19.2172 30.0195 18.8096 30.2962C18.453 30.5395 18.164 30.8724 17.9822 31.2677C17.9391 31.3608 17.9013 31.4583 17.8706 31.5576L17.5254 32.6907L16.9043 34.7295H1.70706H1.70618V32.855H3.07122C3.52536 32.855 3.89429 32.4869 3.89429 32.0319V31.0595C3.89429 30.1635 3.16697 29.4362 2.271 29.4362H1.70618V28.101V24.1438H3.30488L39.222 27.3157C40.5054 28.8503 41.2775 30.8259 41.2775 32.9823V34.7295ZM19.7882 28.8591V29.8587H25.1148V28.8591H19.7882Z" fill="#B34241"/>
<path d="M76.8027 32.8547H74.1631C73.7089 32.8547 73.3409 32.4867 73.3409 32.0317V31.0593C73.3409 30.8028 73.4006 30.5595 73.5069 30.3434L77.2102 30.671C77.2788 31.3702 77.1874 32.0607 76.959 32.7423L76.8027 32.8547Z" fill="#C7BFBE"/>
<path d="M3.07178 32.8547H0.432169L0.276689 32.7423C0.0974945 32.2091 0 31.6698 0 31.1243C0 30.6043 0.0869626 30.079 0.274941 29.5475L0.43129 29.436H1.70674H2.27156C3.16753 29.436 3.89485 30.1633 3.89485 31.0593V32.0317C3.89485 32.4867 3.52592 32.8547 3.07178 32.8547Z" fill="#C7BFBE"/>
<path d="M19.7886 29.8586H25.1153V28.8591H19.7886V29.8586Z" fill="#B34241"/>
<path d="M64.4354 34.4379C64.4354 35.8556 65.5853 37.0063 67.0039 37.0063C68.4225 37.0063 69.5723 35.8556 69.5723 34.4379C69.5723 33.0184 68.4225 31.8686 67.0039 31.8686C65.5853 31.8686 64.4354 33.0184 64.4354 34.4379Z" fill="#1D1715"/>
<path d="M64.0515 34.4404C64.0497 32.8092 65.37 31.4855 67.0012 31.4846C68.6315 31.4828 69.9553 32.804 69.957 34.4352C69.9579 36.0655 68.6376 37.3892 67.0064 37.3901C65.3752 37.3919 64.0524 36.0707 64.0515 34.4404ZM62.2068 34.4422C62.2095 37.0906 64.3589 39.2356 67.0082 39.2339C69.6566 39.2313 71.8034 37.0818 71.8008 34.4334C71.7982 31.7841 69.6496 29.6382 66.9994 29.6408C64.3501 29.6434 62.2051 31.7929 62.2068 34.4422Z" fill="#1D1715"/>
<path d="M63.9761 34.4405C63.9744 32.7671 65.3298 31.4091 67.0022 31.4073C68.6747 31.4064 70.0327 32.7609 70.0345 34.4352C70.0354 36.1086 68.6809 37.4657 67.0084 37.4657C65.3342 37.4683 63.977 36.1129 63.9761 34.4405ZM63.6081 34.4405C63.6099 36.3159 65.1312 37.8364 67.0084 37.8337C68.8847 37.8329 70.4034 36.3106 70.4017 34.4343C70.3999 32.558 68.8785 31.0393 67.0014 31.0401C65.126 31.0419 63.6063 32.5651 63.6081 34.4405Z" fill="#DADADA"/>
<path d="M65.6961 34.4388C65.6952 33.715 66.2811 33.1291 67.004 33.1291C67.727 33.1283 68.3129 33.7133 68.3137 34.4362C68.3137 35.1591 67.7287 35.7459 67.0067 35.7468C66.2837 35.7477 65.6961 35.1618 65.6961 34.4388ZM64.9231 34.4388C64.924 35.5887 65.8568 36.5207 67.0067 36.5198C68.1565 36.5189 69.0885 35.586 69.0867 34.4353C69.0859 33.2855 68.1521 32.3544 67.0032 32.3552C65.8524 32.3561 64.9222 33.289 64.9231 34.4388Z" fill="#EDEDED"/>
<path d="M66.0904 34.4389L66.1993 34.3291L66.3091 34.4389L66.1993 34.5478L66.0904 34.4389ZM66.2389 34.9396L66.5033 34.9387L66.5041 35.2031H66.2389V34.9396ZM66.5059 34.438C66.5059 34.1631 66.7281 33.9408 67.0039 33.9408C67.278 33.9399 67.5002 34.1631 67.5011 34.4371C67.5011 34.7112 67.2789 34.9352 67.0039 34.9352C66.7299 34.9352 66.5059 34.7129 66.5059 34.438ZM66.8959 35.2417L67.0048 35.1328L67.1137 35.2417L67.0048 35.3515L66.8959 35.2417ZM67.5046 34.9378H67.7708V35.2022H67.5046V34.9378ZM67.8086 34.5461L67.6996 34.4371L67.8086 34.3282L67.9175 34.4371L67.8086 34.5461ZM67.769 33.9356L67.5046 33.9364V33.6712H67.769V33.9356ZM67.112 33.6334L67.0039 33.7423L66.8941 33.6334L67.0039 33.5245L67.112 33.6334ZM66.5033 33.9373H66.2389V33.672H66.5033V33.9373ZM65.6951 34.4389C65.6951 35.1618 66.2828 35.7477 67.0057 35.7468C67.7278 35.7459 68.3128 35.1592 68.3128 34.4363C68.3119 33.7133 67.726 33.1283 67.0031 33.1292C66.2801 33.1292 65.6943 33.7151 65.6951 34.4389Z" fill="#DAD1D1"/>
<path d="M66.0904 34.4389L66.1993 34.3291L66.3091 34.4389L66.1993 34.5478L66.0904 34.4389ZM66.2389 34.9396L66.5033 34.9387L66.5041 35.2031H66.2389V34.9396ZM66.5059 34.438C66.5059 34.1631 66.7281 33.9408 67.0039 33.9408C67.278 33.9399 67.5002 34.1631 67.5011 34.4371C67.5011 34.7112 67.2789 34.9352 67.0039 34.9352C66.7299 34.9352 66.5059 34.7129 66.5059 34.438ZM66.8959 35.2417L67.0048 35.1328L67.1137 35.2417L67.0048 35.3515L66.8959 35.2417ZM67.5046 34.9378H67.7708V35.2022H67.5046V34.9378ZM67.8086 34.5461L67.6996 34.4371L67.8086 34.3282L67.9175 34.4371L67.8086 34.5461ZM67.769 33.9356L67.5046 33.9364V33.6712H67.769V33.9356ZM67.112 33.6334L67.0039 33.7423L66.8941 33.6334L67.0039 33.5245L67.112 33.6334ZM66.5033 33.9373H66.2389V33.672H66.5033V33.9373ZM65.6951 34.4389C65.6951 35.1618 66.2828 35.7477 67.0057 35.7468C67.7278 35.7459 68.3128 35.1592 68.3128 34.4363C68.3119 33.7133 67.726 33.1283 67.0031 33.1292C66.2801 33.1292 65.6943 33.7151 65.6951 34.4389Z" fill="#C6C6C6"/>
<path d="M64.1114 34.4397C64.1114 34.2816 64.2616 34.1533 64.4469 34.1533C64.6314 34.1533 64.7816 34.2816 64.7816 34.4388C64.7816 34.5978 64.6314 34.7261 64.4469 34.7261C64.2616 34.7261 64.1122 34.5987 64.1114 34.4397ZM64.6472 35.4701C64.807 35.3778 65.0012 35.4147 65.0794 35.5518C65.1593 35.6879 65.0934 35.8741 64.9335 35.9664C64.7737 36.0586 64.5795 36.0235 64.4996 35.8864C64.4205 35.7494 64.4873 35.5632 64.6472 35.4701ZM65.4799 36.5119C65.5713 36.3511 65.7575 36.2852 65.8945 36.3643C66.0316 36.4425 66.0676 36.6366 65.9762 36.7974C65.884 36.9581 65.6978 37.024 65.5598 36.944C65.4237 36.8659 65.3868 36.6717 65.4799 36.5119ZM66.7202 36.9959C66.7202 36.8114 66.8485 36.6612 67.0066 36.6612C67.1638 36.6612 67.2938 36.8105 67.2938 36.9959C67.2938 37.1812 67.1656 37.3305 67.0075 37.3305C66.8485 37.3305 66.7211 37.1812 66.7202 36.9959ZM68.1178 36.3625C68.2557 36.2835 68.4419 36.3485 68.5332 36.5092C68.6263 36.6691 68.5912 36.8623 68.4533 36.9423C68.3172 37.0222 68.1309 36.9555 68.0387 36.7947C67.9465 36.6357 67.9807 36.4416 68.1178 36.3625ZM68.9312 35.5474C69.0102 35.4112 69.2044 35.3743 69.3633 35.4666C69.5241 35.5597 69.59 35.745 69.5118 35.882C69.4327 36.0191 69.2386 36.0551 69.0779 35.9629C68.9189 35.8715 68.8521 35.6853 68.9312 35.5474ZM69.5636 34.7217C69.3792 34.7217 69.2281 34.5934 69.2281 34.4353C69.2281 34.2781 69.3783 34.149 69.5636 34.149C69.7472 34.149 69.8992 34.2763 69.8992 34.4353C69.8992 34.5934 69.7481 34.7208 69.5636 34.7217ZM69.3633 33.4032C69.2035 33.4972 69.0085 33.4612 68.9294 33.3241C68.8495 33.1871 68.9162 33.0009 69.0752 32.9078C69.236 32.8155 69.4301 32.8516 69.5083 32.9886C69.5873 33.1265 69.5232 33.311 69.3633 33.4032ZM68.5297 32.364C68.4375 32.5239 68.2522 32.5898 68.1151 32.5107C67.9772 32.4317 67.9421 32.2384 68.0343 32.0777C68.1257 31.9178 68.3119 31.8519 68.4498 31.931C68.5859 32.01 68.6229 32.2033 68.5297 32.364ZM67.2885 31.8792C67.2885 32.0645 67.1612 32.2138 67.0031 32.2138C66.8441 32.2138 66.7167 32.0645 66.7167 31.8792C66.7167 31.6938 66.8441 31.5445 67.0022 31.5445C67.1603 31.5445 67.2885 31.6938 67.2885 31.8792ZM65.891 32.5134C65.754 32.5915 65.5686 32.5265 65.4764 32.3667C65.3833 32.2068 65.4193 32.0127 65.5554 31.9336C65.6942 31.8546 65.8796 31.9196 65.9718 32.0803C66.064 32.2393 66.0289 32.4334 65.891 32.5134ZM67.0031 32.3552C68.152 32.3544 69.0858 33.2855 69.0866 34.4353C69.0884 35.586 68.1564 36.5189 67.0066 36.5198C65.8567 36.5207 64.9239 35.5887 64.923 34.4388C64.9221 33.289 65.8523 32.3561 67.0031 32.3552ZM65.0785 33.3276C64.9994 33.4647 64.8053 33.4998 64.6446 33.4076C64.4847 33.3162 64.4188 33.13 64.4978 32.9938C64.5769 32.8559 64.771 32.8199 64.9309 32.9122C65.0908 33.0044 65.1567 33.1897 65.0785 33.3276ZM63.9761 34.4406C63.977 36.1131 65.3341 37.4685 67.0083 37.4658C68.6808 37.4658 70.0353 36.1087 70.0344 34.4353C70.0327 32.7611 68.6747 31.4066 67.0022 31.4075C65.3297 31.4092 63.9743 32.7672 63.9761 34.4406Z" fill="#DAD1D1"/>
<path d="M20.0717 34.4379C20.0717 35.8556 21.2215 37.0063 22.6401 37.0063C24.0587 37.0063 25.2086 35.8556 25.2086 34.4379C25.2086 33.0184 24.0587 31.8686 22.6401 31.8686C21.2215 31.8686 20.0717 33.0184 20.0717 34.4379Z" fill="#1D1715"/>
<path d="M19.6877 34.4404C19.6859 32.8092 21.0079 31.4855 22.6373 31.4846C24.2685 31.4828 25.5914 32.804 25.5932 34.4352C25.5941 36.0655 24.2738 37.3892 22.6426 37.3901C21.0123 37.3919 19.6894 36.0707 19.6877 34.4404ZM17.843 34.4422C17.8457 37.0906 19.9951 39.2356 22.6444 39.2339C25.2936 39.2313 27.4396 37.0818 27.437 34.4334C27.4352 32.2874 26.0245 30.4727 24.0815 29.8622H21.1985C19.2529 30.4744 17.8421 32.2936 17.843 34.4422Z" fill="#1D1715"/>
<path d="M19.611 34.4405C19.6093 32.7671 20.9646 31.4091 22.6371 31.4073C24.3096 31.4064 25.6676 32.7609 25.6694 34.4352C25.6703 36.1086 24.3158 37.4657 22.6433 37.4657C20.9699 37.4683 19.6128 36.1129 19.611 34.4405ZM19.243 34.4405C19.2447 36.3159 20.7661 37.8364 22.6433 37.8337C24.5196 37.8329 26.0383 36.3106 26.0375 34.4343C26.0357 32.558 24.5134 31.0393 22.6363 31.0401C20.7609 31.0419 19.2412 32.5651 19.243 34.4405Z" fill="#DADADA"/>
<path d="M21.331 34.4388C21.3302 33.715 21.9161 33.1291 22.639 33.1291C23.3619 33.1283 23.9478 33.7133 23.9487 34.4362C23.9487 35.1591 23.3637 35.7459 22.6416 35.7468C21.9187 35.7477 21.3319 35.1618 21.331 34.4388ZM20.558 34.4388C20.5589 35.5887 21.4918 36.5207 22.6416 36.5198C23.7923 36.5189 24.7235 35.586 24.7217 34.4353C24.7208 33.2855 23.7888 32.3544 22.6381 32.3552C21.4883 32.3561 20.5572 33.289 20.558 34.4388Z" fill="#EDEDED"/>
<path d="M21.7266 34.4389L21.8356 34.3291L21.9454 34.4389L21.8356 34.5478L21.7266 34.4389ZM21.8751 34.9396L22.1395 34.9387L22.1404 35.2031H21.8751V34.9396ZM22.1439 34.438C22.143 34.1631 22.3652 33.9408 22.6402 33.9408C22.9142 33.9399 23.1365 34.1631 23.1374 34.4371C23.1374 34.7112 22.9151 34.9352 22.6402 34.9352C22.3661 34.9352 22.1439 34.7129 22.1439 34.438ZM22.5321 35.2417L22.6411 35.1328L22.75 35.2417L22.6411 35.3515L22.5321 35.2417ZM23.1409 34.9378H23.407V35.2022H23.1409V34.9378ZM23.4448 34.5461L23.3359 34.4371L23.4448 34.3282L23.5537 34.4371L23.4448 34.5461ZM23.4053 33.9356L23.1409 33.9364V33.6712H23.4053V33.9356ZM22.7491 33.6334L22.6402 33.7423L22.5304 33.6334L22.6402 33.5245L22.7491 33.6334ZM22.1395 33.9373H21.8751V33.672H22.1395V33.9373ZM21.3314 34.4389C21.3322 35.1618 21.919 35.7477 22.6419 35.7468C23.364 35.7459 23.949 35.1592 23.949 34.4363C23.9481 33.7133 23.3622 33.1283 22.6393 33.1292C21.9164 33.1292 21.3305 33.7151 21.3314 34.4389Z" fill="#DAD1D1"/>
<path d="M21.7266 34.4389L21.8356 34.3291L21.9454 34.4389L21.8356 34.5478L21.7266 34.4389ZM21.8751 34.9396L22.1395 34.9387L22.1404 35.2031H21.8751V34.9396ZM22.1439 34.438C22.143 34.1631 22.3652 33.9408 22.6402 33.9408C22.9142 33.9399 23.1365 34.1631 23.1374 34.4371C23.1374 34.7112 22.9151 34.9352 22.6402 34.9352C22.3661 34.9352 22.1439 34.7129 22.1439 34.438ZM22.5321 35.2417L22.6411 35.1328L22.75 35.2417L22.6411 35.3515L22.5321 35.2417ZM23.1409 34.9378H23.407V35.2022H23.1409V34.9378ZM23.4448 34.5461L23.3359 34.4371L23.4448 34.3282L23.5537 34.4371L23.4448 34.5461ZM23.4053 33.9356L23.1409 33.9364V33.6712H23.4053V33.9356ZM22.7491 33.6334L22.6402 33.7423L22.5304 33.6334L22.6402 33.5245L22.7491 33.6334ZM22.1395 33.9373H21.8751V33.672H22.1395V33.9373ZM21.3314 34.4389C21.3322 35.1618 21.919 35.7477 22.6419 35.7468C23.364 35.7459 23.949 35.1592 23.949 34.4363C23.9481 33.7133 23.3622 33.1283 22.6393 33.1292C21.9164 33.1292 21.3305 33.7151 21.3314 34.4389Z" fill="#C6C6C6"/>
<path d="M19.7463 34.4397C19.7463 34.2816 19.8965 34.1533 20.0819 34.1533C20.2663 34.1533 20.4165 34.2816 20.4165 34.4388C20.4165 34.5978 20.2663 34.7261 20.0827 34.7261C19.8965 34.7261 19.7472 34.5987 19.7463 34.4397ZM20.2821 35.4701C20.442 35.3778 20.6361 35.4147 20.7152 35.5518C20.7942 35.6879 20.7284 35.8741 20.5694 35.9664C20.4086 36.0586 20.2145 36.0235 20.1346 35.8864C20.0564 35.7494 20.1223 35.5632 20.2821 35.4701ZM21.1149 36.5119C21.2071 36.3511 21.3933 36.2852 21.5303 36.3643C21.6674 36.4425 21.7043 36.6366 21.6112 36.7974C21.5198 36.9581 21.3327 37.024 21.1957 36.944C21.0586 36.8659 21.0218 36.6717 21.1149 36.5119ZM22.356 36.9959C22.356 36.8114 22.4834 36.6612 22.6415 36.6612C22.7996 36.6612 22.9288 36.8105 22.9288 36.9959C22.9288 37.1812 22.8014 37.3305 22.6424 37.3305C22.4843 37.3305 22.356 37.1812 22.356 36.9959ZM23.7536 36.3625C23.8906 36.2835 24.0769 36.3485 24.1682 36.5092C24.2613 36.6691 24.2262 36.8623 24.0883 36.9423C23.9521 37.0222 23.7659 36.9555 23.6737 36.7947C23.5814 36.6357 23.6157 36.4416 23.7536 36.3625ZM24.567 35.5474C24.6452 35.4112 24.8402 35.3743 25.0001 35.4666C25.159 35.5597 25.2258 35.745 25.1467 35.882C25.0686 36.0191 24.8736 36.0551 24.7137 35.9629C24.5538 35.8715 24.4879 35.6853 24.567 35.5474ZM25.1995 34.7217C25.0141 34.7217 24.8639 34.5934 24.863 34.4353C24.863 34.2781 25.0132 34.149 25.1986 34.149C25.383 34.149 25.5341 34.2763 25.5341 34.4353C25.5341 34.5934 25.383 34.7208 25.1995 34.7217ZM24.9992 33.4032C24.8384 33.4972 24.6434 33.4612 24.5644 33.3241C24.4853 33.1871 24.5512 33.0009 24.7102 32.9078C24.8709 32.8155 25.065 32.8516 25.1441 32.9886C25.2232 33.1265 25.1582 33.311 24.9992 33.4032ZM24.1647 32.364C24.0725 32.5239 23.8871 32.5898 23.751 32.5107C23.6131 32.4317 23.577 32.2384 23.6693 32.0777C23.7615 31.9178 23.9468 31.8519 24.0856 31.931C24.2209 32.01 24.2578 32.2033 24.1647 32.364ZM22.9235 31.8792C22.9235 32.0645 22.7961 32.2138 22.638 32.2138C22.4799 32.2138 22.3516 32.0645 22.3516 31.8792C22.3516 31.6938 22.479 31.5445 22.6371 31.5445C22.7952 31.5445 22.9235 31.6938 22.9235 31.8792ZM21.526 32.5134C21.3889 32.5915 21.2036 32.5265 21.1113 32.3667C21.0182 32.2068 21.0542 32.0127 21.1913 31.9336C21.3292 31.8546 21.5145 31.9196 21.6068 32.0803C21.6999 32.2393 21.6639 32.4334 21.526 32.5134ZM22.638 32.3552C23.7887 32.3544 24.7207 33.2855 24.7216 34.4353C24.7234 35.586 23.7922 36.5189 22.6415 36.5198C21.4917 36.5207 20.5588 35.5887 20.5579 34.4388C20.5571 33.289 21.4882 32.3561 22.638 32.3552ZM20.7143 33.3276C20.6353 33.4647 20.4402 33.4998 20.2795 33.4076C20.1205 33.3162 20.0546 33.13 20.1328 32.9938C20.2118 32.8559 20.406 32.8199 20.5667 32.9122C20.7257 33.0044 20.7925 33.1897 20.7143 33.3276ZM19.611 34.4406C19.6128 36.1131 20.9699 37.4685 22.6433 37.4658C24.3158 37.4658 25.6703 36.1087 25.6694 34.4353C25.6676 32.7611 24.3096 31.4066 22.6371 31.4075C20.9646 31.4092 19.6093 32.7672 19.611 34.4406Z" fill="#DAD1D1"/>
</svg>
