<svg width="205" height="143" viewBox="0 0 205 143" fill="none" xmlns="http://www.w3.org/2000/svg">
<path d="M177.679 143C176.452 143 175.217 142.952 173.969 142.834C169.201 142.384 164.368 142.159 159.624 141.517C148.735 140.043 137.842 139.956 126.874 139.956C122.519 139.956 118.165 139.915 113.811 139.915C107.472 139.915 101.135 140.002 94.8081 140.43C84.9363 141.098 75.048 141.205 65.1583 141.205C63.6686 141.205 62.1785 141.202 60.6889 141.199C60.5922 141.199 60.4959 141.199 60.3995 141.199C54.9251 141.199 49.4724 141.54 44.0062 141.781C38.5148 142.023 33.1754 142.42 27.7156 142.42C27.2238 142.42 26.7298 142.417 26.236 142.41C20.7812 142.334 12.4753 140.727 8.58387 136.632C6.27336 134.199 6.58659 128.345 8.9004 125.999C9.91134 124.974 11.541 124.171 12.8721 123.683C16.664 122.292 20.5231 122.289 24.4853 122.26C24.5337 122.259 24.5816 122.259 24.6299 122.259C27.3645 122.259 30.2077 122.816 32.8286 123.59C35.2127 124.295 37.6485 124.542 40.0734 124.98C42.0575 125.339 44.1802 125.511 46.2795 125.511C47.6458 125.511 49.0026 125.438 50.3039 125.297C53.8246 124.914 57.3703 124.736 60.9013 124.435C65.286 124.061 69.577 123.249 73.9462 122.814C76.1336 122.597 78.2703 122.057 80.4527 121.811C86.2409 121.161 92.0392 121.02 97.8374 121.002C98.307 121.001 98.7763 121 99.2457 121C102.007 121 104.768 121.021 107.528 121.021C109.772 121.021 112.014 121.014 114.257 121.014C121.932 121.014 129.6 121.094 137.255 121.797C139.627 122.016 141.983 121.884 144.322 122.403C146.67 122.924 149.041 123.399 151.447 123.492C153.506 123.571 155.571 123.597 157.64 123.597C161.315 123.597 164.997 123.515 168.66 123.501C169.027 123.5 169.538 123.498 170.171 123.498C178.373 123.498 206.946 123.879 204.895 131.587C204.107 134.549 199.529 138.405 196.96 139.646C193.716 141.214 190.168 142.141 186.596 142.453C183.586 142.717 180.652 143 177.679 143Z" fill="#07A287" fill-opacity="0.2"/>
<path d="M192.087 81L193 87.6264L191.169 125L188.096 124.32L183 81.8323L192.087 81Z" fill="#292949"/>
<path d="M176.629 80.2051L176 104.247L182.318 125L186 123.676L182.899 105.169L185.746 80L176.629 80.2051Z" fill="#292949"/>
<path d="M185.945 122L181.808 124.156L183.196 127.446L181.026 129.001C181.026 129.001 180.822 130.371 181.551 130.949C182.28 131.527 187 127.018 187 127.018L185.945 122Z" fill="#1C1C35"/>
<path d="M193 123L187.524 123.807L188.245 127.166L185.256 127.973C185.256 127.973 184.633 129.155 185.331 129.879C186.029 130.604 192.846 127.83 192.846 127.83L193 123Z" fill="#1C1C35"/>
<path d="M183.233 39.7505C183.487 40.8936 183.85 41.9898 184.311 43C184.322 40.9009 184.542 38.8042 184.962 36.788C184.994 36.6341 185.026 36.4599 184.968 36.3215C184.913 36.1923 184.8 36.141 184.695 36.1059C182.826 35.4787 182.792 37.7578 183.233 39.7505Z" fill="#292949"/>
<path d="M184.593 42.5309C184.861 43.3173 185.306 44.207 186.195 44.6864C187.241 45.2512 188.359 44.9629 189.14 44.5292C191.718 43.0965 196.188 35.1963 189.466 33.2565C183.363 31.4951 183.478 39.2667 184.593 42.5309Z" fill="#EAC1A4"/>
<path d="M190 43.6029C190.344 44.1728 191.127 44.0432 191.683 43.7491C193.966 42.5419 195.36 39.5249 194.919 36.7437C194.55 34.4166 191.978 32.6092 191.388 35.4643C191.179 36.4765 191.703 37.9012 191.551 39.0262C191.335 40.6342 190.63 42.1586 190 43.6029Z" fill="#292949"/>
<path d="M183.838 29.8391C180.942 31.677 179.648 35.7235 177 38.0002C179.379 39.2522 182.207 39.3326 184.637 38.2174C187.021 37.1238 192.673 36.4611 191.934 32.6707C191.182 28.8129 186.375 28.2288 183.838 29.8391Z" fill="#292949"/>
<path d="M195.385 51.5203C197.134 54.5124 197.128 57.9005 196.885 61.1417C196.338 68.479 197.047 76.9861 194.48 84C189.632 83.9958 180.339 81.8061 175.511 81.3172C174.57 74.9383 175.118 71.2088 175.649 63.9855C175.91 60.4241 176.472 55.6458 177.751 52.253C178.799 49.4755 181.592 45.8886 185.808 46.0027C189.759 46.1095 193.794 48.7993 195.385 51.5203Z" fill="#8CABEF"/>
<path d="M186.657 47.9184C186.255 48.0831 185.763 48.0142 185.286 47.5677C184.876 47.1833 185.002 47.0579 185.089 46.4917C185.217 45.6573 185.447 44.8267 185.624 44L188 44.478C187.998 44.4776 187.522 46.7164 187.486 46.8691C187.371 47.3561 187.059 47.7539 186.657 47.9184Z" fill="#EAC1A4"/>
<path d="M162 54.1098L159.823 52L156.392 52.08L156 53.794L161.186 56L162 54.1098Z" fill="#EAC1A4"/>
<path d="M185 48.0316L182.74 46L170.566 55.6519L161.814 52.5947L159 56.1652L170.712 63L183.093 55.1049L185 48.0316Z" fill="#8CABEF"/>
<path d="M32.781 125L36 126.618L35.7205 128L30 127.282L30.3074 125.292L32.781 125Z" fill="#292949"/>
<path d="M18.4305 126.032L16.4769 126L16 128.241L16.0493 128.26L16.0369 128.262L19.2906 130.796L20.8279 131L21 128.62L20.5812 128.216L18.4305 126.032Z" fill="#292949"/>
<path d="M25.6628 91.008C26.0213 90.9705 27 103.759 27 103.759L20.0494 127L16.0416 126.215L18.483 103.011C18.483 103.011 9.99864 93.2733 12.4419 86C16.1333 87.7815 25.6628 91.008 25.6628 91.008Z" fill="#8CABEF"/>
<path d="M35.1673 91L36 102.37L33.7037 125L29.4675 124.791C29.4675 124.791 28.4468 103.357 28.027 102.92C27.6075 102.482 24 91.2356 24 91.2356L35.1673 91Z" fill="#8CABEF"/>
<path d="M29.512 96.9944C16.5564 96.7489 15.6055 89.9941 12.7529 89.2574C9.9004 88.5204 11.3874 85.0103 11.3874 85.0103C11.3874 85.0103 11.9275 83.4443 12.1586 82.6254C13.8223 76.7314 18.8179 69.1659 18.8197 69.1634C21.2833 65.6894 23.7568 62.6208 25.8917 60.7681C32.2424 55.2575 39.0451 55 39.0451 55C48.843 58.1656 45.3849 62.9255 45.4972 64.1779C42.2745 67.23 39.9402 71.8029 38.2183 76.7129C37.4071 79.3139 36.4499 83.8054 37.1188 89.2574C37.3332 91.0062 37.5814 92.5224 37.8273 93.8426C37.8749 95.5663 36.2707 97.1051 29.512 96.9944Z" fill="#5D66D3"/>
<path d="M39.2328 55.3582C39.2328 55.3582 41.4378 54.1065 42.8033 56.2829C44.4612 58.9255 35.0894 70.8435 35.3119 96.3317C32.8563 96.847 26.5274 98.0774 20 94.8856C21.4829 87.3132 27.8828 64.4751 39.2328 55.3582Z" fill="white"/>
<path d="M44.5357 47.6295C45.8846 48.521 47.0556 50.4158 46.5909 51.9075C46.3671 52.6256 45.7549 53.107 45.5511 53.884C45.1432 55.4144 42.0007 56.5414 43.3224 58.3172C44.0019 59.23 45.3179 59.616 46.5339 59.9386C46.6814 59.9778 46.8364 60.0174 46.9879 59.992C47.2374 59.9501 47.4054 59.7392 47.4516 59.5273C47.4979 59.3156 47.4506 59.0984 47.4241 58.8841C47.1471 56.6432 48.9381 54.3999 49.6016 52.2822C50.2638 50.1685 50.2293 47.7555 48.4994 46C47.0239 46.1156 46.4264 45.8747 45.4794 46.8398L44.5357 47.6295Z" fill="#292949"/>
<path d="M41.6924 56.9887C43.0655 57.1069 44.4071 56.2841 45.2774 55.1176C46.148 53.9509 46.6063 52.4797 46.8913 51.0069C47.8398 46.1057 42.3486 44.5204 39.4539 47.5185C36.9312 50.1312 37.7001 56.6458 41.6924 56.9887Z" fill="#EACDB0"/>
<path d="M34.2991 55.7955C35.0648 55.7394 35.8281 55.6611 36.514 55.1708C37.6227 54.3782 38.2769 52.592 38.9576 51.4612C39.6743 50.2691 40.4947 48.9903 41.8185 48.5353C42.683 48.2381 43.4508 48.4315 44.2628 48.7539C44.819 48.9746 44.7526 49.1902 45.344 49.0907C45.7973 49.0144 46.3878 48.4697 46.637 48.1112C47.0573 47.5066 47.0848 46.6959 46.8615 45.9959C46.5177 44.9185 45.8787 44.1888 44.8629 43.7402C41.2973 42.1654 37.7 43.1555 35.2093 46.2156C34.0121 47.6865 33.5832 49.6998 32.3802 51.0943C31.6372 51.9551 30.7131 52.3502 30.0033 53.3008C28.1617 55.7672 25.139 58.644 24.0512 61.5338C24.011 61.6408 23.9741 61.7626 24.0242 61.8653C24.1256 62.0748 24.4418 62.0026 24.6517 61.8988C25.8779 61.293 27.1038 60.6872 28.3298 60.0814C28.8114 59.8435 29.2997 59.6009 29.6962 59.2407C30.6837 58.3442 31.0261 56.7959 32.2246 56.2033C32.8786 55.8801 33.59 55.8474 34.2991 55.7955Z" fill="#292949"/>
<path d="M30.2935 62L20.5928 59.7498L18 47L21.2205 47.2781L23.7066 55.6045L36.2815 55.9596L37 56.9072L30.2935 62Z" fill="#5D66D3"/>
<path d="M21 45L20.7777 42.4054L19.0986 41L19 41.7568L19.5926 42.4054C19.5926 42.4054 19.7406 43.1622 20.1603 43.5405C20.111 43.973 19.79 44.8919 19.79 44.8919L21 45Z" fill="#EBCEB1"/>
<path d="M79.043 123L81.9806 125.31L83 127.146C83 127.146 81.9555 127.788 81.3684 127.967C80.7812 128.146 76.1261 127.536 76.1261 127.536L76 124.193L79.043 123Z" fill="#273140"/>
<path d="M64.944 125.588L66.2965 127.045C66.2965 127.045 67.397 129.02 66.8452 128.99C66.2935 128.959 63.2951 129.114 63.0934 128.784C62.8915 128.453 61.2994 127.302 61.0913 127.078C60.8832 126.854 61.0959 125 61.0959 125L64.944 125.588Z" fill="#273140"/>
<path d="M73 83.5368L69.5129 104.773L65.065 125L61.1023 124.773L61.8658 103.425C61.8658 103.425 59.0096 83.8037 59 78L73 83.5368Z" fill="#BDBFC1"/>
<path d="M82 84.2826L80.4048 124.804L76.3266 125L74.1581 104.411L71 86.2417L79.4282 75L82 84.2826Z" fill="#BDBFC1"/>
<path d="M80.0979 64.3338C77.9722 53.7111 80.6712 48.5894 76.0188 45.6372C76.0188 45.6372 68.4397 43.4985 63.6117 47.0575C63.5446 47.1068 63.4784 47.1572 63.4123 47.2078L61.6575 50.9531L60.3261 67.7562C60.3261 67.7562 56.6015 89.816 58.5784 89.994C60.8184 90.1958 71.1012 85.2746 73.0538 85.3907C75.0066 85.5071 80.9793 86.6056 86.6176 84.6348C91.4514 82.9451 82.2235 74.9566 80.0979 64.3338Z" fill="#8CABEF"/>
<path d="M70.4699 45L69.1357 45.0562L69 46.5679L73.9017 62L75 55.3128L73.8004 45.6005L70.4699 45Z" fill="white"/>
<path d="M75.2432 68L73 84.3829L77.7297 85L81 84.765L76.8636 70.5515L75.2432 68Z" fill="white"/>
<path d="M72.2126 45.8842C71.2592 45.9228 70.3059 45.9614 69.3524 46C69.2371 45.2594 69.1822 44.5097 69.188 43.7605C68.3655 43.598 67.4018 43.3167 67.1498 42.5288C67.0704 42.2807 67.0779 42.0148 67.0861 41.7548C67.1199 40.6798 66.8136 39.59 67.188 38.5297C67.3121 38.1784 67.2142 37.7748 67.3701 37.4361C67.6439 36.8415 68.2924 36.508 68.9235 36.3079C70.5337 35.7968 72.3826 35.8993 73.8147 36.7863C74.1957 37.0223 74.5525 37.3201 74.7617 37.7127C75.0845 38.3179 75.0119 39.0449 74.931 39.7237C74.8562 40.3503 74.7816 40.9769 74.7068 41.6036C74.621 42.3244 74.4665 43.1515 73.8237 43.5065C73.4824 43.6949 73.0502 43.7136 72.7526 43.9638C72.2277 44.4048 72.426 45.2382 72.2126 45.8842Z" fill="#E7CAAD"/>
<path d="M76.892 30.502C76.6546 30.4804 76.4121 30.4515 76.1616 30.3676C75.3709 30.1021 74.78 29.4863 73.9439 29.2452C72.2526 28.7573 70.2059 29.0211 68.6543 29.8281C67.1694 30.6005 65.089 31.0247 63.7848 32.0045C63.2401 32.4135 62.841 32.9897 62.5532 33.6047C61.5568 35.7353 61.9318 38.4286 63.4732 40.211C63.8189 40.611 64.215 40.9653 64.6259 41.2992C65.4762 41.9901 66.4976 42.8475 67.5541 43C67.4505 42.0953 66.2204 39.3697 66.8127 38.5336C67.5982 37.425 69.3153 37.3072 70.5541 37.3181C72.0301 37.3312 73.1957 36.7629 74.6623 36.7126C75.4094 36.6872 76.2631 36.7648 76.793 36.2413C77.4053 35.6363 78.6502 33.773 78.9156 32.9792C79.1476 32.2839 78.8842 31.4741 78.3355 30.9843C77.8622 30.5616 77.3887 30.5475 76.892 30.502Z" fill="#292949"/>
<path d="M87.114 53.3839L77.3482 45L75 46.8764L83.0832 59.6683L86.732 60C86.732 60 87.7833 56.4388 88 56.0614L87.114 53.3839Z" fill="#8CABEF"/>
<path d="M64.1765 85.2066C62.4303 83.6316 60.3731 82.8935 58.063 83.0124C55.7525 83.1315 53.7822 84.0774 52.2069 85.824C50.6301 87.5721 49.892 89.6295 50.0127 91.9378C50.1318 94.2481 51.0778 96.2185 52.8242 97.7937C53.5166 98.4179 54.2581 98.9108 55.0453 99.2711C56.2415 99.8181 57.5433 100.059 58.9381 99.9879C61.2486 99.8686 63.2187 98.9227 64.7937 97.1763C66.3673 95.4319 67.1054 93.375 66.9879 91.0617C66.867 88.7502 65.9213 86.7802 64.1765 85.2066Z" fill="#3BB3A0"/>
<path d="M66.9874 91.0921C66.862 88.7884 65.8804 86.8252 64.0696 85.2569C63.4848 84.7504 62.8657 84.332 62.2158 84C63.2069 85.2964 63.7556 86.7939 63.847 88.4734C63.9692 90.7789 63.2029 92.8287 61.5698 94.5674C59.9352 96.3079 57.8905 97.2504 55.4925 97.3691C54.045 97.4397 52.6939 97.2003 51.4524 96.655C51.2998 96.5878 51.1493 96.5146 51 96.4382C51.3685 96.9202 51.7963 97.3757 52.2876 97.8012C53.0063 98.4233 53.7759 98.9145 54.5928 99.2736C55.8343 99.8187 57.1854 100.059 58.6329 99.988C61.0309 99.8691 63.0756 98.9263 64.7102 97.1859C66.3433 95.4474 67.1094 93.3975 66.9874 91.0921Z" fill="#07A287"/>
<path d="M131.905 53.0889C131.245 45.9702 127.614 39.4327 121.113 33.6584C114.613 27.8857 107.607 24.9728 100.29 25.0002C93.9284 25.0245 88.1965 27.3446 83.2533 31.8964C82.4202 32.6633 81.9483 33.7476 81.9586 34.8711C81.9686 35.9944 82.4603 37.0697 83.3068 37.8219L87.1779 41.2598C88.7228 42.6315 91.0649 42.6405 92.6252 41.2784C95.3923 38.8632 98.2756 37.6778 101.44 37.6546C105.271 37.6268 109.104 39.2918 112.833 42.6034C116.55 45.9049 118.565 49.5102 118.823 53.3185C119.076 57.114 117.538 60.8581 114.251 64.4469C109.721 69.3938 105.229 71.4484 100.903 70.5537C96.3466 69.6108 90.8823 66.274 84.6521 60.6285L82.977 59.1406C81.3046 57.6552 78.7175 57.7871 77.2097 59.4333L64.0513 73.7999C63.3208 74.5974 62.9494 75.6274 63.0056 76.7001C63.0617 77.773 63.5387 78.7599 64.3486 79.4793L68.2752 82.9668C68.5917 83.2478 68.9406 83.4707 69.3092 83.6369C70.8878 84.3477 72.82 84.0088 74.0425 82.6742L82.5641 73.3702C82.6696 73.2547 82.8527 73.243 82.9708 73.3424C90.4642 79.6481 97.5505 83.0407 104.033 83.4254C110.927 83.8345 117.538 80.642 123.679 73.9362C129.797 67.2566 132.565 60.2429 131.905 53.0889Z" fill="#3BB3A0"/>
<path d="M131.904 53.212C131.239 45.9957 127.579 39.3684 121.026 33.5149C116.969 29.8917 112.717 27.381 108.316 26C110.388 27.2382 112.42 28.7428 114.404 30.5153C120.957 36.3688 124.617 42.9961 125.282 50.2124C125.947 57.4643 123.158 64.5745 116.991 71.3457C110.8 78.1434 104.137 81.3797 97.1879 80.9651C95.1808 80.8453 93.1162 80.4366 91 79.7444C95.4722 82.3078 99.7581 83.7228 103.81 83.9647C110.759 84.3793 117.422 81.143 123.613 74.3453C129.78 67.5741 132.569 60.4641 131.904 53.212Z" fill="#07A287"/>
<path d="M64.6803 46L60.3529 47.3293L50 64.9167L50.7059 68.3169L64.1177 75L66 71.3654L57.5294 64.9167L62.7059 57.8818L64.7059 46.6258L64.6803 46Z" fill="#8CABEF"/>
<path d="M77 45.0726L74.7594 43L72.5999 43.5166L72 45.3765L73.9197 45.6865L75.7228 46L77 45.0726Z" fill="#EAC1A4"/>
<path d="M66.0971 72L67.7991 72.4595L67.5259 73.7738L69 76.0362L66.9791 77L65 74.7881L66.0971 72Z" fill="#E7CAAD"/>
<path d="M21.1933 58.2327C20.0028 58.6356 19.1073 59.4488 18.5312 60.6489C17.9551 61.8494 17.8471 63.1289 18.2095 64.4517C18.5727 65.7761 19.3043 66.7714 20.3844 67.4099C21.4646 68.0497 22.616 68.17 23.8066 67.7671C24.2787 67.6073 24.7044 67.383 25.0825 67.0952C25.6567 66.6581 26.1207 66.075 26.4689 65.3507C27.0448 64.1502 27.153 62.8708 26.7904 61.5481C26.4281 60.2263 25.6967 59.2312 24.6153 58.5897C23.534 57.9502 22.3826 57.8302 21.1933 58.2327Z" fill="#3BB3A0"/>
<path d="M24.5687 58.591C23.4662 57.9501 22.2924 57.8298 21.0797 58.2332C20.6881 58.3634 20.3282 58.5372 20 58.7524C20.867 58.6651 21.7088 58.8542 22.5124 59.3214C23.6149 59.9645 24.3607 60.9618 24.7302 62.2862C25.0999 63.6119 24.9895 64.8941 24.4024 66.0975C24.0474 66.8233 23.5743 67.4078 22.9889 67.8458C22.9167 67.8996 22.8425 67.9505 22.7669 68C23.0894 67.9676 23.4153 67.898 23.7442 67.7886C24.2255 67.6284 24.6595 67.4037 25.045 67.1152C25.6304 66.6772 26.1035 66.0927 26.4585 65.3669C27.0456 64.1637 27.156 62.8816 26.7863 61.5559C26.417 60.2312 25.6712 59.234 24.5687 58.591Z" fill="#07A287"/>
<path d="M25.1525 14.5496C21.4293 12.6842 17.1222 12.5019 12.3509 14.0083C7.58089 15.5142 4.08009 18.16 1.94586 21.872C0.0907169 25.099 -0.441497 28.7168 0.364512 32.6248C0.500224 33.2835 0.899282 33.8573 1.45943 34.1992C2.01935 34.5413 2.69676 34.6248 3.31817 34.4287L6.15914 33.5317C7.2927 33.1735 7.98449 31.9908 7.76717 30.7804C7.38193 28.6337 7.64047 26.8081 8.5579 25.1992C9.66848 23.252 11.6191 21.8264 14.3556 20.9625C17.0836 20.1013 19.4627 20.1952 21.4265 21.2416C23.3829 22.2859 24.7879 24.221 25.6025 26.9936C26.7253 30.8149 26.4257 33.7229 24.712 35.6362C22.9075 37.6508 19.6489 39.3852 15.0212 40.7941L13.7917 41.1822C12.5644 41.5696 11.8702 42.92 12.244 44.1917L15.505 55.29C15.686 55.9061 16.0876 56.4125 16.6362 56.7154C17.1844 57.0185 17.8138 57.0818 18.4082 56.8942L21.2899 55.9845C21.5222 55.9112 21.7352 55.8035 21.9256 55.6683C22.7415 55.0888 23.1406 54.0062 22.8378 52.975L20.7259 45.7877C20.6996 45.6987 20.7476 45.6025 20.8314 45.5734C26.1577 43.729 29.9194 41.1909 32.0131 38.0287C34.2396 34.6659 34.5969 30.334 33.0747 25.1536C31.5587 19.9936 28.8934 16.426 25.1525 14.5496Z" fill="#3BB3A0"/>
<path d="M25.1604 14.5407C21.4406 12.686 17.1374 12.5048 12.3704 14.0025C9.41945 14.9295 6.9554 16.2914 5 18.0702C6.20813 17.4106 7.53445 16.8526 8.97799 16.3989C13.7451 14.9015 18.0483 15.0825 21.7683 16.9373C25.5054 18.8029 28.1686 22.3499 29.6833 27.4801C31.204 32.6306 30.8471 36.9375 28.6226 40.281C27.9801 41.2465 27.1796 42.1535 26.2258 43C28.7795 41.5443 30.718 39.8336 32.0149 37.8843C34.2394 34.5409 34.5963 30.234 33.0756 25.0835C31.5609 19.9533 28.8979 16.4063 25.1604 14.5407Z" fill="#07A287"/>
<path d="M152.841 63.0666C151.195 62.8333 149.697 63.2136 148.389 64.1965C147.081 65.1792 146.3 66.5126 146.067 68.1592C145.833 69.8076 146.213 71.3053 147.196 72.6114C148.179 73.9189 149.513 74.7 151.159 74.9335C151.812 75.0259 152.442 75.022 153.046 74.9219C153.963 74.77 154.821 74.3965 155.611 73.8036C156.919 72.8206 157.7 71.4873 157.933 69.841C158.167 68.196 157.787 66.6984 156.803 65.3885C155.819 64.0808 154.486 63.2997 152.841 63.0666Z" fill="#3BB3A0"/>
<path d="M156.672 65.388C155.579 64.0803 154.1 63.2991 152.274 63.066C151.684 62.9908 151.112 62.9803 150.558 63.0324C151.75 63.4177 152.754 64.0897 153.55 65.0433C154.641 66.3533 155.063 67.8511 154.804 69.4959C154.545 71.1424 153.678 72.4757 152.227 73.4588C151.35 74.0518 150.398 74.4253 149.379 74.5771C149.254 74.596 149.127 74.6101 149 74.6222C149.443 74.7654 149.912 74.8702 150.407 74.9335C151.132 75.0259 151.831 75.022 152.501 74.9219C153.519 74.77 154.472 74.3965 155.349 73.8036C156.8 72.8204 157.667 71.4871 157.926 69.8407C158.185 68.1956 157.763 66.698 156.672 65.388Z" fill="#07A287"/>
<path d="M180.156 17.6663C176.908 13.6543 172.149 11.176 166.011 10.3001C159.874 9.42437 154.59 10.4675 150.305 13.4008C146.579 15.9512 144.146 19.629 143.073 24.3327C142.892 25.1254 143.051 25.9648 143.509 26.6353C143.966 27.3057 144.687 27.7557 145.486 27.8696L149.141 28.3913C150.599 28.599 151.978 27.6708 152.347 26.231C153 23.6777 154.217 21.8166 156.066 20.541C158.304 18.9974 161.224 18.4694 164.744 18.9719C168.253 19.4728 170.886 20.8345 172.567 23.0187C174.242 25.1967 174.844 28.0581 174.356 31.5235C173.684 36.3 171.873 39.324 168.973 40.5113C165.919 41.7614 161.369 41.9357 155.442 41.0288L153.861 40.8031C152.282 40.5778 150.816 41.6882 150.592 43.2779L148.64 57.15C148.532 57.9199 148.728 58.6868 149.192 59.3083C149.656 59.9301 150.333 60.3328 151.097 60.4419L154.804 60.9709C155.103 61.0135 155.398 61.0085 155.681 60.9611C156.894 60.7588 157.892 59.785 158.073 58.4964L159.337 49.5125C159.353 49.4011 159.456 49.3213 159.565 49.3338C166.499 50.1335 172.023 49.3459 175.984 46.993C180.197 44.4907 182.795 39.9387 183.706 33.4637C184.613 27.0142 183.419 21.6991 180.156 17.6663Z" fill="#3BB3A0"/>
<path d="M180.071 17.5579C176.751 13.6025 171.887 11.1592 165.613 10.2957C161.729 9.76096 158.18 9.95258 155 10.8619C156.736 10.777 158.555 10.8637 160.455 11.1252C166.729 11.989 171.593 14.4323 174.913 18.3874C178.248 22.3636 179.469 27.6036 178.541 33.9621C177.61 40.3457 174.955 44.8335 170.649 47.3005C169.406 48.013 168.01 48.5792 166.47 49C170.172 48.7536 173.297 47.9092 175.807 46.4707C180.113 44.0037 182.768 39.516 183.699 33.1323C184.627 26.7738 183.406 21.5338 180.071 17.5579Z" fill="#07A287"/>
<path d="M158 125.58L159.916 125L163 130H159.916L158.059 128.986L158 125.58Z" fill="#292949"/>
<path d="M121.817 115C121.817 115 119.022 117.206 119.058 119.154C119.058 119.154 118.76 123.259 119.517 124.875L123.723 129L131.492 128.464L134 116.609L121.817 115Z" fill="#3B3387"/>
<path d="M130.076 118.22C130.076 118.22 126.579 117.453 125.382 119.678L123 123.783L127.198 129L159 128.905L158.935 125.361L148.647 122.652C149.551 122.085 150.307 121.188 150.761 120.275C151.576 118.639 150.94 117.428 150.284 115.891C150.083 115.419 149.124 112.806 148.301 113.011L130.076 118.22Z" fill="#474EBB"/>
<path d="M112.146 75.093L111 72.6351L111.852 72L112.946 73.4744L113.233 72.9491L114 75.196L113.189 76L112.146 75.093Z" fill="#A0734B"/>
<path d="M133 81.2286L123.387 83.6858L114.883 75L113 76.636L120.831 91L132.575 88.7343L133 81.2286Z" fill="#EED5D5"/>
<path d="M124.073 109.334C126.179 103.284 126.586 96.8694 127.344 90.5183C127.568 88.6445 127.804 86.7296 128.616 85.0377C129.549 83.095 131.021 82.1027 132.716 81.5904C134.873 80.9387 137.39 81.0647 139.614 81C141.721 81.0021 143.326 89.232 145.349 93.2632C146.588 95.7337 147.876 97.9253 148.681 100.602C149.452 103.171 150.189 105.783 150.601 108.442C151.224 112.458 153.05 115.308 151.179 116.604C151.009 116.656 150.847 116.707 150.692 116.758C147.658 117.766 144.529 118.482 141.356 118.806C138.54 119.094 135.692 119.068 132.886 118.687C129.046 118.165 125.331 117.478 122 115.291C122.691 113.305 123.382 111.32 124.073 109.334Z" fill="#EED5D5"/>
<path d="M139.851 75.7243C138.82 71.7886 133.818 70.2472 132.515 74.7296C132.124 76.0769 131.87 77.5118 132.07 78.9114C132.269 80.3108 132.984 81.6732 134.118 82.2854L134.138 82.2952C134.082 82.6544 134.027 83.0139 133.972 83.3731C133.96 83.4501 133.949 83.5357 133.986 83.602C134.028 83.6776 134.115 83.7003 134.193 83.7163C134.573 83.7947 134.953 83.873 135.333 83.9514C135.522 83.9901 135.718 84.0287 135.903 83.9696C136.306 83.84 136.488 83.3068 136.519 82.8353C136.526 82.7223 136.529 82.6083 136.531 82.4938C138.818 81.7034 140.526 78.2974 139.851 75.7243Z" fill="#A0734B"/>
<path d="M133.955 68.0235C132.966 67.8369 132.089 68.8064 131.155 69.2997C130.379 69.7099 129.51 69.7963 128.708 70.1309C127.906 70.4657 127.105 71.194 127.059 72.1375C126.271 71.6786 125.417 71.2063 124.514 71.3553C123.611 71.5041 122.742 72.5862 123.071 73.5138C123.366 74.344 124.392 74.5719 124.71 75.3902C125.213 76.6846 123.682 78.6168 124.658 79.4971C124.892 79.7086 125.218 79.7688 125.448 79.9863C125.734 80.2563 125.815 80.7065 125.933 81.1083C126.47 82.9291 128.185 84.1643 129.924 83.9822C131.016 83.4963 131.908 82.4462 132.332 81.2237C132.842 79.7504 132.089 79.2047 132.004 77.8027C131.91 76.2703 132.43 74.6687 133.395 73.5138C134.024 72.7621 134.909 72.1258 135.826 72.0665C136.198 72.0425 136.071 72.3595 136.498 72.0758C136.682 71.9539 136.942 71.4792 137 71.2494C136.026 70.383 135.256 68.2689 133.955 68.0235Z" fill="#292949"/>
<path d="M144.781 70.7077C145.277 70.8701 145.821 70.8672 146.291 71.1016C146.996 71.4535 146.928 72.2275 147.11 72.908C147.311 73.6613 147.606 74.6735 148.059 75.2697C148.385 75.6994 148.853 75.9538 149.257 76.2905C149.66 76.6271 150.025 77.1162 149.999 77.6972C149.973 78.2478 149.603 78.7305 149.534 79.2788C149.445 80.0968 149.568 80.5214 149.299 81.3516C149.161 81.7798 149.007 82.2331 148.686 82.5175C148.265 82.8925 147.681 82.865 147.171 82.7581C146.661 82.6513 146.136 82.4848 145.625 82.6451C144.517 82.9928 144.685 84.1572 144.363 85.1175C143.873 86.5788 142.207 87.3849 140.968 86.8171C139.919 86.3359 139.343 85.0253 139.431 83.7542C139.475 83.1178 139.737 82.5322 139.774 81.895C139.81 81.2805 139.505 80.4173 140.054 79.9472C140.188 79.8328 140.357 79.7756 140.478 79.6442C140.576 79.5377 140.633 79.3927 140.67 79.2473C140.8 78.7427 140.71 78.1846 140.435 77.7856C140.237 77.4988 139.948 77.2842 139.832 76.9424C139.699 76.5509 139.828 76.1025 139.866 75.6758C139.957 74.645 139.448 73.6132 138.636 73.1863C138.101 72.905 137.617 72.7332 137.154 72.3171C137.084 72.2537 136.035 71.2206 136 71.4348C136.06 71.0616 136.28 70.7409 136.502 70.4473C136.866 69.9648 137.269 69.4962 137.77 69.2168C139.39 68.3134 139.397 70.5414 140.683 70.2921C140.993 70.2318 141.234 69.9452 141.516 69.7787C142.05 69.4642 142.689 69.605 143.217 69.8722C143.745 70.1394 144.223 70.5248 144.781 70.7077Z" fill="#292949"/>
<path d="M115.317 115.106C114.375 114.879 113.485 115.017 112.673 115.514C111.86 116.012 111.333 116.742 111.106 117.683C110.879 118.626 111.017 119.516 111.514 120.328C112.012 121.141 112.742 121.668 113.683 121.894C114.057 121.984 114.422 122.017 114.778 121.992C115.319 121.955 115.837 121.786 116.328 121.486C117.141 120.988 117.668 120.259 117.894 119.317C118.121 118.376 117.983 117.486 117.486 116.672C116.987 115.859 116.258 115.332 115.317 115.106Z" fill="#3BB3A0"/>
<path d="M117.489 116.672C116.994 115.859 116.27 115.332 115.335 115.105C115.033 115.032 114.737 114.998 114.447 115C115.044 115.283 115.528 115.723 115.888 116.316C116.383 117.13 116.519 118.02 116.294 118.961C116.069 119.903 115.546 120.633 114.738 121.13C114.251 121.43 113.736 121.599 113.199 121.636C113.133 121.641 113.067 121.643 113 121.643C113.222 121.748 113.46 121.833 113.713 121.894C114.084 121.984 114.447 122.017 114.8 121.992C115.337 121.955 115.852 121.786 116.339 121.486C117.146 120.988 117.67 120.258 117.895 119.316C118.12 118.376 117.983 117.486 117.489 116.672Z" fill="#07A287"/>
<path d="M136.12 87.2339C134.217 84.4067 131.216 82.4868 127.2 81.5276C123.184 80.5687 119.612 80.918 116.585 82.5659C113.952 83.9983 112.106 86.2495 111.098 89.2567C110.928 89.7634 110.981 90.3223 111.242 90.7894C111.503 91.2563 111.953 91.5959 112.476 91.721L114.868 92.2919C115.822 92.5196 116.795 91.9997 117.131 91.0818C117.725 89.4536 118.65 88.3137 119.957 87.5963C121.539 86.7281 123.509 86.5667 125.813 87.1167C128.109 87.6654 129.77 88.7213 130.748 90.255C131.722 91.7844 131.94 93.6927 131.399 95.9275C130.652 99.0076 129.26 100.87 127.261 101.464C125.157 102.089 122.127 101.916 118.252 100.95L117.217 100.703C116.184 100.456 115.141 101.09 114.893 102.115L112.724 111.061C112.604 111.557 112.685 112.071 112.954 112.506C113.223 112.942 113.646 113.248 114.147 113.367L116.573 113.947C116.768 113.993 116.964 114.009 117.155 113.996C117.972 113.939 118.696 113.366 118.897 112.535L120.302 106.742C120.319 106.67 120.392 106.624 120.464 106.639C125.014 107.598 128.728 107.432 131.504 106.143C134.456 104.772 136.467 101.96 137.479 97.7847C138.488 93.6254 138.03 90.0757 136.12 87.2339Z" fill="#3BB3A0"/>
<path d="M136.091 87.1738C134.159 84.3737 131.111 82.4722 127.032 81.5222C124.507 80.9343 122.155 80.8434 120 81.2464C121.15 81.2967 122.343 81.4648 123.578 81.7523C127.658 82.7025 130.705 84.6038 132.637 87.404C134.577 90.2185 135.041 93.7344 134.017 97.8536C132.99 101.989 130.948 104.774 127.95 106.132C127.084 106.524 126.128 106.811 125.085 106.993C127.541 107.057 129.656 106.693 131.404 105.902C134.402 104.544 136.443 101.759 137.471 97.6235C138.495 93.5041 138.031 89.9884 136.091 87.1738Z" fill="#07A287"/>
<path d="M46.6021 32.0018C45.6315 31.9733 44.7867 32.2915 44.092 32.9469C43.3969 33.6025 43.03 34.4269 43.0017 35.398C42.9735 36.3696 43.2915 37.2142 43.947 37.9082C44.6024 38.6031 45.4271 38.97 46.3979 38.9983C46.7827 39.0095 47.1478 38.9662 47.4919 38.8689C48.0145 38.721 48.4884 38.4485 48.9082 38.0531C49.6031 37.3974 49.9698 36.5729 49.9983 35.602C50.0265 34.6324 49.7085 33.788 49.0528 33.0916C48.3964 32.3967 47.5718 32.03 46.6021 32.0018Z" fill="#3BB3A0"/>
<path d="M48.9133 33.0916C48.1603 32.3967 47.2142 32.03 46.1017 32.0018C45.7424 31.9925 45.3984 32.0201 45.0699 32.0826C45.8138 32.2365 46.4659 32.5678 47.0147 33.0744C47.7673 33.7708 48.1319 34.6152 48.0995 35.585C48.067 36.5557 47.6461 37.3804 46.8489 38.0359C46.3672 38.4313 45.8236 38.7038 45.2239 38.8517C45.1502 38.8699 45.0753 38.8855 45 38.9C45.2766 38.9571 45.5654 38.9907 45.8674 38.9983C46.3089 39.0095 46.7277 38.9662 47.1225 38.8689C47.7221 38.721 48.2658 38.4485 48.7474 38.0531C49.5447 37.3974 49.9653 36.5729 49.998 35.602C50.0305 34.6324 49.6656 33.788 48.9133 33.0916Z" fill="#07A287"/>
<path d="M58.8087 3.34005C56.5926 1.23489 53.5725 0.113916 49.8325 0.0079937C46.0936 -0.097929 42.9938 0.849033 40.6191 2.82209C38.5548 4.53749 37.3412 6.81993 37.0113 9.60621C36.9557 10.0757 37.1069 10.5501 37.4261 10.9073C37.7452 11.2648 38.2075 11.4776 38.6946 11.4913L40.9215 11.5545C41.81 11.5795 42.575 10.9535 42.7001 10.098C42.9219 8.58114 43.5276 7.42683 44.5512 6.56985C45.7906 5.53271 47.5067 5.03746 49.6516 5.09819C51.79 5.15892 53.4597 5.77359 54.6141 6.92544C55.7638 8.07402 56.3157 9.68719 56.2545 11.7202C56.17 14.5222 55.2853 16.3865 53.6253 17.2612C51.877 18.182 49.1598 18.5789 45.5443 18.4417L44.5807 18.4143C43.6185 18.3871 42.8133 19.1239 42.7853 20.0565L42.5402 28.1943C42.5265 28.6462 42.6952 29.076 43.0151 29.4049C43.3348 29.7337 43.7678 29.922 44.2336 29.9353L46.4926 29.9993C46.6746 30.0044 46.8509 29.9821 47.0175 29.9363C47.7313 29.7404 48.2651 29.1133 48.2878 28.3571L48.4466 23.0869C48.4485 23.0217 48.5048 22.9688 48.5713 22.969C52.7836 22.9788 56.0445 22.1641 58.2632 20.5473C60.6227 18.8276 61.8773 16.0296 61.9918 12.2312C62.1057 8.44762 61.0346 5.45603 58.8087 3.34005Z" fill="#3BB3A0"/>
<path d="M58.8708 3.39556C56.6977 1.25542 53.7364 0.115812 50.0691 0.00813103C47.799 -0.0585995 45.7696 0.285652 44 1.03319C44.9932 0.870214 46.0457 0.803902 47.1563 0.836538C50.8236 0.944014 53.785 2.08382 55.9578 4.22375C58.1406 6.37532 59.1907 9.41641 59.079 13.2628C58.9667 17.1246 57.7366 19.9689 55.4229 21.7172C54.7548 22.2221 53.9897 22.6495 53.1311 23C55.2446 22.6131 56.9868 21.9078 58.3358 20.8888C60.6495 19.1405 61.8797 16.296 61.9919 12.4344C62.1036 8.58801 61.0534 5.54671 58.8708 3.39556Z" fill="#07A287"/>
<path d="M122.901 105L121 104.463L121.157 103.482L122.526 103.505L122.42 103L124 103.697L123.952 104.743L122.901 105Z" fill="#A0734B"/>
<path d="M140.149 95L135.848 102.891L124.008 103.135L124 105.359L138.046 108L143 100.549L140.149 95Z" fill="#EED5D5"/>
<path d="M47 72.6956L45.9279 61.1175L43.1733 61L41.291 69.9232L39 73.6805L42.5034 77C42.5034 77 45.4823 75.1883 45.8676 75.059L47 72.6956Z" fill="#5D66D3"/>
<path d="M46 61L45.9855 57.9476L44.4577 57L43 58.098L43.8949 59.5505L44.722 60.9326L46 61Z" fill="#EAC1A4"/>
<path d="M200 54.3933L196.854 42L194.219 42.434L194 57.8264L196.527 60C196.527 60 199.019 57.4187 199.361 57.1994L200 54.3933Z" fill="#8CABEF"/>
<path d="M197 42.7644L196.428 39.6143L194.487 39L193 40.4824L194.3 41.7695L195.509 43L197 42.7644Z" fill="#EAC1A4"/>
</svg>
