<svg width="151" height="155" viewBox="0 0 151 155" fill="none" xmlns="http://www.w3.org/2000/svg">
<path d="M2.27457 114.388L84.8302 66.4114L82.5607 65.1018L0.00390625 113.078L2.27457 114.388Z" fill="#4EAE96"/>
<path d="M65.2551 150.752L147.811 102.776L84.8291 66.4115L2.27344 114.388L65.2551 150.752Z" fill="#4EAE96"/>
<path d="M66.3016 150.941L148.858 102.964L148.854 102.966L66.2969 150.944L66.3016 150.941Z" fill="#38796C"/>
<path d="M66.2984 150.944L148.855 102.966L148.816 102.986L66.2578 150.962L66.2984 150.944Z" fill="#3A7D71"/>
<path d="M66.2575 150.962L148.816 102.986L148.767 103.002L66.2109 150.979L66.2575 150.962Z" fill="#3B8174"/>
<path d="M66.2093 150.979L148.765 103.002L148.706 103.017L66.1484 150.993L66.2093 150.979Z" fill="#3D8678"/>
<path d="M66.1513 150.993L148.709 103.017L148.636 103.025L66.082 151L66.1513 150.993Z" fill="#3F8A7B"/>
<path d="M66.0817 151L148.636 103.025H148.549L65.9922 151.001L66.0817 151Z" fill="#418F7F"/>
<path d="M65.9926 151.001L148.549 103.025L148.438 103.015L65.8828 150.991L65.9926 151.001Z" fill="#439481"/>
<path d="M65.8804 150.991L148.436 103.015L148.295 102.984L65.7383 150.96L65.8804 150.991Z" fill="#459886"/>
<path d="M65.7402 150.96L148.297 102.984L148.087 102.912L65.5312 150.888L65.7402 150.96Z" fill="#479C89"/>
<path d="M65.5309 150.887L148.086 102.911L147.811 102.774L65.2539 150.751L65.5309 150.887Z" fill="#49A18D"/>
<path d="M66.3047 150.94L148.862 102.964L148.98 102.781L66.4241 150.758L66.3047 150.94Z" fill="#6B7077"/>
<path d="M68.1559 151.758L150.714 103.783C150.712 104.415 150.481 104.855 150.091 105.082C122.572 121.075 95.0541 137.066 67.5352 153.058C67.9255 152.832 68.1559 152.391 68.1559 151.758Z" fill="#2F6359"/>
<path d="M65.3086 132.094L147.867 84.1159L84.8838 47.7531L2.32812 95.7283L65.3086 132.094Z" fill="#BDC1C8"/>
<path d="M66.4258 150.758L148.981 102.781L149.03 85.4554L66.4747 133.432L66.4258 150.758Z" fill="#6F737A"/>
<path d="M2.32596 95.7283L2.27344 114.388L65.2551 150.752C65.9773 151.168 66.4214 150.991 66.4226 150.758L66.4716 133.432C66.4716 133.194 66.0322 132.509 65.3064 132.094L2.32596 95.7283Z" fill="#ECF0F6"/>
<path d="M66.475 133.432L149.031 85.4555L149.029 85.4256L66.4727 133.402L66.475 133.432Z" fill="#6B7077"/>
<path d="M66.4696 133.402L149.026 85.4256L149.022 85.3957L66.4648 133.372L66.4696 133.402Z" fill="#70757B"/>
<path d="M66.4669 133.372L149.024 85.3958L149.017 85.3671L66.4609 133.344L66.4669 133.372Z" fill="#747A81"/>
<path d="M66.4627 133.344L149.018 85.3671L149.009 85.3385L66.4531 133.314L66.4627 133.344Z" fill="#7A7F86"/>
<path d="M66.4494 133.314L149.005 85.3385L148.993 85.305L66.4375 133.28L66.4494 133.314Z" fill="#7F838A"/>
<path d="M66.4374 133.28L148.993 85.305L148.979 85.268L66.4219 133.246L66.4374 133.28Z" fill="#83898F"/>
<path d="M66.4226 133.246L148.979 85.268L148.96 85.2262L66.4023 133.203L66.4226 133.246Z" fill="#898D94"/>
<path d="M66.4043 133.203L148.962 85.2262L148.937 85.1773L66.3828 133.154L66.4043 133.203Z" fill="#8D9298"/>
<path d="M66.3811 133.154L148.936 85.1773L148.904 85.12L66.3477 133.096L66.3811 133.154Z" fill="#92959C"/>
<path d="M66.3492 133.096L148.906 85.12L148.865 85.0543L66.3086 133.031L66.3492 133.096Z" fill="#969AA1"/>
<path d="M66.3088 133.031L148.866 85.0543L148.811 84.9731L66.2539 132.951L66.3088 133.031Z" fill="#9A9EA5"/>
<path d="M66.254 132.951L148.811 84.9731L148.738 84.8764L66.1836 132.853L66.254 132.951Z" fill="#9FA3AA"/>
<path d="M66.1808 132.853L148.735 84.8764L148.635 84.7523L66.0781 132.73L66.1808 132.853Z" fill="#A5A8B0"/>
<path d="M66.0795 132.73L148.636 84.7523L148.478 84.584L65.9219 132.56L66.0795 132.73Z" fill="#ABAEB5"/>
<path d="M65.9222 132.56L148.478 84.5839C148.307 84.4168 148.102 84.2521 147.867 84.116L65.3086 132.094C65.5462 132.227 65.7503 132.393 65.9222 132.56Z" fill="#AFB2B9"/>
<path d="M65.3175 130.102L147.873 82.1246L82.622 44.4522L0.0664062 92.4286L65.3175 130.102Z" fill="#4EAE96"/>
<path d="M68.1562 151.758L150.714 103.783L150.763 86.4547L68.2064 134.431L68.1562 151.758Z" fill="#30665C"/>
<path d="M68.1434 133.837C68.1064 133.65 68.055 133.463 67.9882 133.274L67.9774 133.241C67.9082 133.052 67.8258 132.861 67.7291 132.673L67.7124 132.639C67.6157 132.45 67.5059 132.263 67.3829 132.079L67.3543 132.037C67.2384 131.864 67.1107 131.696 66.9758 131.532L66.9197 131.464C66.7824 131.302 66.6368 131.146 66.4851 130.998C66.3634 130.879 66.2344 130.773 66.1031 130.664L65.9252 130.512C65.7295 130.36 65.5265 130.223 65.3164 130.102L147.872 82.1246C148.081 82.2464 148.283 82.3837 148.48 82.5329L148.677 82.7024C148.801 82.8063 148.925 82.909 149.041 83.0224L149.072 83.0499C149.194 83.1693 149.309 83.2934 149.42 83.4199L149.478 83.4892L149.53 83.5537L149.657 83.7065L149.843 83.9584L149.911 84.0622L149.939 84.1028L149.995 84.1864L150.125 84.3977L150.237 84.6007L150.268 84.6615L150.285 84.6938L150.336 84.7952L150.424 84.9874L150.415 84.991V84.9922L150.424 84.9874L150.502 85.1796L150.532 85.2608L150.546 85.3014L150.572 85.3754L150.636 85.5796L150.692 85.8076L150.7 85.8589L150.709 85.9091L150.738 86.0846C150.755 86.2111 150.762 86.3341 150.762 86.4547L68.2055 134.431C68.2055 134.256 68.1851 134.073 68.1529 133.889L68.1434 133.837Z" fill="#49A18D"/>
<path d="M0.0656664 92.4286L0.0573014 94.4187L2.32797 95.7283L65.3084 132.094C66.0342 132.509 66.4736 133.194 66.4736 133.432L66.4246 150.758C66.4234 150.991 65.9793 151.169 65.2571 150.752L2.27544 114.388L0.00477998 113.078L0 115.066L65.2523 152.738C66.8759 153.677 68.1533 153.248 68.1556 151.758L68.2058 134.431C68.2118 132.942 66.9392 131.038 65.3167 130.102L0.0656664 92.4286Z" fill="#479B87"/>
<path d="M63.8771 143.822L2.41406 108.076L2.53464 107.87L63.9965 143.616L63.8771 143.822Z" fill="#B5BBC6"/>
<path d="M54.2852 154.456C53.5976 153.142 52.9111 151.83 52.2247 150.517C52.208 150.487 52.134 150.475 52.0241 150.475C51.5609 150.475 50.4602 150.684 50.3038 150.702C49.6114 150.779 48.919 150.857 48.2266 150.936C49.1661 150.039 49.8203 148.909 50.0686 147.631C50.2943 146.46 50.2382 145.273 50.2752 144.09L56.3374 147.591C56.2992 148.909 56.384 150.24 56.0437 151.523C55.756 152.658 55.1269 153.648 54.2852 154.456Z" fill="#A49977"/>
<path d="M56.5415 145.719L50.4805 142.22C50.8398 140.648 51.7256 139.24 52.7917 138.036C52.9875 137.814 53.1069 137.727 53.2239 137.727C53.3755 137.727 53.5259 137.869 53.8363 138.051C54.5192 138.447 55.2021 138.845 55.8861 139.242C56.994 139.886 58.0995 140.529 59.2074 141.173C57.9789 142.402 56.9343 144.001 56.5415 145.719Z" fill="#C0C3C8"/>
<path d="M56.3357 147.591L50.2734 144.09C50.2866 143.676 50.3116 143.261 50.3642 142.848C50.3928 142.636 50.431 142.426 50.4776 142.22L56.5386 145.719C56.4921 145.917 56.4563 146.117 56.4288 146.318C56.4288 146.317 56.4288 146.317 56.4288 146.317C56.4288 146.317 56.4276 146.324 56.4252 146.341C56.424 146.35 56.4228 146.36 56.4217 146.369C56.4121 146.443 56.4097 146.47 56.4097 146.47C56.4097 146.47 56.4109 146.456 56.4133 146.44C56.3679 146.821 56.3464 147.205 56.3357 147.591ZM56.4133 146.44C56.4157 146.416 56.4193 146.393 56.4217 146.369C56.4228 146.357 56.424 146.348 56.4252 146.341C56.4264 146.334 56.4276 146.326 56.4288 146.318C56.4276 146.326 56.4228 146.36 56.4193 146.393C56.4169 146.409 56.4145 146.425 56.4133 146.44Z" fill="#3C8072"/>
<path d="M53.0358 153.93L50.7055 149.978L46.9771 150.409L46.8828 150.129L50.8654 149.682L52.9415 153.649L53.0358 153.93Z" fill="#B8901C"/>
<path d="M55.0796 145.563C55.1071 145.351 55.1417 145.137 55.1859 144.925C55.2492 144.635 55.3339 144.352 55.4378 144.075L55.4545 144.025C55.5548 143.757 55.6706 143.496 55.7971 143.246L55.8294 143.182C55.9499 142.945 56.0753 142.721 56.2066 142.506L56.2627 142.413C56.3952 142.203 56.5266 142.004 56.6603 141.82L56.7832 141.651C56.8859 141.514 56.985 141.379 57.0793 141.261L57.1473 141.174C57.2655 141.031 57.3754 140.898 57.4709 140.791L57.5007 140.757L57.7407 140.495L57.7622 140.471L57.8625 140.366L51.8038 136.846L51.6987 136.954L51.6808 136.973L51.4468 137.231L51.411 137.271L51.3824 137.303C51.2952 137.404 51.1937 137.524 51.0911 137.652L51.023 137.739L50.9215 137.866L50.7258 138.131L50.5992 138.3L50.5598 138.355C50.4643 138.491 50.3664 138.636 50.2709 138.785L50.2029 138.896L50.1515 138.981L50.0393 139.162C49.9748 139.274 49.9104 139.389 49.8459 139.507L49.7683 139.661L49.7373 139.723L49.6835 139.831L49.5415 140.14L49.4197 140.441L49.3934 140.504L49.3791 140.551L49.3087 140.744L49.2132 141.058C49.1809 141.173 49.1535 141.287 49.1284 141.403V141.409C49.083 141.613 49.0484 141.818 49.0234 142.023L49.0222 142.043C48.9828 142.35 48.9625 142.66 48.9481 142.971L48.9398 143.212C48.9326 143.507 48.929 143.805 48.9278 144.109C48.9255 144.409 48.9195 144.711 48.9099 145.012L48.8968 145.304C48.8861 145.561 48.8646 145.818 48.8371 146.076L48.8097 146.331L48.7727 146.554C48.7404 146.735 48.7082 146.915 48.6664 147.095L48.6401 147.195C48.5816 147.432 48.5064 147.667 48.4157 147.901L48.4002 147.933C48.3047 148.174 48.1913 148.413 48.0564 148.651L48.0432 148.673C47.9035 148.915 47.7424 149.153 47.5561 149.391L47.5287 149.424C47.3401 149.661 47.1275 149.897 46.8828 150.129L50.8654 149.682L52.9415 153.649L53.0346 153.561C53.1647 153.43 53.2913 153.298 53.4035 153.167L53.5874 152.945L53.6136 152.91L53.6387 152.883L53.8154 152.643L53.961 152.426L54.0864 152.223L54.1019 152.195L54.1138 152.17L54.1974 152.021L54.3001 151.819L54.3968 151.609L54.4589 151.455L54.4732 151.42L54.4911 151.377L54.5842 151.12L54.6761 150.813L54.7 150.717L54.7239 150.617L54.7728 150.415C54.7979 150.303 54.8122 150.188 54.8313 150.075L54.8695 149.849L54.8815 149.778L54.8958 149.605C54.9232 149.342 54.9459 149.082 54.9555 148.82L54.9686 148.54C54.9782 148.236 54.9829 147.932 54.9853 147.631C54.9853 147.326 54.9901 147.028 54.9985 146.732L55.008 146.491C55.02 146.181 55.0414 145.87 55.0796 145.563Z" fill="#FBC818"/>
<path d="M57.8624 140.366L57.9686 140.64C57.9447 140.659 55.9499 142.664 55.4771 144.857C55.2992 145.686 55.2968 146.548 55.2885 147.462C55.2765 149.496 55.2562 151.814 53.0357 153.93L52.9414 153.649C54.953 151.736 54.9697 149.649 54.9852 147.631C54.9888 146.694 54.9972 145.811 55.1858 144.925C55.6968 142.54 57.7752 140.455 57.8624 140.366Z" fill="#B8901C"/>
<path d="M26.6172 89.9215L70.8449 115.625L128.775 82.1772L84.5477 56.4752L26.6172 89.9215Z" fill="#439583"/>
<path d="M84.829 59.0539L29.1249 91.2157L26.8984 89.9215L84.829 56.4753L129.058 82.1772L126.83 83.4641L84.829 59.0539Z" fill="#2B6358"/>
<path d="M17.125 96.7717L61.354 122.474L68.0585 118.601L23.8319 92.899L17.125 96.7717Z" fill="#36796C"/>
<path d="M145.523 83.4892L145.52 82.324L147.803 82.164L145.523 83.4892Z" fill="#3F8E7C"/>
<path d="M145.523 83.525V83.4892L147.804 82.164L147.873 82.1593L145.523 83.525Z" fill="#3B8274"/>
<path d="M65.3452 130.12C65.3356 130.114 65.3249 130.108 65.3153 130.102L4.04688 94.7279L65.3153 130.102L91.7932 114.714L65.3153 130.102C65.3249 130.108 65.3356 130.114 65.3452 130.119V130.12Z" fill="#939DA2"/>
<path d="M65.3146 130.102L4.04608 94.7279L0.117188 92.4596L27.6743 90.5387L70.8408 115.625L82.1368 109.103L91.7925 114.714L65.3146 130.102ZM23.8314 92.8989L17.1245 96.7717L61.3534 122.474L68.058 118.601L23.8314 92.8989Z" fill="#3F8E7C"/>
<path d="M65.3463 130.119C65.3367 130.114 65.326 130.108 65.3164 130.102L91.7943 114.714L91.8241 114.732L65.3463 130.119Z" fill="#3B8274"/>
<path d="M65.3175 130.137L0.0664062 92.4632L0.120123 92.4596L4.04902 94.7279L65.3175 130.102C65.327 130.108 65.3378 130.114 65.3473 130.12L65.3175 130.137Z" fill="#3A7E6F"/>
<path d="M70.8422 115.625L27.6758 90.5388L27.9313 90.5208L29.1263 91.2157L30.658 90.331L47.781 89.1372L82.1382 109.103L70.8422 115.625Z" fill="#37786B"/>
<path d="M29.1286 91.2157L27.9336 90.5209L30.6603 90.3311L29.1286 91.2157Z" fill="#265249"/>
<path d="M61.354 122.474L17.125 96.7717L23.8319 92.899L68.0585 118.601L61.354 122.474Z" fill="#2D6359"/>
<path d="M144.274 87.8011L78.0727 49.3276L78.0703 49.33L144.273 87.8023L144.274 87.8011Z" fill="#E5E8F1"/>
<path d="M144.271 87.8025L78.0681 49.3302L78.0586 49.3433L144.261 87.8156L144.271 87.8025Z" fill="#E6EAF1"/>
<path d="M144.272 87.8099V87.8018L144.262 87.8156L144.272 87.8099Z" fill="#676B72"/>
<path d="M143.855 85.3014L77.6535 46.8291L77.6523 46.8899L143.854 85.3635L143.855 85.3014Z" fill="#49508A"/>
<path d="M143.853 85.3635L77.652 46.89L77.6484 46.9569L143.851 85.4292L143.853 85.3635Z" fill="#4C528F"/>
<path d="M143.853 85.4292L77.6505 46.9569L77.6445 47.0225L143.848 85.496L143.853 85.4292Z" fill="#4F5594"/>
<path d="M143.848 85.496L77.6439 47.0225L77.6367 47.0906L143.84 85.5629L143.848 85.496Z" fill="#505798"/>
<path d="M143.841 85.5629L77.6373 47.0906L77.6289 47.1574L143.831 85.6297L143.841 85.5629Z" fill="#525A9B"/>
<path d="M143.829 85.6297L77.6264 47.1574L77.6133 47.2242L143.817 85.6978L143.829 85.6297Z" fill="#545C9F"/>
<path d="M143.818 85.6977L77.6147 47.2242L77.6016 47.2947L143.804 85.767L143.818 85.6977Z" fill="#575EA4"/>
<path d="M143.804 85.767L77.6015 47.2947L77.5859 47.3627L143.789 85.8339L143.804 85.767Z" fill="#5A61A8"/>
<path d="M143.791 85.8338L77.5882 47.3627L77.5703 47.4308L143.773 85.9031L143.791 85.8338Z" fill="#5C63AB"/>
<path d="M143.772 85.9031L77.5699 47.4308L77.5508 47.494L143.753 85.9676L143.772 85.9031Z" fill="#5E66AF"/>
<path d="M143.754 85.9676L77.5516 47.494L77.5312 47.5573L143.734 86.0296L143.754 85.9676Z" fill="#6167B3"/>
<path d="M143.732 86.0296L77.5293 47.5573L77.5078 47.6158L143.712 86.0893L143.732 86.0296Z" fill="#636BB7"/>
<path d="M143.712 86.0893L77.5086 47.6158L77.4883 47.6719L143.691 86.1443L143.712 86.0893Z" fill="#666DBA"/>
<path d="M143.689 86.1443L77.4864 47.6719L77.4648 47.7257L143.667 86.198L143.689 86.1443Z" fill="#6970BE"/>
<path d="M143.669 86.198L77.4668 47.7256L77.4453 47.7746L143.648 86.2469L143.669 86.198Z" fill="#6C73C1"/>
<path d="M143.647 86.247L77.4446 47.7746L77.4219 47.8236L143.626 86.2971L143.647 86.247Z" fill="#7F83CA"/>
<path d="M143.625 86.2971L77.4211 47.8236L77.3984 47.8761L143.6 86.3484L143.625 86.2971Z" fill="#878BCD"/>
<path d="M143.6 86.3484L77.3982 47.8761L77.3672 47.9322L143.57 86.4045L143.6 86.3484Z" fill="#8C90D0"/>
<path d="M143.571 86.4045L77.3684 47.9322L77.3242 48.0146L143.524 86.4857L143.571 86.4045Z" fill="#9294D1"/>
<path d="M143.526 86.4857L77.3256 48.0146L77.2695 48.1006L143.472 86.5753L143.526 86.4857Z" fill="#9699D4"/>
<path d="M143.47 86.5752L77.2677 48.1005L77.2188 48.1721L143.421 86.6432L143.47 86.5752Z" fill="#9294D1"/>
<path d="M143.421 86.6433L77.2185 48.1721L77.1875 48.2127L143.39 86.6851L143.421 86.6433Z" fill="#8C90D0"/>
<path d="M143.389 86.6851L77.1864 48.2128L77.1602 48.245L143.364 86.7161L143.389 86.6851Z" fill="#878BCD"/>
<path d="M143.364 86.7161L77.1606 48.245L77.1367 48.2737L143.338 86.7472L143.364 86.7161Z" fill="#7F83CA"/>
<path d="M143.337 86.7471L77.1356 48.2736L77.1094 48.3023L143.312 86.7746L143.337 86.7471Z" fill="#6C73C1"/>
<path d="M143.312 86.7746L77.1098 48.3023L77.0859 48.3286L143.287 86.8009L143.312 86.7746Z" fill="#6970BE"/>
<path d="M143.286 86.8009L77.0849 48.3285L77.0586 48.3536L143.261 86.8259L143.286 86.8009Z" fill="#666DBA"/>
<path d="M143.263 86.8259L77.0602 48.3536L77.0352 48.3775L143.238 86.851L143.263 86.8259Z" fill="#636BB7"/>
<path d="M143.241 86.851L77.038 48.3774L77.0117 48.399L143.214 86.8725L143.241 86.851Z" fill="#6167B3"/>
<path d="M143.212 86.8725L77.0094 48.399L76.9844 48.4193L143.187 86.8916L143.212 86.8725Z" fill="#5E66AF"/>
<path d="M143.187 86.8916L76.9848 48.4193L76.9609 48.4372L143.164 86.9107L143.187 86.8916Z" fill="#5C63AB"/>
<path d="M143.164 86.9105L76.9614 48.437L76.9375 48.4537L143.14 86.9272L143.164 86.9105Z" fill="#5A61A8"/>
<path d="M143.138 86.9274L76.9355 48.4539L76.9141 48.4694L143.115 86.9429L143.138 86.9274Z" fill="#575EA4"/>
<path d="M143.119 86.9427L76.9172 48.4691L76.8945 48.4835L143.096 86.957L143.119 86.9427Z" fill="#545C9F"/>
<path d="M143.094 86.9573L76.8927 48.4838L76.8867 48.4861L143.088 86.9597L143.094 86.9573Z" fill="#525A9B"/>
<path d="M143.792 62.6533L77.5898 24.181L77.6543 46.8291L143.856 85.3015L143.792 62.6533Z" fill="#4F5696"/>
<path d="M143.471 61.8594L77.2695 23.3859L77.4426 23.5602L143.645 62.0325L143.471 61.8594Z" fill="#35395F"/>
<path d="M143.644 62.0325L77.4414 23.5602L77.4856 23.6402L143.687 62.1125L143.644 62.0325Z" fill="#373C64"/>
<path d="M143.686 62.1125L77.4844 23.6402L77.5142 23.713L143.717 62.1853L143.686 62.1125Z" fill="#383E68"/>
<path d="M143.718 62.1853L77.5156 23.713L77.5395 23.7823L143.741 62.2558L143.718 62.1853Z" fill="#3A406D"/>
<path d="M143.74 62.2558L77.5391 23.7823L77.5558 23.8491L143.758 62.3214L143.74 62.2558Z" fill="#3C4371"/>
<path d="M143.761 62.3214L77.5586 23.8491L77.5729 23.9159L143.774 62.3883L143.761 62.3214Z" fill="#3F4575"/>
<path d="M143.772 62.3883L77.5703 23.916L77.5787 23.9816L143.782 62.4539L143.772 62.3883Z" fill="#414779"/>
<path d="M143.786 62.4539L77.582 23.9816L77.5892 24.0461L143.792 62.5196L143.786 62.4539Z" fill="#434A7D"/>
<path d="M143.788 62.5196L77.5859 24.0461L77.5895 24.1117L143.793 62.5841L143.788 62.5196Z" fill="#454C82"/>
<path d="M143.794 62.584L77.5898 24.1117L77.5922 24.1774L143.795 62.6497L143.794 62.584Z" fill="#474E87"/>
<path d="M143.796 62.6497L77.5938 24.1774V24.181L143.796 62.6533V62.6509V62.6497Z" fill="#49508A"/>
<path d="M143.471 61.8594L77.27 23.3859L77.2031 23.356L143.406 61.8296L143.471 61.8594Z" fill="#6B7077"/>
<path d="M143.404 61.8296L77.201 23.356L77.1484 23.3417L143.351 61.814L143.404 61.8296Z" fill="#70757B"/>
<path d="M143.353 61.814L77.15 23.3417L77.1094 23.3346L143.312 61.8093L143.353 61.814Z" fill="#747A81"/>
<path d="M143.31 61.8092L77.1076 23.3346L77.0742 23.3334L143.278 61.8068L143.31 61.8092Z" fill="#7A7F86"/>
<path d="M143.28 61.8069L77.0767 23.3334L77.0469 23.3346L143.249 61.8081L143.28 61.8069Z" fill="#7F838A"/>
<path d="M143.248 61.8081L77.0458 23.3346L77.0195 23.3369L143.221 61.8104L143.248 61.8081Z" fill="#83898F"/>
<path d="M143.22 61.81L77.0184 23.3365L76.9922 23.3412L143.195 61.8148L143.22 61.81Z" fill="#898D94"/>
<path d="M143.196 61.8148L76.9938 23.3413L76.9688 23.3473L143.173 61.8196L143.196 61.8148Z" fill="#8D9298"/>
<path d="M143.173 61.8196L76.9692 23.3473L76.9453 23.3545L143.148 61.8256L143.173 61.8196Z" fill="#92959C"/>
<path d="M143.146 61.8259L76.9434 23.3548L76.9219 23.3608L143.123 61.8331L143.146 61.8259Z" fill="#969AA1"/>
<path d="M143.123 61.8323L76.9211 23.36L76.8984 23.3696L143.1 61.8407L143.123 61.8323Z" fill="#9A9EA5"/>
<path d="M143.102 61.8409L76.9004 23.3698L76.8789 23.3769L143.08 61.8504L143.102 61.8409Z" fill="#9FA3AA"/>
<path d="M143.08 61.8507L76.8781 23.3772L76.8555 23.3879L143.058 61.8614L143.08 61.8507Z" fill="#A5A8B0"/>
<path d="M143.055 61.8621L76.8523 23.3886L76.832 23.4005L143.033 61.8728L143.055 61.8621Z" fill="#ABAEB5"/>
<path d="M143.036 61.8725L76.8343 23.4002L76.8164 23.4098L143.019 61.8821L143.036 61.8725Z" fill="#AFB2B9"/>
<path d="M144.651 59.8347L78.4487 21.3624L78.2422 21.2669L144.444 59.7392L144.651 59.8347Z" fill="#35395F"/>
<path d="M144.441 59.7392L78.2398 21.2669L78.0703 21.2203L144.273 59.6938L144.441 59.7392Z" fill="#373C64"/>
<path d="M144.275 59.6938L78.0721 21.2203L77.9336 21.2L144.136 59.6735L144.275 59.6938Z" fill="#383E68"/>
<path d="M144.136 59.6735L77.9334 21.2L77.8164 21.1952L144.021 59.6688L144.136 59.6735Z" fill="#3A406D"/>
<path d="M144.019 59.6687L77.8145 21.1952L77.707 21.1988L143.908 59.6723L144.019 59.6687Z" fill="#3C4371"/>
<path d="M143.911 59.6723L77.7093 21.1988L77.6055 21.2096L143.808 59.6819L143.911 59.6723Z" fill="#3F4575"/>
<path d="M143.806 59.6819L77.6033 21.2096L77.5078 21.2251L143.709 59.6974L143.806 59.6819Z" fill="#414779"/>
<path d="M143.71 59.6974L77.5084 21.2251L77.4141 21.2466L143.615 59.7189L143.71 59.6974Z" fill="#434A7D"/>
<path d="M143.615 59.7189L77.4138 21.2466L77.3242 21.2705L143.524 59.744L143.615 59.7189Z" fill="#454C82"/>
<path d="M143.525 59.744L77.3251 21.2705L77.2344 21.3003L143.437 59.7726L143.525 59.744Z" fill="#474E87"/>
<path d="M143.435 59.7726L77.2329 21.3003L77.1445 21.3337L143.347 59.8072L143.435 59.7726Z" fill="#49508A"/>
<path d="M143.348 59.8072L77.1457 21.3337L77.0586 21.3707L143.26 59.843L143.348 59.8072Z" fill="#4C528F"/>
<path d="M143.261 59.8425L77.0595 21.3702L76.9688 21.412L143.173 59.8843L143.261 59.8425Z" fill="#4F5594"/>
<path d="M143.171 59.8846L76.9672 21.4122L76.8789 21.4588L143.081 59.9311L143.171 59.8846Z" fill="#505798"/>
<path d="M143.083 59.9314L76.8806 21.4591L76.8125 21.4973L143.015 59.9708L143.083 59.9314Z" fill="#525A9B"/>
<path d="M143.091 86.9596L76.8899 48.4861L27.1992 77.175L93.403 115.647L143.091 86.9596Z" fill="#5A61A8"/>
<path d="M93.3996 115.647L27.197 77.175L25.4062 78.2089L91.6088 116.682L93.3996 115.647Z" fill="#404881"/>
<path d="M91.6088 116.682L25.4062 78.2089L25.4098 80.1214L91.6148 118.594L91.6088 116.682Z" fill="#4F5696"/>
<path d="M143.017 61.8821L76.8145 23.4098L27.125 52.0987L93.3276 90.571L143.017 61.8821Z" fill="#BEC1CA"/>
<path d="M93.3276 90.571L27.125 52.0987L27.1954 77.175L93.3992 115.647L93.3276 90.571Z" fill="#ECF0F6"/>
<path d="M143.018 61.8821L93.3281 90.571L93.3998 115.647L143.088 86.9596C143.506 86.7197 143.858 85.9604 143.856 85.3014L143.792 62.6533C143.79 61.9955 143.434 61.6409 143.018 61.8821Z" fill="#6F747B"/>
<path d="M91.5352 89.6923L91.5411 91.6048L93.3307 90.571L143.02 61.8821C143.437 61.6409 143.793 61.9955 143.795 62.6533L143.858 85.3014C143.861 85.9604 143.508 86.7197 143.091 86.9597L93.4023 115.647L91.6116 116.682L91.6175 118.594L143.098 88.8722C143.519 88.6286 143.917 88.2585 144.263 87.8156C145.022 86.8343 145.53 85.5139 145.526 84.3392L145.462 61.6911C145.457 59.9648 144.358 59.1936 143.015 59.9708L91.5352 89.6923Z" fill="#363B63"/>
<path d="M143.016 59.9708L76.8135 21.4973L25.332 51.22L91.5358 89.6923L143.016 59.9708Z" fill="#5A61A8"/>
<path d="M91.5358 89.6923L25.332 51.22L25.3392 53.1313L91.5418 91.6048L91.5358 89.6923Z" fill="#4F5696"/>
<path d="M93.3733 95.4489L93.2539 95.2424L140.994 67.6459L141.115 67.8524L93.3733 95.4489Z" fill="#5E646F"/>
<path d="M93.2856 95.4489L27.0938 57.1056L27.2143 56.899L93.4061 95.2424L93.2856 95.4489Z" fill="#B5BBC6"/>
<path d="M100.888 107.176C100.046 106.368 99.4159 105.378 99.1294 104.243C98.6877 102.578 98.9598 100.835 98.7557 99.1438C98.7593 99.1689 98.7617 99.1892 98.7617 99.1892C98.7617 99.1892 98.7581 99.1629 98.7497 99.0901C98.7485 99.0817 98.7473 99.0746 98.7461 99.0662C98.7437 99.0447 98.7426 99.0364 98.7426 99.0364C98.7426 99.0364 98.7426 99.0388 98.7426 99.0424C98.4823 97.1143 97.3601 95.2985 96.0039 93.9292L102.012 90.4564C102.112 90.4826 102.22 90.5733 102.383 90.7572C103.588 92.1193 104.564 93.7429 104.807 95.5683C105.009 97.1573 104.799 98.7702 105.104 100.351C105.352 101.628 106.006 102.76 106.945 103.655C106.254 103.578 105.562 103.5 104.87 103.423C104.713 103.405 103.613 103.195 103.15 103.195C103.038 103.195 102.964 103.208 102.948 103.237C102.262 104.549 101.574 105.863 100.888 107.176ZM98.7557 99.1438C98.7545 99.1343 98.7533 99.1236 98.7521 99.1128C98.7485 99.0842 98.745 99.0543 98.7426 99.0424C98.7438 99.0507 98.7449 99.0579 98.7461 99.0662C98.7473 99.0722 98.7485 99.0806 98.7497 99.0901C98.7521 99.108 98.7533 99.1259 98.7557 99.1438Z" fill="#5C6166"/>
<path d="M96.0018 93.9292C95.9887 93.9173 95.9768 93.9053 95.9648 93.8934C97.0715 93.2487 98.1794 92.6053 99.2861 91.9618C99.9701 91.5655 100.653 91.1691 101.336 90.7716C101.647 90.5901 101.797 90.448 101.948 90.448C101.969 90.448 101.989 90.4504 102.01 90.4564L96.0018 93.9292Z" fill="#4E545D"/>
<path d="M102.137 106.649L104.468 102.698L108.195 103.129L108.29 102.85L104.307 102.402L102.231 106.37L102.137 106.649Z" fill="#7B2026"/>
<path d="M100.091 98.2843C100.064 98.0706 100.029 97.8581 99.984 97.6444C99.9231 97.3555 99.8359 97.0726 99.7344 96.7944L99.7165 96.7443C99.6163 96.4768 99.5004 96.2166 99.3751 95.9659L99.3417 95.9014C99.2223 95.6662 99.0945 95.4406 98.9632 95.2257L98.9059 95.1338C98.7758 94.9237 98.6433 94.7243 98.5108 94.5405L98.3878 94.3709C98.2863 94.2336 98.1848 94.0987 98.0905 93.9805L98.0225 93.8946C97.9055 93.7501 97.7945 93.6188 97.7001 93.5102L97.6703 93.4779L97.4315 93.2141L97.4089 93.1914L97.3086 93.0864L103.367 89.5658L103.472 89.6732L103.489 89.6923L103.724 89.9514L103.761 89.992L103.789 90.023C103.876 90.1233 103.976 90.245 104.08 90.3728L104.149 90.4587L104.249 90.5853L104.445 90.8503L104.572 91.0211L104.611 91.0748C104.707 91.2121 104.805 91.3553 104.9 91.5057L104.967 91.6156L105.021 91.7015L105.131 91.8818C105.196 91.9952 105.262 92.1098 105.324 92.228L105.402 92.382L105.433 92.4441L105.488 92.5515L105.63 92.8595L105.751 93.1616L105.775 93.2249L105.792 93.2714L105.861 93.4648L105.958 93.7788C105.989 93.8934 106.018 94.008 106.043 94.1238V94.1286C106.088 94.3339 106.121 94.5393 106.148 94.7434L106.149 94.7637C106.188 95.0705 106.209 95.3797 106.222 95.6913L106.231 95.9325C106.24 96.2273 106.242 96.5246 106.243 96.8302C106.246 97.1287 106.252 97.4307 106.261 97.7316L106.273 98.024C106.285 98.2807 106.305 98.5386 106.334 98.7953L106.36 99.0507L106.398 99.274C106.428 99.4542 106.462 99.6357 106.505 99.816L106.53 99.9151C106.591 100.151 106.665 100.387 106.757 100.621L106.771 100.654C106.866 100.894 106.98 101.134 107.116 101.372L107.128 101.393C107.266 101.634 107.427 101.873 107.614 102.111L107.641 102.144C107.831 102.38 108.043 102.617 108.288 102.849L104.306 102.402L102.23 106.37L102.136 106.281C102.005 106.15 101.881 106.018 101.766 105.888L101.584 105.666L101.555 105.631L101.532 105.602L101.356 105.364L101.21 105.146L101.085 104.942L101.069 104.915L101.056 104.891L100.974 104.742L100.87 104.539L100.775 104.33L100.712 104.176L100.697 104.14L100.68 104.098L100.588 103.84L100.495 103.532L100.471 103.438L100.446 103.337L100.397 103.136C100.373 103.023 100.359 102.909 100.34 102.796L100.302 102.569L100.29 102.499L100.275 102.325C100.247 102.063 100.225 101.803 100.214 101.54L100.201 101.259C100.192 100.956 100.188 100.653 100.186 100.351C100.185 100.045 100.18 99.7491 100.171 99.4519L100.163 99.2119C100.15 98.9003 100.13 98.5911 100.091 98.2843Z" fill="#DA413E"/>
<path d="M97.3082 93.0864L97.2031 93.361C97.2246 93.3801 99.2207 95.3845 99.6923 97.5764C99.8713 98.4061 99.8749 99.268 99.8833 100.183C99.894 102.217 99.9143 104.535 102.135 106.649L102.229 106.37C100.216 104.456 100.2 102.37 100.185 100.351C100.181 99.4137 100.173 98.5315 99.9836 97.6444C99.4738 95.2592 97.3965 93.1747 97.3082 93.0864Z" fill="#7B2026"/>
<path d="M77.7184 30.9225L75.7915 32.034C75.0991 32.4351 75.0036 32.8864 75.5981 33.2314C76.1986 33.5812 77.008 33.543 77.6993 33.143L79.6261 32.0316L77.7184 30.9225ZM81.4574 35.3266L83.3831 34.2139L81.3273 33.0201L79.4005 34.1315C78.523 34.6389 78.3559 35.1773 78.9779 35.5391C79.6428 35.9259 80.5788 35.8339 81.4574 35.3266ZM72.7473 34.3918C71.3242 33.5645 71.7576 32.2716 73.8551 31.0622L78.2723 28.511L87.5591 33.9071L82.982 36.5502C80.7746 37.8241 78.3881 38.0461 76.8134 37.1304C75.6077 36.4296 75.4441 35.4626 76.3896 34.6508C75.123 35.0603 73.7286 34.9624 72.7473 34.3918Z" fill="#1F2851"/>
<path d="M61.1166 47.007C62.5432 46.1832 62.5444 44.7793 60.9805 43.8696C59.4166 42.9611 57.0373 42.9695 55.5987 43.8004C54.1542 44.6337 54.1852 45.9803 55.7515 46.89C57.3154 47.7997 59.6732 47.8403 61.1166 47.007ZM63.4016 42.4597C66.1223 44.0415 65.9993 46.4745 63.1115 48.1411C60.22 49.8113 55.9975 49.8674 53.2922 48.2963C50.5978 46.7312 50.7482 44.3066 53.6408 42.6364C56.5263 40.9698 60.6964 40.8874 63.4016 42.4597Z" fill="#1F2851"/>
<path d="M38.707 51.3537L46.0252 51.5829L47.7682 56.8811L50.6119 55.2396L49.4336 51.6927L52.0361 51.7692L54.3199 53.0979L56.698 51.725L47.4112 46.3289L45.0355 47.7006L49.0539 50.0369L41.4564 49.7671L38.707 51.3537Z" fill="#1F2851"/>
<path d="M71.6879 40.9041C73.1145 40.0804 73.1229 38.6741 71.5578 37.7632C69.9927 36.8547 67.6122 36.8642 66.1688 37.6975C64.7255 38.5308 64.7554 39.8775 66.3205 40.786C67.8844 41.6957 70.2434 41.7374 71.6879 40.9041ZM73.9717 36.3568C76.6937 37.9387 76.5695 40.3705 73.6888 42.0359C70.7902 43.7084 66.5736 43.7622 63.8671 42.1911C61.1739 40.6248 61.3195 38.2037 64.2169 36.5311C67.0988 34.8681 71.2665 34.7846 73.9717 36.3568Z" fill="#1F2851"/>
<path d="M48.5859 60.2012L67.0664 70.9409L111.263 45.4228L92.7838 34.6831L48.5859 60.2012Z" fill="#1B2344"/>
<path d="M68.6719 72.4403L72.7619 74.816L116.96 49.2991L112.87 46.9222L68.6719 72.4403Z" fill="#1B2344"/>
<path d="M143.013 59.9708L142.73 59.8061L143.013 59.9708C143.023 59.9648 143.034 59.9589 143.043 59.9529L143.081 59.9314L142.741 59.7332L143.081 59.9314L143.161 59.8896C143.112 59.9147 143.064 59.9409 143.013 59.9708Z" fill="#D0C5A4"/>
<path d="M143.082 59.9313L142.742 59.7332L142.817 59.689L143.162 59.8896L143.082 59.9313Z" fill="#7076AE"/>
<path d="M143.014 59.9708L142.731 59.8061C142.729 59.7846 142.728 59.7643 142.727 59.7428L142.742 59.7332L143.082 59.9314L143.044 59.9529C143.035 59.9589 143.024 59.9648 143.014 59.9708Z" fill="#7378B0"/>
<path d="M91.8217 89.6923L91.6797 89.6088L136.689 63.6227C136.695 63.674 136.7 63.7265 136.707 63.7779L91.8217 89.6923ZM142.776 60.274C142.77 60.2215 142.765 60.1701 142.759 60.1176L143.016 59.9708C143.066 59.9409 143.115 59.9147 143.164 59.8896L143.302 59.9708L142.776 60.274Z" fill="#585D85"/>
<path d="M91.6777 89.6088L25.6172 51.22L32.5724 47.2028L38.2181 50.4834C38.495 50.7079 38.7756 50.9311 39.0573 51.1508L38.7051 51.3537L39.3414 51.374C42.9444 54.1831 46.7682 56.714 50.7807 58.9345L48.5853 60.2012L67.0657 70.9409L70.2532 69.1012L72.3472 70.3177L68.6702 72.4403L72.7603 74.816L76.4349 72.6934L96.6392 84.4347L136.61 61.358L96.6392 84.4347L94.8497 85.4686L94.8545 87.3811L136.655 63.2466C136.665 63.372 136.674 63.4974 136.687 63.6227L91.6777 89.6088ZM142.757 60.1176C142.746 60.0138 142.738 59.9099 142.731 59.806L143.013 59.9708L142.757 60.1176Z" fill="#787EBB"/>
<path d="M39.3434 51.3741L38.707 51.3538L39.0592 51.1508C39.1535 51.226 39.249 51.3 39.3434 51.3741Z" fill="#414878"/>
<path d="M67.0664 70.9409L48.5859 60.2012L50.7814 58.9345C54.1014 60.7707 57.5516 62.3954 61.1092 63.7863L70.2539 69.1012L67.0664 70.9409Z" fill="#3D446C"/>
<path d="M72.7619 74.816L68.6719 72.4403L72.3489 70.3176L76.4365 72.6934L72.7619 74.816Z" fill="#3D446C"/>
<path d="M147.097 54.9018L80.8945 16.4307V16.4319L147.097 54.9042V54.9018Z" fill="#A72932"/>
<path d="M147.097 54.9041L80.8945 16.4318V16.4342L147.097 54.9065V54.9041Z" fill="#AC2933"/>
<path d="M147.097 54.9066L80.8945 16.4342V16.4378L147.096 54.9101L147.097 54.9066Z" fill="#B22A34"/>
<path d="M147.097 54.9101L80.8957 16.4378L80.8945 16.4402L147.097 54.9137V54.9101Z" fill="#B82B35"/>
<path d="M147.097 54.9137L80.8945 16.4402V16.4438L147.097 54.9161V54.9137Z" fill="#BC2B36"/>
<path d="M147.097 54.9161L80.8945 16.4438V16.445L147.097 54.9197V54.9161Z" fill="#C12D38"/>
<path d="M147.098 54.9197L80.8957 16.4474L80.8945 16.4522L147.097 54.9245L147.098 54.9197Z" fill="#C62E39"/>
<path d="M147.094 54.9245L80.8918 16.4522L80.8906 16.4569L147.093 54.9292L147.094 54.9245Z" fill="#CA2F3B"/>
<path d="M147.096 54.9292L80.893 16.4569L80.8906 16.4629L147.093 54.9364L147.096 54.9292Z" fill="#D02F3B"/>
<path d="M147.09 54.9364L80.8879 16.4629L80.8867 16.4689L147.089 54.9412L147.09 54.9364Z" fill="#D52F3C"/>
<path d="M147.092 54.9412L80.8891 16.4689L80.8867 16.4772L147.088 54.9495L147.092 54.9412Z" fill="#D9303D"/>
<path d="M147.087 54.9495L80.8852 16.4772L80.8828 16.4844L147.085 54.9579L147.087 54.9495Z" fill="#DD323F"/>
<path d="M147.086 54.9579L80.8837 16.4844L80.8789 16.4939L147.081 54.9675L147.086 54.9579Z" fill="#E23140"/>
<path d="M147.081 54.9674L80.8786 16.4939L80.875 16.5034L147.078 54.977L147.081 54.9674Z" fill="#E63242"/>
<path d="M147.078 54.977L80.8759 16.5035L80.8711 16.5154L147.074 54.9889L147.078 54.977Z" fill="#EB3143"/>
<path d="M147.071 54.9889L80.8681 16.5154L80.8633 16.5273L147.065 55.0009L147.071 54.9889Z" fill="#EE4356"/>
<path d="M147.066 55.0009L80.865 16.5273L80.8555 16.5452L147.058 55.0188L147.066 55.0009Z" fill="#EE4C5F"/>
<path d="M147.06 55.0188L80.8572 16.5453L80.8477 16.5632L147.051 55.0355L147.06 55.0188Z" fill="#EF5167"/>
<path d="M147.048 55.0355L80.8445 16.5631L80.8242 16.599L147.028 55.0713L147.048 55.0355Z" fill="#F0586D"/>
<path d="M147.03 55.0713L80.8266 16.599L80.7812 16.6706L146.985 55.1429L147.03 55.0713Z" fill="#F05E72"/>
<path d="M146.983 55.1429L80.7789 16.6706L80.7383 16.7291L146.941 55.2014L146.983 55.1429Z" fill="#F0586D"/>
<path d="M146.942 55.2014L80.7393 16.7291L80.707 16.7709L146.91 55.2432L146.942 55.2014Z" fill="#EF5167"/>
<path d="M146.909 55.2432L80.7068 16.7709L80.6758 16.8103L146.877 55.2826L146.909 55.2432Z" fill="#EE4C5F"/>
<path d="M146.877 55.2826L80.6753 16.8103L80.6406 16.8497L146.844 55.322L146.877 55.2826Z" fill="#EE4356"/>
<path d="M146.845 55.322L80.6413 16.8497L80.6055 16.8891L146.808 55.3626L146.845 55.322Z" fill="#EB3143"/>
<path d="M146.808 55.3626L80.6058 16.8891L80.5664 16.9309L146.769 55.4044L146.808 55.3626Z" fill="#E63242"/>
<path d="M146.767 55.4044L80.5649 16.9308L80.5195 16.9762L146.723 55.4473L146.767 55.4044Z" fill="#E23140"/>
<path d="M146.724 55.4474L80.5204 16.9762L80.4727 17.0204L146.676 55.4927L146.724 55.4474Z" fill="#DD323F"/>
<path d="M146.677 55.4927L80.4732 17.0204L80.4219 17.0658L146.626 55.5369L146.677 55.4927Z" fill="#D9303D"/>
<path d="M146.627 55.5369L80.4236 17.0658L80.3711 17.1087L146.572 55.5811L146.627 55.5369Z" fill="#D52F3C"/>
<path d="M146.57 55.5811L80.3686 17.1087L80.3125 17.1505L146.515 55.6228L146.57 55.5811Z" fill="#D02F3B"/>
<path d="M146.516 55.6229L80.3139 17.1505L80.2578 17.1911L146.459 55.6634L146.516 55.6229Z" fill="#CA2F3B"/>
<path d="M146.459 55.6629L80.2577 17.1905L80.1992 17.2288L146.402 55.7011L146.459 55.6629Z" fill="#C62E39"/>
<path d="M146.402 55.7015L80.1991 17.2292L80.1406 17.2662L146.342 55.7385L146.402 55.7015Z" fill="#C12D38"/>
<path d="M146.342 55.7386L80.1405 17.2663L80.125 17.2735L146.329 55.747L146.342 55.7386Z" fill="#BC2B36"/>
<path d="M147.058 40.7477L80.8555 2.27541L80.896 16.4306L147.099 54.9018L147.058 40.7477Z" fill="#B62A35"/>
<path d="M146.996 40.6582L80.7942 2.1871L80.75 2.16681L146.953 40.6391L146.996 40.6582Z" fill="#6B7077"/>
<path d="M146.952 40.6391L80.7497 2.16679L80.7031 2.15485L146.906 40.6272L146.952 40.6391Z" fill="#70757B"/>
<path d="M146.907 40.6272L80.7043 2.15485L80.6602 2.14888L146.863 40.6212L146.907 40.6272Z" fill="#747A81"/>
<path d="M146.863 40.6212L80.6601 2.14888L80.6172 2.14649L146.82 40.6188L146.863 40.6212Z" fill="#7A7F86"/>
<path d="M146.82 40.6188L80.6172 2.14649L80.5742 2.14768L146.776 40.62L146.82 40.6188Z" fill="#7F838A"/>
<path d="M146.774 40.62L80.5727 2.14768L80.5273 2.15366L146.73 40.6248L146.774 40.62Z" fill="#83898F"/>
<path d="M146.73 40.6248L80.5274 2.15367L80.4844 2.15964L146.686 40.632L146.73 40.6248Z" fill="#898D94"/>
<path d="M146.685 40.6319L80.484 2.15961L80.4375 2.17037L146.64 40.6427L146.685 40.6319Z" fill="#8D9298"/>
<path d="M146.64 40.6427L80.4372 2.17038L80.3906 2.1823L146.593 40.6558L146.64 40.6427Z" fill="#92959C"/>
<path d="M146.593 40.6558L80.3903 2.18232L80.3438 2.19785L146.545 40.6714L146.593 40.6558Z" fill="#969AA1"/>
<path d="M146.548 40.6714L80.347 2.19785L80.2969 2.21694L146.498 40.6893L146.548 40.6714Z" fill="#9A9EA5"/>
<path d="M146.496 40.6892L80.2947 2.21692L80.2422 2.2396L146.445 40.7119L146.496 40.6892Z" fill="#9FA3AA"/>
<path d="M146.444 40.7119L80.2412 2.2396L80.1875 2.26467L146.389 40.737L146.444 40.7119Z" fill="#A5A8B0"/>
<path d="M146.39 40.737L80.1889 2.2647L80.1328 2.29455L146.335 40.7669L146.39 40.737Z" fill="#ABAEB5"/>
<path d="M146.335 40.7668L80.1325 2.2945L80.0859 2.31959L146.288 40.7931L146.335 40.7668Z" fill="#AFB2B9"/>
<path d="M146.994 40.6577L80.793 2.18653L80.8431 2.23192L147.046 40.7054L146.994 40.6577Z" fill="#771F25"/>
<path d="M147.046 40.7057L80.8438 2.23224L80.8497 2.24416L147.052 40.7153L147.046 40.7057Z" fill="#7B2026"/>
<path d="M147.05 40.7153L80.8477 2.24423L80.8512 2.24901L147.054 40.7225L147.05 40.7153Z" fill="#7F2228"/>
<path d="M147.054 40.7226L80.8516 2.24906L80.8528 2.25504L147.055 40.7285L147.054 40.7226Z" fill="#852129"/>
<path d="M147.058 40.7285L80.8555 2.25503L80.8567 2.25981L147.059 40.7321L147.058 40.7285Z" fill="#8A232B"/>
<path d="M147.058 40.7322L80.8555 2.25985L80.8567 2.26343L147.058 40.7357V40.7322Z" fill="#8F242B"/>
<path d="M147.057 40.7357L80.8555 2.26345V2.26581L147.057 40.7393V40.7357Z" fill="#94252C"/>
<path d="M147.057 40.7393L80.8555 2.26582V2.2682L147.058 40.7405L147.057 40.7393Z" fill="#98262D"/>
<path d="M147.058 40.7405L80.8555 2.26821V2.2706L147.058 40.7441V40.7405Z" fill="#9D272F"/>
<path d="M147.058 40.7442L80.8555 2.27184V2.27542L147.058 40.7477V40.7442Z" fill="#A32830"/>
<path d="M147.058 40.7477L80.8555 2.27542L147.058 40.7477Z" fill="#A72932"/>
<path d="M147.356 38.4867L147.343 38.4879C147.186 38.5082 147.02 38.5487 146.845 38.6108L146.832 38.6156C146.656 38.6801 146.472 38.766 146.281 38.8759L80.0781 0.403534L80.1772 0.349819L80.3026 0.284153L80.4243 0.225658L80.5449 0.175495L80.6297 0.143288L80.6416 0.138508L80.6631 0.13134L80.7789 0.0931282L80.8947 0.062088L81.0105 0.0346336L81.1287 0.0155411H81.1418L81.1526 0.0131531L81.2457 0.00359344L81.3663 7.62939e-06L81.4952 0.00478745L81.5835 0.0191269L81.6015 0.0203209L81.6325 0.0251007L81.7913 0.0692596L81.9692 0.150429C104.038 12.9745 126.104 25.7974 148.172 38.6227C148.063 38.5595 147.94 38.5177 147.805 38.4938L147.783 38.4903C147.651 38.47 147.508 38.4676 147.356 38.4867Z" fill="#BC2B36"/>
<path d="M146.33 55.747L80.1258 17.2735L30.4375 45.9624L96.6389 84.4347L146.33 55.747Z" fill="#CC2F3B"/>
<path d="M94.8522 85.4686L28.6484 46.9951L28.6556 48.9076L94.857 87.3799L94.8522 85.4686Z" fill="#B62A35"/>
<path d="M96.6417 84.4347L30.4404 45.9623L28.6484 46.995L94.8522 85.4685L96.6417 84.4347Z" fill="#CC2F3B"/>
<path d="M96.5959 69.4808L30.3945 31.0073L30.4375 45.9624L96.6389 84.4347L96.5959 69.4808Z" fill="#ECF0F6"/>
<path d="M146.287 40.7932L80.0841 2.31966L30.3945 31.0073L96.5959 69.4808L146.287 40.7932Z" fill="#BEC1CA"/>
<path d="M96.5977 69.4808L96.6406 84.4347L146.331 55.747C146.838 55.4545 147.1 55.0044 147.1 54.9018L147.06 40.7477C147.06 40.6439 146.795 40.4994 146.288 40.7931L96.5977 69.4808Z" fill="#6F747B"/>
<path d="M94.8008 68.5986L94.8067 70.5147L96.5963 69.4808L146.287 40.7931C146.793 40.4995 147.058 40.6439 147.058 40.7478L147.099 54.9018C147.099 55.0045 146.836 55.4545 146.33 55.747L96.6393 84.4347L94.8497 85.4686L94.8545 87.3811L146.335 57.6583C147.703 56.8692 148.767 55.2373 148.764 53.9408L148.724 39.7867C148.72 38.4878 147.648 38.0867 146.281 38.8758L94.8008 68.5986Z" fill="#7B2026"/>
<path d="M146.283 38.8758L80.0806 0.403519L28.6016 30.1263L94.8029 68.5986L146.283 38.8758Z" fill="#CC2F3B"/>
<path d="M94.8029 68.5986L28.6016 30.1263L28.6075 32.0424L94.8089 70.5147L94.8029 68.5986Z" fill="#B62A35"/>
<path d="M96.7639 75.8571L96.6445 75.6506L144.386 48.0516L144.505 48.2581L96.7639 75.8571Z" fill="#5E646F"/>
<path d="M96.6762 75.8571L30.4844 37.5137L30.605 37.3072L96.7956 75.6506L96.6762 75.8571Z" fill="#B5BBC6"/>
<path d="M63.4909 19.9704C56.0509 24.2646 58.7131 32.7993 69.4385 39.0334C80.1579 45.2628 94.8838 46.8315 102.323 42.5373C109.761 38.2431 107.101 29.7073 96.3808 23.4779C85.6543 17.2449 70.9272 15.6762 63.4909 19.9704Z" fill="#A42730"/>
<path d="M96.3815 25.0895C85.6549 18.8565 70.9279 17.2878 63.4915 21.582C60.9713 23.0385 59.6127 24.9821 59.3334 27.1572C58.9919 24.2932 60.3219 21.6919 63.4915 19.8629C70.9279 15.5687 85.6549 17.1374 96.3815 23.3716C103.467 27.4879 107.028 32.613 106.482 36.8535C106.024 32.9975 102.533 28.665 96.3815 25.0895Z" fill="#771D23"/>
<path d="M87.793 54.546L92.037 57.0113L125.884 37.4695L121.642 35.0043L87.793 54.546Z" fill="#8C222A"/>
<path d="M98.3242 56.4609L101.489 58.3006L126.743 43.7204L123.577 41.8819L98.3242 56.4609Z" fill="#8C222A"/>
<path d="M146.28 38.8759L140.926 35.7647L146.28 38.8759Z" fill="#D4C29F"/>
<path d="M146.28 38.8759L140.926 35.7647L146.28 38.8759Z" fill="#CA4756"/>
<path d="M94.8008 68.5986L146.281 38.8758H146.282L94.8008 68.5986Z" fill="#953E48"/>
<path d="M94.8029 68.5986L28.6016 30.1263L36.4964 25.5682C46.6117 35.0484 58.969 42.0932 72.4497 45.8012C79.8765 47.8439 87.5301 48.8515 95.1682 48.8515C96.0194 48.8515 96.8718 48.8383 97.723 48.8133L87.7928 54.546L92.0368 57.0113L107.754 47.937C110.456 47.543 113.141 47.0213 115.796 46.3743L98.3247 56.4609L101.49 58.3006L126.744 43.7204L125.914 43.2381C130.319 41.5691 134.598 39.5324 138.69 37.1364C139.446 36.6887 140.19 36.2303 140.929 35.7647L146.283 38.8758L94.8029 68.5986Z" fill="#D64959"/>
<path d="M92.037 57.0113L87.793 54.546L97.7233 48.8133C101.081 48.7154 104.43 48.4229 107.754 47.937L92.037 57.0113Z" fill="#A3404B"/>
<path d="M101.489 58.3006L98.3242 56.4609L115.796 46.3743C119.227 45.5374 122.605 44.4916 125.914 43.2381L126.743 43.7204L101.489 58.3006Z" fill="#A3404B"/>
<path d="M138.655 67.7247C137.947 67.0454 137.389 66.2384 137.059 65.3239L143.019 61.8821C143.029 61.8773 143.037 61.8725 143.046 61.8678C143.075 61.8534 143.104 61.8403 143.132 61.8308C143.301 62.2868 143.524 62.719 143.795 63.1201L143.798 64.1003C143.411 64.0573 143.023 64.0131 142.636 63.9701C142.48 63.9522 141.379 63.7445 140.917 63.7445C140.805 63.7445 140.731 63.7564 140.715 63.7863C140.029 65.0983 139.341 66.4115 138.655 67.7247Z" fill="#5C6166"/>
<path d="M137.059 65.3239C136.997 65.1508 136.942 64.9729 136.897 64.7926C136.807 64.4572 136.748 64.1181 136.707 63.7779L142.775 60.274C142.8 60.4829 142.831 60.6918 142.872 60.8996C142.934 61.2195 143.021 61.5311 143.132 61.8308C143.105 61.8403 143.076 61.8534 143.046 61.8677C143.038 61.8725 143.03 61.8773 143.02 61.8821L137.059 65.3239ZM144.714 64.2029C144.408 64.1683 144.104 64.1348 143.798 64.1002L143.796 63.1201C144.059 63.5104 144.367 63.8722 144.714 64.2029Z" fill="#303552"/>
<path d="M142.733 59.806L142.676 59.7726L142.728 59.7428C142.729 59.7642 142.731 59.7845 142.733 59.806Z" fill="#5F6590"/>
<path d="M136.705 63.7779C136.698 63.7265 136.693 63.674 136.688 63.6227L142.757 60.1176C142.763 60.1701 142.768 60.2215 142.774 60.274L136.705 63.7779Z" fill="#4A4F6D"/>
<path d="M136.688 63.6227C136.675 63.4974 136.666 63.372 136.656 63.2467L142.674 59.7726L142.732 59.8061C142.739 59.9099 142.747 60.0138 142.758 60.1176L136.688 63.6227Z" fill="#63689A"/>
<path d="M136.611 61.358C136.605 60.8065 136.59 60.2561 136.525 59.7117C136.528 59.7272 136.529 59.738 136.529 59.738C136.529 59.738 136.527 59.7189 136.519 59.6663C136.518 59.6568 136.517 59.6472 136.516 59.6389C136.511 59.5995 136.51 59.5852 136.51 59.5852C136.51 59.5852 136.51 59.5875 136.51 59.5911C136.248 57.6595 135.121 55.8377 133.762 54.4684L139.762 51.0003C139.866 51.0206 139.978 51.1113 140.149 51.3059C141.356 52.6669 142.331 54.2905 142.575 56.1171C142.649 56.6949 142.668 57.2763 142.676 57.8565L136.611 61.358Z" fill="#5C6166"/>
<path d="M136.655 63.2466C136.613 62.6199 136.618 61.9884 136.609 61.358L142.674 57.8565C142.684 58.4857 142.682 59.116 142.725 59.7428L142.673 59.7726L136.655 63.2466Z" fill="#661F24"/>
<path d="M133.763 54.4684C133.753 54.46 133.744 54.4505 133.734 54.4409C134.841 53.7975 135.95 53.154 137.057 52.5105C137.741 52.113 138.424 51.7166 139.105 51.3203C139.417 51.1388 139.567 50.9968 139.718 50.9968C139.733 50.9968 139.748 50.998 139.763 51.0004L133.763 54.4684Z" fill="#4E545D"/>
<path d="M136.523 59.7118C136.521 59.6973 136.519 59.6793 136.517 59.6613C136.514 59.6324 136.509 59.6036 136.508 59.5904C136.51 59.6072 136.513 59.6228 136.514 59.6385C136.515 59.6481 136.516 59.6565 136.517 59.6661C136.52 59.6805 136.521 59.6961 136.523 59.7118Z" fill="#5C6166"/>
<path d="M139.805 67.2854L142.135 63.3326L145.863 63.7648L145.958 63.4842L141.975 63.0377L139.899 67.0048L139.805 67.2854Z" fill="#29642D"/>
<path d="M137.759 58.919C137.732 58.7053 137.698 58.4928 137.653 58.2803C137.591 57.9914 137.504 57.7073 137.402 57.4291L137.385 57.3802C137.284 57.1127 137.168 56.8513 137.044 56.6006L137.011 56.5373C136.891 56.3021 136.764 56.0765 136.632 55.8616L136.575 55.7685C136.444 55.5584 136.311 55.359 136.18 55.1752L136.056 55.008C135.954 54.8695 135.854 54.7346 135.761 54.6152L135.69 54.5293C135.573 54.386 135.464 54.2535 135.369 54.1461L135.339 54.1126L135.1 53.85L135.078 53.8261L134.977 53.7223L141.036 50.2005L141.14 50.3091L141.158 50.327L141.392 50.5861L141.43 50.6279L141.457 50.6589C141.545 50.7592 141.644 50.8798 141.749 51.0087L141.817 51.0934L141.919 51.22L142.114 51.4862L142.24 51.6558L142.28 51.7095C142.377 51.8468 142.473 51.9912 142.569 52.1404L142.636 52.2503L142.689 52.3362L142.8 52.5177C142.865 52.6311 142.93 52.7457 142.993 52.8627L143.071 53.0179L143.102 53.0788L143.155 53.1862L143.298 53.4954L143.421 53.7963L143.444 53.8608L143.46 53.9061L143.53 54.0995L143.626 54.4135C143.658 54.5281 143.687 54.6427 143.712 54.7585V54.7645C143.756 54.9698 143.789 55.1728 143.817 55.3781L143.819 55.3984C143.857 55.7052 143.878 56.0144 143.891 56.3272L143.899 56.566C143.908 56.862 143.911 57.1605 143.912 57.4661C143.916 57.7646 143.921 58.0654 143.929 58.3675L143.942 58.6599C143.953 58.9166 143.973 59.1733 144.002 59.43L144.029 59.6866L144.068 59.9087C144.096 60.0901 144.13 60.2716 144.174 60.4507L144.198 60.551C144.261 60.7874 144.334 61.0213 144.425 61.2553L144.439 61.2888C144.534 61.5299 144.648 61.7687 144.784 62.0074L144.796 62.0289C144.934 62.2689 145.097 62.5088 145.283 62.7464L145.31 62.7798C145.499 63.0174 145.713 63.2514 145.957 63.4842L141.975 63.0377L139.899 67.0048L139.806 66.9153C139.673 66.7851 139.55 66.6538 139.434 66.5213L139.253 66.3004L139.224 66.2658L139.2 66.2384L139.025 65.9984L138.878 65.7823L138.754 65.5782L138.739 65.5507L138.724 65.5268L138.643 65.3776L138.539 65.1735L138.443 64.9646L138.38 64.8105L138.366 64.7747L138.349 64.7341L138.256 64.4751L138.163 64.1683L138.14 64.0728L138.115 63.9737L138.066 63.7719C138.042 63.6585 138.028 63.5439 138.009 63.4305L137.971 63.2037L137.958 63.1332L137.944 62.9601C137.915 62.6987 137.895 62.436 137.882 62.1758L137.87 61.8952C137.861 61.5908 137.856 61.2876 137.854 60.9855C137.854 60.6811 137.849 60.3838 137.841 60.0878L137.831 59.8466C137.818 59.535 137.799 59.2258 137.759 58.919Z" fill="#66C24C"/>
<path d="M134.976 53.7223L134.871 53.9957C134.894 54.0148 136.89 56.0192 137.36 58.2123C137.539 59.0432 137.543 59.9039 137.551 60.8172C137.562 62.8515 137.583 65.1687 139.804 67.2854L139.898 67.0048C137.886 65.0911 137.87 63.0043 137.853 60.9855C137.851 60.0496 137.843 59.1662 137.653 58.2803C137.143 55.8951 135.065 53.8106 134.976 53.7223Z" fill="#90D462"/>
</svg>
