<svg width="426" height="329" viewBox="0 0 426 329" fill="none" xmlns="http://www.w3.org/2000/svg">
<path d="M424.223 325.566H1.43555C0.696467 325.566 0.0509107 326.125 0.00300689 326.861C-0.0494592 327.669 0.591544 328.342 1.38766 328.342H424.223C424.99 328.342 425.612 327.719 425.612 326.953C425.612 326.186 424.99 325.566 424.223 325.566Z" fill="url(#paint0_linear_1697_11239)"/>
<path d="M157.029 59.2303C145.441 64.0868 132.062 58.6098 127.206 47.0217C122.347 35.4335 127.824 22.0547 139.412 17.1981C151.003 12.3416 164.382 17.8163 169.238 29.4068C174.095 40.9949 168.618 54.3738 157.029 59.2303Z" fill="url(#paint1_linear_1697_11239)"/>
<path d="M156.798 58.6828C145.511 63.4139 132.479 58.0806 127.748 46.7936C123.019 35.5065 128.352 22.4744 139.639 17.7456C150.926 13.0145 163.956 18.3478 168.687 29.6349C173.418 40.9219 168.085 53.9518 156.798 58.6828Z" fill="url(#paint2_linear_1697_11239)"/>
<path d="M164.976 31.3038C168.845 40.5356 164.497 51.1565 155.268 55.0253C146.036 58.8941 135.415 54.5463 131.546 45.3145C127.677 36.0828 132.025 25.4641 141.255 21.5953C150.486 17.7265 161.107 22.0721 164.976 31.3038Z" fill="white"/>
<path d="M154.865 54.0672C146.128 57.7284 136.041 53.5996 132.379 44.8628C128.716 36.1261 132.845 26.0389 141.581 22.3777C150.318 18.7165 160.405 22.8453 164.067 31.5821C167.73 40.3188 163.601 50.406 154.865 54.0672Z" fill="white"/>
<path d="M134.157 43.1251L131.319 44.3136C130.854 44.5098 130.635 45.0481 130.828 45.5135C131.025 45.9788 131.563 46.2001 132.028 46.0039L134.866 44.8154C135.331 44.6193 135.553 44.0809 135.356 43.6156C135.16 43.1502 134.622 42.929 134.157 43.1251Z" fill="url(#paint3_linear_1697_11239)"/>
<path d="M153.614 51.0907C153.146 51.2846 152.927 51.823 153.121 52.2883L154.31 55.126C154.506 55.5914 155.044 55.8127 155.51 55.6165C155.977 55.4226 156.196 54.8842 156.002 54.4189L154.812 51.5812C154.618 51.1158 154.079 50.8945 153.614 51.0907Z" fill="url(#paint4_linear_1697_11239)"/>
<path d="M164.419 30.4418L161.582 31.6303C161.116 31.8264 160.895 32.3648 161.091 32.8302C161.287 33.2955 161.823 33.5168 162.291 33.3206L165.129 32.1321C165.594 31.9359 165.815 31.3999 165.619 30.9323C165.423 30.4669 164.885 30.2456 164.419 30.4418Z" fill="url(#paint5_linear_1697_11239)"/>
<path d="M140.934 20.8292C140.467 21.0231 140.248 21.5614 140.442 22.0291L141.632 24.8645C141.826 25.3321 142.365 25.5511 142.832 25.3572C143.298 25.161 143.517 24.6227 143.323 24.1573L142.134 21.3196C141.938 20.8543 141.4 20.633 140.934 20.8292Z" fill="url(#paint6_linear_1697_11239)"/>
<path d="M147.31 13.1122L147.563 9.5148C147.584 9.22054 147.839 8.99699 148.136 9.01752L152.262 9.30723C152.557 9.32776 152.78 9.58552 152.76 9.87978L152.506 13.4771C152.486 13.7737 152.23 13.9949 151.934 13.9744L147.807 13.6847C147.513 13.6642 147.289 13.4087 147.31 13.1122Z" fill="url(#paint7_linear_1697_11239)"/>
<path d="M131.215 19.9584L128.473 17.6157C128.247 17.4241 127.91 17.4491 127.718 17.675L125.031 20.8207C124.839 21.0465 124.864 21.3841 125.09 21.578L127.832 23.9184C128.058 24.1123 128.396 24.0849 128.589 23.8591L131.274 20.7134C131.468 20.4899 131.441 20.15 131.215 19.9584Z" fill="url(#paint8_linear_1697_11239)"/>
<path d="M135.63 14.0608C135.363 14.1726 135.057 14.0472 134.946 13.7825L133.942 11.3874C133.832 11.1227 133.958 10.8148 134.222 10.7053L139.109 8.65684C139.373 8.54506 139.681 8.67052 139.791 8.93741L140.794 11.3303C140.906 11.5972 140.781 11.9029 140.516 12.0147L135.63 14.0608Z" fill="url(#paint9_linear_1697_11239)"/>
<path d="M136.915 14.9256C134.533 15.1058 132.197 13.769 131.223 11.4446C130.005 8.53839 131.374 5.19651 134.278 3.97838C137.184 2.76254 140.526 4.12894 141.744 7.0351C142.718 9.35958 142.036 11.9646 140.236 13.5363L140.779 14.8343C143.256 12.9318 144.253 9.52611 142.99 6.51274C141.486 2.92451 137.344 1.22963 133.758 2.73289C130.17 4.23616 128.475 8.37869 129.978 11.9669C131.239 14.9803 134.367 16.6569 137.46 16.2258L136.915 14.9256Z" fill="url(#paint10_linear_1697_11239)"/>
<path d="M139.24 16.7777C139.808 16.5405 140.382 16.326 140.96 16.1344L139.513 12.6808L136.812 13.8099L138.243 17.2225C138.569 17.0674 138.902 16.9191 139.24 16.7777Z" fill="url(#paint11_linear_1697_11239)"/>
<path d="M149.764 37.5427C150.122 38.3936 149.72 39.3745 148.869 39.7303C148.019 40.0862 147.038 39.687 146.682 38.8338C146.324 37.983 146.725 37.0044 147.576 36.6462C148.429 36.2904 149.408 36.6918 149.764 37.5427Z" fill="url(#paint12_linear_1697_11239)"/>
<path d="M150.002 24.5244L148.809 38.2591C148.78 38.6059 148.474 38.8613 148.13 38.8317C147.783 38.7997 147.527 38.4963 147.557 38.1496C147.562 38.0949 147.457 38.7016 150.002 24.5244Z" fill="url(#paint13_linear_1697_11239)"/>
<path d="M160.3 44.9867L147.98 38.8003C147.67 38.6429 147.544 38.2665 147.699 37.9562C147.857 37.646 148.233 37.5205 148.543 37.6757C148.594 37.7008 148.069 37.3791 160.3 44.9867Z" fill="url(#paint14_linear_1697_11239)"/>
<path d="M148.853 37.9237C148.999 38.2728 148.835 38.672 148.486 38.818C148.139 38.9639 147.737 38.7997 147.591 38.453C147.448 38.104 147.61 37.7048 147.959 37.5588C148.305 37.4128 148.707 37.577 148.853 37.9237Z" fill="url(#paint15_linear_1697_11239)"/>
<path d="M331.251 139.119C336.441 138.072 339.799 133.015 338.75 127.825C337.702 122.636 332.645 119.278 327.456 120.327C322.266 121.374 318.908 126.432 319.958 131.621C321.005 136.811 326.062 140.169 331.251 139.119ZM330.51 135.449C333.672 134.81 335.718 131.728 335.079 128.567C334.44 125.405 331.359 123.359 328.197 123.998C325.035 124.636 322.989 127.718 323.628 130.88C324.267 134.041 327.348 136.085 330.51 135.449ZM317.724 136.875C317.556 136.683 317.293 136.605 317.047 136.672C315.842 136.996 313.662 136.512 312.585 136.133L311.41 130.321C312.259 129.554 314.079 128.261 315.315 128.095C315.569 128.06 315.779 127.887 315.861 127.645L317.346 123.227C317.426 122.985 317.364 122.718 317.184 122.54C316.299 121.659 315.63 119.529 315.418 118.407L319.864 114.483C320.952 114.834 322.982 115.765 323.744 116.75C323.899 116.953 324.157 117.049 324.406 116.999L328.975 116.075C329.224 116.025 329.424 115.838 329.49 115.592C329.81 114.387 331.32 112.74 332.187 111.997L337.807 113.885C338.047 115.001 338.257 117.227 337.782 118.379C337.687 118.616 337.732 118.886 337.901 119.077L340.983 122.572C341.152 122.764 341.414 122.841 341.66 122.775C342.865 122.449 345.045 122.935 346.122 123.311L347.297 129.126C346.448 129.89 344.628 131.185 343.392 131.352C343.141 131.386 342.929 131.56 342.846 131.801L341.361 136.22C341.282 136.462 341.343 136.726 341.523 136.907C342.408 137.787 343.077 139.918 343.291 141.04L338.843 144.964C337.757 144.612 335.725 143.682 334.963 142.694C334.808 142.493 334.55 142.397 334.301 142.447L329.732 143.371C329.481 143.421 329.283 143.609 329.217 143.855C328.897 145.059 327.387 146.706 326.52 147.45L320.9 145.561C320.66 144.443 320.45 142.219 320.925 141.065C321.021 140.83 320.975 140.561 320.808 140.369L317.724 136.875Z" fill="url(#paint16_linear_1697_11239)"/>
<path d="M356.722 152.136C353.606 152.764 350.573 150.749 349.943 147.636C349.316 144.522 351.33 141.486 354.444 140.858C357.56 140.229 360.594 142.243 361.223 145.359C361.85 148.473 359.836 151.507 356.722 152.136ZM355.475 157.686C355.527 157.492 355.685 157.344 355.883 157.303L359.501 156.573C359.697 156.532 359.9 156.61 360.023 156.767C360.628 157.549 362.236 158.286 363.096 158.565L366.618 155.458C366.449 154.57 365.92 152.882 365.22 152.184C365.078 152.043 365.028 151.831 365.092 151.641L366.267 148.142C366.331 147.95 366.499 147.814 366.698 147.786C367.676 147.654 369.12 146.63 369.791 146.023L368.86 141.42C368.007 141.121 366.28 140.738 365.327 140.995C365.133 141.048 364.925 140.986 364.793 140.836L362.35 138.066C362.218 137.916 362.181 137.701 362.259 137.514C362.633 136.602 362.466 134.841 362.277 133.956L357.827 132.459C357.14 133.05 355.945 134.353 355.691 135.306C355.639 135.502 355.482 135.651 355.283 135.692L351.665 136.422C351.469 136.46 351.266 136.385 351.143 136.225C350.538 135.445 348.93 134.708 348.07 134.43L344.548 137.537C344.717 138.424 345.246 140.113 345.946 140.808C346.09 140.95 346.138 141.162 346.074 141.353L344.899 144.85C344.833 145.042 344.667 145.181 344.468 145.206C343.49 145.339 342.048 146.365 341.375 146.97L342.306 151.573C343.159 151.872 344.886 152.257 345.839 151.997C346.033 151.947 346.241 152.009 346.375 152.159L348.816 154.926C348.948 155.079 348.985 155.291 348.91 155.478C348.533 156.393 348.7 158.154 348.889 159.037L353.34 160.533C354.026 159.945 355.221 158.64 355.475 157.686Z" fill="url(#paint17_linear_1697_11239)"/>
<path d="M101.032 84.5251L97.0122 83.0082L93.4833 85.4604C93.0818 85.741 92.5343 85.4376 92.5571 84.9494L92.7556 80.6563L89.3316 78.0604C88.9415 77.7638 89.0601 77.1479 89.5323 77.0202L93.6772 75.8819L95.0892 71.8238C95.2488 71.363 95.8716 71.2854 96.1408 71.6937L98.5018 75.2842L102.797 75.3732C103.288 75.3823 103.552 75.9503 103.247 76.3313L100.564 79.6868L101.805 83.7997C101.949 84.2696 101.49 84.6962 101.032 84.5251Z" fill="url(#paint18_linear_1697_11239)"/>
<path d="M107.19 58.8397L105.005 52.9704L99.4137 54.6425L97.0048 48.9579L91.4639 49.8977L88.9661 45.9354L86.9609 47.2014L90.3028 52.4982L95.5517 51.6085L98.0587 57.5235L103.556 55.8788L105.538 61.1962L107.19 58.8397Z" fill="url(#paint19_linear_1697_11239)"/>
<path d="M342.154 85.8549L336.663 82.8484L333.527 87.7711L327.986 85.0451L324.411 89.3793L319.931 88.0197L319.242 90.2871L325.232 92.1075L328.622 87.9992L334.387 90.8346L337.468 85.9918L342.446 88.72L342.154 85.8549Z" fill="url(#paint20_linear_1697_11239)"/>
<path d="M197.393 11.9052L195.043 17.7107L200.296 20.2519L198.234 26.071L202.954 29.1186L202.124 33.7265L204.457 34.1485L205.568 27.9849L201.095 25.097L203.239 19.0429L198.072 16.5427L200.203 11.2824L197.393 11.9052Z" fill="url(#paint21_linear_1697_11239)"/>
<path d="M335.863 161.539L334.709 159.264L332.109 159.353L330.995 156.71L328.253 157.658L326.862 154.725L324.23 155.288L322.43 152.686L323.415 152.004L324.761 153.949L327.537 153.356L328.876 156.176L331.664 155.211L332.891 158.128L335.432 158.042L336.502 160.149L338.158 159.746L338.443 160.909L335.863 161.539Z" fill="url(#paint22_linear_1697_11239)"/>
<path d="M287.789 56.1571L286.573 52.5415L292.175 49.9432L291.048 44.4366L294.922 41.8087L293.592 39.847L288.411 43.3645L289.477 48.5814L283.648 51.2846L285.478 56.7251L287.789 56.1571Z" fill="url(#paint23_linear_1697_11239)"/>
<path d="M332.666 47.8194C338.843 57.2587 330.442 70.3593 319.444 68.4089C317.469 68.0599 315.407 68.5138 313.641 69.6042L307.557 73.3521C305.883 74.3855 303.775 73.9384 302.719 72.3233L300.379 68.7488C299.323 67.1338 299.672 64.8937 301.179 63.6048C306.679 58.8943 309.02 57.5576 309.756 53.6066C311.919 42.0527 326.489 38.3778 332.666 47.8194Z" fill="#EDFDFC"/>
<path d="M323.191 59.6289C323.931 60.3976 325.048 61.0911 325.801 60.2607C326.766 59.1954 325.386 58.397 323.191 59.6289ZM320.602 48.9919C320.155 48.8209 318.962 49.3159 319.444 51.889C320.783 50.7119 321.191 50.1987 320.602 48.9919ZM318.162 53.0113C318.041 52.498 317.924 51.9209 317.874 51.3483C317.594 48.0498 320.144 46.907 321.488 47.7578C322.35 48.303 322.696 49.5668 322.204 50.7644C321.759 51.8411 320.794 52.6167 319.818 53.4698C320.345 55.3038 321.166 56.9896 322.265 58.4951C325.272 56.6839 327.421 57.6739 327.562 59.3141C327.651 60.3679 326.976 61.4515 325.956 61.8963C325.347 62.1609 323.773 62.5259 321.91 60.4615C316.832 64.0428 310.207 69.3328 310.184 69.3488L309.345 68.1808C309.366 68.1648 315.953 62.9091 321.011 59.3323C319.966 57.8838 319.152 56.2779 318.59 54.5488C312.803 59.5992 307.705 63.5912 307.525 63.7372L306.688 62.5647C307.057 62.2636 311.998 58.4176 318.162 53.0113Z" fill="#B7D972"/>
<path d="M313.796 69.5176C313.744 69.5472 313.691 69.5723 313.641 69.6042L307.557 73.3521C305.883 74.3855 303.775 73.9384 302.719 72.3233L300.379 68.7488C299.323 67.1338 299.672 64.8937 301.179 63.6048C303.625 61.5085 305.445 60.0805 306.78 58.7939L313.796 69.5176Z" fill="#B7D972"/>
<path d="M40.771 246.711C40.771 246.711 40.5749 245.746 40.5338 245.42C40.4859 245.037 40.4312 243.88 40.4312 243.88C40.4312 243.88 40.4289 239.838 40.7277 239.863C41.0266 239.886 41.4143 240.579 41.501 240.828C41.59 241.079 41.7154 241.362 41.8021 241.61C41.8911 241.859 42.1489 242 42.4659 241.914C42.783 241.827 42.6507 240.757 42.5321 240.397C42.158 239.272 40.5566 236.471 40.3992 236.165C40.2145 235.807 41.5033 228.797 41.7519 226.361H41.7542C42.2835 222.385 43.0271 218.325 43.0841 217.903L50.1648 202.254L45.4383 197.425C45.4383 197.425 37.3356 214.684 37.03 215.594C36.884 216.027 36.3707 225.337 36.3753 225.337C36.4118 229.938 36.4552 233.991 36.4415 234.769C36.4415 234.769 35.7754 237.089 35.2621 238.54C34.7511 239.991 34.8629 241.533 34.7808 241.962C34.7694 242.026 34.409 243.49 34.6576 245.326C34.8697 246.907 35.399 245.301 35.399 245.301C35.399 245.301 35.5336 242.295 35.7708 242.343C35.9533 242.379 35.7822 244.019 35.9989 245.771C36.0537 246.223 36.1107 246.668 36.1677 247.076C36.3114 248.146 37.0163 248.356 37.0437 247.208C37.0528 246.802 37.0528 246.129 36.9844 245.653C36.9114 245.135 37.0117 244.633 37.0163 244.188C37.0254 243.305 37.0209 242.66 37.0574 242.68C37.1053 242.705 37.233 242.53 37.306 243.006C37.395 243.579 37.3129 244.84 37.5113 245.673C37.6231 246.143 37.7965 247.144 37.7965 247.144C37.7965 247.144 38.255 248.732 38.3508 248.728C38.8777 248.705 38.8754 247.473 38.6405 246.852C38.693 246.378 38.4808 245.331 38.4808 245.331C38.4808 245.331 38.531 243.114 38.8481 243.114C39.1081 243.111 40.0183 248.433 40.5429 248.374C40.9718 248.326 40.771 246.711 40.771 246.711Z" fill="#F7A491"/>
<path d="M47.2789 211.32C47.2789 211.32 44.3407 210.811 42.7804 210.232C40.7046 209.458 39.3359 208.781 39.3359 208.781C39.3359 208.781 41.6171 199.013 44.4639 193.085C45.641 190.632 46.8318 189.451 48.4901 189.166C48.5015 189.166 51.9894 191.463 51.8525 197.001C51.8183 198.301 47.2789 211.32 47.2789 211.32Z" fill="url(#paint24_linear_1697_11239)"/>
<path d="M56.3203 244.139L60.1298 279.179C60.1298 279.179 58.2684 286.588 58.4919 288.694C58.7178 290.799 62.6322 318.415 62.6322 318.415L62.468 319.963L62.4634 324.537H76.9965C76.9965 324.537 73.9101 323.116 69.5965 320.303C69.2771 320.096 68.5426 319.434 68.3624 318.111C67.2105 309.6 69.4893 281.209 69.4893 281.209L71.2868 244.253L56.3203 244.139Z" fill="#F7A491"/>
<path d="M44.6386 251.509C43.8197 251.723 42.5559 281.85 41.8762 283.187C37.5671 291.652 36.5428 317.39 36.5428 317.39L35.2905 321.054L33.9492 325.55C33.9492 325.55 38.2514 326.727 40.5097 325.445L40.2588 321.015L40.0284 316.962L50.9003 284.896L56.8495 252.189L44.6386 251.509Z" fill="#F7A491"/>
<path d="M66.2606 193.148C64.5064 190.68 57.2706 183.531 56.4677 183.547C54.125 183.588 46.433 183.59 44.9297 184.377L44.9365 186.061C44.9776 193.586 45.938 201.082 47.8313 208.368C49.1521 213.446 50.4022 218.866 50.247 220.814L50.2835 220.85C54.734 225.273 61.753 224.927 65.8249 220.082C65.8249 220.082 65.8066 214.684 66.434 209.759C67.4148 202.049 70.6176 199.278 66.2606 193.148Z" fill="#B7D972"/>
<path d="M54.1107 175.885C54.1107 175.885 54.3138 180.905 53.8758 182.81C53.4378 184.713 52.8538 184.856 56.6131 185.436C58.0913 185.664 59.5147 186.004 59.5147 186.004C59.5147 186.004 59.1292 183.207 59.0722 182.028C58.9764 180.084 59.5056 174.085 59.5056 174.085L54.1107 175.885Z" fill="#F7A491"/>
<path d="M56.9758 178.385C57.7491 178.814 58.4723 179.069 59.1383 179.174C59.2661 176.804 59.5056 174.085 59.5056 174.085L54.3594 175.803C54.957 176.829 55.8056 177.732 56.9758 178.385Z" fill="#F47458"/>
<path d="M55.3042 161.824C55.3042 161.824 53.1577 162.583 51.9715 164.949C50.783 167.317 50.3405 173.969 55.0168 176.569C57.3299 177.858 60.0011 178.102 61.258 176.968C62.54 175.814 62.3826 173.245 62.2548 171.11C61.9993 166.881 61.0709 160.48 55.3042 161.824Z" fill="#F7A491"/>
<path d="M51.8578 170.174C52.1247 171.285 51.7688 172.357 51.0662 172.569C50.3659 172.779 49.5812 172.052 49.3144 170.941C49.0497 169.83 49.4033 168.758 50.1059 168.548C50.8085 168.336 51.5932 169.063 51.8578 170.174Z" fill="#F7A491"/>
<path d="M40.2602 320.996C38.2756 321.906 36.1519 321.343 35.2941 321.053L33.9141 325.565C33.9141 325.565 38.2482 326.847 40.5043 325.565L40.2602 320.996Z" fill="url(#paint25_linear_1697_11239)"/>
<path d="M42.1445 269.402C42.1468 269.406 42.1491 269.406 42.1491 269.402H42.1445Z" fill="#F47458"/>
<path d="M62.3125 325.672H77.4204C77.9793 325.622 78.1162 325.15 77.9223 324.86C77.5231 324.265 75.7598 323.827 73.7798 322.876C70.3033 323.254 63.0128 320.784 62.463 319.954C62.1482 321.616 62.0022 325.602 62.3125 325.672Z" fill="url(#paint26_linear_1697_11239)"/>
<path d="M92.6583 204.561C92.9503 204.155 93.9311 202.163 93.9311 202.163C93.9311 202.163 94.9462 198.755 94.7364 198.801C94.6109 198.826 94.1935 199.31 93.6962 200.341C93.3928 200.97 93.062 202.074 92.7473 202.62C92.1975 203.578 91.5816 203.977 91.7344 203.607C91.8462 203.338 92.2226 203.117 92.5556 202.544C93.3632 201.148 94.0749 198.865 93.7646 198.913C93.4932 198.951 92.7108 200.525 91.8462 201.748C91.4698 202.282 90.4 202.95 89.727 203.375C89.7339 203.071 89.8183 202.77 89.8639 202.626C89.9483 202.359 91.1481 200.767 90.6805 200.567C90.2106 200.366 87.3546 203.813 87.3546 203.813L86.1799 205.811L86.0772 205.888H86.0726C86.0726 205.888 71.8247 211.475 71.3456 211.324C70.2256 210.969 66.3956 199.869 66.3956 199.869L58.423 201.306C58.309 201.244 66.8039 217.828 68.3893 218.64C69.7808 219.354 84.5922 211.637 87.3752 209.988C91.2052 208.512 92.7016 206.758 93.3244 205.861C93.6574 205.377 94.9417 203.279 94.9417 203.279C94.9417 203.279 95.2177 200.373 95.0078 200.348C94.3053 200.261 94.1113 203 94.1113 203C94.1113 203 93.1601 204.294 92.9959 204.463C92.5853 204.885 92.6583 204.561 92.6583 204.561Z" fill="#F8A492"/>
<path d="M53.2765 190.198C52.1884 194.811 57.9917 205.092 57.9917 205.092C57.9917 205.092 66.2585 201.075 67.7116 199.346C67.7116 199.346 62.0087 189.936 61.6551 189.32C60.891 187.992 58.2129 185.248 56.4085 185.752C55.2588 186.072 53.2765 190.198 53.2765 190.198Z" fill="url(#paint27_linear_1697_11239)"/>
<path d="M54.5904 178.827C55.2063 174.596 62.2231 165.975 59.5154 162.373C57.3209 159.458 53.4978 160.329 51.0615 161.169C40.014 164.969 40.6504 178.857 37.1625 181.028C30.8415 184.966 26.9522 187.418 26.496 196.287C25.9553 206.808 34.8905 212.182 45.6347 209.606C51.4128 208.224 52.9434 206.333 55.2611 200.877C56.3058 198.418 58.4113 190.746 57.8365 186.998C57.3187 183.643 54.0908 182.235 54.5904 178.827Z" fill="#473B1E"/>
<path d="M58.788 171.072C58.788 172.324 58.3341 173.342 57.7729 173.342C57.2118 173.342 56.7578 172.324 56.7578 171.072C56.7578 169.82 57.2118 168.805 57.7729 168.805C58.3341 168.805 58.788 169.82 58.788 171.072Z" fill="#F7A491"/>
<path d="M72.6426 266.932L73.1582 246.144C73.2471 240.27 72.0861 234.446 69.7547 229.097L65.8266 220.082C64.2367 220.602 62.738 221.044 61.0682 221.238C57.4343 221.656 53.8621 221.24 50.2488 220.814C50.2374 220.955 50.2214 221.078 50.2008 221.181C49.5439 224.242 45.8918 231.068 44.3543 240.395C42.6093 250.986 41.9546 266.822 42.1736 268.065C58.8692 268.825 62.8475 269.425 72.6426 266.932Z" fill="#473B1E"/>
<path d="M280.614 162.864L293.188 175.44C293.188 175.44 317.135 184.804 319.811 190.557C322.487 196.308 317.402 196.041 311.784 195.238C306.165 194.435 290.245 184.537 290.245 184.537L275.664 167.682L280.614 162.864Z" fill="url(#paint28_linear_1697_11239)"/>
<path d="M317.417 188.034L314.306 186.93L308.286 189.74C308.286 189.74 305.177 191.846 303.671 197.063C302.165 202.282 303.671 233.483 306.18 238.499C308.687 243.518 317.417 188.034 317.417 188.034Z" fill="#EDFDFC"/>
<path d="M337.164 313.166C337.164 313.166 339.377 314.589 339.557 315.246C339.739 315.901 341.361 322.99 340.755 323.812C340.148 324.635 337.926 324.238 338.788 324.836C339.441 325.288 343.645 325.634 346.33 324.909C347.114 324.697 346.756 318.068 346.873 317.059C347.039 315.593 348.054 312.265 347.438 311.398C347.137 310.973 345.413 310.23 343.861 309.625C342.228 308.989 340.417 307.189 340.417 307.189L337.164 313.166Z" fill="#F7A491"/>
<path d="M343.722 309.57C343.722 309.57 342.417 322.146 340.888 323.077C340.482 323.323 338.334 323.508 338.135 324.535C338.131 324.56 338.085 325.588 338.737 325.614L346.89 325.588C346.89 325.588 346.975 319.404 346.922 316.982C346.922 316.982 348.049 310.798 347.682 310.334C347.314 309.871 343.722 309.57 343.722 309.57Z" fill="#002A24"/>
<path d="M369.07 313.166C369.07 313.166 371.283 314.589 371.463 315.246C371.646 315.901 373.265 322.99 372.659 323.812C372.052 324.635 369.83 324.238 370.695 324.836C371.345 325.288 375.549 325.634 378.236 324.909C379.021 324.697 378.662 318.068 378.777 317.059C378.945 315.593 379.96 312.265 379.345 311.398C379.043 310.973 377.319 310.23 375.768 309.625C374.134 308.989 372.321 307.189 372.321 307.189L369.07 313.166Z" fill="#F7A491"/>
<path d="M329.028 231.419C329.028 231.419 336.483 246.221 338.011 250.195L349.369 279.017L374.423 308.487C374.423 308.487 372.589 313.223 369.815 314.493C369.815 314.493 339.61 290.101 337.126 286.262C333.337 280.406 316.092 244.531 316.092 244.531L312.887 237.63L329.028 231.419Z" fill="#473B1E"/>
<path d="M311.01 231.264L311.129 243.885C311.129 243.885 305.736 285.112 306.783 287.562C309.331 293.539 337.351 313.781 337.351 313.781L341.162 307.228L321.029 284.754L328.655 262.88C330.788 257.8 335.327 247.982 335.211 242.473C335.113 237.751 325.753 226.802 325.753 226.802L311.01 231.264Z" fill="#473B1E"/>
<path d="M323.103 248.744C330.526 247.059 336.534 244.435 337.15 242.364C337.429 241.426 333.288 232.01 330.243 219.436C329.249 215.33 329.426 211.475 327.834 197.095C327.497 194.045 326.233 187.653 321.511 186.004C319.85 185.427 318.926 185.5 318.926 185.5C318.885 185.507 312.916 185.546 310.185 187.062C309.512 187.977 306.998 192.982 306.33 206.628C306.038 212.584 304.847 231.711 305.091 234.82C305.128 235.281 305.176 235.728 305.23 236.159C306.3 244.417 314.982 250.587 323.103 248.744Z" fill="#B7D972"/>
<path d="M309.328 197.562C309.333 197.565 309.339 197.562 309.349 197.562C312.376 197.227 319.988 187.256 319.988 187.256L319.972 187.229L315.275 179.79C315.275 179.79 308.356 181.049 309.709 183.155C311.062 185.26 311.821 190.315 311.821 190.315C311.799 190.372 311.769 190.443 311.726 190.525C311.251 191.559 309.702 194.615 309.328 197.562Z" fill="#F7A491"/>
<path d="M309.715 183.154C308.36 181.049 315.281 179.789 315.281 179.789L315.671 180.408C315.68 180.932 315.621 181.409 315.477 181.82C314.729 183.93 312.931 185.786 311.068 186.681C310.723 185.376 310.269 184.016 309.715 183.154Z" fill="#FE875E"/>
<path d="M311.369 168.028C311.518 167.884 316.764 176.514 315.505 180.068C314.246 183.622 310.005 186.455 307.489 185.187C304.704 183.786 300.495 173.888 303.032 169.691C305.571 165.494 311.369 168.028 311.369 168.028Z" fill="#F7A491"/>
<path d="M303.769 164.155C306.857 163.491 312.373 164.403 315.478 166.589C319.296 169.274 319.422 174.041 317.702 177.159C315.982 180.275 317.018 182.57 317.018 182.57C317.018 182.57 311.65 182.233 310.564 178.581C310.108 177.048 310.676 176.01 309.643 175.145C308.849 174.479 308.183 172.542 307.393 170.984C307.393 170.984 303.933 169.146 302.614 170.661C302.163 171.178 299.806 165.006 303.769 164.155Z" fill="#473B1E"/>
<path d="M309.11 175.814C309.579 176.943 310.49 177.634 311.144 177.363C311.801 177.089 311.952 175.955 311.482 174.826C311.012 173.699 310.1 173.008 309.445 173.28C308.79 173.553 308.64 174.687 309.11 175.814Z" fill="#F7A491"/>
<path d="M375.663 309.584C375.663 309.584 374.324 322.146 372.796 323.077C372.39 323.323 370.239 323.508 370.043 324.534C370.038 324.56 369.974 325.62 370.645 325.604L378.788 325.588C378.788 325.588 378.882 319.404 378.83 316.982C378.83 316.982 379.956 310.797 379.587 310.334C379.22 309.871 375.663 309.584 375.663 309.584Z" fill="#002A24"/>
<path d="M228.212 325.57C184.05 329.042 178.935 269.71 223.547 266.206C267.491 262.753 272.204 322.114 228.212 325.57ZM195.59 251.527C189.116 237.986 187.339 217.782 194.392 201.755C206.284 174.703 239.004 163.665 236.596 133.006C235.989 125.285 232.553 119.073 227.494 115.077C214.174 104.561 192.748 110.126 177.453 117.469C167.685 122.164 158.61 128.818 150.241 137.436L145.984 83.2889C164.343 70.2614 186.559 63.4499 208.729 61.7071C254.165 58.1371 289.249 75.1772 292.819 120.624C296.076 162.072 268.066 180.433 249.276 201.153C238.847 212.654 236.491 221.514 237.298 231.777C237.713 237.083 239.705 243.632 242.903 247.809L195.59 251.527Z" fill="url(#paint29_linear_1697_11239)"/>
<path d="M273.878 165.601C273.798 165.227 274.102 165.524 273.538 162.597C273.376 161.753 272.849 160.863 272.457 160.389C272.245 160.131 271.759 159.693 271.455 159.513C270.949 159.212 270.554 159.702 270.655 159.981C270.757 160.259 271.278 161.219 271.38 161.498C271.481 161.776 271.526 162.458 271.296 162.686C271.065 162.912 267.406 158.717 267.181 158.35C266.987 158.037 266.553 156.673 266.553 156.673C266.553 156.673 266.234 155.681 265.844 155.934C265.591 156.1 265.31 156.917 266.042 158.528C266.683 159.935 267.571 161.06 267.47 161.142C267.208 161.358 265.618 159.456 265.618 159.456C265.618 159.456 265.064 158.397 264.69 158.021C264.452 157.316 264.021 156.44 263.57 156.782C263.488 156.846 263.786 158.347 263.786 158.347C263.786 158.347 264.341 159.34 264.578 159.828C264.993 160.69 265.942 161.735 266.266 162.298C266.537 162.764 266.275 162.656 266.255 162.711C266.236 162.754 265.828 162.23 265.203 161.466C264.888 161.08 264.455 160.711 264.156 160.209C263.878 159.743 263.41 159.155 263.118 158.808C262.297 157.827 261.859 158.493 262.484 159.529C262.723 159.924 262.986 160.35 263.255 160.784C264.297 162.465 265.582 163.776 265.458 163.936C265.296 164.141 263.086 161.609 263.086 161.609C263.086 161.609 261.528 160.569 262.454 162.097C263.529 163.87 264.692 165.006 264.747 165.052C265.114 165.371 266.093 166.876 267.53 167.791C268.964 168.706 271.296 170.086 271.296 170.086C271.563 170.408 272.245 171.459 273.189 172.944L276.672 168.752C275.447 167.476 273.937 165.864 273.878 165.601Z" fill="#F8A492"/>
<path d="M271.129 171.512L275.944 167.299L292.483 183.62C292.483 183.62 318.084 185.865 318.152 185.883L319.176 186.202C328.463 189.412 324.64 196.99 322.851 198.162C318.684 200.895 295.535 199.257 288.119 194.656C282.012 190.867 271.129 171.512 271.129 171.512Z" fill="url(#paint30_linear_1697_11239)"/>
<path d="M98.7852 194.914C98.9676 195.591 99.0749 195.817 99.3098 196.273C100.822 199.212 104.333 203.404 104.333 203.404L107.047 196.876C107.047 196.876 106.605 194.827 105.836 191.896C103.215 192.626 100.717 193.05 98.7852 194.914Z" fill="#F8A492"/>
<path d="M114.35 189.252C114.35 189.252 99.2051 196.212 98.7147 196.077C98.3999 195.993 92.5031 185.459 92.4416 175.554C92.4119 170.978 96.8624 165.474 101.831 166.564C104.331 167.112 104.292 167.853 107.992 173.59C111.692 179.329 114.35 189.252 114.35 189.252Z" fill="url(#paint31_linear_1697_11239)"/>
<path d="M127.282 314.039C127.282 314.039 126.924 320.387 126.922 320.401C126.79 321.206 126.27 323.197 126.27 323.93C126.27 326.681 138.515 321.594 135.77 320.373C135.522 320.264 134.222 319.429 134.139 318.491C134.014 317.048 133.695 314.128 133.695 314.128L127.282 314.039Z" fill="#F7A491"/>
<path d="M135.741 320.348C135.741 320.348 132.867 321.19 131.393 321.4C129.919 321.61 127.978 319.837 126.938 320.317C125.791 320.843 125.836 325.586 125.836 325.586C125.836 325.586 141.254 326.936 145.591 325.54C147.308 324.986 141.619 322.308 135.741 320.348Z" fill="#473B1E"/>
<path d="M102.228 314.039C102.228 314.039 101.87 320.387 101.867 320.401C101.735 321.206 101.215 323.198 101.215 323.93C101.215 326.681 113.46 321.594 110.716 320.374C110.467 320.264 108.781 318.804 108.699 317.869C108.574 316.425 108.64 314.128 108.64 314.128L102.228 314.039Z" fill="#F7A491"/>
<path d="M110.687 320.348C110.687 320.348 107.813 321.19 106.339 321.4C104.868 321.61 102.925 319.837 101.884 320.317C100.737 320.843 100.691 325.586 100.691 325.586C100.691 325.586 116.18 327.16 120.537 325.54C122.228 324.911 116.566 322.308 110.687 320.348Z" fill="#473B1E"/>
<path d="M105.973 198.432L116.758 182.306C116.803 182.165 116.902 181.877 117.052 181.435C117.595 179.836 118.724 176.505 119.71 173.193L119.721 173.157C120.029 172 120.686 169.981 121.32 168.026C122.025 165.855 122.899 163.161 122.931 162.7C122.903 162.622 122.853 162.481 122.785 162.294C122.39 161.197 121.854 158.589 121.665 157.453C121.546 156.732 121.425 154.976 122.23 154.976C123.494 154.976 122.892 156.73 123.476 157.825C123.69 157.093 124.124 155.64 124.352 154.171L124.564 150.742C124.603 150.484 124.347 148.593 125.235 148.593H125.276C126.074 148.657 126.056 150.667 126.387 154.068C126.491 153.676 126.596 153.203 126.676 152.77C126.665 152.537 126.827 151.515 126.945 150.977C126.786 150.028 126.877 148.534 127.824 148.675C128.298 148.746 128.259 150.831 128.259 150.831C128.252 151.119 128.225 153.322 128.241 153.758C128.337 153.019 128.716 149.864 129.459 149.864C130.073 149.864 130.123 150.712 130.109 151.385C130.102 151.782 129.717 155.202 129.694 155.599C129.984 155.081 130.328 152.067 130.613 152.067C131.813 152.067 131.38 156.351 130.94 157.467C130.899 157.581 130.855 157.807 130.803 158.065C130.655 158.829 130.404 160.106 129.774 161.254C129.021 162.629 127.983 164.814 127.824 165.15C127.707 165.832 127.347 168.289 126.893 171.38C126.699 172.7 126.487 174.151 126.263 175.652L126.252 175.65C126.211 175.976 125.987 177.009 125.134 180.885C123.966 186.189 123.845 186.419 123.793 186.517C123.286 187.475 111.657 204.328 111.162 205.047L110.87 205.469L105.973 198.432Z" fill="#F7A491"/>
<path d="M126.036 160.822C126.036 160.822 125.162 158.434 123.602 158.429C123.602 158.429 124.473 158.094 125.219 158.724C125.967 159.355 126.036 160.822 126.036 160.822Z" fill="#F47458"/>
<path d="M103.37 156.205L101.98 165.578C101.98 165.578 107.27 170.111 110.354 169.155C112.944 168.352 111.169 164.741 111.169 164.741C111.169 164.741 109.789 159.738 110.213 157.117C110.635 154.494 103.37 156.205 103.37 156.205Z" fill="#F7A491"/>
<path d="M104.365 159.039C105.691 159.707 108.312 160.62 110.353 160.841C110.157 159.529 110.045 158.142 110.212 157.118C110.406 155.907 108.964 155.622 107.354 155.663C105.246 155.854 103.368 156.206 103.368 156.206L103.102 158.008C103.501 158.459 103.923 158.817 104.365 159.039Z" fill="#FE875E"/>
<path d="M96.6901 145.397C96.4711 145.397 98.7819 155.865 102.354 157.667C105.929 159.467 111.26 158.53 112.261 155.71C113.368 152.592 109.33 141.909 104.305 140.554C99.2769 139.197 96.6901 145.397 96.6901 145.397Z" fill="#F7A491"/>
<path d="M100.826 135.778C97.9703 137.534 96.6609 140.141 96.2207 141.209C94.8794 141.887 93.2598 143.356 92.4796 147.311C91.5238 152.174 94.925 155.922 98.5338 157.049C102.14 158.178 102.749 160.724 102.749 160.724L103.105 157.982C103.105 157.982 102.304 155.596 101.098 154.401C99.891 153.208 101.668 151.465 101.825 150.046C101.946 148.953 101.191 146.83 101.355 145.034C101.355 145.034 103.358 141.793 105.334 140.992C108.703 139.626 104.49 133.524 100.826 135.778Z" fill="#002A24"/>
<path d="M102.347 151.868C102.815 153.077 102.623 154.277 101.921 154.549C101.218 154.82 100.269 154.06 99.8017 152.851C99.3364 151.642 99.5257 150.442 100.228 150.171C100.933 149.9 101.88 150.659 102.347 151.868Z" fill="#F7A491"/>
<path d="M115.66 198.692L136.464 195.071C136.464 195.071 134.096 188.712 133.25 188.712C132.406 188.712 117.519 195.646 117.519 195.646L116.335 198.183L115.66 198.692Z" fill="#F8A492"/>
<path d="M105.002 213.914C105.002 213.914 102.926 224.621 103.772 232.742C104.619 240.861 104.685 269.703 104.685 269.703L101.457 315.851L109.115 316.029C109.115 316.029 118.196 269.902 118.027 271.088C117.858 272.272 121.07 238.609 121.07 238.609L110.246 212.899L105.002 213.914Z" fill="url(#paint32_linear_1697_11239)"/>
<path d="M107.032 213.407C107.032 213.407 105.679 223.049 107.37 227.276C109.062 231.506 121.878 272.997 122.046 276.38C122.215 279.763 126.479 317.155 126.479 317.155L135.382 316.888L137.309 275.317L133.276 223.065L129.36 209.855L107.032 213.407Z" fill="url(#paint33_linear_1697_11239)"/>
<path d="M101.98 165.578C101.98 165.578 104.177 167.116 106.223 166.938C108.272 166.758 111.169 164.741 111.169 164.741L110.765 163.286C110.765 163.286 105.468 162.462 105.334 162.551C105.201 162.64 101.98 165.578 101.98 165.578Z" fill="#F7A491"/>
<path d="M125.383 188.397C125.383 188.397 133.25 196.324 136.804 194.969C140.356 193.616 141.825 188.99 133.159 182.224C125.401 176.168 125.383 188.397 125.383 188.397Z" fill="#F8A492"/>
<path d="M130.712 198.183C129.544 191.396 121.07 170.273 120.395 166.384C120.066 164.49 115.495 164.449 111.143 164.696C106.544 164.956 101.977 165.579 101.977 165.579C101.977 165.579 97.9074 166.29 96.1167 168.081C94.326 169.872 93.8493 174.826 96.4247 184.227C98.4549 191.65 100.976 195.726 102.221 201.13C102.474 202.944 102.691 204.732 102.978 206.824C103.435 214.906 102.972 225.586 102.972 225.586C102.972 225.586 125.13 230.49 133.42 223.049C133.42 223.049 131.91 205.138 130.712 198.183Z" fill="url(#paint34_linear_1697_11239)"/>
<path d="M136.363 183.588C136.363 183.588 127.667 191.248 127.161 191.248C126.835 191.248 114.754 181.763 111.964 173.971C110.422 169.664 113.657 164.844 117.35 164.86C119.909 164.871 121.048 165.576 126.123 170.143C131.196 174.71 136.363 183.588 136.363 183.588Z" fill="url(#paint35_linear_1697_11239)"/>
<path d="M269.186 31.7277L250.334 44.4815C248.42 45.7772 245.82 45.2754 244.524 43.3615L231.77 24.5079C230.475 22.594 230.977 19.9936 232.89 18.6979L251.744 5.94406C253.658 4.65065 256.258 5.15251 257.552 7.06638L270.308 25.9177C271.601 27.8315 271.099 30.432 269.186 31.7277Z" fill="#B7D972"/>
<path d="M259.706 18.3607C263.006 23.2378 261.729 29.8713 256.847 33.1721C251.968 36.4729 245.337 35.1932 242.036 30.3139C238.735 25.4345 240.015 18.8033 244.894 15.5025C249.773 12.2017 256.405 13.4791 259.706 18.3607Z" fill="white"/>
<path d="M247.359 19.9533L251.735 24.7254C252.056 25.0744 252.033 25.6196 251.682 25.9389C251.333 26.2606 250.79 26.2355 250.471 25.8865C250.418 25.8317 250.375 25.7656 250.341 25.7017L247.359 19.9533Z" fill="#B7D972"/>
<path d="M250.692 24.7614L257.291 21.0659L251.534 25.9727C251.221 26.2395 250.754 26.2008 250.489 25.8905C250.224 25.578 250.261 25.1104 250.573 24.8458C250.61 24.8139 250.651 24.7842 250.692 24.7614Z" fill="#B7D972"/>
<path d="M83.3544 134.988H45.1705C38.2906 134.988 32.7109 129.408 32.7109 122.529V114.62C32.7109 107.74 38.2906 102.163 45.1705 102.163H83.3544C90.2365 102.163 95.8139 107.74 95.8139 114.62V122.529C95.8139 129.408 90.2365 134.988 83.3544 134.988Z" fill="#B7D972"/>
<path d="M88.3242 122.595L103.866 129.562L93.4613 114.996L88.3242 122.595Z" fill="#B7D972"/>
<path d="M53.724 117.512C53.724 118.849 52.5059 119.933 51.0027 119.933C49.4994 119.933 48.2812 118.849 48.2812 117.512C48.2812 116.178 49.4994 115.094 51.0027 115.094C52.5059 115.094 53.724 116.178 53.724 117.512Z" fill="white"/>
<path d="M66.3881 117.513C66.3881 118.849 65.17 119.933 63.6667 119.933C62.1635 119.933 60.9453 118.849 60.9453 117.513C60.9453 116.178 62.1635 115.095 63.6667 115.095C65.17 115.095 66.3881 116.178 66.3881 117.513Z" fill="white"/>
<path d="M79.0522 117.513C79.0522 118.849 77.834 119.933 76.3307 119.933C74.8275 119.933 73.6094 118.849 73.6094 117.513C73.6094 116.178 74.8275 115.095 76.3307 115.095C77.834 115.095 79.0522 116.178 79.0522 117.513Z" fill="white"/>
<path d="M225.726 6.4603L223.164 0.999255L225.29 0.000122547L226.743 3.09563L230.29 0.95136L231.506 2.96103L225.726 6.4603Z" fill="url(#paint36_linear_1697_11239)"/>
<path d="M80.7505 85.0043L75.0705 87.0322L74.2812 84.8173L77.4999 83.6698L75.7046 79.9333L77.8238 78.9137L80.7505 85.0043Z" fill="url(#paint37_linear_1697_11239)"/>
<path d="M316.161 30.0015C316.583 31.3473 317.005 32.6932 317.427 34.0368C317.758 35.0907 318.002 36.7992 319.031 37.3969C319.284 37.5429 319.704 37.4767 319.838 37.1847C320.347 36.0624 319.615 34.6276 319.263 33.5304C318.835 32.189 318.403 30.8455 317.975 29.5019C317.607 28.3545 315.798 28.8404 316.161 30.0015Z" fill="#B7D972"/>
<path d="M330.4 28.5457C328.219 35.9822 328.198 35.7587 328.36 36.5183C328.486 37.1091 329.293 37.2848 329.695 36.8696C330.204 36.3449 330.078 36.4978 332.184 29.0362C332.507 27.8888 330.733 27.4029 330.4 28.5457Z" fill="#B7D972"/>
<path d="M338.714 45.0978C339.998 44.4819 341.28 43.866 342.564 43.2501C343.707 42.7026 345.179 42.2669 345.961 41.229C346.303 40.7727 345.831 40.1705 345.345 40.1568C344.077 40.1203 342.726 41.0921 341.618 41.6282C340.336 42.2509 339.056 42.8714 337.776 43.4942C336.7 44.0165 337.642 45.611 338.714 45.0978Z" fill="#B7D972"/>
<path d="M334.505 67.437C335.823 69.1364 337.142 70.8769 338.634 72.4281C339.437 73.263 340.604 72.038 339.886 71.1757C338.501 69.5151 337.082 67.8977 335.746 66.196C335.048 65.3064 333.823 66.5564 334.505 67.437Z" fill="#B7D972"/>
<path d="M339.352 58.7645C340.541 59.2846 341.745 59.7682 342.954 60.2427C344.056 60.6738 345.368 61.4448 346.561 61.276C347.195 61.1848 347.268 60.3385 346.912 59.9461C346.465 59.4557 346.225 59.4922 343.602 58.4817C342.418 58.0254 341.241 57.5464 340.053 57.1016C339.099 56.7457 338.408 58.3493 339.352 58.7645Z" fill="#B7D972"/>
<defs>
<linearGradient id="paint0_linear_1697_11239" x1="0.000725775" y1="326.953" x2="425.61" y2="326.953" gradientUnits="userSpaceOnUse">
<stop stop-color="#53CD9F"/>
<stop offset="1" stop-color="#0D7A5C"/>
</linearGradient>
<linearGradient id="paint1_linear_1697_11239" x1="150.375" y1="-5.12733" x2="147.551" y2="51.6772" gradientUnits="userSpaceOnUse">
<stop stop-color="#53CD9F"/>
<stop offset="1" stop-color="#0D7A5C"/>
</linearGradient>
<linearGradient id="paint2_linear_1697_11239" x1="150.374" y1="-5.12734" x2="147.55" y2="51.6772" gradientUnits="userSpaceOnUse">
<stop stop-color="#53CD9F"/>
<stop offset="1" stop-color="#0D7A5C"/>
</linearGradient>
<linearGradient id="paint3_linear_1697_11239" x1="130.758" y1="44.5645" x2="135.428" y2="44.5645" gradientUnits="userSpaceOnUse">
<stop stop-color="#53CD9F"/>
<stop offset="1" stop-color="#0D7A5C"/>
</linearGradient>
<linearGradient id="paint4_linear_1697_11239" x1="153.051" y1="53.3536" x2="156.073" y2="53.3536" gradientUnits="userSpaceOnUse">
<stop stop-color="#53CD9F"/>
<stop offset="1" stop-color="#0D7A5C"/>
</linearGradient>
<linearGradient id="paint5_linear_1697_11239" x1="161.02" y1="31.8812" x2="165.691" y2="31.8812" gradientUnits="userSpaceOnUse">
<stop stop-color="#53CD9F"/>
<stop offset="1" stop-color="#0D7A5C"/>
</linearGradient>
<linearGradient id="paint6_linear_1697_11239" x1="140.371" y1="23.092" x2="143.393" y2="23.092" gradientUnits="userSpaceOnUse">
<stop stop-color="#53CD9F"/>
<stop offset="1" stop-color="#0D7A5C"/>
</linearGradient>
<linearGradient id="paint7_linear_1697_11239" x1="147.31" y1="11.4971" x2="152.762" y2="11.4971" gradientUnits="userSpaceOnUse">
<stop stop-color="#53CD9F"/>
<stop offset="1" stop-color="#0D7A5C"/>
</linearGradient>
<linearGradient id="paint8_linear_1697_11239" x1="124.903" y1="20.7682" x2="131.405" y2="20.7682" gradientUnits="userSpaceOnUse">
<stop stop-color="#53CD9F"/>
<stop offset="1" stop-color="#0D7A5C"/>
</linearGradient>
<linearGradient id="paint9_linear_1697_11239" x1="133.903" y1="11.36" x2="140.837" y2="11.36" gradientUnits="userSpaceOnUse">
<stop stop-color="#53CD9F"/>
<stop offset="1" stop-color="#0D7A5C"/>
</linearGradient>
<linearGradient id="paint10_linear_1697_11239" x1="129.428" y1="9.23869" x2="143.537" y2="9.23869" gradientUnits="userSpaceOnUse">
<stop stop-color="#53CD9F"/>
<stop offset="1" stop-color="#0D7A5C"/>
</linearGradient>
<linearGradient id="paint11_linear_1697_11239" x1="136.812" y1="14.9505" x2="140.96" y2="14.9505" gradientUnits="userSpaceOnUse">
<stop stop-color="#53CD9F"/>
<stop offset="1" stop-color="#0D7A5C"/>
</linearGradient>
<linearGradient id="paint12_linear_1697_11239" x1="146.552" y1="38.1883" x2="149.896" y2="38.1883" gradientUnits="userSpaceOnUse">
<stop stop-color="#53CD9F"/>
<stop offset="1" stop-color="#0D7A5C"/>
</linearGradient>
<linearGradient id="paint13_linear_1697_11239" x1="147.555" y1="31.678" x2="150.004" y2="31.678" gradientUnits="userSpaceOnUse">
<stop stop-color="#53CD9F"/>
<stop offset="1" stop-color="#0D7A5C"/>
</linearGradient>
<linearGradient id="paint14_linear_1697_11239" x1="147.633" y1="41.2981" x2="160.3" y2="41.2981" gradientUnits="userSpaceOnUse">
<stop stop-color="#53CD9F"/>
<stop offset="1" stop-color="#0D7A5C"/>
</linearGradient>
<linearGradient id="paint15_linear_1697_11239" x1="147.539" y1="38.1884" x2="148.905" y2="38.1884" gradientUnits="userSpaceOnUse">
<stop stop-color="#53CD9F"/>
<stop offset="1" stop-color="#0D7A5C"/>
</linearGradient>
<linearGradient id="paint16_linear_1697_11239" x1="342.6" y1="78.7605" x2="315.924" y2="181.385" gradientUnits="userSpaceOnUse">
<stop stop-color="#FB9A2B"/>
<stop offset="1" stop-color="#E65925"/>
</linearGradient>
<linearGradient id="paint17_linear_1697_11239" x1="371.253" y1="86.2094" x2="344.577" y2="188.834" gradientUnits="userSpaceOnUse">
<stop stop-color="#FB9A2B"/>
<stop offset="1" stop-color="#E65925"/>
</linearGradient>
<linearGradient id="paint18_linear_1697_11239" x1="87.6322" y1="-0.264613" x2="100.813" y2="117.738" gradientUnits="userSpaceOnUse">
<stop stop-color="#53CD9F"/>
<stop offset="1" stop-color="#0D7A5C"/>
</linearGradient>
<linearGradient id="paint19_linear_1697_11239" x1="91.0807" y1="-0.649926" x2="104.262" y2="117.353" gradientUnits="userSpaceOnUse">
<stop stop-color="#53CD9F"/>
<stop offset="1" stop-color="#0D7A5C"/>
</linearGradient>
<linearGradient id="paint20_linear_1697_11239" x1="317.956" y1="-25.9915" x2="331.137" y2="92.0114" gradientUnits="userSpaceOnUse">
<stop stop-color="#53CD9F"/>
<stop offset="1" stop-color="#0D7A5C"/>
</linearGradient>
<linearGradient id="paint21_linear_1697_11239" x1="191.954" y1="-19.4125" x2="223.338" y2="139.389" gradientUnits="userSpaceOnUse">
<stop stop-color="#FB9A2B"/>
<stop offset="1" stop-color="#E65925"/>
</linearGradient>
<linearGradient id="paint22_linear_1697_11239" x1="291.717" y1="-39.128" x2="323.1" y2="119.674" gradientUnits="userSpaceOnUse">
<stop stop-color="#FB9A2B"/>
<stop offset="1" stop-color="#E65925"/>
</linearGradient>
<linearGradient id="paint23_linear_1697_11239" x1="273.082" y1="-35.4465" x2="304.466" y2="123.355" gradientUnits="userSpaceOnUse">
<stop stop-color="#FB9A2B"/>
<stop offset="1" stop-color="#E65925"/>
</linearGradient>
<linearGradient id="paint24_linear_1697_11239" x1="43.7385" y1="181.533" x2="48.0276" y2="229.864" gradientUnits="userSpaceOnUse">
<stop stop-color="#C9CD55"/>
<stop offset="0.506518" stop-color="#659C52"/>
<stop offset="1" stop-color="#287F50"/>
</linearGradient>
<linearGradient id="paint25_linear_1697_11239" x1="33.9141" y1="323.565" x2="40.5039" y2="323.565" gradientUnits="userSpaceOnUse">
<stop stop-color="#FB9A2B"/>
<stop offset="1" stop-color="#E65925"/>
</linearGradient>
<linearGradient id="paint26_linear_1697_11239" x1="62.1391" y1="322.814" x2="78.0037" y2="322.814" gradientUnits="userSpaceOnUse">
<stop stop-color="#FB9A2B"/>
<stop offset="1" stop-color="#E65925"/>
</linearGradient>
<linearGradient id="paint27_linear_1697_11239" x1="59.0546" y1="180.173" x2="63.3437" y2="228.504" gradientUnits="userSpaceOnUse">
<stop stop-color="#C9CD55"/>
<stop offset="0.506518" stop-color="#659C52"/>
<stop offset="1" stop-color="#287F50"/>
</linearGradient>
<linearGradient id="paint28_linear_1697_11239" x1="279.524" y1="234.718" x2="309.443" y2="147.68" gradientUnits="userSpaceOnUse">
<stop stop-color="#C9CD55"/>
<stop offset="0.506518" stop-color="#659C52"/>
<stop offset="1" stop-color="#287F50"/>
</linearGradient>
<linearGradient id="paint29_linear_1697_11239" x1="145.984" y1="193.484" x2="293.079" y2="193.484" gradientUnits="userSpaceOnUse">
<stop stop-color="#53CD9F"/>
<stop offset="1" stop-color="#0D7A5C"/>
</linearGradient>
<linearGradient id="paint30_linear_1697_11239" x1="293.192" y1="167.702" x2="317.671" y2="236.747" gradientUnits="userSpaceOnUse">
<stop stop-color="#C9CD55"/>
<stop offset="0.506518" stop-color="#659C52"/>
<stop offset="1" stop-color="#287F50"/>
</linearGradient>
<linearGradient id="paint31_linear_1697_11239" x1="83.1961" y1="212.08" x2="95.5404" y2="193.145" gradientUnits="userSpaceOnUse">
<stop stop-color="#C9CD55"/>
<stop offset="0.506518" stop-color="#659C52"/>
<stop offset="1" stop-color="#287F50"/>
</linearGradient>
<linearGradient id="paint32_linear_1697_11239" x1="128.311" y1="229.035" x2="93.7884" y2="287.409" gradientUnits="userSpaceOnUse">
<stop stop-color="#00503E"/>
<stop offset="1" stop-color="#023222"/>
</linearGradient>
<linearGradient id="paint33_linear_1697_11239" x1="138.87" y1="235.281" x2="104.348" y2="293.655" gradientUnits="userSpaceOnUse">
<stop stop-color="#00503E"/>
<stop offset="1" stop-color="#023222"/>
</linearGradient>
<linearGradient id="paint34_linear_1697_11239" x1="130.731" y1="155.432" x2="108.605" y2="210.511" gradientUnits="userSpaceOnUse">
<stop stop-color="#C9CD55"/>
<stop offset="0.506518" stop-color="#659C52"/>
<stop offset="1" stop-color="#287F50"/>
</linearGradient>
<linearGradient id="paint35_linear_1697_11239" x1="156.394" y1="231.099" x2="137.72" y2="200.971" gradientUnits="userSpaceOnUse">
<stop stop-color="#C9CD55"/>
<stop offset="0.506518" stop-color="#659C52"/>
<stop offset="1" stop-color="#287F50"/>
</linearGradient>
<linearGradient id="paint36_linear_1697_11239" x1="225.365" y1="-15.6485" x2="238.547" y2="102.354" gradientUnits="userSpaceOnUse">
<stop stop-color="#53CD9F"/>
<stop offset="1" stop-color="#0D7A5C"/>
</linearGradient>
<linearGradient id="paint37_linear_1697_11239" x1="61.9746" y1="6.27317" x2="93.3585" y2="165.075" gradientUnits="userSpaceOnUse">
<stop stop-color="#FB9A2B"/>
<stop offset="1" stop-color="#E65925"/>
</linearGradient>
</defs>
</svg>
