<svg width="144" height="104" viewBox="0 0 144 104" fill="none" xmlns="http://www.w3.org/2000/svg">
<ellipse cx="72" cy="90.5714" rx="72" ry="12.8571" fill="#3C444E" fill-opacity="0.1"/>
<path d="M131.004 17.7257C131.004 17.7257 130.004 16.6317 129.671 15.2825C129.535 14.7297 129.219 14.2436 128.72 13.9683C124.166 11.4553 101.614 -0.0572243 71.6991 0.598305C41.7842 -0.0572243 19.2326 11.4553 14.6778 13.9683C14.179 14.2436 13.8634 14.7297 13.7268 15.2825C13.3942 16.6317 12.3945 17.7257 12.3945 17.7257C8.23898 24.9418 9.66335 40.7719 9.66335 40.7719C17.93 30.5588 30.9452 25.5232 36.7761 24.103C37.3755 23.5502 37.7049 23.1054 37.6509 22.8174C37.1722 20.2599 40.6881 17.7024 44.2051 16.9028C47.722 16.1043 71.6991 17.7257 71.6991 17.7257C71.6991 17.7257 95.6761 16.1043 99.1931 16.9028C102.71 17.7024 106.227 20.2599 105.747 22.8174C105.693 23.1054 106.023 23.5502 106.622 24.103C112.454 25.5232 125.489 30.4656 133.756 40.6786C133.756 40.6786 135.159 24.9418 131.004 17.7257Z" fill="#30353A"/>
<path d="M88.6838 9.66978C68.6908 9.21864 46.1519 9.82545 41.7051 17.7712C42.5015 17.3963 43.3529 17.0977 44.2054 16.9028C47.7224 16.1043 71.6994 17.7256 71.6994 17.7256C71.6994 17.7256 95.6765 16.1043 99.1934 16.9028C101.274 17.3762 103.349 18.467 104.602 19.8077C105.375 16.9473 105.482 10.05 88.6838 9.66978Z" fill="#3C444E"/>
<path d="M120.934 69.811C120.85 68.9966 120.51 68.2373 119.962 67.6294C117.833 65.2636 111.843 58.7115 106.033 53.2999C103.97 51.3778 102.562 48.8627 102.013 46.0966L95.4865 13.2344C95.3181 12.384 94.5715 11.7709 93.7041 11.7709H88.0617C87.0578 11.7709 86.2445 12.5853 86.2445 13.5892V19.4423C90.9126 22.2657 94.5704 26.4392 96.1155 31.5807C96.4724 32.7679 96.7075 33.9656 96.8314 35.1612C97.5674 34.708 98.0291 34.3384 98.0291 34.3384C98.0291 34.3384 98.8118 37.7346 98.0588 40.4711C98.0588 40.4711 97.5007 40.5251 96.627 40.5219C94.8595 50.376 85.4661 58.8322 71.4798 58.8322C53.3506 58.8322 43.129 44.6266 47.239 31.5807C48.8434 26.4879 52.5065 22.344 57.1514 19.5218V13.5892C57.1514 12.5853 56.338 11.7709 55.3341 11.7709H49.6927C48.8254 11.7709 48.0788 12.384 47.9094 13.2344L41.3838 46.0966C40.8341 48.8627 39.4257 51.3778 37.3627 53.2999C31.553 58.7115 25.5632 65.2636 23.4346 67.6294C22.886 68.2373 22.5461 68.9966 22.4614 69.811C22.3269 71.0924 22.2189 72.9848 22.6245 73.7685C23.2641 75.0065 26.7006 74.9292 26.7006 74.9292H71.6979H116.695C116.695 74.9292 120.133 75.0065 120.771 73.7685C121.177 72.9848 121.069 71.0924 120.934 69.811Z" fill="#30353A"/>
<path d="M38.9153 23.6286C35.195 24.3593 19.5968 28.0097 10.0043 39.3358C9.66858 39.7319 9.54784 40.2646 9.66433 40.7719C9.97568 42.1306 10.9352 44.9105 13.8188 47.5379C14.2912 47.9689 14.9647 48.1044 15.5567 47.8651C19.7313 46.1739 36.9148 38.9821 43.3885 32.6228C43.7295 32.2871 43.8947 31.8137 43.8492 31.3371C43.7126 29.9022 43.092 26.7315 40.3311 24.03C39.9605 23.6678 39.4246 23.528 38.9153 23.6286Z" fill="#3C444E"/>
<path d="M104.432 23.618C108.059 24.3254 123.792 27.9631 133.428 39.375C133.731 39.734 133.856 40.219 133.756 40.6786C133.465 42.0088 132.521 44.8797 129.532 47.5813C129.086 47.9848 128.46 48.115 127.904 47.8894C123.833 46.2437 106.456 38.9895 99.9775 32.5899C99.6577 32.2743 99.5052 31.8327 99.5454 31.3848C99.6735 29.9678 100.28 26.7347 103.104 23.9961C103.453 23.6561 103.953 23.5248 104.432 23.618Z" fill="#3C444E"/>
<path d="M121.005 72.8323C120.961 73.2083 120.89 73.5398 120.772 73.7685C120.133 75.0065 116.695 74.9292 116.695 74.9292H71.6982H26.7008C26.7008 74.9292 23.2644 75.0065 22.6247 73.7685C22.5061 73.5398 22.4352 73.2083 22.3917 72.8323H22.3398V89.2427C22.3398 90.7529 23.5641 91.9771 25.0742 91.9771H71.6982H118.322C119.832 91.9771 121.056 90.7529 121.056 89.2427V72.8323H121.005Z" fill="#30353A"/>
<path d="M96.1163 33.4986C100.037 46.5445 89.6098 60.7501 71.4806 60.7501C53.3514 60.7501 43.1298 46.5445 47.2399 33.4986C50.3332 23.6794 61.0451 17.3402 71.7951 17.3402C82.5451 17.3402 93.1649 23.6794 96.1163 33.4986Z" fill="#3C444E"/>
<path d="M96.1163 31.5807C100.037 44.6266 89.6098 58.8322 71.4806 58.8322C53.3514 58.8322 43.1298 44.6266 47.2399 31.5807C50.3332 21.7615 61.0451 15.4212 71.7951 15.4212C82.5451 15.4212 93.1649 21.7615 96.1163 31.5807Z" fill="#D3DADA"/>
<path d="M57.1523 19.5038C58.6932 18.5686 60.3421 17.7808 62.0619 17.1549C60.3421 17.7808 58.6932 18.5686 57.1523 19.5038Z" fill="white"/>
<path d="M62.0625 17.1549C64.3923 16.3056 66.8513 15.7517 69.3443 15.5303C66.8513 15.7517 64.3923 16.3056 62.0625 17.1549Z" fill="#3C444E"/>
<path d="M52.5586 23.0599C53.9279 21.7129 55.4751 20.5215 57.1515 19.5038C55.4751 20.5215 53.9279 21.7129 52.5586 23.0599Z" fill="#F6515E"/>
<path d="M72.0394 15.4223H72.0384H72.0394ZM72.0013 15.4223C71.9992 15.4223 71.9981 15.4223 71.9971 15.4223C71.9981 15.4223 72.0002 15.4223 72.0013 15.4223ZM71.9198 15.4223C71.9176 15.4223 71.9145 15.4223 71.9124 15.4223C71.9145 15.4223 71.9176 15.4223 71.9198 15.4223ZM71.8827 15.4213C71.8795 15.4213 71.8753 15.4213 71.871 15.4213C71.8753 15.4213 71.8795 15.4213 71.8827 15.4213ZM71.8456 15.4213C71.8414 15.4213 71.8382 15.4213 71.834 15.4213C71.8372 15.4213 71.8414 15.4213 71.8456 15.4213Z" fill="#3C444E"/>
<path d="M57.3537 55.3354C48.475 50.3167 44.3756 40.6702 47.2391 31.5807C48.2537 28.3634 50.0847 25.5189 52.4685 23.1489C52.4759 23.1415 52.4834 23.134 52.4908 23.1266C52.5003 23.1171 52.5109 23.1076 52.5204 23.097C52.5331 23.0843 52.5458 23.0726 52.5585 23.0599C53.9278 21.7129 55.4751 20.5215 57.1515 19.5038C58.6923 18.5686 60.3412 17.7808 62.061 17.1549C64.3909 16.3055 66.8499 15.7517 69.3428 15.5303C70.1572 15.4583 70.9758 15.4213 71.7944 15.4213C71.8071 15.4213 71.8188 15.4213 71.8315 15.4213C71.8357 15.4213 71.8389 15.4213 71.8431 15.4213C71.8516 15.4213 71.8601 15.4213 71.8685 15.4213C71.8728 15.4213 71.877 15.4213 71.8802 15.4213C71.8897 15.4223 71.9003 15.4223 71.9098 15.4223C71.912 15.4223 71.9151 15.4223 71.9172 15.4223C71.9427 15.4223 71.9681 15.4223 71.9946 15.4223C71.9956 15.4223 71.9967 15.4223 71.9988 15.4223C72.0115 15.4223 72.0242 15.4223 72.0359 15.4223H72.0369C78.8283 15.4827 85.5361 18.0752 90.2762 22.4605C87.5832 23.4189 84.5428 24.659 81.4208 26.2327C79.0656 23.8563 75.5158 22.3949 71.7446 22.3949C65.6341 22.3949 60.0479 26.2306 59.1657 31.5807C58.5705 35.194 60.1993 38.6644 63.2418 40.9254C60.3296 44.9804 58.184 49.748 57.3537 55.3354Z" fill="#E8ECEC"/>
<path d="M86.2302 22.99C85.6265 24.3794 83.4895 24.9947 81.5123 24.3275C79.5711 23.672 78.6223 22.0581 79.3371 20.7555C80.0254 19.5016 82.0302 18.9742 83.8644 19.5472C85.7293 20.1286 86.8105 21.6535 86.2302 22.99Z" fill="#7A7E7C"/>
<path d="M77.1462 20.0459C76.3974 21.321 74.2762 21.8854 72.4632 21.2733C70.682 20.6718 69.965 19.1881 70.8059 17.9904C71.6171 16.835 73.6059 16.3489 75.2982 16.8763C77.018 17.4122 77.8673 18.8175 77.1462 20.0459Z" fill="#7A7E7C"/>
<path d="M67.951 20.9684C67.0169 22.2784 64.7888 22.8587 63.0351 22.2296C61.3121 21.6122 60.791 20.0873 61.8087 18.8578C62.7915 17.6717 64.8725 17.1729 66.5139 17.714C68.1819 18.2647 68.8501 19.706 67.951 20.9684Z" fill="#7A7E7C"/>
<path d="M60.6603 25.6439C59.5134 27.1392 57.0618 27.8043 55.2605 27.0842C53.493 26.3778 53.1202 24.64 54.3539 23.2421C55.54 21.8961 57.8127 21.3306 59.4975 21.9437C61.2121 22.5675 61.7628 24.2068 60.6603 25.6439Z" fill="#7A7E7C"/>
<path d="M56.7501 33.9359C55.3819 35.7934 52.6041 36.6205 50.6417 35.7246C48.7218 34.8467 48.4316 32.6958 49.8994 30.9718C51.3047 29.3208 53.8558 28.6292 55.6816 29.3801C57.5433 30.1447 58.059 32.16 56.7501 33.9359Z" fill="#7A7E7C"/>
<path d="M59.0729 43.6344C57.5977 45.9642 54.5033 47.0062 52.2804 45.8773C50.1094 44.7749 49.7451 42.084 51.3485 39.9405C52.8766 37.8977 55.6936 37.0452 57.7417 37.9697C59.8354 38.9154 60.4771 41.4168 59.0729 43.6344Z" fill="#7A7E7C"/>
<path d="M68.2886 51.2147C66.9426 53.9523 63.6936 55.1807 61.1625 53.8496C58.6971 52.5533 58.0331 49.3986 59.5507 46.8972C60.991 44.5218 63.9361 43.5327 66.2394 44.6055C68.5978 45.7047 69.5647 48.6202 68.2886 51.2147Z" fill="#7A7E7C"/>
<path d="M81.2009 52.2441C80.2012 55.041 77.0792 56.2959 74.3459 54.9361C71.6836 53.6113 70.6012 50.3919 71.8064 47.8397C72.9512 45.4167 75.7946 44.4085 78.2621 45.5024C80.7879 46.6229 82.1487 49.5966 81.2009 52.2441Z" fill="#7A7E7C"/>
<path d="M91.5442 46.1855C90.877 48.6488 88.0727 49.7523 85.3754 48.5577C82.7427 47.3917 81.3946 44.5494 82.2662 42.2873C83.0954 40.1354 85.6762 39.2374 88.114 40.2116C90.6059 41.2071 92.1774 43.8451 91.5442 46.1855Z" fill="#7A7E7C"/>
<path d="M98.0306 34.3384C98.0306 34.3384 98.8132 37.7346 98.0603 40.4711C98.0603 40.4711 90.0637 41.2855 86.6007 36.4892C86.6007 36.4892 86.0405 33.9899 89.4473 36.1238C93.0374 38.3711 98.0306 34.3384 98.0306 34.3384Z" fill="#808285"/>
<path d="M84.1898 31.5807C85.1185 37.7632 79.5418 43.5306 71.5918 43.5306C63.6418 43.5306 58.1477 37.7632 59.1665 31.5807C60.0486 26.2306 65.6349 22.3949 71.7454 22.3949C77.8559 22.3949 83.3849 26.2306 84.1898 31.5807Z" fill="#30353A"/>
<path d="M82.7015 31.5807C83.4121 36.9774 78.4845 41.923 71.6041 41.923C64.7227 41.923 59.8682 36.9774 60.6561 31.5807C61.3508 26.8289 66.2805 23.3755 71.7386 23.3755C77.1967 23.3755 82.0767 26.8289 82.7015 31.5807Z" fill="#3C444E"/>
<path d="M44.528 95.3892H29.1713C27.4091 95.3892 25.9805 93.9606 25.9805 92.1984V91.9771H47.7198V92.1984C47.7198 93.9606 46.2901 95.3892 44.528 95.3892Z" fill="#30353A"/>
<path d="M114.224 95.3892H98.8676C97.1054 95.3892 95.6758 93.9606 95.6758 92.1984V91.9771H117.416V92.1984C117.416 93.9606 115.987 95.3892 114.224 95.3892Z" fill="#30353A"/>
<path d="M96.615 40.5219C96.4699 41.3267 96.2867 42.1263 96.041 42.9089C96.4879 42.9121 96.8554 42.9004 97.1127 42.8867C97.3595 42.875 97.5628 42.7066 97.6306 42.4694C97.8149 41.8277 98.0341 41.063 98.0595 40.4711C98.0595 40.4711 97.4961 40.5261 96.615 40.5219Z" fill="#3C444E"/>
<path d="M60.6554 32.5391C61.3501 27.7884 66.2798 24.335 71.7379 24.335C77.1961 24.335 82.076 27.7884 82.7008 32.5391C82.7251 32.7266 82.7273 32.9108 82.7389 33.0962C82.7696 32.5974 82.7686 32.0922 82.7008 31.5807C82.076 26.8289 77.1961 23.3755 71.7379 23.3755C66.2798 23.3755 61.3501 26.8289 60.6554 31.5807C60.5749 32.1293 60.5675 32.6715 60.6003 33.2063C60.6141 32.985 60.6226 32.7636 60.6554 32.5391Z" fill="#30353A"/>
<path d="M79.3368 21.8071C80.0251 20.5532 82.0298 20.0259 83.864 20.5977C85.1412 20.9959 86.0339 21.8389 86.2945 22.7581C86.6662 21.4809 85.623 20.0947 83.864 19.5472C82.0298 18.9743 80.0251 19.5017 79.3368 20.7555C79.0826 21.2194 79.0477 21.7213 79.1843 22.2064C79.2235 22.0719 79.2658 21.9374 79.3368 21.8071Z" fill="#5E615F"/>
<path d="M70.8049 19.042C71.6161 17.8866 73.6049 17.3995 75.2961 17.9279C76.3509 18.2562 77.0732 18.9118 77.3114 19.6531C77.6683 18.5305 76.8359 17.356 75.2961 16.8763C73.6049 16.3479 71.6161 16.835 70.8049 17.9904C70.4512 18.4934 70.3876 19.0452 70.5486 19.5641C70.6068 19.3862 70.6863 19.2115 70.8049 19.042Z" fill="#5E615F"/>
<path d="M61.8093 19.9094C62.7921 18.7233 64.873 18.2245 66.5145 18.7656C67.4422 19.0717 68.0458 19.6563 68.2565 20.3308C68.587 19.2528 67.906 18.1726 66.5145 17.714C64.873 17.1729 62.7921 17.6717 61.8093 18.8578C61.3158 19.454 61.1908 20.118 61.3825 20.7153C61.4641 20.441 61.5954 20.1688 61.8093 19.9094Z" fill="#5E615F"/>
<path d="M54.3525 24.2937C55.5386 22.9466 57.8113 22.3821 59.4961 22.9953C60.3952 23.3225 60.9629 23.9304 61.1524 24.64C61.4384 23.5089 60.8178 22.4256 59.4961 21.9437C57.8113 21.3306 55.5386 21.8961 54.3525 23.2421C53.7139 23.9654 53.5149 24.7766 53.7065 25.4925C53.8082 25.0858 54.0136 24.677 54.3525 24.2937Z" fill="#5E615F"/>
<path d="M49.8979 32.0233C51.3032 30.3723 53.8543 29.6808 55.6801 30.4317C56.6459 30.8288 57.24 31.5648 57.4147 32.4279C57.6509 31.1348 57.0218 29.9307 55.6801 29.3801C53.8543 28.6292 51.3032 29.3208 49.8979 30.9718C49.1258 31.8783 48.8526 32.9002 49.0348 33.7961C49.1428 33.1988 49.416 32.5889 49.8979 32.0233Z" fill="#5E615F"/>
<path d="M51.3497 40.9921C52.8779 38.9482 55.6948 38.0968 57.7429 39.0213C58.9153 39.5508 59.611 40.5738 59.7688 41.7557C59.9923 40.1449 59.2531 38.6517 57.7429 37.9697C55.6948 37.0452 52.8779 37.8977 51.3497 39.9405C50.5449 41.0165 50.2367 42.2301 50.403 43.3114C50.4951 42.5309 50.798 41.7303 51.3497 40.9921Z" fill="#5E615F"/>
<path d="M59.5482 47.9488C60.9896 45.5724 63.9347 44.5843 66.238 45.6571C67.7132 46.3444 68.6441 47.7433 68.822 49.3297C69.0147 47.3303 68.033 45.441 66.238 44.6055C63.9347 43.5327 60.9896 44.5218 59.5482 46.8972C58.9044 47.9604 58.6756 49.137 58.79 50.2426C58.8705 49.4642 59.1056 48.6795 59.5482 47.9488Z" fill="#5E615F"/>
<path d="M71.8049 48.8913C72.9497 46.4683 75.7931 45.4601 78.2606 46.5541C80.0736 47.3578 81.2692 49.1211 81.4588 51.0305C81.6929 48.7409 80.404 46.4535 78.2606 45.5025C75.7931 44.4085 72.9497 45.4167 71.8049 47.8397C71.394 48.7102 71.2679 49.658 71.3611 50.5836C71.4183 50.0054 71.5497 49.4324 71.8049 48.8913Z" fill="#5E615F"/>
<path d="M82.2649 43.3389C83.0942 41.1859 85.675 40.2889 88.1128 41.2622C90.0307 42.03 91.3915 43.7699 91.6329 45.5978C91.8871 43.4183 90.3981 41.1245 88.1128 40.2106C85.675 39.2374 83.0942 40.1354 82.2649 42.2873C82.0277 42.9015 81.9684 43.5581 82.0404 44.2126C82.0817 43.915 82.1559 43.6227 82.2649 43.3389Z" fill="#5E615F"/>
<path d="M28.5396 10.302C27.8047 10.302 29.1443 9.70263 33.1739 8.112C47.1337 2.59985 63.2032 1.81725 71.2093 1.81725C74.3874 1.81725 76.2957 1.94011 76.2957 1.94011C76.3751 1.93905 76.4567 1.93905 76.5403 1.93905C80.0107 1.93905 86.2885 2.87309 90.8528 3.80713C95.4182 4.74118 98.2712 5.67524 94.8898 5.67524C93.6253 5.67524 91.4904 5.54391 88.2477 5.23467C84.1853 4.84602 80.0901 4.68082 76.0468 4.68082C64.2738 4.68082 52.9583 6.08613 44.3062 7.49143C35.6541 8.89674 29.6643 10.302 28.5396 10.302Z" fill="#3C444E"/>
<path d="M113.325 69.5398C111.779 69.5398 109.394 69.3153 106.093 69.0908C102.792 68.8663 98.5748 68.6418 93.3645 68.6418C91.9698 68.6418 90.502 68.6587 88.9632 68.6947C87.6426 68.7265 86.357 68.7413 85.1127 68.7413C67.3128 68.7413 57.8474 65.6797 73.5896 63.6719C77.3491 63.1921 85.8625 61.2171 88.2526 60.1083C92.7608 58.0157 95.9675 53.9713 97.5169 49.2482C97.9405 47.9583 98.4636 47.3981 98.8724 47.3981C99.332 47.3981 99.6465 48.1065 99.512 49.282C99.1922 52.0873 113.704 64.5953 115.338 68.0551C115.875 69.1904 115.253 69.5398 113.325 69.5398Z" fill="#3C444E"/>
<path d="M14.9413 44.9454C14.5071 44.9454 14.0739 44.7611 13.7785 44.3947C12.8571 43.2552 12.4325 42.138 12.2376 41.3998C12.0978 40.8703 12.2556 40.3154 12.6474 39.9331C16.4885 36.1937 25.9836 30.6509 25.9836 30.6509C25.9836 30.6509 34.0553 27.0968 35.1673 27.0968C35.5062 27.0968 35.198 27.4272 33.816 28.2914C29.2802 31.1221 19.3277 41.1266 16.0352 44.4869C15.7345 44.7929 15.3373 44.9454 14.9413 44.9454Z" fill="#3C444E"/>
<path d="M71.5816 41.923C71.5784 41.923 71.5763 41.923 71.5742 41.923C71.5763 41.923 71.5795 41.923 71.5816 41.923ZM71.5572 41.923C71.5551 41.923 71.5519 41.923 71.5498 41.923C71.5519 41.923 71.5551 41.923 71.5572 41.923ZM71.5308 41.923C71.5297 41.923 71.5276 41.923 71.5265 41.923C71.5276 41.923 71.5297 41.923 71.5308 41.923ZM71.5032 41.923C71.5011 41.923 71.5 41.923 71.4979 41.923C71.5 41.923 71.5011 41.923 71.5032 41.923ZM71.4789 41.923C71.4768 41.923 71.4746 41.923 71.4725 41.923C71.4746 41.923 71.4768 41.923 71.4789 41.923ZM71.4524 41.9219C71.4513 41.9219 71.4503 41.9219 71.4492 41.9219C71.4503 41.9219 71.4513 41.9219 71.4524 41.9219ZM82.77 32.6175C82.7711 32.2828 82.7499 31.9471 82.7065 31.6082C82.7054 31.604 82.7054 31.6008 82.7044 31.5966C82.7033 31.5913 82.7033 31.586 82.7023 31.5807C82.7478 31.9281 82.7711 32.2744 82.77 32.6175Z" fill="#F6515E"/>
<path d="M71.6018 41.923C71.5944 41.923 71.5859 41.923 71.5785 41.923C71.5764 41.923 71.5732 41.923 71.5711 41.923C71.5658 41.923 71.5594 41.923 71.5541 41.923C71.552 41.923 71.5488 41.923 71.5467 41.923C71.5404 41.923 71.534 41.923 71.5277 41.923C71.5266 41.923 71.5245 41.923 71.5234 41.923C71.515 41.923 71.5075 41.923 71.5001 41.923C71.498 41.923 71.4969 41.923 71.4948 41.923C71.4885 41.923 71.4821 41.923 71.4758 41.923C71.4737 41.923 71.4715 41.923 71.4694 41.923C71.4631 41.923 71.4567 41.923 71.4493 41.9219C71.4482 41.9219 71.4472 41.9219 71.4461 41.9219C67.1169 41.8753 63.6158 39.8622 61.8398 37.0251C68.6355 34.2293 73.634 29.2689 76.7602 25.3601C79.9224 26.723 82.2777 29.3367 82.6992 32.5391C82.7235 32.7266 82.7256 32.9108 82.7373 33.0962C82.7669 32.6058 82.7669 32.1102 82.7034 31.6082C82.7468 31.9471 82.768 32.2828 82.7669 32.6175C82.7669 37.0134 79.0795 40.9021 73.7844 41.7525C73.0833 41.8637 72.3537 41.923 71.6018 41.923Z" fill="#30353A"/>
<path d="M82.7011 31.5807C82.7 31.5722 82.6989 31.5637 82.6979 31.5553C82.6989 31.5637 82.7 31.5722 82.7011 31.5807ZM82.6968 31.55C82.6958 31.5415 82.6947 31.5341 82.6936 31.5256C82.6947 31.5341 82.6958 31.5415 82.6968 31.55ZM82.6936 31.5224C82.6926 31.515 82.6915 31.5076 82.6905 31.5002C82.6915 31.5076 82.6926 31.515 82.6936 31.5224ZM82.6894 31.4949C82.6883 31.4875 82.6873 31.4801 82.6862 31.4716C82.6873 31.4801 82.6883 31.4875 82.6894 31.4949ZM82.6852 31.4652C82.6841 31.4589 82.683 31.4515 82.682 31.4451C82.683 31.4515 82.6841 31.4589 82.6852 31.4652ZM82.682 31.4398C82.6809 31.4324 82.6788 31.425 82.6778 31.4176C82.6788 31.425 82.6809 31.4324 82.682 31.4398ZM82.6767 31.4091C82.6756 31.4028 82.6746 31.3975 82.6735 31.3911C82.6746 31.3964 82.6756 31.4038 82.6767 31.4091ZM82.6725 31.3805C82.6714 31.3753 82.6703 31.3699 82.6703 31.3646C82.6703 31.3699 82.6714 31.3753 82.6725 31.3805ZM82.6682 31.3541C82.6672 31.3477 82.6661 31.3413 82.6651 31.3361C82.6661 31.3413 82.6672 31.3477 82.6682 31.3541ZM82.6629 31.3223C82.6619 31.3191 82.6619 31.3159 82.6608 31.3128C82.6619 31.3159 82.6629 31.3191 82.6629 31.3223ZM82.6534 31.2662C82.6534 31.2651 82.6534 31.264 82.6523 31.263C82.6534 31.264 82.6534 31.2651 82.6534 31.2662Z" fill="#F6515E"/>
<path d="M26.2633 87.255C25.1556 87.255 24.2363 86.3548 24.2363 85.2249V79.5846C24.2363 78.4631 25.145 77.5545 26.2665 77.5545H86.5008C87.2231 77.5545 89.0837 77.619 90.3185 77.9643C90.8798 78.1221 90.8343 78.9322 90.2571 79.0159C88.2259 79.3103 83.8236 79.916 78.0658 80.5345L26.455 87.2455C26.3904 87.2518 26.3268 87.255 26.2633 87.255Z" fill="#30353A"/>
<path d="M31.6138 73.5598C28.3055 73.5598 25.1348 73.3798 24.2971 72.8323C23.7824 72.4956 24.2971 71.4122 24.2971 69.5409C24.2971 67.6686 32.9365 60.1433 32.9365 60.1433C33.8515 59.2484 34.4753 58.8777 34.8893 58.8777C36.7013 58.8777 34.5017 65.9752 35.0874 67.3657C35.8064 69.0739 42.528 72.8673 39.7703 73.2083C38.3893 73.3788 34.9327 73.5598 31.6138 73.5598Z" fill="#3C444E"/>
<path d="M12.3223 33.4742C16.4439 24.2577 24.3727 22.756 29.1033 22.756C31.3897 22.756 32.9295 23.1076 32.9295 23.1076C19.7248 25.5814 12.3223 33.4742 12.3223 33.4742Z" fill="#3C444E"/>
<path d="M130.279 33.4742C130.279 33.4742 122.877 25.5814 109.672 23.1076C109.672 23.1076 111.211 22.756 113.498 22.756C118.228 22.756 126.157 24.2577 130.279 33.4742Z" fill="#3C444E"/>
<path d="M121.058 89.2427V82.0468C110.993 85.461 90.9228 89.248 51.3984 91.9771H71.6996H118.324C119.834 91.9771 121.058 90.7529 121.058 89.2427Z" fill="#3C444E"/>
<path d="M120.054 33.5759C116.205 33.5759 103.414 31.675 102.07 30.3311C100.551 28.8125 102.789 26.0146 104.388 25.4925C104.47 25.466 104.575 25.4522 104.702 25.4522C107.077 25.4522 116.957 29.8323 117.176 29.9308C120.696 31.5214 122.879 32.6493 121.057 33.4742C120.903 33.5441 120.554 33.5759 120.054 33.5759Z" fill="#3C444E"/>
</svg>
