<svg width="323" height="92" viewBox="0 0 323 92" fill="none" xmlns="http://www.w3.org/2000/svg">
<path fill-rule="evenodd" clip-rule="evenodd" d="M41.4245 52.5949C41.7818 51.2556 42.4313 49.5063 42.923 48.0619L46.7743 36.6977C46.9077 36.3056 47.0207 35.9725 47.1531 35.5829C47.289 35.1828 47.3775 34.7478 47.6211 34.4808L53.7236 52.5976L41.4242 52.5949H41.4245ZM32.447 37.736C32.0107 39.4415 31.1416 41.5603 30.5447 43.2668L21.0642 70.6544C20.977 71.2073 21.1494 71.6432 21.4348 71.9708C21.8294 72.4242 22.113 72.5652 22.6965 72.5842C23.9162 72.6243 25.2138 72.5819 26.4423 72.5819C28.781 72.5814 31.6267 72.7668 33.8312 72.3876C34.3144 72.0139 34.825 71.8373 35.202 70.9564C35.4912 70.2815 35.7248 69.4041 35.9559 68.7245L36.7124 66.4934C36.8273 66.1548 37.3003 64.4326 37.5732 64.3671L54.7774 64.3629C56.622 64.336 69.5124 64.4857 70.1311 64.2762C71.1319 63.9369 71.4533 62.9616 71.0352 61.7783L64.1224 41.8974C63.6011 40.4146 60.5353 31.8321 60.1819 30.4943C58.9805 27.7027 57.6278 21.7472 56.085 20.2509C55.2951 19.4851 54.7307 19.3738 53.2873 19.377L42.6242 19.3783C40.6378 19.377 38.9194 19.3095 37.9515 21.9243C37.2176 23.9053 32.8941 36.7986 32.4465 37.7358L32.447 37.736Z" fill="#323435"/>
<path fill-rule="evenodd" clip-rule="evenodd" d="M73.6834 88.8995H84.6247C89.6319 88.9025 89.1126 86.4561 89.1126 82.4629C89.1126 74.3045 88.9572 69.7548 90.1686 61.5011C90.4682 59.4603 90.9543 57.3844 91.3498 55.4029C92.7942 48.1681 92.6458 41.1053 90.7968 34.1413C90.6744 33.68 90.5465 33.1618 90.388 32.6835C89.1551 28.9634 88.9404 28.3832 87.2245 24.8446C86.5665 23.4877 84.7036 20.4701 83.794 19.2172C83.6419 19.0077 83.5484 18.9113 83.388 18.6754L82.1833 17.0925C82.0081 16.874 81.9134 16.7671 81.7462 16.5805C81.5551 16.3673 81.5188 16.2759 81.3254 16.0683C81.0178 15.7385 80.8059 15.4505 80.4835 15.1354C79.7349 14.404 78.8938 13.2622 77.7665 12.341C77.0991 11.7952 76.4774 11.1756 75.8179 10.6465C75.4251 10.3308 74.0657 9.15272 73.6834 9.04859C73.1659 8.31069 68.6232 5.68022 67.5199 5.13041C65.6633 4.20542 64.2117 3.5303 62.2533 2.81184L60.3047 2.14544C59.8027 2.02984 59.3004 1.8283 58.7867 1.69851C54.222 0.54483 51.4972 1.25581e-06 46.3648 1.25581e-06C44.9957 1.25581e-06 43.7238 -0.00149347 42.4566 0.0986534C40.3483 0.264817 37.4844 0.72619 35.4955 1.19329L32.3339 2.05226L28.6334 3.39752C28.0412 3.64589 27.4369 3.88331 26.8777 4.16631C26.279 4.46899 25.7739 4.65982 25.1777 4.97471L22.0779 6.734C21.4507 7.11715 19.2289 8.50476 18.9555 8.862C18.6032 8.95816 17.3488 10.0453 16.9794 10.3328L10.4357 16.8603L8.88487 18.8563C8.87337 18.8717 8.85688 18.8939 8.84514 18.9093L6.71486 22.1028C6.70486 22.1202 6.69087 22.1437 6.68037 22.1611C5.93946 23.395 4.88319 25.2108 4.3057 26.5232L4.03008 27.1767C3.28517 28.6123 2.15693 32.0044 1.68764 33.6147C-0.224735 40.1741 -0.315194 45.6505 0.446209 52.5113C0.838281 56.0416 2.15968 60.3342 3.4321 63.5262C3.58853 63.9188 3.7642 64.3775 3.96286 64.7698L6.68012 69.9097C6.81556 70.1347 6.87878 70.2635 7.01547 70.4929L8.95959 73.3204C9.0313 73.4213 9.06504 73.4717 9.1505 73.587L10.5266 75.3082C10.6378 75.4397 10.6153 75.4395 10.7175 75.5725L14.118 79.174L17.1566 81.8496C17.7096 82.2826 18.3091 82.8578 18.9553 83.2086L25.7549 87.3447L31.5508 89.6805C32.0026 89.8317 33.3272 90.2886 33.7198 90.2981C33.7416 90.3103 33.7765 90.2996 33.7883 90.3289C33.8 90.3583 33.8413 90.3524 33.8575 90.3584L36.5705 91.0213C44.868 92.7103 51.1184 92.0437 59.1952 90.2981C59.6648 90.2565 60.3754 90.1057 60.8555 90.0096C63.2249 89.535 69.2422 88.8933 71.6328 88.8988C72.3163 88.9002 72.9999 88.8988 73.6834 88.8988V88.8995ZM41.4243 52.595L53.7237 52.5978L47.6212 34.4809C47.3776 34.748 47.2891 35.1829 47.1532 35.583C47.0208 35.9726 46.9078 36.3057 46.7744 36.6978L42.9231 48.062C42.4311 49.5064 41.7819 51.2557 41.4246 52.595H41.4243ZM60.182 30.4947C60.5351 31.8322 63.6012 40.4147 64.1225 41.8977L71.0353 61.7786C71.4534 62.962 71.132 63.937 70.1312 64.2766C69.5125 64.4861 56.6221 64.3364 54.7775 64.3633L37.5733 64.3675C37.3004 64.433 36.8274 66.1552 36.7125 66.4938L35.9561 68.7249C35.7249 69.4045 35.4913 70.2819 35.2021 70.9568C34.8251 71.8377 34.3145 72.014 33.8313 72.388C31.6268 72.7671 28.7808 72.5818 26.4424 72.5823C25.2137 72.5823 23.916 72.6246 22.6966 72.5845C22.1131 72.5656 21.8295 72.4246 21.4349 71.9712C21.1493 71.6433 20.9771 71.2074 21.0643 70.6548L30.5448 43.2672C31.1415 41.5609 32.0108 39.4422 32.4471 37.7364C32.8947 36.7992 37.2182 23.9059 37.9521 21.9249C38.9202 19.3104 40.6384 19.3777 42.6248 19.3789L53.2879 19.3777C54.7313 19.3744 55.2957 19.486 56.0856 20.2516C57.6284 21.7476 58.9811 27.7033 60.1825 30.495L60.182 30.4947Z" fill="url(#paint0_linear_1648_6781)"/>
<path fill-rule="evenodd" clip-rule="evenodd" d="M137.378 41.6982C137.378 39.3699 137.591 37.3468 138.966 35.5394C139.378 34.9971 140.301 34.318 140.998 34.0212C145.426 32.1332 150.473 34.5252 150.473 40.2989C150.473 42.954 150.663 45.3206 148.775 47.3747L148.64 47.5196C148.626 47.5333 148.606 47.5525 148.593 47.5657C145.728 50.316 140.82 49.5878 139.006 47.2571C137.95 45.9013 137.377 44.0521 137.377 41.6982H137.378ZM150.379 30.0378C150.092 29.846 149.969 29.6409 149.697 29.4123C146.384 26.6293 140.523 26.1557 137.079 28.2471C135.09 29.4551 134.142 30.1711 132.794 32.1832C132.536 32.5684 132.415 32.802 132.169 33.2388C131.794 33.9059 131.415 34.7178 131.17 35.507C130.048 39.1088 130.099 43.5693 131.149 47.1639C131.554 48.5518 132.589 50.3858 133.461 51.4809C136.62 55.4489 142.042 56.9108 147.068 54.9066C148.294 54.4178 148.713 54.0683 149.632 53.3595C149.919 53.1383 150.096 52.8949 150.38 52.7058C150.38 55.7942 151.151 55.2245 156.086 55.2245C156.669 55.2245 157.395 54.501 157.395 53.9186V18.8438C157.395 17.853 156.617 17.3513 155.618 17.3513C154.322 17.3513 151.624 17.1194 150.959 17.7429C150.576 18.1026 150.408 18.3418 150.378 19.0286C150.326 20.1895 150.38 21.4914 150.38 22.6685C150.38 25.1249 150.38 27.5812 150.38 30.0378H150.379Z" fill="#323435"/>
<path fill-rule="evenodd" clip-rule="evenodd" d="M112.87 49.3473C111.418 49.3473 109.035 48.7856 109.035 47.4814C109.035 46.1638 109.167 45.5395 110.749 44.8061C111.688 44.3709 112.716 44.256 113.814 44.0381L120.26 42.9105C120.26 44.4633 120.229 44.7478 119.699 45.8033C119.22 46.7572 118.814 47.0878 118.13 47.6897C117.067 48.6251 114.865 49.3473 112.87 49.3473H112.87ZM104.919 35.5413H110.064C112.083 35.5413 112.007 33.3956 115.302 33.3956C117.523 33.3956 120.26 34.2889 120.26 36.8472V37.407C119.718 37.407 119.28 37.5213 118.787 37.6175C115.695 38.2211 111.356 38.6715 108.602 39.5873C107.531 39.9435 106.03 40.6306 105.145 41.2701C102.694 43.0408 102.02 44.8599 102.02 47.948C102.02 50.9108 104.057 53.4372 106.227 54.5727C109.298 56.1798 113.583 56.1247 116.787 54.8397C118.662 54.0879 120.113 52.3368 120.259 52.2391C120.259 55.7866 120.62 55.2244 125.872 55.2244C126.647 55.2244 127.275 54.6153 127.275 53.8251V37.4072C127.275 32.8264 124.621 29.1416 120.271 27.694C116.072 26.2961 110.647 26.8522 107.204 29.4246C105.778 30.4901 104.336 32.2531 103.925 34.0901C103.831 34.5087 103.777 34.7319 104.004 35.051C104.158 35.268 104.572 35.5415 104.919 35.5415L104.919 35.5413Z" fill="#323435"/>
<path fill-rule="evenodd" clip-rule="evenodd" d="M242.235 33.396C244.642 33.396 246.563 34.1952 247.538 36.1298C247.763 36.5768 248.115 37.6438 248.128 38.2469H236.155C236.24 37.2377 236.78 36.1724 237.392 35.4684C238.564 34.1194 240.042 33.396 242.235 33.396H242.235ZM229.14 41.2316C229.14 43.6942 229.438 45.3862 230.109 47.3545C230.415 48.2514 230.746 48.8894 231.166 49.6594C232.818 52.6909 235.664 54.6276 239.035 55.4303C241.215 55.9495 244.329 55.87 246.426 55.2995C247.804 54.9246 248.732 54.4998 249.906 53.9189C250.421 53.6645 250.959 53.3354 251.416 53.0001C252.684 52.0721 254.488 50.3183 254.488 48.6011C254.488 48.0291 253.846 47.3881 253.272 47.3881H248.221C247.108 47.3881 246.295 49.3472 242.422 49.3472C240.593 49.3472 239.16 48.8836 238.065 48.0954C236.843 47.2158 236.155 46.0215 236.155 44.4032H253.833C255.818 44.4032 255.424 42.1765 255.424 40.4852C255.424 38.3156 254.961 36.5392 254.328 34.9545C253.879 33.8292 253.217 32.6805 252.485 31.7548L251.707 30.852C247.779 26.954 242.013 25.7923 236.624 28.1727C233.631 29.4942 231.307 32.3432 230.182 35.3675C229.586 36.9689 229.14 39.0608 229.14 41.2311L229.14 41.2316Z" fill="#323435"/>
<path fill-rule="evenodd" clip-rule="evenodd" d="M269.454 29.105V42.631C269.454 50.3319 272.266 55.7841 280.585 55.7841C282.911 55.7841 284.78 55.1693 286.586 53.8397L288.068 52.6126C288.068 53.2229 287.977 53.9959 288.217 54.4227C288.408 54.7625 288.898 55.2243 289.377 55.2243H293.586C294.543 55.2243 295.083 54.5106 295.083 53.545V29.1981C295.083 28.6675 294.976 28.3693 294.728 28.0591C294.534 27.8165 294.177 27.519 293.773 27.519H289.377C288.928 27.519 288.495 27.9137 288.29 28.2071C287.975 28.6575 288.066 29.0621 288.067 29.7576V40.3921C288.067 43.2952 288.106 46.8347 285.583 48.5486C283.798 49.7609 280.662 49.7643 278.899 48.6027C276.422 46.9697 276.469 43.281 276.469 40.3921V29.7576C276.47 29.0621 276.562 28.6575 276.246 28.2071C276.041 27.9137 275.608 27.519 275.159 27.519H270.95C270.063 27.519 269.454 28.2345 269.454 29.1047V29.105Z" fill="#323435"/>
<path fill-rule="evenodd" clip-rule="evenodd" d="M298.823 29.0113V32.3694C298.823 32.9095 299.085 33.3931 299.417 33.6427C299.856 33.9733 300.235 33.9586 300.974 33.9556L312.292 33.9553C311.864 34.5933 309.276 37.1984 308.765 37.8075L306.097 40.7437C305.73 41.1139 305.527 41.2997 305.198 41.712L302.031 45.0836C301.843 45.3076 301.826 45.3748 301.608 45.5946C301.433 45.7707 301.31 45.8771 301.136 46.0572C300.925 46.2754 300.905 46.3576 300.717 46.5714C300.403 46.9266 300.095 47.1369 299.798 47.521C299.309 48.1523 298.355 48.8107 298.355 49.8139V54.0116C298.355 54.6745 299.064 55.2243 299.758 55.2243H321.459C322.446 55.2243 322.955 54.4267 322.955 53.4518C322.955 51.9434 323.237 49.7586 322.362 49.1002C321.85 48.7153 321.364 48.787 320.524 48.7875H307.802C308.055 48.4116 308.407 48.1894 308.71 47.8272L315.915 39.9943C317.024 38.8944 318.493 37.1371 319.518 36.1244C320.298 35.3534 321.833 33.7451 321.833 32.7429V28.9184C321.833 28.112 321.075 27.519 320.524 27.519H300.132C299.443 27.519 298.823 28.2821 298.823 29.0113Z" fill="#323435"/>
<path fill-rule="evenodd" clip-rule="evenodd" d="M200.985 40.7655V42.1649C200.985 47.0588 203.309 51.1865 206.614 53.4349C213.427 58.0688 224.104 55.5736 226.895 48.6014C227.18 47.8889 227.867 46.2592 227.108 45.4966C226.936 45.324 226.551 45.0567 226.24 45.0567H221.75C221.164 45.0567 220.81 45.5761 220.546 45.9082L219.64 47.1503C219.393 47.4791 219.204 47.6478 218.923 47.927C218.463 48.3832 217.783 48.7738 217.086 48.9878C215.374 49.5132 213.349 49.4469 211.726 48.8042C209.271 47.8324 208 45.1942 208 42.2583C208 39.8635 207.991 37.1351 209.658 35.4231C210.949 34.098 212.463 33.3963 214.454 33.3963C217.938 33.3963 218.802 34.5056 220.186 36.3558C220.529 36.8142 221.043 37.6874 221.75 37.6874H226.24C226.787 37.6874 227.456 36.9931 227.456 36.4744C227.456 34.9575 226.58 33.3006 225.96 32.3696C223.62 28.8563 219.187 26.9595 214.454 26.9595C206.476 26.9595 200.985 32.7854 200.985 40.7655Z" fill="#323435"/>
<path fill-rule="evenodd" clip-rule="evenodd" d="M159.733 29.0118C159.733 29.4024 163.747 38.3586 164.075 39.1403C164.216 39.4766 164.301 39.6239 164.45 39.9791C165.714 43.0047 167.218 46.1835 168.485 49.2008C168.979 50.3774 169.443 51.4208 169.96 52.5807C171.364 55.7313 170.758 55.2243 176.008 55.2243C177.362 55.2243 177.691 53.6305 178.284 52.3639L181.473 45.0966C183.44 40.3884 185.888 35.2799 187.807 30.6109C188.096 29.9089 188.518 29.2584 188.385 28.7101C188.219 28.023 187.764 27.519 186.952 27.519H182.743C181.811 27.519 181.354 28.3212 181.032 29.0778L176.062 40.6321C175.728 41.4253 175.407 42.1592 175.075 42.9133L174.205 44.9376C174.193 44.9635 174.157 45.0393 174.144 45.0629C174.135 45.0809 174.12 45.108 174.111 45.1237L167.19 29.2238C166.907 28.5586 166.392 27.519 165.532 27.519H161.042C160.353 27.519 159.733 28.2821 159.733 29.0113L159.733 29.0118Z" fill="#323435"/>
<path fill-rule="evenodd" clip-rule="evenodd" d="M190.788 28.9181V53.8248C190.788 54.7169 191.595 55.2241 192.097 55.2241H196.306C197.429 55.2241 197.803 54.2951 197.803 53.2653V29.4779C197.803 28.4617 197.441 27.519 196.306 27.519H192.191C191.392 27.519 190.787 28.1217 190.787 28.9184L190.788 28.9181Z" fill="#323435"/>
<path fill-rule="evenodd" clip-rule="evenodd" d="M257.855 48.6011V53.7315C257.855 54.461 258.476 55.224 259.165 55.224H264.309C265.297 55.224 265.806 54.4263 265.806 53.4515V48.8806C265.806 48.008 265.312 47.1084 264.496 47.1084H259.165C258.476 47.1084 257.855 47.8717 257.855 48.6009V48.6011Z" fill="#323435"/>
<path fill-rule="evenodd" clip-rule="evenodd" d="M190.509 18.8436V23.0413C190.509 23.8392 191.182 24.4406 191.724 24.4406H196.776C197.349 24.4406 197.992 23.8001 197.992 23.2279V18.6567C197.992 17.8436 197.09 17.3509 196.214 17.3509C194.888 17.3509 191.797 17.1224 191.05 17.7041C190.763 17.9276 190.509 18.3503 190.509 18.8433L190.509 18.8436Z" fill="#323435"/>
<path d="M108.332 62.4841C108.422 62.4841 108.499 62.5168 108.565 62.5821C108.63 62.6473 108.663 62.7245 108.663 62.8142V70.7071C108.663 70.7968 108.63 70.8741 108.565 70.9393C108.499 71.0046 108.422 71.0372 108.332 71.0372H107.829C107.739 71.0372 107.662 71.0046 107.596 70.9393C107.531 70.8741 107.498 70.7968 107.498 70.7071V67.2615H103.184V70.7071C103.184 70.7968 103.151 70.8741 103.086 70.9393C103.021 71.0046 102.943 71.0372 102.853 71.0372H102.351C102.261 71.0372 102.183 71.0066 102.118 70.9456C102.052 70.8843 102.02 70.805 102.02 70.7071V62.8142C102.02 62.7245 102.052 62.6473 102.118 62.5821C102.183 62.5168 102.261 62.4841 102.351 62.4841H102.853C102.943 62.4841 103.021 62.5168 103.086 62.5821C103.151 62.6473 103.184 62.7245 103.184 62.8142V66.1619H107.498V62.8142C107.498 62.7245 107.531 62.6473 107.596 62.5821C107.662 62.5168 107.739 62.4841 107.829 62.4841H108.332ZM109.874 65.0135C109.874 64.9238 109.906 64.8466 109.972 64.7813C110.037 64.716 110.115 64.6834 110.205 64.6834H110.658C110.748 64.6834 110.825 64.716 110.891 64.7813C110.956 64.8466 110.989 64.9238 110.989 65.0135V68.2391C110.989 68.8664 111.13 69.3347 111.412 69.6444C111.694 69.9538 112.104 70.1085 112.644 70.1085C113.159 70.1085 113.563 69.9538 113.857 69.6444C114.151 69.3347 114.298 68.8664 114.298 68.2391V65.0135C114.298 64.9238 114.331 64.8466 114.397 64.7813C114.462 64.716 114.54 64.6834 114.63 64.6834H115.083C115.173 64.6834 115.25 64.716 115.316 64.7813C115.381 64.8466 115.414 64.9238 115.414 65.0135V70.7071C115.414 70.7968 115.381 70.8741 115.316 70.9393C115.25 71.0046 115.173 71.0372 115.083 71.0372H114.63C114.54 71.0372 114.462 71.0046 114.397 70.9393C114.331 70.8741 114.298 70.7968 114.298 70.7071V70.3285C114.143 70.5323 113.923 70.7216 113.637 70.8965C113.351 71.0716 112.959 71.1593 112.46 71.1593C112.076 71.1593 111.725 71.096 111.406 70.97C111.087 70.8439 110.814 70.6643 110.585 70.4324C110.356 70.2002 110.181 69.9149 110.058 69.5771C109.935 69.2388 109.874 68.8539 109.874 68.4225V65.0135H109.874ZM119.027 71.1593C118.643 71.1593 118.285 71.092 117.954 70.9578C117.623 70.8235 117.336 70.6319 117.09 70.3835C116.845 70.1352 116.649 69.8315 116.502 69.4732C116.355 69.115 116.269 68.7117 116.245 68.2635C116.237 68.1414 116.233 68.0089 116.233 67.8667C116.233 67.7242 116.237 67.5916 116.245 67.4696C116.269 67.0214 116.355 66.6183 116.502 66.2598C116.649 65.9016 116.845 65.5959 117.09 65.3433C117.336 65.0909 117.624 64.8974 117.954 64.7631C118.285 64.6288 118.643 64.5616 119.027 64.5616C119.525 64.5616 119.925 64.6453 120.228 64.8122C120.53 64.9791 120.763 65.1724 120.926 65.3924V65.0137C120.926 64.924 120.959 64.8468 121.025 64.7815C121.09 64.7163 121.168 64.6836 121.257 64.6836H121.711C121.801 64.6836 121.878 64.7163 121.944 64.7815C122.009 64.8468 122.042 64.924 122.042 65.0137V73.0289C122.042 73.1186 122.009 73.1959 121.944 73.2611C121.878 73.3264 121.801 73.359 121.711 73.359H121.257C121.168 73.359 121.09 73.3264 121.025 73.2611C120.959 73.1959 120.926 73.1186 120.926 73.0289V70.3287C120.771 70.5325 120.543 70.7218 120.24 70.8967C119.938 71.0719 119.533 71.1595 119.027 71.1595V71.1593ZM120.926 67.335C120.902 66.8054 120.726 66.3859 120.399 66.0765C120.073 65.7671 119.656 65.6124 119.149 65.6124C118.61 65.6124 118.185 65.7833 117.875 66.1256C117.564 66.4676 117.393 66.9317 117.36 67.5184C117.352 67.7466 117.352 67.9745 117.36 68.2027C117.393 68.7892 117.564 69.2533 117.875 69.5956C118.185 69.9376 118.61 70.1088 119.149 70.1088C119.664 70.1088 120.083 69.9521 120.405 69.6384C120.728 69.3248 120.902 68.8788 120.926 68.3006C120.935 68.1786 120.939 68.0174 120.939 67.8178C120.939 67.6183 120.935 67.4576 120.926 67.3353V67.335ZM123.118 65.0135C123.118 64.9238 123.151 64.8466 123.216 64.7813C123.282 64.716 123.359 64.6834 123.449 64.6834H123.902C123.992 64.6834 124.07 64.716 124.135 64.7813C124.201 64.8466 124.233 64.9238 124.233 65.0135V68.2391C124.233 68.8664 124.374 69.3347 124.656 69.6444C124.938 69.9538 125.349 70.1085 125.888 70.1085C126.403 70.1085 126.807 69.9538 127.101 69.6444C127.396 69.3347 127.543 68.8664 127.543 68.2391V65.0135C127.543 64.9238 127.575 64.8466 127.641 64.7813C127.706 64.716 127.784 64.6834 127.874 64.6834H128.327C128.417 64.6834 128.495 64.716 128.56 64.7813C128.625 64.8466 128.658 64.9238 128.658 65.0135V70.7071C128.658 70.7968 128.625 70.8741 128.56 70.9393C128.495 71.0046 128.417 71.0372 128.327 71.0372H127.874C127.784 71.0372 127.706 71.0046 127.641 70.9393C127.575 70.8741 127.543 70.7968 127.543 70.7071V70.3285C127.387 70.5323 127.167 70.7216 126.881 70.8965C126.595 71.0716 126.203 71.1593 125.704 71.1593C125.32 71.1593 124.969 71.096 124.65 70.97C124.332 70.8439 124.058 70.6643 123.829 70.4324C123.6 70.2002 123.425 69.9149 123.302 69.5771C123.18 69.2388 123.118 68.8539 123.118 68.4225V65.0135H123.118ZM132.271 71.1593C131.887 71.1593 131.529 71.092 131.198 70.9578C130.868 70.8235 130.58 70.6319 130.335 70.3835C130.089 70.1352 129.893 69.8315 129.746 69.4732C129.599 69.115 129.513 68.7117 129.489 68.2635C129.481 68.1414 129.477 68.0089 129.477 67.8667C129.477 67.7242 129.481 67.5916 129.489 67.4696C129.513 67.0214 129.599 66.6183 129.746 66.2598C129.893 65.9016 130.089 65.5959 130.335 65.3433C130.58 65.0909 130.868 64.8974 131.198 64.7631C131.53 64.6288 131.887 64.5616 132.271 64.5616C132.769 64.5616 133.17 64.6453 133.472 64.8122C133.775 64.9791 134.007 65.1724 134.171 65.3924V65.0137C134.171 64.924 134.203 64.8468 134.269 64.7815C134.334 64.7163 134.412 64.6836 134.502 64.6836H134.955C135.045 64.6836 135.123 64.7163 135.188 64.7815C135.253 64.8468 135.286 64.924 135.286 65.0137V73.0289C135.286 73.1186 135.253 73.1959 135.188 73.2611C135.123 73.3264 135.045 73.359 134.955 73.359H134.502C134.412 73.359 134.334 73.3264 134.269 73.2611C134.203 73.1959 134.171 73.1186 134.171 73.0289V70.3287C134.015 70.5325 133.787 70.7218 133.484 70.8967C133.182 71.0719 132.777 71.1595 132.271 71.1595V71.1593ZM134.171 67.335C134.146 66.8054 133.97 66.3859 133.644 66.0765C133.317 65.7671 132.9 65.6124 132.394 65.6124C131.854 65.6124 131.429 65.7833 131.119 66.1256C130.808 66.4676 130.637 66.9317 130.604 67.5184C130.596 67.7466 130.596 67.9745 130.604 68.2027C130.637 68.7892 130.808 69.2533 131.119 69.5956C131.43 69.9376 131.854 70.1088 132.394 70.1088C132.908 70.1088 133.327 69.9521 133.65 69.6384C133.972 69.3248 134.146 68.8788 134.171 68.3006C134.179 68.1786 134.183 68.0174 134.183 67.8178C134.183 67.6183 134.179 67.4576 134.171 67.3353V67.335ZM137.539 70.7071C137.539 70.7968 137.506 70.8741 137.441 70.9393C137.375 71.0046 137.298 71.0372 137.208 71.0372H136.754C136.664 71.0372 136.587 71.0046 136.521 70.9393C136.456 70.8741 136.423 70.7968 136.423 70.7071V65.0135C136.423 64.9238 136.456 64.8466 136.521 64.7813C136.587 64.716 136.664 64.6834 136.754 64.6834H137.208C137.298 64.6834 137.375 64.716 137.441 64.7813C137.506 64.8466 137.539 64.9238 137.539 65.0135V70.7071ZM137.661 63.3882C137.661 63.4779 137.629 63.5551 137.563 63.6204C137.498 63.6857 137.42 63.7183 137.33 63.7183H136.631C136.542 63.7183 136.464 63.6857 136.399 63.6204C136.333 63.5551 136.3 63.4779 136.3 63.3882V62.6919C136.3 62.6022 136.333 62.525 136.399 62.4597C136.464 62.3945 136.542 62.3618 136.631 62.3618H137.33C137.42 62.3618 137.498 62.3945 137.563 62.4597C137.629 62.525 137.661 62.6022 137.661 62.6919V63.3882ZM140.551 73.0653C140.527 73.1303 140.486 73.1954 140.429 73.2606C140.372 73.3259 140.294 73.3585 140.196 73.3585H139.693C139.611 73.3585 139.542 73.3299 139.485 73.2728C139.428 73.2158 139.399 73.1468 139.399 73.0653C139.399 73.0327 139.403 73.004 139.411 72.9796L140.588 70.4259L138.161 65.062C138.153 65.0376 138.149 65.009 138.149 64.9764C138.149 64.8949 138.178 64.8259 138.235 64.7688C138.292 64.7118 138.361 64.6831 138.443 64.6831H138.946C139.044 64.6831 139.121 64.7158 139.179 64.781C139.236 64.8463 139.277 64.9113 139.301 64.9764L141.189 69.1307L143.101 64.9764C143.125 64.9113 143.166 64.8463 143.223 64.781C143.28 64.7158 143.358 64.6831 143.456 64.6831H143.959C144.04 64.6831 144.11 64.7118 144.167 64.7688C144.224 64.8259 144.253 64.8949 144.253 64.9764C144.253 65.009 144.249 65.0376 144.241 65.062L140.551 73.0653H140.551ZM147.008 69.4364C147.008 69.1105 147.073 68.8255 147.204 68.5811C147.334 68.3367 147.514 68.129 147.743 67.9581C147.972 67.7869 148.239 67.6484 148.546 67.5426C148.852 67.4367 149.177 67.3555 149.52 67.2982L151.248 67.0172V66.8585C151.248 66.4429 151.111 66.1313 150.838 65.9238C150.564 65.716 150.223 65.6121 149.814 65.6121C149.455 65.6121 149.183 65.6771 149 65.8074C148.816 65.9377 148.659 66.0927 148.528 66.2718C148.479 66.3371 148.425 66.3819 148.368 66.4061C148.311 66.4305 148.234 66.4427 148.136 66.4427H147.768C147.678 66.4427 147.598 66.41 147.529 66.345C147.459 66.2798 147.429 66.2025 147.437 66.1128C147.453 65.9337 147.525 65.7504 147.651 65.5628C147.778 65.3754 147.95 65.2085 148.166 65.0618C148.383 64.9153 148.632 64.795 148.914 64.7016C149.196 64.6077 149.496 64.5611 149.815 64.5611C150.182 64.5611 150.523 64.6141 150.838 64.7198C151.153 64.8259 151.422 64.9806 151.647 65.1841C151.871 65.3877 152.047 65.6403 152.174 65.9417C152.3 66.2431 152.364 66.5894 152.364 66.9803V70.7069C152.364 70.7966 152.331 70.8738 152.266 70.9391C152.2 71.0043 152.123 71.037 152.033 71.037H151.579C151.489 71.037 151.412 71.0043 151.346 70.9391C151.281 70.8738 151.248 70.7966 151.248 70.7069V70.2059C151.175 70.3606 151.06 70.4971 150.905 70.6152C150.75 70.7333 150.572 70.8332 150.372 70.9147C150.172 70.9961 149.963 71.0572 149.747 71.0978C149.53 71.1386 149.328 71.159 149.14 71.159C148.822 71.159 148.53 71.1142 148.264 71.0248C147.999 70.9351 147.774 70.815 147.59 70.6643C147.406 70.5138 147.263 70.3325 147.161 70.1207C147.059 69.9087 147.008 69.6808 147.008 69.4364H147.008ZM149.263 70.1083C149.557 70.1083 149.827 70.0634 150.072 69.974C150.317 69.8843 150.527 69.7602 150.703 69.6015C150.878 69.4426 151.013 69.2533 151.107 69.0335C151.201 68.8136 151.248 68.5692 151.248 68.3004V67.9947L149.802 68.2269C149.287 68.3084 148.878 68.4386 148.576 68.6178C148.273 68.7969 148.123 69.0291 148.123 69.3143C148.123 69.404 148.143 69.4934 148.184 69.5831C148.225 69.6728 148.29 69.7582 148.38 69.8397C148.47 69.9214 148.586 69.9862 148.729 70.0353C148.872 70.0841 149.05 70.1085 149.262 70.1085L149.263 70.1083ZM155.866 68.6419L154.139 70.8045C154.106 70.8454 154.059 70.8942 153.998 70.951C153.936 71.0081 153.853 71.0367 153.746 71.0367H153.182C153.101 71.0367 153.032 71.0081 152.974 70.951C152.917 70.894 152.888 70.829 152.888 70.7557C152.888 70.6904 152.905 70.6337 152.937 70.5846L155.18 67.7864L153.06 65.1353C153.027 65.0862 153.011 65.0292 153.011 64.9641C153.011 64.8909 153.039 64.8259 153.097 64.7688C153.154 64.7118 153.223 64.6831 153.305 64.6831H153.893C154 64.6831 154.083 64.7118 154.145 64.7688C154.206 64.8259 154.253 64.8747 154.285 64.9153L155.915 66.9559L157.533 64.9153C157.566 64.8745 157.613 64.8256 157.674 64.7688C157.735 64.7118 157.819 64.6831 157.925 64.6831H158.489C158.571 64.6831 158.64 64.7118 158.697 64.7688C158.755 64.8259 158.783 64.8909 158.783 64.9641C158.783 65.0294 158.767 65.0862 158.734 65.1353L156.602 67.8111L158.82 70.5846C158.853 70.6337 158.869 70.6907 158.869 70.7557C158.869 70.829 158.84 70.894 158.783 70.951C158.726 71.0081 158.657 71.0367 158.575 71.0367H157.987C157.88 71.0367 157.797 71.0081 157.735 70.951C157.674 70.894 157.627 70.8452 157.594 70.8045L155.866 68.6419ZM162.482 64.5611C162.867 64.5611 163.224 64.6283 163.555 64.7626C163.886 64.8969 164.174 65.0885 164.419 65.3368C164.664 65.5852 164.86 65.8889 165.007 66.2471C165.154 66.6054 165.24 67.0087 165.264 67.4569C165.273 67.5789 165.277 67.7115 165.277 67.8537C165.277 67.9962 165.273 68.1287 165.264 68.2508C165.24 68.699 165.154 69.1021 165.007 69.4605C164.86 69.8188 164.664 70.1244 164.419 70.3771C164.174 70.6294 163.886 70.823 163.555 70.9573C163.224 71.0915 162.867 71.1588 162.482 71.1588C161.984 71.1588 161.584 71.0751 161.281 70.9082C160.979 70.7413 160.746 70.548 160.583 70.328V70.7066C160.583 70.7963 160.55 70.8736 160.485 70.9388C160.419 71.0041 160.342 71.0367 160.252 71.0367H159.798C159.708 71.0367 159.631 71.0041 159.565 70.9388C159.5 70.8736 159.467 70.7963 159.467 70.7066V62.6914C159.467 62.6017 159.5 62.5245 159.565 62.4592C159.631 62.394 159.708 62.3613 159.798 62.3613H160.252C160.342 62.3613 160.419 62.394 160.485 62.4592C160.55 62.5245 160.583 62.6017 160.583 62.6914V65.3916C160.738 65.1879 160.967 64.9985 161.269 64.8236C161.571 64.6485 161.976 64.5608 162.482 64.5608V64.5611ZM160.583 68.3853C160.624 68.915 160.803 69.3345 161.122 69.6439C161.441 69.9533 161.854 70.108 162.36 70.108C162.899 70.108 163.322 69.9371 163.628 69.5948C163.935 69.2528 164.108 68.7887 164.149 68.202C164.157 67.9738 164.157 67.7458 164.149 67.5176C164.108 66.9312 163.935 66.4671 163.628 66.1248C163.322 65.7828 162.899 65.6116 162.36 65.6116C161.845 65.6116 161.433 65.7683 161.122 66.082C160.811 66.3956 160.632 66.8415 160.583 67.4197C160.566 67.5418 160.558 67.703 160.558 67.9025C160.558 68.1021 160.566 68.2628 160.583 68.3851V68.3853ZM168.706 64.5611C169.147 64.5611 169.54 64.6283 169.883 64.7626C170.226 64.8969 170.52 65.0825 170.765 65.3186C171.01 65.5548 171.204 65.8421 171.347 66.1801C171.49 66.5182 171.578 66.8866 171.611 67.2857C171.619 67.3592 171.623 67.4466 171.623 67.5485C171.623 67.6504 171.623 67.7563 171.623 67.8664C171.623 67.9763 171.623 68.0821 171.623 68.184C171.623 68.2859 171.619 68.3694 171.611 68.4347C171.57 68.8417 171.48 69.2127 171.341 69.5465C171.202 69.8806 171.01 70.1656 170.765 70.4017C170.52 70.6379 170.226 70.8232 169.883 70.9578C169.54 71.092 169.147 71.1593 168.706 71.1593C168.265 71.1593 167.873 71.092 167.529 70.9578C167.186 70.8235 166.892 70.6379 166.647 70.4017C166.402 70.1656 166.208 69.8803 166.065 69.5465C165.922 69.2124 165.834 68.8417 165.801 68.4347C165.793 68.3694 165.787 68.2859 165.783 68.184C165.779 68.0821 165.777 67.9763 165.777 67.8664C165.777 67.7563 165.779 67.6504 165.783 67.5485C165.787 67.4466 165.793 67.3592 165.801 67.2857C165.834 66.8866 165.922 66.5179 166.065 66.1801C166.208 65.8418 166.402 65.5548 166.647 65.3186C166.892 65.0825 167.186 64.8971 167.529 64.7626C167.873 64.6283 168.265 64.5611 168.706 64.5611ZM170.495 68.3731C170.512 68.2349 170.52 68.0657 170.52 67.8662C170.52 67.6666 170.512 67.4935 170.495 67.3467C170.471 67.1024 170.418 66.8742 170.336 66.6624C170.254 66.4507 170.14 66.2676 169.993 66.1126C169.846 65.9579 169.666 65.8356 169.454 65.7461C169.241 65.6565 168.992 65.6119 168.706 65.6119C168.42 65.6119 168.171 65.6567 167.958 65.7461C167.746 65.8358 167.566 65.9579 167.419 66.1126C167.272 66.2673 167.158 66.4507 167.076 66.6624C166.994 66.8742 166.941 67.1024 166.917 67.3467C166.9 67.4932 166.892 67.6666 166.892 67.8662C166.892 68.0657 166.9 68.2346 166.917 68.3731C166.941 68.6175 166.994 68.8457 167.076 69.0575C167.158 69.2692 167.272 69.4523 167.419 69.6073C167.566 69.762 167.746 69.8843 167.958 69.9737C168.171 70.0634 168.42 70.108 168.706 70.108C168.992 70.108 169.241 70.0632 169.454 69.9737C169.666 69.884 169.846 69.762 169.993 69.6073C170.14 69.4526 170.255 69.2692 170.336 69.0575C170.418 68.8457 170.471 68.6175 170.495 68.3731ZM175.702 64.6831C175.792 64.6831 175.869 64.7158 175.935 64.781C176 64.8463 176.033 64.9235 176.033 65.0132V65.4041C176.033 65.4938 176 65.571 175.935 65.6363C175.869 65.7015 175.792 65.7342 175.702 65.7342H174.991C174.051 65.7342 173.582 66.2025 173.582 67.1392V70.7069C173.582 70.7966 173.549 70.8738 173.483 70.9391C173.418 71.0043 173.341 71.037 173.251 71.037H172.797C172.707 71.037 172.63 71.0043 172.564 70.9391C172.499 70.8738 172.466 70.7966 172.466 70.7069V65.0132C172.466 64.9235 172.499 64.8463 172.564 64.781C172.63 64.7158 172.707 64.6831 172.797 64.6831H173.251C173.341 64.6831 173.418 64.7158 173.483 64.781C173.549 64.8463 173.582 64.9235 173.582 65.0132V65.3919C173.745 65.1475 173.941 64.9684 174.17 64.854C174.399 64.7402 174.697 64.6831 175.064 64.6831H175.702H175.702ZM178.874 64.5611C179.315 64.5611 179.707 64.6283 180.05 64.7626C180.394 64.8969 180.688 65.0825 180.933 65.3186C181.178 65.5548 181.372 65.8421 181.515 66.1801C181.658 66.5182 181.746 66.8866 181.778 67.2857C181.787 67.3592 181.791 67.4466 181.791 67.5485C181.791 67.6504 181.791 67.7563 181.791 67.8664C181.791 67.9763 181.791 68.0821 181.791 68.184C181.791 68.2859 181.787 68.3694 181.778 68.4347C181.738 68.8417 181.648 69.2127 181.509 69.5465C181.37 69.8806 181.178 70.1656 180.933 70.4017C180.688 70.6379 180.394 70.8232 180.05 70.9578C179.708 71.092 179.315 71.1593 178.874 71.1593C178.433 71.1593 178.041 71.092 177.697 70.9578C177.354 70.8235 177.06 70.6379 176.815 70.4017C176.57 70.1656 176.376 69.8803 176.233 69.5465C176.09 69.2124 176.002 68.8417 175.969 68.4347C175.961 68.3694 175.955 68.2859 175.951 68.184C175.947 68.0821 175.945 67.9763 175.945 67.8664C175.945 67.7563 175.947 67.6504 175.951 67.5485C175.955 67.4466 175.961 67.3592 175.969 67.2857C176.002 66.8866 176.09 66.5179 176.233 66.1801C176.376 65.8418 176.57 65.5548 176.815 65.3186C177.06 65.0825 177.354 64.8971 177.697 64.7626C178.04 64.6283 178.433 64.5611 178.874 64.5611ZM180.663 68.3731C180.68 68.2349 180.688 68.0657 180.688 67.8662C180.688 67.6666 180.68 67.4935 180.663 67.3467C180.639 67.1024 180.585 66.8742 180.504 66.6624C180.422 66.4507 180.308 66.2676 180.161 66.1126C180.014 65.9579 179.834 65.8356 179.622 65.7461C179.409 65.6565 179.16 65.6119 178.874 65.6119C178.588 65.6119 178.339 65.6567 178.126 65.7461C177.914 65.8358 177.734 65.9579 177.587 66.1126C177.44 66.2673 177.325 66.4507 177.244 66.6624C177.162 66.8742 177.109 67.1024 177.085 67.3467C177.068 67.4932 177.06 67.6666 177.06 67.8662C177.06 68.0657 177.068 68.2346 177.085 68.3731C177.109 68.6175 177.162 68.8457 177.244 69.0575C177.326 69.2692 177.44 69.4523 177.587 69.6073C177.734 69.762 177.914 69.8843 178.126 69.9737C178.339 70.0634 178.588 70.108 178.874 70.108C179.16 70.108 179.409 70.0632 179.622 69.9737C179.834 69.884 180.014 69.762 180.161 69.6073C180.308 69.4526 180.423 69.2692 180.504 69.0575C180.586 68.8457 180.639 68.6175 180.663 68.3731ZM184.215 68.8988C184.215 69.0532 184.229 69.198 184.258 69.3325C184.287 69.4668 184.338 69.5829 184.411 69.6805C184.485 69.7784 184.589 69.8534 184.724 69.9065C184.859 69.9595 185.032 69.9859 185.245 69.9859H185.894C185.984 69.9859 186.062 70.0186 186.127 70.0838C186.193 70.1491 186.225 70.2263 186.225 70.316V70.7069C186.225 70.7966 186.193 70.8738 186.127 70.9391C186.062 71.0043 185.984 71.037 185.894 71.037H185.122C184.411 71.037 183.896 70.8539 183.578 70.4872C183.259 70.1207 183.1 69.5911 183.1 68.8988V65.7342H182.193C182.103 65.7342 182.026 65.7015 181.96 65.6363C181.895 65.571 181.862 65.4938 181.862 65.4041V65.0132C181.862 64.9235 181.895 64.8463 181.96 64.781C182.026 64.7158 182.103 64.6831 182.193 64.6831H183.1V62.6917C183.1 62.602 183.133 62.5248 183.198 62.4595C183.264 62.3942 183.341 62.3616 183.431 62.3616H183.884C183.974 62.3616 184.052 62.3942 184.117 62.4595C184.183 62.5248 184.215 62.602 184.215 62.6917V64.6831H185.772C185.862 64.6831 185.939 64.7158 186.005 64.781C186.07 64.8463 186.103 64.9235 186.103 65.0132V65.4041C186.103 65.4938 186.07 65.571 186.005 65.6363C185.939 65.7015 185.862 65.7342 185.772 65.7342H184.215V68.8988H184.215ZM192.755 71.159C192.248 71.159 191.844 71.0714 191.542 70.8962C191.239 70.7213 191.01 70.532 190.855 70.3282V73.0285C190.855 73.1181 190.823 73.1954 190.757 73.2606C190.692 73.3259 190.614 73.3585 190.524 73.3585H190.071C189.981 73.3585 189.903 73.3259 189.838 73.2606C189.772 73.1954 189.74 73.1181 189.74 73.0285V65.0132C189.74 64.9235 189.772 64.8463 189.838 64.781C189.903 64.7158 189.981 64.6831 190.071 64.6831H190.524C190.614 64.6831 190.692 64.7158 190.757 64.781C190.823 64.8463 190.855 64.9235 190.855 65.0132V65.3919C191.018 65.1719 191.251 64.9786 191.554 64.8117C191.856 64.6448 192.256 64.5611 192.755 64.5611C193.139 64.5611 193.497 64.6283 193.827 64.7626C194.158 64.8969 194.446 65.0907 194.691 65.3428C194.936 65.5954 195.132 65.9011 195.28 66.2593C195.426 66.6176 195.512 67.0209 195.537 67.4691C195.545 67.5911 195.549 67.7237 195.549 67.8662C195.549 68.0084 195.545 68.1409 195.537 68.263C195.512 68.7112 195.426 69.1143 195.28 69.4727C195.132 69.831 194.936 70.1347 194.691 70.383C194.446 70.6317 194.158 70.823 193.827 70.9573C193.496 71.0915 193.139 71.1588 192.755 71.1588V71.159ZM190.855 67.3348C190.847 67.4569 190.843 67.6178 190.843 67.8173C190.843 68.0169 190.847 68.1778 190.855 68.3001C190.88 68.8783 191.053 69.3243 191.376 69.6379C191.699 69.9516 192.118 70.1083 192.632 70.1083C193.172 70.1083 193.597 69.9374 193.907 69.5951C194.217 69.253 194.389 68.7889 194.422 68.2022C194.43 67.974 194.43 67.7461 194.422 67.5179C194.389 66.9315 194.217 66.4673 193.907 66.1251C193.596 65.783 193.171 65.6119 192.632 65.6119C192.126 65.6119 191.709 65.7666 191.382 66.076C191.055 66.3856 190.88 66.8052 190.855 67.3345V67.3348ZM198.979 64.5611C199.42 64.5611 199.812 64.6283 200.155 64.7626C200.498 64.8969 200.793 65.0825 201.038 65.3186C201.283 65.5548 201.477 65.8421 201.62 66.1801C201.763 66.5182 201.851 66.8866 201.883 67.2857C201.891 67.3592 201.896 67.4466 201.896 67.5485C201.896 67.6504 201.896 67.7563 201.896 67.8664C201.896 67.9763 201.896 68.0821 201.896 68.184C201.896 68.2859 201.891 68.3694 201.883 68.4347C201.842 68.8417 201.753 69.2127 201.613 69.5465C201.475 69.8806 201.283 70.1656 201.038 70.4017C200.793 70.6379 200.498 70.8232 200.155 70.9578C199.812 71.092 199.42 71.1593 198.979 71.1593C198.537 71.1593 198.145 71.092 197.802 70.9578C197.459 70.8235 197.165 70.6379 196.92 70.4017C196.674 70.1656 196.48 69.8803 196.338 69.5465C196.195 69.2124 196.107 68.8417 196.074 68.4347C196.066 68.3694 196.06 68.2859 196.055 68.184C196.051 68.0821 196.049 67.9763 196.049 67.8664C196.049 67.7563 196.051 67.6504 196.055 67.5485C196.06 67.4466 196.066 67.3592 196.074 67.2857C196.107 66.8866 196.194 66.5179 196.338 66.1801C196.48 65.8418 196.675 65.5548 196.92 65.3186C197.165 65.0825 197.459 64.8971 197.802 64.7626C198.145 64.6283 198.537 64.5611 198.979 64.5611ZM200.768 68.3731C200.784 68.2349 200.793 68.0657 200.793 67.8662C200.793 67.6666 200.784 67.4935 200.768 67.3467C200.743 67.1024 200.69 66.8742 200.609 66.6624C200.527 66.4507 200.412 66.2676 200.266 66.1126C200.119 65.9579 199.939 65.8356 199.726 65.7461C199.514 65.6565 199.264 65.6119 198.979 65.6119C198.692 65.6119 198.443 65.6567 198.231 65.7461C198.019 65.8358 197.839 65.9579 197.691 66.1126C197.545 66.2673 197.43 66.4507 197.348 66.6624C197.267 66.8742 197.214 67.1024 197.189 67.3467C197.173 67.4932 197.165 67.6666 197.165 67.8662C197.165 68.0657 197.173 68.2346 197.189 68.3731C197.214 68.6175 197.267 68.8457 197.348 69.0575C197.43 69.2692 197.545 69.4523 197.691 69.6073C197.838 69.762 198.019 69.8843 198.231 69.9737C198.443 70.0634 198.692 70.108 198.979 70.108C199.264 70.108 199.514 70.0632 199.726 69.9737C199.939 69.884 200.118 69.762 200.266 69.6073C200.412 69.4526 200.527 69.2692 200.609 69.0575C200.69 68.8457 200.743 68.6175 200.768 68.3731ZM205.974 64.6831C206.064 64.6831 206.142 64.7158 206.207 64.781C206.273 64.8463 206.306 64.9235 206.306 65.0132V65.4041C206.306 65.4938 206.273 65.571 206.207 65.6363C206.142 65.7015 206.064 65.7342 205.974 65.7342H205.264C204.324 65.7342 203.854 66.2025 203.854 67.1392V70.7069C203.854 70.7966 203.821 70.8738 203.756 70.9391C203.69 71.0043 203.613 71.037 203.523 71.037H203.07C202.98 71.037 202.902 71.0043 202.837 70.9391C202.771 70.8738 202.738 70.7966 202.738 70.7069V65.0132C202.738 64.9235 202.771 64.8463 202.837 64.781C202.902 64.7158 202.98 64.6831 203.07 64.6831H203.523C203.613 64.6831 203.69 64.7158 203.756 64.781C203.821 64.8463 203.854 64.9235 203.854 65.0132V65.3919C204.017 65.1475 204.213 64.9684 204.442 64.854C204.671 64.7402 204.969 64.6831 205.337 64.6831H205.974H205.974ZM208.338 68.8985C208.338 69.053 208.352 69.1977 208.381 69.3322C208.409 69.4665 208.46 69.5826 208.534 69.6803C208.607 69.7782 208.711 69.8532 208.846 69.9062C208.981 69.9593 209.155 69.9857 209.367 69.9857H210.017C210.107 69.9857 210.184 70.0183 210.25 70.0836C210.315 70.1489 210.348 70.2261 210.348 70.3158V70.7066C210.348 70.7963 210.315 70.8736 210.25 70.9388C210.184 71.0041 210.107 71.0367 210.017 71.0367H209.244C208.534 71.0367 208.019 70.8536 207.7 70.4869C207.382 70.1205 207.222 69.5908 207.222 68.8985V65.7339H206.316C206.226 65.7339 206.148 65.7013 206.083 65.636C206.017 65.5708 205.984 65.4935 205.984 65.4038V65.013C205.984 64.9233 206.017 64.8461 206.083 64.7808C206.148 64.7155 206.226 64.6829 206.316 64.6829H207.222V62.6914C207.222 62.6017 207.255 62.5245 207.321 62.4592C207.386 62.394 207.464 62.3613 207.553 62.3613H208.007C208.097 62.3613 208.174 62.394 208.24 62.4592C208.305 62.5245 208.338 62.6017 208.338 62.6914V64.6829H209.894C209.984 64.6829 210.062 64.7155 210.127 64.7808C210.193 64.8461 210.225 64.9233 210.225 65.013V65.4038C210.225 65.4935 210.193 65.5708 210.127 65.636C210.062 65.7013 209.984 65.7339 209.894 65.7339H208.338V68.8985H208.338Z" fill="#2B2A29"/>
<path d="M210.42 69.4366C210.42 69.1108 210.485 68.8258 210.616 68.5814C210.746 68.337 210.926 68.1292 211.155 67.9583C211.384 67.7872 211.651 67.6487 211.958 67.5428C212.264 67.4369 212.589 67.3557 212.932 67.2984L214.66 67.0174V66.8587C214.66 66.4432 214.523 66.1315 214.25 65.924C213.976 65.7162 213.635 65.6124 213.226 65.6124C212.867 65.6124 212.595 65.6774 212.412 65.8077C212.228 65.938 212.071 66.0929 211.94 66.272C211.891 66.3373 211.837 66.3821 211.78 66.4063C211.723 66.4307 211.646 66.4429 211.547 66.4429H211.18C211.09 66.4429 211.011 66.4103 210.941 66.3453C210.871 66.28 210.841 66.2028 210.849 66.1131C210.865 65.934 210.937 65.7506 211.063 65.563C211.19 65.3757 211.362 65.2088 211.578 65.062C211.795 64.9156 212.044 64.7952 212.326 64.7018C212.608 64.6079 212.908 64.5613 213.227 64.5613C213.594 64.5613 213.935 64.6144 214.25 64.72C214.565 64.8261 214.834 64.9808 215.059 65.1844C215.283 65.3879 215.459 65.6405 215.586 65.9419C215.712 66.2434 215.776 66.5897 215.776 66.9805V70.7071C215.776 70.7968 215.743 70.8741 215.678 70.9393C215.612 71.0046 215.535 71.0372 215.445 71.0372H214.991C214.901 71.0372 214.824 71.0046 214.758 70.9393C214.693 70.8741 214.66 70.7968 214.66 70.7071V70.2062C214.587 70.3609 214.472 70.4974 214.317 70.6155C214.162 70.7336 213.984 70.8335 213.784 70.9149C213.584 70.9964 213.375 71.0574 213.159 71.098C212.942 71.1389 212.74 71.1593 212.552 71.1593C212.234 71.1593 211.942 71.1145 211.676 71.025C211.411 70.9353 211.186 70.8153 211.002 70.6645C210.818 70.5141 210.675 70.3327 210.573 70.121C210.471 69.909 210.42 69.681 210.42 69.4366H210.42ZM212.675 70.1085C212.969 70.1085 213.239 70.0637 213.484 69.9742C213.729 69.8845 213.939 69.7605 214.115 69.6018C214.29 69.4428 214.425 69.2535 214.519 69.0338C214.613 68.8138 214.66 68.5694 214.66 68.3006V67.995L213.214 68.2271C212.699 68.3086 212.29 68.4389 211.988 68.618C211.685 68.7971 211.535 69.0293 211.535 69.3146C211.535 69.4042 211.555 69.4937 211.596 69.5834C211.637 69.673 211.702 69.7585 211.792 69.84C211.882 69.9217 211.998 69.9864 212.141 70.0355C212.284 70.0843 212.462 70.1088 212.674 70.1088L212.675 70.1085ZM217.98 70.7071C217.98 70.7968 217.947 70.8741 217.881 70.9393C217.816 71.0046 217.738 71.0372 217.648 71.0372H217.195C217.105 71.0372 217.027 71.0046 216.962 70.9393C216.897 70.8741 216.864 70.7968 216.864 70.7071V62.6919C216.864 62.6022 216.897 62.525 216.962 62.4597C217.027 62.3944 217.105 62.3618 217.195 62.3618H217.648C217.738 62.3618 217.816 62.3944 217.881 62.4597C217.947 62.525 217.98 62.6022 217.98 62.6919V70.7071ZM220.232 70.7071C220.232 70.7968 220.2 70.8741 220.134 70.9393C220.069 71.0046 219.991 71.0372 219.901 71.0372H219.448C219.358 71.0372 219.28 71.0046 219.215 70.9393C219.149 70.8741 219.117 70.7968 219.117 70.7071V65.0135C219.117 64.9238 219.149 64.8466 219.215 64.7813C219.28 64.716 219.358 64.6834 219.448 64.6834H219.901C219.991 64.6834 220.069 64.716 220.134 64.7813C220.2 64.8466 220.232 64.9238 220.232 65.0135V70.7071ZM220.355 63.3882C220.355 63.4779 220.322 63.5551 220.256 63.6204C220.191 63.6856 220.114 63.7183 220.024 63.7183H219.325C219.235 63.7183 219.158 63.6856 219.092 63.6204C219.027 63.5551 218.994 63.4779 218.994 63.3882V62.6919C218.994 62.6022 219.027 62.525 219.092 62.4597C219.158 62.3944 219.235 62.3618 219.325 62.3618H220.024C220.114 62.3618 220.191 62.3944 220.256 62.4597C220.322 62.525 220.355 62.6022 220.355 62.6919V63.3882Z" fill="#2B2A29"/>
<defs>
<linearGradient id="paint0_linear_1648_6781" x1="-4.53627" y1="50.6496" x2="96.5095" y2="50.6496" gradientUnits="userSpaceOnUse">
<stop stop-color="#E1D363"/>
<stop offset="0.14902" stop-color="#E1D363"/>
<stop offset="0.521569" stop-color="#FCFB8A"/>
<stop offset="0.839216" stop-color="#E1D363"/>
<stop offset="1" stop-color="#E1D363"/>
</linearGradient>
</defs>
</svg>
