<svg width="94" height="90" viewBox="0 0 94 90" fill="none" xmlns="http://www.w3.org/2000/svg">
<path d="M69.3035 1.68708C67.5887 0.965145 62.552 0.0201855 60.2473 0.00084877C57.944 0.0201855 52.9073 0.965145 51.1911 1.68708C43.2133 5.04667 43.1161 11.5712 43.1161 21.7338H60.2473H77.3799C77.3799 11.5712 77.2827 5.04667 69.3035 1.68708Z" fill="#363536"/>
<path d="M67.0701 42.0988H53.7879C53.7879 42.0988 55.817 53.2708 46.1563 62.5077L59.7913 78.4574H61.0681L74.7017 62.5077C65.041 53.2708 67.0701 42.0988 67.0701 42.0988Z" fill="#FAB76E"/>
<path d="M67.0731 42.0987H53.791C53.791 42.0987 54.7749 47.5417 52.0881 53.9695C57.6348 51.8746 62.0564 47.454 66.936 43.3944C66.9879 42.5719 67.0731 42.0987 67.0731 42.0987Z" fill="#E7A24D"/>
<path d="M53.073 51.132C52.0904 54.6528 50.0946 58.7408 46.1563 62.5077L59.7913 78.4574H61.0681L74.7017 62.5077C70.7634 58.7408 68.7689 54.6528 67.7864 51.132L60.4956 55.0318L53.073 51.132Z" fill="#EFF0EF"/>
<path d="M53.074 51.1321C52.0915 54.6529 59.4968 60.1782 59.4968 60.1782L55.7954 78.4575L60.4301 81.1519L65.054 78.4575L61.5724 60.2775C61.5724 60.2775 68.77 54.6529 67.7874 51.1321L60.4966 55.0319L53.074 51.1321Z" fill="#302F2F"/>
<path d="M77.9232 20.9847C77.4119 19.7046 76.5159 20.3659 75.8195 21.209C76.0192 11.2759 70.6017 6.23139 70.6017 6.23139H60.4298H50.2578C50.2578 6.23139 44.8057 11.2643 44.9788 21.1355C44.2918 20.3298 43.4344 19.742 42.9364 20.9847C42.0124 23.2936 44.184 26.4586 43.7686 29.6647C43.4876 31.8344 45.2544 31.6166 46.3728 31.0094C46.7935 32.6505 47.4193 34.5855 48.4245 36.8493C50.5521 41.6386 56.6553 45.9999 60.4005 45.9999C64.1458 45.9999 70.1597 41.6038 72.3752 36.8493C73.3937 34.6642 74.0301 32.849 74.4349 30.9836C75.5492 31.6101 77.3773 31.8679 77.091 29.6647C76.6756 26.4586 78.8485 23.2936 77.9232 20.9847Z" fill="#FAB76E"/>
<path d="M68.0456 51.9946C67.9724 51.7639 67.9031 51.5357 67.8379 51.3088L68.0536 51.4313C68.0522 51.6066 68.0509 51.7948 68.0456 51.9946Z" fill="#D3D2D1"/>
<path d="M60.4963 55.0319L67.2838 50.9967L67.6513 51.2043L60.4963 55.0319Z" fill="#CC975B"/>
<path d="M64.4866 62.3429L62.5081 59.4951C64.3841 57.8617 68.3757 54.0161 67.8271 51.3037L67.8364 51.3088C67.9017 51.5357 67.9709 51.7639 68.0441 51.9947C68.0108 53.5056 67.8524 55.7075 67.3451 58.4174L64.4866 62.3429ZM56.5075 62.3429L53.5158 58.2356C53.3347 57.2868 53.1923 56.4011 53.0804 55.5838L56.5075 60.2905L57.7111 58.7036C58.0146 58.9717 58.2956 59.2115 58.5405 59.4165L56.5075 62.3429Z" fill="#C2C2C0"/>
<path d="M62.5067 59.4951L60.4949 56.6009L58.5391 59.4165C58.2941 59.2115 58.0132 58.9717 57.7096 58.7036L60.4949 55.032L67.6499 51.2044L67.8256 51.3037C68.3742 54.0161 64.3826 57.8617 62.5067 59.4951Z" fill="#282726"/>
<path d="M60.4963 55.0319L64.4866 60.2904L70.868 51.1334L67.2839 48.9444L60.4963 55.0319Z" fill="#EFF0EF"/>
<path d="M60.4967 55.0319L56.5078 60.2904L50.0052 51.3603L53.5774 48.9444L60.4967 55.0319Z" fill="#EFF0EF"/>
<path d="M90.5729 58.8787C87.9873 54.3202 68.2372 49.7178 68.2372 49.7178L68.2411 49.7887L67.9935 49.7178C67.9935 49.7411 68.6432 56.049 65.6023 65.0642C64.5944 68.0564 63.4614 71.0898 62.4762 73.6256C62.0887 74.6234 60.4964 78.7771 60.4964 78.7771C60.4964 78.7771 58.5445 74.6234 58.1557 73.6256C57.1705 71.0898 56.0375 68.0564 55.0283 65.0642C51.9887 56.049 52.6384 49.7411 52.6397 49.7178L52.3908 49.7887L52.3934 49.7178C52.3934 49.7178 32.646 54.3202 30.0591 58.8787C28.7064 61.2624 27.4149 73.7429 26.632 82.8303H60.3166H93.9999C93.217 73.7429 91.9256 61.2624 90.5729 58.8787Z" fill="#46494E"/>
<path d="M71.7081 58.2034L74.2205 51.1619L68.2971 49.4731C68.2971 49.4731 68.6699 55.5876 65.9485 64.3269C63.9048 70.894 60.8745 77.5706 60.4538 78.5182C60.033 77.5706 57.092 70.894 55.0482 64.3269C52.3282 55.5876 52.6996 49.4731 52.6996 49.4731L46.7762 51.1619L49.2872 58.2034L45.0001 60.2067L60.4777 79.1202L75.9953 60.2067L71.7081 58.2034Z" fill="#717374"/>
<path d="M48.5518 5.94022C48.5518 5.94022 59.9592 26.6676 77.8693 5.13578C77.8693 5.13578 62.1721 -6.93864 48.5518 5.94022Z" fill="#363536"/>
<path d="M48.2869 29.398C47.5506 23.2692 46.9262 8.92971 56.4045 4.93069L53.5034 3.57189C53.5034 3.57189 45.025 5.23234 44.2461 17.9101L46.5201 31.2917H46.5401C47.5932 31.2917 48.4081 30.41 48.2869 29.398Z" fill="#363536"/>
<path d="M74.2043 31.2917H74.2975L76.5569 17.9939C75.7781 5.31614 67.2997 3.65569 67.2997 3.65569L64.3998 5.01448C73.8688 9.01222 73.2537 23.3298 72.5188 29.4689C72.4016 30.4435 73.1898 31.2917 74.2043 31.2917Z" fill="#363536"/>
<path d="M40.2966 53.2322C42.5361 52.4471 44.8168 51.7509 46.7859 51.1901V51.1914C44.8168 51.7509 42.5361 52.4471 40.2966 53.2322Z" fill="#D7D8D6"/>
<path d="M51.7494 82.8303H40.2966V53.2321C42.5361 52.447 44.8168 51.7509 46.7859 51.1914L49.2863 58.2032L44.9992 60.2066L51.7494 68.4547V82.8303Z" fill="#3A3C41"/>
<path d="M51.7504 68.4548L45.0001 60.2067L49.2872 58.2033L46.7869 51.1915V51.1902L46.7762 51.1618L48.7321 50.6036L51.7504 53.4759V68.4548Z" fill="#5C5F60"/>
<path d="M40.2985 51.4531L31.165 42.7589V51.4531H40.2985Z" fill="#CECDCB"/>
<path d="M31.1629 42.7588H0V89.5237H40.2964V51.453H31.1629V42.7588Z" fill="#EBECEA"/>
<path d="M31.165 51.4531H40.2985L31.165 42.7589V51.4531Z" fill="#A5A5A4"/>
<path d="M36.157 68.1647H4.97015V66.1419H36.157V68.1647Z" fill="#B4B6B4"/>
<path d="M36.157 71.8726H4.97015V69.8498H36.157V71.8726Z" fill="#B4B6B4"/>
<path d="M36.157 75.5801H4.97015V73.5574H36.157V75.5801Z" fill="#B4B6B4"/>
<path d="M36.157 79.2878H4.97015V77.2651H36.157V79.2878Z" fill="#B4B6B4"/>
<path d="M36.157 82.9954H4.97015V80.9726H36.157V82.9954Z" fill="#B4B6B4"/>
<path d="M36.157 57.1759H4.97015V55.1532H36.157V57.1759Z" fill="#B4B6B4"/>
<path d="M36.157 60.8835H4.97015V58.8608H36.157V60.8835Z" fill="#B4B6B4"/>
<path d="M36.157 64.5924H4.97015V62.5684H36.157V64.5924Z" fill="#B4B6B4"/>
<path d="M14.8927 53.1304C14.8874 53.1304 14.8834 53.1304 14.8781 53.1304H14.8434C13.8928 53.1201 13.1339 52.228 13.1499 51.136L13.1645 50.0815L13.1978 44.2699H12.8051L12.7758 50.066L12.7704 50.4863C12.7545 51.573 11.9769 52.4471 11.0316 52.4471C11.0276 52.4471 11.0223 52.4471 11.017 52.4471L10.9837 52.4458C10.0317 52.4368 9.27283 51.5447 9.29014 50.4528L9.30612 49.152L9.32476 44.2699H9.01453L9.00922 48.0768C9.00389 48.3681 8.93199 48.6363 8.81749 48.8748C8.56052 49.4085 8.07057 49.7746 7.50472 49.7746C7.50073 49.7746 7.49674 49.7746 7.49274 49.7746L7.46344 49.7734C6.6393 49.7656 5.98426 48.9934 5.99757 48.0497C5.99757 48.0497 5.99757 44.5419 5.99757 44.3369V44.3266C5.99891 43.7181 6.13204 43.1689 6.41031 42.7589H8.96127C9.07444 42.9214 9.15833 43.1109 9.18629 43.3236C9.18363 43.1921 9.19161 42.9858 9.2462 42.7589H12.8277C12.8623 42.8685 12.9129 42.9665 12.9302 43.0877C12.9289 42.9897 12.9342 42.8775 12.9448 42.7589H16.762C16.774 42.8647 16.79 42.9626 16.7966 43.0799L16.8019 42.7589H20.5525C20.5831 43.3081 20.5498 43.8805 20.5512 44.3266V44.3369C20.5512 44.4787 20.4819 50.4863 20.4819 50.4863C20.4646 51.573 19.6884 52.4471 18.7431 52.4471C18.7391 52.4471 18.7338 52.4471 18.7285 52.4471L18.6939 52.4458C17.7432 52.4368 16.9843 51.5447 17.0016 50.4528L17.015 49.2603L17.0349 44.2699H16.6781L16.6541 49.4253L16.6315 51.1695C16.6155 52.2563 15.838 53.1304 14.8927 53.1304Z" fill="#C1C3C1"/>
<path d="M19.524 43.423C19.5213 42.1957 19.7916 40.0079 18.2032 40.0079C17.2007 39.9512 16.7573 40.0595 16.4591 40.1936C15.5923 40.5855 15.7854 42.5682 15.7854 42.5682C15.8027 40.5455 15.0624 40.2026 13.8681 40.1781C11.5022 40.1265 11.9336 42.5682 11.9336 42.5682C11.9336 41.3641 11.1907 40.6242 10.1376 40.6229C7.85818 40.6203 8.1684 42.5682 8.1684 42.5682C8.1684 41.9675 7.73968 41.5072 7.31896 41.3667C6.64926 41.1463 5.94628 41.2907 5.66003 41.5356C5.18472 41.9443 4.97302 42.6366 4.97035 43.423V43.4333C4.97035 43.637 4.97035 47.1448 4.97035 47.1448C4.95704 48.0898 5.61209 48.862 6.4349 48.8697H6.46552C7.0367 48.8762 7.53066 48.5075 7.79028 47.9699C7.90345 47.7327 7.97667 47.4645 7.982 47.1732L7.98733 43.3649H8.29754L8.2789 48.2471L8.26159 49.5478C8.24561 50.641 9.00453 51.5332 9.95515 51.5422H9.98975C10.9417 51.5525 11.7272 50.6733 11.7432 49.5813L11.7486 49.1611L11.7778 43.3649H12.1706L12.1373 49.1778L12.1227 50.2311C12.1067 51.3243 12.8656 52.2164 13.8162 52.2254L13.8522 52.2267C14.8028 52.2358 15.587 51.3565 15.6043 50.2659L15.6269 48.5216L15.6509 43.3649H16.0077L15.9877 48.3566L15.9731 49.5478C15.9571 50.641 16.716 51.5332 17.6667 51.5422H17.7013C18.6532 51.5525 19.4374 50.6733 19.4547 49.5813C19.4547 49.5813 19.524 43.5751 19.524 43.4333V43.423Z" fill="#FAB76E"/>
</svg>
