<svg width="259" height="97" viewBox="0 0 259 97" fill="none" xmlns="http://www.w3.org/2000/svg">
<g clip-path="url(#clip0_1648_6752)">
<path d="M9.69744 17.6417C3.25256 19.9455 0 24.553 0 31.4036V39.1636C0 46.1961 0.421628 52.7436 1.26488 58.6849C2.16837 62.5042 3.73442 64.3836 5.84256 64.3836C8.07116 64.808 10.36 65.0505 12.6488 65.0505C16.0821 65.0505 19.4551 64.5655 22.8884 63.5349C32.0437 60.1399 36.6816 55.1686 36.6816 48.6211C36.6816 43.953 34.453 40.1336 30.056 37.163C30.5379 35.4655 30.8993 33.5255 31.08 31.4036C31.08 30.4336 30.8391 28.918 30.297 26.7961C27.6467 20.1273 22.5872 16.793 15.0581 16.793C14.5763 16.793 12.8295 17.0355 9.69744 17.6417ZM14.9979 28.5542C18.7323 28.7967 20.5995 29.7061 20.5995 31.4036C20.5995 34.1317 18.913 35.6473 15.54 35.8898C15.2388 35.8898 14.9377 35.8898 14.6967 35.8898C11.8658 35.8898 10.4805 34.6773 10.4805 32.2523C10.4202 29.7667 11.9863 28.5542 14.9979 28.5542ZM21.3223 44.4986C23.4305 44.4986 24.5147 45.408 24.5147 47.2267C24.5147 47.4692 24.5146 47.7117 24.4544 48.0148C24.1533 50.3792 21.744 51.7736 17.347 52.198C16.6242 52.3192 15.8412 52.3192 15.1184 52.3192C12.167 52.3192 10.7214 51.4705 10.7214 49.8336C10.7214 47.833 11.926 46.4386 14.2751 45.6505C16.564 44.923 18.9733 44.4986 21.3223 44.4986Z" fill="url(#paint0_linear_1648_6752)"/>
<path d="M45.4759 26.5535C40.8982 30.9791 38.6094 37.0416 38.6094 44.8623C38.7901 47.3479 39.2117 49.6516 39.8743 51.7735C43.187 59.0485 48.608 62.686 56.137 62.686H57.944C61.9194 62.686 65.6538 61.4129 69.1473 58.9273C74.7489 54.3198 77.5798 48.8029 77.5798 42.316V41.1641C77.5798 38.6179 77.1582 36.0716 76.3149 33.4041C72.1589 24.4316 67.0994 19.8848 61.2568 19.8848C55.354 19.8848 50.1138 22.1279 45.4759 26.5535ZM67.3403 41.4673C67.3403 47.0448 64.2684 50.3185 58.185 51.2279H55.8961C51.3184 50.561 49.0296 48.6816 49.0296 45.5291V44.6804C49.0296 40.5579 50.415 37.1629 53.1857 34.556C55.0529 32.7979 57.0405 31.8885 59.1487 31.8885C60.1726 31.8885 61.2568 32.0704 62.341 32.5554C65.714 33.7073 67.3403 36.7385 67.3403 41.4673Z" fill="url(#paint1_linear_1648_6752)"/>
<path d="M86.6149 19.6426C84.6272 19.6426 83.0612 20.4913 81.977 22.2495C80.8326 24.0682 80.17 33.5863 79.9291 50.9251V51.1676C79.9291 52.6832 80.1098 54.4413 80.4712 56.3207C82.0975 61.292 85.0488 63.7776 89.3856 63.7776H89.8674C100.408 62.2013 105.648 59.4126 105.648 55.472C105.648 54.6838 105.588 53.9563 105.407 53.1682C104.504 50.5007 102.998 49.167 100.83 49.167H100.348C94.2042 51.0463 90.8914 52.0163 90.4095 52.0163C90.4095 51.8345 90.3493 51.107 90.1686 49.7126C90.1686 44.1351 90.7709 36.072 91.9756 25.6445C91.4335 21.6432 89.6868 19.6426 86.8558 19.6426H86.6149Z" fill="url(#paint2_linear_1648_6752)"/>
<path d="M123.597 19.6425C122.694 20.4913 120.164 26.1294 115.948 36.5569C110.346 50.1369 107.576 57.4119 107.576 58.3819V59.8369C107.576 62.1406 109.021 63.7775 111.912 64.7475H113.177C115.406 64.7475 117.153 62.8681 118.417 59.1094C119.682 55.3506 122.634 53.4106 127.332 53.35H127.633C132.09 53.35 134.801 54.805 135.584 57.715C136.427 60.6856 138.354 62.1406 141.426 62.1406C144.799 61.1706 146.546 59.4125 146.546 56.9875C146.546 56.9875 146.667 55.8963 146.426 54.6838C146.124 53.4713 140.161 40.0731 137.15 31.1613C134.138 22.2494 131.127 17.7025 128.235 17.7025H127.452C126.187 17.6419 124.862 18.3088 123.597 19.6425ZM127.633 36.1325C128.115 36.1325 128.657 36.7388 129.139 37.9513C129.741 39.4063 130.042 40.4369 130.042 41.0431C130.042 41.5281 129.862 41.7706 129.5 41.7706C128.657 41.7706 127.573 41.8919 126.308 42.0738C126.248 42.0738 126.127 42.0738 126.067 42.0738C125.525 42.0738 125.284 41.71 125.284 41.0431C125.284 40.3763 125.525 39.4669 126.007 38.1938C126.549 36.86 127.091 36.1325 127.633 36.1325Z" fill="url(#paint3_linear_1648_6752)"/>
<path d="M204.671 15.2775C208.862 15.2775 212.26 11.8575 212.26 7.63875C212.26 3.41999 208.862 0 204.671 0C200.479 0 197.081 3.41999 197.081 7.63875C197.081 11.8575 200.479 15.2775 204.671 15.2775Z" fill="url(#paint4_linear_1648_6752)"/>
<path d="M244.785 16.3689C244.605 16.3689 244.424 16.3689 244.243 16.3083L215.392 9.88206C214.127 9.57894 213.284 8.30582 213.585 7.03269C213.886 5.75957 215.151 4.91082 216.416 5.21394L245.267 11.6402C246.532 11.9433 247.375 13.2164 247.074 14.4896C246.893 15.5808 245.87 16.3689 244.785 16.3689Z" fill="url(#paint5_linear_1648_6752)"/>
<path d="M233.1 46.3784C232.98 46.3784 232.92 46.3784 232.799 46.3178C232.378 46.1359 232.197 45.7115 232.317 45.2871L244.063 14.4896C244.243 14.0653 244.665 13.8834 245.087 14.0046C245.508 14.1865 245.689 14.6109 245.568 15.0353L233.823 45.8328C233.703 46.1965 233.402 46.3784 233.1 46.3784Z" fill="url(#paint6_linear_1648_6752)"/>
<path d="M257.253 46.3781C256.952 46.3781 256.651 46.1963 256.531 45.8931L244.785 15.0956C244.605 14.6713 244.846 14.2469 245.267 14.065C245.689 13.8831 246.11 14.1256 246.291 14.55L258.036 45.3475C258.217 45.7719 257.976 46.1963 257.555 46.3781C257.434 46.3781 257.374 46.3781 257.253 46.3781Z" fill="url(#paint7_linear_1648_6752)"/>
<path d="M193.828 7.51758L164.977 13.9438L193.828 7.51758Z" fill="url(#paint8_linear_1648_6752)"/>
<path d="M164.977 16.3689C163.893 16.3689 162.869 15.5808 162.628 14.4896C162.327 13.2164 163.17 11.8827 164.435 11.6402L193.286 5.21394C194.551 4.91082 195.876 5.75957 196.117 7.03269C196.418 8.30582 195.575 9.63956 194.31 9.88206L165.459 16.3083C165.338 16.3083 165.158 16.3689 164.977 16.3689Z" fill="#2F5783"/>
<path d="M176.662 46.3781C176.36 46.3781 176.059 46.1963 175.939 45.8931L164.193 15.0956C164.013 14.6713 164.254 14.2469 164.675 14.065C165.097 13.8831 165.519 14.1256 165.699 14.55L177.445 45.3475C177.625 45.7719 177.384 46.1963 176.963 46.3781C176.842 46.3781 176.722 46.3781 176.662 46.3781Z" fill="#2F5783"/>
<path d="M152.508 46.3784C152.388 46.3784 152.328 46.3784 152.207 46.3178C151.786 46.1359 151.605 45.7115 151.725 45.2871L163.471 14.4896C163.651 14.0653 164.073 13.8834 164.495 14.0046C164.916 14.1865 165.097 14.6109 164.977 15.0353L153.231 45.8328C153.111 46.1965 152.81 46.3784 152.508 46.3784Z" fill="#2F5783"/>
<path d="M204.911 91.9078C202.984 91.9078 201.417 90.3315 201.417 88.3915V20.734C201.417 18.794 202.984 17.2178 204.911 17.2178C206.838 17.2178 208.404 18.794 208.404 20.734V88.3915C208.465 90.3315 206.838 91.9078 204.911 91.9078Z" fill="url(#paint9_linear_1648_6752)"/>
<path d="M204.911 86.6333C209.007 86.6333 212.32 89.9677 212.32 94.0902C197.502 94.0902 212.259 94.0902 197.502 94.0902C197.502 89.9677 200.815 86.6333 204.911 86.6333Z" fill="url(#paint10_linear_1648_6752)"/>
<path d="M196.84 90.5137H212.922C215.391 90.5137 217.379 91.5443 217.379 92.7568C217.379 94.0299 215.391 94.9999 212.922 94.9999H196.84C194.37 94.9999 192.383 93.9693 192.383 92.7568C192.383 91.5443 194.37 90.5137 196.84 90.5137Z" fill="url(#paint11_linear_1648_6752)"/>
<path d="M2.22824 72.2045C2.40894 73.7808 2.52941 75.1752 2.52941 76.327C2.52941 78.752 2.34871 84.1477 2.04755 92.5139C2.04755 94.272 3.0715 95.3633 5.11941 95.7877C6.98662 95.7877 8.0708 94.4539 8.31173 91.847C8.31173 90.4527 8.37196 88.0277 8.4322 84.4508C10.2392 84.087 11.6848 83.9052 12.7087 83.9052C14.9975 84.0264 16.3829 84.2083 16.8045 84.4508C16.5034 87.8458 16.3227 90.392 16.3227 92.2108C16.3227 93.6658 17.2864 94.6964 19.2138 95.1208H19.515C20.5389 95.1208 21.3822 94.6964 21.9243 93.8477C22.5266 92.9989 22.888 87.2395 23.0085 76.5089C23.0085 71.2345 21.8641 68.567 19.6355 68.567H19.1536C17.6478 68.567 16.6841 69.5977 16.3829 71.6589V72.3258L16.9852 77.297C15.4794 77.1758 14.335 77.1152 13.6122 77.1152H13.311C11.6245 77.1152 9.99824 77.2364 8.61289 77.4789H8.4322V74.6902C8.4322 70.5677 7.34801 68.5064 5.23987 68.5064H5.3001C3.67383 68.6277 2.64987 69.7795 2.22824 72.2045ZM37.7052 70.992C37.4041 76.812 37.1631 80.1464 36.9222 80.9952C36.0187 85.6027 34.3924 87.9064 32.0434 87.9064H31.441C31.0194 87.9064 30.7182 86.6939 30.5375 84.2689V82.5108C30.5375 79.3583 30.8387 76.1452 31.441 72.6895C31.0796 70.1433 30.0557 68.8702 28.2487 68.8702C28.1282 68.8702 28.0078 68.8702 27.8873 68.8702C26.9236 68.8702 26.1406 69.2945 25.478 70.0827C24.7552 70.992 24.4541 75.2964 24.4541 82.9958V84.0264C24.4541 86.2089 24.8155 88.3308 25.5382 90.392C27.0441 93.3627 28.7908 94.8783 30.8989 94.8783H32.1036C33.7901 94.8783 35.6573 94.2114 37.5848 92.817C38.4882 94.4539 39.5122 95.242 40.7771 95.242C42.2829 95.242 43.2466 94.1508 43.6682 91.9683V91.4227C43.3671 89.3614 43.1864 86.7545 43.0659 83.4808C43.1864 81.1164 43.4875 77.3577 43.9694 72.1439C43.9694 70.1433 42.8852 68.9308 40.7771 68.5064C39.5122 68.6277 38.4882 69.4158 37.7052 70.992ZM48.8482 73.5989C46.0775 76.2664 44.6922 79.9039 44.6922 84.6327C44.8127 86.1483 45.0536 87.5427 45.4752 88.7552C47.4629 93.1202 50.7155 95.3027 55.2329 95.3027H56.3171C57.582 95.3027 59.0878 94.9995 60.7141 94.4539C62.2801 96.1514 63.8461 97.0608 65.2917 97.0608H65.4724C67.0385 97.0608 68.0022 95.9695 68.3636 93.787V93.6052C68.3636 92.1502 67.5203 90.9377 65.8941 89.9677C67.3396 87.6033 68.0624 85.3602 68.0624 83.0564V82.3895C68.0624 80.8739 67.8215 79.2977 67.2794 77.7214C64.7496 72.3258 61.738 69.5977 58.2445 69.5977C54.751 69.6583 51.6189 70.9314 48.8482 73.5989ZM61.9789 82.5714C61.9789 85.9664 60.172 87.9064 56.4978 88.452H55.1124C52.3417 88.0883 51.0166 86.9364 51.0166 84.9964V84.4508C51.0166 81.9652 51.9803 79.9645 53.8475 78.4489C55.1124 77.4183 56.3773 76.9333 57.6422 76.9333C58.2445 76.9333 58.7866 77.0545 59.3287 77.2364C61.0755 77.9639 61.9789 79.722 61.9789 82.5714ZM82.8194 70.992C82.5182 76.812 82.2773 80.1464 82.0364 80.9952C81.1329 85.6027 79.5066 87.9064 77.1575 87.9064H76.5552C76.1336 87.9064 75.8324 86.6939 75.6517 84.2689V82.5108C75.6517 79.3583 75.9529 76.1452 76.5552 72.6895C76.1938 70.1433 75.1699 68.8702 73.3629 68.8702C73.2424 68.8702 73.122 68.8702 73.0015 68.8702C72.0378 68.8702 71.2548 69.2945 70.5922 70.0827C69.8694 70.992 69.5682 75.2964 69.5682 82.9958V84.0264C69.5682 86.2089 69.9296 88.3308 70.6524 90.392C72.1582 93.3627 73.905 94.8783 76.0131 94.8783H77.2178C78.9043 94.8783 80.7715 94.2114 82.6989 92.817C83.6024 94.4539 84.6264 95.242 85.8913 95.242C87.3971 95.242 88.3608 94.1508 88.7824 91.9683V91.4227C88.4813 89.3614 88.3006 86.7545 88.1801 83.4808C88.3006 81.1164 88.6017 77.3577 89.0836 72.1439C89.0836 70.1433 87.9994 68.9308 85.8913 68.5064C84.5662 68.6277 83.5422 69.4158 82.8194 70.992ZM93.9022 73.5989C91.1315 76.2664 89.7462 79.9039 89.7462 84.6327C89.8666 86.1483 90.1076 87.5427 90.5292 88.7552C92.5169 93.1202 95.7694 95.3027 100.287 95.3027H101.371C102.636 95.3027 104.142 94.9995 105.768 94.4539C107.334 96.1514 108.9 97.0608 110.346 97.0608H110.526C112.092 97.0608 113.056 95.9695 113.418 93.787V93.6052C113.418 92.1502 112.574 90.9377 110.948 89.9677C112.394 87.6033 113.116 85.3602 113.116 83.0564V82.3895C113.116 80.8739 112.875 79.2977 112.333 77.7214C109.804 72.3258 106.792 69.5977 103.298 69.5977C99.805 69.6583 96.6729 70.9314 93.9022 73.5989ZM107.033 82.5714C107.033 85.9664 105.226 87.9064 101.552 88.452H100.166C97.3957 88.0883 96.0706 86.9364 96.0706 84.9964V84.4508C96.0706 81.9652 97.0343 79.9645 98.9015 78.4489C100.166 77.4183 101.431 76.9333 102.696 76.9333C103.298 76.9333 103.841 77.0545 104.383 77.2364C106.129 77.9639 107.033 79.722 107.033 82.5714ZM118.598 69.2946C117.393 69.2946 116.489 69.8402 115.827 70.8708C115.164 71.962 114.743 77.6608 114.622 88.0883V88.2702C114.622 89.1795 114.743 90.2102 114.923 91.362C115.887 94.3327 117.694 95.8483 120.284 95.8483H120.585C126.91 94.8783 130.042 93.2414 130.042 90.877C130.042 90.392 129.981 89.9677 129.861 89.4827C129.319 87.9064 128.415 87.0577 127.09 87.0577H126.789C123.115 88.2095 121.127 88.7552 120.826 88.7552C120.826 88.6339 120.766 88.2095 120.645 87.3608C120.645 84.0264 121.007 79.1764 121.73 72.932C121.368 70.507 120.344 69.2946 118.658 69.2946H118.598ZM140.763 69.2946C140.221 69.8402 138.715 73.1745 136.185 79.4189C132.812 87.5427 131.126 91.9077 131.126 92.5139V93.3627C131.126 94.757 131.969 95.727 133.716 96.2727H134.499C135.824 96.2727 136.908 95.1208 137.631 92.8777C138.354 90.6345 140.161 89.4827 142.992 89.422H143.172C145.883 89.422 147.449 90.2708 147.991 92.0289C148.473 93.787 149.678 94.6964 151.485 94.6964C153.532 94.0902 154.556 93.0595 154.556 91.6045V90.2102C152.629 86.1483 150.762 81.4802 148.895 76.0845C147.088 70.6889 145.281 68.0214 143.534 68.0214H143.052C142.329 68.082 141.546 68.5064 140.763 69.2946ZM143.172 79.1764C143.474 79.1764 143.775 79.5402 144.076 80.2677C144.437 81.1164 144.618 81.7833 144.618 82.147C144.618 82.4502 144.498 82.5714 144.317 82.5714C143.835 82.5714 143.172 82.632 142.389 82.7533C142.329 82.7533 142.269 82.7533 142.209 82.7533C141.908 82.7533 141.727 82.5714 141.727 82.147C141.727 81.7833 141.847 81.177 142.148 80.4495C142.51 79.6008 142.871 79.1764 143.172 79.1764ZM159.255 69.1127C156.484 70.2039 155.159 73.3564 155.159 78.5702C155.339 83.3595 155.641 87.5427 155.942 91.1195C155.821 91.6652 155.761 92.2714 155.761 92.817C156.062 95.1208 157.086 96.2727 158.833 96.2727C161.062 95.9089 162.206 94.272 162.206 91.4227C162.206 90.8164 162.146 89.9677 162.025 88.8158L162.326 88.9977C166.001 92.8777 168.651 94.8177 170.398 94.8177C172.445 94.4539 173.469 93.3627 173.469 91.5439C173.469 91.362 173.349 90.877 173.168 89.9677C172.927 89.3008 171.602 88.2095 169.193 86.6939C172.566 84.3295 174.252 81.4195 174.252 77.9033C174.252 77.1758 174.132 76.327 173.951 75.4783C172.144 70.4464 168.952 67.9002 164.314 67.9002C162.748 68.082 161.061 68.4458 159.255 69.1127ZM164.073 75.4783C164.254 75.4783 164.495 75.4783 164.675 75.4783C166.482 75.6602 167.326 76.3877 167.326 77.6002C167.326 77.9033 167.265 78.1458 167.205 78.4489C166.723 80.207 165.639 81.1164 163.953 81.1164C162.266 81.1164 161.363 80.1464 161.363 78.2064C161.363 78.1458 161.363 78.1458 161.363 78.0852C161.483 76.3877 162.387 75.4783 164.073 75.4783ZM178.408 74.9933C176.421 74.9933 175.276 76.2664 175.156 78.8733C175.035 82.9958 175.035 85.542 175.035 86.5727C175.035 91.0589 175.337 93.6658 175.999 94.3933C176.782 94.9995 177.505 95.3633 178.288 95.3633H178.589C180.517 95.1208 181.541 94.3327 181.541 92.9383C181.3 88.3914 181.239 85.2995 181.239 83.7233L181.3 78.752C181.3 78.6308 181.3 78.5095 181.3 78.3883C181.3 76.327 180.396 75.1752 178.589 74.9327L178.408 74.9933ZM175.578 69.537C175.578 71.9014 176.662 73.2958 178.77 73.6595H179.794C181.601 73.6595 182.685 72.3258 183.107 69.7189V68.4458C182.625 66.4452 181.42 65.4146 179.432 65.4146H179.071C177.144 65.4146 175.999 66.8089 175.578 69.537Z" fill="#2F5783"/>
<path d="M164.014 60.019L168.17 58.2609L168.23 58.2002L171.663 56.8059L173.591 55.9571L173.651 55.8965L171.362 50.3796C171.362 49.834 171.844 49.349 172.446 49.4702C173.952 49.7127 175.518 49.2884 175.759 47.5302C175.94 46.1359 174.916 44.7415 173.47 44.6202C172.326 44.499 171.663 45.2871 171.001 46.0752C170.639 46.5602 169.977 46.5602 169.615 46.1965L167.327 40.7402L167.266 40.8009L165.158 41.7102L161.966 43.044C161.484 43.4077 161.424 44.1959 161.966 44.5596C163.231 45.469 164.014 46.8634 162.93 48.2577C162.086 49.4096 160.34 49.5309 159.255 48.6215C158.352 47.894 158.472 46.9846 158.533 45.8934C158.593 45.2265 158.111 44.7415 157.509 44.8627L152.208 47.1059L153.774 50.9252L157.208 59.1702L158.472 62.2621L163.833 60.019C163.954 60.019 164.014 60.019 164.014 60.019Z" fill="url(#paint12_linear_1648_6752)"/>
<path d="M234.064 47.1057C234.245 48.8638 235.811 49.3488 237.377 49.1669C238.1 49.0457 238.702 49.8338 238.401 50.5007L236.172 55.5932L241.533 57.9576C242.075 58.0182 242.617 57.5332 242.557 56.9269C242.436 55.8357 242.376 54.8051 243.34 54.0776C244.484 53.1682 246.231 53.4713 247.074 54.6232C248.098 56.0782 247.255 57.4726 245.99 58.3819C245.448 58.7457 245.448 59.4732 245.87 59.8976L249.303 61.4132L251.291 62.2619V62.3226L251.351 62.3832L251.291 62.5044L251.532 62.0194L253.76 56.9876L255.627 52.8044L257.916 47.5301L258.037 47.2876L257.976 47.2269L256.952 46.8026L255.808 46.3176L252.616 44.8626L248.158 42.8619L245.207 41.5282L242.858 40.4976L240.629 45.6507C240.328 46.3176 239.425 46.4388 239.003 45.8326C238.341 44.9838 237.738 44.1957 236.534 44.2563C235.028 44.3169 233.883 45.6507 234.064 47.1057Z" fill="url(#paint13_linear_1648_6752)"/>
</g>
<defs>
<linearGradient id="paint0_linear_1648_6752" x1="0" y1="40.9055" x2="36.6553" y2="40.9055" gradientUnits="userSpaceOnUse">
<stop stop-color="#80B948"/>
<stop offset="1" stop-color="#288738"/>
</linearGradient>
<linearGradient id="paint1_linear_1648_6752" x1="38.5989" y1="41.2861" x2="77.5454" y2="41.2861" gradientUnits="userSpaceOnUse">
<stop stop-color="#0EA6DE"/>
<stop offset="1" stop-color="#127BC6"/>
</linearGradient>
<linearGradient id="paint2_linear_1648_6752" x1="79.9452" y1="41.728" x2="105.655" y2="41.728" gradientUnits="userSpaceOnUse">
<stop stop-color="#F8D415"/>
<stop offset="1" stop-color="#F6B719"/>
</linearGradient>
<linearGradient id="paint3_linear_1648_6752" x1="107.554" y1="41.1514" x2="146.54" y2="41.1514" gradientUnits="userSpaceOnUse">
<stop stop-color="#E4108C"/>
<stop offset="1" stop-color="#98227E"/>
</linearGradient>
<linearGradient id="paint4_linear_1648_6752" x1="197.11" y1="7.61201" x2="212.235" y2="7.61201" gradientUnits="userSpaceOnUse">
<stop offset="0.5" stop-color="#1F3956"/>
</linearGradient>
<linearGradient id="paint5_linear_1648_6752" x1="213.543" y1="10.7277" x2="247.177" y2="10.7277" gradientUnits="userSpaceOnUse">
<stop offset="0.6784" stop-color="#1F3956"/>
<stop offset="0.9108" stop-color="#1F3956"/>
</linearGradient>
<linearGradient id="paint6_linear_1648_6752" x1="232.307" y1="30.1913" x2="245.646" y2="30.1913" gradientUnits="userSpaceOnUse">
<stop offset="0.6784" stop-color="#1F3956"/>
<stop offset="0.9108" stop-color="#1F3956"/>
</linearGradient>
<linearGradient id="paint7_linear_1648_6752" x1="244.72" y1="30.1911" x2="258.058" y2="30.1911" gradientUnits="userSpaceOnUse">
<stop offset="0.6784" stop-color="#1F3956"/>
<stop offset="0.9108" stop-color="#1F3956"/>
</linearGradient>
<linearGradient id="paint8_linear_1648_6752" x1="164.975" y1="10.7276" x2="193.822" y2="10.7276" gradientUnits="userSpaceOnUse">
<stop offset="0.5" stop-color="#2F5783"/>
<stop offset="1" stop-color="#28496E"/>
</linearGradient>
<linearGradient id="paint9_linear_1648_6752" x1="201.417" y1="54.553" x2="208.437" y2="54.553" gradientUnits="userSpaceOnUse">
<stop offset="0.5" stop-color="#1F3956"/>
</linearGradient>
<linearGradient id="paint10_linear_1648_6752" x1="197.492" y1="90.3807" x2="212.299" y2="90.3807" gradientUnits="userSpaceOnUse">
<stop offset="0.5" stop-color="#1F3956"/>
</linearGradient>
<linearGradient id="paint11_linear_1648_6752" x1="192.387" y1="92.7995" x2="217.404" y2="92.7995" gradientUnits="userSpaceOnUse">
<stop offset="0.5" stop-color="#1F3956"/>
</linearGradient>
<linearGradient id="paint12_linear_1648_6752" x1="162.326" y1="42.8807" x2="168.711" y2="58.0543" gradientUnits="userSpaceOnUse">
<stop stop-color="#40B239"/>
<stop offset="1" stop-color="#1C9312"/>
</linearGradient>
<linearGradient id="paint13_linear_1648_6752" x1="254.611" y1="54.796" x2="234.223" y2="45.8783" gradientUnits="userSpaceOnUse">
<stop stop-color="#BA1919"/>
<stop offset="1" stop-color="#E23B3B"/>
</linearGradient>
<clipPath id="clip0_1648_6752">
<rect width="259" height="97" fill="white"/>
</clipPath>
</defs>
</svg>
