<svg width="95" height="94" viewBox="0 0 95 94" fill="none" xmlns="http://www.w3.org/2000/svg">
<path d="M32.313 85.1879C22.8082 85.1879 14.2394 79.4611 10.6018 70.6809C6.96473 61.8994 8.97484 51.7921 15.6953 45.07C22.4169 38.3493 32.5243 36.3383 41.3058 39.9762C50.0874 43.6141 55.8135 52.1825 55.8135 61.6875C55.7986 74.6608 45.2864 85.1726 32.313 85.1879ZM32.313 29.3738C14.4961 29.3738 0 43.8706 0 61.6875C0 79.5045 14.4961 94 32.313 94C50.1303 94 64.6254 79.5045 64.6254 61.6875C64.6254 43.8706 50.1303 29.3738 32.313 29.3738Z" fill="#FAB84B"/>
<path d="M49.2009 78.0125C45.4904 81.8597 40.5768 84.3263 35.2738 85.0013C37.6868 87.7332 40.507 90.0773 43.6343 91.9504C49.1011 89.8922 53.9112 86.3972 57.5572 81.8329C54.5187 81.209 51.6601 79.9023 49.2009 78.0125Z" fill="#ECAA46"/>
<path d="M79.5635 14.6296L68.7678 33.7812H53.1402L42.3449 14.6296L48.0969 5.87487H73.8111L79.5635 14.6296Z" fill="#FBC6D4"/>
<path d="M73.8115 5.87515H64.6262L70.7452 14.6299H79.5639L73.8115 5.87515Z" fill="#FAB5CB"/>
<path d="M70.6754 14.6296L61.8963 33.7812H68.7682L79.5639 14.6296H70.6754Z" fill="#F684AC"/>
<path d="M42.3449 14.6296L53.1402 33.7812H60.0122L51.2326 14.6296H42.3449Z" fill="#FBC6D4"/>
<path d="M51.2327 14.6296L60.0123 33.7812H61.896L70.6751 14.6296H51.2327Z" fill="#FAB5CB"/>
<path d="M64.626 5.8751H57.2825L51.1636 14.4767H70.745L64.626 5.8751Z" fill="#FDEAF1"/>
<path d="M42.3449 14.63L43.2052 16.1561H78.7022L79.5635 14.63L78.6358 13.2187H43.2715L42.3449 14.63Z" fill="#F684AC"/>
<path d="M61.6888 85.1879C52.184 85.1879 43.6152 79.4611 39.9776 70.6809C36.3406 61.8994 38.3503 51.7921 45.0712 45.07C51.7927 38.3493 61.8996 36.3383 70.6816 39.9762C79.463 43.6141 85.1885 52.1825 85.1885 61.6875C85.1744 74.6608 74.6618 85.1726 61.6888 85.1879ZM61.6888 29.3738C43.871 29.3738 29.3757 43.8706 29.3757 61.6875C29.3757 79.5045 43.871 94 61.6888 94C79.5064 94 94.0019 79.5045 94.0019 61.6875C94.0019 43.8706 79.5064 29.3738 61.6888 29.3738Z" fill="#FAB84B"/>
<path d="M11.7506 8.81213C10.9402 8.81213 10.2822 8.15499 10.2822 7.34344V1.46868C10.2822 0.658407 10.9402 -1.62125e-05 11.7506 -1.62125e-05C12.5621 -1.62125e-05 13.22 0.658407 13.22 1.46868V7.34344C13.22 8.15499 12.5621 8.81213 11.7506 8.81213Z" fill="#F8E2BA"/>
<path d="M11.7506 20.5616C10.9402 20.5616 10.2822 19.9045 10.2822 19.0942V13.2182C10.2822 12.4079 10.9402 11.7495 11.7506 11.7495C12.5621 11.7495 13.22 12.4079 13.22 13.2182V19.0942C13.22 19.9045 12.5621 20.5616 11.7506 20.5616Z" fill="#F8E2BA"/>
<path d="M7.34396 11.7495H1.46933C0.658935 11.7495 0 11.0911 0 10.2821C0 9.47055 0.658935 8.81213 1.46933 8.81213H7.34396C8.155 8.81213 8.81342 9.47055 8.81342 10.2821C8.81342 11.0911 8.155 11.7495 7.34396 11.7495Z" fill="#F8E2BA"/>
<path d="M22.0329 11.7495H16.1572C15.3467 11.7495 14.6888 11.0911 14.6888 10.2821C14.6888 9.47055 15.3467 8.81213 16.1572 8.81213H22.0329C22.8433 8.81213 23.5012 9.47055 23.5012 10.2821C23.5012 11.0911 22.8433 11.7495 22.0329 11.7495Z" fill="#F8E2BA"/>
<path d="M86.6565 24.9683C85.8463 24.9683 85.1879 24.3111 85.1879 23.5008V22.0322C85.1879 21.2206 85.8463 20.5622 86.6565 20.5622C87.4681 20.5622 88.1252 21.2206 88.1252 22.0322V23.5008C88.1252 24.3111 87.4681 24.9683 86.6565 24.9683Z" fill="#F8E2BA"/>
<path d="M86.6565 35.2495C85.8463 35.2495 85.1879 34.5911 85.1879 33.7808V32.3121C85.1879 31.5006 85.8463 30.8435 86.6565 30.8435C87.4681 30.8435 88.1252 31.5006 88.1252 32.3121V33.7808C88.1252 34.5911 87.4681 35.2495 86.6565 35.2495Z" fill="#F8E2BA"/>
<path d="M82.2505 29.3738H80.7818C79.9715 29.3738 79.3131 28.7166 79.3131 27.9064C79.3131 27.0948 79.9715 26.4377 80.7818 26.4377H82.2505C83.0607 26.4377 83.7192 27.0948 83.7192 27.9064C83.7192 28.7166 83.0607 29.3738 82.2505 29.3738Z" fill="#F8E2BA"/>
<path d="M92.5314 29.3738H91.0627C90.2525 29.3738 89.5953 28.7166 89.5953 27.9064C89.5953 27.0948 90.2525 26.4377 91.0627 26.4377H92.5314C93.343 26.4377 94.0014 27.0948 94.0014 27.9064C94.0014 28.7166 93.343 29.3738 92.5314 29.3738Z" fill="#F8E2BA"/>
<path d="M33.7815 16.1561C32.971 16.1561 32.3131 15.4977 32.3131 14.6887V13.2187C32.3131 12.4085 32.971 11.7501 33.7815 11.7501C34.5929 11.7501 35.2508 12.4085 35.2508 13.2187V14.6887C35.2508 15.4977 34.5929 16.1561 33.7815 16.1561Z" fill="#F8E2BA"/>
<path d="M33.7815 26.4374C32.971 26.4374 32.3131 25.779 32.3131 24.9674V23.5C32.3131 22.6885 32.971 22.0313 33.7815 22.0313C34.5929 22.0313 35.2508 22.6885 35.2508 23.5V24.9674C35.2508 25.779 34.5929 26.4374 33.7815 26.4374Z" fill="#F8E2BA"/>
<path d="M29.3751 20.5616H27.9068C27.0962 20.5616 26.4383 19.9045 26.4383 19.0942C26.4383 18.2827 27.0962 17.6243 27.9068 17.6243H29.3751C30.1866 17.6243 30.8445 18.2827 30.8445 19.0942C30.8445 19.9045 30.1866 20.5616 29.3751 20.5616Z" fill="#F8E2BA"/>
<path d="M39.6575 20.5616H38.1891C37.3775 20.5616 36.7196 19.9045 36.7196 19.0942C36.7196 18.2827 37.3775 17.6243 38.1891 17.6243H39.6575C40.4679 17.6243 41.1258 18.2827 41.1258 19.0942C41.1258 19.9045 40.4679 20.5616 39.6575 20.5616Z" fill="#F8E2BA"/>
<path d="M44.8007 45.3635C48.5111 41.5138 53.4253 39.0473 58.7282 38.3723C56.3153 35.6416 53.4951 33.2976 50.3678 31.4231C44.9005 33.4813 40.0904 36.9776 36.4449 41.5419C39.4838 42.1658 42.3419 43.4725 44.8007 45.3635Z" fill="#ECAA46"/>
<path d="M8.81342 61.6879C8.81342 48.7095 19.334 38.1875 32.313 38.1875C45.2919 38.1875 55.8135 48.7095 55.8135 61.6879H64.6254C64.6254 43.8709 50.1303 29.3741 32.313 29.3741C14.4961 29.3741 0 43.8709 0 61.6879H8.81342Z" fill="#FAB84B"/>
<path d="M90.3935 46.8603C89.5029 52.5577 87.7305 58.0841 85.1363 63.2366C84.4116 73.9602 76.5194 82.8311 65.9547 84.7987C61.1486 87.9734 55.8771 90.3825 50.3299 91.9367C53.9605 93.3033 57.8096 94.0025 61.689 94C79.5066 94 94.0021 79.5045 94.0021 61.6875C94.0072 56.5273 92.7695 51.4399 90.3935 46.8603Z" fill="#ECAA46"/>
<path d="M51.4078 9.54584C51.4078 10.7619 50.4203 11.7495 49.2046 11.7495C47.9874 11.7495 47.0009 10.7619 47.0009 9.54584C47.0009 8.3298 47.9874 7.34344 49.2046 7.34344C50.4203 7.34344 51.4078 8.3298 51.4078 9.54584Z" fill="#FDEAF1"/>
<path d="M22.0325 35.9832C22.0325 37.1993 21.0455 38.1869 19.8293 38.1869C18.6127 38.1869 17.6262 37.1993 17.6262 35.9832C17.6262 34.7672 18.6127 33.7808 19.8293 33.7808C21.0455 33.7808 22.0325 34.7672 22.0325 35.9832Z" fill="#F8E2BA"/>
<path d="M30.1101 33.7814C30.1101 35.4045 28.7959 36.7188 27.1724 36.7188C25.5499 36.7188 24.2355 35.4045 24.2355 33.7814C24.2355 32.1583 25.5499 30.844 27.1724 30.844C28.7959 30.844 30.1101 32.1583 30.1101 33.7814Z" fill="#F8E2BA"/>
<path d="M60.2197 19.8281C60.2197 21.0441 59.2333 22.0317 58.0167 22.0317C56.7999 22.0317 55.814 21.0441 55.814 19.8281C55.814 18.612 56.7999 17.6244 58.0167 17.6244C59.2333 17.6244 60.2197 18.612 60.2197 19.8281Z" fill="#FDEAF1"/>
</svg>
