<svg width="212" height="101" viewBox="0 0 212 101" fill="none" xmlns="http://www.w3.org/2000/svg">
<path d="M35.2837 0.7676V39.2021H24.7938V24.2137H10.4899V39.2021H0V0.7676H10.4899V15.2066H24.7938V0.7676H35.2837ZM59.7942 39.9697C54.2842 39.9697 49.9933 38.4143 46.9213 35.3035C43.884 32.1927 42.3653 27.7811 42.3653 22.0725V0.7676H52.8553V21.7392C52.8553 27.8881 55.2036 30.9646 59.9002 30.9646C64.5622 30.9646 66.8921 27.8881 66.8921 21.7392V0.76962H77.2251V22.0705C77.2251 27.7811 75.6881 32.1907 72.6161 35.3015C69.5788 38.4143 65.3042 39.9697 59.7942 39.9697ZM125.549 43.6482C124.35 45.1927 122.784 46.419 120.991 47.2175C119.226 48.0598 117.283 48.48 115.165 48.48C113.116 48.48 111.261 48.2053 109.6 47.6558C107.941 47.1084 106.263 46.1934 104.569 44.9107C102.908 43.6663 101.036 41.9089 98.953 39.6405C95.7384 39.091 92.8784 37.9033 90.3711 36.0711C87.8823 34.2633 85.8659 31.8919 84.4902 29.1547C83.1122 26.3731 82.4231 23.3169 82.4231 19.9839C82.4231 16.1782 83.3058 12.7563 85.0732 9.71822C86.8303 6.72222 89.3751 4.25496 92.4361 2.57954C95.5794 0.86052 99.112 0 103.032 0C106.952 0 110.466 0.86052 113.575 2.57954C116.651 4.23508 119.2 6.70706 120.938 9.71822C122.74 12.7563 123.641 16.1782 123.641 19.9859C123.641 24.3046 122.493 28.1285 120.196 31.4595C117.937 34.7541 114.882 37.1155 111.033 38.5416C111.738 39.3476 112.427 39.9152 113.098 40.2445C113.811 40.5758 114.59 40.7449 115.377 40.7394C117.46 40.7394 119.332 39.8425 120.993 38.0487L125.549 43.6482ZM93.0191 19.9859C93.0191 22.1453 93.4614 24.0663 94.3441 25.751C95.2267 27.3973 96.4274 28.68 97.946 29.593C99.4647 30.5081 101.161 30.9666 103.032 30.9666C104.903 30.9666 106.599 30.5081 108.118 29.593C109.637 28.6779 110.837 27.3973 111.72 25.751C112.605 24.0663 113.045 22.1453 113.045 19.9859C113.045 17.8245 112.603 15.9216 111.72 14.2753C110.837 12.5907 109.637 11.2918 108.118 10.3767C106.599 9.46168 104.903 9.00314 103.032 9.00314C101.161 9.00314 99.4647 9.46168 97.946 10.3767C96.4274 11.2918 95.2267 12.5907 94.3441 14.2753C93.4614 15.9216 93.0191 17.8245 93.0191 19.9859ZM146.247 39.9697C140.737 39.9697 136.446 38.4143 133.372 35.3035C130.335 32.1927 128.816 27.7811 128.816 22.0725V0.7676H139.306V21.7392C139.306 27.8881 141.655 30.9646 146.353 30.9646C151.015 30.9646 153.345 27.8881 153.345 21.7392V0.76962H163.676V22.0705C163.676 27.7811 162.139 32.1907 159.069 35.3015C156.032 38.4143 151.757 39.9697 146.247 39.9697ZM212 43.6482C210.802 45.1928 209.237 46.4191 207.444 47.2175C205.679 48.0598 203.734 48.48 201.616 48.48C199.567 48.48 197.712 48.2053 196.053 47.6558C194.394 47.1084 192.716 46.1934 191.02 44.9107C189.361 43.6663 187.49 41.9089 185.404 39.6405C182.192 39.091 179.33 37.9033 176.822 36.0711C174.333 34.2633 172.317 31.8919 170.941 29.1547C169.565 26.3731 168.876 23.3169 168.876 19.9839C168.876 16.1782 169.759 12.7563 171.526 9.71822C173.283 6.72222 175.828 4.25496 178.889 2.57954C182.033 0.86052 185.561 0 189.483 0C193.405 0 196.919 0.86052 200.026 2.57954C203.103 4.23461 205.653 6.70665 207.391 9.71822C209.193 12.7563 210.092 16.1782 210.092 19.9859C210.092 24.3046 208.944 28.1285 206.649 31.4595C204.388 34.7541 201.333 37.1155 197.484 38.5416C198.189 39.3476 198.878 39.9152 199.549 40.2445C200.262 40.5758 201.041 40.7449 201.828 40.7394C203.911 40.7394 205.785 39.8425 207.444 38.0487L212 43.6482ZM179.472 19.9859C179.472 22.1453 179.913 24.0663 180.797 25.751C181.678 27.3973 182.881 28.68 184.399 29.593C185.918 30.5081 187.612 30.9666 189.485 30.9666C191.357 30.9666 193.053 30.5081 194.571 29.593C196.09 28.6779 197.29 27.3973 198.173 25.751C199.056 24.0663 199.498 22.1453 199.498 19.9859C199.498 17.8245 199.056 15.9216 198.173 14.2753C197.29 12.5907 196.09 11.2918 194.571 10.3767C193.05 9.46168 191.357 9.00314 189.483 9.00314C187.612 9.00314 185.916 9.46168 184.399 10.3767C182.881 11.2918 181.678 12.5907 180.795 14.2753C179.913 15.9216 179.47 17.8245 179.47 19.9859H179.472Z" fill="#48B7C7"/>
<path fill-rule="evenodd" clip-rule="evenodd" d="M212 60.6001H0V101H212V60.6001ZM12.6955 89.0357C14.2325 90.5244 16.379 91.2678 19.1371 91.2678C21.891 91.2678 24.0294 90.5244 25.548 89.0357C27.085 87.5469 27.8535 85.438 27.8535 82.707V72.5181H22.6881V82.5494C22.6881 85.4906 21.5221 86.9611 19.1901 86.9611C16.8397 86.9611 15.6656 85.4906 15.6656 82.5494V72.5181H10.4165V82.707C10.4165 85.438 11.1769 87.5469 12.6955 89.0357ZM34.0851 90.7163C35.5126 91.0857 36.9822 91.2711 38.4576 91.2678C40.225 91.2678 41.7253 91.0052 42.9626 90.48C44.2 89.9366 45.1254 89.2195 45.7451 88.3266C46.3591 87.4477 46.6831 86.4019 46.6726 85.333C46.6726 84.0543 46.3261 83.0484 45.6391 82.3131C44.9892 81.5748 44.1588 81.0142 43.2276 80.685C42.3103 80.3355 41.1423 80.0103 39.7296 79.7134C38.476 79.4508 37.5648 79.1962 36.9981 78.9518C36.4355 78.7074 36.1521 78.3398 36.1521 77.8489C36.1521 77.358 36.3906 76.9641 36.8656 76.6672C37.3446 76.3521 38.1029 76.1945 39.1466 76.1945C40.8059 76.1945 42.5203 76.6672 44.2876 77.6125L45.9041 73.7523C44.9303 73.1994 43.8752 72.8006 42.7771 72.5706C41.5966 72.2909 40.3869 72.1498 39.1731 72.1505C37.3895 72.1505 35.879 72.4131 34.6416 72.9383C33.4226 73.4635 32.5033 74.1806 31.8856 75.0916C31.2688 75.979 30.9448 77.034 30.9581 78.1115C30.9581 79.3901 31.2945 80.4042 31.9651 81.1576C32.6378 81.9111 33.4389 82.4626 34.3766 82.812C35.3143 83.1453 36.4783 83.4584 37.8746 83.7574C39.1466 84.0382 40.066 84.3089 40.6306 84.5715C41.2136 84.8159 41.5051 85.2017 41.5051 85.7269C41.5051 86.7248 40.4981 87.2237 38.4841 87.2237C37.4241 87.2237 36.3458 87.0581 35.2511 86.7248C34.2299 86.4261 33.2572 85.984 32.3626 85.4118L30.6401 89.2457C31.5228 89.8578 32.6704 90.3487 34.0851 90.7163ZM47.6185 76.6409H53.316V90.9001H58.563V76.6409H64.234V72.5181H47.6185V76.6409ZM68.5535 89.0357C70.0905 90.5244 72.237 91.2678 74.995 91.2678C77.749 91.2678 79.8873 90.5244 81.406 89.0357C82.943 87.5469 83.7115 85.438 83.7115 82.707V72.5181H78.544V82.5494C78.544 85.4906 77.378 86.9611 75.046 86.9611C72.6976 86.9611 71.5215 85.4906 71.5215 82.5494V72.5181H66.2745V82.707C66.2745 85.438 67.0348 87.5469 68.5535 89.0357ZM98.6615 90.9001L106.612 72.5181H101.418L96.2765 84.4927L91.2415 72.5181H85.5705L93.494 90.9001H98.6615ZM112.024 90.0335C113.595 90.8557 115.363 91.2678 117.324 91.2678C119.285 91.2678 121.042 90.8557 122.597 90.0335C124.121 89.256 125.396 88.0741 126.281 86.6197C127.182 85.1653 127.632 83.5291 127.632 81.7091C127.632 79.8891 127.182 78.2509 126.281 76.7985C125.396 75.3442 124.121 74.1622 122.597 73.3847C121.042 72.5625 119.285 72.1505 117.324 72.1505C115.363 72.1505 113.595 72.5625 112.024 73.3847C110.507 74.1721 109.234 75.3518 108.34 76.7985C107.455 78.2529 107.015 79.8891 107.015 81.7091C107.015 83.5291 107.455 85.1674 108.34 86.6197C109.234 88.0664 110.507 89.2461 112.024 90.0335ZM119.868 86.3046C119.095 86.7458 118.216 86.9726 117.324 86.9611C116.386 86.9611 115.538 86.743 114.78 86.3046C114.02 85.8673 113.397 85.2313 112.978 84.4664C112.525 83.6175 112.297 82.6689 112.315 81.7091C112.315 80.6769 112.535 79.7659 112.978 78.9781C113.418 78.1721 114.019 77.5519 114.78 77.1136C115.553 76.6724 116.432 76.4456 117.324 76.4571C118.259 76.4571 119.107 76.6753 119.868 77.1136C120.626 77.5519 121.227 78.1721 121.67 78.9781C122.11 79.7659 122.332 80.6749 122.332 81.7091C122.332 82.7413 122.11 83.6604 121.67 84.4664C121.25 85.2313 120.627 85.8672 119.868 86.3046ZM136.155 86.0158H139.019L142.382 90.9001H148.003L144.001 85.1229C145.167 84.5634 146.06 83.7917 146.677 82.812C147.313 81.8141 147.631 80.6506 147.631 79.3194C147.631 77.9357 147.295 76.7379 146.624 75.7218C145.952 74.6896 145 73.9018 143.762 73.3584C142.525 72.7989 141.068 72.5181 139.39 72.5181H130.91V90.9001H136.157V86.0158H136.155ZM141.51 77.3237C142.058 77.7964 142.331 78.4609 142.331 79.3194C142.331 80.1779 142.058 80.8425 141.51 81.3152C140.962 81.7697 140.148 81.998 139.072 81.998H136.157V76.6147H139.072C140.148 76.6147 140.962 76.851 141.51 77.3237ZM156.303 72.5181H151.056V90.9001H165.154V86.7773H156.303V72.5181ZM173.006 72.5181H167.759V90.9001H173.006V72.5181ZM194.337 81.3152H189.699V86.3571C188.815 86.7611 187.871 86.9611 186.864 86.9611C185.911 86.9793 184.97 86.7532 184.132 86.3046C183.352 85.8645 182.71 85.2192 182.277 84.4401C181.828 83.5998 181.6 82.6601 181.617 81.7091C181.617 80.1153 182.102 78.8468 183.074 77.9014C184.045 76.9379 185.327 76.4571 186.917 76.4571C188.666 76.4571 190.166 77.1399 191.422 78.5054L194.761 75.5117C193.831 74.4183 192.649 73.5627 191.316 73.017C189.938 72.4393 188.382 72.1505 186.652 72.1505C184.672 72.1505 182.897 72.5625 181.325 73.3847C179.8 74.147 178.523 75.3214 177.642 76.7722C176.757 78.2266 176.317 79.8709 176.317 81.7091C176.317 83.5473 176.757 85.1936 177.642 86.646C178.521 88.0953 179.786 89.2765 181.299 90.0598C182.852 90.8658 184.601 91.2678 186.546 91.2678C187.924 91.2678 189.302 91.0658 190.68 90.6638C191.988 90.2942 193.225 89.7082 194.337 88.9306V81.3152ZM203.438 72.5181H198.191V90.9001H203.438V72.5181Z" fill="#48B7C7"/>
</svg>
