<svg width="54" height="59" viewBox="0 0 54 59" fill="none" xmlns="http://www.w3.org/2000/svg">
<path d="M51.6795 58.9812H2.23206V3.84589H51.6795V58.9812Z" fill="#1490BD"/>
<path d="M51.6795 58.9812H26.9552V3.84589H51.6795V58.9812Z" fill="#00609A"/>
<path d="M18.7213 17.7903H6.66211V8.17434H18.7213V17.7903Z" fill="#96E0F4"/>
<path d="M33.0757 17.7903H21.0165V8.17434H33.0757V17.7903Z" fill="#96E0F4"/>
<path d="M47.4317 17.7903H35.3724V8.17434H47.4317V17.7903Z" fill="#96E0F4"/>
<path d="M33.0762 17.7903H27.046V8.17434H33.0762V17.7903Z" fill="#4FC2D9"/>
<path d="M18.7222 17.7903H12.6932V8.17434H18.7222V17.7903Z" fill="#4FC2D9"/>
<path d="M47.4322 17.7903H41.402V8.17434H47.4322V17.7903Z" fill="#4FC2D9"/>
<path d="M18.7213 29.4905H6.66211V19.8745H18.7213V29.4905Z" fill="#96E0F4"/>
<path d="M33.0757 29.4905H21.0165V19.8745H33.0757V29.4905Z" fill="#96E0F4"/>
<path d="M47.4317 29.4905H35.3724V19.8745H47.4317V29.4905Z" fill="#96E0F4"/>
<path d="M33.0762 29.4905H27.046V19.8745H33.0762V29.4905Z" fill="#4FC2D9"/>
<path d="M18.7222 29.4905H12.6932V19.8745H18.7222V29.4905Z" fill="#4FC2D9"/>
<path d="M47.4322 29.4905H41.402V19.8745H47.4322V29.4905Z" fill="#4FC2D9"/>
<path d="M18.7213 41.1907H6.66211V31.5743H18.7213V41.1907Z" fill="#96E0F4"/>
<path d="M33.0757 41.1907H21.0165V31.5743H33.0757V41.1907Z" fill="#96E0F4"/>
<path d="M47.4317 41.1907H35.3724V31.5743H47.4317V41.1907Z" fill="#96E0F4"/>
<path d="M33.0762 41.1907H27.046V31.5743H33.0762V41.1907Z" fill="#4FC2D9"/>
<path d="M18.7222 41.1907H12.6932V31.5743H18.7222V41.1907Z" fill="#4FC2D9"/>
<path d="M47.4322 41.1907H41.402V31.5743H47.4322V41.1907Z" fill="#4FC2D9"/>
<path d="M18.7213 52.8906H6.66211V43.2747H18.7213V52.8906Z" fill="#96E0F4"/>
<path d="M47.4317 52.8906H35.3724V43.2747H47.4317V52.8906Z" fill="#96E0F4"/>
<path d="M18.7222 52.8906H12.6932V43.2747H18.7222V52.8906Z" fill="#4FC2D9"/>
<path d="M47.4322 52.8906H41.402V43.2747H47.4322V52.8906Z" fill="#4FC2D9"/>
<path d="M53.9107 -6.41346e-05H0V3.84595H53.9107V-6.41346e-05Z" fill="#004592"/>
<path d="M53.9112 -6.41346e-05H26.9552V3.84595H53.9112V-6.41346e-05Z" fill="#002541"/>
<path d="M36.5916 58.9812H17.318V46.3189H36.5916V58.9812Z" fill="#004592"/>
<path d="M36.592 58.9812H26.9552V46.3189H36.592V58.9812Z" fill="#0E2830"/>
<path d="M39.3176 39.5884H14.5945V46.3188H39.3176V39.5884Z" fill="#004592"/>
<path d="M39.318 39.5884H26.9552V46.3188H39.318V39.5884Z" fill="#002541"/>
<path d="M32.9849 58.9812H20.9257V48.082H32.9849V58.9812Z" fill="#96E0F4"/>
<path d="M32.9854 58.9812H26.9552V48.082H32.9854V58.9812Z" fill="#4FC2D9"/>
<path d="M18.3199 42.9536C18.3199 43.596 18.5838 43.919 19.1081 43.919C19.3769 43.919 19.5749 43.8403 19.7032 43.6843C19.8328 43.5278 19.8964 43.2849 19.8964 42.9536C19.8964 42.6208 19.8328 42.3754 19.7008 42.2169C19.5701 42.059 19.3745 41.9791 19.1141 41.9791C18.585 41.9791 18.3199 42.304 18.3199 42.9536ZM21.0098 42.9536C21.0098 43.5123 20.8479 43.9385 20.5263 44.2305C20.2024 44.5219 19.7308 44.6667 19.1081 44.6667C18.495 44.6667 18.0259 44.5207 17.6984 44.2286C17.372 43.9345 17.2076 43.5095 17.2076 42.9496C17.2076 42.3957 17.3708 41.9728 17.696 41.6799C18.0211 41.3877 18.495 41.2424 19.1141 41.2424C19.7368 41.2424 20.2072 41.3866 20.5287 41.6766C20.8491 41.9667 21.0098 42.3929 21.0098 42.9536Z" fill="#FDC00E"/>
<path d="M22.9753 44.6221H21.9363V41.2948H24.2447V42.0159H22.9753V42.6512H24.1451V43.3727H22.9753V44.6221Z" fill="#FDC00E"/>
<path d="M26.1429 44.6221H25.1027V41.2948H27.4135V42.0159H26.1429V42.6512H27.3139V43.3727H26.1429V44.6221Z" fill="#FDC00E"/>
<path d="M28.2756 44.6221V41.2948H29.3375V44.6221H28.2756Z" fill="#FDC00E"/>
<path d="M32.1408 41.9831C31.8888 41.9831 31.6932 42.0709 31.5516 42.2469C31.4113 42.4225 31.3417 42.6636 31.3417 42.9711C31.3417 43.6117 31.6272 43.9324 32.1983 43.9324C32.3723 43.9324 32.5403 43.9117 32.7011 43.871C32.863 43.8303 33.0274 43.78 33.1906 43.7218V44.4828C32.8642 44.6065 32.4947 44.6667 32.0843 44.6667C31.4928 44.6667 31.0429 44.5219 30.7274 44.2305C30.413 43.9385 30.2546 43.5175 30.2546 42.9668C30.2546 42.6228 30.3314 42.3191 30.485 42.0597C30.6374 41.7984 30.8558 41.5968 31.1425 41.4572C31.4281 41.3159 31.764 41.2464 32.1503 41.2464C32.5739 41.2464 32.977 41.3243 33.3609 41.4807L33.0382 42.1894C32.893 42.1312 32.749 42.0821 32.6051 42.0434C32.4611 42.0035 32.3051 41.9831 32.1408 41.9831Z" fill="#FDC00E"/>
<path d="M36.4925 44.6221H34.1721V41.2948H36.4925V42.0159H35.228V42.5391H36.3978V43.2601H35.228V43.8895H36.4925V44.6221Z" fill="#FDC00E"/>
</svg>
