<svg width="65" height="62" viewBox="0 0 65 62" fill="none" xmlns="http://www.w3.org/2000/svg">
<path d="M61.9145 53.3608H6.53628C5.15487 53.3608 4.03467 52.2406 4.03467 50.8592V11.0409H6.53628H61.9145H64.4162V50.8592C64.4162 52.2406 63.296 53.3608 61.9145 53.3608Z" fill="#424242"/>
<path d="M63.0368 42.9827C63.0368 42.9827 41.627 42.1453 34.2254 42.1453C26.8238 42.1453 5.41401 42.9827 5.41401 42.9827C4.65207 42.9827 4.03467 42.3642 4.03467 41.6023V40.001C4.03467 39.239 4.65207 38.6216 5.41401 38.6216H63.0368C63.7988 38.6216 64.4162 39.239 64.4162 40.001V41.6023C64.4162 42.3642 63.7988 42.9827 63.0368 42.9827Z" fill="#282828"/>
<path d="M61.9145 41.75H6.53628C5.15487 41.75 4.03467 40.9364 4.03467 39.9339V11.041H6.53628H61.9145H64.4162V39.9339C64.4162 40.9364 63.296 41.75 61.9145 41.75Z" fill="#424242"/>
<path d="M34.4033 45.6382H34.0492C32.7545 45.6382 31.7065 44.5892 31.7065 43.2955V40.2034C31.7065 38.9097 32.7545 37.8608 34.0492 37.8608H34.4033C35.6969 37.8608 36.7459 38.9097 36.7459 40.2034V43.2955C36.7459 44.5892 35.6969 45.6382 34.4033 45.6382Z" fill="#F8CA00"/>
<path d="M34.3647 44.8164H34.0859C33.0659 44.8164 32.2389 43.9894 32.2389 42.9683V40.5297C32.2389 39.5097 33.0659 38.6827 34.0859 38.6827H34.3647C35.3858 38.6827 36.2128 39.5097 36.2128 40.5297V42.9683C36.2128 43.9894 35.3858 44.8164 34.3647 44.8164Z" fill="#E97F02"/>
<path d="M34.4033 45.6382H34.0492C32.7545 45.6382 31.7065 44.5892 31.7065 43.2955V40.2034C31.7065 38.9097 32.7545 37.8608 34.0492 37.8608H34.4033C35.6969 37.8608 36.7459 38.9097 36.7459 40.2034V43.2955C36.7459 44.5892 35.6969 45.6382 34.4033 45.6382Z" fill="#F8CA00"/>
<path d="M34.8221 44.8164H33.6286C32.8615 44.8164 32.2389 44.1938 32.2389 43.4257V40.0734C32.2389 39.3052 32.8615 38.6827 33.6286 38.6827H34.2253H34.8221C35.5902 38.6827 36.2128 39.3052 36.2128 40.0734V43.4257C36.2128 44.1938 35.5902 44.8164 34.8221 44.8164Z" fill="#E97F02"/>
<path d="M34.8228 44.8164H34.2261V38.6827H34.8228C35.591 38.6827 36.2135 39.3052 36.2135 40.0734V43.4257C36.2135 44.1938 35.591 44.8164 34.8228 44.8164Z" fill="#EF9F50"/>
<path d="M24.516 11.041H21.8792V6.93498H24.516V11.041Z" fill="#F8CA00"/>
<path d="M24.5163 11.041H23.1979V6.93498H24.5163V11.041Z" fill="#FCE172"/>
<path d="M46.5727 11.041H43.9235V6.93498H46.5727V11.041Z" fill="#F8CA00"/>
<path d="M46.5729 11.041H45.2483V6.93498H46.5729V11.041Z" fill="#FCE172"/>
<path d="M24.5243 3.99052C24.5243 3.24923 25.1272 2.64628 25.8685 2.64628H42.5817C43.323 2.64628 43.926 3.24923 43.926 3.99052V6.93506H46.5721V3.99052C46.5721 1.79038 44.7819 0.000135899 42.5817 0.000135899H25.8685C23.6684 0.000135899 21.8792 1.79038 21.8792 3.99052V6.93506H24.5243V3.99052Z" fill="#556270"/>
<path d="M34.2261 2.64628H42.5827C43.324 2.64628 43.9269 3.24923 43.9269 3.99052V6.93506H46.5731V3.99052C46.5731 1.79038 44.7828 0.000135899 42.5827 0.000135899H34.2261V2.64628Z" fill="#687989"/>
<path d="M23.897 60.622L0 61.7639L0.972555 27.5033H23.897V60.622Z" fill="#999999"/>
<path d="M24.3942 60.6221H0.972168V26.8136H24.3942V60.6221Z" fill="white"/>
<path d="M1.09637 60.4981H24.2706V26.9364H1.09637V60.4981ZM24.5174 60.7458H0.849609V26.6896H24.5174V60.7458Z" fill="#9D9D9C"/>
<path d="M23.4607 35.2178H1.90527V28.1146H23.4607V35.2178Z" fill="#D6D7D8"/>
<path d="M23.4601 43.7178H10.187V36.6145H23.4601V43.7178Z" fill="#D6D7D8"/>
<path d="M23.4601 48.1221H4.03467V45.2467H23.4601V48.1221Z" fill="#D6D7D8"/>
<path d="M23.4607 54.7061H1.90527V49.8174H23.4607V54.7061Z" fill="#D6D7D8"/>
</svg>
