<svg width="63" height="60" viewBox="0 0 63 60" fill="none" xmlns="http://www.w3.org/2000/svg">
<path d="M40.3187 23.5144V3.24249e-05H0V23.5144H40.3187Z" fill="#96E0F4"/>
<path d="M17.4124 17.7764H5.35754V5.7204H17.4124V17.7764Z" fill="#F99C1D"/>
<path d="M11.3844 17.7764H5.35754V5.7204H11.3844V17.7764Z" fill="#FDC00E"/>
<path d="M11.3835 13.3193C13.0125 13.3193 14.3326 11.9996 14.3326 10.3716C14.3326 8.74273 13.0125 7.42261 11.3835 7.42261V13.3193Z" fill="#002541"/>
<path d="M11.3852 13.3193C9.75727 13.3193 8.43726 11.9996 8.43726 10.3716C8.43726 8.74273 9.75727 7.42261 11.3852 7.42261V13.3193Z" fill="#004592"/>
<path d="M11.3849 16.3242V13.3549C9.73459 13.3549 8.39541 14.6803 8.36877 16.3242H11.3849Z" fill="#004592"/>
<path d="M14.3997 16.3242C14.3752 14.6803 13.0338 13.3549 11.3835 13.3549V16.3242H14.3997Z" fill="#002541"/>
<path d="M35.6292 7.73584H24.27V6.61217H35.6292V7.73584Z" fill="#1490BD"/>
<path d="M35.6292 10.6826H24.27V9.5598H35.6292V10.6826Z" fill="#1490BD"/>
<path d="M35.6292 13.6287H24.27V12.5067H35.6292V13.6287Z" fill="#1490BD"/>
<path d="M35.6292 16.5754H24.27V15.4526H35.6292V16.5754Z" fill="#1490BD"/>
<path d="M22.5511 7.17438C22.5511 7.48441 22.2997 7.73584 21.9897 7.73584C21.6797 7.73584 21.4282 7.48441 21.4282 7.17438C21.4282 6.86435 21.6797 6.61217 21.9897 6.61217C22.2997 6.61217 22.5511 6.86435 22.5511 7.17438Z" fill="#004592"/>
<path d="M22.5511 10.1204C22.5511 10.4304 22.2997 10.6826 21.9897 10.6826C21.6797 10.6826 21.4282 10.4304 21.4282 10.1204C21.4282 9.81027 21.6797 9.5598 21.9897 9.5598C22.2997 9.5598 22.5511 9.81027 22.5511 10.1204Z" fill="#004592"/>
<path d="M22.5511 13.0673C22.5511 13.3773 22.2997 13.6287 21.9897 13.6287C21.6797 13.6287 21.4282 13.3773 21.4282 13.0673C21.4282 12.7573 21.6797 12.5067 21.9897 12.5067C22.2997 12.5067 22.5511 12.7573 22.5511 13.0673Z" fill="#004592"/>
<path d="M22.5511 16.0141C22.5511 16.3241 22.2997 16.5754 21.9897 16.5754C21.6797 16.5754 21.4282 16.3241 21.4282 16.0141C21.4282 15.7041 21.6797 15.4526 21.9897 15.4526C22.2997 15.4526 22.5511 15.7041 22.5511 16.0141Z" fill="#004592"/>
<path d="M62.6137 28.6029C62.6137 31.5451 61.2234 33.9307 59.5081 33.9307C57.7939 33.9307 56.4025 31.5451 56.4025 28.6029C56.4025 25.6589 57.7939 23.2739 59.5081 23.2739C61.2234 23.2739 62.6137 25.6589 62.6137 28.6029Z" fill="#004592"/>
<path d="M59.5081 33.9307C61.2234 33.9307 62.6137 31.5451 62.6137 28.6029H56.4025C56.4025 31.5451 57.7939 33.9307 59.5081 33.9307Z" fill="#002541"/>
<path d="M30.7552 23.6148L27.9639 28.6029H26.6992L27.331 29.7332L26.6992 30.8623H27.9639L30.7552 35.8505C40.6132 35.8505 45.9029 39.4379 53.3106 45.9422L58.9082 50.8555V30.8623V28.6029V8.6098L53.3106 13.5243C45.9029 20.0274 40.6132 23.6148 30.7552 23.6148Z" fill="#FDC00E"/>
<path d="M27.331 29.7332L26.6992 30.8623H27.9639L30.7552 35.8505C40.6132 35.8505 45.9029 39.4379 53.3106 45.9422L58.9082 50.8555V30.8623V29.7332H27.331Z" fill="#F99C1D"/>
<path d="M30.9151 39.0044H9.39947C8.72934 39.0044 8.18494 38.4608 8.18494 37.7901V21.6747C8.18494 21.0034 8.72934 20.4611 9.39947 20.4611H30.9151C31.5863 20.4611 32.1296 21.0034 32.1296 21.6747V37.7901C32.1296 38.4608 31.5863 39.0044 30.9151 39.0044Z" fill="#002541"/>
<path d="M14.1443 39.0042V59.6428H29.7693L24.0993 39.0042H14.1443Z" fill="#1490BD"/>
<path d="M32.1296 29.7329V21.6743C32.1296 21.003 31.5863 20.4607 30.9151 20.4607H9.39947C8.72934 20.4607 8.18494 21.003 8.18494 21.6743V29.7329H32.1296Z" fill="#004592"/>
<path d="M21.956 59.6428H29.7685L24.0984 39.0042H19.4874L21.956 59.6428Z" fill="#00609A"/>
</svg>
