<svg width="64" height="52" viewBox="0 0 64 52" fill="none" xmlns="http://www.w3.org/2000/svg">
<path d="M57.9859 48.3689H57.2888C54.7441 48.3689 52.6804 46.3052 52.6804 43.7605V4.60842C52.6804 2.06279 54.7441 7.24792e-05 57.2888 7.24792e-05H57.9859C60.5315 7.24792e-05 62.5952 2.06279 62.5952 4.60842V43.7605C62.5952 46.3052 60.5315 48.3689 57.9859 48.3689Z" fill="#E9E9E9"/>
<path d="M62.5952 6.89468V44.0542L62.5915 43.4218C62.5564 40.7145 60.3533 38.529 57.6378 38.529C54.9214 38.529 52.7192 40.7145 52.6841 43.4218H52.6804L52.6823 43.4642L52.6804 43.4864L52.6841 43.5501C52.686 43.6517 52.6915 43.7532 52.6998 43.8539C52.7072 43.9564 52.7183 44.0579 52.7312 44.1586L52.7598 44.346L52.7977 44.5491C53.3175 47.0218 55.5104 48.8787 58.1383 48.8787C61.152 48.8787 63.5952 46.4355 63.5952 43.4218V5.67773L62.5952 6.89468Z" fill="#BCBCBC"/>
<path d="M58.2827 17.5674C55.4795 17.5674 53.1047 18.7751 52.2607 20.4501V22.486C53.1065 22.5774 55.4822 19.8693 58.2827 19.8693C60.9013 19.8693 63.0397 22.2386 64 22.4713V20.5904C63.2678 18.8287 61.1811 17.5674 58.2827 17.5674Z" fill="#F8CA00"/>
<path d="M30.4687 29.8754L8.74817 19.5885C8.74817 24.0842 8.74817 28.579 8.74817 33.0738C15.7249 35.8364 20.3111 38.9277 30.4687 38.9277C39.9393 38.9277 45.2125 35.8364 52.1892 33.0738C52.1892 28.579 52.1892 24.0842 52.1892 19.5885L30.4687 29.8754Z" fill="#556270"/>
<path d="M8.74817 19.5886V21.9874C8.74817 21.9874 19.902 28.3307 30.4687 35.2871C40.1221 28.8589 52.1892 21.9874 52.1892 21.9874V19.5886H8.74817Z" fill="#424242"/>
<path d="M30.4691 1.57996L0 15.4429V16.0089L8.74858 20.1519L30.4691 30.4387L52.1896 20.1519L60.9382 16.0089L30.4691 1.57996Z" fill="#8396A5"/>
<path d="M30.4696 1.57996V30.4387L52.1901 20.1519L60.9387 16.0089V15.4429L30.4696 1.57996Z" fill="#8396A5"/>
<path d="M30.4691 1.01304L0 15.4429L8.74858 19.5859L30.4691 29.8718L52.1896 19.5859L60.9382 15.4429L30.4691 1.01304Z" fill="#556270"/>
<path d="M30.4696 1.01304V29.8718L52.1901 19.5859L60.9387 15.4429L30.4696 1.01304Z" fill="#778999"/>
<path d="M8.08569 20.3291L8.16971 20.2793L8.08569 20.3291Z" fill="#E9E9E9"/>
<path d="M24.423 14.8131C24.0934 14.2674 23.3787 14.0911 22.8339 14.4198L12.4446 20.692L12.3615 20.7428C12.0642 20.9533 11.8675 21.2977 11.8675 21.6873V23.7445V39.8428C11.2701 40.2316 10.8749 40.9037 10.8749 41.6701C10.8749 42.4734 11.3107 43.1724 11.9571 43.5509L9.20737 49.6874C8.85374 50.4787 9.43175 51.3716 10.2988 51.3716H15.8101C16.6772 51.3716 17.2561 50.4787 16.9015 49.6874L14.1527 43.5509C14.7991 43.1724 15.2349 42.4734 15.2349 41.6701C15.2349 40.8788 14.812 40.1882 14.1823 39.8068V22.3475L24.0297 16.4013C24.5753 16.0726 24.7517 15.357 24.423 14.8131Z" fill="#FF847C"/>
</svg>
