<svg width="65" height="58" viewBox="0 0 65 58" fill="none" xmlns="http://www.w3.org/2000/svg">
<path d="M63.5212 8.53072C61.1357 5.93748 56.6421 4.03716 51.8078 2.66035C45.4834 0.855579 38.9485 -0.0254288 32.417 0.000629425V57.8695C32.5038 57.9126 32.5907 57.9595 32.6809 58C56.3481 47.3351 69.1473 13.5682 63.5212 8.53072Z" fill="#343333"/>
<path d="M1.31669 8.53072C3.70213 5.93748 8.19571 4.03716 13.0267 2.66035C19.3511 0.855579 25.886 -0.0254288 32.4209 0.000629425V57.8695C32.3307 57.9126 32.2438 57.9595 32.1569 58C8.48971 47.3351 -4.30945 13.5682 1.31669 8.53072Z" fill="#4F4E4E"/>
<path d="M51.8298 13.8696C51.3587 13.9468 51.0313 14.3865 51.0313 14.8679V15.6838C50.313 15.6838 49.608 15.4867 48.9966 15.1161L46.5177 13.602C45.071 12.72 43.414 12.2553 41.7201 12.2553H39.9794C38.7032 12.2553 37.4404 12.5189 36.271 13.0344L34.6975 13.726C34.6507 13.1076 34.1462 12.6195 33.5148 12.6195H33.194C33.194 12.6195 35.4826 11.4775 32.4189 8.52414C29.3553 11.4775 31.6405 12.6195 31.6405 12.6195H31.3197C30.6916 12.6195 30.1838 13.1076 30.137 13.726L28.5635 13.0344C27.3941 12.5189 26.1346 12.2553 24.8583 12.2553H23.1144C21.4239 12.2553 19.7635 12.72 18.3168 13.602L15.8378 15.1161C15.2231 15.4867 14.5249 15.6838 13.8066 15.6838V14.8679C13.8066 14.3865 13.4791 13.9468 13.0047 13.8696C12.4033 13.7717 11.8822 14.2338 11.8822 14.8145V15.7763C11.8822 16.4081 12.3967 16.9196 13.0247 16.9196H14.2776C14.9859 16.9196 15.6775 16.7251 16.2855 16.365L18.2968 15.1616C19.7267 14.307 21.3604 13.8553 23.0242 13.8553C24.6846 13.8553 26.315 14.303 27.7449 15.1526C28.5301 15.6236 29.4288 15.8679 30.3476 15.8679H31.3197C31.3197 17.2406 30.9522 18.2456 30.9522 18.2456C29.4922 20.8986 29.7662 21.631 30.8621 25.1049C31.9612 28.5829 30.7718 33.1531 29.9032 35.0742C29.0312 36.9952 29.9032 37.73 29.9032 37.73H29.6292C28.3897 37.73 27.3874 38.7323 27.3874 39.9682V40.6572H32.4189H37.4504V39.9682C37.4504 38.7323 36.4448 37.73 35.2086 37.73H34.9347C34.9347 37.73 35.8033 36.9952 34.9347 35.0742C34.0627 33.1531 32.8766 28.5829 33.9724 25.1049C35.0716 21.631 35.3455 20.8986 33.8789 18.2456C33.8789 18.2456 33.5148 17.2406 33.5148 15.8679H34.4869C35.4057 15.8679 36.3078 15.6236 37.0929 15.1526C38.5195 14.303 40.1465 13.8553 41.807 13.8553C43.4775 13.8553 45.1112 14.307 46.5411 15.1616L48.549 16.365C49.157 16.7251 49.852 16.9196 50.5569 16.9196H51.8097C52.4412 16.9196 52.9523 16.4081 52.9523 15.7763V14.8145C52.9523 14.2338 52.4312 13.7717 51.8298 13.8696Z" fill="white"/>
<path d="M9.00072 29.0501H16.3976L12.7025 15.924L9.00072 29.0501ZM16.755 29.5747C16.7517 29.5747 16.7518 29.5747 16.7451 29.5747H8.6566C8.57307 29.5747 8.49627 29.5382 8.44616 29.4716C8.39938 29.4077 8.38272 29.3215 8.39942 29.2445L12.4453 14.889C12.5121 14.6604 12.8863 14.6604 12.9531 14.889L16.9756 29.1715C17.0057 29.2106 17.0223 29.2615 17.0223 29.315C17.0223 29.4585 16.902 29.5747 16.755 29.5747Z" fill="white"/>
<path d="M16.3172 31.0417H9.08399C7.92802 31.0417 6.99255 30.106 6.99255 28.9511H18.4086C18.4086 30.106 17.4698 31.0417 16.3172 31.0417Z" fill="white"/>
<path d="M48.4378 29.0496H55.8381L52.1363 15.9235L48.4378 29.0496ZM56.1955 29.5742C56.1922 29.5781 56.1855 29.5781 56.1821 29.5742H48.0904C48.0102 29.5742 47.9334 29.5377 47.8833 29.4711C47.8332 29.4072 47.8164 29.321 47.8398 29.244L51.8857 14.8885C51.9492 14.66 52.3267 14.66 52.3869 14.8885L56.4127 29.171C56.4394 29.2101 56.4561 29.261 56.4561 29.3145C56.4561 29.4581 56.3392 29.5742 56.1955 29.5742Z" fill="white"/>
<path d="M55.7534 31.0417H48.5169C47.3643 31.0417 46.4288 30.106 46.4288 28.9511H57.8415C57.8415 30.106 56.9061 31.0417 55.7534 31.0417Z" fill="white"/>
</svg>
