<svg width="59" height="68" viewBox="0 0 59 68" fill="none" xmlns="http://www.w3.org/2000/svg">
<path d="M50.0791 42.2102H8.9256V38.8574H50.0791V42.2102Z" fill="#9C9C9B"/>
<path d="M59 55.2771H0V51.9243H59V55.2771Z" fill="#9C9C9B"/>
<path d="M11.9597 49.6113V41.1691H15.6148V49.6113H11.9597Z" fill="#9C9C9B"/>
<path d="M17.1975 49.6113V41.1691H20.8537V49.6113H17.1975Z" fill="#9C9C9B"/>
<path d="M22.4353 49.6113V41.1691H26.0915V49.6113H22.4353Z" fill="#9C9C9B"/>
<path d="M27.6732 49.6113V41.1691H31.3293V49.6113H27.6732Z" fill="#9C9C9B"/>
<path d="M32.9152 49.6113V41.1691H36.5703V49.6113H32.9152Z" fill="#9C9C9B"/>
<path d="M38.1509 49.6113V41.1691H41.8071V49.6113H38.1509Z" fill="#9C9C9B"/>
<path d="M43.3909 49.6113V41.1691H47.0459V49.6113H43.3909Z" fill="#9C9C9B"/>
<path d="M11.9597 67.998V55.2772H15.6148V67.998H11.9597Z" fill="#9C9C9B"/>
<path d="M17.1975 67.998V55.2772H20.8537V67.998H17.1975Z" fill="#9C9C9B"/>
<path d="M22.4353 67.998V55.2772H26.0915V67.998H22.4353Z" fill="#9C9C9B"/>
<path d="M27.6732 67.998V55.2772H31.3293V67.998H27.6732Z" fill="#9C9C9B"/>
<path d="M32.9152 67.998V55.2772H36.5703V67.998H32.9152Z" fill="#9C9C9B"/>
<path d="M38.1509 67.998V55.2772H41.8071V67.998H38.1509Z" fill="#9C9C9B"/>
<path d="M43.3909 67.998V55.2772H47.0459V67.998H43.3909Z" fill="#9C9C9B"/>
<path d="M48.2497 67.998V55.2772H51.9048V67.998H48.2497Z" fill="#9C9C9B"/>
<path d="M53.4896 67.998V55.2772H57.1459V67.998H53.4896Z" fill="#9C9C9B"/>
<path d="M1.85666 67.998V55.2772H5.51173V67.998H1.85666Z" fill="#9C9C9B"/>
<path d="M7.09872 67.998V55.2772H10.7538V67.998H7.09872Z" fill="#9C9C9B"/>
<path d="M29.5019 14.2627C18.5744 14.2627 12.4412 28.0631 15.1292 37.0054H29.5019H43.8736C46.5616 28.0631 40.4284 14.2627 29.5019 14.2627Z" fill="#9C9C9B"/>
<path d="M29.5016 -0.000110626L27.3154 13.3369H31.6867L29.5016 -0.000110626Z" fill="#9C9C9B"/>
<path d="M29.5016 13.3369V-0.000110626L27.3154 13.3369H29.5016Z" fill="#9C9C9B"/>
<path d="M31.3275 42.2102H32.9116V41.1693H36.5666V42.2102H38.1495V41.1693H41.8058V42.2102H43.3887V41.1693H47.0437V42.2102H50.0761V38.8574H29.2679V41.1693H31.3275V42.2102Z" fill="#C8C7C5"/>
<path d="M32.9116 55.2771H58.9988V51.9243H29.2679V55.2771H31.3275H32.9116Z" fill="#C8C7C5"/>
<path d="M31.3275 42.21V41.1691H29.2679V49.6113H31.3275V42.21Z" fill="#C8C7C5"/>
<path d="M32.9152 41.1691V49.6113H36.5703V41.1691H32.9152Z" fill="#C8C7C5"/>
<path d="M38.1509 41.1691V49.6113H41.8071V41.1691H38.1509Z" fill="#C8C7C5"/>
<path d="M43.3909 41.1691V49.6113H47.0459V41.1691H43.3909Z" fill="#C8C7C5"/>
<path d="M31.3275 55.2772H29.2679V67.998H31.3275V55.2772Z" fill="#C8C7C5"/>
<path d="M32.9152 67.998H36.5703V55.2772H32.9152V67.998Z" fill="#C8C7C5"/>
<path d="M38.1509 67.998H41.8071V55.2772H38.1509V67.998Z" fill="#C8C7C5"/>
<path d="M43.3909 67.998H47.0459V55.2772H43.3909V67.998Z" fill="#C8C7C5"/>
<path d="M48.2497 67.998H51.9048V55.2772H48.2497V67.998Z" fill="#C8C7C5"/>
<path d="M53.4896 67.998H57.1459V55.2772H53.4896V67.998Z" fill="#C8C7C5"/>
<path d="M43.8722 37.0054C46.5602 28.0631 40.427 14.2627 29.5005 14.2627C29.4218 14.2627 29.3455 14.2711 29.2679 14.2721V37.0054H29.5005H43.8722Z" fill="#C8C7C5"/>
<path d="M31.6893 13.3369L29.5043 -0.000110626V13.3369H31.6893Z" fill="#C8C7C5"/>
<path d="M29.5005 -0.000110626L29.2679 1.41425V13.3369H29.5005V-0.000110626Z" fill="#9C9C9B"/>
<path d="M30.3006 14.9861C30.3006 14.9861 30.7522 15.0143 31.5254 15.1953C31.9018 15.3051 32.3773 15.4118 32.8882 15.6106C33.4151 15.7811 33.9796 16.0353 34.5863 16.3387C35.1645 16.6745 35.8271 17.0082 36.4349 17.4737C36.7429 17.7018 37.0702 17.9277 37.3872 18.1767C37.6803 18.4477 37.9802 18.726 38.287 19.0074C38.6052 19.2804 38.8698 19.6037 39.1446 19.9259C39.4172 20.2502 39.7126 20.5671 39.9634 20.9155C40.1972 21.2722 40.4333 21.6331 40.6705 21.9961C40.918 22.3539 41.1438 22.7232 41.3183 23.1144C41.6821 23.8917 42.0983 24.6512 42.3298 25.4546C42.5967 26.2476 42.8864 27.0217 43.0084 27.8021C43.1612 28.5762 43.3345 29.3211 43.4007 30.0356C43.4531 30.7511 43.5022 31.4269 43.5478 32.0514C43.6219 32.6728 43.5843 33.2461 43.5489 33.7524C43.5204 34.2567 43.4965 34.6971 43.4759 35.0601C43.4315 35.783 43.3904 36.1941 43.3904 36.1941C43.3904 36.1941 43.3311 35.7798 43.2547 35.0611C43.1612 34.3435 43.1293 33.3141 42.908 32.1027C42.8065 31.498 42.6959 30.8432 42.5784 30.1496C42.4484 29.4602 42.1987 28.7561 42.031 28.0134C41.8851 27.2623 41.5429 26.5405 41.2875 25.7831C41.056 25.0131 40.6454 24.3018 40.2907 23.5684C40.1322 23.1918 39.9247 22.8403 39.6954 22.5014C39.4788 22.1562 39.2609 21.812 39.0454 21.472C38.5345 20.8422 38.0966 20.1706 37.5389 19.6204C37.2686 19.339 37.0018 19.0628 36.7395 18.7919C36.4646 18.5335 36.1761 18.2991 35.9047 18.0585C35.3709 17.5679 34.7722 17.2049 34.2476 16.8367C33.6899 16.5134 33.1893 16.1933 32.7103 15.9621C32.2462 15.7037 31.806 15.5436 31.4524 15.3857C30.7351 15.1053 30.3006 14.9861 30.3006 14.9861Z" fill="white"/>
</svg>
