<svg width="64" height="55" viewBox="0 0 64 55" fill="none" xmlns="http://www.w3.org/2000/svg">
<path d="M43.9205 0C39.3975 0 35.23 1.5163 31.8907 4.06215C28.5523 1.5163 24.383 0 19.8591 0C8.8911 0 0 8.89193 0 19.8602C0 35.7137 31.8907 54.8984 31.8907 54.8984C31.8907 54.8967 63.7823 35.7154 63.7823 19.8602C63.7823 8.89193 54.8894 0 43.9205 0Z" fill="#F96544"/>
<path d="M43.9205 0C39.3975 0 35.23 1.5163 31.8907 4.06215V54.8984C31.8907 54.8967 63.7823 35.7154 63.7823 19.8602C63.7823 8.89193 54.8894 0 43.9205 0Z" fill="#E44D24"/>
<path d="M62.5524 25.5504H47.3427L43.5389 17.6594L37.9423 31.5353L31.8921 11.7239L25.841 31.5353L20.2434 17.6594L16.4396 25.5504H1.22992C1.58996 26.4361 2.0233 27.3239 2.51526 28.209H18.1107L20.0272 24.2356L26.1882 39.5085L31.8921 20.8341L37.595 39.5085L43.7551 24.2356L45.6717 28.209H61.2698C61.7618 27.3239 62.1942 26.4361 62.5524 25.5504Z" fill="white"/>
</svg>
