<svg width="65" height="50" viewBox="0 0 65 50" fill="none" xmlns="http://www.w3.org/2000/svg">
<path d="M4.34473 49.2627L1.0177 48.4596L0 44.9172L26.1544 18.7629L30.4998 23.1083L4.34473 49.2627Z" fill="#2C353D"/>
<path d="M28.3196 26.4355L22.828 20.9429L28.1041 15.6657L33.5957 21.1584L28.3196 26.4355Z" fill="#353F49"/>
<path d="M36.9313 28.8511L20.4125 12.3322L29.1302 3.6134L45.6491 20.1322L36.9313 28.8511Z" fill="#2C353D"/>
<path d="M21.8223 15.8079L16.7971 10.7826L27.5809 -0.00011158L32.605 5.02406L21.8223 15.8079Z" fill="#2C353D"/>
<path d="M38.4785 32.4641L33.4543 27.44L44.2371 16.6572L49.2623 21.6814L38.4785 32.4641Z" fill="#2C353D"/>
<path d="M38.8742 22.0759L27.1737 10.3743L30.9016 6.64641L42.6021 18.3469L38.8742 22.0759Z" fill="#353F49"/>
<path d="M37.1525 15.4221L30.3839 8.65354L30.8439 8.19465L37.6114 14.9632L37.1525 15.4221Z" fill="white"/>
<path d="M24.5336 21.2732L24.1315 20.8711L26.025 18.9788L26.426 19.3798L24.5336 21.2732Z" fill="white"/>
<path d="M21.8394 12.6118L18.4053 9.1766L27.5819 -5.72205e-05L31.0161 3.43409L21.8394 12.6118Z" fill="#353F49"/>
<path d="M38.5872 29.3604L36.0709 26.8429L45.2475 17.6663L47.7639 20.1826L38.5872 29.3604Z" fill="#353F49"/>
<path d="M24.5345 5.6709L24.1614 5.29883L27.8614 1.59987L28.2335 1.97193L24.5345 5.6709Z" fill="white"/>
<path d="M43.1182 21.7886L42.774 21.4444L45.24 18.9784L45.5841 19.3226L43.1182 21.7886Z" fill="white"/>
<path d="M0 44.9176L1.0177 48.46L2.12674 48.728L25.1937 25.6604L22.2249 22.6927L0 44.9176Z" fill="#353F49"/>
<path d="M58.3527 39.0313H37.1153V45.8459H58.3527V39.0313Z" fill="#FECA5C"/>
<path d="M60.6234 45.521H34.8443V49.176H60.6234V45.521Z" fill="#F9BB4E"/>
<path d="M47.4108 31.4511L48.0777 28.9722L48.7446 31.4511L51.2234 32.1179L48.7446 32.7859L48.0777 35.2637L47.4108 32.7859L44.9319 32.1179L47.4108 31.4511Z" fill="#92E0EA"/>
<path d="M52.1874 41.1401H38.5602V40.3285H52.1874V41.1401Z" fill="white"/>
<path d="M63.9079 37.1699L57.7194 35.2175L57.9145 34.5978L64.103 36.5513L63.9079 37.1699Z" fill="#2C353D"/>
<path d="M62.5183 26.7291L56.7158 29.6335L56.4252 29.0535L62.2289 26.149L62.5183 26.7291Z" fill="#2C353D"/>
<path d="M55.9018 19.0976L52.9695 24.8862L52.3905 24.5935L55.3239 18.8049L55.9018 19.0976Z" fill="#2C353D"/>
</svg>
