<svg width="60" height="69" viewBox="0 0 60 69" fill="none" xmlns="http://www.w3.org/2000/svg">
<path d="M58.9929 27.6116C58.9929 42.8618 46.6307 55.2241 31.381 55.2241C16.1319 55.2241 3.76917 42.8618 3.76917 27.6116C3.76917 12.3625 16.1319 0.000183105 31.381 0.000183105C46.6307 0.000183105 58.9929 12.3625 58.9929 27.6116Z" fill="#F2F2F2"/>
<path d="M23.7716 66.8554L15.6026 34.5068L16.7442 27.2489L19.5238 41.5321L22.7097 42.7579L19.1769 24.2942C18.6967 21.7855 16.502 19.9719 13.9483 19.9719H13.2338V17.3523L17.6455 17.9032C17.6455 17.9032 17.1085 13.2149 16.257 11.7972C15.0312 9.75467 13.0712 8.8568 11.6012 8.8568C11.5277 8.8568 11.462 8.89259 11.3963 8.93313C11.3312 8.89259 11.2645 8.8568 11.1914 8.8568C9.72147 8.8568 7.35203 9.75465 6.37167 11.6338C5.60686 13.1004 5.14668 17.9032 5.14668 17.9032L9.47597 17.3523V19.9719H8.76198C6.2077 19.9719 4.01348 21.7855 3.53282 24.2942L0 42.7579L3.18582 41.5321L6.07635 26.6265L7.16578 34.4257H7.10712L0.571949 66.8554H4.9832V68H10.8643V66.8554H14.0502V68H19.9323V66.8554H23.7716Z" fill="#77D0DE"/>
<path d="M59.204 43.2479V21.218C59.204 17.6397 56.3023 14.7387 52.7224 14.7387H51.2385V12.633C52.8449 11.6982 53.8444 9.83693 53.4336 7.76342C53.0871 6.01424 51.6874 4.58819 49.9423 4.22214C46.9832 3.60211 44.3769 5.84374 44.3769 8.69347C44.3769 10.3818 45.3024 11.8413 46.6643 12.633V14.7387H45.1803C41.6009 14.7387 38.6997 17.6397 38.6997 21.218V43.2479L42.049 41.5321V25.8216L43.5194 35.7969V41.7765V64.8343H41.4566V67.938H48.4821L48.5022 41.7765H49.4825V68H56.5076V64.8951H54.6287V35.7969L55.8542 27.485V41.5321L59.204 43.2479Z" fill="#2C353D"/>
<path d="M41.2147 41.953L38.7001 43.2479L38.7871 46.2718L35.2012 48.2892H32.2627V47.3926C33.5371 46.9144 34.4481 45.6959 34.4481 44.2543C34.4481 42.3978 32.9431 40.8919 31.0857 40.8919C29.2292 40.8919 27.7238 42.3978 27.7238 44.2543C27.7238 45.703 28.6452 46.9275 29.9302 47.3997V48.2892H27.1184L23.3112 46.2086L22.7099 42.7579L20.1594 41.7956L20.9153 47.3437L27.0094 51.3202V59.5093H27.0304V68.0835H30.4345V59.5093H31.7583V68.0835H35.2254V59.5093H35.2464L35.2887 51.4406L41.4037 47.3437L41.2147 41.953Z" fill="#F9BB4E"/>
<path d="M25.4551 66.382H30.4355V68.0835H25.4551V66.382Z" fill="#FECA5C"/>
<path d="M31.7901 66.382H36.77V68.0835H31.7901V66.382Z" fill="#FECA5C"/>
<path d="M16.7443 27.2489L19.5239 41.5321L20.7363 41.9983L17.3488 24.2942C16.8687 21.7855 14.674 19.9707 12.1202 19.9707H11.9004V17.3523H13.2339L15.7895 17.6707C15.6698 16.7156 15.1677 13.0277 14.429 11.7972C13.3876 10.0623 11.8183 9.15967 10.4676 8.92597C9.03312 9.15729 7.20452 10.0396 6.37178 11.6338C5.70757 12.9072 5.24973 16.9267 5.14679 17.9032L9.47608 17.3523V19.9707H8.7621C6.20781 19.9707 4.01359 21.7855 3.53293 24.2942L0.144958 41.9983L3.26418 40.5985L5.01405 32.1065L6.07646 26.6265L7.16589 34.4257L7.10723 34.4245L0.57206 66.8554H3.15519H4.98331V68H9.03634V66.8554H10.8645H12.2222H14.0503V68H18.1043V66.8554H19.9324H21.9436L14.3056 34.3494L16.7443 27.2489Z" fill="#92E0EA"/>
<path d="M52.6241 64.8951V35.7969L55.8542 27.485V41.5321L57.6045 42.4264V21.6245C57.6045 18.0451 53.9064 14.7387 50.3274 14.7387H49.7877V12.633C51.3941 11.6982 52.3419 9.63782 51.9307 7.56431C51.5985 5.88548 50.1024 4.41291 47.7499 4.28175C45.8072 4.80997 44.3769 6.583 44.3769 8.69347C44.3769 10.3818 45.3024 11.8413 46.6643 12.633V14.7387H45.1803C41.6009 14.7387 38.6997 17.6397 38.6997 21.218V43.2479L41.124 42.0055L42.049 41.5321V25.8216L43.5194 35.7969V41.7765V64.8343H41.4566V67.938H48.4821L48.5022 41.7765H49.4825V68H53.4439V64.8951H52.6241Z" fill="#353F49"/>
<path d="M33.797 59.5093L33.8384 51.4406L39.9534 47.3437L39.7904 42.6863L38.7001 43.2479L38.7871 46.2718L35.2012 48.2892H33.7508H32.2627H31.3172V47.3926C32.5915 46.9144 32.9986 45.6959 32.9986 44.2543C32.9986 42.647 31.8687 41.3068 30.361 40.9753C28.8538 41.3068 27.7238 42.647 27.7238 44.2543C27.7238 45.703 28.6452 46.9275 29.9302 47.3997V48.2892H28.4807H27.1184H25.6685L21.8608 46.2086L21.6088 42.1104L20.1594 41.7956L20.9153 47.3437L27.0094 51.3202V59.5093H27.0304V68.0835H28.9846V59.5093H30.3089V68.0835H30.4345V59.5093H31.7583V68.0835H33.776V59.5093H33.797Z" fill="#FECA5C"/>
</svg>
