<svg width="71" height="48" viewBox="0 0 71 48" fill="none" xmlns="http://www.w3.org/2000/svg">
<path d="M23.0566 17.5503H31.6163L36.6534 10.323C37.1682 9.58525 37.8684 8.99611 38.6831 8.61425L46.3573 5.02569C47.9366 4.28555 49.8129 5.01142 50.4863 6.61973C51.0975 8.08018 50.4973 9.76632 49.0993 10.5111C47.0017 11.6284 44.3271 13.0556 44.3271 13.0556V15.0047C44.3271 16.2729 45.355 17.3012 46.6233 17.3012H63.764C64.8947 17.3012 65.8114 18.2181 65.8114 19.3487V21.8517H66.2001C67.5952 21.8517 68.7263 22.982 68.7263 24.3775V25.3876C68.7263 26.7836 67.5952 27.9139 66.2001 27.9139V30.3967C66.2001 31.3906 65.3952 32.1951 64.4021 32.1951H63.5754V33.2507C63.5754 34.7929 62.3245 36.0442 60.7814 36.0442H39.5118C38.2032 36.0442 36.9361 35.5864 35.9292 34.7514L31.5119 31.0889H23.9312L23.0566 17.5503Z" fill="#FCDC97"/>
<path d="M68.6944 23.9773C68.5026 22.7727 67.4589 21.8519 66.2001 21.8519H65.8114V19.3489C65.8114 18.2183 64.8947 17.3015 63.764 17.3015H46.6233C45.355 17.3015 44.3271 16.2732 44.3271 15.0049V13.0558C44.3271 13.0558 47.0017 11.6286 49.0993 10.5114C50.4973 9.76656 51.0975 8.08041 50.4863 6.61997C49.8129 5.01166 47.9366 4.28579 46.3573 5.02593L38.6831 8.61449C37.8684 8.99636 37.1682 9.58549 36.6534 10.3232L31.6163 17.5505H23.0566L23.4718 23.9773H68.6944Z" fill="#FCE5AC"/>
<path d="M20.7486 23.9773H0V14.9127H20.7486V23.9773Z" fill="#004592"/>
<path d="M20.7486 32.926H0V23.8627H20.7486V32.926Z" fill="#002541"/>
<path d="M25.7819 23.8625H14.7336V13.0656H25.7819V23.8625Z" fill="#FDC00E"/>
<path d="M69.9374 12.2349C70.0268 12.4492 70.0279 12.6911 69.9398 12.9066L56.1102 46.7116C55.9931 46.997 55.744 47.1872 55.4629 47.2417C55.3012 47.2734 55.1284 47.258 54.9648 47.1923L45.2871 43.2329L44.9693 43.1025L37.9507 40.2311C37.7348 40.1421 37.5636 39.9729 37.4739 39.7574C37.383 39.5432 37.3818 39.3012 37.4703 39.0853L48.9943 10.9181L49.0583 10.7642L51.3003 5.28072C51.4834 4.83247 51.9969 4.61892 52.4457 4.80079L69.4594 11.7621C69.6753 11.8503 69.8472 12.0191 69.9374 12.2349Z" fill="#4FC2D9"/>
<path d="M61.9292 24.0478C60.6669 22.2059 58.6427 20.6463 56.2296 19.6595C53.825 18.6746 51.2996 18.3671 49.1137 18.7901C49.1054 18.7909 49.0967 18.792 49.0884 18.7941C46.7637 19.2515 45.085 20.4762 44.362 22.2431C43.6389 24.0103 43.9781 26.0597 45.3163 28.0151C46.5779 29.8571 48.602 31.4159 51.0157 32.4035C53.4198 33.3864 55.9461 33.6958 58.1319 33.2729C58.1402 33.2709 58.1485 33.2689 58.1572 33.2677C60.4818 32.8115 62.1601 31.5867 62.8832 29.8199C63.6063 28.0526 63.2675 26.0021 61.9292 24.0478Z" fill="#80C3CE"/>
<path d="M55.7659 27.306C55.5343 27.8056 55.2196 28.25 54.8219 28.6387L53.6631 28.1638C53.9106 27.9504 54.1455 27.7044 54.366 27.4261C54.5883 27.147 54.7476 26.8868 54.8456 26.6481C54.9266 26.4503 54.9614 26.2958 54.9515 26.1844C54.9413 26.0728 54.8804 25.9942 54.7689 25.9486C54.6922 25.9171 54.614 25.9233 54.5329 25.9677C54.4523 26.0123 54.3471 26.0981 54.2158 26.2246C54.085 26.3524 53.9185 26.5275 53.7154 26.752C53.4848 27.003 53.2646 27.1905 53.0538 27.3158C52.8439 27.4423 52.6376 27.5123 52.4352 27.5254C52.2327 27.5395 52.0058 27.4941 51.7544 27.3917C51.3705 27.2347 51.1211 26.9889 51.0056 26.654C50.8902 26.3192 50.9079 25.8937 51.0582 25.3797L50.5802 25.1845L50.8759 24.4618L51.3468 24.6539C51.5614 24.2017 51.8667 23.7818 52.2612 23.3939L53.0859 24.2167C52.668 24.6136 52.3794 25.0074 52.2193 25.3992C52.1434 25.5842 52.1126 25.7249 52.1268 25.819C52.1414 25.9131 52.1929 25.9779 52.2814 26.0143C52.358 26.0455 52.4328 26.0436 52.5052 26.0104C52.5775 25.976 52.672 25.904 52.7886 25.7937C52.9061 25.6842 53.0538 25.5265 53.2334 25.3208C53.6046 24.905 53.9431 24.6358 54.2502 24.5144C54.5562 24.393 54.8832 24.4021 55.2295 24.5437C55.6205 24.7038 55.8874 24.9575 56.0301 25.3046C56.1736 25.653 56.1767 26.076 56.0403 26.5749L56.7141 26.8493L56.4187 27.5719L55.7659 27.306Z" fill="#002541"/>
<path d="M40.335 34.4057C40.1195 34.3176 39.8775 34.3188 39.6632 34.4089C39.4482 34.4986 39.2781 34.671 39.1896 34.8865L37.4715 39.0866C37.3837 39.3021 37.3844 39.5433 37.4742 39.7588C37.5644 39.973 37.7363 40.1433 37.9518 40.2312L42.1524 41.9497C42.316 42.0177 42.4884 42.0308 42.6505 41.9995C42.9316 41.9446 43.1807 41.7544 43.2968 41.4702C44.4275 38.7051 43.0992 35.536 40.335 34.4057Z" fill="#80C3CE"/>
<path d="M56.6466 6.51878L52.4461 4.80096C52.2306 4.712 51.9886 4.71402 51.7743 4.8042C51.5597 4.89427 51.3892 5.06552 51.3011 5.28089L49.583 9.48106C49.3991 9.93023 49.6141 10.4425 50.0629 10.6268C51.0497 11.0305 52.1088 11.1329 53.1316 10.9356C53.4969 10.8644 53.857 10.7553 54.2081 10.6086C55.5424 10.0488 56.5786 9.00437 57.127 7.66446C57.2147 7.44858 57.2135 7.20669 57.1237 6.99243C57.0341 6.77777 56.8621 6.60653 56.6466 6.51878Z" fill="#80C3CE"/>
<path d="M57.3496 41.367C56.0106 40.8183 54.5383 40.8255 53.204 41.3852C51.8697 41.9438 50.833 42.9903 50.2855 44.3294C50.1021 44.7777 50.3168 45.2897 50.7654 45.4739L54.966 47.1925C55.1253 47.2573 55.2985 47.2735 55.4654 47.2419C55.5243 47.2301 55.582 47.2138 55.6381 47.1893C55.8528 47.0992 56.0228 46.9272 56.1114 46.7118L57.8295 42.5116C57.9173 42.2961 57.9166 42.0541 57.8264 41.8395C57.7366 41.6248 57.565 41.4548 57.3496 41.367Z" fill="#80C3CE"/>
<path d="M69.9367 12.235C69.847 12.0204 69.6754 11.8492 69.4599 11.7611L65.2594 10.0437C64.8107 9.85947 64.2983 10.0741 64.1145 10.5236C62.9838 13.2875 64.3125 16.4562 67.0764 17.5869C67.2357 17.6517 67.4088 17.6687 67.5757 17.6364C67.6346 17.6252 67.6923 17.6082 67.7485 17.5837C67.9632 17.4936 68.1332 17.3228 68.2217 17.1061L69.9399 12.9068C70.028 12.6913 70.0269 12.4494 69.9367 12.235Z" fill="#80C3CE"/>
<path d="M25.7819 34.6597H14.7336V23.8627H25.7819V34.6597Z" fill="#F99C1D"/>
<path d="M68.6579 7.4991C68.7477 7.71386 68.7485 7.95454 68.66 8.17041L54.8307 41.977C54.7141 42.2616 54.465 42.4518 54.184 42.5063C54.0218 42.538 53.8495 42.5237 53.6858 42.457L44.0077 38.4976L43.6898 38.3671L36.6716 35.4957C36.4554 35.4067 36.2846 35.2375 36.1944 35.0233C36.1031 34.8085 36.1027 34.5654 36.1912 34.3511L47.7149 6.18267L47.7789 6.02762L50.0213 0.545334C50.2043 0.0970802 50.7176 -0.116875 51.1662 0.0666161L68.1796 7.02665C68.3954 7.11369 68.5683 7.28372 68.6579 7.4991Z" fill="#96E0F4"/>
<path d="M60.6494 19.3124C59.3878 17.4693 57.3636 15.9109 54.95 14.9229C52.5459 13.9401 50.02 13.6313 47.8338 14.0543C47.8258 14.0567 47.8171 14.0575 47.8085 14.0595C45.4842 14.5149 43.806 15.7397 43.0828 17.5077C42.3594 19.2749 42.6981 21.3244 44.0372 23.2797C45.2988 25.1217 47.323 26.6801 49.7365 27.6681C52.1406 28.6517 54.6665 28.9597 56.8528 28.5375C56.8607 28.5355 56.8694 28.5335 56.8773 28.5324C59.202 28.0761 60.881 26.8513 61.6037 25.0841C62.3268 23.3173 61.9875 21.2678 60.6494 19.3124Z" fill="#4FC2D9"/>
<path d="M54.4865 22.5702C54.2549 23.0703 53.9397 23.5135 53.542 23.9021L52.3836 23.4297C52.6316 23.2161 52.8656 22.9691 53.087 22.6895C53.3084 22.4112 53.4681 22.1523 53.5665 21.9123C53.6468 21.715 53.6823 21.56 53.6721 21.4478C53.6622 21.3375 53.6014 21.2588 53.4898 21.2129C53.4131 21.1817 53.3341 21.1888 53.2534 21.2335C53.1727 21.2778 53.0672 21.3628 52.9363 21.4893C52.8058 21.617 52.6386 21.7921 52.4354 22.0167C52.2058 22.2666 51.9855 22.4559 51.7748 22.5812C51.5645 22.7069 51.3586 22.777 51.1557 22.7907C50.9533 22.803 50.7263 22.7583 50.4753 22.6563C50.091 22.4993 49.8415 22.2523 49.7262 21.9174C49.6111 21.5826 49.6281 21.1583 49.7787 20.6444L49.3008 20.4492L49.596 19.7264L50.0677 19.9197C50.2824 19.4663 50.5868 19.046 50.9818 18.6594L51.8064 19.4813C51.3889 19.879 51.1004 20.272 50.9403 20.6634C50.8644 20.8496 50.8335 20.9895 50.8478 21.0836C50.8619 21.1778 50.9133 21.2425 51.0019 21.279C51.0786 21.3101 51.1533 21.3094 51.2261 21.2746C51.298 21.2402 51.3925 21.1687 51.5096 21.0591C51.6266 20.9488 51.7744 20.791 51.9539 20.5847C52.3255 20.1696 52.664 19.9004 52.9703 19.7778C53.2768 19.6565 53.6033 19.6675 53.9504 19.8083C54.341 19.9691 54.6083 20.2221 54.751 20.5693C54.8937 20.9176 54.8972 21.3406 54.7613 21.8396L55.435 22.1148L55.1392 22.8374L54.4865 22.5702Z" fill="#002541"/>
<path d="M39.0554 29.6702C38.8399 29.5833 38.598 29.584 38.3834 29.673C38.169 29.7631 37.9991 29.9351 37.9105 30.151L36.1923 34.3511C36.1037 34.5654 36.1054 34.8085 36.1951 35.0233C36.2852 35.2375 36.4565 35.4075 36.6718 35.4957L40.8724 37.2151C41.0365 37.281 41.2092 37.2953 41.3706 37.2636C41.652 37.2103 41.9011 37.0189 42.0178 36.7347C43.1485 33.9704 41.8197 30.8018 39.0554 29.6702Z" fill="#4FC2D9"/>
<path d="M55.3669 1.78416L51.1664 0.0655265C50.9509 -0.0226264 50.7094 -0.02141 50.4943 0.067553C50.28 0.157629 50.11 0.329682 50.0215 0.54546L48.3033 4.74644C48.1199 5.1948 48.3349 5.70792 48.7836 5.8902C49.7704 6.29504 50.8287 6.39746 51.8524 6.1998C52.2172 6.12895 52.5778 6.01985 52.9288 5.87279C54.2632 5.31341 55.2993 4.26772 55.8469 2.92863C55.9354 2.71315 55.9343 2.47127 55.8441 2.25771C55.754 2.04224 55.5824 1.87231 55.3669 1.78416Z" fill="#4FC2D9"/>
<path d="M56.0686 36.6303C54.7291 36.0827 53.2568 36.0899 51.9233 36.6493C50.5891 37.2091 49.5525 38.2548 49.0046 39.5926C48.8211 40.0421 49.0361 40.5541 49.4849 40.7383L53.6855 42.4557C53.8448 42.5217 54.0179 42.538 54.1839 42.5055C54.2428 42.4941 54.3014 42.4771 54.3571 42.4538C54.5717 42.3636 54.7418 42.1928 54.8299 41.977L56.549 37.776C56.6367 37.5602 56.6359 37.3186 56.5457 37.1039C56.4561 36.8893 56.2837 36.7192 56.0686 36.6303Z" fill="#4FC2D9"/>
<path d="M68.6576 7.49911C68.5679 7.28374 68.3954 7.11371 68.1804 7.02556L63.9802 5.30693C63.5315 5.12506 63.0184 5.33861 62.8353 5.78767C61.7042 8.55199 63.0326 11.7206 65.7973 12.8513C65.9566 12.917 66.1298 12.9332 66.2962 12.9008C66.3551 12.8885 66.4133 12.8723 66.4689 12.8482C66.6836 12.7592 66.8536 12.5869 66.9418 12.3714L68.6608 8.17043C68.7486 7.95455 68.7478 7.71388 68.6576 7.49911Z" fill="#4FC2D9"/>
<path d="M44.3262 13.0556C44.3262 13.0556 47.0008 11.6284 49.0984 10.5111C50.4964 9.76632 51.0966 8.08018 50.4854 6.61973C49.8121 5.01142 47.9358 4.28555 46.3564 5.02569L38.6822 8.61426C37.8675 8.99612 37.1673 9.58525 36.6526 10.323L31.6154 17.5503L44.3262 13.0556Z" fill="#FCE5AC"/>
</svg>
