<svg width="73" height="86" viewBox="0 0 73 86" fill="none" xmlns="http://www.w3.org/2000/svg">
<path d="M67.0779 0.0251799C67.0779 0.0251799 69.7395 -0.354589 71.0695 1.8303C72.3995 4.01683 72.5902 9.43384 72.5902 9.43384H40.4696L67.0779 0.0251799Z" fill="#CDCCCA"/>
<path d="M67.4588 85.5528H6.54502C6.54502 85.5528 11.8667 81.372 11.4869 64.4552C10.803 34.041 -1.21798 20.6095 1.41407 6.58281C2.26731 2.02068 5.78386 0.0248795 5.78386 0.0248795H67.0791C67.0791 0.0248795 63.7549 1.73466 63.0874 6.48584C61.0801 20.8298 70.0251 34.5211 71.8319 65.8806C72.2544 73.2556 73.4266 79.5932 71.4505 83.0818C69.8361 85.9325 67.4588 85.5528 67.4588 85.5528Z" fill="#F2F2F2"/>
<path d="M68.4105 85.5659C68.4105 85.5659 65.4645 85.5297 63.5624 83.8183C61.0339 81.543 60.6163 79.5768 60.6163 79.5768H0.09375C0.09375 79.5768 1.19856 82.5048 2.83928 83.677C5.33159 85.4574 7.64965 85.5659 7.64965 85.5659H68.4105Z" fill="#E0E0E0"/>
<path d="M52.3038 14.0895H10.5361V13.1869H52.3038V14.0895Z" fill="#CDCCCA"/>
<path d="M54.7247 23.7826H12.9603V23.1644H54.7247V23.7826Z" fill="#92E0EA"/>
<path d="M55.9015 29.3427H14.1355V28.7245H55.9015V29.3427Z" fill="#92E0EA"/>
<path d="M57.0767 34.9014H15.3107V34.2849H57.0767V34.9014Z" fill="#92E0EA"/>
<path d="M58.2554 40.6028H16.4894V39.9863H58.2554V40.6028Z" fill="#92E0EA"/>
<path d="M59.4287 46.5902H17.661V45.9737H59.4287V46.5902Z" fill="#92E0EA"/>
<path d="M0.420836 80.3859H60.9154L60.6162 79.577H0L0.420836 80.3859Z" fill="white"/>
<path d="M64.2445 62.3661C64.2445 68.0346 59.6494 72.6296 53.9809 72.6296C48.314 72.6296 43.719 68.0346 43.719 62.3661C43.719 56.6976 48.314 52.1026 53.9809 52.1026C59.6494 52.1026 64.2445 56.6976 64.2445 62.3661Z" fill="#F77B55"/>
<path d="M62.2681 62.3661C62.2681 66.9413 58.5575 70.6519 53.9823 70.6519C49.407 70.6519 45.6981 66.9413 45.6981 62.3661C45.6981 57.7908 49.407 54.0803 53.9823 54.0803C58.5575 54.0803 62.2681 57.7908 62.2681 62.3661Z" fill="#FF916E"/>
<path d="M60.8316 62.3658C60.8316 66.1487 57.7655 69.2147 53.9826 69.2147C50.1997 69.2147 47.1337 66.1487 47.1337 62.3658C47.1337 58.5829 50.1997 55.5169 53.9826 55.5169C57.7655 55.5169 60.8316 58.5829 60.8316 62.3658Z" fill="#F77B55"/>
</svg>
