<svg width="506" height="362" viewBox="0 0 506 362" fill="none" xmlns="http://www.w3.org/2000/svg">
<path d="M430.894 157.929L463.73 138.925C469.739 135.447 468.986 129.372 462.046 125.355C455.107 121.339 444.61 120.902 438.6 124.381L405.766 143.384C399.757 146.863 400.509 152.939 407.449 156.955C414.389 160.972 424.886 161.407 430.894 157.929Z" fill="#D7DCE2"/>
<path d="M33.4787 76.3525L33.2863 75.9402C33.5052 75.8143 33.663 75.6699 33.7564 75.5025C33.8497 75.3373 33.8958 75.1225 33.8958 74.8591H33.3358V73.4662H34.382V74.7586C34.382 75.1767 34.314 75.5036 34.1769 75.7438C34.0398 75.9829 33.8071 76.1862 33.4787 76.3525Z" fill="#8AA5D0"/>
<path d="M96.6502 200.031L215.443 131.067C221.898 127.321 233.178 127.773 240.642 132.079L489.958 275.918C497.422 280.224 498.24 286.751 491.788 290.498L372.993 359.461C366.541 363.208 355.259 362.755 347.795 358.449L98.4787 214.61C91.0151 210.305 90.1959 203.778 96.6502 200.031Z" fill="#D7DCE2"/>
<path d="M376.449 334.206L500.079 262.435C504.142 260.076 506.034 256.897 505.9 253.591L505.927 253.6L505.877 235.615L499.002 243.69C498.556 243.395 498.107 243.101 497.618 242.819L244.71 96.908C234.669 91.1156 219.491 90.5058 210.81 95.5462L88.9164 166.31C86.4496 163.602 81.2765 157.883 81.2765 157.883L81.3352 175.474L81.3376 175.472C81.1555 179.438 83.9702 183.663 89.6399 186.933L342.55 332.844C352.591 338.637 367.767 339.246 376.449 334.206Z" fill="#4067B1"/>
<path d="M443.301 290.178L436.181 294.297C435.235 294.846 434.469 294.265 434.469 293C434.469 291.735 435.235 290.269 436.181 289.72L443.301 285.6C444.247 285.051 445.014 285.632 445.014 286.897C445.014 288.162 444.247 289.628 443.301 290.178Z" fill="#263C7A"/>
<path d="M244.709 96.9079C234.668 91.1156 219.491 90.5057 210.809 95.5462L88.9157 166.31C86.4489 163.602 81.2746 157.883 81.2746 157.883L81.3345 175.474L81.3368 175.472C81.1548 179.438 83.9695 183.662 89.6392 186.933L342.549 332.844C347.788 335.867 354.42 337.463 360.803 337.598L360.562 163.747L244.709 96.9079Z" fill="#5F92D3"/>
<path d="M87.1266 149.236L210.758 77.4662C219.439 72.4245 234.616 73.0344 244.657 78.8267L497.567 224.739C507.607 230.531 508.709 239.314 500.027 244.354L376.397 316.125C367.716 321.166 352.539 320.556 342.498 314.764L89.5876 168.853C79.5467 163.06 78.4452 154.278 87.1266 149.236Z" fill="#D9EFFB"/>
<path d="M376.492 318.045L500.122 246.274C504.599 243.674 506.453 240.08 505.842 236.412C505.623 239.39 503.718 242.211 500.027 244.354L376.397 316.125C367.715 321.166 352.539 320.557 342.498 314.764L89.5878 168.853C84.7257 166.047 81.9801 162.542 81.4064 159.097C81.1103 163.126 83.91 167.442 89.6822 170.772L342.592 316.683C352.633 322.477 367.81 323.086 376.492 318.045Z" fill="white"/>
<path d="M96.6502 152.066L215.443 83.1024C221.898 79.3555 233.178 79.8083 240.642 84.1142L489.958 227.952C497.422 232.258 498.24 238.786 491.788 242.533L372.993 311.496C366.541 315.243 355.259 314.789 347.795 310.484L98.4787 166.645C91.0151 162.339 90.1959 155.813 96.6502 152.066Z" fill="#263C7A"/>
<path d="M343.07 275.678L426.898 227.16L421.546 224.063L337.718 272.58L343.07 275.678Z" fill="#D9EFFB"/>
<path d="M401.393 261.532L443.84 236.965L438.488 233.869L396.043 258.436L401.393 261.532Z" fill="#D9EFFB"/>
<path d="M380.796 273.455L394.562 265.487L389.213 262.39L375.446 270.358L380.796 273.455Z" fill="#EE1696"/>
<path d="M360.013 285.484L373.779 277.517L368.428 274.419L354.661 282.387L360.013 285.484Z" fill="white"/>
<path d="M400.92 252L435.368 232.062L430.018 228.966L395.569 248.903L400.92 252Z" fill="white"/>
<path d="M358.869 276.339L393.318 256.402L387.967 253.305L353.519 273.243L358.869 276.339Z" fill="#D9EFFB"/>
<path d="M384.373 233.719C386.098 234.717 388.892 234.717 390.616 233.719C392.34 232.722 392.34 231.103 390.616 230.106C388.892 229.108 386.098 229.108 384.373 230.106C382.65 231.103 382.65 232.722 384.373 233.719Z" fill="#EE1696"/>
<path d="M375.045 239.118C376.769 240.116 379.564 240.116 381.287 239.118C383.011 238.12 383.011 236.503 381.287 235.505C379.564 234.509 376.769 234.509 375.045 235.505C373.322 236.503 373.322 238.12 375.045 239.118Z" fill="white"/>
<path d="M365.716 244.517C367.44 245.514 370.235 245.514 371.959 244.517C373.682 243.518 373.682 241.901 371.959 240.903C370.235 239.905 367.44 239.905 365.716 240.903C363.993 241.901 363.993 243.518 365.716 244.517Z" fill="#D9EFFB"/>
<path d="M356.39 249.914C358.114 250.912 360.909 250.912 362.632 249.914C364.356 248.916 364.356 247.299 362.632 246.302C360.909 245.303 358.114 245.303 356.39 246.302C354.666 247.299 354.666 248.916 356.39 249.914Z" fill="#EE1696"/>
<path d="M347.064 255.313C348.787 256.311 351.583 256.311 353.306 255.313C355.03 254.315 355.03 252.698 353.306 251.7C351.583 250.702 348.787 250.702 347.064 251.7C345.34 252.698 345.34 254.315 347.064 255.313Z" fill="white"/>
<path d="M245.58 196.808H256.916V173.615H245.58V196.808Z" fill="#492A81"/>
<path d="M249.293 196.807L245.579 175.978L245.998 178.329L249.293 196.807ZM249.293 196.807L235.252 178.686L221.21 180.553L224.925 164.024L219.199 155.057L250.123 172.898L244.304 175.274L247.803 194.884L249.293 196.807Z" fill="#553087"/>
<path d="M249.294 196.807L247.804 194.884L244.305 175.274L250.124 172.898L251.365 173.614L245.58 175.978L249.294 196.807Z" fill="#5A73A7"/>
<path d="M308.988 222.299L305.918 205.087H305.919L308.988 222.299Z" fill="#4E544F"/>
<path d="M301.365 226.686L298.07 208.209L297.65 205.858L303.273 203.56L305.918 205.087L308.988 222.299L301.365 226.686Z" fill="#492A81"/>
<path d="M301.364 226.686L297.65 205.858L298.069 208.209L301.364 226.686ZM299.873 224.762L287.323 208.566L273.282 210.432L276.996 193.904L271.434 185.192L302.03 202.844L296.377 205.154L299.873 224.762Z" fill="#553087"/>
<path d="M301.364 226.686L299.875 224.763L299.873 224.762L296.377 205.153L302.03 202.843L303.272 203.559L297.65 205.858L301.363 226.685L301.364 226.686Z" fill="#5A73A7"/>
<path d="M353.435 256.565L353.219 255.36C353.248 255.345 353.276 255.328 353.305 255.312C355.028 254.314 355.028 252.697 353.305 251.699C353.057 251.556 352.787 251.434 352.502 251.331L349.72 235.738L355.179 233.507L358.02 235.146L359.878 245.562C359.756 245.556 359.633 245.552 359.51 245.552C358.381 245.552 357.251 245.802 356.389 246.302C354.665 247.299 354.665 248.916 356.389 249.914C357.251 250.413 358.381 250.662 359.51 250.662C359.934 250.662 360.358 250.626 360.768 250.557L361.057 252.179L353.435 256.565Z" fill="#492A81"/>
<path d="M359.511 250.663C358.382 250.663 357.252 250.413 356.39 249.914C354.666 248.916 354.666 247.299 356.39 246.302C357.252 245.802 358.382 245.553 359.511 245.553C359.634 245.553 359.756 245.556 359.879 245.562L360.769 250.557C360.359 250.627 359.935 250.663 359.511 250.663Z" fill="#ED0E93"/>
<path d="M353.219 255.36L352.501 251.331C352.787 251.434 353.057 251.556 353.304 251.7C355.028 252.698 355.028 254.315 353.304 255.313C353.276 255.329 353.248 255.345 353.219 255.36Z" fill="#EFA2D5"/>
<path d="M351.301 251.034C350.935 250.979 350.559 250.951 350.184 250.951C349.833 250.951 349.482 250.975 349.14 251.023L339.392 238.446L325.352 240.312L329.066 223.783L323.668 215.327L353.937 232.791L348.446 235.035L351.301 251.034Z" fill="#553087"/>
<path d="M351.945 254.643L349.139 251.022C349.482 250.975 349.833 250.951 350.183 250.951C350.559 250.951 350.935 250.978 351.301 251.034L351.945 254.643Z" fill="#F9B0DB"/>
<path d="M349.72 235.739V235.738L355.178 233.507H355.179L349.72 235.739Z" fill="#553087"/>
<path d="M353.436 256.565L352.694 255.608C352.878 255.535 353.053 255.452 353.22 255.36L353.436 256.565ZM352.502 251.331C352.124 251.196 351.72 251.096 351.302 251.034L348.447 235.035L353.938 232.791L355.179 233.507L349.721 235.737V235.738L352.502 251.331Z" fill="#5A73A7"/>
<path d="M352.693 255.608L351.946 254.643L351.302 251.034C351.72 251.096 352.124 251.196 352.502 251.331L353.22 255.36C353.053 255.452 352.878 255.535 352.693 255.608Z" fill="white"/>
<path d="M242.876 134.27L249.258 155.255L265.595 166.526L253.203 171.591L256.916 192.419L242.876 174.299L228.834 176.166L232.549 159.636L220.157 140.228L236.493 147.868L242.876 134.27Z" fill="#E59C13"/>
<path d="M212.533 144.614L220.157 140.227L231.93 145.733C231.93 145.733 231.89 153.67 231.93 153.859C231.972 154.047 227.078 154.284 226.748 154.284C226.418 154.284 212.533 144.614 212.533 144.614Z" fill="#D1078D"/>
<path d="M256.916 192.419L249.294 196.807L245.58 175.978L249.258 172.069L253.414 172.776L256.916 192.419Z" fill="#D1078D"/>
<path d="M235.252 138.658L241.635 159.643L257.971 170.914L245.58 175.978L249.293 196.807L235.252 178.686L221.211 180.553L224.925 164.024L212.533 144.614L228.87 152.256L235.252 138.658Z" fill="#EE1696"/>
<path d="M249.293 196.807L245.58 175.978L257.971 170.914L241.635 159.643L235.252 138.658L228.87 152.256L212.533 144.614L213.671 146.396L229.413 153.757L235.027 141.797L240.667 160.35L255.608 170.657L244.304 175.274L247.803 194.884L249.293 196.807Z" fill="white"/>
<path d="M235.252 138.658L242.876 134.27L249.258 155.255L241.635 159.643L235.252 138.658Z" fill="#D1078D"/>
<path d="M265.595 166.526L257.972 170.914L241.635 159.643L249.258 155.255L265.595 166.526Z" fill="#D1078D"/>
<path d="M242.015 160.169L240.854 159.497L249.088 154.695L249.258 155.255L249.8 155.629L242.015 160.169Z" fill="white"/>
<path d="M294.946 164.15L301.329 185.136L317.666 196.406L305.274 201.471L308.988 222.299L294.946 204.18L280.906 206.046L284.619 189.517L272.228 170.108L288.564 177.748L294.946 164.15Z" fill="#E59C13"/>
<path d="M264.604 174.495L272.228 170.108L284.001 175.614C284.001 175.614 283.961 183.551 284.001 183.739C284.042 183.928 279.147 184.164 278.819 184.164C278.49 184.164 264.604 174.495 264.604 174.495Z" fill="#D1078D"/>
<path d="M308.988 222.299L301.365 226.686L297.65 205.858L301.329 201.949L305.485 202.656L308.988 222.299Z" fill="#D1078D"/>
<path d="M287.323 168.537L293.705 189.522L310.042 200.794L297.65 205.858L301.364 226.686L287.323 208.566L273.282 210.432L276.996 193.904L264.604 174.495L280.941 182.135L287.323 168.537Z" fill="#EE1696"/>
<path d="M301.364 226.686L297.65 205.858L310.042 200.793L293.705 189.522L287.323 168.536L280.941 182.135L264.604 174.495L265.742 176.277L281.485 183.638L287.098 171.676L292.738 190.229L307.678 200.535L296.377 205.153L299.875 224.763L301.364 226.686Z" fill="white"/>
<path d="M287.323 168.537L294.946 164.15L301.328 185.135L293.705 189.522L287.323 168.537Z" fill="#D1078D"/>
<path d="M317.666 196.405L310.042 200.793L293.705 189.521L301.329 185.135L317.666 196.405Z" fill="#D1078D"/>
<path d="M294.085 190.05L292.924 189.378L301.158 184.576L301.329 185.136L301.87 185.51L294.085 190.05Z" fill="white"/>
<path d="M347.019 194.029L353.4 215.016L369.737 226.285L357.344 231.35L361.059 252.178L347.019 234.058L332.976 235.925L336.692 219.397L324.3 199.987L340.637 207.627L347.019 194.029Z" fill="#E59C13"/>
<path d="M316.674 204.374L324.298 199.987L336.072 205.493C336.072 205.493 336.03 213.429 336.072 213.62C336.113 213.808 331.219 214.043 330.89 214.043C330.56 214.043 316.674 204.374 316.674 204.374Z" fill="#D1078D"/>
<path d="M361.058 252.179L353.435 256.565L349.721 235.738L353.399 231.829L357.555 232.535L361.058 252.179Z" fill="#D1078D"/>
<path d="M339.392 198.417L345.775 219.402L362.113 230.672L349.72 235.738L353.435 256.565L339.392 238.446L325.352 240.312L329.067 223.783L316.674 204.374L333.011 212.014L339.392 198.417Z" fill="#EE1696"/>
<path d="M353.435 256.565L349.72 235.737L362.113 230.672L345.775 219.402L339.392 198.417L333.011 212.014L316.674 204.374L317.813 206.157L333.554 213.518L339.169 201.557L344.81 220.11L359.749 230.417L348.446 235.035L351.945 254.643L353.435 256.565Z" fill="white"/>
<path d="M339.393 198.417L347.018 194.03L353.4 215.016L345.776 219.402L339.393 198.417Z" fill="#D1078D"/>
<path d="M369.737 226.286L362.114 230.672L345.777 219.402L353.401 215.016L369.737 226.286Z" fill="#D1078D"/>
<path d="M346.157 219.93L344.996 219.257L353.229 214.454L353.399 215.016L353.941 215.389L346.157 219.93Z" fill="white"/>
<path d="M279.105 84.7187L285.486 105.704L301.824 116.976L289.431 122.039L293.146 142.868L279.105 124.748L265.063 126.614L268.778 110.086L256.387 90.6763L272.722 98.3167L279.105 84.7187Z" fill="#E59C13"/>
<path d="M248.762 95.0638L256.387 90.676L268.16 96.183C268.16 96.183 268.119 104.119 268.16 104.307C268.201 104.497 263.307 104.732 262.977 104.732C262.648 104.732 248.762 95.0638 248.762 95.0638Z" fill="#D1078D"/>
<path d="M293.146 142.867L285.523 147.255L281.807 126.427L285.486 122.517L289.643 123.225L293.146 142.867Z" fill="#D1078D"/>
<path d="M271.481 89.1064L277.864 110.092L294.2 121.362L281.808 126.427L285.524 147.255L271.481 129.134L257.441 131.001L261.155 114.473L248.762 95.064L265.099 102.703L271.481 89.1064Z" fill="#EE1696"/>
<path d="M285.524 147.255L281.808 126.427L294.2 121.362L277.864 110.092L271.481 89.1064L265.099 102.704L248.762 95.064L249.902 96.8461L265.643 104.207L271.257 92.2469L276.896 110.8L291.837 121.106L280.535 125.723L284.034 145.332L285.524 147.255Z" fill="white"/>
<path d="M271.481 89.1064L279.105 84.7185L285.487 105.704L277.864 110.092L271.481 89.1064Z" fill="#D1078D"/>
<path d="M301.824 116.976L294.201 121.362L277.864 110.092L285.487 105.704L301.824 116.976Z" fill="#D1078D"/>
<path d="M278.245 110.62L277.082 109.947L285.318 105.144L285.487 105.704L286.03 106.078L278.245 110.62Z" fill="white"/>
<path d="M331.177 114.599L337.56 135.585L353.895 146.856L341.502 151.92L345.218 172.748L331.177 154.627L317.136 156.494L320.85 139.966L308.458 120.556L324.795 128.197L331.177 114.599Z" fill="#E59C13"/>
<path d="M300.834 124.944L308.457 120.556L320.232 126.062C320.232 126.062 320.189 133.999 320.232 134.188C320.272 134.377 315.378 134.612 315.05 134.612C314.719 134.612 300.834 124.944 300.834 124.944Z" fill="#D1078D"/>
<path d="M345.218 172.747L337.595 177.135L333.88 156.306L337.56 152.397L341.715 153.105L345.218 172.747Z" fill="#D1078D"/>
<path d="M323.552 118.985L329.934 139.972L346.272 151.242L333.879 156.306L337.594 177.135L323.552 159.014L309.511 160.881L313.227 144.353L300.834 124.944L317.17 132.583L323.552 118.985Z" fill="#EE1696"/>
<path d="M337.594 177.135L333.879 156.306L346.272 151.242L329.934 139.972L323.552 118.985L317.17 132.583L300.834 124.943L301.972 126.726L317.715 134.087L323.328 122.126L328.969 140.679L343.907 150.986L332.606 155.602L336.104 175.212L337.594 177.135Z" fill="white"/>
<path d="M323.552 118.985L331.176 114.598L337.558 135.585L329.934 139.972L323.552 118.985Z" fill="#D1078D"/>
<path d="M353.895 146.856L346.272 151.243L329.935 139.972L337.559 135.585L353.895 146.856Z" fill="#D1078D"/>
<path d="M330.316 140.499L329.154 139.826L337.387 135.024L337.559 135.585L338.099 135.958L330.316 140.499Z" fill="white"/>
<path d="M159.579 152.597L173.693 144.427L168.207 141.252L154.092 149.422L159.579 152.597Z" fill="#EE1696"/>
<path d="M139.924 163.972L154.039 155.803L148.554 152.628L134.44 160.797L139.924 163.972Z" fill="white"/>
<path d="M222.623 115.766L236.738 107.597L231.251 104.422L217.138 112.591L222.623 115.766Z" fill="white"/>
<path d="M162.726 160.83L182.379 149.454L176.893 146.28L157.241 157.653L162.726 160.83Z" fill="white"/>
<path d="M148.612 169L157.236 164.008L151.75 160.832L143.126 165.824L148.612 169Z" fill="#D9EFFB"/>
<path d="M442.201 107.967L442.215 101.595L449.734 63.6144L442.307 59.014L427.428 67.248L427.321 116.201C427.314 119.495 428.546 121.723 430.437 122.448V122.452L437.053 126.62L437.884 123.468L439.021 117.725C440.937 114.896 442.194 111.279 442.201 107.967Z" fill="#263C7A"/>
<path d="M442.167 126.475C438.057 128.75 434.735 126.209 434.747 120.802L434.854 71.848L449.733 63.6151L449.627 112.568C449.614 117.974 446.274 124.201 442.167 126.475Z" fill="#5F92D3"/>
<path d="M482.329 37.2544C482.329 49.6788 473.627 54.7147 462.895 48.5031C452.16 42.2903 443.461 27.1816 443.461 14.7572C443.461 2.33273 452.16 -2.70309 462.895 3.5097C473.627 9.72133 482.329 24.83 482.329 37.2544Z" fill="#EE1696"/>
<path d="M476.828 49.7533L420.27 82.2656L389.866 36.4799L448.789 2.3679L476.828 49.7533Z" fill="#EE1696"/>
<path d="M454.584 53.8472C454.584 41.0681 445.634 25.5287 434.594 19.1392C429.579 16.2355 424.997 15.7284 421.486 17.2299L421.482 17.2219L421.409 17.2577L421.319 17.3004C421.165 17.3708 421.014 17.4459 420.864 17.5233C399.991 27.8086 376.89 32.7232 353.644 31.8165L347.059 31.559L400.676 123.671L403.58 118.044C414.171 97.5238 429.649 79.9515 448.631 66.871C452.305 64.8024 454.584 60.2933 454.584 53.8472Z" fill="#D9EFFB"/>
<path d="M406.93 102.856C406.93 78.342 389.761 48.5324 368.583 36.2754C358.023 30.1631 348.46 29.5695 341.524 33.5519L341.525 33.5508L341.487 33.5727L341.435 33.6028L335.144 37.2976L337.342 36.838C332.869 41.5088 330.238 48.8708 330.238 58.4678C330.238 82.9817 347.407 112.791 368.583 125.048C376.895 129.859 384.588 131.249 390.868 129.684L389.871 131.155L395.663 127.76L395.754 127.707L395.963 127.585L395.955 127.586C402.742 123.506 406.93 114.959 406.93 102.856Z" fill="#D9EFFB"/>
<path d="M402.441 105.48C402.441 80.9658 385.274 51.1562 364.097 38.8993C353.677 32.869 344.23 32.2141 337.32 36.0198L336.357 36.5858C336.028 36.7937 335.707 37.0154 335.391 37.2453L337.342 36.8376C332.869 41.5085 330.238 48.8705 330.238 58.4674C330.238 82.9813 347.407 112.791 368.583 125.048C376.895 129.859 384.588 131.249 390.868 129.684L389.959 131.024C397.63 127.348 402.441 118.456 402.441 105.48Z" fill="white"/>
<path d="M401.17 106.229C401.17 130.743 384.002 140.679 362.824 128.421C341.645 116.164 324.478 86.3547 324.478 61.8408C324.478 37.3269 341.645 27.3915 362.824 39.6484C384.002 51.9054 401.17 81.715 401.17 106.229Z" fill="#5F92D3"/>
<path d="M396.467 103.508C396.467 125.016 381.404 133.733 362.825 122.978C344.244 112.224 329.182 86.0712 329.182 64.5638C329.182 43.0564 344.244 34.3384 362.825 45.0927C381.404 55.8469 396.467 82.001 396.467 103.508Z" fill="#263C7A"/>
<path d="M364.395 122.303C345.816 111.549 330.752 85.3963 330.752 63.8889C330.752 52.5952 334.907 44.8301 341.543 41.5568C333.998 44.3323 329.182 52.4023 329.182 64.5634C329.182 86.0708 344.244 112.224 362.824 122.978C371.648 128.084 379.676 128.798 385.676 125.839C379.879 127.971 372.469 126.977 364.395 122.303Z" fill="white"/>
<path d="M357.789 75.9727L406.603 38.1358L424.33 68.9641L367.035 92.5332L357.789 75.9727Z" fill="#D9EFFB"/>
<path d="M369.542 87.9229C369.542 92.2183 366.533 93.959 362.824 91.8118C359.114 89.6635 356.104 84.4417 356.104 80.1462C356.104 75.8519 359.114 74.1101 362.824 76.2584C366.533 78.4056 369.542 83.6285 369.542 87.9229Z" fill="#5F92D3"/>
<path d="M431.16 108.388L430.896 108.236C429.92 107.675 429.125 106.163 429.122 104.86L429.094 95.4205C429.091 94.1165 429.88 93.5159 430.856 94.0772L431.12 94.2285C432.096 94.7899 432.89 96.3018 432.895 97.6046L432.922 107.044C432.925 108.349 432.137 108.949 431.16 108.388Z" fill="#EE1696"/>
<path d="M183.127 357.983L184.955 356.925C191.724 353.007 190.874 346.164 183.059 341.641L144.858 319.531C137.042 315.007 125.218 314.516 118.451 318.433L116.622 319.491C109.853 323.408 110.702 330.252 118.517 334.776L156.72 356.886C164.535 361.41 176.359 361.9 183.127 357.983Z" fill="#D7DCE2"/>
<path d="M127.14 330.264L134.201 326.177L81.4968 295.248L74.4364 299.334L127.14 330.264Z" fill="#D7DCE2"/>
<path d="M15.5148 264.498C17.0944 269.901 21.4415 275.086 28.647 279.258C47.109 289.942 77.0418 289.942 95.5049 279.258C100.085 276.606 103.5 273.542 105.804 270.276C118.785 282.912 115.885 299.495 97.1029 310.365C74.8861 323.224 38.8689 323.224 16.652 310.367C-5.17077 297.737 -5.53832 277.4 15.5148 264.498Z" fill="#D7DCE2"/>
<path d="M110.061 264.268L102.846 254.841L80.9451 244.638L62.0764 242.959L39.9782 245.671L24.6489 253.613L14.858 259.877L13.0975 249.675L16.403 237.922C16.403 237.922 24.7779 232.369 25.293 231.853C25.8091 231.335 44.8737 224.492 44.8737 224.492L63.9405 223.199L79.271 225.136L94.8584 229.786L105.166 237.018L112.895 246.833L113.764 259.102L110.061 264.268Z" fill="#D1078D"/>
<path d="M7.80087 252.16V272.018L13.0973 263.408L7.80087 252.16Z" fill="#D1078D"/>
<path d="M95.506 253.192C77.044 242.505 47.1101 242.507 28.647 253.192C22.8402 256.553 18.863 260.572 16.7085 264.833C15.0828 263.375 12.9882 262.227 12.1194 260.263C14.7648 256.653 18.6141 253.27 23.6985 250.328C44.8946 238.061 79.2596 238.06 100.456 250.327C105.094 253.011 108.718 256.063 111.325 259.317C110.471 261.318 109.176 263.252 107.451 264.849C105.3 260.583 101.321 256.557 95.506 253.192Z" fill="#D1078D"/>
<path d="M62.0743 279.522C49.9756 279.522 37.8781 276.85 28.6471 271.509C23.9797 268.807 20.4979 265.683 18.1936 262.347C19.5486 264.306 21.3102 266.193 23.4785 267.964C24.2977 267.407 25.148 266.86 26.0582 266.333C35.2903 260.99 47.389 258.318 59.4877 258.318C71.5864 258.318 83.6851 260.99 92.9172 266.333C94.8459 267.45 96.5534 268.643 98.0742 269.889C101.468 267.585 104.097 265.032 105.957 262.344C105.957 262.345 105.958 262.346 105.958 262.347C103.654 265.682 100.171 268.806 95.505 271.507C86.274 276.85 74.1741 279.522 62.0743 279.522Z" fill="#EEF8FD"/>
<path d="M98.0742 269.889C96.5534 268.643 94.8459 267.45 92.9172 266.333C83.6851 260.99 71.5864 258.318 59.4877 258.318C47.389 258.318 35.2903 260.99 26.0582 266.333C25.148 266.86 24.2977 267.407 23.4785 267.964C21.3102 266.193 19.5486 264.306 18.1936 262.347C20.5014 259.015 23.9843 255.89 28.6471 253.191C37.8804 247.848 49.9779 245.178 62.0777 245.178C74.1753 245.178 86.2763 247.849 95.5061 253.191C100.168 255.89 103.651 259.012 105.957 262.343C104.097 265.032 101.468 267.585 98.0742 269.889Z" fill="#E4F4FC"/>
<path d="M15.4068 256.501C15.3365 256.247 15.272 255.993 15.2144 255.738C16.522 249.972 20.9935 244.399 28.6472 239.969C37.8794 234.626 49.9781 231.954 62.0768 231.954C74.1766 231.954 86.2753 234.626 95.5063 239.969C103.16 244.399 107.63 249.97 108.938 255.737C108.882 255.989 108.818 256.239 108.749 256.49C106.489 254.292 103.725 252.219 100.456 250.327C89.8573 244.193 75.9693 241.126 62.0791 241.126C48.1888 241.126 34.2974 244.194 23.6988 250.328C20.4255 252.221 17.665 254.299 15.4068 256.501Z" fill="#CA5FB6"/>
<path d="M18.1939 262.347C16.8851 260.453 15.9553 258.492 15.4069 256.502C17.6651 254.299 20.4256 252.221 23.6989 250.328C34.2974 244.194 48.1889 241.126 62.0791 241.126C75.9694 241.126 89.8574 244.193 100.456 250.327C103.725 252.219 106.489 254.292 108.749 256.49C108.2 258.485 107.271 260.449 105.959 262.347C105.959 262.346 105.957 262.345 105.957 262.344C103.651 259.013 100.168 255.891 95.5064 253.191C86.2765 247.849 74.1755 245.178 62.078 245.178C49.9782 245.178 37.8806 247.848 28.6473 253.191C23.9846 255.891 20.5016 259.015 18.1939 262.347Z" fill="#CA5FB6"/>
<path d="M12.1196 260.262C12.4883 261.098 13.0863 261.782 13.7672 262.409L13.7845 262.203L18.6799 265.129L24.6918 270.727L33.023 274.428L44.5318 278.561L54.7513 280.972L68.8363 281.574L77.9406 280.627L95.9751 275.892L107.729 265.475C107.634 265.266 107.556 265.057 107.452 264.849C109.176 263.251 110.471 261.318 111.325 259.316C111.644 259.714 111.943 260.114 112.231 260.518L116.352 251.914V272.54L116.343 272.523C116.35 280.566 111.06 288.614 100.455 294.753C79.2575 307.02 44.8936 307.02 23.6987 294.753C7.58591 285.428 3.73544 271.7 12.1196 260.262Z" fill="#D1078D"/>
<path d="M103.489 269.232L107.729 265.474C107.633 265.265 107.556 265.056 107.451 264.848C109.176 263.251 110.471 261.318 111.325 259.316C111.644 259.713 111.942 260.114 112.23 260.517L116.352 251.913V272.54L116.342 272.522C116.349 279.754 112.06 286.983 103.489 292.831V269.232Z" fill="#EE1696"/>
<path d="M28.6467 232.812C47.1098 222.126 77.0437 222.126 95.5057 232.811C113.968 243.497 113.967 260.821 95.5046 271.507C77.0414 282.193 47.1087 282.193 28.6467 271.508C10.1847 260.822 10.1847 243.497 28.6467 232.812ZM23.6982 274.373C44.8931 286.639 79.257 286.639 100.454 274.372C121.649 262.103 121.65 242.213 100.455 229.945C79.2593 217.678 44.8942 217.679 23.6994 229.947C2.50218 242.214 2.50218 262.104 23.6982 274.373Z" fill="#EE1696"/>
<path d="M135.956 296.884L105.873 279.336L101.873 285.831L132.094 303.475L135.956 296.884Z" fill="#D9EFFB"/>
<path d="M131.329 301.74C131.329 303.464 132.535 304.163 134.023 303.301C135.513 302.439 136.721 300.343 136.721 298.619C136.721 296.895 135.513 296.196 134.023 297.058C132.535 297.92 131.329 300.016 131.329 301.74Z" fill="#7844A6"/>
<path d="M131.329 301.74C131.329 303.464 132.535 304.163 134.023 303.301C135.513 302.439 136.721 300.343 136.721 298.619C136.721 296.895 135.513 296.196 134.023 297.058C132.535 297.92 131.329 300.016 131.329 301.74Z" fill="#7844A6"/>
<path d="M101.236 284.186C101.236 285.91 102.443 286.608 103.932 285.747C105.422 284.885 106.629 282.789 106.629 281.064C106.629 279.341 105.422 278.642 103.932 279.505C102.443 280.367 101.236 282.462 101.236 284.186Z" fill="#D9EFFB"/>
<path d="M116.529 303.013C116.529 295.596 121.724 286.577 128.132 282.868C131.413 280.969 134.369 280.84 136.479 282.152L136.483 282.146L200.08 319.201L183.463 347.558L120.534 310.832C120.102 310.646 119.699 310.413 119.325 310.125L119.274 310.094L119.276 310.09C117.565 308.74 116.529 306.318 116.529 303.013Z" fill="#5F92D3"/>
<path d="M195.479 327.054L124.297 285.854C125.499 284.67 126.786 283.645 128.133 282.868C131.413 280.969 134.369 280.84 136.479 282.152L136.484 282.146L200.081 319.201L195.479 327.054Z" fill="#D9EFFB"/>
<path d="M180.169 340.095C180.169 347.511 185.365 350.519 191.772 346.81C198.181 343.101 203.376 334.081 203.376 326.664C203.376 319.246 198.181 316.239 191.772 319.948C185.365 323.657 180.169 332.677 180.169 340.095Z" fill="#D9EFFB"/>
<path d="M189.592 336.63C189.592 340.815 192.974 344.206 197.149 344.206C201.324 344.206 204.707 340.815 204.707 336.63C204.707 332.445 201.324 329.054 197.149 329.054C192.974 329.054 189.592 332.445 189.592 336.63Z" fill="#5F92D3"/>
<path d="M198.532 333.853C198.532 335.09 199.532 336.092 200.765 336.092C201.998 336.092 202.998 335.09 202.998 333.853C202.998 332.617 201.998 331.616 200.765 331.616C199.532 331.616 198.532 332.617 198.532 333.853Z" fill="white"/>
<path d="M190.916 319.451C194.345 317.467 197.417 317.42 199.541 318.928C197.484 317.966 194.765 318.217 191.771 319.949C185.364 323.657 180.169 332.678 180.169 340.095C180.169 343.543 181.302 346.023 183.147 347.333C180.798 346.234 179.313 343.551 179.313 339.598C179.313 332.179 184.508 323.159 190.916 319.451Z" fill="white"/>
<path d="M28.6473 232.812C47.1104 222.126 77.0443 222.126 95.5063 232.811C105.121 238.375 109.716 245.74 109.317 253.031C108.95 246.321 104.354 239.676 95.5063 234.555C77.0443 223.869 47.1104 223.869 28.6473 234.555C19.7999 239.677 15.204 246.323 14.8365 253.033C14.4367 245.742 19.0338 238.376 28.6473 232.812Z" fill="white"/>
<path d="M23.6987 274.373C44.8936 286.64 79.2575 286.64 100.455 274.372C110.67 268.46 115.946 260.778 116.315 253.031C116.713 261.359 111.436 269.76 100.455 276.116C79.2575 288.384 44.8936 288.384 23.6987 276.116C12.7165 269.762 7.43965 261.36 7.83714 253.034C8.20697 260.779 13.4826 268.461 23.6987 274.373Z" fill="white"/>
</svg>
