<svg width="57" height="94" viewBox="0 0 57 94" fill="none" xmlns="http://www.w3.org/2000/svg">
<path d="M56.6627 75.4324H0V93.9591H56.6627V75.4324Z" fill="#F77B55"/>
<path d="M56.6627 20.1181H0V75.5206H56.6627V20.1181Z" fill="#FF916E"/>
<path d="M56.6607 77.5907H3.41553V91.6221H56.6607V77.5907Z" fill="#F2F2F2"/>
<path d="M56.6607 80.379H3.41553V81.5472H56.6607V80.379Z" fill="#CDCCCA"/>
<path d="M56.6607 87.753H3.41553V88.9229H56.6607V87.753Z" fill="#CDCCCA"/>
<path d="M56.6607 84.0663H3.41553V85.2345H56.6607V84.0663Z" fill="#CDCCCA"/>
<path d="M54.0536 39.9957L37.2261 7.27604H15.4991L8.52148 22.3884V28.8699V40.9405V58.7935H15.6608V40.6868H17.2633V63.2936H24.7323V40.9405H26.0052V67.8745H33.1445V40.9405H34.747V64.2985H42.2715V42.3512V34.4193L47.6672 42.6032L54.0536 39.9957Z" fill="#F77B55"/>
<path d="M4.13508 77.5907H2.06653V91.6221H4.13508V77.5907Z" fill="#353F49"/>
<path d="M52.8892 37.8208L36.7972 4.57804H16.3447L9.77759 19.6888V26.1719V38.2425V56.3475H16.4984V38.2425H18.0058V60.594H24.7267V38.2425H26.2341V65.1765H32.955V38.2425H34.4624V61.6005H41.1832V38.2425V30.309L47.3096 39.8751L52.8892 37.8208Z" fill="#FECA5C"/>
<path d="M15.5466 50.6377H10.7041V55.0157H15.5466V50.6377Z" fill="white"/>
<path d="M23.7987 54.5944H18.9562V58.974H23.7987V54.5944Z" fill="white"/>
<path d="M23.7987 54.8052H18.9562V59.1848H23.7987V54.8052Z" fill="white"/>
<path d="M29.1401 4.57804V65.1765H32.9555V38.2425H34.4629V61.6005H41.1838V38.2425V30.309L47.3102 39.8751L52.8897 37.8208L36.7978 4.57804H29.1401Z" fill="#F9BB4E"/>
<path d="M40.3014 55.9845H35.4604V60.3625H40.3014V55.9845Z" fill="white"/>
<path d="M31.9633 59.4366H27.1224V63.8147H31.9633V59.4366Z" fill="white"/>
<path d="M52.2242 36.3974L50.1937 32.2381L47.4277 33.2192L49.4661 37.2977L52.2242 36.3974Z" fill="white"/>
<path d="M11.6932 5.24521e-05H41.1936V9.23486H11.6932V5.24521e-05Z" fill="#353F49"/>
<path d="M26.9832 5.24521e-05H41.1936V9.23486H26.9832V5.24521e-05Z" fill="#2C353D"/>
</svg>
